<!-- by TradingView --><svg width="56" height="56" viewBox="0 0 56 56" xmlns="http://www.w3.org/2000/svg"><path fill="#F0F3FA" d="M0 0h56v56H0z"/><path d="M39.98 27c-2.82.68-6.67 1-11.99 1-5.44 0-9.15-.32-11.97-1-2.06-.5-2.05-10.44 10.22-11.32.71-.97.32-2.87-.12-3.4-.1-.12.01-.3.16-.28.25.04.49.1.72.2 1.89.8 2.82 3 3.02 3.5 12 1 12 10.8 9.96 11.3Zm-1.3 2c-1.62.32-5.68 1-10.68 1s-9.08-.68-10.69-1a.7.7 0 0 0-.83.62c-.2 2.7-.05 11.22 9.8 12.9.52.46 1.4 1.48 1.72 1.48.31 0 1.19-1.02 1.71-1.47 9.78-1.87 9.98-10.22 9.8-12.9a.7.7 0 0 0-.83-.63Z" fill="#74C947"/></svg>