<!-- by TradingView --><svg width="56" height="56" viewBox="0 0 56 56" xmlns="http://www.w3.org/2000/svg"><path fill="#F0F3FA" d="M0 0h56v56H0z"/><path d="M48.33 23H50v6.44c0 2.24-1.89 3.56-4 3.56-2.12 0-4-1.31-4-3.56V23h1.7v6.29c0 1.27 1.06 2.12 2.3 2.12 1.24 0 2.33-.85 2.33-2.12V23ZM40.8 26.42H39.1c-.05-.3-.14-.55-.27-.78a2.06 2.06 0 0 0-1.16-.93 2.53 2.53 0 0 0-.8-.13c-.52 0-.97.14-1.37.4-.4.26-.7.65-.93 1.16a4.6 4.6 0 0 0-.33 1.86c0 .74.11 1.37.33 1.88.23.5.54.9.93 1.15a2.65 2.65 0 0 0 2.14.27 2.13 2.13 0 0 0 1.17-.9c.14-.23.24-.48.29-.76h1.72a3.92 3.92 0 0 1-1.25 2.38c-.35.3-.75.55-1.2.72-.47.17-.98.26-1.54.26a4.1 4.1 0 0 1-3.75-2.31 5.96 5.96 0 0 1-.55-2.69c0-1.05.18-1.95.56-2.69.38-.75.89-1.32 1.54-1.72a4.53 4.53 0 0 1 3.67-.37 3.7 3.7 0 0 1 2.52 3.2ZM25.09 33h-1.82l3.31-10h2.1L32 33h-1.82l-2.51-7.95h-.07L25.09 33Zm.06-4h4.96v1.53h-4.96V29ZM18.19 33H15V23h3.25c.94 0 1.74.2 2.4.6.68.4 1.2.97 1.56 1.71.36.75.54 1.64.54 2.68 0 1.04-.18 1.94-.54 2.69a3.92 3.92 0 0 1-1.57 1.72c-.68.4-1.5.6-2.45.6Zm-1.49-1.57h1.4c.66 0 1.2-.12 1.64-.38.44-.26.77-.64 1-1.15.21-.5.32-1.14.32-1.91 0-.76-.1-1.4-.33-1.9-.22-.51-.54-.9-.98-1.14a3.1 3.1 0 0 0-1.6-.38H16.7v6.86ZM6.82 33H5l3.31-10h2.1l3.32 10h-1.82L9.4 25.05h-.07L6.82 33Zm.06-4h4.96v1.53H6.88V29Z"/></svg>