<!-- by TradingView --><svg width="56" height="56" viewBox="0 0 56 56" xmlns="http://www.w3.org/2000/svg"><path fill="#F0F3FA" d="M0 0h56v56H0z"/><path d="M11 21c-.14-2.98 1.5-8.97 9.23-9 3.62.13 10.06 2.5 6.93 11.01L34.34 13h7.19l-5.28 6.57c2.92-.3 8.75.9 8.75 8.1.01 2.14-1.22 6.8-6.25 8.33h-9.1l-1.02-5.85c-.08-.2-.12-.65.38-.83.63-.22.7-.57 0-.7l-2.27-.4V36h-.33v-7.79c-.57.08-1.83.28-2.25.4-.53.17-.66.43 0 .71.53.22.4.95.26 1.3l-1 5.38H11v-4.74l3.53-2.14 10.25-1.76v-.57l-5.96-1.4c1.1-1.2 3.27-4.11 3.08-6.12-.18-2.01-1.89-2.14-2.72-1.96-.7.15-2.13.9-2.28 3.69H11Zm24.5 10.53c1.93 0 3.5-1.52 3.5-3.4a3.46 3.46 0 0 0-3.5-3.42 3.46 3.46 0 0 0-3.5 3.41 3.46 3.46 0 0 0 3.5 3.41Zm-10.52-5.18v1.88l1.6-.27 1.6.27v-1.88l.27.09v-.23l-1.65-.69v-.54l-.16-.25h-.16l-.16.25v.54l-1.64.69v.23l.3-.1Zm1.32 1.15v-1.2l-.91.31v1.21l.9-.32Zm.53-1.2v1.2l.9.32v-1.2l-.9-.32Zm.37 3.7.37.1v.73l-.37-.1V30Zm.37 2.37-.37-.1v.75l.37.1v-.75Zm-.37 2.18.37.1v.74l-.37-.1v-.74Z" fill="#FD6A02"/><path d="M11.55 40.48a2.48 2.48 0 0 1 4.69-1.14l-1.35.5a1.01 1.01 0 0 0-1.89.52v1.28a1.01 1.01 0 0 0 1.93.44l1.3.6a2.48 2.48 0 0 1-4.68-1.16v-1.04ZM16.24 44l2.2-6h1.42l2.22 6H20.4l-.35-1.23h-1.75L17.95 44h-1.71Zm2.43-2.56h1l-.5-1.76-.5 1.76ZM34.3 44l2.2-6h1.41l2.23 6h-1.7l-.35-1.23h-1.74L36 44h-1.7Zm2.42-2.56h1l-.5-1.76-.5 1.76ZM28 38h1.59v6H28zM33.6 44v-4.47h1.6V38H30.4v1.53H32V44h1.6ZM42 38h-1.56v6H44.55v-1.53H42V38ZM23.25 38h1.82a2.16 2.16 0 1 1 0 4.31H24V44h-1.55v-6h.8Zm.75 1.38V41h.85a.81.81 0 0 0 0-1.62H24Z" fill="#1C2841"/></svg>