<!-- by TradingView --><svg width="56" height="56" viewBox="0 0 56 56" xmlns="http://www.w3.org/2000/svg"><path fill="#F0F3FA" d="M0 0h56v56H0z"/><path d="m39.9 31.92 1.17 1.16a.06.06 0 0 1 0 .09l-.82.81a.07.07 0 0 1-.1 0L39 32.81a.06.06 0 0 0-.04-.02l-.04.01a5.29 5.29 0 0 1-6.92-.43 5.73 5.73 0 0 1-1.3-5.88 5.23 5.23 0 0 1 3.55-3.32 5.55 5.55 0 0 1 4.45.71 5.4 5.4 0 0 1 2.27 5.34c-.1.87-.46 1.72-1.06 2.54a.13.13 0 0 0-.03.08c0 .03.02.06.04.08Zm-3.14-1.42.85-.85a.03.03 0 0 1 .03 0 .03.03 0 0 1 .02 0l1.1 1.1a.1.1 0 0 0 .14-.01c.5-.77.72-1.64.66-2.6a3.86 3.86 0 0 0-1.95-3.28 4.1 4.1 0 0 0-3.1-.34c-1.58.5-2.6 1.9-2.68 3.58a4.3 4.3 0 0 0 .57 2.51 3.74 3.74 0 0 0 2.76 1.87 3.85 3.85 0 0 0 2.74-.7.07.07 0 0 0-.01-.08l-1.13-1.13v-.07ZM8.5 23a10.88 10.88 0 0 1 .65.04c.02.01.04.03.04.06L13 33.98V34l-.02.01h-1.4a.05.05 0 0 1-.04-.03l-1.14-3.25a.05.05 0 0 0-.04-.04 100.22 100.22 0 0 0-3.75.03l-1.14 3.25a.05.05 0 0 1-.04.04h-1.4L4 33.98 4 33.97v-.01l3.81-10.88.04-.05A10.9 10.9 0 0 1 8.5 23Zm-1.45 6.23a.06.06 0 0 0 0 .05l.02.02h.03l2.75.02a.05.05 0 0 0 .04-.02.06.06 0 0 0 0-.05L8.55 25.3a.06.06 0 0 0-.02-.03.05.05 0 0 0-.06 0l-.02.03-1.4 3.93ZM20 32.7v1.26l-.02.02-.02.01-.02.01h-5.88c-.01 0-.03 0-.04-.02a.08.08 0 0 1-.02-.05V23.07c0-.02 0-.04.02-.05a.06.06 0 0 1 .04-.02h5.62c.02 0 .04 0 .05.02l.02.05v1.26c0 .02 0 .03-.02.05a.06.06 0 0 1-.05.02H15.4c-.02 0-.04 0-.05.02a.08.08 0 0 0-.02.05v3.24l.02.06.05.02h3.54c.02 0 .03 0 .04.02.02.01.02.03.02.05v1.23c0 .02 0 .04-.02.05a.06.06 0 0 1-.04.02H15.4c-.02 0-.04 0-.05.02a.08.08 0 0 0-.02.05v3.33c0 .02 0 .03.02.05l.05.02h4.56l.02.02a.07.07 0 0 1 .02.05ZM25.49 30.67a121.99 121.99 0 0 0-1.88.02l-.01.02-1.14 3.26a.05.05 0 0 1-.05.03h-1.4a.02.02 0 0 1-.02-.02l3.81-10.89c0-.02.02-.04.04-.05a12.18 12.18 0 0 1 1.3 0c.02.01.03.03.04.06l3.8 10.88a.02.02 0 0 1 0 .01h-.01l-.01.01h-1.4a.05.05 0 0 1-.05-.03l-1.13-3.25a.05.05 0 0 0-.04-.04h-1.85Zm-1.44-1.45a.07.07 0 0 0 0 .06l.03.02h.03l2.72.02h.03a.06.06 0 0 0 .03-.05v-.03l-1.34-3.94a.07.07 0 0 0-.03-.03.06.06 0 0 0-.07 0 .07.07 0 0 0-.02.03l-1.38 3.92ZM47 32.61c1.03 0 1.94-.41 2.39-1.39.15-.33.23-.91.23-1.73a7207.32 7207.32 0 0 1 0-6.47.06.06 0 0 1 .05-.02h1.26a.06.06 0 0 1 .05.02.07.07 0 0 1 .02.05v6.84c0 2.52-1.62 4.09-4 4.09-2.37 0-4-1.56-4-4.1a5472.16 5472.16 0 0 0 .02-6.88.06.06 0 0 1 .05-.02h1.26c.01 0 .03 0 .04.02l.02.04v6.43c0 .82.07 1.4.22 1.73.45.98 1.37 1.4 2.4 1.4Z" fill="gray"/></svg>