<!-- by TradingView --><svg width="56" height="56" viewBox="0 0 56 56" xmlns="http://www.w3.org/2000/svg"><path fill="#F0F3FA" d="M0 0h56v56H0z"/><path d="M18 33h-1.5l-1.65-3.5h-4.4L9 33H8l4.5-11L18 33Zm-7.35-4h3.97l-2.12-4.5-1.85 4.5ZM28 25h-1v8h1v-6.5c.8-.8 2-.67 2.5-.5v-1c-1.6 0-2.33.67-2.5 1v-1ZM32 25h1v8h-1zM36 25.89a4.01 4.01 0 0 1 2.5-.89c2 0 2.5 1.5 2.5 2v6h-1v-6c0-.5-.5-1.5-1.5-1.5-1.1 0-1.94.54-2.5 1.03V33h-1v-8h1v.89Z" fill="#0068A6"/><path d="M34 23a1 1 0 1 1-2 0 1 1 0 0 1 2 0Z" fill="#B9DCCD"/><circle cx="36" cy="23" r="1" fill="#B9DCCD"/><path d="M39 21a1 1 0 1 1-2 0 1 1 0 0 1 2 0Z" fill="#B9DCCD"/><circle cx="36" cy="19" r="1" fill="#B9DCCD"/><circle cx="39" cy="19" r="1" fill="#79C1A5"/><path d="M42 21a1 1 0 1 1-2 0 1 1 0 0 1 2 0Z" fill="#79C1A5"/><circle cx="39" cy="23" r="1" fill="#79C1A5"/><circle cx="42" cy="23" r="1" fill="#19AB84"/><path d="M45 21a1 1 0 1 1-2 0 1 1 0 0 1 2 0Z" fill="#19AB84"/><circle cx="42" cy="19" r="1" fill="#19AB84"/><circle cx="45" cy="19" r="1" fill="#009964"/><circle cx="47" cy="21" r="1" fill="#009964"/><circle cx="45" cy="23" r="1" fill="#009964"/><path d="M22.02 25A4.01 4.01 0 0 1 26 28.5h-6.95c-.03.17-.05.33-.05.5 0 1.66 1.35 3.5 3.02 3.5.97 0 1.84-.64 2.4-1.5h1.07A4.02 4.02 0 0 1 18 29a4 4 0 0 1 4.02-4Zm0 .5c-1.33 0-2.46 1.18-2.86 2.5h5.7c-.39-1.32-1.51-2.5-2.84-2.5Z" fill="#0068A6"/></svg>