<!-- by TradingView --><svg width="56" height="56" viewBox="0 0 56 56" xmlns="http://www.w3.org/2000/svg"><path fill="#F0F3FA" d="M0 0h56v56H0z"/><path d="M15 32h-2l-1-2-8 2 4.5-11h3L15 32Zm-7.5-2.5 4.5-1-2-5.5-2.5 6.5ZM16 24c0-1.13.5-1.93 1.17-2.41A3.23 3.23 0 0 1 19 21h1v2h-1c-.17 0-.46.06-.67.21-.16.12-.33.32-.33.79h5v8h-2v-6h-3v6h-2v-6h-1v-2h1Z"/><path d="M21 21h2v2h-2zM40 32v-8h2v1.11A2.68 2.68 0 0 1 44.19 24c.88 0 1.7.39 2.23 1.11a3.14 3.14 0 0 1 2.5-1.11c1.82 0 3.08 1.51 3.08 3.26V32h-2v-4.41c0-.81-.67-1.58-1.54-1.58-.86 0-1.46.75-1.46 1.55V32h-2v-4.41c0-.8-.59-1.58-1.45-1.58-.87 0-1.55.75-1.55 1.55V32h-2ZM24 32v-8h2v1.11A2.41 2.41 0 0 1 28.06 24c1.83 0 2.94 1.67 2.94 3.37V32h-2v-4.34c0-.8-.67-1.65-1.5-1.65-.86 0-1.5.8-1.5 1.63V32h-2ZM39 24v8h-2v-1.11A2.41 2.41 0 0 1 34.94 32C33.11 32 32 30.33 32 28.63V24h2v4.34c0 .8.67 1.65 1.5 1.65.86 0 1.5-.8 1.5-1.63V24h2Z"/></svg>