<!-- by TradingView --><svg width="56" height="56" viewBox="0 0 56 56" xmlns="http://www.w3.org/2000/svg"><path fill="#F0F3FA" d="M0 0h56v56H0z"/><path d="M33.43 26.28c1.61.24 3.3.78 3.3.78a16.33 16.33 0 0 0-5.85-2.16l-.98-2.2a3.22 3.22 0 0 0-3.18-3.17 3.22 3.22 0 0 0-3.17 3.27c0 .65.18 1.25.5 1.76-3.08.25-5.2.92-5.2.92 1.71-.15 3.44-.18 5.12-.13l-.01.8 1.69 2.97-.81 1.84 2.2 6.04 2.1-.38 2.4-3.25.34-1.7 1.76-1.79-.69-2.89.48-.71Zm-2.91-1.45-.24-.04-.2-.03-.2-1.34.64 1.41Zm-.77-.12-.41-.06c.13-.19.23-.39.32-.6l.1.66Zm-1.14-.45-1.08-1.12h1.53c-.06.41-.22.8-.45 1.12Zm.45-1.8H27.5l1.09-1.13c.24.33.4.71.46 1.13Zm-2-2.06c.4.06.76.22 1.08.46l-1.09 1.11V20.4Zm.88 4.12-.89-.04v-.87l.9.91ZM26.4 20.4v1.57l-1.09-1.11c.32-.24.69-.4 1.09-.46Zm-1.55.94 1.1 1.12h-1.56c.06-.42.22-.8.46-1.12Zm1.07 1.8-1.08 1.11c-.23-.32-.39-.7-.45-1.11h1.53Zm.48.47v.86h-.85l.85-.86Z" fill="#5D3C1B"/><path d="m34.28 21.73-3.5-5.48.32-1.32-4.01-.38-.53.57-3.06-.8.23-1.32-4.94.83-3.14 5-.07 2.4 3.01 2.88 2.84-.51 1.3-.62-2.47-1.6 2.91-.03-1.62-2.49 2.67 1.2-.5-2.96 1.98 2.2.71-2.9.93 2.85 1.8-2.36-.28 2.98 2.58-1.4L30 21.1l2.92-.2-2.35 1.79 2.74 1.04-2.39.54c1.06.2 2.13.49 3.2.89l2.4-3.75-2.24.33Z" fill="url(#afrqc54mh)"/><path d="M18.9 36a4.1 4.1 0 0 1-4.2-4c0-2.2 1.89-4 4.2-4 1.39 0 2.68.65 3.47 1.74l-1.22.9a2.76 2.76 0 0 0-2.25-1.1c-1.48 0-2.69 1.1-2.69 2.46 0 1.36 1.21 2.47 2.7 2.47.85 0 2.23-.57 2.55-1.47H19v-1.54h4V32c0 .82-.16 1.6-.64 2.28A4.27 4.27 0 0 1 18.9 36ZM47.54 36a4.1 4.1 0 0 1-4.2-4c0-2.2 1.88-4 4.2-4 1.38 0 2.68.65 3.46 1.74l-1.22.9a2.76 2.76 0 0 0-2.24-1.1c-1.49 0-2.7 1.1-2.7 2.46 0 1.36 1.21 2.47 2.7 2.47.9 0 1.73-.42 2.23-1.1l1.22.9A4.27 4.27 0 0 1 47.54 36ZM37.37 28l-3.8 8h1.68l.96-2h4.16l.96 2h1.68l-3.8-8h-1.84Zm-.42 4.42 1.34-2.8 1.34 2.8h-2.68ZM8.8 28 5 36h1.68l.96-2h4.17l.96 2h1.68l-3.8-8H8.8Zm-.41 4.43 1.33-2.82 1.34 2.82H8.4Z" fill="#5D3C1B"/><defs><linearGradient id="afrqc54mh" x1="26.12" y1="10.36" x2="26" y2="26.67" gradientUnits="userSpaceOnUse"><stop offset=".45" stop-color="#FBB040"/><stop offset="1" stop-color="#B56536"/></linearGradient></defs></svg>