<!-- by TradingView --><svg width="56" height="56" viewBox="0 0 56 56" xmlns="http://www.w3.org/2000/svg"><path fill="#031C3A" d="M0 0h56v56H0z"/><path fill-rule="evenodd" d="M22 19v-4.97c1.75.1 3.84.48 5.57 1.3 1.74.81 2.99 1.99 3.33 3.67H22Zm-2 0h-7v2h7v2h-.02c-3.28 0-5.31 2.13-6.46 4.57A18.19 18.19 0 0 0 12 35v1h8v7h2v-7h2.09c.43 2.53 2.45 4.45 4.59 5.71C31.1 43.17 34.04 44 36 44h1v-8h6v-2h-6v-2.35c2.04-.73 3.62-2.48 4.71-4.33C43.17 24.9 44 21.96 44 20v-1h-7v-6h-2v6h-2.07c-.38-2.71-2.31-4.45-4.5-5.48A18.19 18.19 0 0 0 21 12h-1v7Zm10.93 2H22v2.22c2.35.54 3.97 1.98 5.46 3.29l.11.1.18-.2.15-.17c1.5-1.7 2.73-3.1 3.03-5.24Zm-1.83 6.9.15-.17.24-.27c1.5-1.69 3.14-3.55 3.46-6.46H35v9h-.02c-2.62 0-4.34-.9-5.88-2.1Zm-2.8.26-.06-.06c-1.42-1.25-2.63-2.32-4.24-2.81V34h2.04c.2-2.53 1.15-4.34 2.26-5.84ZM26.04 34c.18-1.9.88-3.3 1.8-4.55A10.97 10.97 0 0 0 34.98 32H35v2h-8.96Zm.1 2c.4 1.54 1.74 2.91 3.56 4A15.18 15.18 0 0 0 35 41.9V36h-8.86ZM20 34v-9h-.02c-2.21 0-3.68 1.37-4.65 3.43a15.69 15.69 0 0 0-1.3 5.57H20Zm17-4.54a8.42 8.42 0 0 0 3-3.16A15.17 15.17 0 0 0 41.9 21H37v8.46Z" fill="#FCBF31"/></svg>