<!-- by TradingView --><svg width="56" height="56" viewBox="0 0 56 56" xmlns="http://www.w3.org/2000/svg"><path fill="#F0F3FA" d="M0 0h56v56H0z"/><path d="m32.64 29.76-2.6.41c-.42-2.43-.19-4.62.7-6.58A4.28 4.28 0 0 1 34.37 21c.09 0 .17 0 .25.02 2.4.5 3.46 2.42 3.79 4.78a.16.16 0 0 1-.04.12.15.15 0 0 1-.1.06h-2.23a.33.33 0 0 1-.22-.08.36.36 0 0 1-.12-.2c-.26-1.14-.84-1.6-1.72-1.38-1.6.38-1.47 4.2-1.34 5.44ZM19.06 31.33c-1.94.14-3.84.08-5.7-.17-.05 0-.1-.06-.15-.14L14.48 28a.36.36 0 0 0 0-.28l-.63-1.53c0-.2-.06-.4-.2-.6l-1.78-4.47a.1.1 0 0 1 0-.08l.03-.03.04-.01h2.72c.05 0 .09.01.12.04.04.02.07.06.09.1l1.16 2.84c0 .02.01.03.03.04h.07l.03-.04 1.21-2.87a.19.19 0 0 1 .07-.08.16.16 0 0 1 .1-.03h2.86l.04.01a.1.1 0 0 1 .04.04.1.1 0 0 1 0 .1l-2.8 6.6a.3.3 0 0 0 0 .22l1.38 3.36ZM25.03 30.87l-3.47.3 3.74-6.99a.13.13 0 0 0 0-.12.12.12 0 0 0-.04-.04.1.1 0 0 0-.06-.02h-3.73a.11.11 0 0 1-.08-.04.13.13 0 0 1-.03-.08v-2.71a.18.18 0 0 1 .04-.12.16.16 0 0 1 .11-.05h7.13a.13.13 0 0 1 .1.05.16.16 0 0 1 .04.1v2.88c0 .09-.02.17-.06.24l-3.7 6.6ZM46.41 21.8c.1.27.26.48.5.63a8.09 8.09 0 0 1 1.41 3.59c-.77.35-1.58.64-2.46.93-.04 0-.1 0-.21-.03-.18-1.26-.28-2.68-1.81-2.6-.24.02-.52 0-.7.03a.17.17 0 0 0-.1.06.2.2 0 0 0-.05.12v3.2a3.1 3.1 0 0 1-1.17.24c-.11 0-.22-.09-.3-.17-.43-.43-.94-.6-1.52-.68v-5.86c0-.03.01-.07.04-.1a.15.15 0 0 1 .1-.05c2.38-.27 4.47-.04 6.27.7Z" fill="#2C5B93"/><path d="m48.4 27.5-2.75.98-2.75.84c-.28.02-.51.07-.7.18-.13.06-.29.24-.48.54-.34.53-.87.84-1.58.95a4.95 4.95 0 0 0-1.6-.5l-2.78.66-2.34.47-2.93.5-1.6.26-7.75.95-1.14.13-3.07.26-1.87.12-3.2.19c-2.23.11-6.28.4-7.6-1.83-1.36-2.27 3.1-4.25 4.45-4.79 1.6-.63 3.25-1.17 4.93-1.62.15.18.22.37.21.57-.84.3-1.6.71-2.25 1.23-.9.7-1.52 1.97-.36 2.81.48.35 1.1.57 1.84.66.1.01.14 0 .13-.05.04.08.1.12.15.13 1.86.24 3.76.3 5.7.16l2.5-.18 3.47-.29 5-.66 2.6-.4 2-.32 3.5-.64a.28.28 0 0 0 .17-.12c.13-.19.22-.4.26-.65.43-.56.96-.88 1.59-.95.57.06 1.06.3 1.48.72.08.07.18.12.3.12.31.02.64-.05.98-.19.9-.21 1.77-.45 2.64-.7.05-.01.09-.05.1-.13.1.03.17.04.2.02.88-.27 1.7-.58 2.45-.91.53-.2 1.45-.68 1.64-1.2a.71.71 0 0 0-.19-.78 6.51 6.51 0 0 0-2.86-1.6 1.17 1.17 0 0 1-.47-.63 16 16 0 0 1 4.43 1.7c.62.32 1.24.78 1.14 1.56a.4.4 0 0 1-.1.2 9.76 9.76 0 0 1-3.5 2.23Z" fill="#D92524"/><path d="M38.56 28.04a1.7 1.7 0 0 1-.26.65c-.04.06-.1.1-.17.11l-3.5.65v-1.82c0-.03.01-.07.03-.1a.13.13 0 0 1 .1-.03h3.58c.03 0 .06 0 .09.03l.05.08.08.43ZM48.4 27.5c.25 2.89-.66 7.24-4.17 7.5h-4.1a.13.13 0 0 1-.1-.04.13.13 0 0 1-.03-.1v-3.95c.72-.1 1.27-.3 1.62-.84.2-.3.35-.48.48-.54.2-.1.62-.22.9-.24v2.33c0 .04.03.12.06.15.02.03.05.04.08.05 2.18.35 2.39-1.55 2.47-3.32l2.8-1ZM38.54 30.49l.02 4.22a.3.3 0 0 1-.29.29h-1.36a.22.22 0 0 1-.22-.22v-1.04l-.01-.04a.07.07 0 0 0-.08-.02A3.43 3.43 0 0 1 34.7 35h-1.42c-1.36-.37-2.29-1.33-2.78-2.88l2.93-.5c.82.71 1.6.56 2.34-.47l2.78-.66ZM29 32.27v2.58c0 .04-.05.08-.07.1a.12.12 0 0 1-.1.05H21.3a.1.1 0 0 1-.04-.01.12.12 0 0 1-.04-.03.14.14 0 0 1-.03-.1l.03-1.55L29 32.27ZM20 33.42l.56 1.36a.18.18 0 0 1 0 .15.15.15 0 0 1-.05.05.12.12 0 0 1-.07.02h-2.9a.17.17 0 0 1-.1-.04.21.21 0 0 1-.07-.09l-.44-1.17 3.07-.28ZM15.06 33.8l-.4 1.06a.23.23 0 0 1-.08.1.17.17 0 0 1-.1.04H11.6l-.05-.01a.1.1 0 0 1-.03-.04.13.13 0 0 1 0-.1l.34-.83 3.2-.21Z" fill="#2C5B93"/></svg>