<!-- by TradingView --><svg width="56" height="56" viewBox="0 0 56 56" xmlns="http://www.w3.org/2000/svg"><path fill="#F0F3FA" d="M0 0h56v56H0z"/><path d="M30.65 12C38.02 12 44 17.98 44 25.35v5.3C44 38.02 38.02 44 30.65 44h-5.3A13.35 13.35 0 0 1 12 30.65v-5.3C12 17.98 17.98 12 25.35 12h5.3ZM28 15a6 6 0 0 0 0 12h.04A3.06 3.06 0 0 1 31 30.11v4.78A3.06 3.06 0 0 1 28 38c-1.66 0-3-1.4-3-3.11V30.1c0-.95.41-1.8 1.06-2.37l-.06.01a9.04 9.04 0 0 1-2.6-1.61 5.91 5.91 0 0 0-1.4 3.82v5.08c0 3.3 2.69 5.96 6 5.96s6-2.67 6-5.96v-5.08c0-3.3-2.69-5.96-6-5.96H27.83a3 3 0 1 1 2.65-1.31c.64.32 1.57.88 2.4 1.7l.04.04A6 6 0 0 0 28 15Zm0 4a2 2 0 1 0 0 4 2 2 0 0 0 0-4Z" fill="#00ABE7"/></svg>