<!-- by TradingView --><svg width="56" height="56" viewBox="0 0 56 56" xmlns="http://www.w3.org/2000/svg"><path fill="#F0F3FA" d="M0 0h56v56H0z"/><path d="M46 35v1h-3V26l-1.5 3h-5L35 26v3h-3v-9h4l3 6.5 3-6.5h4v12.5h-2v.5h2v.5h-2v.5h2v.5h-2v.5h2Z" fill="#ED1B24"/><path d="M35 30h-3v6h3v-6ZM41 30h-4l2 6 2-6ZM30 30h-7.37L20 36h3.68l1.58-4H27v4h3v-6ZM30 29h-3v-2.65L26 29h-3l3.5-9H30v9ZM12.5 20l4 10h4.52l-2.4 6h-4.25L9.2 23H11v-.5H9l-.2-.5H11v-.5H8.6l-.2-.5H11v-.5H8.2L8 20h4.5ZM25 20l-3.59 9H16.9l3.6-9H25Z" fill="#ED1B24"/></svg>