<!-- by TradingView --><svg width="56" height="56" viewBox="0 0 56 56" xmlns="http://www.w3.org/2000/svg"><path fill="#F0F3FA" d="M0 0h56v56H0z"/><path d="M25 32.53v3.18c0 .3-.24.53-.54.55-4.23.19-9.22 2.54-11.46 3.74l-2-2.68c4.81-3.6 10.62-5 13.43-5.32.3-.03.57.21.57.53Z" fill="url(#a)"/><path d="M31.08 32.53v3.18c0 .3.22.53.5.55 3.93.19 8.92 2.54 11 3.74l1.5-2.68c-4.47-3.6-9.86-5-12.47-5.32-.29-.03-.53.21-.53.53Z" fill="url(#b)"/><path d="M27.05 25.5a1.16 1.16 0 0 1 1.9 0l1.84 2.65c.54.78-.01 1.85-.95 1.85h-3.68c-.94 0-1.49-1.07-.95-1.85l1.84-2.65Z" fill="#FD0200"/><path d="M13.1 40a.2.2 0 0 1-.16-.07l-1.72-1.85c-.27-.34-.3-.82-.05-1.19L27.2 12.46c.4-.61 1.3-.61 1.7 0l15.93 24.29c.29.43.2 1-.2 1.33l-2.07 1.87a.2.2 0 0 1-.14.05h-.3a.2.2 0 0 1-.18-.1L28.87 19.05a1.02 1.02 0 0 0-1.7-.02L13.39 39.9a.2.2 0 0 1-.16.1h-.13Z" fill="#FD0200"/><defs><linearGradient id="a" x1="13.69" y1="36.78" x2="25" y2="34.08" gradientUnits="userSpaceOnUse"><stop stop-color="#BE0902"/><stop offset=".55" stop-color="#F60806"/><stop offset="1" stop-color="#FD0100"/></linearGradient><linearGradient id="b" x1="41.51" y1="36.78" x2="30.93" y2="34.43" gradientUnits="userSpaceOnUse"><stop stop-color="#BE0902"/><stop offset=".55" stop-color="#F60806"/><stop offset="1" stop-color="#FD0100"/></linearGradient></defs></svg>