<!-- by TradingView --><svg width="56" height="56" viewBox="0 0 56 56" xmlns="http://www.w3.org/2000/svg"><path fill="#F0F3FA" d="M0 0h56v56H0z"/><path d="M10 24.42V32h1.54v-8l-1.54.42ZM15.12 32a3.58 3.58 0 0 1-1.56-.3 3.45 3.45 0 0 1-1.17-.95l1.06-1.12c.21.27.48.5.77.66a2 2 0 0 0 1 .23c.27.02.55-.05.79-.2a.62.62 0 0 0 .2-.23c.06-.1.08-.21.08-.32a.71.71 0 0 0-.18-.5c-.14-.15-.3-.27-.49-.35l-.67-.27a7.55 7.55 0 0 1-.73-.3 3.2 3.2 0 0 1-.67-.43c-.2-.17-.37-.4-.49-.64a2.3 2.3 0 0 1-.18-.98c-.01-.44.1-.87.33-1.24.22-.35.54-.63.91-.79.42-.18.87-.28 1.33-.27.48 0 .96.09 1.4.29.4.17.75.43 1.04.76l-1.06 1.13c-.19-.21-.42-.4-.66-.53a1.6 1.6 0 0 0-.75-.18c-.23-.01-.47.05-.67.17a.52.52 0 0 0-.19.2.59.59 0 0 0-.06.29.63.63 0 0 0 .19.46c.14.14.3.25.48.32.2.1.43.18.67.27.25.08.49.19.73.3.25.11.47.26.67.45a2.16 2.16 0 0 1 .68 1.7c0 .74-.25 1.32-.74 1.74-.5.42-1.18.63-2.06.62Zm9.14-8h-6.18v1.52h2.27V32H22v-6.48h2.26V24Zm4.67 8h1.72l-2.85-8h-1.48l-2.88 8h1.68l.49-1.52h2.84l.47 1.52Zm-2.84-2.92.96-2.87.93 2.87h-1.89ZM35.92 24h-6.2v1.52H32V32h1.65v-6.48h2.27V24Zm.44 8v-8H38v8h-1.64ZM44 24v4.82L40.56 24H39.4v8H41v-4.76L44.42 32h1.22v-8H44Zm4.62 6.55v-2.1h3.01V27h-3v-1.5H52V24h-5v8h5v-1.45h-3.38Z" fill="#143758"/><path d="m4 32 5.85-8h1.7l-5.68 8H4Z" fill="#5ED8F0"/></svg>