<!-- by TradingView --><svg width="56" height="56" viewBox="0 0 56 56" xmlns="http://www.w3.org/2000/svg"><path fill="#F0F3FA" d="M0 0h56v56H0z"/><path d="M4 24h2.5l.92 6h.09l.99-6H11v9H9.5v-7l-1 7H6.55l-.94-7v7H4v-9Zm10.5 2.69c0-.92-.02-1.35-.5-1.35-.47 0-.5.43-.5 1.35v3.6c0 .93.02 1.35.5 1.35.47 0 .5-.42.5-1.34v-3.61Zm1.5.4v2.8c0 2.26-.43 3.11-2 3.11-1.58 0-2-.85-2-3.1v-2.81c0-2.25.43-3.09 2-3.09s2 .84 2 3.09ZM17 24h1.9c1.48 0 2.1.57 2.1 2.09v.37c0 1.28-.41 1.86-1.51 2.05 1.17.13 1.51.75 1.51 2.28V33h-1.5v-2.96c0-.79-.13-1.04-.86-1.04h-.14v4H17v-9Zm1.5 1v3h.19c.6 0 .81-.38.81-1.15v-.83c0-.77-.2-1.02-.81-1.02h-.19Zm3.5-1h3v1.5h-1.5v2H25V29h-1.5v2.5H25V33h-3v-9Zm4 0h1.5v7.5H30V33h-4v-9Zm5 0h1.5v7.5H35V33h-4v-9Zm6.81 0h2.58L42 33h-1.74l-.34-2h-1.88l-.4 2H36l1.81-9Zm1.22 1.5-.73 4h1.43l-.7-4Z" fill="#9AD500"/><path d="M46.32 23.73A4.72 4.72 0 0 0 42 27c.16-.51 1.73-1.63 4.32-1.73A4.9 4.9 0 0 0 51 22c-.37.48-1.82 1.49-4.68 1.73Zm1 3A4.72 4.72 0 0 0 43 30c.16-.51 1.73-1.63 4.32-1.73A4.9 4.9 0 0 0 52 25c-.37.48-1.82 1.49-4.68 1.73Zm.52 3A4.35 4.35 0 0 0 44 33c.15-.51 1.53-1.63 3.84-1.73A4.48 4.48 0 0 0 52 28c-.33.48-1.62 1.49-4.16 1.73Z" fill="#223343"/></svg>