<!-- by TradingView --><svg width="56" height="56" viewBox="0 0 56 56" xmlns="http://www.w3.org/2000/svg"><path fill="#F0F3FA" d="M0 0h56v56H0z"/><path d="M9 24c1.7 0 3 1.3 3 3v7h-1v-1.59A3.91 3.91 0 0 1 8 34c-1.93 0-4-.76-4-3 0-2.68 2.13-3.5 4.5-3.5.6 0 2.5-.1 2.5-.54A1.94 1.94 0 0 0 9 25H5v-1h4Zm-4 7c0 1.64 1.64 2 3 2 1.45 0 2.55-1.32 3-2.59v-2.29c-.54.23-1.34.38-2.5.38-1.82 0-3.5.41-3.5 2.5ZM15 24h2v-2h1v2h5v1.72A3.54 3.54 0 0 1 26 24h3v6c0 1.49 1.37 3 3 3s3-1.51 3-3v-6h4v10h-1v-9h-2v5c0 2.04-1.81 4-4 4s-4-1.96-4-4v-5h-2c-.98 0-1.68.53-2.17 1.28-.5.74-.75 1.65-.83 2.26V34h-1v-9h-4v7c0 .17.06.44.2.65.14.18.36.35.8.35h2v1h-2c-.76 0-1.29-.33-1.6-.77-.3-.42-.4-.9-.4-1.23v-7h-2v9h-1V21h1v3Z"/><circle cx="38" cy="22" r="1"/><path d="M41 31c0 .32.12.82.48 1.24.34.4.95.76 2.02.76s1.68-.37 2.02-.76c.36-.42.48-.92.48-1.24 0-.29-.07-.48-.17-.63a1.3 1.3 0 0 0-.5-.4c-.48-.25-1.15-.38-1.93-.54a6.92 6.92 0 0 1-2.23-.75 2.45 2.45 0 0 1-.85-.86A2.62 2.62 0 0 1 40 26.5c0-1.01.55-1.66 1.19-2.03A3.8 3.8 0 0 1 43 24h6v-2h1v2h2v1h-2v7c0 .17.06.44.2.65.14.18.36.35.8.35h1v1h-1c-.76 0-1.29-.33-1.6-.77-.3-.42-.4-.9-.4-1.23v-7h-6c-.36 0-.89.09-1.31.33-.4.23-.69.58-.69 1.17 0 .36.08.63.2.83.1.2.28.36.5.5.48.3 1.14.46 1.9.62.72.15 1.55.3 2.2.63A2.06 2.06 0 0 1 47 31c0 .52-.18 1.26-.72 1.89-.56.64-1.45 1.11-2.78 1.11-1.33 0-2.22-.47-2.78-1.11A2.98 2.98 0 0 1 40 31h1Z"/></svg>