<!-- by TradingView --><svg width="56" height="56" viewBox="0 0 56 56" xmlns="http://www.w3.org/2000/svg"><path fill="#F0F3FA" d="M0 0h56v56H0z"/><path d="M26.36 11.39c-.31-.22-.68-.23-.82-.02-.14.2 0 .54.3.76.32.21.7.22.84.02s0-.54-.32-.76Z" fill="#2B3890"/><path d="M32.49 14.02c-.28-.25-.64-.3-.81-.12-.18.19-.1.54.18.8.28.25.64.3.81.1.17-.18.1-.53-.18-.78Z" fill="#017BC0"/><path d="M22.46 14.72c-.46-.23-.97-.17-1.13.15-.16.32.09.76.56 1 .47.23.98.16 1.14-.15.16-.32-.1-.76-.57-1Z" fill="#0A4D9C"/><path d="M36.73 15.15c-.18-.2-.45-.28-.6-.15-.15.12-.12.4.06.61.18.21.45.28.6.16.15-.13.12-.4-.06-.62Z" fill="#017BC0"/><path d="M29.09 15.56c-.46-.33-1.01-.34-1.24-.02-.23.31-.04.83.41 1.15.45.33 1 .34 1.24.02.22-.31.04-.83-.41-1.15ZM36.4 17.53c-.28-.33-.7-.43-.93-.23-.23.2-.18.62.1.95.3.33.72.43.94.23.23-.2.19-.62-.1-.95Z" fill="#0189CD"/><path d="M33.3 17.5c-.34-.32-.8-.38-1.02-.14-.23.24-.14.69.2 1 .33.32.79.38 1.01.14.23-.24.15-.7-.19-1Z" fill="#00AEEC"/><path d="M14.34 17.4c-.55-.14-1.07.04-1.16.4-.1.36.28.77.83.9.55.14 1.07-.04 1.17-.4.09-.36-.28-.77-.84-.9Z" fill="#2B3890"/><path d="M31.13 18.47c-.61-.47-1.38-.49-1.72-.04-.35.44-.13 1.17.48 1.64.6.46 1.38.48 1.72.04.34-.45.13-1.18-.48-1.64ZM27.16 18.62c-.5-.27-1.07-.2-1.28.17-.2.37.02.9.52 1.17.5.28 1.06.2 1.27-.16.21-.38-.02-.9-.51-1.18Z" fill="#00AEEC"/><path d="M39.73 18.95c-.17-.25-.46-.35-.64-.23-.18.12-.19.43-.01.68.17.25.46.35.64.22.18-.12.18-.42.01-.67Z" fill="#017BC0"/><path d="M36.2 19.57c-.42-.49-1.04-.63-1.4-.33-.34.3-.29.93.13 1.42.42.48 1.05.63 1.4.33.35-.3.3-.94-.13-1.42ZM33.94 19.9c-.41-.41-1-.5-1.3-.19-.3.31-.22.89.19 1.3.4.4.99.48 1.3.18.3-.3.22-.89-.2-1.3Z" fill="#00AEEC"/><path d="M22 20.08c-.7-.22-1.39.02-1.55.52-.16.51.27 1.1.96 1.32.7.22 1.4-.01 1.56-.52.16-.5-.27-1.1-.97-1.32Z" fill="#017BC0"/><path d="M38.5 20.7c-.23-.31-.6-.43-.83-.26-.24.16-.24.56 0 .87.22.31.6.43.83.26.23-.17.23-.56 0-.87ZM29.95 20.81c-.55-.36-1.24-.31-1.53.12-.29.43-.08 1.08.47 1.44.55.37 1.23.32 1.53-.11.29-.43.08-1.08-.47-1.45ZM26.96 21.68c-.82-.36-1.72-.13-2.02.52-.29.65.14 1.47.96 1.84.82.36 1.73.13 2.02-.52.3-.65-.14-1.47-.96-1.84ZM37.66 21.96c-.3-.42-.8-.57-1.12-.34-.31.22-.32.75-.01 1.16.3.42.8.57 1.12.34.31-.23.32-.75.01-1.16Z" fill="#00AEEC"/><path d="M42.8 21.77c-.12-.21-.33-.32-.49-.24-.16.08-.2.32-.08.53.1.21.32.32.48.24.16-.08.2-.32.09-.53Z" fill="#017BC0"/><path d="M41.14 22.58c-.2-.33-.55-.5-.79-.36s-.28.53-.08.86c.2.34.55.5.79.36s.28-.52.08-.86Z" fill="#0189CD"/><path d="M39.77 23.24c-.3-.5-.85-.71-1.22-.49-.36.22-.4.8-.1 1.3.3.5.85.72 1.22.5.36-.23.41-.81.1-1.3ZM33.15 26.13a.22.22 0 0 1 .02-.3l.4-.38c.3-.3.36-.64.4-1.03 0-.05.03-.09.07-.12a.22.22 0 0 1 .14-.04c.13 0 .22.06.27.17.29.64.67.96 1.24 1.33.22.14.14.33-.02.48-.25.25-.53.54-.56.92-.02.22-.01.51-.22.58a.24.24 0 0 1-.29-.1 2.84 2.84 0 0 0-1.32-1.37.34.34 0 0 1-.08-.08l-.05-.06ZM28.45 25.1c-.65-.27-1.37-.03-1.6.53-.25.56.08 1.24.73 1.51s1.37.04 1.6-.53c.25-.56-.08-1.24-.73-1.5ZM39.74 25.58c-.24-.44-.7-.65-1.05-.47-.34.18-.43.68-.2 1.12.24.44.7.65 1.05.47.34-.18.43-.68.2-1.12ZM24.02 25.24c-.65-.1-1.23.26-1.31.79-.08.53.37 1.03 1.02 1.13.64.1 1.23-.26 1.31-.79.08-.53-.38-1.03-1.02-1.13Z" fill="#00AEEC"/><path d="M41.38 25.65c-.16-.34-.5-.52-.76-.4s-.33.5-.17.84c.17.34.5.52.77.4.25-.13.33-.5.16-.84Z" fill="#0189CD"/><path d="M43.55 25.68c-.12-.26-.36-.41-.56-.33-.2.08-.26.36-.15.62.12.27.36.41.56.33.2-.08.26-.36.15-.62Z" fill="#017BC0"/><path d="M15.75 25.46c-.68 0-1.24.39-1.25.88 0 .5.54.9 1.23.91.68.01 1.24-.38 1.25-.88 0-.49-.54-.9-1.23-.9Z" fill="#2B3890"/><path d="M40.97 27.94c-.2-.55-.73-.87-1.15-.71-.42.16-.6.74-.38 1.3.21.55.73.86 1.15.7.43-.16.6-.74.38-1.29ZM27.5 28.14c-.89-.07-1.66.54-1.72 1.35-.07.82.6 1.53 1.5 1.6.89.06 1.66-.54 1.72-1.36.06-.81-.6-1.53-1.5-1.6Z" fill="#00AEEC"/><path d="M42.78 28.87c-.12-.38-.45-.61-.73-.52-.28.09-.41.47-.29.85.13.38.45.61.74.52.28-.09.4-.47.28-.85Z" fill="#017BC0"/><path d="M39.49 29.45c-.17-.5-.64-.8-1.05-.67-.4.13-.6.65-.43 1.16.17.5.64.8 1.05.67.4-.13.6-.65.43-1.16Z" fill="#00AEEC"/><path d="M44.86 29.81c-.07-.24-.28-.39-.46-.33-.18.05-.26.3-.19.53.08.24.28.4.46.34s.27-.3.2-.54Z" fill="#0A4D9C"/><path d="M30.97 32.05c.64 0 1.16-.52 1.16-1.15 0-.64-.52-1.16-1.16-1.16a1.16 1.16 0 1 0 0 2.3Z" fill="#00AEEC"/><path d="M41.06 31.06c-.1-.4-.43-.66-.75-.59-.31.08-.5.46-.4.86.1.4.44.66.75.58.32-.07.5-.46.4-.85ZM23.16 33.02c.73-.18 1.2-.83 1.05-1.44-.16-.61-.88-.96-1.61-.78-.74.18-1.21.83-1.06 1.44.16.61.88.96 1.62.78Z" fill="#0189CD"/><path d="M36.64 31.93c-.07-.59-.55-1.02-1.07-.96-.52.06-.88.6-.81 1.18.07.6.55 1.03 1.07.96.52-.06.88-.59.81-1.18ZM39.22 32.2c-.11-.67-.64-1.13-1.19-1.04-.54.09-.9.7-.78 1.36.1.66.64 1.12 1.18 1.03.55-.09.9-.7.79-1.36ZM34.37 33.8c.1-.77-.38-1.49-1.1-1.59-.7-.1-1.38.45-1.49 1.23-.11.77.38 1.49 1.09 1.59.71.1 1.38-.45 1.5-1.22ZM29.59 34.47c.43-.39.5-1.03.13-1.43-.36-.4-1-.42-1.44-.03-.44.39-.5 1.03-.14 1.43.36.4 1 .42 1.45.03Z" fill="#00AEEC"/><path d="M43.37 33.24c-.05-.32-.29-.55-.53-.5-.24.04-.4.33-.34.65s.3.55.54.5c.24-.04.39-.33.33-.65Z" fill="#0A4D9C"/><path d="M40.53 35.05c-.03-.48-.35-.84-.72-.82-.37.02-.65.42-.62.89.03.47.35.84.72.82.37-.02.65-.42.62-.9Z" fill="#017BC0"/><path d="M37.1 35.22c.02-.49-.3-.9-.72-.92-.42-.02-.77.36-.8.85-.02.49.3.9.72.92.42.02.77-.36.8-.85Z" fill="#0189CD"/><path d="M14.7 37.03c.6-.22.97-.76.81-1.2-.16-.44-.79-.62-1.4-.4-.61.23-.98.77-.82 1.2.17.45.8.62 1.4.4Z" fill="#2B3890"/><path d="M33.19 38.16c.24-.56.05-1.18-.43-1.39-.48-.2-1.07.08-1.31.64-.25.56-.05 1.18.43 1.39.48.2 1.06-.08 1.3-.64Z" fill="#017BC0"/><path d="M42.4 38.65c0-.31-.2-.56-.42-.56-.24 0-.43.25-.43.56 0 .31.2.56.43.56.23 0 .42-.25.42-.56Z" fill="#2B3890"/><path d="M25.54 39.92c.44-.39.54-1 .22-1.35-.32-.36-.94-.34-1.38.05-.44.4-.54 1-.22 1.36.32.36.94.33 1.38-.06ZM37.92 40.22c.07-.43-.14-.81-.46-.87-.33-.05-.65.25-.72.67-.08.42.13.81.46.86.32.06.65-.24.72-.66Z" fill="#0A4D9C"/><path d="M31.76 44.27c.2-.4.12-.86-.19-1.02-.31-.17-.74.03-.95.43-.2.4-.13.86.19 1.03.3.16.73-.04.95-.44Z" fill="#2B3890"/></svg>