<!-- by TradingView --><svg width="56" height="56" viewBox="0 0 56 56" xmlns="http://www.w3.org/2000/svg"><path fill="#F0F3FA" d="M0 0h56v56H0z"/><path d="M16.66 40.64a.04.04 0 0 1-.05.04l-.02-.01a9.94 9.94 0 0 1-1.96-1.86 17.3 17.3 0 0 1 3.22-24.41 16.81 16.81 0 0 1 12.6-3.22c4.72.7 8.88 3.33 11.58 7.3a17.35 17.35 0 0 1-.23 19.75 28.94 28.94 0 0 1-1.26 1.6.05.05 0 0 1-.04-.02l-1.33-1.63a.1.1 0 0 1 0-.12c.34-.48 1.02-1.38 1.42-2.05a15.15 15.15 0 0 0 1.52-12.27 14.9 14.9 0 0 0-8.74-9.47 14.69 14.69 0 0 0-17.5 5.4 15.08 15.08 0 0 0 .98 18.35c.01.03.02.06.01.09l-.2 2.53Z" fill="red"/><path d="m29.56 19.13-.2.5c-.14.35-.18.7-.11 1.05 0 .06 0 .12-.03.16l-1.69 2.66a.26.26 0 0 0-.02.24l.18.46a.06.06 0 0 0 .05.04.06.06 0 0 0 .06-.03l1.85-2.75a.05.05 0 0 1 .05-.02.05.05 0 0 1 .04.03l.25.96a.27.27 0 0 1-.03.21 32.27 32.27 0 0 0-3.99 9.16 27.28 27.28 0 0 0-.81 9.18.05.05 0 0 1-.04.02h-6.08a.04.04 0 0 1-.03-.01v-.02l-.01-.02c.2-5.69 2.01-11.28 4.52-16.36A73.33 73.33 0 0 1 29.24 15a.04.04 0 0 1 .04.03l.48 1.2v.04l-.01.03-.83.94a.24.24 0 0 0-.06.2l.13.63a.1.1 0 0 1-.01.06l-.43.85a.04.04 0 0 0 .04.06l.93.03h.02l.02.02a.05.05 0 0 1 0 .04ZM30.24 31.26h.02a17.19 17.19 0 0 1-.26-5.57c.04-.35.12-.52.35-.69h.02l.01.01v.01a25.6 25.6 0 0 0 3.93 11.07A39.81 39.81 0 0 0 38 40.94v.03l-.02.02-.03.01h-7.67c-.02 0-.03 0-.05-.02a.09.09 0 0 1-.03-.05L28 31.91a.1.1 0 0 1 0-.07l.05-.04.26-.12a.12.12 0 0 1 .1 0c.02 0 .05.03.07.06l.91 1.66h.03v-.02l-.67-3.8v-.15l.15-.6.01-.03.03-.01h.02l.02.03 1.26 2.44Z" fill="red"/></svg>