<!-- by TradingView --><svg width="56" height="56" viewBox="0 0 56 56" xmlns="http://www.w3.org/2000/svg"><path fill="#FF6000" d="M0 0h56v56H0z"/><path d="M5 32h1.21l4.99-10.36 3.1 6.29a4.33 4.33 0 0 0-4.47.04 5.53 5.53 0 0 1 5.64 2.34l.84 1.69h1.18l-5.78-12h-1L5 32Zm14-8h1v1.69A3.18 3.18 0 0 1 22.72 24c1.43 0 2 .98 2.2 1.79v-.09a3.08 3.08 0 0 1 2.66-1.7c1.86 0 2.42 1.67 2.42 2.47V32h-1v-5.29c-.01-.55-.46-1.67-2.07-1.67-1.05 0-1.72.92-1.93 1.4V32h-1v-5.31c-.01-.55-.31-1.66-1.93-1.66-1.07 0-1.87.94-2.07 1.42V32h-1v-8Zm12 0h1v.4c.37-.19 1-.4 1.88-.4 1.57 0 4.12 1.06 4.12 4.08s-2.67 4.3-5.07 3.82c1.36 0 4.08-1 4.08-4.02 0-3.1-3.48-3.54-5.01-2.66V37h-1V24Zm9.5-1a.5.5 0 1 0 0-1 .5.5 0 0 0 0 1Zm.5 9v-8h-1v8h1Zm4.59-.98a4.27 4.27 0 0 0 4.38-4.15 4.16 4.16 0 0 0-2.8-3.87A4.62 4.62 0 0 1 51 27.45 4.68 4.68 0 0 1 46.2 32a4.74 4.74 0 0 1-4.7-3.63 4.38 4.38 0 0 0 4.09 2.65Zm-.01-7.31c-3.16 0-3.6 2.75-3.42 4.13 0-1.77.97-2.51 1.45-2.66-.3.2-.92.91-.92 2.2 0 1.27 1.06 2.14 1.6 2.41-.83-1-.91-1.7-.91-1.95 0-.28 0-2.66 2.47-2.66 2 0 2.54 1.46 2.56 2.2 0 1.63-1.42 2.54-2.12 2.79.94-.14 2.82-.94 2.82-3.06 0-2.72-2.35-3.4-3.53-3.4Z" fill="#fff"/></svg>