<!-- by TradingView --><svg width="56" height="56" viewBox="0 0 56 56" xmlns="http://www.w3.org/2000/svg"><path fill="#F0F3FA" d="M0 0h56v56H0z"/><path d="M34.95 27.79c-.12 0-.23-.06-.33-.2-.72-1.08-.09-1.8.75-2.54A4.11 4.11 0 0 1 38.32 24c.5.01.86.25 1.1.71.23.45-.03 1.14-.22 1.62a36.3 36.3 0 0 0-1.06 2.79.68.68 0 0 0-.02.38.22.22 0 0 0 .12.13.2.2 0 0 0 .18 0c.31-.16.6-.39.85-.69.55-.64 1.06-1.4 1.52-2.28a27.8 27.8 0 0 0 1.17-2.52.15.15 0 0 1 .21.03l.21.3a.42.42 0 0 1 .07.34 4.1 4.1 0 0 1-.3.88 14.72 14.72 0 0 1-1.92 2.95c-.45.54-1.72 1.9-2.54 1.6a.85.85 0 0 1-.55-.6c-.12-.38-.07-.77.12-1.15.32-.63 1.9-3.93.97-4.2a.72.72 0 0 0-.38-.03c-1.04.28-1.88.9-2.52 1.89a1.87 1.87 0 0 0-.3 1.57.08.08 0 0 1-.04.05l-.04.02ZM43.88 25.93c.3-.28.4-.7.2-.93-.2-.23-.62-.18-.93.1-.31.29-.4.7-.2.93.2.23.62.18.93-.1ZM47.19 26.57c.45.09.6.34.48.76-.16.53-.4 1.18-.72 1.96-.07.16-.11.31-.12.45 0 .02 0 .04.02.06a.1.1 0 0 0 .1.05 9.16 9.16 0 0 0 1.34-1.64c.08-.12.17-.24.27-.34.36-.4.61-.86 1.1-1.15.72-.42 1.57.4 1.3 1.13-.29.72-.81 1.08-1.58 1.1a.32.32 0 0 0-.19.06c-.06.04-.1.1-.12.16-.07.24-.07.42.01.55.04.06.1.1.19.12.08.01.17 0 .25-.04a6.21 6.21 0 0 0 2.3-2.05l.04-.01a.11.11 0 0 1 .1.05l.03.05v.07c-.4.62-.87 1.16-1.42 1.62-.67.57-1.31 1.01-2.03.31-.32-.3-.4-.64-.28-1v-.03l-.01-.03h-.05l-.4.57c-.16.24-.44.52-.84.83a.57.57 0 0 1-.7.02c-.35-.23-.45-.55-.28-.96a182.38 182.38 0 0 0 .71-1.68.2.2 0 0 1 .24-.03l.03.03a.05.05 0 0 0 .05.03l.02-.01.02-.03.08-.23a.04.04 0 0 0-.01-.05h-.05c-.44.27-.8.6-1.07.95-.26.34-.53.66-.8.94-.2.2-.36.48-.5.84a.28.28 0 0 1-.41.13l-.2-.12a.54.54 0 0 1-.22-.64l.24-.67-.01-.02h-.03c-.42.57-.77 1-1.04 1.25-.35.34-.74.39-1.19.15-.4-.21-.2-.8-.06-1.12l.9-2.14a.23.23 0 0 1 .37-.1l.2.2c.07.05.12.13.14.22.03.08.02.17 0 .25l-.78 2.12a.3.3 0 0 0 0 .2c0 .02.02.05.04.06a.15.15 0 0 0 .2 0c.6-.68 1.17-1.43 1.74-2.25.1-.16.2-.39.3-.7a.26.26 0 0 1 .14-.18.25.25 0 0 1 .23.03l.21.14a.4.4 0 0 1 .16.48l-.4 1.14v.03l.01.02h.05c.18-.17.32-.34.43-.52.35-.52.73-.94 1.2-1.32a.33.33 0 0 1 .27-.07Zm3.2.62c-.08-.07-.33.09-.55.36-.22.28-.33.56-.24.64.09.07.34-.1.56-.37.22-.27.33-.56.24-.63ZM15.46 24.12a.14.14 0 0 1 .12.05c.02.02.03.05.03.07v.07c-.16.47-.56.87-1.07 1.3a28.15 28.15 0 0 1-2.98 2.28c-.84.55-1.57.88-1.82 1.58a.21.21 0 0 0 0 .09c0 .03 0 .06.02.08a.2.2 0 0 0 .14.1 6.7 6.7 0 0 0 3.38-.73c.9-.41 1.81-.98 2.74-1.7.1-.07.22-.12.34-.13a.11.11 0 0 1 .12.07.12.12 0 0 1-.04.14l-.51.38a.2.2 0 0 0-.07.23c.26.7-.27 1.08-.47 1.66a.27.27 0 0 0 .1.3l.1.05c.67.12 1.93-.48 2.59-.81a.4.4 0 0 0 .18-.18c.26-.56.97-1.46 1.65-1.18a.2.2 0 0 1 .08.06l.04.1a.27.27 0 0 1-.03.21c-.33.56-.9.81-1.46 1.12a.14.14 0 0 0-.08.13c.03.4.26.58.69.55a6.89 6.89 0 0 0 2.48-.8l.02-.02v-.04l-.01-.03-.13-.18a.18.18 0 0 1 0-.2.18.18 0 0 1 .04-.05l.04-.03a.2.2 0 0 1 .15-.04l.07.04.06.06.12.22a.1.1 0 0 0 .15.04l2.42-1.42a.1.1 0 0 1 .06-.02.1.1 0 0 1 .05.02l.04.02a.12.12 0 0 1 0 .2l-.31.26a.5.5 0 0 0-.14.19l-.48 1.08a.1.1 0 0 0 0 .08l.03.03a.1.1 0 0 0 .04.02c.14.03.3.03.49 0 1.05-.21 2.02-.61 2.9-1.2.06-.04.3-.28.7-.73.88-1 1.86-1.85 2.95-2.52.26-.16.67-.33.95-.36h.11l.1.05.06.07c.02.03.02.06.02.1 0 1.04-3.73 3.1-4.55 3.62-.2.12-.38.4-.56.83v.04l.02.01h.02c.1-.04.29-.14.56-.32.37-.25.74-.37 1.11-.38a.41.41 0 0 1 .37.21l.35.62c.04.07.1.13.17.16s.14.05.22.04a8.74 8.74 0 0 0 2.88-1.1c.02 0 .03 0 .04.02l.02.06-.03.04c-.24.23-.53.42-.84.57-.56.27-2.09.97-2.63.62-.36-.24-.27-1.1-.84-.9a4.93 4.93 0 0 0-2.15 1.5.12.12 0 0 1-.13-.06.12.12 0 0 1-.02-.07c.03-.31.34-.77.7-1.42a.07.07 0 0 0 0-.08.07.07 0 0 0-.08-.01c-.99.5-2 .8-3.04.9a.29.29 0 0 0-.18.1c-.33.36-.61.86-1.18.85-.54 0-.62-.65-.65-1.1l-.01-.03a.09.09 0 0 0-.03-.03.09.09 0 0 0-.08 0c-.63.31-3.4 1.52-3.4 0v-.03a.07.07 0 0 0-.03-.03.07.07 0 0 0-.03 0h-.04c-.48.24-3 1.4-3.11.45-.1-.74.7-1.16.48-1.68a.13.13 0 0 0-.13-.08l-.05.01c-.62.35-1.2.67-1.77.94-1.2.6-2.47.93-3.8 1a.21.21 0 0 0-.2.2c-.1.78-.29 1.44-.7 2.11-.87 1.42-2 2.5-3.37 3.24-.4.22-1.51.68-1.54-.13-.02-.62.8-1.54 1.34-2.14a68.38 68.38 0 0 1 3.6-3.72c.05-.05.09-.11.11-.18.09-.25.28-.84.6-.79.12.02.22-.01.31-.1a35.6 35.6 0 0 1 2.86-2.75c.85-.73 1.23-1.08 1.97-1.53.2-.13.43-.2.67-.21Zm-6.28 5.97-.07.01c-.17.08-.36.2-.55.4-.97.93-2.06 2.06-3.26 3.38-.36.4-.9 1.07-.96 1.53v.1a.23.23 0 0 0 .13.14l.1.02c.27-.02.53-.1.8-.24 1.7-.9 4.02-3.07 3.94-5.2a.15.15 0 0 0-.06-.11.15.15 0 0 0-.07-.03Zm13.02-.58h-.01v.02l-.01.01a.97.97 0 0 0-.04.28c0 .1.02.18.05.26.03.08.08.15.13.2.05.05.11.09.18.1v.01a.4.4 0 0 0 .22 0 .55.55 0 0 0 .2-.1.78.78 0 0 0 .17-.2.96.96 0 0 0 .12-.26v-.04l-.02-.02-.97-.26h-.02Zm1.72-1.23-1.46.86-.01.02a.04.04 0 0 0 0 .05l.02.01.66.24c.09.03.19.03.28-.01a.39.39 0 0 0 .2-.2l.39-.9a.06.06 0 0 0-.04-.07h-.04Zm-4.27-.3-.12.1c-.24.17-.46.35-.61.5-.16.15-.23.25-.2.28v.02c.03.03.15 0 .33-.11.19-.1.43-.26.66-.44l.12-.09.02-.02-.01-.03-.14-.2-.03-.01h-.02Zm12.08-3.25-.02.01-1.26.97a32.01 32.01 0 0 0-1.63 1.35c-.21.19-.37.35-.47.46-.1.12-.14.2-.12.22.04.06.33-.08.8-.39.48-.3 1.1-.74 1.73-1.22l1.26-.97.01-.01v-.05l-.25-.35-.02-.01h-.03Zm-16.48-.27c-.1-.13-.65.23-1.64 1.07-1.64 1.4-2.43 2.14-2.38 2.21.06.07.94-.56 2.64-1.88 1.02-.8 1.48-1.27 1.38-1.4Z" fill="#020202"/></svg>