<!-- by TradingView --><svg width="56" height="56" viewBox="0 0 56 56" xmlns="http://www.w3.org/2000/svg"><path fill="#F0F3FA" d="M0 0h56v56H0z"/><path d="M40 32v-8h4.97v1h-3.59v2.5h3.33v1h-3.33V31H45v1h-5ZM46 32v-8h4.97v1h-3.59v2.5h3.33v1h-3.33V31H51v1h-5ZM32.65 25v-1h5.96v1h-2.3v7H35v-7h-2.35ZM22.53 32H20v-8h2.58c2.31 0 3.58 1.81 3.58 4 0 2.2-1.3 4-3.63 4Zm-1.18-1h1.12c1.64 0 2.34-1.49 2.34-3 0-1.5-.68-3-2.3-3h-1.16v6ZM18 24v8h-1.18l-3.44-5.45h-.06V32H12v-8h1.18l3.44 5.45h.06V24H18ZM5.44 32H4l2.63-8H8.3l2.63 8H9.5l-2-6.36h-.05l-2 6.36Zm.05-3h3.94v1H5.49v-1ZM27.6 32h-1.44l2.63-8h1.67l2.63 8h-1.45l-2-6.36h-.05L27.6 32Zm.05-3h3.94v1h-3.94v-1Z"/></svg>