<!-- by TradingView --><svg width="56" height="56" viewBox="0 0 56 56" xmlns="http://www.w3.org/2000/svg"><path fill="#444" d="M0 0h56v56H0z"/><path d="M31.04 17.45 36.06 10c.16.3.44 1.12.25 1.9.25.07.65.51.25 1.72.26.08.63.52 0 1.68.3.1.65.6-.25 1.85.32.03.74.38-.13 1.53.1.15.2.58-.12 1.14.12.1.3.4 0 .88.1.14.2.56-.27 1.12.09.17.08.66-.62 1.2.02.19-.14.75-.95 1.49-.8.74-2.24 2.1-2.85 2.7.03-.3-.04-.89-.53-.89.32-.33.77-1.08 0-1.49.3-.42.71-1.36 0-1.7.42-.45 1.12-1.47.53-1.9.28-.57.65-1.77-.12-2.02.4-.58.9-1.76-.2-1.76ZM31 27.76a31.8 31.8 0 0 0 3.02-2.72c.26-.28.48-.52.68-.71.57-.6.83-.86.68-1.2 1.3.41 4.26 1.18 5.62 1.05-.1.29-.48.86-1.3.86.16.27.19.85-.94.98 0 .35-.24 1.04-1.22 1.02-.04.36-.36 1.02-1.36.84-.14.31-.59.86-1.29.53-.08.26-.42.71-1.08.4-.04.07-.21.2-.6.11L31 27.76Zm-4.01 1.56c.86-.19 2.85-1.04 3.73-1.44a41.4 41.4 0 0 1 4.3 2.53c.66.36.83 1.33.83 1.77-.04 2.92-2.16 3.88-3.44 4.45l-.4.19c-.93.45-1.79 1.83-2.1 2.46a1.35 1.35 0 0 1-.85 1.74l-1.42 2.72c.38.06.65.33.74.45l.87-.15-.13.74c-.54.24-1.5-.06-1.9-.23-.47.28-1.17.2-1.47.13-.53.24-1.41.26-1.8.24v-.73c.24-.12.65-.05.82 0a1.5 1.5 0 0 1 1.16-.15l.48-.37-.48.18c-.43-.24-.95.02-1.16.19-.27-.19-.7-.08-.87 0-.6 0-.7.5-.67.74a.6.6 0 0 1-.8 0v-1.11c.4-.32.9-.14 1.1 0a2.04 2.04 0 0 1 1.98-.26l.42-.16 1.77-4.48c-.42-1.5.04-3.37.32-4.11-1.5-.78-3.71-2.8-4.63-3.72.84-.46 2.73-1.44 3.6-1.62Zm-5.33 15.6c-.2-.37-.39-1.15.57-1.31v.76c-.19-.02-.57.07-.57.55Zm2.15-.73c-.45.05-.46.51-.41.73 0-.23.27-.35.4-.37v-.36Zm5.59-.15c.18.07.53.33.42.8l-.57-.16.15-.64Zm2.04.9c-.54-1.17.16-1.34.57-1.27v.7c-.5-.04-.59.36-.57.57Zm.7-1.34c.17-.13.62-.3 1.13.07.25-.23.92-.64 1.62-.42l.1-2.6c-.92-.66-2.8-2.32-2.91-3.7.55-.09 1.85-.5 2.67-1.4a4.78 4.78 0 0 0 1.26-2.83c.27.43.66 1.8.07 3.92-.06.26-.16.85 0 1.16.2.38.48.88.69 1.04.2.17 1 .8.23 1.72l-.17 3.1c.35 0 1.08.1 1.28.49l.88-.12-.07.69c-.28.16-1.06.37-1.92-.14-.22.1-.83.25-1.5.14-.27.15-1 .4-1.8.22v-.8c.16-.06.55-.17.83 0 .18-.1.65-.29 1.13-.11l.39-.36-.4.21c-.2-.09-.72-.19-1.12.15-.15-.09-.57-.2-.97 0-.2.03-.61.25-.55.82-.27.1-.81.22-.86-.13V43.6Zm1.42.55c-.44.08-.45.5-.4.7 0-.2.27-.27.4-.27v-.43Zm5.6-.12-.11.69c.12-.07.41-.14.54.13.1-.15.15-.53-.43-.82ZM18.48 13.06c0-.19 0-.6.09-.8.1.14.34.48.44.75l-.53.05Zm-1.43-.46c-.08.22.03.65.09.85l.5-.39a1.5 1.5 0 0 0-.6-.46Zm-1 .74c-.13.4.02.9.11 1.1l.45-.53c-.13-.3-.42-.5-.55-.57Zm.72.66-.52.58c.37 1.84 1.17 2.82 1.53 3.08-.35 2.38.3 6.05.67 7.58.35.52 1.77 1.32 2.44 1.66-1.04-2.05-.86-5.7-.63-7.27L19.97 17c.06-.18.53-.34.76-.4.44-.43.56-1.1.57-1.4-.28-.27-.76-.32-.96-.3.14.62.09 1.13-.22 1.18-.32.05-.49-.45-.61-1.45-.1-.8-.33-1.3-.43-1.46l-.6.05c.1.61.2 1.52.09 1.47-.1-.04-.6-1.03-.85-1.52l-.58.4c.27.55.77 1.67.64 1.78-.13.12-.33-.17-.41-.33l-.6-1.02Zm3.47-.2c.45 0 1.27.26.96 1.22l-.65-.33c.07-.14.12-.52-.31-.89Zm-3.57 17.62c-.8.34-.53.93-.3 1.18.05-.23.3-.4.42-.46l-.12-.72Zm.12-.1c.4-.15 1.4-.3 2.11.4.38-1.23 1.43-4.04 2.64-5.47.32-.46 1.19-1.18 2.12-.42.94.76.28 2.29-.17 2.95-.38.6-1.6 2.16-3.34 3.56.12.2.25.69-.2 1.13l-.42 2.36-.76-.18.13-1.63-.83 1.48-.64-.42.64-1.54L17 34.71l-.72-.44 1.58-2.24c-.1-.1-.44-.22-.95.05l-.13-.75Zm-.7 4.08.2-.94.56.37-.76.57Zm1.34-.17c-.06.18-.18.6-.16.89.19-.1.6-.31.7-.47l-.54-.42Zm1.47 1.47c-.1-.15-.13-.64-.13-.87l.64.16c-.1.27-.38.59-.5.71Zm1.83-10.87c-.33-1.5-.75-5.2.16-8.04 1.15-3.57 4.03-3.99 4.81-3.99a5.17 5.17 0 0 0 0 5.32l-.17 2.85-3.8 2.62c-.34.18-1 .68-1 1.24Zm6.15-12.58c.93-.19 1.4-.5 1.52-.63-.24.83-.85.98-1.31 1.1-.13.02-.24.05-.33.08-.25.1-.3.3-.34.47-.03.12-.05.22-.15.24-.2.04-.31-.35-.35-.55-.07-.16.02-.53.96-.71Zm2-.47c-.26.27-.88.85-1.3 1.02l.68.16c.21-.2.63-.74.63-1.18Zm-3.7 3.77a4.14 4.14 0 0 1 .63-2.47c.33.96.71.43.79.09.06-.28.41-.36.58-.37.95.14 1.72.63 1.99.85-.12.27-.48.8-.65 1.03.36.02.67.1.79.14-.16.43.06.71.19.8-.05.18.11.4.2.48-.2.36-.44.6-.53.68-1.65-.9-2.78-1.34-2.78-.2 0 .93.69 1.32 1.03 1.4-.1.15-.39.47-.73.5-.35.04-.73-.22-.88-.36a8.1 8.1 0 0 1-.64-2.57Zm3.15.9-.42.64c.2-.05.63-.2.84-.4l-.42-.24Zm1.71-1.14c.01-.25-.36-.43-.54-.49-.17.43.06.67.2.73-.07.2.03.36.09.42.08-.12.24-.42.25-.66Zm-3.5 1.28c.26.02.82.18.88.72l-.54.18c-.12-.22-.35-.7-.35-.9Zm.88.9-.44.11.35.22.1-.33Zm0 .33.17-.28a.5.5 0 0 1 .24.43l-.4-.15Zm-.25-4.26c-.01.37.2 1.1 1.16 1.12.03-.4-.14-1.19-1.16-1.12Zm-5.79 10.57c-.58.4-.53 1.2-.43 1.56.52-.94 1.85-2.23 3.12-.8 1.02 1.14-.37 3.3-1.2 4.24l.4.62a15.8 15.8 0 0 1 3.16-1.42c1-.26 3.21-1.17 4.19-1.6.9-.68.16-1.14-.33-1.3 1.24-.74.52-1.35 0-1.57 1.29-.86.54-1.47 0-1.66 1.28-.7 1.02-1.6.74-1.97.98-1.36.29-1.8-.18-1.85.03-.04.18-.28.53-.93.36-.66-.2-.81-.53-.8-.32.4-.95 1.23-.95 1.3-1.22 1.27-3 2.7-3.37 2.78-.3.07-.93.46-1.21.64-1.08.76-3.36 2.37-3.94 2.76Z" fill="#fff"/></svg>