<!-- by TradingView --><svg width="56" height="56" viewBox="0 0 56 56" xmlns="http://www.w3.org/2000/svg"><path fill="#F0F3FA" d="M0 0h56v56H0z"/><path d="M10.01 23h1.87a.1.1 0 0 1 .05.02.1.1 0 0 1 .04.05L16 32.95v.03l-.02.02h-.02a1151.31 1151.31 0 0 0-3.32-.03.04.04 0 0 1-.03-.02l-.54-1.54a.06.06 0 0 0-.02-.03l-.03-.01a213.5 213.5 0 0 1-4.07 0l-.02.03-.54 1.54-.01.02h-.02a1085.36 1085.36 0 0 0-3.35 0 .04.04 0 0 1 0-.03l4.04-9.87a.1.1 0 0 1 .04-.04.1.1 0 0 1 .06-.02H10Zm14.77 0c.25 0 .54.03.89.1.6.1 1.09.34 1.45.7.38.4.6.9.66 1.55.07.65 0 1.2-.22 1.66a1.9 1.9 0 0 1-1.22 1.05.03.03 0 0 0 0 .03l.01.01.15.1c.1.04.17.08.2.11.43.32.66.8.72 1.44l.12 1.5a3.52 3.52 0 0 0 .46 1.73l-.02.01h-3.36c-.03 0-.05 0-.07-.02a.12.12 0 0 1-.04-.06 3.76 3.76 0 0 1-.14-1.05v-.16c0-.53-.04-.92-.1-1.17-.12-.43-.35-.7-.68-.8a3.8 3.8 0 0 0-.9-.06 419.96 419.96 0 0 1-2.66.02l-.03.04V33l-.04.01h-2.92a.04.04 0 0 1-.04-.04v-9.94h.03c.15-.02.32-.02.5-.02h7.25Zm15.25 0 .02.03v.02l-.01.02-4.1 3.84a.06.06 0 0 0-.02.04l.01.04 4.46 5.96V33h-4.02a.17.17 0 0 1-.15-.07l-2.78-3.87-.02-.01a.04.04 0 0 0-.03 0h-.02c-.38.35-.86.7-1.25 1.04-.08.07-.12.2-.12.38v2.52H29.07l-.05-.01a.07.07 0 0 1-.02-.05v-9.88a.04.04 0 0 1 .01-.03h.01l.02-.01h2.92l.03.01.01.04v3.78l.01.01.02.02h.01l.02-.01c1.49-1.5 2.82-2.76 3.82-3.77a.26.26 0 0 1 .19-.08 2112.8 2112.8 0 0 0 3.96 0ZM46 23c2.66 0 4.44.74 5.34 2.23.44.73.66 1.66.66 2.77a5.3 5.3 0 0 1-.66 2.77C50.44 32.26 48.66 33 46 33c-2.66 0-4.44-.74-5.34-2.23A5.3 5.3 0 0 1 40 28c0-1.11.22-2.04.66-2.77.9-1.49 2.68-2.23 5.34-2.23Zm0 2c-.96 0-1.7.26-2.23.79a3.02 3.02 0 0 0-.77 2.2c0 .95.25 1.69.76 2.21.52.53 1.26.8 2.23.8s1.72-.26 2.24-.79c.51-.52.77-1.25.77-2.2 0-.95-.25-1.69-.76-2.21-.52-.53-1.26-.8-2.23-.8Zm-36.02.5v.02l-1.3 3.95v.01l.01.01.02.01H11.29v-.01h.01v-.02l-1.29-3.95v-.02a.02.02 0 0 0-.03 0Zm10.06-.5a.06.06 0 0 0-.03.04v.02L20 27.43c0 .02 0 .03.02.04 0 .02.02.02.04.02l3.32.01a1.08 1.08 0 0 0 .8-.34 1.17 1.17 0 0 0 .32-.82v-.17c0-.3-.12-.6-.33-.82a1.1 1.1 0 0 0-.79-.34L20.06 25h-.02Z" fill="#091D84"/></svg>