<!-- by TradingView --><svg width="56" height="56" viewBox="0 0 56 56" xmlns="http://www.w3.org/2000/svg"><path fill="#264049" d="M0 0h56v56H0z"/><path d="M18 23.13v6.68c0 .49-.05.84.46.93a5.13 5.13 0 0 0 .32.05V31l-.02.01h-2.58v-.21l.03-.01c.18-.01.35-.05.52-.1.25-.1.27-.4.27-.67v-5.05c0-.77.06-1.36-.78-1.43l-.03-.02a.05.05 0 0 1-.02-.04v-.12l.01-.04.04-.02 1.66-.29a.08.08 0 0 1 .07.02l.02.03.03.08ZM20.98 24.25a.65.65 0 0 0 .42-.81.64.64 0 0 0-.82-.4.65.65 0 0 0-.43.81c.11.34.48.52.83.4ZM4.03 31l-.02-.01-.01-.02v-.17l.01-.03.03-.02c.37-.05.63-.27.77-.65a1637.74 1637.74 0 0 0 2.6-7.09l.05-.01h.57l.04.01.03.04 2.56 7.02c.16.42.41.65.76.68.02 0 .03 0 .04.02l.02.04v.15s0 .02-.02.03l-.02.01H8.7l-.03-.01v-.22l.03-.01c.38-.03 1-.1.8-.69a42.42 42.42 0 0 0-.58-1.6H5.95l-.02.02-.02.01-.46 1.3c-.26.75.4.91.92.96l.03.01V31l-.03.01H4.03Zm2.05-2.97a.03.03 0 0 0 0 .02h.02l2.67.01a.02.02 0 0 0 .02 0 .02.02 0 0 0 0-.03l-1.33-3.7-.02-.01h-.01v.02l-1.35 3.69ZM39.41 30.02c-.41.53-.93.97-1.61.98-.78.02-1.25-.57-1.27-1.36a301.95 301.95 0 0 1-.02-4.09l-.03-.01h-.74c-.02 0-.03 0-.04-.02a.06.06 0 0 1-.02-.04v-.28a.06.06 0 0 1 .02-.04.05.05 0 0 1 .05-.01s.07 0 .2-.03a.95.95 0 0 0 .75-.5 6.39 6.39 0 0 0 .53-1.3h.26V24.98l.01.02.02.01h1.51a.02.02 0 0 1 .02.02v.01l-.1.48v.02h-1.43l-.02.02v3.8c0 .58.17 1.15.85 1.03.3-.05.63-.35.82-.54l.02-.01h.03l.18.12h.01l.01.03v.04ZM33.72 25.54c.25-.36.7-.68 1.11-.48.19.1.27.3.24.6 0 0 0 .02-.02.03h-.03a2.63 2.63 0 0 0-1.01.14.04.04 0 0 0-.01.04v.01c.22.25.38.69.38 1.01.02.79-.3 1.36-.94 1.73a2.64 2.64 0 0 1-2.05.23h-.03c-.16.11-.55.32-.58.51-.05.32.37.35.62.37l1.95.14c.69.06 1.46.35 1.48 1.16.03 1.03-.99 1.65-1.84 1.84-.8.17-1.93.23-2.64-.21a1.02 1.02 0 0 1-.48-.98c.04-.48.3-.69.8-.62a.04.04 0 0 1 .04.02.05.05 0 0 1 0 .04c-.2.5-.1.9.3 1.2.4.29 1.02.31 1.57.26.41-.04.77-.2 1.08-.44.42-.35.57-1.11-.1-1.32a2.57 2.57 0 0 0-.7-.13l-1.66-.1c-.48-.04-1.23-.15-1.21-.84.02-.62.54-.78.99-1.04v-.01l.01-.01v-.02h-.01a1.81 1.81 0 0 1-.88-1 1.84 1.84 0 0 1-.01-1.14c.44-1.47 2.44-1.77 3.57-.98l.03.01c.01 0 .02 0 .03-.02Zm-2.76 1.54c.02.79.43 1.54 1.28 1.52.86-.03 1.21-.81 1.19-1.6-.03-.8-.43-1.55-1.29-1.52-.85.03-1.2.81-1.18 1.6ZM44.9 28.2c-.1 1.58-1.2 2.72-2.7 2.8-.65.04-1.36-.2-1.87-.66a3.1 3.1 0 0 1-.9-2.54c.1-1.58 1.19-2.72 2.7-2.8.65-.03 1.36.2 1.86.66.7.64.96 1.56.9 2.54Zm-4.4-.12c.05 1.11.44 2.61 1.77 2.55 1.33-.06 1.6-1.59 1.56-2.7-.04-1.1-.44-2.61-1.77-2.55-1.33.06-1.6 1.59-1.56 2.7ZM46.99 26.4a.03.03 0 0 0 .02.03h.02v-.01a2.32 2.32 0 0 1 2.76-1.35c.96.22 1.21 1.06 1.21 2v3.12c.02.52.58.56.96.58l.03.02.01.03v.15l-.01.02-.02.01h-2.72l-.01-.03v-.18l.03-.01c.4-.04.73-.06.73-.59V27c-.03-1.8-2.03-1.78-2.7-.43-.17.35-.3.74-.3 1.18v2.3c0 .54.45.68.88.72l.03.02.01.03v.14l-.01.03-.03.01h-2.74l-.01-.04v-.14l.01-.03.04-.02c.1 0 .24-.02.4-.06.42-.1.42-.38.42-.75v-3.44c0-.58-.25-.88-.77-.9a.13.13 0 0 1-.09-.03.13.13 0 0 1 .07-.22l1.71-.3a.06.06 0 0 1 .06.04v1.3Z" fill="#fff"/><path d="m24.98 26.4.01.02h.04a2.32 2.32 0 0 1 2.75-1.36c.97.22 1.22 1.06 1.22 2v3.13c.01.51.58.55.96.58l.02.01.02.03v.16a.03.03 0 0 1-.04.03h-2.72v-.22h.03c.4-.04.72-.06.73-.6V27c-.03-1.81-2.04-1.79-2.7-.43-.18.34-.3.74-.3 1.18v2.3c0 .54.44.68.87.72.01 0 .02 0 .03.02l.02.03v.14l-.02.03-.03.01h-2.7l-.03-.01-.01-.03v-.17l.04-.02c.11 0 .25-.03.4-.06.42-.1.42-.38.43-.75V26.5c-.01-.57-.26-.87-.77-.89a.13.13 0 0 1-.09-.03.13.13 0 0 1 .07-.23l1.7-.3a.06.06 0 0 1 .07.04v1.3ZM13.56 26.1c.3-.56.64-.93 1.22-1.07.42-.09 1.02-.02 1.05.56 0 .14-.05.34-.16.6l-.03.02h-.03c-.33-.14-.6-.33-.93-.35-.5-.02-.83.17-1 .58-.08.16-.11.43-.1.8v2.86c0 .58.48.64.88.67h.03V31l-.02.01h-2.66l-.03-.01-.01-.03v-.14l.01-.04.04-.01c.17-.01.34-.05.51-.11.25-.09.28-.36.28-.64v-3.45c0-.62-.18-.91-.75-1a.12.12 0 0 1-.08-.04.14.14 0 0 1 0-.17.12.12 0 0 1 .07-.04l1.62-.3h.02l.02.01.02.02v1.05h.03ZM19.53 25.5v-.14l.01-.03.04-.02 1.66-.3a.07.07 0 0 1 .07.01l.02.03v4.9c0 .3.03.6.3.71.16.07.32.1.48.1 0 0 .02 0 .02.02l.01.03v.18l-.03.01h-2.55l-.02-.01v-.21l.03-.01.33-.05c.3-.05.45-.25.46-.59V26.5c0-.63-.22-.86-.79-.94 0 0-.02 0-.03-.02v-.03Z" fill="#fff"/></svg>