<!-- by TradingView --><svg width="56" height="56" viewBox="0 0 56 56" xmlns="http://www.w3.org/2000/svg"><path fill="#F0F3FA" d="M0 0h56v56H0z"/><path d="M21 42v-7h-7v-3.99c-.01-2.43.03-3.94.14-4.51.72-3.79 3.39-6.27 7.1-7.25.84-.22 2.29-.3 4.34-.25h7.29l.06-.03c.01-.01.07-.1.07-.12V12h4v7h7c-.01-.01.02 0 0 0 0-.02.01.01 0 0v4h-7v8.66c0 1.51-.07 2.63-.24 3.36-.8 3.43-3.3 6.1-6.66 6.78-.72.15-2.32.21-4.79.2H21Zm-3-11h7v7h2.55c2.4.05 5.43-2.09 5.45-4.6V23h-7.64c-3.15-.05-7.15.78-7.36 4.69V31Z" fill="#0E293A"/><path d="M23 30a2 2 0 1 0 0-4 2 2 0 0 0 0 4ZM18.92 37h-4.84a.09.09 0 0 0-.08.09v4.82c0 .05.04.09.08.09h4.84c.04 0 .08-.04.08-.09V37.1a.09.09 0 0 0-.08-.09Z" fill="#0E293A"/></svg>