<!-- by TradingView --><svg width="56" height="56" viewBox="0 0 56 56" xmlns="http://www.w3.org/2000/svg"><path fill="#E08F39" d="M0 0h56v56H0z"/><path d="M9.92 24H12v8h-2v-2H7.4L6 32H4l5.92-8Zm-1 4H10v-1.69L8.93 28ZM13 26h2v.88c.03-.56.54-.82.8-.88H17l-.88 1.66h-.29c-.41 0-.7.24-.83.4V32h-2v-6ZM31 24h2v8h-2v-8ZM44 24h2v2.52L47.1 25h2.4l-1.78 2.3L52 32h-2.4L46 28v4h-2v-8ZM34 27h2v5h-2v-5ZM39 26h-2v6h2v-4.62h2V32h2v-4.43c0-.87-.7-1.57-1.57-1.57h-1.1c-.51 0-1.03.27-1.33.67V26ZM34 24h2v2h-2v-2Z" fill="#202672"/><path fill-rule="evenodd" d="M18.4 26c-.77 0-1.4.58-1.4 1.3v3.4c0 .72.63 1.3 1.4 1.3h3.2c.77 0 1.4-.58 1.4-1.3V30h-2v.59c0 .23-.16.41-.36.41h-1.28c-.2 0-.36-.18-.36-.41v-1.08h4v-2.22c0-.71-.63-1.29-1.4-1.29h-3.2Zm.96 1c-.2 0-.36.18-.36.41v1.08h2v-1.08c0-.23-.16-.41-.36-.41h-1.28ZM30 27.3V32h-2v-.5c-.37.32-.82.5-1.33.5H25.4c-.77 0-1.4-.58-1.4-1.3v-.92c0-.7.63-1.29 1.4-1.29H28v-.92c0-.2-.18-.37-.4-.37h-1.2c-.22 0-.4.17-.4.37V28h-2v-.7c0-.72.63-1.3 1.4-1.3h3.2c.77 0 1.4.58 1.4 1.3Zm-2 3.33c0 .2-.18.37-.4.37h-1.2c-.22 0-.4-.17-.4-.37v-.75c0-.2.18-.37.4-.37h1.2c.22 0 .4.16.4.37v.75Z" fill="#202672"/></svg>