<!-- by TradingView --><svg width="56" height="56" viewBox="0 0 56 56" xmlns="http://www.w3.org/2000/svg"><path fill="#F0F3FA" d="M0 0h56v56H0z"/><path d="M23.68 12h.03l.03.01v.05c-1 .94-1.87 1.89-2.63 2.84a19.1 19.1 0 0 0-2.65 4.41 15.64 15.64 0 0 0-1.31 5.77.24.24 0 0 1-.07.08l-1.24.9a.07.07 0 0 1-.08 0 .07.07 0 0 1-.03-.06c-.02-.55.02-1.13.12-1.73a16.37 16.37 0 0 1 2.25-6.04 24.92 24.92 0 0 1 5.58-6.22Z" fill="#5C3134"/><path d="m27.57 21.21-1.1.02c-.1 0-.16.08-.16.18l.02 1.06c0 .09.08.16.17.16l1.1-.02c.09 0 .16-.08.16-.17l-.02-1.06c0-.1-.08-.17-.17-.17ZM30.35 21.41v1.04a.2.2 0 0 1-.2.19h-1.03a.2.2 0 0 1-.2-.2v-1.03a.2.2 0 0 1 .2-.19h1.04a.2.2 0 0 1 .19.2ZM32.93 21.75v.94a.26.26 0 0 1-.3.26l-.93-.12a.26.26 0 0 1-.23-.26v-.94a.26.26 0 0 1 .3-.26l.93.12a.26.26 0 0 1 .23.26ZM25.05 22.75l-1.08.22a.17.17 0 0 1-.2-.17v-1.09a.17.17 0 0 1 .13-.16l1.09-.21a.17.17 0 0 1 .13.03.17.17 0 0 1 .06.13v1.1a.17.17 0 0 1-.13.15Z" fill="#372F3A"/><path d="M35.42 23.45a.14.14 0 0 1-.11.03 7.7 7.7 0 0 1-1.06-.22.3.3 0 0 1-.22-.26 5.4 5.4 0 0 1-.02-1.18l.04-.04c.03-.03.04-.04.05-.03.4.04.78.12 1.16.25a.3.3 0 0 1 .2.27c.04.4.04.76.02 1.07 0 .05-.03.08-.06.11Z" fill="#003046"/><path d="M22.56 21.82h.01v.02c.02.46.02.88.01 1.25l-.01.02-.02.02a.33.33 0 0 1-.04.04 16.11 16.11 0 0 1-1.25.26l-.01-.01a15.83 15.83 0 0 1 0-1.28.12.12 0 0 1 .04-.04 15.47 15.47 0 0 1 1.27-.28ZM20.08 22.61v1.12a.15.15 0 0 1-.1.15l-1.07.34a.15.15 0 0 1-.14-.02.16.16 0 0 1-.07-.12v-1.12a.15.15 0 0 1 .11-.15l1.07-.35a.16.16 0 0 1 .14.03.16.16 0 0 1 .06.12Z" fill="#5C3134"/><path d="m36.62 22.47.06-.03c.38.05.76.15 1.13.3a.3.3 0 0 1 .2.27c.01.4 0 .76-.03 1.06 0 .04-.03.08-.07.1a.14.14 0 0 1-.1.03c-.3-.05-.65-.13-1.04-.25a.3.3 0 0 1-.21-.27c-.04-.4-.03-.79.02-1.17l.04-.04Z" fill="#003046"/><path d="M30.05 24c2.6.09 5.13.49 7.6 1.19 1.5.42 2.81 1.06 3.95 1.9a3.73 3.73 0 0 1 1.4 2.02l-.04.04a.08.08 0 0 1-.06 0 7.2 7.2 0 0 0-2.88-2.12c-3-1.32-6.74-1.84-10-1.95-2.14-.09-4.27 0-6.38.26l-.42.06c-2.72.36-9.85 1.87-9.72 5.52l-.01.05a.08.08 0 0 1-.1.03.08.08 0 0 1-.03-.04c-1-1.6.26-3.2 1.61-4.07a18.53 18.53 0 0 1 7.2-2.42 27.5 27.5 0 0 1 4.38-.44l3.5-.03Z" fill="url(#a)"/><path d="M27.8 32.23h-1.08a.15.15 0 0 1-.15-.15v-5.93a.15.15 0 0 1 .15-.15h1.08a.15.15 0 0 1 .15.15v5.93a.15.15 0 0 1-.15.15ZM30.27 26h-1.06c-.1 0-.18.08-.18.18v5.89c0 .1.09.17.19.17h1.06c.1 0 .18-.08.18-.18l-.01-5.88c0-.1-.08-.18-.18-.18ZM32.84 32.5l-1.12-.14a.12.12 0 0 1-.11-.13v-6.02a.12.12 0 0 1 .04-.1.12.12 0 0 1 .1-.02l1.12.14a.12.12 0 0 1 .1.12v6.03a.12.12 0 0 1-.08.12h-.05ZM24.9 32.56l-1.16.22a.13.13 0 0 1-.14-.06.13.13 0 0 1-.01-.06V26.7a.13.13 0 0 1 .1-.13l1.16-.23a.13.13 0 0 1 .15.13v5.97a.13.13 0 0 1-.1.13Z" fill="#372F3A"/><path d="m22.29 33.07-1.17.23a.1.1 0 0 1-.11-.05.1.1 0 0 1-.01-.05v-6.05a.1.1 0 0 1 .08-.1l1.17-.23a.1.1 0 0 1 .12.1v6.05a.1.1 0 0 1-.08.1Z" fill="#5C3134"/><path d="m35.85 33.35-1.12-.28a.12.12 0 0 1-.1-.12v-6.02a.12.12 0 0 1 .16-.12l1.12.27a.12.12 0 0 1 .09.12v6.03a.12.12 0 0 1-.15.12ZM38.17 34.05l-1.1-.38a.1.1 0 0 1-.07-.1v-6.04a.1.1 0 0 1 .09-.1.1.1 0 0 1 .04 0l1.11.39a.1.1 0 0 1 .07.1v6.04a.1.1 0 0 1-.14.1Z" fill="#003046"/><path d="m19.91 33.7-1.14.37a.12.12 0 0 1-.1-.01.13.13 0 0 1-.06-.1v-6a.13.13 0 0 1 .09-.12l1.14-.36a.12.12 0 0 1 .16.11v6a.12.12 0 0 1-.09.12ZM17.25 34.27l-1.07.49a.13.13 0 0 1-.18-.12v-6.02a.13.13 0 0 1 .07-.12l1.07-.49a.13.13 0 0 1 .18.12v6.03a.13.13 0 0 1-.07.11Z" fill="#5C3134"/><path d="m39.85 28.42 1.08.47a.11.11 0 0 1 .07.1v6.03a.11.11 0 0 1-.05.1.11.11 0 0 1-.1 0l-1.1-.47a.11.11 0 0 1-.06-.1v-6.03a.11.11 0 0 1 .16-.1Z" fill="#003046"/><path d="M29.35 34c2.31-.06 4.7.33 6.94.81 2.21.48 4.43 1.27 6.25 2.6a2.93 2.93 0 0 1 .46.43l-.01.03-.03.02h-.04c-1.12-.61-2.32-1.11-3.6-1.5-3.25-1-6.37-1.2-9.82-1.39-4.11 0-8.3-.03-12.16 1.51-1.83.74-4.56 2.53-3.46 4.78a6.83 6.83 0 0 0 2.86 2.69c-.01.02-.02.02-.03.02a9.65 9.65 0 0 1-2.44-1.57c-2.8-2.52-.46-5.04 2.11-6.23 4.08-1.89 8.52-2.09 12.97-2.2Z" fill="url(#b)"/><defs><linearGradient id="a" x1="13" y1="27.5" x2="43" y2="27.5" gradientUnits="userSpaceOnUse"><stop stop-color="#5C3134"/><stop offset=".5" stop-color="#372F3A"/><stop offset="1" stop-color="#003046"/></linearGradient><linearGradient id="b" x1="14.44" y1="38.32" x2="41.16" y2="37.7" gradientUnits="userSpaceOnUse"><stop stop-color="#5C3134"/><stop offset=".44" stop-color="#372F3A"/><stop offset="1" stop-color="#003046"/></linearGradient></defs></svg>