<!-- by TradingView --><svg width="56" height="56" viewBox="0 0 56 56" xmlns="http://www.w3.org/2000/svg"><path fill="#F0F3FA" d="M0 0h56v56H0z"/><path d="M26.71 27.35 25.55 30h-.11l-1.17-2.65V30H24v-3h.4l1.1 2.48L26.58 27H27v3h-.29v-2.65ZM28 27h2v.23h-1.73v1.1H30v.25h-1.73v1.18H30V30h-2v-3ZM31.51 27.23h-.88V27h2v.23h-.89V30h-.24l.01-2.77ZM33.88 28.76h-.64V30H33v-3h1.08c.5 0 .88.32.88.87 0 .22-.07.43-.21.6a.78.78 0 0 1-.55.26h-.04L35 30h-.3l-.82-1.24Zm.17-1.53h-.8v1.3h.8a.6.6 0 0 0 .44-.2.66.66 0 0 0 0-.91.6.6 0 0 0-.44-.2ZM36 27h-.2v3h.2v-3ZM37 28.49a1.3 1.3 0 0 1 .46-1.03c.3-.28.73-.45 1.19-.46h.1c.23 0 .47.05.7.14.2.09.4.21.55.37l-.24.14a1.22 1.22 0 0 0-.44-.31 1.45 1.45 0 0 0-.56-.11c-.8 0-1.44.51-1.44 1.27s.63 1.27 1.44 1.27c.2 0 .39-.03.56-.1.17-.08.32-.19.44-.32l.24.14c-.15.16-.34.3-.55.38-.22.09-.46.13-.7.13a2 2 0 0 1-.67-.1c-.2-.07-.4-.17-.56-.3-.16-.13-.29-.29-.38-.46a1.23 1.23 0 0 1-.14-.55v-.1ZM41 27h2v.23h-1.73v1.1H43v.25h-1.73v1.18H43V30h-2v-3ZM44.89 27.23H44V27h2v.23h-.89V30h-.24l.02-2.77ZM47 27h2v.23h-1.73v1.1H49v.25h-1.73V30H47v-3ZM50.19 29.52c.1.1.23.16.38.21.14.05.3.08.46.07.44 0 .7-.15.7-.37 0-.25-.36-.3-.73-.38-.44-.07-.92-.16-.92-.52 0-.3.34-.53.94-.53.17 0 .35.02.5.06.17.05.31.13.43.22l-.15.15a.94.94 0 0 0-.35-.2 1.23 1.23 0 0 0-.43-.05c-.41 0-.66.15-.66.35 0 .21.33.26.7.34.43.08.94.17.94.57 0 .3-.32.56-.98.56-.2 0-.38-.02-.56-.07a1.42 1.42 0 0 1-.46-.22l.19-.19Z" fill="#5E5C5C"/><path fill-rule="evenodd" d="M8.22 20.6a9.5 9.5 0 1 1 10.56 15.8A9.5 9.5 0 0 1 8.22 20.6Zm4.35 9.4c-.72 0-1.22-.14-1.57-.5l.43-.63c.3.33.57.4 1.01.4.22 0 .56 0 .56-.27 0-.41-.3-.57-.53-.63-.6-.15-1.47-.49-1.47-1.37 0-.64.62-1 1.5-1 .53-.01 1.1.14 1.5.5l-.43.6a1.7 1.7 0 0 0-1.13-.38c-.18 0-.44 0-.44.28 0 .24.26.43.66.54.6.15 1.34.46 1.34 1.46 0 .5-.42 1-1.43 1ZM10 30l-.4-1H8.4L8 30l-1-.01L8.44 26h1L11 30h-1Zm6.5 0v-1.58l1-2.42h-1l-.5 1.5-.5-1.5h-1l1 2.42V30h1Zm5.5 0h-1v-2l-.75 2h-.5L19 28v2h-1v-4h1l1 2.5 1-2.5h1v4Z" fill="#392D45"/><path d="m8.6 28 .4-1 .4 1h-.8Z" fill="#392D45"/></svg>