<!-- by TradingView --><svg width="56" height="56" viewBox="0 0 56 56" xmlns="http://www.w3.org/2000/svg"><path fill="#181B1E" d="M0 0h56v56H0z"/><path d="M41.36 32.98c0-7.14-4.82-12.87-11.36-16.98h2.62C38.83 19.42 43 26.16 43 32.98 43 40.13 37.32 43 30.86 43l1.75-1.63c5-.04 8.75-3.27 8.75-8.39ZM14.64 23.02c0 7.14 4.82 12.87 11.36 16.98h-2.62C17.17 36.58 13 29.84 13 23.02 13 15.87 18.68 13 25.14 13l-1.75 1.63c-5 .04-8.75 3.27-8.75 8.39Z" fill="#fff"/><path d="M32.98 14.64C25.84 14.64 20.11 19.46 16 26v-2.62C19.42 17.17 26.16 13 32.98 13 40.13 13 43 18.68 43 25.14l-1.63-1.75c-.04-5-3.27-8.75-8.39-8.75ZM23.02 41.36c7.14 0 12.87-4.82 16.98-11.36v2.62C36.58 38.83 29.84 43 23.02 43 15.87 43 13 37.32 13 30.86l1.63 1.75c.04 5 3.27 8.75 8.39 8.75Z" fill="#fff"/></svg>