<!-- by TradingView --><svg width="56" height="56" viewBox="0 0 56 56" xmlns="http://www.w3.org/2000/svg"><path fill="#F0F3FA" d="M0 0h56v56H0z"/><path d="M13 15h30v26H13z"/><path d="M35.5 25.5c.17 1.67.9 5 2.5 5s3.67-2.33 4.5-3.5c0 3-3 7-5 7-1.6 0-3-4-3.5-6l-3.5 5.5c.33 1.5 1.4 4.5 3 4.5s3-1.67 3.5-2.5c0 2-.5 5.5-4 5.5-2.8 0-3.83-3.33-4-5-.86 1.5-2.61 3.35-4.39 5H13V21.67A20.72 20.72 0 0 0 18.4 15h4.53c-.1.86-.3 1.64-.43 2a7 7 0 0 1 6 2.5c2 2.4 2.17 5 2 6l2-3.5c-.33-2-.46-5.07-.49-7h2.52c.08 1.68.33 3.3.47 4l2.4-4h4.03L35.5 25.5Zm-19.5 3c-1 2.67-2.2 8.5 1 10.5s7-2.5 8.5-5c-6.4 0-9-3.67-9.5-5.5Zm6-9.5c-.33 1.33-1.2 4.1-2 4.5V28c.17 1.33 1.1 4 3.5 4 3 0 4-2 4-3S29 19 22 19Z" fill="url(#a)"/><defs><linearGradient id="a" x1="27.75" y1="15" x2="27.75" y2="41" gradientUnits="userSpaceOnUse"><stop stop-color="#AFAFAF"/><stop offset=".37" stop-color="#D9D9D9"/><stop offset="1" stop-color="gray"/></linearGradient></defs></svg>