<!-- by TradingView --><svg width="56" height="56" viewBox="0 0 56 56" xmlns="http://www.w3.org/2000/svg"><path fill="#F0F3FA" d="M0 0h56v56H0z"/><path d="M12 24h3v.3c-.9.09-1 .15-1 1.48v1.95c0 1.31.12 2.84 1.74 2.84.5 0 .99-.2 1.36-.6.56-.61.68-1.32.68-3.9 0-1.63 0-1.68-.96-1.76V24H19v.3c-.36.02-.6.05-.7.32-.05.1-.07.18-.1.55-.04.65-.04 1.02-.04 1.14-.08 2.06-.1 2.6-.34 3.17-.5 1.18-1.6 1.51-2.43 1.51-1.75 0-2.37-1.3-2.39-2.91v-2.76c-.01-.86-.3-.94-1-1.02v-.3ZM20 24l1.36.01 1.33-.01c1.16 0 2.74.18 2.74 1.71 0 .95-.7 1.59-1.51 1.93l1.98 2.4c.42.5.56.58 1.1.64V31h-1.66c-.38-.52-.48-.64-.93-1.2a332 332 0 0 1-1.63-1.97H22c0 1.25.01 1.72.02 2.04.03.71.06.72.98.81V31h-3v-.32c.87-.08.99-.1 1-1.52v-2.85c0-1.1.2-1.82-1-2V24Zm2 .32v3.16l.36.02c1.05 0 2-.47 2-1.64 0-1.15-.82-1.53-1.83-1.54H22ZM35 27.52A3.4 3.4 0 0 1 31.53 31 3.48 3.48 0 0 1 28 27.49 3.42 3.42 0 0 1 31.36 24 3.46 3.46 0 0 1 35 27.52Zm-6-.02c0 1.6.97 3.23 2.57 3.23 1.59 0 2.43-1.78 2.43-3.2 0-1.25-.86-3.31-2.6-3.24-1.63.06-2.4 1.9-2.4 3.21ZM37 24l1.36.01 1.33-.01c1.22 0 3.06.04 3.06 1.71 0 .95-.93 1.78-1.75 2.12.66.8 1.24 1.41 1.9 2.2.42.5.56.59 1.1.65V31h-1.66c-.38-.52-.48-.64-.93-1.2a332 332 0 0 1-1.63-1.97h-.87c0 1.25.01 1.72.02 2.04.04.71.15.72 1.07.81V31h-3v-.32c.87-.08.99-.1 1-1.52v-2.85c0-.97.1-1.84-1-2V24Zm1.91.32v3.16l.45.02c1.12 0 2.32-.32 2.32-1.64 0-1.31-1.05-1.52-2.15-1.54h-.62ZM45 30.7c.85-.07.97-.25 1.26-1.02l1.85-5c-.06-.1-.08-.14-.16-.24.62-.12.8-.22 1.1-.44l.48 1.46 1.28 3.94c.34 1.04.46 1.2 1.19 1.3v.3h-2.83v-.3c.46-.04.83-.07.83-.46 0-.29-.4-1.55-.54-1.96h-2.33l-.37 1.12c-.08.26-.2.63-.2.77 0 .48.6.5.94.52v.3H45v-.3Zm4.32-2.86c-.32-.94-.69-2.09-1.01-2.83l-1.02 2.83h2.03ZM4 30.7c.85-.07.97-.24 1.26-1.02l1.85-5c-.06-.1-.08-.14-.16-.24.62-.12.8-.22 1.11-.44.24.78.29.93.47 1.46l1.28 3.94c.34 1.04.46 1.2 1.19 1.3v.3H8.17v-.3c.46-.03.84-.07.84-.46 0-.28-.4-1.54-.54-1.96H6.13l-.37 1.13c-.08.25-.2.62-.2.76 0 .48.6.5.94.53v.3H4v-.3Zm4.32-2.85c-.32-.95-.69-2.1-1.01-2.84l-1.02 2.84h2.03Z" fill="#7751A9"/></svg>