<!-- by TradingView --><svg width="56" height="56" viewBox="0 0 56 56" xmlns="http://www.w3.org/2000/svg"><path fill="#F0F3FA" d="M0 0h56v56H0z"/><path d="M17.1 27.96c0-1.62 1.6-2.96 3.56-2.96h14.77c1.95 0 3.56 1.34 3.56 2.96v.08c0 1.62-1.61 2.96-3.56 2.96H20.66c-1.95-.07-3.57-1.34-3.57-3.04Z" fill="#67B3EF"/><path d="M12 39c0-1.64 1.61-3 3.56-3h14.77c1.96 0 3.57 1.29 3.57 2.93V39c0 1.64-1.61 3-3.57 3H15.57C13.6 42 12 40.64 12 39Z" fill="#A8D4F6"/><path d="M22.1 16.96c0-1.62 1.61-2.96 3.57-2.96h14.77c1.95 0 3.56 1.34 3.56 2.96v.08c0 1.62-1.53 2.96-3.56 2.96H25.67c-1.96 0-3.57-1.34-3.57-2.96v-.08Z" fill="#2693E9"/></svg>