<!-- by TradingView --><svg width="56" height="56" viewBox="0 0 56 56" xmlns="http://www.w3.org/2000/svg"><path fill="#0D5AFE" d="M0 0h56v56H0z"/><path d="M18.82 35.92a.06.06 0 0 0 .02.08h12.99c.05 0 .1 0 .14-.03a.28.28 0 0 0 .1-.11l4.53-8.38c.03-.05.07-.1.12-.13.31-.2.57-.11.77.25l6.3 11.34c.13.25.25.48.2.73a.43.43 0 0 1-.15.23.41.41 0 0 1-.25.1H39.9a.63.63 0 0 1-.4-.18.29.29 0 0 1-.06-.08l-2.34-4.22a.1.1 0 0 0-.09-.05.1.1 0 0 0-.08.05l-2.2 3.97c-.27.5-.5.5-1.06.5L12.51 40c-.3 0-.6-.27-.49-.62.03-.1.08-.21.16-.35l15.4-27.76c.13-.24.43-.35.65-.2.09.05.2.21.36.47a9973.28 9973.28 0 0 0 6.19 11.21.5.5 0 0 1-.03.45c-1.57 2.8-3.04 5.48-4.37 7.89-.32.58-.4.91-1.05.91H25.98c-.47 0-.65-.42-.41-.84.88-1.62 2.38-4.36 4.46-8.08a.3.3 0 0 0 0-.3l-1.95-3.52a.09.09 0 0 0-.08-.05c-.02 0-.03 0-.04.02a.1.1 0 0 0-.04.03l-9.1 16.66Z" fill="#fff"/></svg>