<!-- by TradingView --><svg width="56" height="56" viewBox="0 0 56 56" xmlns="http://www.w3.org/2000/svg"><path fill="#F0F3FA" d="M0 0h56v56H0z"/><path d="M30.92 23.68 27.3 16.6l-.1-.2a.75.75 0 0 0-.28-.3.8.8 0 0 0-.4-.11H14.48a.79.79 0 0 0-.4.11.74.74 0 0 0-.28.3l-3.65 7.12-.09.16a.74.74 0 0 0 0 .64l3.63 7.06.11.2c.06.13.16.23.28.3.12.07.26.11.4.11h12.03a.8.8 0 0 0 .4-.11.75.75 0 0 0 .28-.3l3.64-7.1.08-.17a.7.7 0 0 0 0-.64Zm-2.2.39-2.9 5.85a.16.16 0 0 1-.05.06.17.17 0 0 1-.09.02H15.51c-.03 0-.06 0-.08-.02a.15.15 0 0 1-.06-.06l-3.06-5.85a.15.15 0 0 1 0-.13l3.06-5.86a.15.15 0 0 1 .06-.06.16.16 0 0 1 .08-.02h10.13c.03 0 .06 0 .08.02l.06.06 2.9 5.86c.02.01.04.03.04.06.01.02.01.04 0 .07Z" fill="#FFAB61"/><path d="m45.92 31.68-3.63-7.07-.1-.2a.75.75 0 0 0-.28-.3.8.8 0 0 0-.4-.11H29.48a.79.79 0 0 0-.4.11.74.74 0 0 0-.28.3l-3.65 7.12-.09.16a.74.74 0 0 0 0 .64l3.63 7.06.11.2c.06.13.16.23.28.3.12.07.26.11.4.11h12.03a.8.8 0 0 0 .4-.11.75.75 0 0 0 .28-.3l3.64-7.1.08-.17a.7.7 0 0 0 0-.64Zm-2.2.39-2.9 5.85a.16.16 0 0 1-.05.06.17.17 0 0 1-.09.02H30.51c-.03 0-.06 0-.08-.02a.15.15 0 0 1-.06-.06l-3.06-5.85a.15.15 0 0 1 0-.13l3.06-5.86a.15.15 0 0 1 .06-.06.16.16 0 0 1 .08-.02h10.13c.03 0 .06 0 .08.02l.06.06 2.9 5.86c.02.01.04.03.04.06.01.02.01.04 0 .07Z" fill="#FFAB61"/></svg>