<!-- by TradingView --><svg width="56" height="56" viewBox="0 0 56 56" xmlns="http://www.w3.org/2000/svg"><path fill="url(#a)" d="M0 0h56v56H0z"/><path d="m30.02 36.21.09.02c.12.02.2.14.19.27l-1.66 9.3a.24.24 0 0 1-.27.2l-.09-.02a.23.23 0 0 1-.19-.27l1.66-9.31a.24.24 0 0 1 .27-.19ZM30.25 26a.31.31 0 0 1 .23.11.3.3 0 0 1 .07.25l-.4 2.27a.45.45 0 0 1-.44.37h-1.52a.2.2 0 0 0-.18.12l-.01.07v2.67c0 .04.01.08.04.1.03.04.07.04.1.04h4c1.14 0 1.95-.03 2.04-1.2.07-.94-.36-1.58-1.17-1.84a.21.21 0 0 1-.14-.24l.45-2.48a.23.23 0 0 1 .26-.19c2.73.35 4.1 2.28 3.73 4.98-.1.79-.6 1.47-1.5 2.05a.16.16 0 0 0-.07.14c0 .03 0 .06.02.08.01.03.03.05.06.06a3.88 3.88 0 0 1 2.1 2.99c.37 2.66-.58 5.04-3.47 5.48a18.11 18.11 0 0 1-3.94.1.06.06 0 0 1-.02-.05l.5-2.74c0-.03.02-.06.05-.07a.12.12 0 0 1 .08-.03c2.71.37 4.08-.4 3.76-2.36-.16-1-.95-1.67-2.03-1.68h-4.67c-.05 0-.1.03-.13.07-.04.04-.05.09-.05.14v3.07c.01 1.18-.03 2.68-.23 3.53a.23.23 0 0 1-.22.17h-2.42a.13.13 0 0 1-.13-.13v-15.7a.15.15 0 0 1 .15-.15h5.1Zm4.23-13.94h.01c.15.03.24.16.22.3L31.29 31a.26.26 0 0 1-.3.21h-.02a.26.26 0 0 1-.2-.3l3.4-18.64a.26.26 0 0 1 .31-.21Zm-8.2-1.94c.5-.2.92-.15 1.23.15 1.66 1.62 2.69 2.95 5.24 3.58a.16.16 0 0 1 .09.26c-.32.4-.58.63-.88 1.23a10.62 10.62 0 0 0-.7 8.1.2.2 0 0 1-.12.25 4.41 4.41 0 0 1-3.15-1.54c-1.06-1.22-1.91-2.68-3.75-2.8a.14.14 0 0 1-.12-.1v-.06c.27-1.9.66-4.05 1.17-6.47.16-.79.42-1.59.76-2.4a.37.37 0 0 1 .22-.2Zm-9.3 2.4c.36-1.1 1.48-1.55 2.55-1.38 1.08.17 1.75 1.14 2.87 1.52a4.94 4.94 0 0 0 1.86.29.1.1 0 0 1 .04.02.1.1 0 0 1 .02.08l-1.34 7.38a.77.77 0 0 0 .2.69l.76.74a.43.43 0 0 1 0 .61.43.43 0 0 1-.2.1c-.98.23-2.1-.9-3.1-1.72-1.1-.9-3-1.85-4.42-1.2a.15.15 0 0 1-.14 0 .14.14 0 0 1-.07-.12c-.04-.44.04-.85.23-1.22.93-1.73 2.06-3.67.78-5.48a.34.34 0 0 1-.04-.32Zm7.34 7.56a.83.83 0 0 1 .46.02.26.26 0 0 1 .16.26 3.38 3.38 0 0 1-.29 1.13l-.02.01H24.56a3.4 3.4 0 0 1-.7-.92.25.25 0 0 1-.03-.16c0-.05.03-.1.07-.14.1-.1.24-.16.42-.2Z" fill="#fff"/><defs><linearGradient id="a" x1="10.42" y1="9.71" x2="68.15" y2="76.02" gradientUnits="userSpaceOnUse"><stop stop-color="#1A1E21"/><stop offset="1" stop-color="#06060A"/></linearGradient></defs></svg>