<!-- by TradingView --><svg width="56" height="56" viewBox="0 0 56 56" xmlns="http://www.w3.org/2000/svg"><path fill="url(#aswamwy04)" d="M0 0h56v56H0z"/><path d="m47 23.47-3.17 1 2.48.18-5.77 2.03-2.77-1.92.66 1.8L45.77 39h-8.91l-.22.56-.95.78-2-.78-1.53.04-.55-.6h-6.35l-.29 2-2.8-1.95L11 39l5.22-8.83L15.7 29l1.24-6.82 6.12-4.67.73-.63L28.33 9l4.66 8.17 3-.92 5.8 6.52 5.21.7Zm-6.38 1.59 3.97-1.33-3.1-.4-5.83-6.08-6.1 1.73-.4 1.47 1.13-.18s.8.92.99 1.07l.18.18 3.36-1.33 5.8 4.87Zm-.08 1.06 3.72-1.21-1.53-.11-2.19.7-3.42-2.43.29.8 3.13 2.25Zm3.36 12.2-5.47-10.28.04 1.4-1.06 1-.84 2.53-.11 1.66.73.26.4 1.76-.66 1.92 6.97-.26Zm-5.95-11.2-1.64-4.6-1.82-1.33-2.19 1.18.26.88-2.48-2.32-3.9.33h-.08l-.91-.14 1.06 2.54 1.13.55 2.04-.33-.99.7-1.09.18c-.25-.07-.51-.18-.77-.3l-.73-.36-.8-.44-.25-1.85-.4-1.03-.37-.59.7.23 1.42.33 1.64-.15 1.38-2.21-.32-.04-4.64-.48-3.68 2.55.7-.08 1.52-.44-.72.96-1.9.7-2.3.88-1.1 3.87 1.4-1.92 1.85-.22-1.53 1.36-1.93 2.03.29 1.4.84 2.02 1.64-.62 2.33.3-1.71 1.69-.77 2.2.8 1.92 2.16 2.06.07-1.47.48.04v1.8l1.9 1.18v-4.53l1.93-3.28-.08-.03-2.62-2.91-.26-1.8-.22-2.44.99 1.88.62 2.17 2.04 2.88 1.57.55 1.6 1.8-.95-.22-.5-.59.21 2.54 1.57 1.73.47-2.32v-.7l.19-1.25.36 2.06-.36 2.07.87.92.44.44L33.8 39l2.4.22.88-2.58-.66-.77-.95-1-1.24.52.55-.8.7-.3.47.15.1-1.59.81-2.35-1.79.8-1.16-1.5-.88.03-.58.19-.84-.15 1.27-.77.88.1-.15-1.9.7-1.26 2.44 3.6.37.3.83-1.03v-1.8Zm-2 2.83-1.39-2.32-.33 1.77.95.52.77.03Zm-3.65-12.6-3.97-6.7-3.8 6.34 5.87.96 1.9-.6Zm-7.04 21.22h5.25l-2.3-1.84-.1-3.8-1.2-.36-1.32 3.27-.33 2.73Zm-12.62-.55 8.5.55-1.68-1.07-2.88-6.55-3.94 7.07Zm5.98-4.75.7-1.84-1.32.4.62 1.44Zm17.36 3.13-.58.37-.3.84-.87.7.66-2.32 1.1.4Zm-3.97-4.13 1.79.48-2.6-2.24-3.57-2.29.95 1.84 2.23 1.18 1.2 1.03Zm-1.24-9.9-.91.18-.4-.22-1.75.37-.22.92-.8-.33-.8-1.55h3.68l1.2.63Zm-7.37 13.4.04-1.91-1.2 2.2-.04 1 .47.04.73-1.33Z" fill="#fff"/><defs><linearGradient id="aswamwy04" x1="10.42" y1="9.71" x2="68.15" y2="76.02" gradientUnits="userSpaceOnUse"><stop stop-color="#1A1E21"/><stop offset="1" stop-color="#06060A"/></linearGradient></defs></svg>