<!-- by TradingView --><svg width="56" height="56" viewBox="0 0 56 56" xmlns="http://www.w3.org/2000/svg"><path fill="#F0F3FA" d="M0 0h56v56H0z"/><path d="M22.98 22.52h-.02a19.7 19.7 0 0 1 .75-3.36 54.3 54.3 0 0 1 1.2-3.96A170.87 170.87 0 0 1 26 12.1a16.68 16.68 0 0 1 2.17-.07 97.79 97.79 0 0 0-2.59 4.4 46.1 46.1 0 0 0-1.62 3.24c-.42.92-.75 1.87-.98 2.85ZM31.9 12.43l-.02.02a98.45 98.45 0 0 0-3.79 4.04c-.9 1.01-1.7 2-2.4 2.96a15 15 0 0 0-1.26 2.11h-.01a20 20 0 0 1 1.05-2.31 52.48 52.48 0 0 1 2.25-4 149 149 0 0 1 2-3.16 16.67 16.67 0 0 1 2.18.34ZM21.77 23.74h-.01a19.7 19.7 0 0 1-.03-3.45c.03-1.37.13-2.74.27-4.13a169.54 169.54 0 0 1 .38-3.28 16.63 16.63 0 0 1 2.1-.54 97.4 97.4 0 0 0-1.53 4.88 45.82 45.82 0 0 0-.86 3.51c-.2 1-.3 2-.32 3ZM33.65 12.9c-.06.26-.21.46-.4.68A2021.03 2021.03 0 0 0 30 17.37c-.42.31-.94.72-1.56 1.22a17.03 17.03 0 0 0-2.39 2.35v-.01a20.24 20.24 0 0 1 2.12-2.66c.74-.87 1.57-1.79 2.5-2.75a146.17 146.17 0 0 1 2.74-2.7l.23.07Z" fill="#0087ED"/><path d="m30 17.37.32-.4 2.93-3.4c.19-.21.34-.4.4-.68a16.38 16.38 0 0 1 1.82.76A91.04 91.04 0 0 0 30 17.37Z" fill="#0087ED" fill-opacity=".84"/><path d="M20.88 25.25v.01h-.01c-.23-.69-.4-1.35-.54-1.98l-.4-2c-.17-.94-.33-1.92-.47-2.94a148.02 148.02 0 0 1-.46-3.95 16.58 16.58 0 0 1 1.95-.96 102.95 102.95 0 0 0-.45 6.43v.6c0 .23-.03.49-.02.74l.01.3a15.58 15.58 0 0 0 .39 3.76Z" fill="#0087ED"/><path d="M37.69 14.84c-.22.42-.45.67-.82 1.1-.09.12-.19.27-.3.46-1.13.43-2.25.88-3.38 1.36 0-.12.06-.26.18-.4l.88-1.03c.2-.23.39-.47.56-.72l2.05-1.27h.03l.8.5Z" fill="#0087ED" fill-opacity=".76"/><path d="M37.69 14.84a16.56 16.56 0 0 1 1.03.77l-2.14.8c.1-.2.2-.35.3-.46.36-.44.6-.7.8-1.1Z" fill="#0087ED" fill-opacity=".67"/><path d="M20.34 26.9v.01a20.28 20.28 0 0 1-1.58-3.17 55.7 55.7 0 0 1-1.6-3.92 176.36 176.36 0 0 1-1.13-3.17 16.74 16.74 0 0 1 1.7-1.42c.22 1.76.48 3.48.77 5.16.22 1.23.48 2.43.79 3.6.26 1 .61 1.97 1.05 2.91Z" fill="#0087ED"/><path d="M34.81 15.62c-.17.24-.36.48-.56.71l-.88 1.03c-.12.14-.18.28-.18.4-1.07.45-2.09.93-3.05 1.44a16.07 16.07 0 0 0-2.35 1.5c.68-.64 1.4-1.23 2.17-1.78l1.32-.96c1.1-.79 2.28-1.57 3.53-2.35Z" fill="#0087ED" fill-opacity=".84"/><path d="m40.52 17.18-.7.82c-.13.17-.26.34-.37.52l-2.52.38c.3-.45.6-.76.9-1.15a.9.9 0 0 0 .2-.5l1.88-.64a.03.03 0 0 1 .03 0l.58.57Z" fill="#0087ED" fill-opacity=".57"/><path d="M40.52 17.18a16.72 16.72 0 0 1 .92 1.08l-2 .26c.12-.18.25-.35.39-.52l.69-.82Z" fill="#0087ED" fill-opacity=".47"/><path d="M36.93 18.9c-1.06.17-2.13.37-3.18.6.15-.17.28-.35.41-.54.07-.1.1-.19.01-.28 1.27-.5 2.56-.98 3.86-1.43a.9.9 0 0 1-.2.5c-.3.39-.6.7-.9 1.15Z" fill="#0087ED" fill-opacity=".67"/><path d="M20.2 28.62h-.01v.01h-.01a20.65 20.65 0 0 1-2.26-2.76 56.52 56.52 0 0 1-2.46-3.5 179.57 179.57 0 0 1-1.82-2.86 16.62 16.62 0 0 1 1.35-1.77c.6 1.68 1.25 3.31 1.92 4.9.5 1.15 1.02 2.28 1.59 3.36.48.92 1.04 1.8 1.7 2.62Z" fill="#0087ED"/><path d="M33.75 19.5c-.76.17-1.43.34-2 .51a16.52 16.52 0 0 0-2.2.83c.82-.48 1.6-.88 2.34-1.19.77-.32 1.51-.66 2.28-.97.1.1.06.19-.01.28-.13.2-.26.37-.41.54Z" fill="#0087ED" fill-opacity=".76"/><path d="M42.76 20.11a7.8 7.8 0 0 0-.94 1.2l-2.75-.2c.13-.1.24-.17.3-.24a8.26 8.26 0 0 0 .73-.86.58.58 0 0 0 .08-.27l2.17-.24h.02l.01.02.38.6Z" fill="#0087ED" fill-opacity=".39"/><path d="M40.18 19.74c0 .1-.04.19-.08.27l-.24.32c-.2.23-.36.42-.49.54-.06.07-.17.15-.3.23l-2.04-.1c.34-.11.51-.32.74-.6.1-.13.17-.27 0-.36l2.4-.3Z" fill="#0087ED" fill-opacity=".47"/><path d="M37.77 20.04c.17.09.1.23 0 .35-.23.29-.4.5-.74.62l-1.88-.03c-.03 0-.05-.02-.06-.03a.07.07 0 0 1 0-.09l.2-.26c.05-.05.06-.11.01-.17.82-.15 1.64-.28 2.47-.39Z" fill="#0087ED" fill-opacity=".57"/><path d="M42.76 20.11a16.77 16.77 0 0 1 .71 1.36l-1.65-.16c.27-.43.58-.81.94-1.2Z" fill="#0087ED" fill-opacity=".26"/><path d="M35.3 20.43c.05.06.04.12 0 .17a7.17 7.17 0 0 1-.22.3l.01.05.06.03c-.47 0-.93.02-1.4.05a16.27 16.27 0 0 0-2.52.32c.92-.29 1.87-.52 2.85-.68l1.23-.24Z" fill="#0087ED" fill-opacity=".67"/><path d="M20.44 30.33v.01h-.01a20.91 20.91 0 0 1-2.84-2.2c-1.1-.9-2.15-1.88-3.2-2.88a181.35 181.35 0 0 1-2.43-2.41 16.6 16.6 0 0 1 .92-2.02c.97 1.5 1.97 2.96 2.99 4.36a47.99 47.99 0 0 0 2.31 2.95c.68.8 1.43 1.53 2.26 2.19Z" fill="#0087ED"/><path d="M36.22 22.21c-.1.11-.19.24-.26.38l-.84-.15a17.4 17.4 0 0 0-2.32-.21 30.1 30.1 0 0 1 1.3-.07h.95c.1.02.26 0 .38.02h.01l.78.03Z" fill="#0087ED" fill-opacity=".57"/><path d="m37.98 22.29-.4.66-1.62-.36c.07-.14.16-.27.26-.38l1.76.08Z" fill="#0087ED" fill-opacity=".47"/><path d="M40.68 22.5c-.23.4-.54.75-.93 1.01l-2.16-.56.39-.66h.22c.83.06 1.65.13 2.48.21Z" fill="#0087ED" fill-opacity=".39"/><path d="M43.94 22.86c-.52.59-.91 1.04-1.35 1.5-.94-.3-1.89-.58-2.84-.85.39-.26.7-.6.93-1l3.26.35Z" fill="#0087ED" fill-opacity=".26"/><path d="M42.59 24.36c.44-.46.83-.91 1.35-1.5a.4.4 0 0 1 .13.02.04.04 0 0 1 .02.02 15.41 15.41 0 0 1 .6 2.14l-2.1-.68Z" fill="#0187EF" fill-opacity=".13"/><path d="m37.07 24.07-.17.34a17.67 17.67 0 0 0-2.8-.98c1 .15 2 .36 2.97.64Z" fill="#0087ED" fill-opacity=".47"/><path d="M39.44 24.71a3.2 3.2 0 0 1-.52.64c-.66-.33-1.33-.65-2.02-.94l.17-.34c.8.2 1.58.4 2.37.64Z" fill="#0087ED" fill-opacity=".39"/><path d="M19.34 30.97c.03.11-.02.18-.13.2a42.2 42.2 0 0 1-1.6-.82 47.9 47.9 0 0 1-2.2-1.21 126.79 126.79 0 0 1-4.32-2.63 16.53 16.53 0 0 1 .44-2.18 92.4 92.4 0 0 0 5.28 4.76c.8.65 1.65 1.31 2.53 1.88Z" fill="#0087ED"/><path d="M41.05 25.21c-.2.33-.46.61-.76.85l-1.37-.7c.2-.2.37-.41.52-.65l1.61.5Z" fill="#0087ED" fill-opacity=".26"/><path d="m32.51 30.31.26.12c.39.18.7.46.93.81.3.46.38 1.03.33 1.58-.1.99-.78 1.64-1.67 1.92a5.04 5.04 0 0 1-1.78.26h-4.57l-.01-.01V26l.02-.01a1972.93 1972.93 0 0 0 4.58 0c.24.02.5.04.8.09.96.15 1.92.7 2.16 1.75.06.28.07.57.02.87-.09.63-.4 1.12-.91 1.48a10.03 10.03 0 0 0-.16.12ZM28 28.63a94.47 94.47 0 0 0 .02 1.05h2.15c.2 0 .4-.03.57-.08.49-.14.81-.41.81-.97s-.32-.83-.81-.97a2.1 2.1 0 0 0-.57-.08 143.49 143.49 0 0 0-2.17.02v1.03Zm0 2.6v2.17h2.69c.34 0 .68-.1.92-.29a.9.9 0 0 0 .38-.7v-.19a.9.9 0 0 0-.38-.7c-.24-.2-.58-.3-.92-.3H28ZM37.98 26h-1.96c-.01 0-.02 0-.02.02v8.96c0 .01 0 .02.02.02h1.96c.01 0 .02 0 .02-.02v-8.96c0-.01 0-.02-.02-.02Z"/><path d="M45 27.35a3.28 3.28 0 0 0-1.81-.83 4.13 4.13 0 0 0-1.8.14l-1.1-.6c.3-.24.56-.52.76-.85a160.83 160.83 0 0 1 3.89 1.34l.01.03c.04.26.06.52.05.77Z" fill="#0187EF" fill-opacity=".13"/><path d="M18.42 32.1c-.09.22-.25.3-.46.4a98.72 98.72 0 0 1-6.87-2.24 16.51 16.51 0 0 1-.06-2.21c1.48.9 2.97 1.76 4.47 2.57.96.52 1.93 1.01 2.92 1.47Z" fill="#0087ED"/><path d="M19.34 30.97a15.82 15.82 0 0 0 1.75.99v.01c-.64-.23-1.27-.5-1.87-.8.1-.02.15-.09.12-.2Z" fill="#0087ED" fill-opacity=".84"/><path d="m16.14 33.27-.53.65c-.09.12-.17.25-.24.4l-3.41-.37a.02.02 0 0 1-.02-.02 16.51 16.51 0 0 1-.56-2.14c1.57.53 3.16 1.02 4.76 1.48Z" fill="#0087ED"/><path d="M18.42 32.1c.75.35 1.52.66 2.3.92l-.1.04a.03.03 0 0 0 0 .05c.02.03.06.05.1.07-.5-.1-1-.23-1.5-.36l-1.26-.33c.21-.09.37-.17.46-.4Z" fill="#0087ED" fill-opacity=".84"/><path d="M20.73 33.02a16.78 16.78 0 0 0 1.31.37s0 .01 0 0l-1.32-.21a.37.37 0 0 1-.1-.07h-.01a.03.03 0 0 1 0-.04h.01l.1-.05Z" fill="#0087ED" fill-opacity=".76"/><path d="M18.73 33.94c-.22.18-.42.38-.59.6-.92-.05-1.84-.13-2.77-.22.07-.15.15-.28.24-.4l.53-.65c.86.24 1.72.46 2.6.67Z" fill="#0087ED" fill-opacity=".84"/><path d="M18.73 33.94c.91.22 1.84.4 2.77.52.06.07.02.14-.12.2a38.65 38.65 0 0 1-1.94-.06c-.43 0-.87-.03-1.3-.06.17-.22.37-.42.6-.6Z" fill="#0087ED" fill-opacity=".76"/><path d="M21.38 34.66c.14-.06.18-.13.12-.2a16.96 16.96 0 0 0 1.8.12c-.64.06-1.28.09-1.92.08Z" fill="#0087ED" fill-opacity=".67"/><path d="M15.34 35.6a5.7 5.7 0 0 1-.4.55c-.38.45-.62.72-.87 1.13l-.4.04-.02-.02a16.61 16.61 0 0 1-1.1-1.95l2.79.25Z" fill="#0087ED"/><path d="M22.1 36.13c.1-.03.4-.21.23-.34a16.63 16.63 0 0 0 2.5-.33l-.01.01c-.9.28-1.8.5-2.72.66Z" fill="#0087ED" fill-opacity=".57"/><path d="M16.94 35.72c-.31.5-.73.94-1.13 1.37l-1.74.19c.25-.41.49-.68.87-1.13.1-.12.24-.3.4-.55l1.6.12Z" fill="#0087ED" fill-opacity=".84"/><path d="m19.23 35.82.09.01v.01l-.5.86c-1 .15-2 .27-3 .39.4-.43.8-.88 1.12-1.37l2.29.1Z" fill="#0087ED" fill-opacity=".76"/><path d="M22.33 35.8c.18.12-.13.3-.23.33l-.56.1c-.9.19-1.8.34-2.72.47l.5-.85a.01.01 0 0 0 0-.02l-.1-.01c1.04.03 2.08.03 3.11-.03Z" fill="#0087ED" fill-opacity=".67"/><path d="M29.13 37.07h-.23a23.25 23.25 0 0 0 1.04-1.1c-.26.37-.53.74-.81 1.1Z" fill="#0187EF" fill-opacity=".13"/><path d="M22.3 37.97c.1-.14.2-.28.27-.43a.6.6 0 0 0 .08-.3 18.53 18.53 0 0 0 3.85-1.26c-.8.48-1.63.9-2.5 1.25-.53.23-1.12.5-1.7.74Z" fill="#0087ED" fill-opacity=".47"/><path d="M22.3 37.97c-.88.36-1.78.7-2.69 1.03l.63-.78c.14-.16.23-.35.27-.54a47.4 47.4 0 0 0 2.14-.44c0 .1-.02.2-.08.3a4.1 4.1 0 0 1-.27.43Z" fill="#0087ED" fill-opacity=".57"/><path d="M26.4 37.4v.03l.01.01h.02l.24.01a11.79 11.79 0 0 1-1.14.86c-1.1.81-2.22 1.58-3.37 2.3.37-.4.74-.82 1.09-1.24.2-.23.38-.47.55-.72.83-.37 1.67-.8 2.53-1.26.03-.01.05 0 .08.01ZM28.8 37.45c-.16.22-.33.42-.5.63l-.54.6a49.25 49.25 0 0 1-2.71 2.93A136.06 136.06 0 0 1 22.6 44a17.35 17.35 0 0 1-2.04-.8v-.02c1.27-.8 2.47-1.6 3.6-2.39 1.29-.89 2.56-1.83 3.74-2.82.2-.16.38-.33.57-.52h.33Z" fill="#0187EF" fill-opacity=".13"/><path d="M20.51 37.68c-.04.2-.13.38-.27.54l-.63.78-3.45 1.2c.13-.19.26-.37.41-.54l.9-1.04.38-.5 2.66-.44Z" fill="#0087ED" fill-opacity=".67"/><path d="M17.85 38.12a6.4 6.4 0 0 1-.38.5l-.9 1.04c-.15.17-.28.35-.41.55a.08.08 0 0 1-.04.01.04.04 0 0 1-.03-.01 16.64 16.64 0 0 1-1.5-1.65l3.26-.44Z" fill="#0087ED" fill-opacity=".76"/><path d="M23.8 38.65c-.17.25-.35.5-.55.72-.35.42-.72.84-1.09 1.25l-2.96 1.85a.06.06 0 0 1-.07 0 19 19 0 0 1-1.25-.8c.24-.27.43-.56.59-.87 1.8-.67 3.58-1.37 5.33-2.15Z" fill="#0087ED" fill-opacity=".26"/><path d="m17.88 41.67-.58-.43v-.02l1.17-.42c-.16.31-.35.6-.6.87Z" fill="#0087ED" fill-opacity=".39"/></svg>