<!-- by TradingView --><svg width="56" height="56" viewBox="0 0 56 56" xmlns="http://www.w3.org/2000/svg"><path fill="#F0F3FA" d="M0 0h56v56H0z"/><path d="M10 17.59h.65c.59 0 .74.33.74.7 0 .76-.55.76-1.06.76H10V17.6ZM9 22h1.8c.67 0 1.14-.2 1.38-.36.2-.15.55-.54.55-1.15 0-.23-.04-.52-.24-.8a1.1 1.1 0 0 0-.82-.54c.2-.1.78-.38.78-1.05a.9.9 0 0 0-.39-.77c-.31-.28-.82-.33-1.33-.33-.47 0-1.26.05-1.73.05V22Zm1-2.38h.33c.67 0 1.34.02 1.34.92 0 .36-.12.64-.47.8-.24.07-.53.07-1.2.07v-1.8ZM15.76 18.48h.44c.64 0 .8.24.8.65 0 .35-.11.62-.52.7-.2.02-.32.02-.72.02v-1.37Zm0 1.8c.16.03.28.03.48 0 .48 1.1.8 1.72 1.57 1.72.16 0 .36-.03.4-.08 0 0 .04-.03.04-.05l.04-.25v-.02c-.12 0-.24 0-.4-.11-.24-.13-.56-.6-.88-1.37.56-.19.84-.59.84-1.05 0-.24-.08-.53-.32-.77-.28-.25-.6-.3-1.25-.3l-1.28.03V22h.76v-1.72ZM22.13 18.48c.68 0 1.29.58 1.29 1.59 0 1.14-.73 1.45-1.17 1.45-.68 0-1.28-.58-1.28-1.56 0-.77.4-1.48 1.16-1.48Zm.2-.48c-.52 0-1 .08-1.48.5-.44.37-.68.85-.68 1.54 0 .9.52 1.96 1.96 1.96 1.04 0 2.09-.66 2.09-2.01 0-.85-.36-1.3-.6-1.51a2.2 2.2 0 0 0-1.29-.48ZM26.78 18l.92 3 .92-3h.44l.88 3 .96-3h.68l-1.52 4h-.56l-.8-2.62-.84 2.62h-.56l-1.36-4h.84ZM34.15 18l2.24 2.76-.04-2.76h.56v3.9l-.48.1-2.36-2.9.04 2.82h-.56l.04-3.92h.56ZM10.04 25.59h.64c.6 0 .76.3.76.7 0 .76-.56.76-1.08.76h-.32V25.6ZM9 30h1.84c.68 0 1.16-.2 1.4-.36.2-.15.56-.54.56-1.18 0-.2-.04-.51-.24-.77-.24-.43-.64-.51-.84-.56.2-.08.8-.36.8-1.05 0-.31-.16-.6-.4-.77-.32-.26-.84-.31-1.36-.31-.48 0-1.28.05-1.76.05V30Zm1.04-2.38h.32c.68 0 1.36.02 1.36.92 0 .36-.12.64-.48.8-.24.07-.52.07-1.2.07v-1.8ZM15.8 26.45h.44c.6 0 .8.27.8.67 0 .35-.16.62-.52.7-.2.03-.32.03-.72 0v-1.37Zm0 1.83h.44c.48 1.1.84 1.72 1.6 1.72.16 0 .32-.03.4-.09v-.05l.08-.24-.04-.03c-.08 0-.24 0-.36-.1-.24-.14-.56-.62-.88-1.37.56-.2.8-.6.8-1.05a.95.95 0 0 0-.32-.78c-.28-.27-.6-.3-1.2-.3l-1.32.03V30h.8v-1.72ZM21.75 26.47c.64 0 1.24.59 1.24 1.6 0 1.13-.72 1.45-1.16 1.45-.68 0-1.28-.58-1.28-1.6 0-.76.4-1.45 1.2-1.45Zm.16-.47c-.48 0-1 .07-1.48.5-.4.34-.68.82-.68 1.5 0 .94.56 2 1.96 2 1.08 0 2.12-.67 2.12-2.04 0-.83-.4-1.3-.64-1.49a2.01 2.01 0 0 0-1.28-.47ZM28.4 26v.52H27V30h-.76v-3.48h-1.4V26h3.56ZM32.48 27.6V26h.76v4h-.76v-1.88h-1.72V30H30v-4h.76v1.6h1.72ZM37.79 26v.5h-1.8v1.15h1.6v.5h-1.6v1.33h1.84V30h-2.6v-4h2.56ZM40.76 26.45h.44c.64 0 .8.27.8.67 0 .35-.12.62-.52.7-.2.03-.32.03-.72 0v-1.37Zm0 1.83h.48c.48 1.1.8 1.72 1.56 1.72.16 0 .36-.03.4-.09 0 0 .04-.02.04-.05l.04-.24v-.03c-.12 0-.24 0-.4-.1-.24-.14-.56-.62-.88-1.37.56-.2.84-.6.84-1.05 0-.24-.08-.54-.32-.78-.28-.27-.64-.3-1.24-.3l-1.28.03V30h.76v-1.72ZM46.88 26.58c0 .08 0 .08-.04.1l-.12.08h-.04c-.04 0-.16-.1-.2-.1-.16-.08-.36-.19-.64-.19-.4 0-.6.19-.6.48 0 .32.16.4.76.69.56.29 1 .5 1 1.14 0 .66-.56 1.22-1.4 1.22-.28 0-.72-.08-1-.16-.08-.03-.08-.03-.08-.1l-.04-.43c-.04-.06-.04-.08 0-.1l.16-.09h.04l.16.1c.44.25.72.27.84.27.48 0 .64-.29.64-.53 0-.32-.24-.4-.68-.63-.56-.27-1.12-.5-1.12-1.22 0-.7.6-1.11 1.44-1.11.36 0 .76.1.8.13.04.02.04.05.08.1l.04.35ZM12 35.01V33h1v5h-1v-2.35h-2V38H9v-5h1v2.01h2ZM15.88 36.32l.52-1.52.52 1.52h-1.04Zm.4-2.32-1.68 4h.68l.4-1.19h1.4l.36 1.19h.88l-1.48-4h-.56ZM20.8 34.46h.44c.6 0 .8.24.8.64 0 .38-.16.64-.52.7-.2.05-.32.05-.72.03v-1.37Zm0 1.82c.16 0 .28 0 .48-.02.48 1.12.8 1.74 1.56 1.74.16 0 .36-.05.4-.08 0 0 0-.03.04-.05l.04-.25v-.02c-.12 0-.24 0-.4-.11-.24-.13-.56-.62-.88-1.37.56-.19.8-.59.8-1.05 0-.24-.04-.53-.28-.77-.32-.27-.64-.3-1.24-.3l-1.32.03V38h.8v-1.72ZM25.8 34.46h.44c.6 0 .8.24.8.64 0 .38-.16.64-.52.7-.2.05-.32.05-.72.03v-1.37Zm0 1.82c.16 0 .28 0 .48-.02.48 1.12.8 1.74 1.56 1.74.16 0 .36-.05.4-.08 0 0 0-.03.04-.05l.04-.25v-.02c-.12 0-.24 0-.4-.11-.24-.13-.56-.62-.88-1.37.56-.19.8-.59.8-1.05 0-.24-.04-.53-.28-.77-.32-.27-.64-.3-1.24-.3l-1.32.03V38h.8v-1.72ZM30 34h.76v4H30v-4ZM33.27 34l1.24 2.87L35.79 34h.72l.12 4h-.72l-.08-2.84-1.28 2.76-.36.05-1.25-2.92L32.9 38h-.56l.24-4h.69ZM39.2 36.32l.56-1.52.48 1.52H39.2Zm.44-2.32-1.68 4h.68l.4-1.19h1.36l.4 1.19h.84l-1.44-4h-.56ZM44 34l2.28 2.76-.04-2.76h.56l-.04 3.86-.44.14-2.36-2.9.04 2.82h-.56V34H44Z" fill="#4F4C4C"/><path d="M41.72 19.19c-.88.02-1.51.91-1.72 1.37v-1.67c.5-.51 1.13-.92 1.72-.89H47v1.19h-5.28ZM41.72 21.6c-.88.03-1.51.92-1.72 1.38V21.3c.5-.51 1.13-.91 1.72-.89H47v1.19h-5.28Z" fill="#E32739"/></svg>