<!-- by TradingView --><svg width="56" height="56" viewBox="0 0 56 56" xmlns="http://www.w3.org/2000/svg"><path fill="#F0F3FA" d="M0 0h56v56H0z"/><path d="m47 36.96-.01.03-.03.01H9.04a.04.04 0 0 1-.04-.04V19.04a.04.04 0 0 1 .04-.04h37.92l.03.01.01.03v17.92Z" fill="#002746"/><path d="M44.84 21c.05 0 .08.02.11.04.03.03.05.07.05.11v13.7c0 .04-.02.08-.05.1a.16.16 0 0 1-.1.05h-33.7a.16.16 0 0 1-.1-.04.15.15 0 0 1-.05-.11v-13.7c0-.04.02-.08.05-.1a.16.16 0 0 1 .1-.05h33.7Zm-33.5.2a.15.15 0 0 0-.15.15v13.33a.15.15 0 0 0 .15.15h33.29c.04 0 .08-.01.1-.04a.15.15 0 0 0 .06-.1V21.35a.15.15 0 0 0-.05-.1.16.16 0 0 0-.11-.05H11.34Z" fill="#F9E8EC"/><path d="m30.99 25.9-.83.73h-.06a3.54 3.54 0 0 0-1.44-.65c-1.16-.22-2.07.02-2.73.72-.55.59-.68 1.23-.39 1.94.29.69.84 1.13 1.67 1.33a4.12 4.12 0 0 0 1.99-.12l1-.5a.13.13 0 0 1 .15.03l.62.55.02.03a.08.08 0 0 1 0 .08l-.03.02a5.11 5.11 0 0 1-5.47.27c-.98-.52-1.47-1.24-1.49-2.16-.03-1.59.89-2.6 2.75-3.02a5.55 5.55 0 0 1 4.25.73l-.01.01ZM37 27.8h.05c.7-.78 1.48-1.68 2.35-2.69a.28.28 0 0 1 .1-.07.31.31 0 0 1 .13-.03h1.27a.1.1 0 0 1 .07.03l.03.06v5.82c0 .02 0 .04-.03.06a.1.1 0 0 1-.06.02H39.7c-.02 0-.04 0-.05-.02a.06.06 0 0 1-.03-.05v-4c0-.02 0-.04-.02-.06a.1.1 0 0 0-.05-.03h-.06a360.62 360.62 0 0 1-2.32 2.54c-.06.06-.11.1-.16.1-.04 0-.1-.04-.15-.1a311.6 311.6 0 0 1-2.31-2.55h-.07a.1.1 0 0 0-.05.04.08.08 0 0 0-.02.05l-.02 4c0 .02 0 .04-.02.05a.08.08 0 0 1-.05.02h-1.22a.1.1 0 0 1-.07-.03.07.07 0 0 1-.02-.05l.02-5.82c0-.03.01-.05.03-.06a.1.1 0 0 1 .07-.03h1.28l.12.03c.04.02.08.04.1.07A142.81 142.81 0 0 0 37 27.8ZM19.14 25.01c1.36.05 2.13.45 2.32 1.21.1.37.06.67-.12.91a3.3 3.3 0 0 1-.76.64.13.13 0 0 0-.05.05.1.1 0 0 0 0 .07l.03.06c.01.02.04.03.06.04.74.22 1.18.56 1.32 1.01.17.58-.02 1.06-.6 1.45-.48.32-1.07.5-1.75.52-1.3.04-2.8.04-4.48.02a.12.12 0 0 1-.08-.03.09.09 0 0 1-.03-.06v-5.8a.1.1 0 0 1 .03-.07.13.13 0 0 1 .09-.03l4.02.01Zm-2.7 3.4a.1.1 0 0 0-.02.02l-.02.03-.01.03v1.55c0 .02 0 .04.02.05a.1.1 0 0 0 .06.02h2.6c.2 0 .39-.01.57-.06.18-.04.34-.1.48-.18.14-.08.25-.17.32-.27.08-.1.12-.21.12-.33v-.01c0-.22-.16-.44-.44-.6a2.2 2.2 0 0 0-1.05-.25h-2.6a.1.1 0 0 0-.03 0Zm.1-2.52a.17.17 0 0 0-.1.04.13.13 0 0 0-.05.1v1.37l.01.06a.14.14 0 0 0 .09.07H18.75c.35 0 .69-.08.94-.23.24-.15.38-.36.38-.57v-.05c0-.1-.03-.2-.1-.3a.92.92 0 0 0-.29-.26 1.58 1.58 0 0 0-.43-.17 2.1 2.1 0 0 0-.5-.07h-2.2Z" fill="#F0F3FA"/></svg>