<!-- by TradingView --><svg width="56" height="56" viewBox="0 0 56 56" xmlns="http://www.w3.org/2000/svg"><path fill="#F0F3FA" d="M0 0h56v56H0z"/><path d="M26 17.96a.12.12 0 0 1-.15-.03l-.03-.04v-.03c.3-.29.87-.78 1.7-1.48.6-.52 1.42-1.05 2.45-1.59a6.65 6.65 0 0 1 4.57-.64c.63.13 1.39.41 2.27.85 1 .5 2.1 1.16 3.33 2 1.17.8 2.77.91 3.78-.2a.05.05 0 0 1 .06 0l.02.02v.03a7.35 7.35 0 0 1-2.24 3.5c-1.2 1.06-2.5 1.2-3.88.43l-4.65-2.56a8.63 8.63 0 0 0-3.95-1.14 6.4 6.4 0 0 0-3.28.88Z" fill="#07447F"/><path d="M43.96 23.28c-.01.17-.03.3-.06.39a10.65 10.65 0 0 1-2.86 4.45c-1.58 1.49-3.47 2.15-5.56 1.1-1.22-.6-3.4-1.8-6.53-3.58a18.58 18.58 0 0 0-4.2-1.72 8.9 8.9 0 0 0-5.96.49l-1.09.5a.16.16 0 0 1-.2-.05.15.15 0 0 1 .03-.2l2.59-2.2a20.1 20.1 0 0 1 3.01-1.98 9.95 9.95 0 0 1 8.82-.6c2.3.9 4.5 2.29 6.5 3.67 1.06.72 2.18 1 3.38.83 1.03-.15 1.35-.57 2.06-1.14a.04.04 0 0 1 .05 0 .04.04 0 0 1 .02.04Z" fill="#637DAF"/><path d="M8 34.61v-.46l1.98-1.76c.88-.78 1.56-1.34 2.04-1.69a30.67 30.67 0 0 1 4.46-2.72 13.23 13.23 0 0 1 7.87-1.3c1.64.22 3.69.97 6.14 2.25 1.89.99 3.75 2.13 5.58 3.42 2.4 1.7 5.83 2.2 7.84-.34h.02a.04.04 0 0 1 .04 0v.03a6.27 6.27 0 0 1-.41 1.56 15.51 15.51 0 0 1-2.66 4.28c-1.18 1.33-2.91 2.69-4.65 3.02a5.86 5.86 0 0 1-3.65-.51c-.92-.43-1.72-.84-2.4-1.22l-6.93-3.9a24.09 24.09 0 0 0-4.67-2.02A12.64 12.64 0 0 0 8 34.61Z" fill="#07447F"/></svg>