<!-- by TradingView --><svg width="56" height="56" viewBox="0 0 56 56" xmlns="http://www.w3.org/2000/svg"><path fill="#F0F3FA" d="M0 0h56v56H0z"/><path d="M28.14 11h-.27a14.08 14.08 0 0 0-9.8 3.98A13.6 13.6 0 0 0 14 24.6v6.8a13.39 13.39 0 0 0 4.06 9.62 13.88 13.88 0 0 0 9.8 3.98h.28a14.08 14.08 0 0 0 9.8-3.98A13.6 13.6 0 0 0 42 31.39V24.6c0-3.6-1.46-7.06-4.06-9.62a14 14 0 0 0-9.8-3.98ZM25 36.1a7.58 7.58 0 0 1-4 1.13v-3.27c.85 0 1.32-.19 2.08-.55A5.48 5.48 0 0 0 25 31.88v4.21Zm0-6.32a7.58 7.58 0 0 1-4 1.14v-3.27c.85 0 1.32-.19 2.08-.55A5.47 5.47 0 0 0 25 25.57v4.2Zm0-6.32a7.57 7.57 0 0 1-4 1.14v-3.27c.85 0 1.32-.18 2.09-.54A5.47 5.47 0 0 0 25 19.26v4.2Zm10 1.14c-2.06 0-3.7-.69-5.3-1.97.14 1.38.8 2.65 1.85 3.58A4.89 4.89 0 0 0 35 27.65v3.27c-2.06 0-3.7-.7-5.3-1.97.14 1.37.8 2.65 1.85 3.57A4.89 4.89 0 0 0 35 33.96v3.27c-2.08 0-3.4-.7-5-2V40h-4V16h3.67c0 1.48.6 2.64 1.67 3.7A4.95 4.95 0 0 0 35 21.32v3.27Z" fill="#457F7C"/></svg>