<!-- by TradingView --><svg width="56" height="56" viewBox="0 0 56 56" xmlns="http://www.w3.org/2000/svg"><path fill="url(#a)" d="M0 0h56v56H0z"/><path d="M14.52 21c3.16 0 5.14 1.41 5.14 4a3 3 0 0 1-1.96 2.86 3.23 3.23 0 0 1 2.25 3.03c0 2.59-1.84 4.11-5.08 4.11H9V21h5.52Zm-2.83 2.37v3.4h2.76c1.35 0 2.39-.28 2.39-1.59 0-1.27-1.06-1.82-2.4-1.82l-2.75.01Zm0 5.63v3.59l3.02.01c1.5 0 2.42-.55 2.42-1.84 0-1.26-.93-1.76-2.42-1.76H11.7Zm22.2-4.97-2.32 1.41a4.06 4.06 0 0 0-3.5-1.86c-2.45 0-4.27 1.8-4.27 4.42.01 2.71 1.9 4.42 4.27 4.42 1.5 0 2.72-.67 3.53-1.85l2.21 1.58A6.73 6.73 0 0 1 28.1 35c-4.17 0-7.1-2.95-7.1-7-.02-4.05 2.92-7 7.09-7 2.49 0 4.7 1.14 5.8 3.03ZM42.91 35h-3.27l-5.08-14h2.87l3.87 11.02L45.2 21H48l-5.08 14Z" fill="#FEFCF6"/><defs><linearGradient id="a" x1="10.42" y1="9.71" x2="68.15" y2="76.02" gradientUnits="userSpaceOnUse"><stop stop-color="#1A1E21"/><stop offset="1" stop-color="#06060A"/></linearGradient></defs></svg>