<!-- by TradingView --><svg width="56" height="56" viewBox="0 0 56 56" xmlns="http://www.w3.org/2000/svg"><path fill="#F0F3FA" d="M0 0h56v56H0z"/><path d="M28 11a.17.17 0 0 1 .14.07 7433 7433 0 0 1 6.1 7.9c.3.4.69.67 1.16.83a3459.03 3459.03 0 0 1 9.56 3.35c.02.01.03.03.04.06a.16.16 0 0 1-.03.13l-5.86 8.39c-.18.25-.28.55-.28.86l-.26 10.28a.11.11 0 0 1-.05.09.12.12 0 0 1-.1.02l-9.84-2.9a2.01 2.01 0 0 0-1.17 0L17.51 43h-.03l-.28-10.39c-.01-.32-.11-.63-.3-.9l-5.88-8.42a.11.11 0 0 1-.02-.05v-.05l.03-.05a1758.05 1758.05 0 0 1 16.89-12.12A.17.17 0 0 1 28 11Zm-.01 4.29a1199.79 1199.79 0 0 0-4.56 5.88c-.21.27-.38.46-.52.56-.14.1-.37.2-.7.3a1412.5 1412.5 0 0 0-7.06 2.49l-.01.02v.02a1679.67 1679.67 0 0 0 4.24 6.11c.2.28.32.5.38.66.05.16.08.41.08.75a1303.61 1303.61 0 0 0 .2 7.41l.02.01.02.02a1248.38 1248.38 0 0 0 7.18-2.1c.33-.1.58-.16.75-.16.17 0 .42.05.75.15a1101.43 1101.43 0 0 0 7.18 2.1h.03l.01-.02a1357.6 1357.6 0 0 0 .2-7.4c0-.35.04-.6.09-.76.05-.16.18-.38.37-.66a1086.73 1086.73 0 0 0 4.24-6.11v-.02l-.01-.02a1376.78 1376.78 0 0 0-7.06-2.48 2.78 2.78 0 0 1-.7-.31c-.13-.1-.3-.29-.51-.56a1160.48 1160.48 0 0 0-4.57-5.88H28Z" fill="#0774AE"/><path d="m28.08 18.02.05.04 2.45 3.2a.15.15 0 0 1 0 .18l-.46.66-.01.04a.07.07 0 0 0 .03.06h.03l2.28.06a.2.2 0 0 1 .18.14l.66 1.97c0 .02.02.04.03.05a.11.11 0 0 0 .12.02l.05-.04.35-.5a.22.22 0 0 1 .26-.08l3.8 1.31.06.03a.14.14 0 0 1 .04.13l-.03.06-2.28 3.31a.24.24 0 0 1-.27.09l-.67-.23h-.04a.07.07 0 0 0-.04.01.07.07 0 0 0-.02.04v.04l.73 2.18a.27.27 0 0 1-.1.3l-1.7 1.18a.09.09 0 0 0-.03.04v.05c0 .01 0 .03.02.04a.1.1 0 0 0 .04.03l.57.2a.22.22 0 0 1 .15.21l-.1 4.04-.01.05-.04.05a.12.12 0 0 1-.1.01c-1.16-.35-2.32-.7-3.49-1.02-.3-.1-.48-.18-.52-.28-.05-.11-.04-.32.02-.61V35a.12.12 0 0 0-.18-.05l-1.47 1.1c-.17.12-.32.19-.44.19s-.27-.07-.44-.2a196.3 196.3 0 0 0-1.52-1.11.12.12 0 0 0-.12.07c0 .02-.01.04 0 .07.05.3.06.5.01.61-.04.1-.2.19-.52.28A174.34 174.34 0 0 0 21.87 37a.11.11 0 0 1-.05-.02.11.11 0 0 1-.04-.1l-.1-4.03a.22.22 0 0 1 .14-.21l.57-.2a.1.1 0 0 0 .07-.08.1.1 0 0 0 0-.05.1.1 0 0 0-.04-.04l-1.7-1.17a.28.28 0 0 1-.1-.3l.73-2.19v-.04a.07.07 0 0 0-.05-.05h-.04l-.68.23a.24.24 0 0 1-.27-.09l-2.28-3.3a.15.15 0 0 1 .01-.18.14.14 0 0 1 .06-.05l3.8-1.32a.22.22 0 0 1 .26.08l.35.51a.12.12 0 0 0 .11.05l.06-.02a.11.11 0 0 0 .03-.06l.66-1.97a.2.2 0 0 1 .18-.14l2.28-.05.03-.01.03-.03v-.03l-.01-.04-.46-.66a.15.15 0 0 1 0-.18 972.79 972.79 0 0 1 2.5-3.24A.25.25 0 0 1 28 18l.08.02ZM28 23c-.02 0-.04 0-.05.02a.1.1 0 0 0-.03.04l-1.1 3.9c-.01.04-.05.04-.08.04h-3.65c-.03 0-.08.07-.09.1a.1.1 0 0 0 .03.1L26 29.15a.1.1 0 0 1 .04.1l-1.15 3.64a.1.1 0 0 0 0 .06c0 .02.02.03.03.04a.08.08 0 0 0 .1 0l2.94-2.27a.09.09 0 0 1 .1 0L31 32.98a.09.09 0 0 0 .1 0 .1.1 0 0 0 .03-.04.1.1 0 0 0 0-.06l-1.15-3.63a.1.1 0 0 1 0-.06.1.1 0 0 1 .04-.05l2.95-1.93a.1.1 0 0 0 .03-.05.1.1 0 0 0 0-.05c-.01-.04-.09-.1-.12-.11h-3.64c-.04 0-.08 0-.09-.04l-1.06-3.9a.1.1 0 0 0-.03-.04A.09.09 0 0 0 28 23Z" fill="#399C46"/></svg>