<!-- by TradingView --><svg width="56" height="56" viewBox="0 0 56 56" xmlns="http://www.w3.org/2000/svg"><path fill="#F0F3FA" d="M0 0h56v56H0z"/><path d="M25.04 25.08c-.02.04-.04.05-.08.02a3.31 3.31 0 0 0-2.1-.58c-.35.03-.63.16-.84.4a.99.99 0 0 0-.2.88c.04.23.22.47.54.74.24.2.5.37.8.52.57.28 1 .5 1.3.67.6.34 1.04.8 1.3 1.38.26.58.3 1.2.15 1.85a2.45 2.45 0 0 1-1.23 1.53c-.7.41-1.58.57-2.65.49a4.44 4.44 0 0 1-2-.66c-.03-.02-.04-.04-.02-.07l.62-1.47c0-.03.03-.04.06-.02.91.6 1.82.8 2.73.58.35-.09.6-.26.73-.54.12-.26.12-.55-.01-.88-.1-.23-.24-.43-.42-.6-.15-.15-.36-.3-.62-.46a14 14 0 0 0-.73-.38c-.54-.28-.94-.5-1.19-.66a2.45 2.45 0 0 1-1.16-1.96c-.08-1 .3-1.78 1.13-2.35.46-.3.97-.47 1.55-.5 1.23-.05 2.17.14 2.8.58.02.02.03.04.02.06l-.48 1.43ZM32.04 25.08c-.02.04-.04.05-.08.02a3.31 3.31 0 0 0-2.1-.58c-.35.03-.63.16-.84.4a.99.99 0 0 0-.2.88c.04.23.22.47.54.74.24.2.5.37.8.52.57.28 1 .5 1.3.67.6.34 1.04.8 1.3 1.38.26.58.3 1.2.15 1.85a2.45 2.45 0 0 1-1.23 1.53c-.7.41-1.58.57-2.65.49a4.44 4.44 0 0 1-2-.66c-.03-.02-.04-.04-.02-.07l.62-1.47c0-.03.03-.04.06-.02.91.6 1.82.8 2.73.58.35-.09.6-.26.73-.54.12-.26.12-.55-.01-.88-.1-.23-.24-.43-.42-.6-.15-.15-.36-.3-.62-.46l-.72-.38c-.55-.28-.95-.5-1.2-.66a2.45 2.45 0 0 1-1.16-1.96c-.08-1 .3-1.78 1.13-2.35.46-.3.97-.47 1.55-.5 1.23-.05 2.17.14 2.8.58.02.02.03.04.02.07l-.48 1.42ZM37.75 32.99a3.46 3.46 0 0 1-3.13-2.04 5.88 5.88 0 0 1-.55-1.88 8.12 8.12 0 0 1-.01-2c.12-1.06.52-2 1.2-2.79a3.63 3.63 0 0 1 2.54-1.27h.81a3.8 3.8 0 0 1 2.54 1.03 4.28 4.28 0 0 1 1.23 2.46c.11.67.15 1.32.1 1.98-.05.7-.18 1.34-.41 1.92a3.8 3.8 0 0 1-2.84 2.48c-.44.1-.93.13-1.48.1Zm.42-1.57a2.28 2.28 0 0 0 2.2-1.53c.31-.77.4-1.72.27-2.84-.17-1.37-.76-2.17-1.79-2.4a2.96 2.96 0 0 0-1.04-.04c-.54.07-.98.33-1.33.8-.3.39-.5.87-.59 1.45-.07.46-.1.92-.08 1.4.02.57.1 1.07.24 1.51.36 1.13 1.07 1.68 2.12 1.65ZM48.7 28.54c-.04.01-.05.03-.03.07l2.82 4.34v.03c0 .02-.01.02-.03.02h-1.9a.07.07 0 0 1-.06-.03l-2.6-4a.04.04 0 0 0-.04-.02l-1.02-.05c-.02 0-.03.01-.03.03v4.02c0 .04-.02.05-.05.05h-1.7c-.04 0-.06-.01-.06-.05v-9.83c0-.02 0-.03.03-.03l1.07-.04c.95-.05 1.67-.06 2.17-.03.6.02 1.13.14 1.59.33.54.23.94.56 1.2.99.33.57.45 1.23.35 1.97a2.82 2.82 0 0 1-1.72 2.23Zm-2.9-3.85.01 2.64c0 .04.02.06.06.06h1.28c.4 0 .75-.12 1.04-.35.29-.23.43-.5.43-.83v-.42c0-.32-.14-.6-.43-.82a1.62 1.62 0 0 0-1.04-.34h-1.29c-.03 0-.05.02-.05.06ZM10.14 27.42l.2.08c.98.4 1.53 1.12 1.64 2.15a2.66 2.66 0 0 1-1.53 2.87 4.4 4.4 0 0 1-2.02.48H5.05c-.03 0-.05-.02-.05-.05v-9.82c0-.02.01-.03.03-.04 1.13-.07 2.22-.1 3.25-.09a3.7 3.7 0 0 1 2.1.6c.64.44.97 1.05 1 1.84.02.57-.17 1.05-.58 1.45-.22.22-.44.38-.65.47-.04.02-.04.04-.01.06Zm-3.29-2.9.02 2.3c0 .02.02.04.05.04l1.27-.01c.37 0 .68-.11.94-.33a.95.95 0 0 0 .39-.77v-.2c0-.3-.14-.56-.4-.77-.27-.21-.58-.31-.95-.31l-1.27.01c-.03 0-.05.02-.05.05Zm.01 3.76v3.16c0 .04.02.06.06.06h1.47c.46 0 .86-.14 1.19-.42.33-.28.5-.62.5-1.01v-.4c0-.4-.17-.74-.5-1.02a1.78 1.78 0 0 0-1.19-.42H6.92c-.04 0-.06.02-.06.05ZM18.97 24.62h-4.25c-.02 0-.03.01-.03.03v2.25c0 .02.01.03.03.03h3.01c.02 0 .03.01.03.03v1.47c0 .02 0 .03-.03.03h-3.01c-.02 0-.03.01-.03.03v2.87c0 .02 0 .04.03.04h4.25c.02 0 .03 0 .03.03v1.54c0 .02-.01.03-.03.03h-5.94c-.02 0-.03-.01-.03-.03v-9.94c0-.02.01-.03.03-.03h5.94c.02 0 .03.01.03.03v1.56c0 .02-.01.03-.03.03Z" fill="#E7B936"/></svg>