<!-- by TradingView --><svg width="56" height="56" viewBox="0 0 56 56" xmlns="http://www.w3.org/2000/svg"><path fill="#F0F3FA" d="M0 0h56v56H0z"/><path d="m17 22.09 5.76-2.38 7.66 18.91L24.66 41 17 22.09Z" fill="#051443"/><path d="m24.95 23.05-1.47-3.64 4.32-1.78c3.96-1.64 6.8.16 7.83 2.7.82 2.05-.6 4.08-1.41 4.84 2.88-1.2 4.68 1.18 5.22 2.5 2 4.96-1.82 7.98-3.98 8.87l-4.32 1.78-1.77-4.36 2.16-.9c.96-.39 2.73-1.55 2.15-3-.6-1.46-2.66-1.03-3.62-.63l-2.16.9-1.47-3.65 2.16-.89c.72-.3 2.01-1.25 1.42-2.7-.59-1.46-2.18-1.23-2.9-.93l-2.16.89Z" fill="#035DAA"/><path d="M42 28a14 14 0 1 0-14 14v3a17 17 0 1 1 0-34 17 17 0 0 1 0 34v-3a14 14 0 0 0 14-14Z" fill="#051443"/></svg>