<!-- by TradingView --><svg width="56" height="56" viewBox="0 0 56 56" xmlns="http://www.w3.org/2000/svg"><path fill="#F0F3FA" d="M0 0h56v56H0z"/><path d="M4 32v-6h1.71c.3 0 .57.02.82.07.25.04.47.12.66.23.2.12.34.28.44.48.1.2.16.45.16.78 0 .24-.04.44-.12.62a.96.96 0 0 1-.33.4c-.14.1-.32.16-.53.2.26.03.48.11.66.23.17.13.3.3.4.5.09.2.13.44.13.73 0 .3-.04.56-.13.78-.09.22-.21.4-.38.55-.17.14-.37.25-.62.33-.24.07-.53.1-.85.1H4Zm1.38-.86h.38c.35 0 .58-.08.71-.23.14-.15.2-.38.2-.69 0-.23-.03-.42-.09-.56a.58.58 0 0 0-.3-.31 1.2 1.2 0 0 0-.54-.1h-.36v1.9Zm0-2.72h.34c.24 0 .42-.03.54-.09a.5.5 0 0 0 .25-.28c.05-.13.08-.28.08-.46a.78.78 0 0 0-.11-.44.56.56 0 0 0-.32-.25 1.62 1.62 0 0 0-.53-.07h-.25v1.6ZM8.5 32l1.27-6h1.47l1.26 6h-1.23l-.24-1.32H10L9.75 32H8.5Zm1.62-2h.78l-.4-2.49-.38 2.49ZM13 32v-6h1.73c.45 0 .84.05 1.16.14.32.09.57.25.74.48.17.23.26.56.26.97 0 .24-.02.46-.07.65-.05.2-.13.36-.25.5a1.2 1.2 0 0 1-.5.33L17 32h-1.4l-.76-2.72h-.48V32H13Zm1.36-3.44h.4c.22 0 .39-.04.52-.1a.53.53 0 0 0 .26-.29c.06-.13.08-.3.08-.49 0-.28-.06-.48-.17-.63-.11-.15-.32-.22-.63-.22h-.46v1.73ZM18 32v-6h1.73c.45 0 .84.05 1.16.14.32.09.57.25.74.48.17.23.26.56.26.97 0 .24-.02.46-.07.65-.05.2-.13.36-.25.5a1.2 1.2 0 0 1-.5.33L22 32h-1.4l-.76-2.72h-.48V32H18Zm1.36-3.44h.4c.22 0 .39-.04.52-.1a.53.53 0 0 0 .26-.29c.06-.13.08-.3.08-.49 0-.28-.06-.48-.17-.63-.11-.15-.32-.22-.63-.22h-.46v1.73ZM24.5 32c-1.26 0-2-.66-2-1.92V27.9c0-1.27.75-1.9 2-1.9 1.23 0 2 .63 2 1.9v2.18c0 1.27-.76 1.92-2 1.92Zm0-1c.47 0 .5-.58.5-1v-2.1c0-.42-.04-.9-.5-.9-.47 0-.5.5-.5.9V30c0 .42.01 1 .5 1ZM27 32v-6h1.07l1.67 3.13V26H31v6h-1.02l-1.67-3.32V32H27ZM35.1 32c-.46 0-.84-.07-1.14-.2-.3-.13-.54-.33-.7-.6a2.36 2.36 0 0 1-.26-1.02l1.3-.17c0 .24.04.44.09.6.05.16.13.28.24.36.1.08.24.12.4.12.2 0 .32-.05.39-.14.07-.1.11-.21.11-.34a.87.87 0 0 0-.23-.61 3.12 3.12 0 0 0-.58-.5l-.77-.53c-.27-.19-.5-.4-.68-.62a1.4 1.4 0 0 1-.25-.86c0-.48.17-.84.53-1.1.36-.26.85-.39 1.47-.39.37 0 .67.05.91.14.24.1.42.23.55.4.13.15.22.33.27.52.06.19.1.38.1.56l-1.28.16a3.12 3.12 0 0 0-.07-.47.54.54 0 0 0-.16-.32c-.08-.08-.2-.12-.37-.12-.17 0-.3.06-.39.16a.51.51 0 0 0-.13.34c0 .2.06.38.18.51s.28.27.49.42l.75.52c.3.2.57.45.8.73.22.26.33.6.33 1 0 .27-.08.52-.24.74-.16.22-.38.4-.66.52-.28.13-.62.19-1 .19ZM32.6 26v.4l-.01.37c-.02.4-.08.7-.2.91-.11.21-.33.32-.65.32l-.1-.34c.18-.01.3-.08.35-.2.06-.12.08-.28.08-.49h-.48V26h1Z" fill="#04344F"/><path d="M40 32a.32.32 0 0 1-.13-.03c-.05-.03-.08-.07-.08-.12 0-.05.03-.08.07-.1a.4.4 0 0 1 .14-.05c.34-.06 1-.23 1-.7v-.87c.01-.13-.44-.13-.5-.13-.84 0-1.66-.02-2.5 0 0 0 0-.05.03-.08 1.11-1.48 2.04-3.02 3.04-4.58.05-.08.1-.16.18-.23.07-.07.13-.11.2-.11h.16c.04 0 .06.03.04.08l-.02.1-2.68 4.15a.2.2 0 0 0-.02.09c0 .02.02.03.06.03l1.7.02c.06 0 .31 0 .31-.15v-1.54l.01-.2c.01-.03.05-.07.1-.1.2-.1.47-.14.68-.14.24 0 .21.51.21.66l-.01 1.4.01.1c.33.03.55 0 .89-.03.07 0 .11.03.11.08a.8.8 0 0 1-.15.42c-.03.06-.1.03-.12.03H42s-.03.01 0 0v1.5c.1.08.25.12.52.2.05 0 .1.02.14.05.05.03.07.07.07.12 0 .03-.02.06-.05.09a.19.19 0 0 1-.13.04H40ZM45.44 32c-.33 0-.62-.1-.87-.3-.24-.2-.44-.48-.6-.8a6.25 6.25 0 0 1 0-4.73c.17-.35.38-.63.64-.84.26-.22.57-.33.93-.33.33 0 .62.1.86.3.25.2.45.48.6.82.17.33.29.7.37 1.1a6.03 6.03 0 0 1-.36 3.6c-.17.35-.38.64-.64.85a1.4 1.4 0 0 1-.93.33Zm.15-.36c.23 0 .41-.14.55-.42.14-.3.24-.67.3-1.12a10.37 10.37 0 0 0 .03-2.67 6.03 6.03 0 0 0-.22-1.04c-.1-.31-.22-.56-.37-.74-.15-.19-.32-.28-.5-.28-.23 0-.42.14-.55.42-.13.28-.23.64-.3 1.1a11.13 11.13 0 0 0-.01 2.66c.05.4.12.75.2 1.06.1.31.23.56.37.75.14.19.3.28.5.28ZM49.95 32c-.33 0-.62-.1-.86-.3-.24-.2-.45-.48-.61-.8a6.25 6.25 0 0 1 0-4.73c.17-.35.38-.63.64-.84.26-.22.57-.33.93-.33.33 0 .62.1.86.3.25.2.45.48.61.82a6.03 6.03 0 0 1 0 4.7c-.16.35-.38.64-.63.85a1.4 1.4 0 0 1-.94.33Zm.16-.36c.22 0 .4-.14.54-.42.14-.3.24-.67.3-1.12a10.35 10.35 0 0 0 .03-2.67 6.02 6.02 0 0 0-.22-1.04c-.1-.31-.22-.56-.37-.74-.15-.19-.31-.28-.5-.28-.23 0-.41.14-.55.42-.13.28-.23.64-.3 1.1a11.13 11.13 0 0 0-.01 2.66c.05.4.12.75.21 1.06.1.31.22.56.36.75.14.19.31.28.5.28Z" fill="#0A60AB"/></svg>