<!-- by TradingView --><svg xmlns="http://www.w3.org/2000/svg" width="56" height="56" viewBox="0 0 56 56"><path fill="url(#acj5lygiq)" d="M0 0h56v56H0z"/><path d="M38.05 17c-1.67 0-3.59.5-5.05 1.4.85.81 1.55 2.44 1.6 3.6.78-.5 2.06-1 3.45-1 1.4 0 3.6.53 4.59 3L46 21.91c-1.63-3.2-4.17-4.91-7.95-4.91Zm-2.64 9-.82 4h5.9s-.1.94-.32 1.88A6.74 6.74 0 0 1 34.43 35C31.4 35 29 33.07 29 29.72c0-1.66.42-2.69.42-2.69S31 25.06 31 22.34c0-3.09-2.27-5.34-5.56-5.34H15.5l-.43 2.12L14.7 21h9.96c1.04 0 2.34.56 2.34 2.03 0 2-1.76 2.97-3.48 2.97h-9.85l-.43 2.04-.91 4.38c-.44 2.23-.89 4.46-1.33 6.58h9.94c2.45 0 5.17-.83 6.47-3 1.1 1.67 3.72 3 6.48 3 2.75 0 6.6-.88 9.93-5.63.54-2.52 1.48-7.37 1.48-7.37H35.4ZM25 32.19c0 1.6-1.56 2.81-3.38 2.81h-6.1l.5-2.5.52-2.5h6.15c1.11 0 2.31.6 2.31 2.19Z" fill="#fff"/><defs><linearGradient id="acj5lygiq" x1="10.42" y1="9.71" x2="68.15" y2="76.02" gradientUnits="userSpaceOnUse"><stop stop-color="#1A1E21"/><stop offset="1" stop-color="#06060A"/></linearGradient></defs></svg>