<!-- by TradingView --><svg width="56" height="56" viewBox="0 0 56 56" xmlns="http://www.w3.org/2000/svg"><path fill="#F0F3FA" d="M0 0h56v56H0z"/><path d="M7.4 22c.2 0 .27.09.23.27l-.5 3.11c0 .03 0 .05.03.07h.08a2.72 2.72 0 0 1 2.33-.33c.78.2 1.22.75 1.31 1.64.05.51 0 .84-.22 1.92l-.08.4a4.03 4.03 0 0 1-.67 1.75c-.47.6-1.05.96-1.75 1.11-.73.15-1.4 0-2-.43-.12-.08-.2-.06-.26.06l-.02.12c-.02.12-.08.18-.2.18H4.28c-.23 0-.32-.11-.28-.34l1.65-9.3c.03-.15.12-.23.28-.23H7.4Zm19.94 3.07c1.4-.22 2.39.07 2.97.9.55.76.61 1.76.2 2.99-.04.1-.12.16-.23.16h-4c-.18 0-.26.08-.22.25.14.62.52.97 1.14 1.02.56.05 1.08-.12 1.59-.5.13-.09.25-.08.37.03l.7.66c.16.15.16.29 0 .42a4.46 4.46 0 0 1-3.5.95c-1.8-.27-2.48-1.48-2.05-3.63a4.4 4.4 0 0 1 1-2.08 3.33 3.33 0 0 1 2.03-1.17ZM37.77 25c.16 0 .23.08.2.23l-1.22 6.61c-.02.1-.08.16-.2.16h-1.53c-.16 0-.22-.08-.2-.23l1.22-6.61c.02-.1.09-.16.2-.16h1.53Zm4.64.03c1.49-.18 2.34.4 2.56 1.76.02.09.01.17 0 .26l-.88 4.67c-.03.19-.15.28-.34.28h-1.38c-.2 0-.28-.1-.24-.28l.76-4.1a.72.72 0 0 0-.18-.64.8.8 0 0 0-.63-.28h-.13c-.3 0-.56.1-.79.27-.22.18-.36.4-.41.68l-.76 4.05c-.03.17-.14.25-.32.25H38.2c-.15 0-.2-.07-.18-.2l1.2-6.48c.03-.13.11-.19.25-.19l1.36-.01c.13 0 .21.05.26.17v.05c.02.13.1.17.23.12l.26-.12c.33-.14.6-.23.83-.26Zm6.14.04c1.4-.22 2.4.07 2.98.9.55.76.62 1.76.2 2.99-.04.1-.11.15-.23.15h-4c-.19 0-.26.1-.23.26.14.63.53.97 1.15 1.02.55.05 1.08-.12 1.59-.5.13-.09.25-.08.37.03l.71.66c.16.15.15.29-.01.42a4.48 4.48 0 0 1-3.51.95c-1.8-.27-2.48-1.48-2.05-3.63.16-.8.49-1.49 1-2.08a3.34 3.34 0 0 1 2.03-1.17Zm-34.59-.03a4.99 4.99 0 0 1 2.49.25c.8.35 1.14 1 1 1.96-.23 1.5-.5 2.98-.82 4.47-.02.1-.09.16-.2.16l-1.3.01a.45.45 0 0 1-.37-.18c-.08-.1-.17-.11-.28-.06a3.3 3.3 0 0 1-2.21.26c-.84-.2-1.29-.7-1.33-1.5-.08-1.34.62-2.19 2.1-2.56l.09-.01 2.15-.01c.12 0 .19-.06.2-.18.01-.33 0-.56-.03-.67a.35.35 0 0 0-.25-.24 2.12 2.12 0 0 0-2.04.28c-.1.08-.19.07-.28-.01l-.86-.8c-.11-.11-.11-.22 0-.32a3.33 3.33 0 0 1 1.94-.85Zm6.44.13c.55-.16 1.16-.2 1.84-.14.76.08 1.34.29 1.75.63.14.12.14.24 0 .36l-.9.85c-.15.14-.31.15-.48.03a2.3 2.3 0 0 0-1.33-.36c-.63 0-.98.22-1.07.67-.04.2.05.33.29.35l.43.03c.64.06 1.1.12 1.4.2.46.13.84.35 1.14.66.07.08.12.17.14.27.25 1.4-.28 2.37-1.61 2.92-.73.3-1.53.41-2.4.34a3.72 3.72 0 0 1-2.2-.84c-.13-.1-.13-.22-.01-.33l.99-.92c.14-.13.28-.14.44-.02.72.53 1.54.65 2.46.35.28-.1.44-.25.5-.46a.35.35 0 0 0-.1-.32.46.46 0 0 0-.33-.16h-.13a6.92 6.92 0 0 1-1.99-.3c-.68-.28-1-.77-.94-1.48.1-1.18.8-1.95 2.11-2.33ZM34.27 22c.19 0 .27.1.24.28l-1.33 7.57c-.02.11 0 .21.08.3.07.09.17.14.28.14h.7c.13 0 .18.06.15.2l-.25 1.29a.24.24 0 0 1-.2.2c-.09.02-.34.03-.75.02-.96-.02-1.57-.33-1.82-.91-.2-.46-.2-1.19 0-2.19.37-1.84.75-4.04 1.15-6.61.03-.2.14-.29.33-.29h1.42Zm-19.63 7.12c-.51-.02-.88 0-1.1.05-.38.09-.62.3-.71.61a.45.45 0 0 0 .03.36.4.4 0 0 0 .27.2c1.14.27 1.81-.08 2.01-1.06.02-.1-.02-.15-.13-.15l-.37-.01Zm-6.57-2.35a.94.94 0 0 0-.74.11.94.94 0 0 0-.44.6l-.46 1.47c-.06.26-.03.5.11.74.14.22.34.37.6.44l.1.02c.26.07.5.03.74-.1a.94.94 0 0 0 .44-.6l.46-1.47a.93.93 0 0 0-.11-.74.94.94 0 0 0-.6-.44l-.1-.03Zm40.77-.2c-.32.01-.6.12-.81.34a1 1 0 0 0-.33.77v.04c0 .08.05.11.13.11l2.15-.05c.09 0 .13-.04.13-.12v-.03a1 1 0 0 0-.36-.76c-.24-.2-.51-.3-.84-.3h-.07Zm-21.17 0c-.32 0-.6.1-.83.31a1 1 0 0 0-.34.77v.08c0 .05.03.07.09.07h2.25c.05 0 .08-.03.08-.08v-.08c0-.3-.12-.55-.35-.76-.23-.21-.5-.32-.83-.32h-.07ZM38.29 22c.14.02.2.1.17.22l-.19 1.15c-.02.16-.11.24-.26.25H36.44c-.13-.03-.18-.1-.16-.23l.18-1.15c.03-.15.12-.24.27-.25h1.56Z"/></svg>