<!-- by TradingView --><svg width="56" height="56" viewBox="0 0 56 56" xmlns="http://www.w3.org/2000/svg"><path fill="#0C2067" d="M0 0h56v56H0z"/><path d="M28.5 16c.28 0 .5.18.5.4v10.2c0 .22-.22.4-.5.4s-.5-.18-.5-.4V16.4c0-.22.22-.4.5-.4ZM28.5 32c.28 0 .5.2.5.44v11.12c0 .24-.22.44-.5.44s-.5-.2-.5-.44V32.44c0-.24.22-.44.5-.44ZM23.97 28.6l-6.2 15.12a.45.45 0 0 1-.41.28.45.45 0 0 1-.42-.27l-4.88-11.05a.84.84 0 0 1-.06-.25c.01-.3.26-.43.51-.43.24 0 .42.13.5.3l4.06 9.52a.3.3 0 0 0 .29.18.3.3 0 0 0 .26-.18l5.36-13.48a.52.52 0 0 1 .5-.34c.32 0 .63.26.49.6Z" fill="#F6FDFF"/><path fill-rule="evenodd" d="M38.5 27a5.5 5.5 0 1 0 0-11 5.5 5.5 0 0 0 0 11Zm0-1a4.5 4.5 0 1 0 0-9 4.5 4.5 0 0 0 0 9Z" fill="#F6FDFF"/><path d="M43.3 39c.4 0 .72-.44.7-.8a5.5 5.5 0 1 0-3.76 5.53c.27-.1.4-.39.3-.64-.11-.3-.47-.36-.79-.27A4.49 4.49 0 0 1 34 39.28c-.02-.15.1-.28.27-.28h9.03Zm-4.8-5c1.97 0 3.83 1.5 4.48 3.49.02.04.02.09.02.13 0 .2-.2.38-.44.38h-8.29c-.15 0-.27-.1-.27-.24v-.07c.5-2.19 2.47-3.69 4.5-3.69ZM12 12.42c0-.23.27-.42.5-.42.23 0 .5.19.5.42v8.62c.1 2.56 1.57 4.96 4.43 4.96 2.92 0 4.57-2.08 4.57-4.82 0-2.82-1.9-4.16-4.71-4.18-.28 0-.56.01-.85.04-.23.03-.4-.2-.43-.43L16 16.5c0-.18.1-.42.3-.45.34-.03.66-.05.99-.05 3.27.02 5.71 1.9 5.71 5.18 0 3.2-2.19 5.82-5.57 5.82-3.32 0-5.33-2.93-5.43-5.94v-8.64Z" fill="#F6FDFF"/></svg>