<!-- by TradingView --><svg width="56" height="56" viewBox="0 0 56 56" xmlns="http://www.w3.org/2000/svg"><path fill="#F0F3FA" d="M0 0h56v56H0z"/><path d="M28 17c.5 0 1.02.1 1.38.45l2.1 2c.4.4.52.99.52 1.55a3 3 0 0 0 3 3c.64 0 1.32.1 1.79.55l1.6 1.53c.5.48.61 1.22.61 1.92 0 .76-.09 1.59-.62 2.14l-1.16 1.2c-.56.57-1.42.66-2.22.66a3 3 0 0 0-3 3c0 .74-.12 1.53-.68 2.02l-1.7 1.5c-.43.39-1.04.48-1.62.48a3 3 0 1 0 3 3c0-.93.09-1.97.78-2.59l.93-.82c.6-.53 1.48-.59 2.29-.59a3 3 0 0 0 3-3c0-.75.09-1.56.61-2.1l1.2-1.24c.55-.56 1.4-.66 2.19-.66a3 3 0 1 0 0-6c-.85 0-1.78-.07-2.4-.65l-.88-.85c-.64-.62-.72-1.6-.72-2.5a3 3 0 0 0-3-3c-.97 0-2.05-.03-2.75-.7l-.48-.46C31.04 16.14 31 15 31 14a3 3 0 1 0-3 3Z" fill="url(#au3m0gnxd)"/><path d="M17 28a3 3 0 1 1-6 0 3 3 0 0 1 6 0Z" fill="url(#bu3m0gnxd)"/><path d="M24 20c0 .92.02 1.93.63 2.63l1.51 1.73c.45.5 1.18.64 1.86.64a3 3 0 1 1 0 6c-.8 0-1.67.09-2.24.65l-1.1 1.11c-.57.57-.66 1.44-.66 2.24a3 3 0 1 1-3-3c.8 0 1.67-.09 2.24-.65l1.1-1.11c.57-.57.66-1.44.66-2.24 0-.92-.02-1.93-.63-2.63l-1.51-1.73c-.45-.5-1.18-.64-1.86-.64a3 3 0 1 1 3-3Z" fill="url(#cu3m0gnxd)"/><defs><linearGradient id="au3m0gnxd" x1="19.5" y1="18" x2="36.5" y2="37" gradientUnits="userSpaceOnUse"><stop stop-color="#CF0E66"/><stop offset="1" stop-color="#550549"/></linearGradient><linearGradient id="bu3m0gnxd" x1="19.5" y1="18" x2="36.5" y2="37" gradientUnits="userSpaceOnUse"><stop stop-color="#CF0E66"/><stop offset="1" stop-color="#550549"/></linearGradient><linearGradient id="cu3m0gnxd" x1="19.5" y1="18" x2="36.5" y2="37" gradientUnits="userSpaceOnUse"><stop stop-color="#CF0E66"/><stop offset="1" stop-color="#550549"/></linearGradient></defs></svg>