<!-- by TradingView --><svg width="56" height="56" viewBox="0 0 56 56" xmlns="http://www.w3.org/2000/svg"><path fill="#F0F3FA" d="M0 0h56v56H0z"/><path d="M29.97 10.03c.02.46.23.83.61 1.13l.91.71c.9.71 1.55 1.58 1.94 2.62a.12.12 0 0 1-.07.15c-.34.16-.96.41-1.24.71a3.18 3.18 0 0 0-.55.76h-.02a.04.04 0 0 1-.03 0 14.78 14.78 0 0 1-2.12-3.75h-.02l-.02.02a10.1 10.1 0 0 0-2.57 4.05.06.06 0 0 1-.05 0l-.88-.5a8.72 8.72 0 0 0-1.8-.81.14.14 0 0 1-.03-.16c.18-.42.44-.8.77-1.12.9-.87 1.83-1.6 2.8-2.17A11.97 11.97 0 0 0 29.96 10a.03.03 0 0 1 .02.03Z" fill="#EC72A8"/><path d="M29.16 13.04c.04.13 0 .58-.1 1.35a9.86 9.86 0 0 1-.99 3.17c-.25.5-.52.9-.82 1.22a3.8 3.8 0 0 0-1.22 2.45.12.12 0 0 0 .07.07h.05c1.74-.28 3.44-.16 5.08.35.4.13.75.3 1.04.52.02 0 .03.02.03.04v.05l-.61 1.04a.05.05 0 0 1-.04.02h-.02l-.02-.01a5.31 5.31 0 0 0-5.3-1 3.92 3.92 0 0 0-1.22.53.05.05 0 0 1-.04-.03 6.68 6.68 0 0 1-.29-1.7c-.1-1.4.74-2.28 1.63-3.18.43-.45.76-.92.97-1.42.32-.75.73-1.65 1.23-2.7a3.98 3.98 0 0 1 .54-.8l.02.01.01.02Z" fill="#EC72A8"/><path d="M29.58 13.62c.22.51.35.83.42.94.61 1.07 1.16 2.05 1.63 2.93l.43.75c.6 1 1.03 2.54.37 3.58a.09.09 0 0 1-.12.03 8.75 8.75 0 0 0-5.8-.92.05.05 0 0 1-.02-.05c.02-.66.73-1.52 1.36-2.24a7.1 7.1 0 0 0 1.1-2.2 22.6 22.6 0 0 0 .58-2.84.03.03 0 0 1 .05.02Z" fill="#EC72A8"/><path d="M39.55 13.72a2.9 2.9 0 0 0-.56 1.31 9.9 9.9 0 0 0-.15 2.72c.07.71.1 1.13.1 1.24 0 .9.02 1.86-.82 2.42a.14.14 0 0 1-.12.01 7.55 7.55 0 0 0-4.83-.15.04.04 0 0 1-.01-.04 5.84 5.84 0 0 0-1.25-4.52v-.06c.22-1 1.37-1.66 2.31-1.8.58-.1 1.12-.15 1.63-.17a7.7 7.7 0 0 0 1.37-.15 13.1 13.1 0 0 0 2.34-.82ZM24.4 21.7a3.3 3.3 0 0 0-1.88-1.51l-2.13-.29a.12.12 0 0 1-.1-.08c-.88-2.2-.22-4.35 1.42-6a.07.07 0 0 1 .05-.02.07.07 0 0 1 .05.03c.62.8 1.09 1.31 2.07 1.68a7.8 7.8 0 0 1 2.48 1.52.05.05 0 0 1-.02.05 5.3 5.3 0 0 0-1.8 2.33 3.93 3.93 0 0 0-.12 2.3h-.01l-.01-.01Z" fill="#EC72A8"/><path d="M18.74 20.38c1.41-.07 2.75-.1 4.04.42.94.38 1.64 1.45 1.94 2.38a.05.05 0 0 1-.01.05 5.9 5.9 0 0 0-1.73 2.45 4.13 4.13 0 0 0-.14 2.19.06.06 0 0 1-.04.02c-2.4.2-4.42-.95-5.27-3.21-.6-1.59-.97-2.56-1.14-2.9a13.64 13.64 0 0 1-.75-.92c-1.14-1.48-1.43-3.39-1.25-5.2a.06.06 0 0 1 .07-.06 78 78 0 0 0 4.4.37c.26.02.52.12.79.32a.11.11 0 0 1 .04.11c-.27 1.16-.47 2.13.05 3.13a.15.15 0 0 1-.05.2l-.96.61v.03h.01Zm-3.26-3.53c0 1.23.2 2.8 1.28 3.55a.18.18 0 0 0 .2.01l1.91-1.1c.02 0 .03-.02.03-.03v-.05a5.35 5.35 0 0 1-.24-2.38.08.08 0 0 0-.05-.05h-3.07a.06.06 0 0 0-.06.05Zm8.53 6.08c-1.58-1.7-4.56-1.88-6.68-1.33a.05.05 0 0 0-.03.02v.04c.2 1.3.61 2.8 1.52 3.77a6.6 6.6 0 0 0 2.9 1.92l.03-.01.01-.02v-.03a3.1 3.1 0 0 1 .02-1.6 3.73 3.73 0 0 1 2.24-2.72.04.04 0 0 0-.01-.04Z" fill="#EC72A8"/><path d="M15.95 17.15h2.24a.07.07 0 0 1 .07.07c0 .5-.07 1.22.2 1.83v.03l-.03.03-1.45.83a.13.13 0 0 1-.14 0c-.8-.51-1-1.86-.97-2.72a.07.07 0 0 1 .08-.07ZM38.95 21.1a5.06 5.06 0 0 0 .45-2.28.06.06 0 0 1 .04-.03h.03a2.9 2.9 0 0 1 2.02 2.33.05.05 0 0 1-.03.03h-.02a5.49 5.49 0 0 0-2.48 0 .04.04 0 0 1 0-.04ZM10 21.38v-.04c.8-.2 1.57-.51 2.3-.91.56-.32 1.16-.79 1.74-1.23a.06.06 0 0 1 .1.03c.4 1 .95 2.13 1.86 2.68.05.04.1.09.11.14l.7 2.31a.09.09 0 0 1-.01.07.1.1 0 0 1-.07.05 5.84 5.84 0 0 0-3.38 1.56.1.1 0 0 1-.06 0c-.43-.13-.8-.37-1.14-.72a4.94 4.94 0 0 1-1.22-1.92 7.57 7.57 0 0 0-.93-2.02ZM37.68 21.85a9.52 9.52 0 0 1 4.64.07 31.77 31.77 0 0 1 1.55.5.07.07 0 0 1 .02.05l-.01.03c-.73 1.06-1.05 1.67-1.72 2.36l-.91 1a3.6 3.6 0 0 1-1.64.95h-.02a.04.04 0 0 1-.01-.05 4.26 4.26 0 0 0-.02-3.07 2.58 2.58 0 0 0-1.9-1.81v-.01l.01-.01.01-.01Z" fill="#EC72A8"/><path d="M32.14 23.6c.4-.76.94-1.33 1.64-1.7.4-.21.9-.3 1.54-.3.8.03 1.54.25 2.24.68 1.28.77 1.78 2.2 1.76 3.61-.01 1.53-1.18 2.67-2.63 2.98a7.74 7.74 0 0 1-3 .03.06.06 0 0 1 0-.05c.48-2.02.23-3.87-1.53-5.16a.07.07 0 0 1-.02-.09Zm2.43 4.73c.85.1 1.68-.05 2.5-.45.65-.32 1.1-.79 1.24-1.44.24-1.16-.14-2.77-1.23-3.46a2.93 2.93 0 0 0-3.43-.02 2.76 2.76 0 0 0-.7.66l-.01.03a.07.07 0 0 0 .03.04c1.43 1.08 1.95 2.6 1.54 4.55a.07.07 0 0 0 .03.08h.03ZM17.7 22.03a.1.1 0 0 1 .07-.1 6.68 6.68 0 0 1 4.87.54 1.6 1.6 0 0 1 .55.48.05.05 0 0 1-.03.05c-.52.22-.93.57-1.22 1.07-.47.8-.78 1.64-.55 2.57a.04.04 0 0 1-.06.05 5.82 5.82 0 0 1-2.5-1.74c-.62-.72-.95-1.97-1.13-2.92Z" fill="#EC72A8"/><path d="M26.49 30.5c-.32.4-.75.53-1.29.37-.83-.25-1.02-1.37-.4-1.93v-.02a.02.02 0 0 0-.02-.02c-1.56.15-1.91-1.93-.41-2.28a.02.02 0 0 0 .01-.02.02.02 0 0 0 0-.02 1.17 1.17 0 0 1 1.05-2.08h.03a.02.02 0 0 0 0-.04c-.73-1.53 1.42-2.5 2.11-1a.02.02 0 0 0 .03.02h.01v-.02l.07-.22c.39-1.31 2.51-.88 2.24.6a.03.03 0 0 0 .02.02.03.03 0 0 0 .03 0c.29-.28.53-.42.97-.4.98.08 1.49 1.31.7 2.02a.02.02 0 0 0 0 .03h.02c1.61-.43 2.18 1.86.56 2.25a.03.03 0 0 0-.02.02v.02h.02c1.56.75.19 3.02-1.25 1.94a.02.02 0 0 0-.01 0v.02c.1.1.16.23.19.38.25 1.38-1.59 1.97-2.23.7a.02.02 0 0 0-.04 0 1.18 1.18 0 0 1-2.2.43c-.12-.2-.16-.44-.1-.74l-.01-.03-.02-.02h-.03c-.02 0-.02.01-.03.02Zm1.14-6.5c-.13.85-.93 1.25-1.71.88a.04.04 0 0 0-.05.01.04.04 0 0 0 0 .04c.26.55.19 1.02-.22 1.43a1 1 0 0 1-.59.28l-.01.01-.01.02v.02h.01a1.15 1.15 0 0 1 .34 1.9v.02h.01l.02.01c.9-.01 1.35.43 1.35 1.32a.02.02 0 0 0 .02.03h.02c.6-.55 1.2-.55 1.81 0l.08.13.07.13a.04.04 0 0 0 .04 0h.02l.01-.02c.12-.6.5-.92 1.12-.99.15-.02.37.04.67.18h.05l.01-.03v-.02a.4.4 0 0 0-.04-.05.26.26 0 0 1-.05-.12c-.16-.73.2-1.28.92-1.46h.02v-.02a.03.03 0 0 0 0-.04c-.65-.36-.84-.89-.57-1.6l.1-.12a5.57 5.57 0 0 0 .1-.15v-.03a.04.04 0 0 0-.04-.02c-.88.17-1.53-.45-1.43-1.33v-.02l-.02-.01h-.03c-.61.64-1.66.48-1.95-.38a.04.04 0 0 0-.04-.02h-.02l-.01.03Z" fill="#F4A256"/><path d="M34.95 27.87a4.4 4.4 0 0 0-1.26-4.17.08.08 0 0 1 0-.1c.46-.56.89-.63 1.55-.7.72-.08 1.3.09 1.88.54.88.7 1.23 2.52.63 3.5-.16.24-.4.45-.73.63a3.25 3.25 0 0 1-2.03.37c-.01 0-.02 0-.03-.02a.08.08 0 0 1-.01-.05Z" fill="#EC72A8"/><path d="M27.7 24c.29.86 1.34 1.02 1.95.38h.01a.03.03 0 0 1 .04 0v.03c-.1.88.55 1.5 1.43 1.33a.04.04 0 0 1 .04.02v.05a5.52 5.52 0 0 1-.2.25c-.27.71-.08 1.24.56 1.6a.03.03 0 0 1 .02.04v.01l-.03.01c-.72.18-1.08.73-.92 1.46.01.06.03.1.05.12a.4.4 0 0 1 .05.05v.02l-.02.02a.05.05 0 0 1-.05 0c-.3-.13-.52-.19-.67-.17-.62.07-1 .4-1.12.99a.04.04 0 0 1-.03.03.04.04 0 0 1-.04-.02.74.74 0 0 1-.07-.12.65.65 0 0 0-.08-.13c-.6-.55-1.2-.55-1.8 0h-.02a.03.03 0 0 1-.02-.01v-.02c-.01-.89-.47-1.33-1.36-1.32h-.02v-.03c.6-.61.41-1.53-.35-1.9a.03.03 0 0 1-.01-.02.03.03 0 0 1 .02-.03 1 1 0 0 0 .59-.28c.4-.4.48-.88.22-1.43a.04.04 0 0 1 .02-.05h.03c.78.37 1.58-.03 1.71-.87a.03.03 0 0 1 .03-.03h.02l.02.02Z" fill="#FCCD43"/><path d="M40.4 26.97c.45-.13.9-.43 1.34-.88a9.3 9.3 0 0 0 1.02-1.1.1.1 0 0 1 .06 0c.38.13.7.39.93.76.03.03.04.07.05.1.15.59.54.97 1.17 1.14a.05.05 0 0 1 .03.04.05.05 0 0 1-.03.05c-.5.19-.94.47-1.18.94-.22.45-.54.83-1 1.03a.2.2 0 0 1-.25-.08A6.02 6.02 0 0 0 40.38 27v-.02h.02ZM10.82 28.3a.02.02 0 0 1-.02-.02v-.01l.02-.01c.82-.3 1.47-.7 2.23-1.31 1.08-.88 2.56-1.81 3.91-1.94l.05.01.04.04a5.9 5.9 0 0 0 2.67 2.91.04.04 0 0 1-.03.03c-1.42.63-3 1.82-3.18 3.46a.06.06 0 0 1-.07.04 8.4 8.4 0 0 1-3.03-1.62c-.56-.44-.97-.73-1.23-.88-.52-.3-.97-.53-1.36-.7ZM35.76 29.58c.25-.02.6-.01.84-.05a3.85 3.85 0 0 0 2.91-2.15.07.07 0 0 1 .1-.04c.4.15.7.29.88.42a9.13 9.13 0 0 1 2.14 2.15 3.67 3.67 0 0 0 2.12 1.63v.02a.03.03 0 0 1-.02.04c-.75.19-1.43.47-2.06.85-.5.3-.88.5-1.18.6a7.37 7.37 0 0 1-3.86.34 5.39 5.39 0 0 0-1.9-3.8.03.03 0 0 1 .03-.01ZM22.86 28.2a.07.07 0 0 1 .06 0 .07.07 0 0 1 .04.05 5.53 5.53 0 0 0 1.9 3.23.06.06 0 0 1-.03.05 5.64 5.64 0 0 0-1.55 1.43 29 29 0 0 1-4.95-.47.03.03 0 0 0 0 .03 8.18 8.18 0 0 0 1.85 2.18.09.09 0 0 1-.03.1.1.1 0 0 1-.04.01l-.77.08a.28.28 0 0 1-.2-.07c-.86-.72-1.84-2.02-1.83-3.2a.06.06 0 0 1 .06-.05c1.29.06 2.45.15 3.49.27a8.02 8.02 0 0 0 2.95-.13l.01-.02a.05.05 0 0 0-.01-.05 6.32 6.32 0 0 1-1.85-3.28.06.06 0 0 1 .05-.02c.3.02.58-.03.85-.14Z" fill="#EC72A8"/><path d="m23 31.24.02.02a.05.05 0 0 1-.02.05l-.02.02c-.76.15-1.55.16-2.37.04a20.63 20.63 0 0 0-3.25-.22v-.01c.69-1.8 2.17-2.76 4.15-2.79a.1.1 0 0 1 .1.08 5.18 5.18 0 0 0 1.4 2.8ZM29.48 32.33c.57-.07 1.1-.23 1.62-.46.5-.23.94-.56 1.33-1.01a7.4 7.4 0 0 0 1.02-1.45l.05-.01c1.13.15 2.34.68 2.94 1.72.84 1.48.7 3.25-.46 4.5-1.06 1.16-2.74 1.72-4.2 1.16-1.78-.68-2.23-2.52-2.37-4.36a.08.08 0 0 1 .07-.1Zm4.06-2.17a3.66 3.66 0 0 1-1.83 2.2 7.45 7.45 0 0 1-1.5.52.08.08 0 0 0-.01.05c.07.87.38 2.02 1.07 2.6.73.63 1.7.82 2.6.42 1.18-.51 2.18-1.53 2.16-2.88-.01-1.4-.71-2.37-2.09-2.88a1.16 1.16 0 0 0-.33-.07.07.07 0 0 0-.07.04ZM11.04 36.2a14.8 14.8 0 0 0 1.46-4.93 767.41 767.41 0 0 0 .16-1.1.04.04 0 0 1 .04 0c.8.67 2.2 1.75 3.27 1.77a.04.04 0 0 1 .04.04l-.01.03a5.1 5.1 0 0 0-1.1 3.97h.05c.6-.4 1.26-.52 1.99-.36.02 0 .03.02.04.03a6.42 6.42 0 0 0-.1 1.92l-.01.02-.03.01h-.03a14.37 14.37 0 0 0-5.77-1.37.04.04 0 0 1 0-.03Z" fill="#EC72A8"/><path d="M30.65 33.28v-.02a.06.06 0 0 1 .03-.04l.02-.01c.5-.08.97-.22 1.38-.42.83-.41 1.45-1.4 1.78-2.27a.05.05 0 0 1 .05-.03h.03c.55.26 1.01.64 1.3 1.2.4.78.53 1.37.26 2.2-.25.76-1.1 1.39-1.8 1.66a2.08 2.08 0 0 1-2.63-1.04 5.24 5.24 0 0 1-.42-1.23ZM25.94 32.07c-.92.35-1.56.99-1.9 1.9A5.63 5.63 0 0 0 23.8 37a.07.07 0 0 0 .05.01 4.83 4.83 0 0 0 2.24-1.48l.02.01.01.02c.18.97.48 1.82 1.4 2.28h.05l.05-.01c.49-.51.76-1.13.83-1.86.08-.93.01-2.58-.65-3.36a.02.02 0 0 1 .01-.04l.91-.1.04.02.03.03c.77 1.82.82 4.94-1 6.26a.11.11 0 0 1-.12.01 3.23 3.23 0 0 1-1.82-2.24.04.04 0 0 0-.04 0h-.02a5.1 5.1 0 0 1-2.24 1.28.06.06 0 0 1-.03-.02c-.63-.99-.6-2.45-.29-3.5.08-.28.26-.65.54-1.12a4.26 4.26 0 0 1 1.44-1.45h.04l.7.3a.02.02 0 0 1 0 .02ZM18.73 34.92c-.41.08-.86.1-1.33.05a5.87 5.87 0 0 0-2.12.12.06.06 0 0 1-.04-.04v-.03a3.88 3.88 0 0 1 1.65-2.94v.02a3.32 3.32 0 0 0 1.87 2.76v.02a.04.04 0 0 1-.03.04Z" fill="#EC72A8"/><path d="M26.25 34.6a5.52 5.52 0 0 1-2.1 1.91.06.06 0 0 1-.07-.05 4.24 4.24 0 0 1 2.18-4.2h.08c.34.16.7.23 1.06.2a.12.12 0 0 1 .1.07c.58 1.12.74 2.29.5 3.5a2.53 2.53 0 0 1-.4.89.05.05 0 0 1-.03 0l-.02-.01a5.11 5.11 0 0 1-1.27-2.32h-.02l-.01.01ZM19.21 33.06a16.38 16.38 0 0 0 3.6.28.07.07 0 0 1 .02.1c-.15.25-.35.45-.6.6a8.37 8.37 0 0 1-1.5.67.1.1 0 0 1-.05-.03c-.37-.38-1.1-.89-1.51-1.55a.04.04 0 0 1 0-.05l.02-.02h.02ZM37.43 33.77a.06.06 0 0 1 .04-.05.06.06 0 0 1 .06.02c.54.61.96 1.28 1.28 2.02.52 1.2.93 2.5 1.23 3.88a12.74 12.74 0 0 0 .8 1.65l-.02.01h-.02a36.8 36.8 0 0 0-2.14-.4c-2.59-.45-5.68-1.43-7.17-3.75a.04.04 0 0 1 .02-.06h.02c1.8.67 3.85.59 5.04-1.08.48-.68.76-1.42.86-2.24ZM38.57 34.04a10.4 10.4 0 0 0 2.8-.28 5.09 5.09 0 0 0 2.44 2.56.04.04 0 0 1-.01.05 6 6 0 0 1-3.83 1.12 6.37 6.37 0 0 0-1.44-3.4.05.05 0 0 1 .01-.04l.03-.01ZM17.35 41.65c.2-.69.26-1.17.22-1.47a16.22 16.22 0 0 1-.1-4.57.07.07 0 0 1 .05-.02c1.62.02 3.49-.06 4.9-.82a.04.04 0 0 1 .05 0 .04.04 0 0 1 .02.03c-.03 1.45.1 3.15.96 4.34l.02.05-.02.05a6.18 6.18 0 0 1-3.2 1.71c-1.01.21-1.96.06-2.86.72a.03.03 0 0 1-.03 0v-.02Z" fill="#EC72A8"/><path d="M30.05 36.37c1.32 1.7 3.1 3.68 5.26 4.12a.08.08 0 0 1 .06.04.08.08 0 0 1 0 .07 4.72 4.72 0 0 1-2.2 2.14c-.98.52-1.72 1.1-1.83 2.22a.04.04 0 0 1-.03.04.04.04 0 0 1-.05-.02A3.94 3.94 0 0 0 29 43.04 4.78 4.78 0 0 1 26 40.3a.06.06 0 0 1 .04-.03 5.15 5.15 0 0 0 3.98-3.91.04.04 0 0 1 .04 0ZM24.58 40.47c-.1-.84-.51-1.58-.84-2.25a.06.06 0 0 1 0-.05.06.06 0 0 1 .04-.04 6.74 6.74 0 0 0 1.9-.99.07.07 0 0 1 .05.04 4.87 4.87 0 0 0 1.5 1.78.06.06 0 0 1-.04.08 8.45 8.45 0 0 0-2.6 1.46.04.04 0 0 1-.01-.03Z" fill="#EC72A8"/><path d="M20.77 41.56a12.05 12.05 0 0 0 3.03-1.89.07.07 0 0 1 .06.01l.02.02a5.03 5.03 0 0 1 .52 1.56.05.05 0 0 0 .07 0 2.35 2.35 0 0 1 1.1-.71.06.06 0 0 1 .04.02l.01.02a4.65 4.65 0 0 0 1.4 2.07l-.01.02h-.02c-1.07-.18-2.44.32-3.37.75a.09.09 0 0 1-.1-.03 5.14 5.14 0 0 0-2.77-1.82v-.01l.02-.01Z" fill="#EC72A8"/></svg>