<!-- by TradingView --><svg width="56" height="56" viewBox="0 0 56 56" xmlns="http://www.w3.org/2000/svg"><path fill="#F0F3FA" d="M0 0h56v56H0z"/><path d="M49.7 31c-.9 0-1.57-.21-2.03-.64a2.41 2.41 0 0 1-.67-1.82c0-.84.22-1.47.67-1.9a2.63 2.63 0 0 1 1.9-.64c.76 0 1.35.18 1.78.55.43.36.65.9.65 1.6v.46h-3.39c.02.6.15 1.03.39 1.3.24.28.6.41 1.05.41.36 0 .65-.07.87-.21.23-.15.4-.32.52-.53.1.03.18.08.25.14.07.07.1.15.1.25 0 .16-.07.31-.21.48-.14.16-.37.3-.68.4-.3.1-.71.15-1.2.15Zm.7-3c0-.45-.06-.77-.18-1.02a.64.64 0 0 0-.62-.4.8.8 0 0 0-.7.38c-.16.25-.25.57-.26 1.04h1.77Z" fill="#304C57"/><path d="M45.91 31c-.89 0-1.41-.56-1.41-1.41v-2.87H44v-.46c.71 0 1.07-.64 1.19-1.26H46v1h1v.72h-1v2.77c0 .53.02.78.42.78l.3-.02.28-.06v.58a2.5 2.5 0 0 1-1.09.23ZM38 31v-.48h.05c.43 0 .45-.24.45-.7v-2.7c0-.41-.04-.5-.41-.52l-.09.01V26h2.1l.12.77h.05c.15-.25.34-.44.57-.57.22-.13.52-.2.9-.2 1.08 0 1.76.7 1.76 1.71v2.11c0 .46.01.7.46.7H44V31h-2v-2.99c0-.51-.23-1.24-.9-1.24-.72 0-1.1.86-1.1 1.42v1.73c0 .44.51.6.93.6H41V31h-3ZM34.98 31c-.77 0-1.37-.2-1.82-.62-.44-.41-.66-1.04-.66-1.88 0-.85.21-1.47.63-1.88.43-.41 1.06-.62 1.89-.62.77 0 1.37.2 1.82.62.44.4.66 1.03.66 1.88 0 .84-.21 1.47-.63 1.88-.43.41-1.06.62-1.89.62Zm.02-.56c.25 0 .45-.08.59-.23.14-.15.25-.36.31-.65.07-.3.1-.65.1-1.06 0-.64-.08-1.12-.23-1.44-.15-.33-.4-.49-.78-.49a.78.78 0 0 0-.77.49c-.14.32-.21.8-.21 1.44 0 .63.07 1.12.22 1.44.15.33.4.5.77.5ZM24 31v-.48h.06c.42 0 .44-.16.44-.58V27.2c0-.4-.03-.64-.43-.64H24V26h1.83l.11.77H26c.27-.52.65-.77 1.35-.77.54 0 1.05.23 1.23.77h.06c.25-.52.7-.77 1.34-.77 1.03 0 1.53.8 1.53 1.73v2.12c0 .4.03.67.47.67H32V31h-2v-2.99c0-.8-.08-1.24-.57-1.24-.63 0-.74.84-.74 1.32v1.78c0 .18.02.32.06.42.04.1.1.15.2.18.08.03.18.05.3.05h.03V31h-1.9v-2.99c0-.8-.16-1.24-.65-1.24-.7 0-.73.93-.73 1.42v1.73c0 .4.16.6.58.6h.04V31H24ZM21.7 31c-.9 0-1.57-.21-2.03-.64a2.41 2.41 0 0 1-.67-1.82c0-.84.22-1.47.67-1.9a2.63 2.63 0 0 1 1.9-.64c.76 0 1.35.18 1.78.55.43.36.65.9.65 1.6v.46h-3.39c.02.6.15 1.03.39 1.3.24.28.6.41 1.05.41.36 0 .65-.07.87-.21.23-.15.4-.32.52-.53.1.03.18.08.25.14.07.07.1.15.1.25 0 .16-.07.31-.21.48-.14.16-.37.3-.68.4-.3.1-.71.15-1.2.15Zm.7-3c0-.45-.06-.77-.18-1.02a.64.64 0 0 0-.62-.4.8.8 0 0 0-.7.38c-.16.25-.25.57-.26 1.04h1.77ZM15.3 31c-1.12 0-1.8-.63-1.8-1.86V27.1c0-.45 0-.6-.46-.6H13V26h2v2.92c0 .5.22 1.3.9 1.3.56 0 .6-.8.6-1.39v-1.76c0-.43.04-.58-.36-.58l-.14-.03V26h2v3.85c0 .43.51.57.92.57H19V31h-1.98l-.19-.74h-.05c-.32.52-.8.74-1.48.74ZM10 31v-.49h.1c.39 0 .4-.24.4-.61v-4.81c0-.33-.07-.6-.4-.6H10V24h2v5.86c0 .37 0 .65.41.65h.09V31H10ZM4 31v-.52h.35c.37 0 .65-.26.65-.6v-4.76c0-.36-.3-.6-.67-.6H4V24h2.93c.92 0 1.6.13 2.08.4.47.27.7.71.7 1.33 0 .29-.06.54-.18.75-.12.2-.29.37-.5.5-.2.12-.41.22-.66.3v.04c.48.08.87.27 1.17.55.3.29.46.7.46 1.2 0 .65-.23 1.13-.7 1.45-.45.32-1.15.48-2.08.48H4Zm3.11-.6c.42 0 .74-.1.94-.3.21-.2.31-.55.31-1.05 0-.32-.04-.59-.13-.8a.87.87 0 0 0-.4-.46c-.17-.1-.4-.15-.7-.15H6.5v2.76h.61Zm-.25-3.36c.3 0 .54-.04.72-.13a.8.8 0 0 0 .4-.4c.08-.18.12-.43.12-.73 0-.45-.1-.76-.3-.93-.21-.17-.53-.25-.96-.25H6.5v2.44h.36Z" fill="#304C57"/><path d="M4 31.5h48v.5H4v-.5Z" fill="#CC6E2B"/></svg>