<!-- by TradingView --><svg width="56" height="56" viewBox="0 0 56 56" xmlns="http://www.w3.org/2000/svg"><path fill="#F0F3FA" d="M0 0h56v56H0z"/><path d="m45.56 38.47.44 1.84-17.7-27.7-15.35 23.87c.12.11.41.26.55.25a.2.2 0 0 0 .18-.11c.08-.23.23-.45.44-.67.21-.22.5-.14.85.25.08.1.25.08.33-.02l.98-1.4a.36.36 0 0 1 .11-.1c.15-.08.3-.14.47-.16a.2.2 0 0 0 .12-.08l2.18-3.25.96-.19.7 1.33-1.27 2.74-.67-.63-2.93 3.05h-.9l-1.57 1.2-.8-.5c-.79.63-1.55 1.37-2.2 2.14l-.44.67c-.2-.11.4-2.01.2-2.14L28.29 11l17.27 27.47Z" fill="#102A4A"/><path d="M31.5 28.3h.5c.68 1.52 1.68 3.12 2.57 4.55.17.25.39.43.68.53.2.07.33.14.4.23.1.1.35.22.35.22-.23-.58-.84-.49-1.07-.78-.18-.25-.3-.45-.32-.6a.35.35 0 0 1 .01-.16c.02-.06.05-.1.1-.15l1.6-1.63a.43.43 0 0 1 .51-.06c.51.3.96.73 1.33 1.27l1.9 2.76c.2-.28 1.03-.41 1.23-.26.3.21.63.56.98 1.04.67.9 1.5 2.02 2.09 2.9L46 40.3l-.61-.25c-.58-.24-1.07-.1-1.4-.8-.04-.1-.18-.11-.25-.03-.33.44-.63.5-.9.17-.34-.4-.51-.94-.52-1.62 0-1.2-.58-1.65-1.22-2.47l-1.52 1.21c-.7-1.1-1.84-2.3-2.56-3.45-.09.34-.63.67-.93.9a.14.14 0 0 0-.02.2c.76.9 1.45 1.97 2.08 3.24.06.12.2.2.36.2h.73c.24.34.48.78.75 1.1.62.72.92 1.32 1.17 2.17l-1.1-1.13c-.2-.23-.58-.2-.79-.43l-1.89-2.16c-.2-.23-.16-.58-.37-.78l-2.3-2.2c-.27-.26-.75.06-1.01-.32l-1.92-2.79c-.47-.68-1.57-1.13-2.26-1.6-.19-.12-.55-.08-.77-.1l-.66-1.27c-.3.48-.78.85-.96 1.15-.35.59-1.04.89-1.47 1.3-.1.1-.11.25-.04.35.11.16.3.57.57.37l.78-.57c.38.17.81.34.93.55.36.63.84 1.1 1.38 1.7.2.24.7 1.75.7 1.75l-1.9-1.59a.43.43 0 0 0-.28-.1c-.11.01-.21.06-.28.13l-.54.36-.96-.67a.47.47 0 0 0-.62.07l-1.75 1.37v-.78c-.74.42-1.42.75-1.93 1.57-.28.45-.62.8-1.01 1.03-.17.1-.3.25-.37.42-.21.47-.4.76-.56.86-1.45.93-2.79 1.77-3.82 2.65.37-.6.77-1.08 1.19-1.44 1.1-.95 1.75-2.5 2.74-3.59.59-.68.47-1.66 1.03-2.36.8-1 2.05-2.3 2.87-3.77l.5.46c.04.04.08.05.13.06.04 0 .09 0 .13-.02.47-.21.74-.38.82-.48C27 27 28.25 25.94 29 25l2.5 3.3Z" fill="#102A4A"/></svg>