<!-- by TradingView --><svg width="56" height="56" viewBox="0 0 56 56" xmlns="http://www.w3.org/2000/svg"><path fill="#F0F3FA" d="M0 0h56v56H0z"/><path d="M44 40H12l16-30 16 30ZM25.66 19.48a.87.87 0 0 0-1.19-.38.9.9 0 0 0-.37 1.2l9.24 18.22c.22.44.75.6 1.19.38a.9.9 0 0 0 .37-1.2l-9.24-18.22Zm1.7-2.77a.87.87 0 0 0-1.17-.37.88.88 0 0 0-.37 1.18l10.78 21c.22.44.74.6 1.17.38.43-.22.6-.75.37-1.18L27.37 16.71Zm1.45-3.24a.87.87 0 0 0-1.17-.37.88.88 0 0 0-.37 1.18l12.56 24.25c.22.43.74.6 1.17.37.43-.22.6-.75.37-1.18L28.81 13.47Z" fill="#373536"/></svg>