<!-- by TradingView --><svg width="56" height="56" viewBox="0 0 56 56" xmlns="http://www.w3.org/2000/svg"><path fill="#F0F3FA" d="M0 0h56v56H0z"/><path d="M24.75 24.8c.9-1.6 3.14-5.12 4.88-6.4.96-.71 3-1.75 5.12-2.81 2.62-1.33 5.35-2.7 6.25-3.59-.72 1.24-2.7 4.05-4.88 5.33l-1.31.77c-3.3 1.92-9.12 5.31-10.06 6.7Zm-4.88 10.13c.73-.35 2.2-1.41 2.71-2.66 1.09-2.67 5.42-8.54 7.59-10.14-2.17.54-5.75 3.74-7.05 5.87-.68 1.12-.98 2.24-1.26 3.28-.38 1.44-.73 2.73-1.98 3.65Zm6.5-7.46c1.74-2.56 9.03-8.18 12.46-10.67a613.03 613.03 0 0 1-6.5 11.73c-2.16 3.74-7.58 6.4-8.66 6.94-1.09.53-2.71 1.6-2.71 3.2 0 1.28 2.16 1.6 3.25 1.6-1.09 1.06-2.9 1.42-4.3 1.7-.7.13-1.3.25-1.66.43-.48.23-.95.57-1.38.87-.55.4-1.02.73-1.33.73-.54 0-.54-.53-.54-1.07 0-.85 2.53-4.62 3.8-6.4 0 .18.2.54 1.07.54.73 0 2.41-2.85 4.1-5.7a83.54 83.54 0 0 1 2.4-3.9Zm7.59 1.6c-1.99 3.37-6.5 10.66-10.3 10.66-.77 0-1.62-.74-1.62-1.6 0-1.06.54-2.13 2.71-2.66 3.25-.8 7.04-4.27 9.2-6.4Z" fill="#D11F43"/></svg>