<!-- by TradingView --><svg width="56" height="56" viewBox="0 0 56 56" xmlns="http://www.w3.org/2000/svg"><path fill="#266EFF" d="M0 0h56v56H0z"/><path d="m29.5 11.71-.78-1.6a.2.2 0 0 0-.34-.02l-3.64 5.63a.2.2 0 0 0 0 .24l1.33 1.96c.04.05.1.08.15.08h4.94c.15 0 .25.17.17.3l-2.7 4.5a.2.2 0 0 0-.01.19l.88 1.9c.03.07.1.11.17.11h5.4c.15 0 .25.17.17.3l-2.69 4.52a.2.2 0 0 0 .01.23l1.38 1.87c.04.05.1.08.16.08h4.96c.14 0 .24.16.17.3l-2.3 4.58a.2.2 0 0 0 .03.2l1.33 1.84c.04.05.1.08.16.08h6.35c.17 0 .26-.19.16-.32l-1.17-1.61c-.04-.05-.1-.07-.16-.07H39.2c-.15 0-.25-.19-.16-.32l2.2-3.63a.2.2 0 0 0 0-.2l-1.32-2.74a.2.2 0 0 0-.18-.11H35.3c-.15 0-.25-.16-.17-.3l2.19-4.2a.2.2 0 0 0 0-.2l-1.33-2.2a.2.2 0 0 0-.17-.1h-4.44c-.15 0-.25-.16-.17-.3l2.19-4.22a.2.2 0 0 0-.02-.23l-1.77-2.17a.2.2 0 0 0-.16-.08H27.5c-.15 0-.25-.17-.17-.3l2.16-3.79a.2.2 0 0 0 .01-.2ZM24.58 19.25l-1.21-1.65a.2.2 0 0 0-.33.01l-3.21 5.68a.2.2 0 0 0 0 .2l1.33 2.41c.03.06.1.1.16.1h3.94c.15 0 .25.17.17.3l-2.17 3.52a.2.2 0 0 0 .01.23l1.33 1.82c.04.05.1.13.16.13h4.5c.14 0 .23.1.18.23l-1.81 4.67a.2.2 0 0 0 0 .17l.89 1.82c.03.07.1.11.17.11h6.41c.15 0 .24-.16.17-.3l-.78-1.6c-.03-.07-.1-.1-.17-.1h-3.97c-.14 0-.24-.17-.17-.3l1.76-3.64a.2.2 0 0 0 0-.2L30.1 30.1a.2.2 0 0 0-.17-.09H26c-.15 0-.25-.24-.17-.37l2.2-3.6a.2.2 0 0 0-.02-.23l-1.3-1.72a.2.2 0 0 0-.15-.08h-4.43c-.16 0-.25-.18-.16-.31l2.62-4.2a.2.2 0 0 0 0-.24ZM19.2 27.32l-1.22-1.68a.2.2 0 0 0-.32.01l-3.2 5.18a.2.2 0 0 0 .01.23l1.33 1.82c.04.05.1.12.16.12h3.5c.14 0 .23.12.17.25l-1.76 3.63a.2.2 0 0 0 .02.2l1.33 1.84c.04.05.1.08.16.08h6.36c.16 0 .25-.19.15-.32l-1.17-1.61c-.04-.05-.1-.07-.16-.07h-3.51c-.15 0-.24-.16-.18-.3l1.3-3.14a.2.2 0 0 0 0-.19L20.8 31.1a.2.2 0 0 0-.17-.1h-2.98c-.15 0-.24-.22-.17-.36l1.73-3.1a.2.2 0 0 0-.02-.22ZM14.3 35.36l-1.18-1.64a.2.2 0 0 0-.34.03l-1.76 3.64a.2.2 0 0 0 .01.2l.86 1.32c.04.06.1.09.16.09h3.9c.17 0 .26-.19.16-.32l-1.17-1.61c-.04-.05-.1-.07-.16-.07h-1c-.16 0-.25-.2-.16-.33l.7-1.08a.2.2 0 0 0-.01-.23Z" fill="#fff"/></svg>