<!-- by TradingView --><svg width="56" height="56" viewBox="0 0 56 56" xmlns="http://www.w3.org/2000/svg"><path fill="#F0F3FA" d="M0 0h56v56H0z"/><path d="M39 27.79c0-.99.9-1.79 2-1.79s2 .8 2 1.79v5.42c0 .99-.9 1.79-2 1.79s-2-.8-2-1.79V27.8Z" fill="#52B2FD"/><circle cx="41" cy="23" r="2" fill="#52B2FD"/><path d="M32.5 21a5.5 5.5 0 0 1 5.34 4.16c.1.24.16.5.16.77v7.14c0 1.07-.9 1.93-2 1.93s-2-.86-2-1.93V31.8A5.5 5.5 0 1 1 32.5 21Zm0 4a1.5 1.5 0 1 0 0 3 1.5 1.5 0 0 0 0-3Z" fill="#96C837"/><path d="M25 25a5 5 0 1 1 0 10 5 5 0 0 1 0-10Zm0 3a2 2 0 1 0 0 4 2 2 0 0 0 0-4Z" fill="#F8AC30"/><path d="M12 29.72c0 1.26-.9 2.28-2 2.28s-2-1.02-2-2.28v-8.44c0-1.26.9-2.28 2-2.28s2 1.02 2 2.28v8.44Z" fill="#FB5102"/><path d="M14.5 36a6.5 6.5 0 1 1 0-13 6.5 6.5 0 0 1 0 13Zm0-3.95a2.5 2.5 0 1 0 0-5 2.5 2.5 0 0 0 0 5Z" fill="#FB5102"/><path d="M44 27.79c0-.99.9-1.79 2-1.79s2 .8 2 1.79v5.42c0 .99-.9 1.79-2 1.79s-2-.8-2-1.79V27.8Z" fill="#52B2FD"/><circle cx="46" cy="23" r="2" fill="#52B2FD"/></svg>