<!-- by TradingView --><svg width="56" height="56" viewBox="0 0 56 56" xmlns="http://www.w3.org/2000/svg"><path fill="#F0F3FA" d="M0 0h56v56H0z"/><path d="M26.36 20.16c-2.94.46-7.29 1.73-11.6 3.38C10.66 25.13 6 27.23 6 27.51c.01.43.2.43.95 0 .7-.38 2.68-1.3 5.13-2.38a92.82 92.82 0 0 1 13.03-4.26c1.18-.24 3.94-.46 4.59-.36.66.1.66.31.01.8-.9.65-4.85 2.51-5.01 2.35-.03-.03.01-.24.1-.48.13-.42 0-.92-.23-.92-.06 0-.32.41-.57.92-.28.57-.58.98-.77 1.08-.17.08-1.16.48-2.2.89-1.57.6-2.79 1.14-2.96 1.28-.01.01 0 .12.05.23.1.28.68.25 2.58-.1 1.52-.3 1.89-.31 1.75-.06-.14.2.1.11.25-.1.08-.11.2-.17.24-.13.05.05.02.16-.05.25-.06.08-.34.7-.61 1.35a9.76 9.76 0 0 1-.6 1.3c-.05.07-.58.23-1.17.4A14.94 14.94 0 0 0 15.25 32c-1.6 1.25-1.86 2.38-.7 3.1.38.25.58.28 1.87.26 1.23 0 1.66-.06 2.9-.4a34.26 34.26 0 0 0 8.74-3.9c2.35-1.57 3.16-3.21 2.24-4.58-.64-.97-2.14-1.3-4.73-1.1-.86.07-1.58.1-1.6.08-.03-.02.08-.27.23-.55.28-.48.39-.55 2.16-1.3 3.03-1.3 4.34-2.13 4.34-2.74 0-.14-.15-.39-.31-.55-.28-.27-.43-.3-1.6-.32-.7-.01-1.8.06-2.43.16Zm-2.9 5.17c-.13.3-.35.44-.35.22 0-.15.37-.65.43-.6.04.03-.01.2-.08.38Zm-.62.01a.7.7 0 0 1-.38.37 5.87 5.87 0 0 1-1.73.25c-.03-.04.04-.1.16-.16.12-.03.58-.23 1.01-.4 1-.44 1.12-.46.94-.06Zm6.38.81c1.13.43 1.37 1.1.8 2.25-.73 1.49-3.54 3.25-7.92 5-2.69 1.07-4.09 1.44-5.68 1.52-1.44.07-2.01-.08-2.17-.56-.23-.75 1.45-2.28 3.6-3.28 1.38-.62 3.45-1.29 3.45-1.08 0 .05-.22.67-.48 1.39-.53 1.41-.57 1.63-.31 1.63.08 0 .27-.33.43-.75.14-.42.42-1.15.63-1.62.4-1.02.13-.92 3.16-1.2a9.38 9.38 0 0 0 2.35-.38c.15-.14-.06-.16-1.27-.16-.8 0-1.9.06-2.45.12-.55.07-1.02.1-1.05.08-.03-.02.27-.73.67-1.57l.7-1.5 1.2-.1c.65-.03 1.29-.09 1.42-.1.54-.1 2.34.1 2.92.31ZM42.41 20.33c-.14.13-.27.32-.27.42 0 .24.25.35.4.2.2-.2.45-.18.45.04 0 .1.1.18.24.18.28 0 .46-.54.28-.83-.18-.3-.79-.3-1.1-.01ZM45.76 20.86c0 .1.06.22.12.25.07.04.12 0 .12-.1s-.05-.22-.12-.26c-.06-.04-.12.01-.12.11ZM44.35 21.79c-.22.06-.4.16-.4.22 0 .24.36.38.76.31.5-.1.64.05.37.38-.13.17-.2.18-.24.07-.1-.25-.26-.16-.4.25-.15.45-.07.81.17.81.1 0 .37-.18.6-.4.5-.48.56-.96.17-1.46-.26-.34-.4-.36-1.03-.18ZM39.39 23.12c-.37.22-.96.68-1.32 1.03-.61.63-.64.67-.6 1.22.04.55.06.58.4.61a2 2 0 0 0 .85-.15c.24-.1.46-.17.48-.16.02.02-.04 1.32-.13 2.88-.18 3.07-.25 3.4-.96 4.59-.83 1.38-2.24 2.32-3.5 2.34-1.89.03-1.95-1.8-.13-4.23.66-.9 1.97-2.14 2.95-2.84.64-.44.94-.83.65-.83-.33 0-2.6 1.73-3.28 2.5-2.1 2.37-2.64 4.67-1.32 5.61.62.43 1.85.41 2.8-.06a5.57 5.57 0 0 0 2.4-2.53c.49-.98.58-1.54.81-5.23.06-1.08.17-2.1.24-2.28.08-.19.39-.57.72-.86.32-.3.65-.7.73-.9.15-.35.13-.4-.18-.72-.45-.46-.8-.46-1.61.01Zm.3 1.1c-.22.54-.33.65-.9.9-1.15.51-1.26.37-.34-.51 1.22-1.2 1.63-1.33 1.25-.39ZM42.27 23.26c0 .1-.11.52-.25.95-.14.42-.22.88-.21 1 .05.3.34.41.34.15 0-.11.14-.55.32-.98.24-.6.29-.85.2-1-.16-.26-.4-.33-.4-.12ZM36.6 24.28c-.67.1-1.23.45-1.46.9-.38.77-.3 2.52.14 2.52.14 0 .29-1.01.2-1.53-.12-.74.28-1.13 1.34-1.31.28-.05.5-.12.5-.18s.04-.18.08-.3c.07-.18-.1-.22-.8-.1ZM32.93 25.07c-.76.4-1.63 1.6-1.63 2.22 0 .46.2 1.03.4 1.16.3.2.91.1 1.1-.17.25-.36.14-.46-.34-.31-.77.24-.98-.09-.6-.97.15-.39.2-.42.3-.24.16.3.32.28 1.02-.22.71-.48.99-.97.77-1.37-.14-.27-.63-.33-1.02-.1Zm.42.54c0 .1-.75.64-.9.64-.16 0 .08-.27.47-.5.42-.25.43-.26.43-.14Z"/></svg>