<!-- by TradingView --><svg width="56" height="56" viewBox="0 0 56 56" fill="none" xmlns="http://www.w3.org/2000/svg">
<rect width="56" height="56" fill="url(#paint0_linear_5071_142356)"/>
<path fill-rule="evenodd" clip-rule="evenodd" d="M28.5487 30.9961L26.7018 27.8004L28.4347 26H26.6729L24.9996 27.939L24.9995 24H23.4V30.9959H24.9995L24.9996 29.7606L25.6153 28.9656L26.7806 30.9961H28.5487ZM15.6827 28.8322C15.4385 28.7755 15.1378 28.7184 14.8037 28.7184C14.2635 28.7184 13.9957 28.9833 13.9957 29.3473C13.9957 29.6917 14.2327 29.9406 14.7183 29.9406C15.2318 29.9406 15.6827 29.6334 15.6827 29.1676V28.8322ZM16.8814 31C16.4482 31 16.0131 30.8119 15.8095 30.3108C15.4698 30.6922 14.8342 31 14.1139 31C13.0636 31 12.4 30.4491 12.4 29.4295C12.4 28.4304 13.1976 27.8334 14.4495 27.8334C14.9499 27.8334 15.3539 27.9073 15.6824 27.9866V27.8201C15.6824 27.2525 15.3516 26.9104 14.6668 26.9104C14.2243 26.9104 13.7638 27.1064 13.4178 27.407L12.5526 26.4342C13.0697 25.9761 13.8986 25.6258 14.8599 25.6258C16.3417 25.6258 17.2358 26.3375 17.2358 27.669V29.4491C17.2358 29.6385 17.3328 29.7397 17.5381 29.7397C17.6355 29.7397 17.7359 29.7202 17.8023 29.7031V30.8322C17.5073 30.9514 17.1667 31 16.8814 31ZM30.6 25.3615L31.8159 25.3616C32.5783 25.3616 32.9235 25.6849 32.9235 26.2748C32.9235 26.7769 32.5642 27.1948 31.8159 27.1948L30.6 27.1949V25.3615ZM34.7932 31L33.2844 28.2505C34.1142 27.8367 34.5856 27.1761 34.5856 26.2295C34.5856 24.7489 33.4823 24 31.9072 24H28.9953V31H30.6V28.5563H31.6147L32.9198 31H34.7932ZM23.17 27.0092C22.7378 26.1122 21.9344 25.6128 20.7203 25.6128C19.2837 25.6128 18.0028 26.5137 18.0028 28.2937C18.0028 30.0337 19.1302 30.9961 20.6987 30.9961C21.801 30.9961 22.7276 30.5569 23.1603 29.609L21.8465 28.9656C21.6197 29.3892 21.3107 29.643 20.751 29.643C20.0293 29.643 19.6 29.1243 19.6 28.2915C19.6 27.4562 20.0906 27 20.7403 27C21.2427 27 21.5561 27.2472 21.8155 27.6839L23.17 27.0092ZM7.04477 28H5.6V29.6549L7.04477 29.6548C7.63492 29.6548 8 29.2387 8 28.788C8 28.3261 7.60769 28 7.04477 28ZM6.92973 25.3316L5.6 25.3315V26.7641H6.92973C7.49933 26.7641 7.79813 26.4929 7.79813 26.0269C7.79813 25.563 7.4526 25.3316 6.92973 25.3316ZM7.24945 31H4V24.0002L7.1173 24C8.73868 24 9.37036 24.8177 9.37036 25.8198C9.37036 26.3935 9.22649 26.8932 8.54681 27.2608C9.26443 27.5219 9.6 28.1173 9.6 28.888C9.6 30.0552 8.88221 31 7.24945 31ZM37.8217 27C37.1424 27 36.6 27.4205 36.6 28.2973C36.6 29.1645 37.1431 29.6466 37.8217 29.6466C38.5001 29.6466 39 29.1645 39 28.2973C39 27.4204 38.501 27 37.8217 27ZM37.8217 31C36.1095 31 35.0009 29.953 35.0009 28.297C35.0009 26.6418 36.3052 25.6053 37.8217 25.6053C39.3378 25.6053 40.6 26.6421 40.6 28.297C40.6 29.9526 39.3381 31 37.8217 31ZM10.4 31H12.0014V24H10.4V31ZM52 30.9961L50.1531 27.8004L51.886 26H50.1242L48.6 27.9392V24.0002H47V30.9961H48.6V29.7608L49.0998 29.0878L50.2319 30.9961H52ZM43.7175 25.6167C44.9316 25.6167 45.7351 26.1161 46.1672 27.0131L44.8128 27.6878C44.5534 27.2511 44.2399 27.0039 43.7376 27.0039C43.0879 27.0039 42.5972 27.4601 42.5972 28.2954C42.5972 29.1282 43.0265 29.6469 43.7483 29.6469C44.3079 29.6469 44.617 29.3932 44.8437 28.9695L46.1575 29.6129C45.7248 30.5608 44.7982 31 43.6959 31C42.1275 31 41 30.0376 41 28.2976C41 26.5177 42.2809 25.6167 43.7175 25.6167Z" fill="white"/>
<defs>
<linearGradient id="paint0_linear_5071_142356" x1="10.4178" y1="9.71163" x2="68.1465" y2="76.0166" gradientUnits="userSpaceOnUse">
<stop stop-color="#1A1E21"/>
<stop offset="1" stop-color="#06060A"/>
</linearGradient>
</defs>
</svg>
