<!-- by TradingView --><svg width="56" height="56" viewBox="0 0 56 56" xmlns="http://www.w3.org/2000/svg"><path fill="#F0F3FA" d="M0 0h56v56H0z"/><path d="m37.3 31.91-.04.28-1-.13a.08.08 0 0 0-.07.02l-.02.02c-.03.02-.03.02-.01-.01v-.02l-.01-.03h-.02c.02-.02.03-.05.02-.07a37.4 37.4 0 0 0-.44-1.24l.34-.08a.1.1 0 0 0 .07-.12.09.09 0 0 0-.04-.04.54.54 0 0 0-.18-.08l-.63-.1a.06.06 0 0 1-.06-.04.25.25 0 0 1 0-.13c.07-.12.07-.21.01-.28-.02-.02-.03-.01-.04.01a.54.54 0 0 0 0 .25v.15c-.02.02-.03.03-.06.03a9.1 9.1 0 0 0-1.91-.13l-.02-1.88V26.7l-.02-7.72c0-.03.01-.05.04-.06l.43-.2a.1.1 0 0 1 .1.01c.03.03.06.02.08-.02a.14.14 0 0 1 .08-.08l.24-.1a.12.12 0 0 1 .08 0l3.88.82c.04 0 .06.03.06.07v1.6c0 .02 0 .04-.03.06-.03.02-.07.02-.12 0-.08-.01-.11.02-.11.1v.11c0 .04-.02.06-.05.06h-.4a.06.06 0 0 0-.05.03c-.03.06-.02.11.04.15.02.01.03.03.03.06v.3a.1.1 0 0 1-.03.08.15.15 0 0 0-.05.12c0 .08.05.1.08.17.02.02.02.05 0 .07-.02.04-.05.06-.1.05a.07.07 0 0 0-.07.04v9.49ZM15.6 29.73l-.02 2.28c-.33-.88-.53-1.77-.62-2.66v-7.32c0-.19.03-.37.08-.55l.05-.06.23-.2a.09.09 0 0 0 .04-.06v-.8c0-.2.12-.41.28-.53l.55-.4c.03-.02.05-.02.07 0l.87 1.41c.01.03.04.05.06.06h.05l.03.01.02.02.64 1.1c.04.07.08.09.15.12a.1.1 0 0 1 .05.05l.4.72c.05.1.16.13.2.23.1.2.25.43.25.68a1777.17 1777.17 0 0 1-.01 1.64l-.03.02a16.05 16.05 0 0 0-3.34.5l-.01.02c0 .22.06.35.2.4.03.01.04.03.04.07a.96.96 0 0 1-.11.34c-.05.1-.05.16-.04.25 0 .03 0 .05-.02.06a.2.2 0 0 0-.07.16c0 .3-.01.6-.04.9 0 .07 0 .15.03.22.06.16.06.32.05.48l-.03.84ZM33.1 30.2a.22.22 0 0 1-.13.04c0-.2-.11-.3-.31-.27l-.93-3.44c-.02-.07-.03-.07-.05 0l-.75 2.84c-.28.14-.46.35-.54.63-.04.13-.05.33-.05.62l.01.61c-.04 0-.06-.03-.06-.09.02-.2 0-.37-.05-.54l-.08-.32c-.06-.29-.18-.53-.45-.67-.45-.24-.9-.48-1.35-.74a1.8 1.8 0 0 0-.51-.19l-2.63-.58a2.66 2.66 0 0 0-.59-.07 37.06 37.06 0 0 0-.63 0l.02-2.24a.06.06 0 0 1 .05-.06l.9-.29c.2-.06.36-.29.52-.43.02-.02.04-.02.06 0l.39.49c.04.04.08.08.14.1l.56.24h.06c.02-.01.03 0 .04.02v1.43a.03.03 0 0 0 0 .02h.04l1.6-.48c.02 0 .03-.01.03-.03v-.87a.06.06 0 0 1 .01-.04.06.06 0 0 1 .04-.02h.35a.07.07 0 0 1 .07.05c.02.1.09.13.2.1.02 0 .03-.02.04-.04V25h.01l.48-.02.01.01v3c0 .03.01.05.04.05h.18c.04 0 .05 0 .05.04v1.45c0 .1.02.1.05 0a458.99 458.99 0 0 1 1.39-4c0-.04 0-.04-.04-.01l-1.58 1.67c-.02.02-.03.02-.03 0v-.09c0-.03.01-.06.04-.08l1.59-1.7a.17.17 0 0 0 .05-.12V25c0-.05-.02-.06-.06-.03l-1.58 1.55c-.03.03-.04.02-.04-.02v-.06c0-.05.03-.08.06-.11l1.57-1.53a.14.14 0 0 0 .05-.1v-.3c0-.04-.02-.04-.05-.01l-1.59 1.48c-.03.03-.04.02-.04-.02v-.04a.16.16 0 0 1 .04-.12l1.57-1.46a.2.2 0 0 0 .07-.13v-.2c0-.05-.03-.06-.07-.02l-1.57 1.37c-.03.03-.05.02-.05-.03v-.04c0-.04.02-.08.06-.1l1.57-1.37a.15.15 0 0 0 .06-.12v-.3c0-.05-.02-.06-.06-.03l-1.87 1.6a.44.44 0 0 1-.2.1c-.1.02-.12 0-.03-.08l2.12-1.79a.1.1 0 0 0 .04-.08v-.21c0-.05-.02-.06-.06-.03l-4.46 3.61c-.02.02-.03.01-.05-.01v-.06c0-.04.03-.07.07-.1a1762.88 1762.88 0 0 1 4.49-3.65v-1.73c0-.24.22-.55.34-.76a.03.03 0 0 1 .05 0c.14.23.35.53.34.8a66.4 66.4 0 0 0 .02 1.73l.98.8a.11.11 0 0 1 .04.08v.04c0 .05-.02.05-.05.02l-.94-.77c-.04-.02-.05-.02-.05.03v.2c0 .05.01.08.05.11l.95.8c.03.03.04.06.04.1v.04c0 .04 0 .05-.05.02l-.97-.82h-.01a2.29 2.29 0 0 0 0 .44l.98.84c.02.03.04.05.05.09v.07c0 .03-.02.04-.04.02l-.95-.83c-.04-.03-.05-.02-.05.02v.22c0 .04.01.08.04.1l.96.9a.14.14 0 0 1 .04.1v.05c0 .04-.01.04-.04.02l-.95-.9c-.03-.02-.05-.02-.05.03v.29c0 .03.01.06.04.09l.95.93.03.04c.02.04.03.08.02.12 0 .03-.02.04-.04.02l-.96-.93c-.03-.03-.04-.03-.04.02v.23c0 .03.01.07.04.1l.96 1.03c.03.03.04.06.04.1v.07c0 .03 0 .03-.03.01l-.92-.98c-.08-.1-.1-.08-.07.03l1 2.87c.03.08.04.16.04.24l-.05 1.52Z" fill="#A7A9AC"/><path d="M40.93 28.6a13.35 13.35 0 0 1-1.1 4.44c-.04-.11-.13-.19-.27-.25a9.64 9.64 0 0 0-2.22-.57l.01-.34V22.5l.03-.06a.08.08 0 0 1 .07 0c.04.01.07 0 .08-.04.03-.12 0-.22-.06-.29-.02-.02-.02-.04 0-.06 0-.02.01-.02.02-.03a.06.06 0 0 0 .04-.05v-.45c0-.04-.02-.05-.05-.06-.01 0-.02 0-.03-.02-.01-.03 0-.05.03-.05l.43.01c.03 0 .05-.01.05-.04l-.01-.14a.06.06 0 0 1 .03-.07h.03l.7-.01c.04 0 .06-.02.05-.07-.01-.02 0-.04.04-.06h.03c.08 0 .15-.02.22-.05a.1.1 0 0 1 .08 0c.09.02.17.04.26.04.04 0 .06.02.05.06l.01.04.06.03c.23.01.45.02.67.01.03 0 .06.01.07.04.01.04.02.08 0 .12a.08.08 0 0 0 .02.07.09.09 0 0 0 .07.03h.37c.03 0 .04.01.03.05a.85.85 0 0 0-.03.55c0 .02 0 .03.02.04l.03.06-.02.04c-.06.07-.08.15-.05.25 0 .02.03.04.05.03a.1.1 0 0 1 .1.04.1.1 0 0 1 .03.06v6.02c0 .04.02.05.06.05Z" fill="#A7A9AC"/><path d="M27.57 11h1.01c1.52.04 3 .26 4.47.64a16.15 16.15 0 0 1 8.23 5.11 15.38 15.38 0 0 1 3.06 5.87c.27.95.45 1.9.55 2.82-.04.06-.07.08-.1.06-.07-.04-.12-.03-.18-.02h-2.29l-.07-.01-.07.01h-.8l-.2.02c-.15.01-.24-.04-.26-.15v-2.86c.02-.08-.02-.13-.12-.12a.07.07 0 0 1-.06-.05v-.03l.01-.04c.1-.1.1-.2.02-.3a.09.09 0 0 1-.03-.06v-.3c0-.03.02-.05.04-.06.06-.03.07-.08.04-.16a.06.06 0 0 0-.06-.03h-.4a.04.04 0 0 1-.03 0 .04.04 0 0 1 0-.03l-.01-.15a.07.07 0 0 0-.07-.07h-.7l-.02-.01a.05.05 0 0 1-.03-.05v-.04c.01-.04 0-.05-.04-.05-.15 0-.24-.01-.27-.06l.01-2.68v-.02H39.03a.02.02 0 0 0-.02.02l.01 2.63c.02.1-.06.14-.26.1a.1.1 0 0 1-.06-.05 5.78 5.78 0 0 0-.38-.5c-.09-.09-.09-.2-.09-.32v-.72c0-.02 0-.04-.04-.05l-.99-.2a.67.67 0 0 1-.3-.16 12.72 12.72 0 0 0-3.42-2.11c-1.21-.5-2.47-.82-3.78-.96-1.43-.16-2.86-.1-4.3.15a13.3 13.3 0 0 0-8.14 4.8.06.06 0 0 1-.06 0l-.02-.02-.9-1.47h-.01a.04.04 0 0 0-.03-.01h-.02l-.63.46a.79.79 0 0 0-.31.59v.75a.1.1 0 0 1-.04.08l-.24.2a.11.11 0 0 0-.04.06l-.08.4-.01 3.6-.02.06c-.01.02-.03.03-.05.01a.33.33 0 0 0-.26-.05l-.17.01c-.18 0-.54 2.52-.71 2.52-.9 0-1.63-2.51-2.54-2.5.1-.96.3-1.92.57-2.87.78-2.71 2.19-5.04 4.21-7a17.24 17.24 0 0 1 10.42-4.55l1.25-.08Z" fill="#58585A"/><path d="m26.78 23.49.3.01c.03 0 .05.02.08.03l.15.12c.03.02.06.03.1.02h.03c.04-.01.06 0 .06.05v.44c0 .03-.02.04-.05.04a.4.4 0 0 1-.33-.13.13.13 0 0 0-.06-.03.86.86 0 0 0-.28-.02v-.53ZM23.77 28.03h-2.02c-.17 0-.33.04-.5.06l-1.06.14a.4.4 0 0 0-.24.03l-1.45.18.1-.31.08-.3c.02 0 .04-.02.04-.03.01-.02 0-.03-.02-.03h-2.17c-.03 0-.04.01-.02.04l.08.02v.09l.64.97c.1.13.18.25.2.37-.03 0-.05 0-.05.02-.04.35-.02.64.06.88l.02.67.01.64c-.36-.14-.67-.1-.94.09-.24.18-.44.36-.6.55a.62.62 0 0 1-.26 0c-.05 0-.05-.01 0-.03.04-.01.06-.04.04-.08a.2.2 0 0 1-.02-.08v-3.33c0-.13-.08-.22-.07-.34l.04-.96c0-.03 0-.05.03-.06l.02-.01a.06.06 0 0 0 .02-.06c0-.12.03-.24.08-.33a.71.71 0 0 0 .08-.4.07.07 0 0 0-.04-.07c-.13-.05-.2-.15-.2-.3a.04.04 0 0 1 .04-.05c1.37-.34 2.79-.5 4.26-.47.2 0 .41 0 .6.02l1.4.13h.4c.03 0 .05-.02.05-.05l.08-.28c.01-.03.03-.05.06-.05h.13c.03 0 .06 0 .08-.03.13-.17.47-.13.66-.12.03 0 .04-.02.04-.05a101.08 101.08 0 0 0 .04-1.3l.02.01c.03.48.03.95 0 1.43-.01.04 0 .07.04.1.03 0 .03.02.02.04l-.02.01c-.02 0-.03.02-.03.04l.01.51c0 .04.02.06.05.06h.05c.1.02.1.05.02.1l-.08.04a.07.07 0 0 0-.03.07v.25c0 .03.02.05.05.05l.04.02c.03 0 .04.02.05.05l.06.29c.02.38.03.76.03 1.15ZM26.83 26.87 29.05 25a.03.03 0 0 1 .04.02.1.1 0 0 1 0 .06.21.21 0 0 1-.06.1l-2.2 1.87c-.03.02-.04.02-.04-.01v-.09a.1.1 0 0 1 .04-.07Z" fill="#A7A9AC"/><path d="M40.92 25.35c.02.11.1.16.25.15l.2-.02h.82c.01-.01.04-.02.06-.01l.07.01h2.22c.09 0 .15-.04.25.02.03.02.06 0 .1-.06.13 1.33.15 2.66.03 4-.13 1.6-.47 3.12-1 4.58a16.3 16.3 0 0 1-5.73 7.72c-.1.07-.2.1-.29.17a17.2 17.2 0 0 1-19.7 0c-.3-.2-.54-.36-.7-.5A16.63 16.63 0 0 1 12 33.7c-.9-2.6-1.19-5.33-.88-8.2a187.84 187.84 0 0 1 3.42-.03c.1-.02.18 0 .26.05.02.02.04.01.05-.01l.02-.05v2.33c-.01.45.02.97.1 1.56.07.9.28 1.78.61 2.66 0 .11.02.23.07.35.01.03 0 .05-.02.06-.12.08-.17.22-.14.42 0 .03.02.05.04.06l.12.09c.03.02.03.04-.01.05l-.05.02c-.03 0-.04.03-.03.07.16.34.42.55.79.63l.7 1.12.02.44c0 .03.02.04.05.04h.4c.07.14.16.26.28.37v1.03c0 .01.01.02.03.02h.05v-.02l.05-.85c.24.3.5.55.77.76.13.4.38.7.74.9.29.14.62.2.99.18.11 0 .31-.04.6-.1.26-.04.45-.1.59-.19.27-.16.48-.38.62-.68.02-.03.03-.03.05 0 .2.48.54.79 1.05.91.27.07.5.09.71.05l.48-.08c.51-.06.9-.3 1.18-.74l.59-.03c.2.19.4.3.65.34.46.08.86-.02 1.21-.32h7.96c.3.44.71.67 1.23.68a1.52 1.52 0 0 0 1.52-1.9c-.01-.06 0-.1.03-.12.08.07.17.02.25.02a22.28 22.28 0 0 0 .9 0 .1.1 0 0 0 .06-.1l-.01-.4c-.03 0-.05-.01-.05-.03l.05-.03c-.1-.11-.13-.3-.1-.54.02-.42.02-.73.01-.94a1.26 1.26 0 0 0-.18-.52 13.35 13.35 0 0 0 1.1-4.44v-3.24Z" fill="#6D6E71"/><path d="M29.01 25.66a.02.02 0 0 1 .02-.01h.01l.01.01.02.03a.1.1 0 0 1 .01.04v.04l-.03.04-.02.03a.15.15 0 0 1-.03.03.13.13 0 0 1-.04.02.1.1 0 0 1-.04 0l-.04-.01-.01-.01a.02.02 0 0 1 0-.02l.14-.2ZM28.28 26.48l-.44.4a.7.7 0 0 1-.3.15c-.07.02-.08 0-.03-.04l.8-.7h.03v.01l.01.02v.05a.2.2 0 0 1-.07.1Z" fill="#A7A9AC"/><path d="m18.68 27.83-.08.3h-.2a.06.06 0 0 0-.05.04l-.17.28c-.01.03-.04.03-.06.01l-.19-.15a.2.2 0 0 0-.12-.05h-.3c-.07 0-.08.02-.04.07l.52.53-.76.03-.64-.97v-.1l2.1.01Z" fill="#848588"/><path d="M24 28.03h-.23c-1.22 0-2.37-.2-3.58.2l-.22.33a4.08 4.08 0 0 0-.55 2.46c0 .03.02.05.05.06 3.17.93 6.12 2.08 9.44 2.7.09.04.18.06.27.07.11-.2.27-.31.47-.36-.02-.1 0-.21.09-.33.21-.54.39-1.08.52-1.65l.09-.28c-.04 0-.06-.03-.06-.09.02-.2 0-.37-.05-.54l-.08-.32c-.06-.29-.18-.53-.45-.67l-1.36-.74a1.8 1.8 0 0 0-.5-.19l-2.63-.58a2.66 2.66 0 0 0-.59-.07 38.26 38.26 0 0 0-.63 0ZM18 28.86c.07.04.12.1.12.2 0 .07 0 .22-.04.46l-.64-.26a.95.95 0 0 0-.21-.37l.76-.03Z" fill="#6D6E71"/><path d="M23.5 31.35c-.1.1-.2.13-.3.12a6.16 6.16 0 0 1-1.06-.27h-.08l.47-1.66c.01-.03.03-.04.05-.03.3.08.6.16.88.25.32.1.42.3.31.62-.06.16-.2.22-.4.18l-.02.01v.02l.01.02c.39.1.3.47.14.74Z" fill="#E7E8E9"/><path d="M19.26 30.03c.13-.62.36-1.2.69-1.77l-1.45.18-.14.37a.1.1 0 0 0 0 .08l.28.96c.13.11.46.2.62.18Z" fill="#6D6E71"/><path d="m18.64 29.85.24.84c0 .02.02.04.05.04.07.02.14.05.2.1h.03a.06.06 0 0 0 .06-.02v-.03l.04-.75c-.16.02-.5-.07-.62-.18Z" fill="#6D6E71"/><path d="M23 30a.04.04 0 0 1 .01-.03h.03l.12.03a.14.14 0 0 1 .08.08.16.16 0 0 1 .01.11l-.02.08a.16.16 0 0 1-.07.1.14.14 0 0 1-.11.01l-.12-.04a.04.04 0 0 1-.02-.02v-.03l.08-.3Z" fill="#848588"/><path d="M32.66 29.97c.2-.02.3.07.3.27l-.03.17c-.14.08-.26.1-.36.03-.02-.03-.03-.04-.05-.03-.03-.17-.05-.37.14-.44Z"/><path d="M25.04 31.67c-.2.37-.85.18-1.16 0a.45.45 0 0 1-.23-.3c.01-.1.03-.19.07-.27 0-.02.02-.03.04-.02l.45.13c.04.01.05.03.03.07-.04.12 0 .22.12.24.03 0 .05 0 .07-.02l.1-.11c.01-.02.02-.04 0-.06-.1-.18-.3-.36-.45-.52a.46.46 0 0 1-.14-.33c0-.21.13-.42.37-.43.43-.03 1.17.15.96.73a.04.04 0 0 1-.05.03l-.41-.11c-.04-.01-.05-.03-.05-.06 0-.02 0-.04.02-.06a.08.08 0 0 0-.02-.09l-.1-.1c-.03-.02-.06-.02-.08 0l-.09.1c-.02.01-.02.03 0 .05l.47.51c.16.19.17.4.08.62Z" fill="#E7E8E9"/><path d="M35.18 30.12c0-.1.02-.1.02.02l.01.13c.01.03.03.04.06.04l.63.1c.06.02.12.04.18.08a.09.09 0 0 1 .04.1.1.1 0 0 1-.07.06l-.34.08c-.1 0-.17.04-.21.15a.15.15 0 0 0-.14-.08c-.03 0-.04.02-.04.04 0 .04-.03.08-.07.1-.09-.09-.16-.13-.23-.13a129.2 129.2 0 0 1-1.53 0 .14.14 0 0 0-.07.09l-.01.05v1.21a.08.08 0 0 0 .02.06.08.08 0 0 0 .05.02h.9c.04 0 .08.02.11.05l-.01.03c0 .02-.02.03-.04.03a10.34 10.34 0 0 1-1.1 0l-.02.24c0 .01 0 .02.02.02l1.1-.01c.02 0 .04-.02.04-.04v-.15c0-.02.01-.03.03-.03a.14.14 0 0 1 .07-.02c0 .08.03.15.06.22.01.02.03.04.06.03h.6a.11.11 0 0 0 .11-.09v-.05a.49.49 0 0 1 0-.2.07.07 0 0 1 .03-.02c.03 0 .05.01.06.03.05.13.04.25-.01.37a.07.07 0 0 0 0 .07l.02.02.02.08-.01 1.58c-.87.01-1.54.02-2.02 0-.1 0-.18-.05-.23-.16v-1.47l.02-.02h.03l.01.75v.7a.17.17 0 0 0 .1.15l.07.01 1.92.01a.06.06 0 0 0 .06-.06v-.27l-.01-1.26a.04.04 0 0 0-.04-.04c-.68-.02-1.37.04-2.04 0a.12.12 0 0 1-.08-.04.12.12 0 0 1-.03-.08l-.03-1.51c0-.01 0-.02-.02-.02h-.18c-.02 0-.03.02-.03.03l-.02.28v-.81c0-.04-.02-.06-.04-.1a.17.17 0 0 1-.03-.08l.04-.17c.03 0 .08 0 .12-.03.05 0 .09-.02.12-.04a9.1 9.1 0 0 1 1.91.13c.03 0 .05 0 .06-.03a.3.3 0 0 0 0-.15Z" fill="#E03C4B"/><path d="m17.44 30.16.62.32.04.42c0 .01 0 .02.02.02 0 0 .02 0 .02.02.02.01.02.03.01.06l-.69-.17-.02-.67Z" fill="#6D6E71"/><path d="M32.52 30.4c.02 0 .03 0 .05.04l.02 4.8c0 .03.02.05.04.05.12.04.24.04.36 0h1.98v.8H32.6a.13.13 0 0 1-.13-.13l-.03-.68.03-1.13c0-.1 0-.21-.02-.33l-.03-.33c.06-.24.09-.48.07-.72 0-.03-.02-.04-.04-.03-.03.01-.04.02-.04.04 0 .01-.02.02-.04.01 0-.06 0-.12.02-.17l-.01-.07-.14-.15c-.03-.08-.1-.12-.19-.1a2.55 2.55 0 0 1-.12-.07h-.06a.13.13 0 0 0-.06.03c-.03.04-.06.05-.1.02a.3.3 0 0 1 .1-.13.07.07 0 0 1 .07-.01c.2.07.39.18.54.31l.04.06v.03h.02V30.8a.59.59 0 0 1 .05-.4Z" fill="#3A3A3C"/><path d="M32.93 30.4c0 .05.02.08.03.1l.03 3.37c.03.12.04.25.03.4v.71a.2.2 0 0 1-.01.06c-.01.04 0 .07.02.1-.03.04-.04.09-.04.15a.65.65 0 0 1-.36 0c-.02 0-.04-.02-.04-.04l-.02-4.81c.1.06.23.05.36-.03Z" fill="#58585A"/><path d="M26.56 32.38c-.15.02-.32 0-.52-.08-.03 0-.04-.03-.03-.06l.03-.1c.01-.03 0-.04-.02-.02a.81.81 0 0 1-.17.09.29.29 0 0 1-.2 0 3.2 3.2 0 0 0-.2-.05c-.1-.03-.19-.12-.27-.29a5.4 5.4 0 0 1 .32-1.22c.18-.36.89-.14 1.16 0 .23.13.3.33.2.62 0 .03-.02.04-.05.03l-.47-.12c-.03-.01-.04-.03-.02-.06l.04-.1a.07.07 0 0 0 0-.07.25.25 0 0 0-.2-.12.14.14 0 0 0-.15.1l-.25.9c0 .03 0 .06.02.08a.3.3 0 0 0 .22.08l.05-.01.03-.04.07-.17c.01-.03.01-.05-.01-.07a.17.17 0 0 0-.12-.05.04.04 0 0 1-.02-.01.03.03 0 0 1 0-.03l.06-.21c0-.03.03-.04.05-.03l.59.17c.05.01.08.05.06.1l-.2.74Z" fill="#E7E8E9"/><path d="M22.8 30.67a.04.04 0 0 1 .05-.03l.1.03a.2.2 0 0 1 .06.03c.02 0 .04.02.05.04l.02.05a.1.1 0 0 1 0 .05l-.04.14c0 .04-.03.06-.07.08a.19.19 0 0 1-.12 0l-.1-.02a.04.04 0 0 1-.04-.06l.09-.3Z" fill="#848588"/><path d="M32.27 30.8h.2v1.74h-.01a.01.01 0 0 1-.01 0v-.03a.08.08 0 0 0-.04-.06 1.95 1.95 0 0 0-.57-.32c-.02 0-.03 0-.04.02a.3.3 0 0 0-.1.13l-.27-.05c-.04 0-.06-.03-.06-.07 0-.04-.01-.07-.05-.1-.04 0-.05-.03-.04-.07.02-.05 0-.08-.04-.1a.07.07 0 0 1-.03-.08c0-.1 0-.2.1-.27.11-.1.2-.2.36-.25.25-.1.45-.26.6-.5Z" fill="#A7A9AC"/><path d="M35.25 30.94v.18l.14 1.03.01.11c-.01.05 0 .12.01.21a.11.11 0 0 1-.06.12.11.11 0 0 1-.04.02h-.61a.06.06 0 0 1-.06-.03.64.64 0 0 1-.06-.22c-.03-.05-.06-.07-.09-.07a.18.18 0 0 0-.11-.05 30.9 30.9 0 0 0-.95-.02.08.08 0 0 1-.03-.06v-1.21a.14.14 0 0 1 .05-.1.15.15 0 0 1 .1-.04h1.47c.07 0 .14.04.23.13Z" fill="#DBF1FD"/><path d="m35.5 30.88.4 1.11c.03.1.1.11.23.06h.02c.01 0 .02 0 .02.02l-.01.02c-.02.03-.02.03 0 0l.03-.01a.07.07 0 0 1 .06-.02l1.01.13a9.65 9.65 0 0 1 2.3.6c.14.06.23.14.27.24.11.2.17.37.18.52a9.5 9.5 0 0 1-.02.94c-.02.01-.03 0-.03-.01l-.04-.53c0-.02 0-.03-.02-.05a.2.2 0 0 1-.05-.16.52.52 0 0 0-.14-.43.1.1 0 0 0-.05-.02l-.02-.01c.07-.1.1-.22.06-.34l-.02-.02h-.02c-.02 0-.02 0-.02.03v.13a.06.06 0 0 1-.01.04l-.08.08c-.03.02-.02.04.01.05l.08.03c.14.14.2.3.18.5 0 .02 0 .05.02.08a.3.3 0 0 1 .03.24.2.2 0 0 0 0 .09c0 .03 0 .06-.02.08a.06.06 0 0 1-.06.03.34.34 0 0 0-.2.02l-.16-.05c-.02-.01-.05-.01-.07 0-.07.02-.13.01-.18-.04a1.65 1.65 0 0 0-.8-.53c-.12-.04-.25-.1-.38-.1-.42 0-.94-.06-1.33.07-.18.06-.36.16-.53.29-.08.06-.09.08-.02.08l-.2.24-.11.05a.06.06 0 0 0-.03.03c-.02.04-.05.05-.1.06l-.06-.03c-.05-.06-.09-.05-.1 0l.01-1.57c0-.03 0-.05-.02-.08l-.02-.02a.07.07 0 0 1 0-.07.43.43 0 0 0 0-.37.05.05 0 0 0-.05-.03l-.04.01v-.11a.5.5 0 0 0 0-.48.14.14 0 0 1-.03-.07v-.42c-.02-.07-.06-.09-.13-.06v-.18a.13.13 0 0 0 .08-.1c0-.02.01-.04.04-.04.06 0 .1.03.14.08Z" fill="#BE272D"/><path d="M35.47 34.04a.55.55 0 0 0-.36-.07.12.12 0 0 1-.12-.07.12.12 0 0 1-.01-.05l-.03-.44c.02-.12 0-.2-.08-.26-.05-.03-.1-.03-.15 0-.05.04-.08.1-.07.17v.47l-.04.01c-.03.01-.04 0-.05-.03 0-.07-.01-.1-.04-.08-.04-.19-.3-.22-.19-.46a.05.05 0 0 1 .06-.04c.02 0 .03.01.04.03a.1.1 0 0 1 .02.06l.01.16c.02.04.03.04.05 0 .05-.13.02-.24-.09-.32a.94.94 0 0 0-.32.13c-.06-.1-.14-.13-.25-.1a.05.05 0 0 0-.04.06v.2c0 .12-.16.15-.48.1v-.76h-.04l-.01.02v1.47c-.1-.04-.2-.03-.26.02.01-.14 0-.27-.03-.4L33 31.4l.02-.28c0-.01 0-.02.03-.02H33.25l.02 1.52c0 .03.02.06.04.08l.07.04c.68.04 1.37-.02 2.05 0a.04.04 0 0 1 .04.04v1.26Z" fill="#BE272D"/><path d="M19.86 31.8a298.77 298.77 0 0 0 3.42 1.82c.25.12.48.2.7.25a21.51 21.51 0 0 0 1.29.22c-.76-.01-1.5-.02-2.22-.01a.28.28 0 0 1-.15-.05l-3.75-2.39-.09-.36c-.01-.05 0-.05.03-.01a.8.8 0 0 0 .3.28l.47.25Z" fill="#A7A9AC"/><path d="m17.47 31.47.12.2a.08.08 0 0 0 .06.03l.53.06a21.68 21.68 0 0 0-.7.62l-.16.14-.17.14c-.06.03-.1.07-.15.11a.08.08 0 0 1-.07.02c-.12-.02-.2.02-.26.13-.02-.2-.35-.44-.48-.49a.36.36 0 0 1-.26-.32c.16-.19.36-.37.6-.55.27-.2.58-.23.94-.09Z" fill="#6D6E71"/><path fill-rule="evenodd" d="m18.6 28.13-.1.31-.14.37a.1.1 0 0 0 0 .08l.52 1.8c.01.02.03.04.05.04.08.02.14.05.2.1h.03a.06.06 0 0 0 .06-.02v-.03l.04-.75c.13-.62.36-1.2.69-1.77a.4.4 0 0 1 .24-.03l-.22.33a4.08 4.08 0 0 0-.55 2.46c0 .03.02.05.05.06.87.25 1.87.46 2.91.68 2.2.46 4.56.95 6.2 1.98.06.03.12.03.18.03.05 0 .1 0 .15.02l.27.06c-.02.05-.01.09.01.11.02.02.04.02.06 0 .12-.13.27-.18.47-.14a12.25 12.25 0 0 1 .47.09l.02-.02.01-.02a.03.03 0 0 0-.02-.04l-.69-.15h-.01v-.05l.02-.01h.02l.63.1c.03 0 .04 0 .04-.03v-.02l-.01-.02-.42-.06c-.1-.02-.1-.04 0-.06a2.4 2.4 0 0 1 .42-.03l.01-.01v-.02c0-.03-.02-.04-.04-.04l-.52.06c-.02-.1.01-.21.09-.33.21-.54.39-1.08.52-1.65l.1-.28-.02-.61c0-.3.01-.5.05-.62.08-.28.26-.49.54-.63.46-.17.84-.1 1.14.19.36.34.42.76.2 1.24-.15.23-.35.4-.6.49-.13.04-.21.11-.3.2l-.07.05c-.07.06-.08.15-.1.24v.03c0 .03.01.06.04.07.05.03.06.06.04.11-.01.04 0 .06.04.08.04.02.06.05.05.1 0 .03.02.05.06.06l.28.05c.03.03.06.02.1-.02.12.06.2.07.23.03.1 0 .16.03.2.1-.07.08-.1.2-.08.38a.2.2 0 0 0-.12 0l-.69-.14c-.02 0-.04 0-.05.02l-.04.11c-.08 0-.13 0-.15.03-.01.02 0 .03.02.03l.29-.02h.2c.02 0 .04.02.04.05v.48c0 .03 0 .05.02.07.05.05.08.12.1.23.01.16.07.3.17.44.02.03.01.04-.03.04h-.2a.07.07 0 0 0-.07.07l.02 1.85c0 .09-.05.14-.18.16a.1.1 0 0 1-.11-.1l.02-.71c0-.03 0-.05-.02-.07a.1.1 0 0 1-.01-.08l.01-.15c0-.71 0-1.42.03-2.14 0-.04-.02-.06-.06-.06h-.7c-.03 0-.05.02-.05.06v3.15c0 .02 0 .04-.03.04a.4.4 0 0 0-.22.14c-.08.03-.14-.05-.17-.24a.2.2 0 0 0 .04-.1 254.94 254.94 0 0 0-.02-1.8.06.06 0 0 0-.04-.01h-.96l.01 1.15v1.05c0 .03-.01.05-.04.06a.14.14 0 0 1-.1 0c-.02 0-.04-.02-.04-.05v-.08l-.01-1.5c0-.02 0-.03-.02-.05a.06.06 0 0 0-.04-.02l-.14.01c-.1 0-.2.01-.27-.02-.05-.03-.08-.08-.08-.15a.06.06 0 0 0-.06-.06h-9.33c-.06 0-.1.01-.16.03l-.07.02.01-.03c0-.02-.01-.03-.03-.03h-.36a.06.06 0 0 1-.06-.03.4.4 0 0 1-.03-.15l.02-.2v-1.96a.6.6 0 0 1 0-.26v-.03h-.04a.3.3 0 0 1-.17.15.15.15 0 0 0-.1.07.14.14 0 0 1-.05.05c-.12.09-.22.18-.3.3a.18.18 0 0 1-.08.06c-.1.04-.18.1-.25.19-.06.09-.14.17-.24.23l-.24.2a.05.05 0 0 1-.07.02.21.21 0 0 0-.16-.01c-.03 0-.05-.02-.06-.04 0-.04 0-.08.03-.12.05-.11.14-.15.26-.13.02 0 .05 0 .07-.02l.15-.11.17-.14c.05-.05.1-.1.17-.14l.17-.14.52-.48-.53-.06-.03-.01a.08.08 0 0 1-.03-.02l-.12-.2v-.64l.68.17v-.06l-.03-.02c-.01 0-.02 0-.02-.02l-.04-.42-.62-.32c-.08-.24-.1-.53-.06-.88 0-.01.02-.02.06-.02l.64.26.05-.46c-.01-.1-.05-.16-.14-.2l-.52-.53c-.04-.05-.03-.07.03-.07h.3c.06 0 .1.02.13.05l.19.15c.02.02.05.02.06-.01l.17-.28a.06.06 0 0 1 .05-.03l.2-.01Zm2.8 5.95h-1.07l-.88-1.87 1.97 1.85c.02.02.01.02-.01.02Zm1.5-.05-3.75-2.39-.09-.36c-.01-.05 0-.05.03-.01a.8.8 0 0 0 .3.28l.47.25a297.18 297.18 0 0 0 3.42 1.82c.25.12.48.2.7.25a21.5 21.5 0 0 0 1.29.22c-.76-.01-1.5-.02-2.22-.01a.28.28 0 0 1-.15-.05Z" fill="#474749"/><path d="m18.4 32.1-1.58 1.4c0-.16.04-.35-.12-.42.05-.02.1-.02.16 0 .03.02.05.01.07 0 .08-.08.16-.15.24-.2.1-.07.18-.15.24-.24a.55.55 0 0 1 .25-.19.18.18 0 0 0 .07-.06c.09-.12.19-.21.31-.3a.14.14 0 0 0 .05-.05.15.15 0 0 1 .1-.07.3.3 0 0 0 .17-.15h.03l.02.01v.02a.6.6 0 0 0-.02.26Z" fill="#6D6E71"/><path d="M18.4 32.1v1.97l-.02.2-.34.3h-.93c-.02 0-.04.02-.04.04l-.02.27-.7-1.12c.21.02.37-.07.47-.26l1.57-1.4Z" fill="#A7A9AC"/><path d="M38.04 32.9a4.54 4.54 0 0 0-.55 0 .18.18 0 0 1-.13-.05.12.12 0 0 0-.06-.03 1.05 1.05 0 0 0-.39.01c-.23.04-.46.03-.7-.03.21-.04.43-.06.64-.05h.07c.02-.04 0-.06-.04-.06h-.6a.1.1 0 0 0-.07.02c-.02.02-.05.03-.08.02a.06.06 0 0 0-.07.03v.03l-.01 1c0 .07-.03.12-.09.17-.03.02-.03.02-.02-.02a.36.36 0 0 1 .04-.08.13.13 0 0 0 .03-.07v-1.03a.1.1 0 0 0 .03-.05c0-.03 0-.04-.02-.06-.1-.12-.17-.41.01-.49.05-.02.05-.01.02.02-.09.1-.1.23-.04.37a.1.1 0 0 0 .11.07 20 20 0 0 1 .66 0c.07 0 .13 0 .19.04.02.02.05.02.08.03h.65c.01 0 .02.01.02.03v.02l-.02.01h-.32l-.02.01a.03.03 0 0 0 .01.05c.14.04.27.03.37-.03a.15.15 0 0 1 .08-.02 3.53 3.53 0 0 1 .46.02v.03c0 .01 0 .02-.02.02h-.17c-.04.01-.06.03-.05.07Z" fill="#E03C4B"/><path d="m19.45 32.2 1.97 1.86c.02.02.01.02-.01.02h-1.08l-.88-1.87Z" fill="#A7A9AC"/><path d="M34.5 32.3c.02 0 .05.01.08.06-.03 0-.06 0-.08.02a.06.06 0 0 0-.02.06v.12c0 .02-.02.04-.04.04h-1.1l-.02-.01.01-.24.02-.01c.37.02.73.03 1.09.01.02 0 .03-.01.04-.03l.01-.03Z" fill="#BE272D"/><path d="m32.23 32.4.14.15c.01.02.02.04.01.07a.5.5 0 0 0-.02.17 2.34 2.34 0 0 0-.05.4l-.01-.02a1.34 1.34 0 0 0-.14-.4c-.01-.18.01-.3.07-.37ZM32.04 32.77l-.27.86a.43.43 0 0 0-.09-.23.1.1 0 0 1-.02-.07v-.48c0-.03-.02-.04-.04-.04l-.2-.01c-.11 0-.17 0-.16-.04l.04-.1c0-.03.03-.04.05-.03l.69.14Z" fill="#A7A9AC"/><path d="M31.26 32.76c0 .03.05.05.16.04l-.29.02c-.02 0-.03-.01-.02-.03.02-.03.07-.04.15-.03Z" fill="#848588"/><path d="M32.16 32.77c.07.12.11.26.14.4l.01.01h.01c0-.13.02-.26.04-.39h.04a.6.6 0 0 1 0 .43c-.06.12-.06.2 0 .27l.04.33c.02.12.02.23.02.33 0 .38-.02.75-.03 1.13h-.48c-.02 0-.04.01-.04.04v.52c0 .12-.05.19-.14.2h-.1l-.03-1.86a.07.07 0 0 1 .02-.04.07.07 0 0 1 .05-.02h.21c.04 0 .05-.02.03-.05a.91.91 0 0 1-.18-.44l.27-.86a.2.2 0 0 1 .12 0Z"/><path d="M38.04 32.9c.1.02.18 0 .24-.04a.12.12 0 0 1 .07-.02h.34a.03.03 0 0 1 .03.04l-.02.01a.18.18 0 0 0-.12.05.1.1 0 0 1-.07.03h-.39c-.05 0-.08-.02-.08-.07Z" fill="#E03C4B"/><path d="M20.49 32.86h.01l1.9 1.21.01.01h-.58v-.01l-1.34-1.2v-.01Z" fill="#A7A9AC"/><path d="M36.21 32.8c.24.06.47.07.7.03.2.1.24.29.28.48v.02a.05.05 0 0 1-.02.04h-.75c-.06 0-.1-.03-.11-.1l-.1-.47Z" fill="#58585A"/><path d="M31.67 36.03h.1a.48.48 0 0 0-.14.2.05.05 0 0 1-.05.03h-1.23a.4.4 0 0 1 .22-.13c.02 0 .03-.02.03-.05v-3.14c0-.04.02-.05.05-.05h.7c.04-.01.06.01.06.05a48.68 48.68 0 0 0 0 2.44l-.03.7a.1.1 0 0 0 .11.1c.12-.01.18-.06.18-.15Z" fill="#6D6E71"/><path d="M36.37 33.28c-.03-.11-.06-.23-.05-.34 0-.03.01-.03.03-.02.14.09.2.2.2.35 0 .02-.02.04-.04.04l-.08.02-.04-.01a.06.06 0 0 1-.02-.04Z" fill="#752B2E"/><path d="M38.68 32.97c.1-.06.22-.07.36-.04.04.01.05.03.02.06l-.02.02a.1.1 0 0 1-.07.03l-.34.01h-.03l-.02-.03c0-.03.01-.05.04-.04l.06-.01Z" fill="#E03C4B"/><path d="M36.6 33c-.01-.03 0-.05.03-.05h.04c.04 0 .07.02.08.06l.08.23c.01.05 0 .08-.06.08h-.04a.1.1 0 0 1-.1-.08L36.6 33ZM37.04 33.31h-.08l-.04-.01a.06.06 0 0 1-.02-.04l-.03-.22c0-.1.03-.13.1-.06.08.05.12.15.13.28a.06.06 0 0 1-.02.04h-.02l-.02.01Z" fill="#752B2E"/><path d="M32.02 33.95a.26.26 0 0 0 .04-.22.07.07 0 0 0-.05-.06c-.04-.01-.07 0-.11.03 0-.24.08-.47.22-.69.02-.03.03-.02.04 0 .11.34.19.69.23 1.04 0 .03-.01.04-.04.05-.16.03-.27-.02-.33-.15Z" fill="#A7A9AC"/><path d="M39.35 33.07c-.01.05 0 .06.05.03.04-.03.08-.04.13-.03a.04.04 0 0 1 .03.03v.02l-.02.02c-.09.08-.16.08-.2.01a.07.07 0 0 0-.06-.03h-.17c-.09 0-.1-.03-.03-.08a.28.28 0 0 1 .22-.05c.05 0 .07.04.05.08Z" fill="#E03C4B"/><path d="M34.42 33.12c-.09.02-.19.06-.2.17-.03.28.28.33.23.57-.01.04-.04.06-.07.06h-.04a.03.03 0 0 1-.02-.03v-.01c.02-.08 0-.14-.05-.18-.02-.02-.03-.02-.04 0-.02.11 0 .2.07.25a.13.13 0 0 0 .2-.04.44.44 0 0 0 .03-.22c.02-.02.03 0 .03.08 0 .03.02.04.05.03h.04c0 .12.05.19.13.18.03 0 .05-.01.04-.05 0-.02-.01-.03-.03-.03a.05.05 0 0 1-.05-.05 1.67 1.67 0 0 1 .01-.62c.01-.03.03-.04.06-.02.05.04.07.1.06.17 0 .02 0 .05.02.07.04.03.06.02.06-.04l.03.44a.12.12 0 0 0 .09.11h.04c.14-.01.26.01.36.08v.27a.06.06 0 0 1-.01.04.06.06 0 0 1-.04.02H33.5a.17.17 0 0 1-.17-.18v-.69c.32.06.48.03.47-.08v.49a.09.09 0 0 0 .1.08h.11c.06-.02.1-.05.1-.12v-.25l-.01-.03h-.02c-.01-.02-.02-.03-.01-.04.03-.1.05-.2.03-.3a.94.94 0 0 1 .32-.13Z" fill="#752B2E"/><path d="M34.95 33.41c0 .06-.02.07-.06.04a.07.07 0 0 1-.02-.07c.01-.07 0-.13-.06-.17-.03-.02-.05-.01-.06.02-.04.2-.04.4 0 .62 0 .03.01.04.04.05.02 0 .03.01.03.03 0 .04 0 .05-.04.05-.08 0-.13-.06-.13-.19v-.47c0-.08.02-.13.07-.17.05-.03.1-.03.15 0 .07.05.1.14.08.27ZM34.42 33.12c.11.08.14.19.09.32-.02.04-.03.04-.05 0a.44.44 0 0 1 0-.16.1.1 0 0 0-.03-.06.06.06 0 0 0-.04-.03c-.03 0-.04.01-.06.04-.1.24.15.27.2.46 0 .1 0 .16-.02.22a.13.13 0 0 1-.1.07.13.13 0 0 1-.1-.03c-.08-.06-.1-.14-.08-.24 0-.03.02-.03.04-.01.05.04.07.1.05.18v.01a.03.03 0 0 0 .02.02h.04c.03 0 .06-.01.07-.05.05-.24-.26-.3-.23-.57.01-.1.11-.15.2-.17Z" fill="#E7E8E9"/><path d="m33.89 33.21.02-.01a.1.1 0 0 1 .05 0l.03.03.03.04.01.05v.07c0 .03 0 .07-.03.1a.1.1 0 0 1-.07.03h-.01a.02.02 0 0 1-.02 0v-.01l-.01-.3ZM39.64 33.28h.02a.1.1 0 0 1 .05.03c.1.12.15.27.14.43-.01.06 0 .12.05.16l.02.05.04.53c0 .02.01.02.03.01H40c-.04.25-.01.43.1.54h-1.08c-.01 0-.03 0-.06-.03.14-.13.37-.08.6-.06h.04c.02-.02.02-.04 0-.05-.04-.02-.06-.05-.07-.07.07-.02.1-.06.09-.14a.13.13 0 0 0 .05-.1c0-.02 0-.05-.03-.1a.56.56 0 0 1-.06-.16.34.34 0 0 1 .2-.02c.03 0 .05 0 .06-.03.02-.02.03-.05.02-.08a.2.2 0 0 1 0-.09.3.3 0 0 0-.03-.24.12.12 0 0 1-.02-.08.6.6 0 0 0-.18-.5Z" fill="#752B2E"/><path d="M29.18 33.85c.11-.2.27-.31.47-.36l.52-.06c.02 0 .04.01.04.04v.02a.02.02 0 0 1-.02.02c-.16 0-.3 0-.41.02-.1.02-.1.04 0 .06a5.74 5.74 0 0 0 .43.08v.02c0 .03-.01.03-.04.03l-.63-.1a.03.03 0 0 0-.04.01v.05h.01l.69.15a.03.03 0 0 1 .01.06l-.02.02h-.01l-.46-.1c-.2-.03-.36.02-.47.15-.02.02-.04.02-.06 0-.02-.02-.03-.06 0-.11Z"/><path d="M34.94 33.99a.14.14 0 0 0-.08-.09c-.02 0-.03-.02-.02-.05l.03-.07c.03-.05 0-.13-.05-.16a.03.03 0 0 1 .02-.06c.03 0 .06 0 .09.02a.06.06 0 0 1 .02.04V34c0 .02 0 .02 0 0Z" fill="#E7E8E9"/><path d="M33.98 33.59h-.04a.05.05 0 0 0-.04.05v.23c0 .02.03.05.05.04H34c.03 0 .05-.02.05-.05v-.23a.05.05 0 0 0-.06-.04Z" fill="#BE272D"/><path d="M39.6 34.32c0 .06.02.12.05.17.02.04.04.07.03.1 0 .03-.02.07-.05.1a.65.65 0 0 0-.12-.28.08.08 0 0 0-.06-.03h-.2c-.6-.73-1.5-.86-2.4-.69-.27.05-.52.17-.73.35-.06 0-.06-.02.02-.08.17-.13.35-.23.53-.29.4-.13.9-.06 1.33-.06.13 0 .26.05.39.09.32.1.58.27.8.53.04.05.1.06.17.04.02-.01.05-.01.07 0l.16.05Z" fill="#E03C4B"/><path d="M39.25 34.37c-.12 0-.19.07-.2.24a2.85 2.85 0 0 0-1.1-.51 2.27 2.27 0 0 0-2.75 1.97 3.7 3.7 0 0 1-.04.26.43.43 0 0 1-.13-.03.06.06 0 0 1-.04-.06l-.02-.16v-.79c.04-.03.05-.08.01-.15a.3.3 0 0 1 0-.22.06.06 0 0 1 .06-.03c.24 0 .42-.08.54-.26a.11.11 0 0 1 .06-.05.4.4 0 0 1 .15 0c.05 0 .06-.02.04-.06-.03-.08 0-.16.08-.24l.2-.24c.22-.18.47-.3.75-.35.88-.17 1.8-.04 2.4.68Z" fill="#58585A"/><path d="M39.04 34.61c-.03.05-.04.13-.02.23 0 .03.02.04.05.04.16.02.31 0 .47-.06l.06.07c.03.02.03.03 0 .05a.06.06 0 0 1-.03 0c-.23-.02-.46-.07-.6.06l-.06-.02c-.01 0-.02 0 0 .03-.4-.52-.86-.77-1.43-.75-.37.02-.71.14-1.02.37a1.95 1.95 0 0 0-.66.94l.02.01a.14.14 0 0 0-.07.09c-.07.26-.09.52-.06.77 0 .03-.01.04-.04.04h-.43c-.03 0-.04 0-.05-.03v-.12l.03-.26c.06-.56.34-1.1.76-1.45.58-.5 1.25-.67 1.99-.52.35.07.71.24 1.1.51Z" fill="#474749"/><path d="M30.18 36.03h-.58a.14.14 0 0 1-.14-.12c-.02-.2-.01-.4 0-.59.01-.02 0-.04-.03-.04h-.22v-1.16h.97l.02.01a.06.06 0 0 1 .01.04v1.76c0 .04-.01.06-.03.1Z"/><path d="M33.27 34.24c.05.11.13.17.23.17l2.02-.01c.02-.06.05-.07.1-.01.02.02.04.03.07.03.04 0 .07-.02.09-.06 0-.02.01-.03.03-.03l.1-.05c-.08.08-.11.16-.08.24.02.04 0 .06-.04.05a.4.4 0 0 0-.15.01.11.11 0 0 0-.06.05c-.12.18-.3.27-.54.26a.06.06 0 0 0-.05.03.3.3 0 0 0 0 .22h-1.96c-.03-.03-.03-.06-.02-.1a.2.2 0 0 0 0-.06l.01-.72c.07-.05.15-.06.25-.02Z" fill="#752B2E"/><path d="m38.9 35 .01.55v.02c-.04.02-.05.06-.04.12a1.52 1.52 0 0 1-1.52 1.9 1.46 1.46 0 0 1-1.23-.67c-.27-.41-.3-.83-.2-1.3 0-.02-.01-.04-.04-.04h-.06l-.02-.01v-.02c.14-.39.36-.7.66-.92.3-.23.65-.35 1.02-.37.57-.02 1.04.23 1.42.75Z"/><path d="M18.38 34.27c0 .06.01.11.03.15.01.03.03.04.06.04l.36-.01c.02 0 .03 0 .03.03l-.01.03a2.4 2.4 0 0 0-.9.75c-.07.2-.08.42-.02.65l-.04.85a.03.03 0 0 1-.02.03h-.04c-.02 0-.02-.02-.02-.03v-1.03c.01-.16 0-.29-.04-.37a2.7 2.7 0 0 1-.03-.41c0-.1.04-.18.12-.24l.18-.13.34-.3Z" fill="#58585A"/><path d="M29.02 36.25h-.4c-.03 0-.05 0-.06.03-.07.22-.2.44-.4.63-.35.3-.76.4-1.21.32a1.25 1.25 0 0 1-.65-.34c-.15-.14-.27-.3-.35-.47a.13.13 0 0 1-.01-.06v-.03c0-.06-.02-.06-.03 0-.03.21-.1.4-.2.59-.27.43-.67.68-1.18.74l-.48.08c-.2.04-.44.02-.71-.05-.5-.12-.86-.43-1.06-.9 0-.04-.02-.04-.04 0-.14.29-.35.51-.62.67a1.9 1.9 0 0 1-.59.2l-.6.1a1.8 1.8 0 0 1-.99-.2 1.52 1.52 0 0 1-.66-1.98l.8.07c-.22.28-.28.55-.19.8.15.42.6.7 1.03.53.6-.23.76-.9.3-1.37l.8.01a.05.05 0 0 0 .04-.06.49.49 0 0 0-.06-.14 1.55 1.55 0 0 0-2.54-.16h-1c.25-.34.54-.59.88-.75.08-.02.15-.05.24-.05a29011.95 29011.95 0 0 0 9.37.02.06.06 0 0 1 .02.04c0 .07.03.12.08.15.1.05.29 0 .4.01a.06.06 0 0 1 .07.07v1.5Z"/><path d="M27.97 35.9c-.02-.29-.13-.5-.35-.62-.41-.25-.76-.15-1.04.28l-.7.01.13-.32c.16-.32.4-.54.7-.65.88-.34 1.88.25 1.9 1.22 0 .03 0 .04-.04.05l-.6.03ZM37.62 35.27a.88.88 0 0 0-.85.26l-.75-.02a.05.05 0 0 1-.04-.03.05.05 0 0 1 0-.04 1.55 1.55 0 0 1 2.68-.25v.02a.05.05 0 0 1-.05.03l-1 .03Z" fill="#2E2E2F"/><path d="m18.04 34.58-.18.13c-.08.06-.12.13-.12.24 0 .14.01.28.03.4h-.65c-.03 0-.04 0-.04-.03l-.03-.44.02-.27c0-.02.02-.03.04-.03h.93Z" fill="#474749"/><path d="m20.45 34.64-.05-.01c-.02-.02-.02-.03.01-.03.82-.06 1.5.36 1.72 1.16v.01a.03.03 0 0 1-.03.02l-.19.04-.01-.02a1.57 1.57 0 0 0-1.1-1.09c-.1-.03-.22-.03-.32-.08a.04.04 0 0 0-.03 0ZM24.07 34.66a1.21 1.21 0 0 0-.17-.02v-.03l.02-.01c.4-.03.74.03 1 .19.58.35.84.87.76 1.55 0 .04-.02.06-.05.06h-.08c-.04 0-.06-.02-.06-.06-.02-.93-.5-1.5-1.42-1.69Z" fill="#2E2E2F"/><path d="M20.71 35.6c-.4-.28-.77-.26-1.13.05l-.8-.07.18-.32a1.55 1.55 0 0 1 2.54.16l.06.14a.05.05 0 0 1 0 .04.05.05 0 0 1-.05.02l-.8-.01ZM24.37 35.74a.8.8 0 0 0-.71-.34.79.79 0 0 0-.64.37l-.64-.04c-.02 0-.04-.01-.05-.04l-.03-.1.2-.33c.23-.3.52-.48.87-.56.34-.07.66-.04.96.1a1.59 1.59 0 0 1 .82.86.04.04 0 0 1-.05.04c-.25-.02-.5 0-.73.04Z" fill="#2E2E2F"/><path d="m38.97 35 .06.03h1.07l-.05.03c0 .02.02.03.05.04h-1.04a.06.06 0 0 0-.06.05v.35c0 .03-.01.04-.04.05h-.05V34.98l.06.02Z" fill="#E03C4B"/><path d="M40.1 35.1v.4a.1.1 0 0 1-.02.06.1.1 0 0 1-.07.03h-.86c-.08 0-.17.05-.25-.02l.01-.02h.05c.03 0 .04-.02.04-.05v-.34a.06.06 0 0 1 .02-.05.06.06 0 0 1 .04-.01h1.04Z" fill="#752B2E"/><path d="M33.03 35.14h1.95c.04.07.03.12-.01.15h-1.98c0-.06 0-.11.04-.15Z" fill="#A7A9AC"/><path d="M27.97 35.9a.8.8 0 0 1-.28.54.73.73 0 0 1-1.1-.2.7.7 0 0 1-.01-.68c.28-.43.63-.53 1.05-.28.2.12.32.33.34.62Z" fill="#D0D1D3"/><path d="M17.96 35.26h1l-.18.32c-.16.3-.19.67-.08 1.1a4.34 4.34 0 0 1-.77-.77c-.06-.23-.05-.45.03-.65ZM22.5 35.26l-.2.33-.16-.3c0-.02 0-.03.03-.03h.32ZM26 35.25l-.11.32-.03.08c-.01.05-.02.05-.03 0a.8.8 0 0 0-.16-.34c-.02-.03-.01-.05.03-.05l.3-.01Z" fill="#A7A9AC"/><path d="M37.62 35.27c.34.14.53.36.57.67a.8.8 0 0 1-.61.9c-.5.14-.96-.27-1-.75-.03-.16.04-.35.19-.56a.88.88 0 0 1 .85-.26Z" fill="#D0D1D3"/><path d="m29.21 35.27.22.01c.03 0 .04.02.04.04-.02.2-.02.4 0 .59a.14.14 0 0 0 .13.12h.58c.03.2.09.27.17.24l1.23-.01c.02 0 .04-.01.05-.04a.48.48 0 0 1 .14-.18c.1-.01.14-.08.14-.2v-.52c0-.03.02-.04.04-.04h.48l.03.68a.13.13 0 0 0 .13.13h2.38l.02.15c0 .03.01.05.03.06.04.01.09.03.14.03l.02.12c0 .02.01.03.04.03h.43c.03 0 .04-.01.04-.04-.03-.25 0-.51.06-.77a.14.14 0 0 1 .07-.09h.06c.03 0 .04.02.03.04-.09.47-.06.89.21 1.3h-7.96c.2-.2.33-.42.4-.64 0-.02.03-.04.05-.04l.41.01v.08c.01.03.03.05.06.06h.1a.06.06 0 0 0 .03-.07v-1.05ZM17.52 35.36h.25c.04.08.06.2.03.38a1.28 1.28 0 0 1-.28-.38Z" fill="#A7A9AC"/><path d="M20.71 35.6c.47.47.3 1.15-.29 1.38-.42.16-.88-.11-1.03-.52-.1-.26-.03-.53.19-.8.36-.32.74-.34 1.13-.05ZM24.37 35.74c.22.38.2.71-.05 1a.81.81 0 0 1-.92.22c-.32-.14-.5-.4-.52-.8 0-.06.04-.2.15-.4a.79.79 0 0 1 .63-.36c.3 0 .53.1.71.34Z" fill="#D0D1D3"/><path d="M27.23 36.16a.28.28 0 1 0 0-.56.28.28 0 0 0 0 .56ZM37.4 36.37a.31.31 0 1 0 0-.63.31.31 0 0 0 0 .63ZM20.17 36.52a.31.31 0 1 0 0-.62.31.31 0 0 0 0 .62ZM23.7 36.52a.31.31 0 1 0 0-.62.31.31 0 0 0 0 .62Z"/><path d="M29.04 38.47a.04.04 0 0 1 0-.03.04.04 0 0 1 .03 0h.13l.05.05a.2.2 0 0 1 .04.06V39.76c0 .06 0 .1-.04.15a.15.15 0 0 1-.11.05h-.07a.04.04 0 0 1-.03-.02v-1.46Z" fill="#6D6E71"/></svg>