<!-- by TradingView --><svg xmlns="http://www.w3.org/2000/svg" width="56" height="56" viewBox="0 0 56 56"><path fill="#00A3AD" d="M0 0h56v56H0z"/><path d="M29.16 16.37a9.48 9.48 0 0 1 4.6-2.29 9.37 9.37 0 0 1 1.65 4.88 10.1 10.1 0 0 0-4.35 1.66 9.73 9.73 0 0 0-1.9-4.25ZM28 15.11a10.65 10.65 0 0 1 4.53-2.5A10.42 10.42 0 0 0 28 10a10.48 10.48 0 0 0-4.53 2.61 11.32 11.32 0 0 1 4.53 2.5Zm-7.4 3.85a9.48 9.48 0 0 1 1.64-4.88 9.32 9.32 0 0 1 4.6 2.3 10.12 10.12 0 0 0-1.9 4.24 9.79 9.79 0 0 0-4.34-1.66Zm-1.71-.07a10.65 10.65 0 0 0-4.97 1.43 10.45 10.45 0 0 1 1.35-5.05 10.45 10.45 0 0 1 5.05-1.35 10.81 10.81 0 0 0-1.44 4.97Zm-2.51 7.95a10.25 10.25 0 0 1 4.24-1.9 9.4 9.4 0 0 1-1.66-4.35 9.26 9.26 0 0 0-4.87 1.64 9.53 9.53 0 0 0 2.29 4.61ZM15.1 28a10.65 10.65 0 0 0-2.5 4.53A10.36 10.36 0 0 1 10 28a10.42 10.42 0 0 1 2.61-4.53 11.22 11.22 0 0 0 2.5 4.53Zm3.85 7.4a10.24 10.24 0 0 1 1.66-4.35 9.47 9.47 0 0 1-4.25-1.9 9.27 9.27 0 0 0-2.28 4.61 9.5 9.5 0 0 0 4.87 1.64Zm-.07 1.71a10.68 10.68 0 0 0 1.43 4.97 10.43 10.43 0 0 1-5.05-1.35 10.5 10.5 0 0 1-1.35-5.05 11.3 11.3 0 0 0 4.97 1.43Zm7.95 2.51a9.49 9.49 0 0 1-4.6 2.29 9.4 9.4 0 0 1-1.65-4.87 10.1 10.1 0 0 0 4.35-1.66 9.72 9.72 0 0 0 1.9 4.24ZM28 40.9a10.65 10.65 0 0 1-4.53 2.5A10.42 10.42 0 0 0 28 46a10.5 10.5 0 0 0 4.53-2.61 11.28 11.28 0 0 1-4.53-2.5Zm7.4-3.85a9.52 9.52 0 0 1-1.64 4.88 9.32 9.32 0 0 1-4.6-2.3 10.12 10.12 0 0 0 1.9-4.24 9.81 9.81 0 0 0 4.34 1.66Zm1.71.07a10.65 10.65 0 0 0 4.97-1.43 10.4 10.4 0 0 1-1.35 5.05 10.46 10.46 0 0 1-5.05 1.35 11.3 11.3 0 0 0 1.43-4.97Zm2.51-7.95a10.22 10.22 0 0 1-4.24 1.9 10.15 10.15 0 0 1 1.66 4.35 9.3 9.3 0 0 0 4.87-1.64 9.5 9.5 0 0 0-2.29-4.61ZM40.9 28a10.66 10.66 0 0 0 2.5-4.53A10.4 10.4 0 0 1 46 28a10.46 10.46 0 0 1-2.61 4.53 11.28 11.28 0 0 0-2.5-4.53Zm-3.85-7.4a10.24 10.24 0 0 1-1.66 4.35 9.47 9.47 0 0 1 4.25 1.9 9.27 9.27 0 0 0 2.28-4.61 9.42 9.42 0 0 0-4.87-1.64Zm.07-1.71a10.7 10.7 0 0 0-1.43-4.97 10.44 10.44 0 0 1 5.05 1.35 10.51 10.51 0 0 1 1.35 5.05 11.3 11.3 0 0 0-4.97-1.43Z" fill="#fff"/></svg>