<!-- by TradingView --><svg width="56" height="56" viewBox="0 0 56 56" xmlns="http://www.w3.org/2000/svg"><path fill="#F0F3FA" d="M0 0h56v56H0z"/><path d="M32.66 12a5.51 5.51 0 0 1 5.39 4.96 7.01 7.01 0 0 1 4.47 6.87c-.03.78-.2 1.54-.47 2.26a7.08 7.08 0 0 1-1.01 10.66 7.12 7.12 0 0 1-3.82 6.47A6.99 6.99 0 0 1 28 40.54a7.05 7.05 0 0 1-6.48 3.44 6.99 6.99 0 0 1-6.29-5.1c-.2-.7-.3-1.41-.27-2.13a7.05 7.05 0 0 1-2.4-8.53c.33-.8.8-1.51 1.4-2.13a7.11 7.11 0 0 1 3.99-9.13 5.61 5.61 0 0 1 3.25-4.48A5.51 5.51 0 0 1 28 14.4a5.54 5.54 0 0 1 4.66-2.4Zm-9.27 2.23a3.3 3.3 0 0 0-3.26 3.2c.04.1.06.2.06.3.02.54.17 1.07.44 1.54a1.12 1.12 0 0 1-1.93 1.1c-.2-.34-.36-.7-.48-1.09a4.8 4.8 0 0 0-2.38 5.43 1.12 1.12 0 0 1 .89 2.04 4.84 4.84 0 0 0 2.34 9.07 1.12 1.12 0 0 1 0 2.23c-.61 0-1.22-.08-1.81-.23a4.91 4.91 0 0 0 2.53 3.42 4.78 4.78 0 0 0 3.8.24A5.1 5.1 0 0 0 27 36.94v-8.4c-.85.9-1.91 1.6-3.1 2a1.12 1.12 0 1 1-.74-2.1 5.59 5.59 0 0 0 2.62-1.91 5.85 5.85 0 0 0 1.22-2.9V17.6c0-1.85-1.76-3.4-3.61-3.36Zm9.22 0c-.44-.01-.88.07-1.3.23-1.26.5-2.31 1.77-2.31 3.13v5.99a5.8 5.8 0 0 0 1.22 2.95 5.58 5.58 0 0 0 2.62 1.91 1.12 1.12 0 0 1-.75 2.1 7.82 7.82 0 0 1-3.09-2v8.4a5.09 5.09 0 0 0 5.33 4.82 4.78 4.78 0 0 0 4.41-3.94c-.59.15-1.2.23-1.81.23a1.12 1.12 0 0 1 0-2.23 4.84 4.84 0 0 0 2.34-9.07 1.12 1.12 0 0 1 .89-2.04 4.86 4.86 0 0 0-2.38-5.43c-.12.38-.28.75-.48 1.1a1.12 1.12 0 0 1-1.93-1.12c.27-.46.42-1 .44-1.53 0-.1.02-.2.06-.3a3.37 3.37 0 0 0-1.97-2.91 3.3 3.3 0 0 0-1.29-.29Z" fill="#2A6ACC"/></svg>