<!-- by TradingView --><svg width="56" height="56" viewBox="0 0 56 56" xmlns="http://www.w3.org/2000/svg"><path fill="#F0F3FA" d="M0 0h56v56H0z"/><path d="M31.72 15.22a.25.25 0 0 0 .4-.12.25.25 0 0 0 0-.16l-.26-.7a1.11 1.11 0 0 0-.7-.7l-3.08-1.02a.43.43 0 0 1-.29-.47c.01-.07.03-.13.07-.18.4-.6.6-.84 1.4-.84 1.97-.01 4.07.52 6.3 1.57 1.2.57 1.52 1.43.96 2.58a.4.4 0 0 1-.43.2c-.23-.03-.37-.14-.43-.32a.8.8 0 0 0-.85-.53.88.88 0 0 0-.75.73c-.15.91.26 1.45 1.22 1.63 1.99.36 2.33-.94 2.68-2.49a.34.34 0 0 1 .42-.26c.06.02.1.05.15.1l2.92 2.93a1.5 1.5 0 0 1 .35 1.55c-.57 1.65-1.42 5.38 1.42 5.25a.52.52 0 0 0 .43-.27c.15-.27.21-.77.2-1.51a.42.42 0 0 0-.32-.4.41.41 0 0 0-.46.2l-.11.2a.31.31 0 0 1-.37.14.31.31 0 0 1-.21-.34l.27-2.13a.36.36 0 0 1 .3-.3.35.35 0 0 1 .38.23l1.52 4.3a.8.8 0 0 1-.24.87.78.78 0 0 1-.28.15c-1 .3-1.9.25-2.68-.15a.9.9 0 0 1-.4-.42l-1.05-2.12a1.71 1.71 0 0 0-2.1-.86l-.7.24c-.27.1-.49.3-.6.56a1.1 1.1 0 0 0-.05.83l.76 2.16a.13.13 0 0 1-.12.18h-.17c-.35 0-.7-.15-.95-.4-.83-.86-1.58-2.29-2.77-3.2a6.63 6.63 0 0 0-1.85-1.15 36 36 0 0 1-2.77-.64.5.5 0 0 1-.36-.45c-.03-.54-.05-1.14-.06-1.79-.02-.76.44-1.04 1.38-.84a.44.44 0 0 1 .34.38.44.44 0 0 1-.26.45c-.22.1-.42.27-.6.54a.37.37 0 0 0-.07.27c.02.09.07.17.14.23.53.4 1.4.44 1.64-.33.07-.24.21-.33.41-.24a4.68 4.68 0 0 1 2.68 2.5.53.53 0 0 0 .64.3.53.53 0 0 0 .22-.13l.27-.27a.7.7 0 0 0 .05-.9 7.25 7.25 0 0 0-2.74-2.23c-1.37-.63-1.73-2.06-3.52-1.84-1.92.23-1.46 2.49-1.57 3.92a.43.43 0 0 1-.28.38c-2.66.91-4.32 1.46-5.64 3.56a.5.5 0 0 1-.53.21.5.5 0 0 1-.19-.09 34.78 34.78 0 0 1-2.65-2.16c-.42-.4-.5-.8-.27-1.16a.84.84 0 0 1 .77-.38.43.43 0 0 1 .4.53c-.03.13.1.4.38.8a.3.3 0 0 0 .35.1.3.3 0 0 0 .1-.07c.39-.42.45-.92.2-1.5a.48.48 0 0 1-.04-.3c.03-.1.08-.2.16-.26l2.22-1.82a.94.94 0 0 1 1.06-.08l1.01.59a.13.13 0 0 0 .2-.16c-.46-1.47-1.39-2.31-2.8-1.07a9.18 9.18 0 0 1-3.23 1.94c-1.1.35-1.64.98-1.97 1.86-.1.28-.1.6 0 .89.09.3.28.55.54.74 1.6 1.16 2.67 2 3.18 2.5a.58.58 0 0 1-.56.97c-.55-.17-1.52-.4-2.92-.68-1.3-.27-2.15.23-2.53 1.5a.31.31 0 0 0 .13.35.3.3 0 0 0 .36-.02l.71-.58a.59.59 0 0 1 .46-.13c1.19.17 3.45.5 3.75 1.42a1.1 1.1 0 0 1-.65 1.35c-.79.3-1.76.52-2.9.66-.54.06-1.08-.21-1.64-.83a.15.15 0 0 0-.24.02.15.15 0 0 0-.03.09c.07 1.48.85 2.1 2.34 1.85.99-.17 2.03-.4 3.12-.68a.58.58 0 0 1 .66.3.6.6 0 0 1-.15.72l-3.33 2.73a1.25 1.25 0 0 0-.32 1.56c.46.86.79 1.42 1.86 1.7.86.22 2.02.86 3.48 1.91.87.63 1.46.81 1.76.53.3-.28.6-.79.92-1.53a.19.19 0 0 0-.18-.26.18.18 0 0 0-.1.04c-1.97 1.6-2.69-.43-4.05-1.03a.36.36 0 0 1-.2-.2.38.38 0 0 1 0-.26c.16-.5.17-1.04.01-1.6a.44.44 0 0 0-.63-.28.45.45 0 0 0-.18.18c-.12.22-.21.51-.27.87a.39.39 0 0 1-.5.3c-.77-.27-1-.69-.72-1.26a.4.4 0 0 1 .09-.1l2.61-2.14a.67.67 0 0 1 .95.1 9.18 9.18 0 0 0 5.39 3.26.75.75 0 0 1 .59.74v2.34a1.13 1.13 0 0 0 .65 1.03c1.4.65 2.43.42 3.1-.7.13-.24.35-.44.6-.55a9.98 9.98 0 0 0 3.48-2.65c.25-.28.18-.64-.19-1.05a.51.51 0 0 0-.88.22c-.28 1.16-1.15 1.94-2.6 2.36a.4.4 0 0 1-.43-.15.4.4 0 0 1-.07-.15c-.14-.6-.68-.74-1.6-.4a.46.46 0 0 0-.28.53c.05.25.29.66.71 1.23a.3.3 0 0 1-.23.47h-.72a.6.6 0 0 1-.6-.6v-2.1c0-.09.03-.17.09-.23.05-.06.12-.1.2-.11 3.58-.5 5.38-2.17 7.36-5.05a1 1 0 0 1 .83-.44h.37a.3.3 0 0 1 .3.19.31.31 0 0 1-.08.34c-.88.87-1.45 2.55-.03 3.23.8.37 1.53.33 2.22-.14.05-.04.1-.1.13-.15l1.53-2.66a1.12 1.12 0 0 1 .95-.55h2.25a.4.4 0 0 1 .39.27l.02.16a9.58 9.58 0 0 1-1.82 5.1.36.36 0 0 1-.4.12.36.36 0 0 1-.24-.34v-2.17a.23.23 0 0 1 .15-.22.23.23 0 0 1 .26.09c.18.25.36.4.56.43.28.05.45-.07.51-.36.12-.6.16-.95.13-1.02-.08-.17-.2-.32-.36-.44-.15-.11-.33-.2-.53-.24-.2-.04-.4-.05-.6-.01-.22.03-.42.1-.6.22-.37.23-.66.69-.86 1.39a.38.38 0 0 0 0 .2l.83 3.8a.98.98 0 0 1-.14.78 12.53 12.53 0 0 1-3.18 3.1.33.33 0 0 1-.33.02.31.31 0 0 1-.17-.28 3 3 0 0 0-.28-1.24 1.08 1.08 0 0 0-.38-.44c-1.2-.84-2.24-.69-3.09.45a.86.86 0 0 0-.13.8.93.93 0 0 0 .57.58c.57.22.96 0 1.15-.66a.26.26 0 0 1 .2-.18.26.26 0 0 1 .25.08c2.67 3.24-5.57 4.37-7.08 4.42a.86.86 0 0 1-.83-.53.87.87 0 0 1-.07-.34v-.27a.7.7 0 0 1 .18-.46c.11-.13.27-.21.44-.23a6.91 6.91 0 0 0 3.16-1.13.88.88 0 0 0 .4-.74v-.5a.28.28 0 0 0-.18-.26.27.27 0 0 0-.3.07c-1.27 1.39-2.9 1.16-4.24 1.6a.45.45 0 0 0-.37.43l-.07 1.93a.34.34 0 0 1-.12.25.33.33 0 0 1-.26.07l-3.88-.62a20.04 20.04 0 0 1-11.06-9.8 1.82 1.82 0 0 1-.2-1.07c.06-.35.22-.65.47-.85.18-.14.61-.15 1.3-.01a.44.44 0 0 1 .37.49.45.45 0 0 1-.47.4h-.5a.55.55 0 0 0-.5.32.56.56 0 0 0 .1.6c.48.53.95.69 1.39.48.96-.46 1.72-1.15 1-2.3-.73-1.15-1.85-1.44-3.37-.87a.37.37 0 0 1-.32-.02.39.39 0 0 1-.19-.27c-.38-2.23-.4-4.32-.04-6.3a.64.64 0 0 1 .82-.48c2.03.66 2.82-.23 3.19-2.13.26-1.33-1.46-1.62-2.37-.99a.48.48 0 0 0 .27.88h.62a.3.3 0 0 1 .21.1.28.28 0 0 1 .08.2c-.03.48-.27.81-.72 1a.53.53 0 0 1-.48-.03c-.94-.55-1.15-1.34-.64-2.35 2.88-5.72 7.52-9.14 13.9-10.26a.73.73 0 0 1 .83.49c.04.1.05.22.04.34l-.08.64a1.09 1.09 0 0 0 .54 1.07c.12.07.26.11.4.13 1.56.18 2.85.7 3.85 1.54Zm8.79 3.4c0-.18-.1-.36-.25-.5a.91.91 0 0 0-.6-.19.92.92 0 0 0-.58.22.66.66 0 0 0-.24.5c0 .19.1.37.26.5.15.12.37.2.59.2.22-.01.43-.09.58-.22a.66.66 0 0 0 .24-.5Z" fill="#8DA02A"/></svg>