<!-- by TradingView --><svg width="56" height="56" viewBox="0 0 56 56" xmlns="http://www.w3.org/2000/svg"><path fill="#F0F3FA" d="M0 0h56v56H0z"/><path d="M10.3 20.04a.12.12 0 0 1 .13-.03c.03 0 .05.02.06.04l.02.06v1.48c0 .03 0 .05-.02.07a.13.13 0 0 1-.15.03.12.12 0 0 1-.06-.05c-.15-.33-.33-.6-.55-.84-.63-.68-1.8-.77-2.16.23-.31.87-.45 2.49.29 3.25.7.72 1.88.19 2.44-.42a.18.18 0 0 1 .12-.06.18.18 0 0 1 .12.04.16.16 0 0 1 .06.11.15.15 0 0 1-.04.12c-.85.93-1.89 1.16-3.1.7-1.48-.56-1.9-2.58-.96-3.79.6-.76 1.42-1.07 2.5-.93.33.04.67.19.94.27h.1l.07-.04.2-.24ZM31.52 20.04a.12.12 0 0 1 .19 0 .1.1 0 0 1 .01.07v1.48c0 .03 0 .05-.02.08a.12.12 0 0 1-.15.03.12.12 0 0 1-.06-.06c-.15-.33-.33-.6-.55-.84-.63-.68-1.8-.77-2.16.23-.31.87-.45 2.48.29 3.24.7.73 1.88.2 2.44-.41a.18.18 0 0 1 .12-.06.18.18 0 0 1 .12.04.16.16 0 0 1 .06.12.15.15 0 0 1-.04.11c-.85.93-1.89 1.16-3.1.7-1.49-.56-1.9-2.58-.96-3.8.6-.75 1.42-1.06 2.5-.92.33.04.67.19.94.27h.1l.07-.04.2-.24ZM13.84 22.22a26.84 26.84 0 0 1 .9 0 .09.09 0 0 0 .04-.05l.01-.03V20.7c0-.3-.17-.45-.5-.44a.12.12 0 0 1-.13-.08.13.13 0 0 1 0-.05v-.05a.08.08 0 0 1 .07-.08h2.31a.09.09 0 0 1 .09.07v.04l-.01.06a.1.1 0 0 1-.12.09c-.33-.03-.5.16-.5.57v3.53a.39.39 0 0 0 .32.37l.23.04c.03 0 .05.02.07.05.02.02.03.05.03.08a.11.11 0 0 1-.12.1h-2.28a.1.1 0 0 1-.07-.03.1.1 0 0 1-.03-.08v-.04c0-.02 0-.04.02-.06a.09.09 0 0 1 .05-.03c.2-.01.33-.05.41-.11.1-.08.15-.2.16-.38v-1.55a.12.12 0 0 0-.1-.12 54.81 54.81 0 0 0-1.6 0 .12.12 0 0 0-.07.03c-.02.03-.02.06-.02.09v1.55c0 .18.05.3.15.37.08.07.22.1.41.12l.06.03.02.06v.04a.1.1 0 0 1-.03.08.1.1 0 0 1-.08.03h-2.28a.11.11 0 0 1-.12-.1.12.12 0 0 1 .1-.13l.23-.04a.38.38 0 0 0 .32-.37v-3.54c0-.4-.16-.6-.5-.56a.1.1 0 0 1-.1-.1l-.02-.06a.09.09 0 0 1 .02-.07.09.09 0 0 1 .07-.03h2.31c.02 0 .04.01.05.03.02.01.03.03.03.05v.05a.13.13 0 0 1-.08.12h-.05c-.33 0-.5.15-.5.45L13 22.14a.09.09 0 0 0 .05.08h.79ZM20.2 20.25a.1.1 0 0 1-.07-.03.1.1 0 0 1-.04-.08v-.04a.1.1 0 0 1 .03-.07.1.1 0 0 1 .07-.03l1.48.01c.04 0 .07.03.08.08.02.06 0 .1-.07.13l-.34.1a.32.32 0 0 0-.18.29l-.02 2.77c0 1.04-.7 1.59-1.71 1.62-1.3.04-2.09-.49-2.07-1.84v-2.58a.29.29 0 0 0-.08-.2.3.3 0 0 0-.19-.09.67.67 0 0 1-.27-.1.1.1 0 0 1-.05-.11.1.1 0 0 1 .1-.08h2.32a.08.08 0 0 1 .06.02.07.07 0 0 1 .02.05v.08a.1.1 0 0 1-.03.07.1.1 0 0 1-.07.03h-.35a.26.26 0 0 0-.26.25c-.05 1.5-.04 2.55.02 3.18.07.78.7 1.09 1.43.87.5-.15.76-.54.8-1.16.02-.5.03-1.25.01-2.23-.01-.48.09-.93-.62-.91ZM35.06 22.59h-.75a.12.12 0 0 0-.1.13v1.55c.01.18.06.3.16.37.08.07.22.1.41.12l.06.03.02.06v.04a.1.1 0 0 1-.03.08.1.1 0 0 1-.08.03h-2.28a.11.11 0 0 1-.07-.03.11.11 0 0 1-.04-.08.12.12 0 0 1 .1-.12l.22-.04a.38.38 0 0 0 .32-.37v-3.54c0-.4-.16-.6-.5-.56a.1.1 0 0 1-.11-.1l-.01-.06a.09.09 0 0 1 .05-.1h2.34a.08.08 0 0 1 .08.08v.05a.13.13 0 0 1-.03.09.12.12 0 0 1-.1.04c-.33-.01-.5.14-.5.44a53.54 53.54 0 0 0 0 1.47.09.09 0 0 0 .05.05h.04a20.2 20.2 0 0 1 1.64 0 .09.09 0 0 0 .05-.05V20.7c0-.3-.17-.45-.5-.44a.12.12 0 0 1-.1-.04.13.13 0 0 1-.03-.1v-.04a.08.08 0 0 1 .07-.08h2.32a.09.09 0 0 1 .06.03.09.09 0 0 1 .02.07v.07a.1.1 0 0 1-.12.09c-.34-.04-.5.15-.5.56v3.54c0 .09.04.17.1.24.05.07.13.12.22.13l.22.04a.12.12 0 0 1 .1.12c0 .03-.02.06-.04.08a.11.11 0 0 1-.07.03h-2.28a.1.1 0 0 1-.08-.03.1.1 0 0 1-.03-.08v-.04c0-.02 0-.04.02-.06a.09.09 0 0 1 .06-.03c.19-.01.33-.05.41-.12.1-.07.15-.2.15-.37l.01-1.55a.12.12 0 0 0-.1-.12l-.85-.01ZM39.34 20a90.21 90.21 0 0 1 1.28.03c.02.01.03.03.03.06v.06c0 .01 0 .02-.02.03 0 .01-.01.02-.03.02l-.39.1a.34.34 0 0 0-.26.33l-.01 1.87.01 1.87a.34.34 0 0 0 .26.33l.4.1a.05.05 0 0 1 .04.05v.06a.08.08 0 0 1-.09.09h-1.22a64.36 64.36 0 0 1-1.27-.03.09.09 0 0 1-.03-.06v-.06c0-.01 0-.02.02-.03l.02-.02.4-.1a.34.34 0 0 0 .26-.33v-3.74a.34.34 0 0 0-.26-.33l-.4-.1a.05.05 0 0 1-.02-.02l-.02-.03v-.06c0-.03.01-.05.03-.06a64.36 64.36 0 0 1 1.28-.02ZM43.38 20.17a.1.1 0 0 1-.02.06.09.09 0 0 1-.07.03H43a.35.35 0 0 0-.24.1.36.36 0 0 0-.11.23c-.02.33-.03 1.55-.02 3.64 0 .58.36.5.8.48.95-.03 1.24-.64 1.65-1.38a.12.12 0 0 1 .2 0c.01.02.02.05.01.07l-.26 1.52a.1.1 0 0 1-.1.08H40.9a.11.11 0 0 1-.08-.04.12.12 0 0 1-.04-.08v-.02a.12.12 0 0 1 .13-.1c.34.03.51-.16.51-.56v-3.63a.27.27 0 0 0-.2-.26l-.34-.08c-.07-.02-.1-.07-.08-.14 0-.03.01-.05.04-.06a75.12 75.12 0 0 1 2.46-.01.1.1 0 0 1 .1.1v.05ZM47.94 20.25h-.31c-.1 0-.18.04-.25.1a.35.35 0 0 0-.11.24c-.02.33-.03 1.54-.02 3.64 0 .58.37.5.82.48 1-.04 1.3-.64 1.7-1.39a.12.12 0 0 1 .15-.05c.03 0 .05.03.06.05.02.02.02.05.02.08l-.26 1.51a.1.1 0 0 1-.04.06.1.1 0 0 1-.06.02l-4.17.01a.12.12 0 0 1-.11-.07l-.01-.05v-.01a.11.11 0 0 1 .04-.09.12.12 0 0 1 .09-.02c.35.03.52-.16.52-.56v-3.63a.26.26 0 0 0-.06-.17.27.27 0 0 0-.15-.1l-.35-.07c-.07-.02-.1-.06-.09-.14 0-.03.02-.04.04-.06a77.8 77.8 0 0 1 2.54-.02.1.1 0 0 1 .07.03.1.1 0 0 1 .03.07v.05c0 .03 0 .05-.02.07a.1.1 0 0 1-.07.02Z" fill="#1D2642"/><path d="M16.64 30.95a.1.1 0 0 1 .08-.02.09.09 0 0 1 .07.05V31a.18.18 0 0 1-.03.2 2.6 2.6 0 0 1-3.28.41c-1.15-.69-1.33-2.41-.67-3.47.7-1.13 2.13-1.35 3.3-.9a.18.18 0 0 0 .17-.02l.22-.18a.12.12 0 0 1 .2.1l.01 1.47a.07.07 0 0 1-.06.08.08.08 0 0 1-.09-.05l-.23-.5a1.52 1.52 0 0 0-2.04-.65c-.83.42-1.06 1.5-.97 2.4.19 1.88 2.05 2.23 3.32 1.07ZM20.33 31.79h.28a.22.22 0 0 0 .19-.1.23.23 0 0 0 .02-.22l-.43-1a.13.13 0 0 0-.05-.07.14.14 0 0 0-.07-.02h-1.7a.14.14 0 0 0-.14.1l-.29.91a.28.28 0 0 0 .1.32l.11.04c.08.02.15.04.19.07a.1.1 0 0 1 .04.1.1.1 0 0 1-.1.07h-1.27a.1.1 0 0 1-.05-.03.1.1 0 0 1 0-.13.1.1 0 0 1 .06-.03c.43-.06.58-.55.75-.97a298.76 298.76 0 0 1 1.6-3.8.12.12 0 0 1 .2.05c.55 1.32 1.15 2.67 1.8 4.06.14.3.07.54.5.65a.1.1 0 0 1 .06.04.1.1 0 0 1 .01.07.1.1 0 0 1-.03.07.1.1 0 0 1-.07.02h-1.71a.06.06 0 0 1-.03-.03l-.03-.08a.07.07 0 0 1 0-.06l.03-.03h.03Zm-1.63-1.85a.08.08 0 0 0 .03.1h.04l1.34.01a.07.07 0 0 0 .07-.03.08.08 0 0 0 0-.07l-.65-1.71a.07.07 0 0 0-.14 0l-.7 1.7ZM35.81 31.82c.2-.04.34-.1.39-.16a.22.22 0 0 0 .04-.23l-.35-.95a.16.16 0 0 0-.15-.1h-1.69c-.03 0-.05 0-.08.02a10.21 10.21 0 0 0-.35.91c-.08.3.04.46.37.5a.1.1 0 0 1 .06.02l.02.07v.05c0 .01 0 .02-.02.03a.05.05 0 0 1-.03.02H32.7a.1.1 0 0 1-.07-.03.1.1 0 0 1 .04-.17.7.7 0 0 0 .47-.42 59.47 59.47 0 0 0 1.8-4.29.15.15 0 0 1 .13-.09.15.15 0 0 1 .14.09l1.84 4.34.1.15c.35.38.73.4 1.15.04a.33.33 0 0 0 .11-.25c.01-1.94 0-3.24-.01-3.73-.01-.28-.18-.44-.5-.46a.09.09 0 0 1-.05-.02.09.09 0 0 1-.02-.07v-.08l.04-.01h1.86l.04.01a.07.07 0 0 1-.02.12l-.35.15a.37.37 0 0 0-.23.35v3.77c0 .06.03.12.07.17.04.04.1.07.16.08.46.03.9.03 1.33 0 .59-.04.78-.38 1.05-.88a.12.12 0 0 1 .06-.05h.08l.06.06v.08l-.3.97a.2.2 0 0 1-.07.1c-.03.03-.07.07-.12.07h-5.63l-.03-.01c-.04-.03-.06-.06-.07-.1l.01-.05.04-.02Zm-1.7-1.87a.08.08 0 0 0 0 .07.08.08 0 0 0 .07.03h1.39a.08.08 0 0 0 .08-.07l-.01-.04-.7-1.72a.08.08 0 0 0-.07-.05l-.05.01a.08.08 0 0 0-.02.04l-.69 1.73Z" fill="#469DC8"/><path d="M17.86 37.97a.1.1 0 0 1 .12 0s.02.01.02.03a.18.18 0 0 1-.03.2 2.6 2.6 0 0 1-3.28.39c-1.15-.7-1.32-2.43-.65-3.49.7-1.12 2.15-1.33 3.31-.87a.18.18 0 0 0 .17-.03l.22-.17a.13.13 0 0 1 .19.03l.02.06v1.49a.07.07 0 0 1-.06.07.08.08 0 0 1-.1-.04l-.22-.5a1.52 1.52 0 0 0-2.04-.68c-.83.42-1.07 1.5-.99 2.4.17 1.89 2.03 2.26 3.32 1.1ZM20.91 34a2.32 2.32 0 0 1 1.69.76 2.5 2.5 0 0 1 .68 1.78c-.01.66-.28 1.3-.74 1.75a2.36 2.36 0 0 1-2.63.5 2.4 2.4 0 0 1-1.28-1.37 2.58 2.58 0 0 1 .57-2.71A2.36 2.36 0 0 1 20.9 34Zm-.04.3c-.2 0-.41.06-.6.17-.2.1-.37.27-.51.48-.15.2-.26.44-.34.71a3 3 0 0 0 0 1.69c.08.27.2.5.34.71.15.2.32.37.51.48.2.11.4.17.6.17.21 0 .41-.06.6-.17.2-.11.37-.28.51-.48.15-.2.26-.45.34-.72a3 3 0 0 0 0-1.68 2.4 2.4 0 0 0-.34-.72c-.15-.2-.32-.36-.51-.47-.2-.11-.4-.17-.6-.17Z" fill="#1D2642"/><path d="m22.42 27.17-.03-.02a.05.05 0 0 1-.01-.04v-.06l.01-.04H24.72c.74.05 1.47.49 1.48 1.36 0 1.44-1.4 1.41-2.36 1.45a.1.1 0 0 0-.07.03.11.11 0 0 0-.03.08v1.47c0 .06.02.13.06.18.03.05.08.09.14.1l.45.16a.06.06 0 0 1 .03.03.06.06 0 0 1 0 .04l-.01.05a.05.05 0 0 1-.05.04h-1.9c-.03 0-.05 0-.06-.02a.08.08 0 0 1-.02-.06v-.05a.1.1 0 0 1 .02-.06.08.08 0 0 1 .07-.02c.35.03.53-.16.53-.58.01-2.12 0-3.32-.02-3.6-.02-.28-.2-.43-.56-.44Zm1.32.24v2c0 .02.01.05.03.06.01.02.03.03.06.03h.47a1.15 1.15 0 0 0 .76-.3c.1-.09.17-.2.23-.32a.92.92 0 0 0 .08-.37v-.21a.95.95 0 0 0-.32-.7c-.2-.18-.47-.28-.76-.28h-.47l-.06.03a.08.08 0 0 0-.02.06ZM28.38 27a.06.06 0 0 1 .04.02.06.06 0 0 1 .02.04v.06a.05.05 0 0 1-.05.05l-.37.08a.35.35 0 0 0-.2.13.37.37 0 0 0-.07.23c-.01.2-.02.83-.02 1.9 0 1.05 0 1.68.02 1.88 0 .08.02.16.07.23.05.06.12.1.2.13l.37.08c.02 0 .03 0 .04.02v.09l-.01.04a.06.06 0 0 1-.04.02h-2.03a.06.06 0 0 1-.05-.04v-.11l.04-.02.37-.08a.35.35 0 0 0 .2-.13.37.37 0 0 0 .07-.23 58.34 58.34 0 0 0 0-3.77.37.37 0 0 0-.07-.24.35.35 0 0 0-.2-.12l-.38-.09a.05.05 0 0 1-.04-.05v-.06a.06.06 0 0 1 .02-.04.06.06 0 0 1 .04-.02h2.03ZM30.8 27h1.93a.1.1 0 0 1 .08.03c.02.02.03.05.03.08l.03 1.06a.1.1 0 0 1-.03.07.1.1 0 0 1-.06.03h-.06l-.03-.01a.06.06 0 0 1-.02-.04 1.97 1.97 0 0 0-.23-.67.25.25 0 0 0-.13-.1c-.3-.11-.65-.15-1.03-.13a.1.1 0 0 0-.07.04.11.11 0 0 0-.03.07v4c0 .08.02.15.07.21s.11.1.18.1l.39.08a.07.07 0 0 1 .04.03.07.07 0 0 1 0 .06c0 .05-.04.08-.09.08a42.79 42.79 0 0 1-1.96 0c-.05 0-.08-.03-.1-.08a.07.07 0 0 1 .03-.08l.03-.01.38-.07a.3.3 0 0 0 .18-.1.32.32 0 0 0 .08-.21v-4a.11.11 0 0 0-.03-.08.1.1 0 0 0-.07-.04c-.38-.02-.73.01-1.03.12a.25.25 0 0 0-.13.11c-.11.2-.19.42-.23.67a.06.06 0 0 1-.06.05h-.05a.09.09 0 0 1-.06-.03.1.1 0 0 1-.03-.07l.03-1.06c0-.03.01-.06.03-.08a.1.1 0 0 1 .08-.03h1.94Z" fill="#469DC8"/><path d="M26.26 36.7c.45.6.9 1.18 1.37 1.74.16.2.33.3.52.34a.1.1 0 0 1 .06.04c.02.03.03.05.02.08 0 .03-.01.05-.03.07a.1.1 0 0 1-.07.03h-.97a.19.19 0 0 1-.15-.07l-1.7-2.18a.17.17 0 0 0-.2-.06.18.18 0 0 0-.09.06c-.02.03-.02.07-.02.1v1.02c.01.46-.12.93.55.92a.1.1 0 0 1 .06.03.1.1 0 0 1 .03.07v.05a.06.06 0 0 1-.06.06h-1.86c-.02 0-.04-.01-.05-.03a.08.08 0 0 1-.03-.05v-.05l.02-.05a.08.08 0 0 1 .06-.03.66.66 0 0 0 .42-.17.22.22 0 0 0 .06-.15v-3.91a.25.25 0 0 0-.06-.17.6.6 0 0 0-.43-.19.1.1 0 0 1-.06-.03.1.1 0 0 1-.03-.06v-.05a.06.06 0 0 1 .04-.06h.02c.56.02 1.23.02 2 0 .73-.01 1.63.22 1.76 1.09.13.93-.37 1.25-1.14 1.5a.08.08 0 0 0-.05.05.08.08 0 0 0 .01.07ZM25 34.42v1.86l.01.06.06.03h.43c.15 0 .3-.03.43-.07.14-.05.26-.12.37-.21.1-.09.18-.2.24-.31a.82.82 0 0 0 .08-.36v-.14c0-.26-.12-.5-.33-.67-.21-.18-.5-.28-.8-.28h-.42l-.06.03c-.02.02-.01.04-.01.06ZM28.43 34.16l-.04-.01a.05.05 0 0 1-.01-.04v-.06l.01-.04H30.72c.74.05 1.47.49 1.47 1.36 0 1.44-1.39 1.41-2.35 1.45a.1.1 0 0 0-.07.03.11.11 0 0 0-.03.08v1.47c0 .06.01.12.05.18.04.05.09.09.15.1l.44.16a.06.06 0 0 1 .04.03.06.06 0 0 1 0 .04l-.02.05c0 .01 0 .02-.02.03l-.03.01h-1.9l-.06-.03a.08.08 0 0 1-.02-.05v-.05a.1.1 0 0 1 .03-.06.08.08 0 0 1 .06-.03c.36.04.53-.15.54-.57 0-2.12 0-3.32-.02-3.6-.01-.28-.2-.43-.55-.45Zm1.3.31v1.89c0 .03.02.07.04.1.03.02.06.03.1.03h.43a1.16 1.16 0 0 0 .77-.29.94.94 0 0 0 .32-.71v-.15a.97.97 0 0 0-.32-.71c-.2-.19-.48-.3-.77-.3h-.43a.13.13 0 0 0-.1.04.14.14 0 0 0-.03.1ZM35.95 34c.07 0 .11.01.15.05a.08.08 0 0 1 0 .08.09.09 0 0 1-.06.06l-.4.08a.31.31 0 0 0-.16.12.33.33 0 0 0-.06.2v3.84c0 .08.03.16.08.22s.11.1.19.11l.36.06a.06.06 0 0 1 .04.03.07.07 0 0 1 .01.05v.07l-.02.02-.02.01h-2.01c-.02 0-.04 0-.05-.02a.08.08 0 0 1-.03-.04v-.05c0-.02.01-.03.03-.04a.4.4 0 0 1 .2-.06c.3-.02.44-.18.45-.48v-3.78a.28.28 0 0 0-.07-.18.26.26 0 0 0-.15-.09l-.4-.07a.07.07 0 0 1-.05-.03.08.08 0 0 1-.01-.05v-.07l.02-.03.03-.01h1.93ZM40.5 38.24c.13.3.36.48.68.53.03 0 .05.02.07.04l.02.07v.05c0 .02 0 .04-.02.05a.06.06 0 0 1-.04.02h-2c-.02 0-.04 0-.05-.02a.07.07 0 0 1-.02-.05v-.07a.08.08 0 0 1 .02-.05l.03-.02h.03c.17 0 .29-.01.35-.07.05-.04.08-.1.08-.15.01-.06 0-.13-.04-.18a28.17 28.17 0 0 0-.95-1.46h-.02l-.02.02-1.08 1.37a.26.26 0 0 0 .01.33l.1.07.28.1a.1.1 0 0 1 .05.03.1.1 0 0 1-.01.13.1.1 0 0 1-.06.02h-1.48c-.02 0-.04 0-.06-.02a.1.1 0 0 1 .01-.15l.41-.22a.21.21 0 0 0 .08-.06l1.52-1.94a.12.12 0 0 0 .01-.14l-.93-1.4c-.35-.44-.44-.76-1.04-.92a.07.07 0 0 1-.04-.03.08.08 0 0 1 .02-.1.07.07 0 0 1 .04-.02h2.11l.03.01v.1c0 .02 0 .04-.02.06a.08.08 0 0 1-.05.02h-.23a.26.26 0 0 0-.23.14.27.27 0 0 0 .02.28l.8 1.2.02.02a.06.06 0 0 0 .08-.02l.95-1.19a.25.25 0 0 0 .04-.22.24.24 0 0 0-.15-.16l-.28-.1-.02-.01-.01-.03v-.04l.01-.04a.05.05 0 0 1 .04-.02h1.6c.03 0 .04 0 .06.02l.02.05-.01.05a.07.07 0 0 1-.05.03c-.35.08-.65.28-.9.61-.52.69-.87 1.14-1.05 1.35a.18.18 0 0 0-.01.22l1.26 1.89.01.02ZM21.96 20c1.26 0 2.15 0 2.66.02.7.02 1.62.33 1.65 1.16.03.7-.3 1.14-1.02 1.28a.12.12 0 0 0-.07.19l1.8 2.35h-1.54a.15.15 0 0 1-.14-.07l-1.02-1.42-.48-.65a.04.04 0 0 0-.04-.02l-.02.02v.02c-.02.22-.02.6-.01 1.02 0 .23-.05.47.09.68.02.03.05.06.09.07l.4.13a.11.11 0 0 1 .05.19.11.11 0 0 1-.07.03h-2.32l-.06-.03a.08.08 0 0 1-.02-.05v-.05a.13.13 0 0 1 .07-.12h.05c.34.01.52-.21.52-.68V20.8c0-.36-.17-.54-.5-.53a.13.13 0 0 1-.1-.04.13.13 0 0 1-.03-.04.13.13 0 0 1 0-.05v-.05l.01-.05a.07.07 0 0 1 .05-.02Zm1.81.29-.03.01-.01.03v2.02l.01.03.04.01h.37a.83.83 0 0 0 .77-.53c.05-.11.07-.22.07-.34v-.37a.87.87 0 0 0-.25-.61.83.83 0 0 0-.6-.25h-.37Z" fill="#1D2642"/></svg>