<!-- by TradingView --><svg xmlns="http://www.w3.org/2000/svg" width="56" height="56" viewBox="0 0 56 56"><path fill="url(#ap2kkhaye)" d="M0 0h56v56H0z"/><path d="M4 29h48v4H4v-4Z" fill="#CBD0D3"/><path fill-rule="evenodd" d="M51.8 29.2H4.2v3.6h47.6v-3.6ZM4 29v4h48v-4H4Z"/><path d="M5.74 29.77v2.34H5.4v-2.34h.34Zm.83 0v.25h-2v-.25h2ZM8.5 31.86v.25H7.12v-.25H8.5Zm-1.3-2.1v2.35h-.35v-2.34h.34Zm1.12 1.01v.26h-1.2v-.26h1.2Zm.16-1v.25H7.12v-.25h1.36ZM10.39 31.36h.34a.92.92 0 0 1-.14.4.8.8 0 0 1-.32.28c-.14.07-.32.1-.52.1-.16 0-.3-.02-.42-.08a.92.92 0 0 1-.53-.56 1.33 1.33 0 0 1-.07-.44v-.24c0-.16.03-.31.07-.44a.93.93 0 0 1 .54-.56c.13-.06.28-.09.44-.09.2 0 .36.04.5.1.13.07.24.16.31.28.08.12.12.25.14.4h-.34a.8.8 0 0 0-.1-.27.46.46 0 0 0-.19-.19.71.71 0 0 0-.32-.06.74.74 0 0 0-.3.06.6.6 0 0 0-.23.17.75.75 0 0 0-.13.26c-.03.1-.05.21-.05.34v.24c0 .11.02.22.04.32.03.1.07.19.13.26a.59.59 0 0 0 .5.25c.15 0 .27-.02.36-.06.08-.05.15-.1.2-.18a.85.85 0 0 0 .09-.29ZM12.79 30.77v.26h-1.4v-.26h1.4Zm-1.35-1v2.34h-.35v-2.34h.35Zm1.65 0v2.34h-.34v-2.34h.34ZM15.6 29.77v2.34h-.35l-1.31-1.8v1.8h-.35v-2.34h.35l1.31 1.8v-1.8h.34ZM18.1 30.86v.15c0 .18-.03.34-.08.48a.91.91 0 0 1-.54.58c-.13.05-.27.07-.43.07-.15 0-.3-.02-.42-.08a.95.95 0 0 1-.55-.57c-.05-.14-.07-.3-.07-.48v-.15c0-.17.02-.33.07-.47.05-.14.12-.26.22-.35.09-.1.2-.18.33-.23.13-.05.27-.08.42-.08.16 0 .3.03.43.08a.9.9 0 0 1 .33.23c.1.1.16.21.21.35.05.14.08.3.08.47Zm-.34.15v-.15c0-.14-.02-.26-.05-.37a.74.74 0 0 0-.14-.27.59.59 0 0 0-.22-.17.74.74 0 0 0-.3-.05c-.1 0-.2.02-.3.05a.6.6 0 0 0-.21.17.78.78 0 0 0-.14.27c-.04.1-.05.23-.05.37v.15c0 .14.01.27.05.38.03.1.08.2.14.27.06.07.14.13.22.16.09.04.19.06.3.06.1 0 .2-.02.3-.06.08-.03.15-.09.21-.16.06-.08.1-.17.14-.27.03-.11.05-.24.05-.38ZM20.08 31.86v.25h-1.3v-.25h1.3Zm-1.23-2.1v2.35h-.35v-2.34h.35ZM22.25 30.86v.15c0 .18-.03.34-.07.48a.91.91 0 0 1-.54.58c-.13.05-.28.07-.43.07-.16 0-.3-.02-.43-.08a.95.95 0 0 1-.55-.57c-.05-.14-.07-.3-.07-.48v-.15c0-.17.02-.33.07-.47.05-.14.13-.26.22-.35.1-.1.2-.18.33-.23.13-.05.27-.08.42-.08.16 0 .3.03.43.08a.9.9 0 0 1 .33.23c.1.1.17.21.21.35.05.14.08.3.08.47Zm-.34.15v-.15c0-.14-.02-.26-.05-.37a.74.74 0 0 0-.14-.27.58.58 0 0 0-.22-.17.74.74 0 0 0-.3-.05c-.1 0-.2.02-.29.05a.6.6 0 0 0-.22.17.78.78 0 0 0-.14.27c-.03.1-.05.23-.05.37v.15c0 .14.02.27.05.38.03.1.08.2.14.27.06.07.14.13.22.16.1.04.19.06.3.06.1 0 .2-.02.3-.06.08-.03.15-.09.21-.16.06-.08.11-.17.14-.27.03-.11.05-.24.05-.38ZM24.58 30.94v.86a.8.8 0 0 1-.16.15 1 1 0 0 1-.29.13 1.62 1.62 0 0 1-.91-.01 1 1 0 0 1-.34-.22 1 1 0 0 1-.23-.35c-.05-.14-.08-.3-.08-.47v-.18c0-.18.02-.33.07-.47a.95.95 0 0 1 .2-.35c.1-.1.2-.17.33-.22.13-.05.28-.08.45-.08.2 0 .36.04.5.1.13.06.24.14.31.25.08.11.13.23.15.37h-.35a.61.61 0 0 0-.09-.23.48.48 0 0 0-.2-.17.72.72 0 0 0-.32-.06.76.76 0 0 0-.31.06.56.56 0 0 0-.22.17.76.76 0 0 0-.13.27c-.03.1-.04.22-.04.35v.19c0 .13.02.25.05.36.04.1.09.2.15.27.07.08.15.13.24.17.09.04.19.06.3.06.12 0 .22-.01.3-.03a.52.52 0 0 0 .28-.14v-.53h-.6v-.25h.94ZM25.16 29.77l.67 1.17.68-1.17h.4l-.9 1.46v.88h-.35v-.88l-.9-1.46h.4ZM29.62 30.77v.26h-1.4v-.26h1.4Zm-1.35-1v2.34h-.35v-2.34h.35Zm1.65 0v2.34h-.34v-2.34h.34ZM32.43 30.86v.15c0 .18-.03.34-.08.48a.91.91 0 0 1-.54.58c-.12.05-.27.07-.43.07-.15 0-.3-.02-.42-.08a.95.95 0 0 1-.55-.57c-.05-.14-.07-.3-.07-.48v-.15c0-.17.02-.33.07-.47.05-.14.12-.26.22-.35.09-.1.2-.18.33-.23.13-.05.27-.08.42-.08.16 0 .3.03.43.08a.9.9 0 0 1 .33.23c.1.1.16.21.21.35.05.14.08.3.08.47Zm-.34.15v-.15c0-.14-.02-.26-.05-.37a.74.74 0 0 0-.14-.27.59.59 0 0 0-.22-.17.74.74 0 0 0-.3-.05c-.1 0-.2.02-.3.05a.6.6 0 0 0-.21.17.78.78 0 0 0-.14.27c-.04.1-.05.23-.05.37v.15c0 .14.01.27.05.38.03.1.08.2.14.27.06.07.14.13.22.16.09.04.19.06.3.06.1 0 .2-.02.3-.06.08-.03.15-.09.21-.16.06-.08.1-.17.14-.27.03-.11.05-.24.05-.38ZM34.41 31.86v.25h-1.3v-.25h1.3Zm-1.23-2.1v2.35h-.35v-2.34h.35ZM35.4 32.11h-.54v-.25h.54c.18 0 .34-.04.46-.1a.68.68 0 0 0 .28-.3 1 1 0 0 0 .1-.45v-.14c0-.14-.02-.26-.06-.36a.67.67 0 0 0-.41-.43.96.96 0 0 0-.34-.06h-.58v-.25h.58c.17 0 .33.02.47.07a1.01 1.01 0 0 1 .68 1.03V31c0 .17-.03.32-.08.46a.95.95 0 0 1-.24.34c-.1.1-.23.17-.37.22-.15.05-.31.08-.5.08Zm-.36-2.34v2.34h-.34v-2.34h.34ZM37.36 29.77v2.34H37v-2.34h.35ZM39.87 29.77v2.34h-.34l-1.31-1.8v1.8h-.35v-2.34h.35l1.31 1.8v-1.8h.34ZM42.3 30.94v.86a.8.8 0 0 1-.16.15 1 1 0 0 1-.29.13 1.62 1.62 0 0 1-.91-.01 1 1 0 0 1-.35-.22 1 1 0 0 1-.22-.35c-.05-.14-.08-.3-.08-.47v-.18c0-.18.02-.33.07-.47a.95.95 0 0 1 .2-.35c.1-.1.2-.17.33-.22.13-.05.28-.08.45-.08.2 0 .36.04.5.1.13.06.23.14.31.25.08.11.12.23.15.37h-.35a.61.61 0 0 0-.1-.23.48.48 0 0 0-.19-.17.72.72 0 0 0-.32-.06.76.76 0 0 0-.32.06.56.56 0 0 0-.21.17.76.76 0 0 0-.13.27c-.03.1-.04.22-.04.35v.19c0 .13.01.25.05.36.03.1.08.2.15.27.07.08.14.13.23.17.1.04.2.06.3.06.13 0 .23-.01.3-.03a.52.52 0 0 0 .28-.14v-.53h-.6v-.25h.95ZM44.14 31.52c0-.06 0-.1-.02-.15a.28.28 0 0 0-.1-.11.79.79 0 0 0-.2-.1 2.85 2.85 0 0 0-.3-.1 2.98 2.98 0 0 1-.34-.11c-.1-.04-.2-.1-.27-.15a.6.6 0 0 1-.17-.19.5.5 0 0 1-.06-.24c0-.09.02-.17.07-.25a.6.6 0 0 1 .17-.2.9.9 0 0 1 .28-.14c.11-.03.23-.05.37-.05.2 0 .36.04.5.1.13.07.23.16.3.27.08.1.11.22.11.34h-.34a.41.41 0 0 0-.25-.4.76.76 0 0 0-.32-.05.8.8 0 0 0-.3.05.4.4 0 0 0-.19.13.34.34 0 0 0-.05.2c0 .05 0 .1.03.13.03.04.06.08.11.11a.9.9 0 0 0 .19.1c.08.03.17.06.28.08.14.04.27.08.38.13.1.05.2.1.26.16a.54.54 0 0 1 .21.43c0 .1-.02.19-.06.26a.58.58 0 0 1-.19.2.93.93 0 0 1-.29.13 1.47 1.47 0 0 1-.72 0 1.11 1.11 0 0 1-.32-.14.74.74 0 0 1-.23-.22.57.57 0 0 1-.08-.3h.34c0 .07.02.14.06.2.03.06.08.1.14.14a.7.7 0 0 0 .2.08 1.1 1.1 0 0 0 .55-.02.4.4 0 0 0 .19-.12.31.31 0 0 0 .06-.2ZM45.07 31.76V32a.76.76 0 0 1-.31.58l-.19-.12a.9.9 0 0 0 .1-.14.64.64 0 0 0 .08-.32v-.24h.32ZM46.6 29.77v2.34h-.35v-2.34h.35ZM47.4 30.74v1.37h-.33v-1.74h.3l.03.37Zm-.08.43h-.14c0-.12.02-.23.06-.33a.8.8 0 0 1 .16-.27.71.71 0 0 1 .25-.17.87.87 0 0 1 .58-.03.48.48 0 0 1 .31.3c.03.09.05.18.05.3v1.14h-.34v-1.14c0-.1-.01-.17-.04-.22a.26.26 0 0 0-.13-.12.51.51 0 0 0-.21-.04.53.53 0 0 0-.4.18.63.63 0 0 0-.15.4ZM49.75 31.9c.08 0 .15-.02.22-.05a.44.44 0 0 0 .16-.12.31.31 0 0 0 .08-.17h.31c0 .1-.04.2-.12.29a.78.78 0 0 1-.27.21.88.88 0 0 1-.38.08.96.96 0 0 1-.38-.07.75.75 0 0 1-.43-.46c-.03-.1-.05-.22-.05-.34v-.06c0-.12.02-.23.05-.34.04-.1.1-.2.16-.27a.75.75 0 0 1 .27-.2c.1-.04.24-.06.38-.06.15 0 .28.02.4.08.11.05.2.13.26.23.07.09.1.2.11.32h-.31a.4.4 0 0 0-.23-.33.48.48 0 0 0-.23-.06c-.1 0-.19.02-.25.06a.43.43 0 0 0-.17.14.64.64 0 0 0-.08.2 1 1 0 0 0-.03.23v.06c0 .08.01.15.03.23a.6.6 0 0 0 .08.2c.04.06.1.1.16.14.07.04.16.06.26.06Z" fill="#2A3F64"/><path fill-rule="evenodd" d="M44.5 24c1.25 0 1.43 1.07 1.37 1.6h-1.03c0-.42-.04-.91-.39-.91-.28 0-.45.33-.45.53v1.85c0 .25.06.74.45.74.32 0 .44-.32.44-.53v-.58h.98v.06c0 .4.04 1.72-1.37 1.74-1.2.01-1.5-.92-1.5-1.39v-1.57c-.02-.51.25-1.54 1.5-1.54Zm-39 0c1.25 0 1.43 1.07 1.37 1.6H5.84c0-.42-.04-.91-.39-.91-.28 0-.45.33-.45.53v1.85c0 .25.06.74.45.74.32 0 .44-.32.44-.53v-.58h.98v.06c0 .4.04 1.72-1.37 1.74-1.2.01-1.5-.92-1.5-1.39v-1.57c-.02-.51.25-1.54 1.5-1.54Zm3.81 0H7.44v4.5h1v-1.8c.65-.08.87.23.87.4v.88c0 .2.04.43.06.52h1.07c-.1-.13-.14-.4-.14-.52v-.76c0-.67-.46-.91-.68-.95.57-.13.69-.8.68-1.13 0-.95-.66-1.15-.99-1.14Zm-.45.77h-.42v1.2h.42c.14-.03.42-.2.43-.62 0-.43-.28-.57-.43-.58Zm32.6-.77h1v4.5h-1V24Zm-20.13 0h-1v4.5h1V24ZM18 24h-1v1h1v3.5h1V25h1v-1h-2Zm31.63 0h1v3.5H52v1H49.63V24Zm-36.18 0H11v4.5h2.46v-1H12v-.77h1.45v-1H12V25h1.45v-1Zm12.76 0H28v1h-1.45v.73H28v1h-1.45v.77H28v1h-2.45V24h.66Zm11 0h-2.45v4.5h2.46v-1h-1.46v-.77h1.45v-1h-1.45V25h1.45v-1Zm-22.37 0-1 4.5h1.1l.1-.69h.9l.14.69h1.1l-.97-4.5h-1.37Zm.66.91-.34 2.02h.7l-.36-2.02Zm30.44 3.59 1-4.5h1.37l.98 4.5h-1.11l-.15-.69h-.88l-.12.69h-1.1Zm1.32-1.57.34-2.02.35 2.02h-.69ZM21.87 24l.93 4.5h1.4l.88-4.5h-1.16l-.41 3.6-.48-3.6h-1.16ZM30 24v4.5h1v-3.38l.62 3.38h.76l.62-3.38v3.38h1V24h-1.55L32 26.88 31.54 24H30Zm8 0h2a1 1 0 0 1 1 1v2.5a1 1 0 0 1-1 1h-2V24Zm1 .8h.5c.28 0 .5.23.5.5v1.9a.5.5 0 0 1-.5.5H39v-2.9Z" fill="#244E93"/><defs><linearGradient id="ap2kkhaye" x1="6.05" y1="5.74" x2="51.76" y2="46.85" gradientUnits="userSpaceOnUse"><stop stop-color="#173D8D"/><stop offset=".49" stop-color="#F0F5FA"/><stop offset="1" stop-color="#173D8D"/></linearGradient></defs></svg>