<!-- by TradingView --><svg width="56" height="56" viewBox="0 0 56 56" xmlns="http://www.w3.org/2000/svg"><path fill="#F0F3FA" d="M0 0h56v56H0z"/><path d="M5.2 28a3.61 3.61 0 0 0 2.72 3.67 4.1 4.1 0 0 0 4.35-1.42.1.1 0 0 1 .12-.02l.82.49a.1.1 0 0 1 .05.06.11.11 0 0 1-.02.09 4.33 4.33 0 0 1-2.33 1.82c-.93.33-1.91.4-2.93.2A4.9 4.9 0 0 1 4 28.01a4.9 4.9 0 0 1 3.97-4.9c1.02-.2 2-.13 2.94.2a4.33 4.33 0 0 1 2.34 1.86.11.11 0 0 1-.02.08.1.1 0 0 1-.03.03l-.8.48a.1.1 0 0 1-.13-.02 4.1 4.1 0 0 0-4.35-1.41A3.63 3.63 0 0 0 5.2 28Z" fill="#379262"/><path d="M16.32 28.35c.02 1 .38 1.76 1.07 2.47a3.36 3.36 0 0 0 2.6 1.04 3.92 3.92 0 0 0 3.6-2.22.13.13 0 0 1 .1-.03c.02 0 .04 0 .06.02l.84.48c.03.01.06.04.06.07v.1c-1.3 2.27-3.32 3.12-6.04 2.55a4.24 4.24 0 0 1-2.76-1.99 5 5 0 0 1-.82-3.28 5.04 5.04 0 0 1 1.82-3.47A4.7 4.7 0 0 1 20.32 23c1.36.09 2.48.6 3.35 1.53a5.07 5.07 0 0 1 1.3 3.65.08.08 0 0 1-.05.02h-8.46a.14.14 0 0 0-.1.04.13.13 0 0 0-.04.1ZM20.03 27h3.45c.05 0 .1-.03.1-.07a3.56 3.56 0 0 0-3.55-2.73 3.56 3.56 0 0 0-3.54 2.69c-.02.06.03.1.09.11h3.45ZM32.32 28.35c.02 1 .38 1.76 1.07 2.47a3.36 3.36 0 0 0 2.6 1.04 3.92 3.92 0 0 0 3.6-2.22.13.13 0 0 1 .1-.03c.02 0 .04 0 .06.02l.84.48c.03.01.06.04.06.07v.1c-1.3 2.27-3.32 3.12-6.04 2.55a4.24 4.24 0 0 1-2.76-1.99 5 5 0 0 1-.82-3.28 5.04 5.04 0 0 1 1.82-3.47A4.7 4.7 0 0 1 36.32 23c1.36.09 2.48.6 3.35 1.53a5.07 5.07 0 0 1 1.3 3.65.08.08 0 0 1-.05.02h-8.46a.14.14 0 0 0-.1.04.13.13 0 0 0-.04.1ZM36.03 27h3.45c.05 0 .1-.03.1-.07a3.56 3.56 0 0 0-3.55-2.73 3.56 3.56 0 0 0-3.54 2.69c-.02.06.03.1.09.11h3.45ZM27.32 24.43a4.82 4.82 0 0 1 1.42-1.25c.53-.26 1.15-.24 1.84.07l.02.01.01.02a.06.06 0 0 1 0 .05l-.53.98-.05.04h-.06c-.81-.28-1.48-.04-1.99.73a4.54 4.54 0 0 0-.7 2.35 75.02 75.02 0 0 0-.05 5.5.11.11 0 0 1-.06.06.1.1 0 0 1-.04.01H26.1a.1.1 0 0 1-.07-.03.1.1 0 0 1-.03-.07v-9.8c0-.06.04-.1.09-.1h1.04c.05 0 .08.04.08.09v1.3c0 .01 0 .03.02.04l.02.02h.04c.01 0 .02 0 .03-.02ZM52 28v4.94c0 .02 0 .03-.02.04a.06.06 0 0 1-.04.02h-1.11l-.04-.01a.05.05 0 0 1-.01-.04V31.3l-.02-.05a.09.09 0 0 0-.13 0 4.82 4.82 0 0 1-7.71-.35A4.87 4.87 0 0 1 42 28a4.9 4.9 0 0 1 8.67-3.23.09.09 0 0 0 .09-.03.08.08 0 0 0 .02-.05v-1.63c0-.02.02-.06.05-.06h1.1c.04 0 .07.04.07.07V28Zm-5.16-3.8a3.77 3.77 0 0 0-3.36 2.56 3.84 3.84 0 0 0 3.82 5.07 3.77 3.77 0 0 0 3.36-2.56 3.84 3.84 0 0 0-3.82-5.07Z" fill="#02415B"/></svg>