<!-- by TradingView --><svg width="56" height="56" viewBox="0 0 56 56" xmlns="http://www.w3.org/2000/svg"><path fill="#F0F3FA" d="M0 0h56v56H0z"/><path d="M36 41v-6H23c-3.92 0-7-3.08-7-7s3.08-7 7-7h1v-6h-1a13 13 0 1 0 0 26h13Z" fill="#143823"/><path d="M27 15v6h3v9h6V15h-9ZM41 16v1h2v1h-2v2h-1v-5h4v1h-3ZM44 22v2.59c0 1.42-.76 2.41-2 2.41-1.25 0-2-.99-2-2.41V22h1v2.64c0 .66.3 1.36 1 1.36s1-.7 1-1.36V22h1ZM44 29v5h-.77L41 30.98V34h-1v-5h.77L43 32.01V29h1ZM44 38.5c0 1.38-.8 2.5-2.23 2.5H40v-5h1.77C43.2 36 44 37.12 44 38.5Zm-1 0c0-.77-.4-1.5-1.26-1.5H41v3h.74c.86 0 1.26-.72 1.26-1.5Z" fill="#143823"/></svg>