<!-- by TradingView --><svg width="56" height="56" viewBox="0 0 56 56" xmlns="http://www.w3.org/2000/svg"><path fill="url(#ahqjwnq2v)" d="M0 0h56v56H0z"/><path d="M34.54 25.53A7 7 0 1 0 35 28v-1h-7v2.52h4.3c-.56 1.83-2.28 2.92-4.3 2.92-2.47 0-4.48-1.99-4.48-4.44a4.49 4.49 0 0 1 8.2-2.49l2.82.02Z" fill="#fff"/><path d="M16.28 23.56c1.54 0 2.92.7 3.78 1.77.3-.85.74-1.64 1.28-2.35A7.4 7.4 0 0 0 16.28 21C12.26 21 9 24.14 9 28s3.26 7 7.28 7c1.89 0 3.62-.7 4.91-1.84a8.46 8.46 0 0 1-1.2-2.4 4.86 4.86 0 0 1-3.71 1.68c-2.62 0-4.75-1.99-4.75-4.44s2.13-4.44 4.75-4.44ZM39.22 21a7.4 7.4 0 0 0-4.85 1.79c.55.67 1 1.42 1.32 2.24a4.88 4.88 0 0 1 3.53-1.47c2.61 0 4.74 1.99 4.74 4.44s-2.12 4.44-4.74 4.44a4.9 4.9 0 0 1-3.43-1.38 8.4 8.4 0 0 1-1.26 2.29A7.41 7.41 0 0 0 39.22 35c4.01 0 7.27-3.14 7.27-7s-3.26-7-7.27-7Z" fill="#fff"/><path d="M39.93 38H16.07A10.05 10.05 0 0 1 6 28c0-5.51 4.52-10 10.07-10h23.86C45.48 18 50 22.49 50 28s-4.52 10-10.07 10ZM16.07 19A9.12 9.12 0 0 0 7 28c0 4.91 4.13 9 9.07 9h23.86A9.12 9.12 0 0 0 49 28c0-4.91-4.12-9-9.07-9H16.07Z" fill="#fff"/><defs><linearGradient id="ahqjwnq2v" x1="10.42" y1="9.71" x2="68.15" y2="76.02" gradientUnits="userSpaceOnUse"><stop stop-color="#1A1E21"/><stop offset="1" stop-color="#06060A"/></linearGradient></defs></svg>