<!-- by TradingView --><svg width="56" height="56" viewBox="0 0 56 56" xmlns="http://www.w3.org/2000/svg"><path fill="#F0F3FA" d="M0 0h56v56H0z"/><path d="M28 11c.38 0 .81.05.81.05a9.62 9.62 0 0 0-2.2 5.41 11.48 11.48 0 0 0-9.48 9.72c-2.2.24-4.69 1.25-6.12 2.68C10.67 19 18.23 11 28 11Zm2.45 29.64c-.45.07-.91.1-1.36.1-.8-.01-1.57-.07-2.35-.2-.6 1.47-1.4 2.84-2.38 4.09a17 17 0 0 1-12.78-12.27c1.53-1.82 5.08-2.87 7.28-2.87 4.69 0 7.18 2.48 8.04 6.36a8.1 8.1 0 0 1-5.6-4.69 5.67 5.67 0 0 0-2.01-.34c-.62 0-1.23.1-1.82.3 1.24 4.73 5.84 8.28 11.44 8.28 5.17 0 7.37-2.63 7.37-2.63v-4.03s-2.53 2.63-5.7 3.16a11.47 11.47 0 0 0-9.76-9.72c.81-4.02 3.88-6.27 8.04-6.27 4.17 0 7.52 3.01 7.52 3.01v-3.97s-2.15-2.01-5.98-2.44c.1-1.77 1.24-3.98 2.49-4.8 5.21 1.64 10.24 6.04 11.68 12.46 0 0-2.3 2.3-6.6 2.3-3.55 0-5.79-1.77-7.05-4.89a5.88 5.88 0 0 0-3.97 0 11.18 11.18 0 0 0 10.68 8.33c4.79 0 7.37-2.2 7.37-2.2 0 9.96-7.61 17.1-16.66 17.29 1.05-1.02 1.86-3.26 2.1-4.36Z" fill="#FF5300"/></svg>