<!-- by TradingView --><svg width="56" height="56" viewBox="0 0 56 56" xmlns="http://www.w3.org/2000/svg"><path fill="#F0F3FA" d="M0 0h56v56H0z"/><path d="M43 13.08v14.84c0 .02 0 .04-.02.06a.07.07 0 0 1-.05.02h-3.86a.07.07 0 0 1-.05-.02.07.07 0 0 1-.02-.06V17.07l-.03-.06-.05-.01H28.07c-.02 0-.03-.02-.05-.03a.08.08 0 0 1-.02-.05v-3.84c0-.02 0-.04.02-.05a.07.07 0 0 1 .05-.03h14.86c.02 0 .03.01.05.03l.02.05Z" fill="#8B1825"/><path d="m19.9 32.21-6.88-6.64a.07.07 0 0 1-.02-.05v-5.46c0-.01 0-.03.02-.04a.06.06 0 0 1 .05-.02h19.4a.06.06 0 0 1 .06.04.06.06 0 0 1-.01.07l-12.53 12.1a.06.06 0 0 1-.09 0Z" fill="#8F1A20"/><path d="M20.06 38.17 35.9 23.03a.05.05 0 0 1 .09.03v18.9s0 .02-.02.03a.05.05 0 0 1-.03.01h-22.9a.05.05 0 0 1-.05-.05V31.62a.05.05 0 0 1 .06-.05l.03.01 6.9 6.6a.05.05 0 0 0 .07 0Z" fill="#8F1A20"/></svg>