<!-- by TradingView --><svg width="56" height="56" viewBox="0 0 56 56" xmlns="http://www.w3.org/2000/svg"><path fill="#009BB5" d="M0 0h56v56H0z"/><path d="M24.5 24c-2.3 0-4 1.72-4 4 0 2.27 1.73 4 4 4 1.6 0 2.93-.83 3.6-2.17l-1.98-.51c-.32.52-.9.85-1.62.85-1.02 0-1.7-.57-1.88-1.6h5.84c.02-.2.04-.4.04-.6a3.9 3.9 0 0 0-4-3.97Zm-1.83 3.18c.24-.9.9-1.43 1.83-1.43s1.61.5 1.9 1.43h-3.73ZM13 32h2v-4.29c0-1.2.68-1.91 1.68-1.91.91 0 1.32.55 1.32 1.64V32h2v-4.9c0-1.87-1.05-3.1-2.74-3.1-.9 0-1.7.37-2.26.9V22h-2M44.73 24h-2.38L40 27.91V22h-2v10h2v-3.52L42.5 32H45l-2.86-3.85 2.6-4.15ZM49.4 24c-.85 0-1.45.31-1.93 1.01l-.31-.97H46V32h2v-4.13c0-1.3.2-1.84 1.22-1.84H50V24h-.6ZM8.95 30.08c-1.08 0-1.9-.91-1.9-2.09 0-1.17.8-2.06 1.9-2.06.75 0 1.42.4 1.76 1.13l1.83-.65A3.73 3.73 0 0 0 8.97 24 3.88 3.88 0 0 0 5 27.97 3.92 3.92 0 0 0 8.94 32c1.68 0 3.06-.98 3.62-2.5l-1.86-.66a1.85 1.85 0 0 1-1.75 1.24ZM33.17 30.08a2.02 2.02 0 0 1-2.02-2.09 2 2 0 0 1 2.02-2.06c.8 0 1.5.4 1.86 1.13l1.94-.65A3.95 3.95 0 0 0 33.19 24C30.8 24 29 25.7 29 27.97A4.03 4.03 0 0 0 33.17 32c1.77 0 3.24-.98 3.83-2.5l-1.97-.66a1.97 1.97 0 0 1-1.86 1.24Z" fill="#fff"/></svg>