<!-- by TradingView --><svg width="56" height="56" viewBox="0 0 56 56" xmlns="http://www.w3.org/2000/svg"><path fill="#F0F3FA" d="M0 0h56v56H0z"/><path d="M35.98 17.7c-.25-3.32-2.46-5.86-4.93-5.7-2.47.18-4.28 3-4.03 6.3.25 3.32 2.46 5.86 4.93 5.7 2.47-.18 4.28-3 4.03-6.3ZM25.59 18.63c-1.04-3.23-3.71-5.23-5.97-4.47-2.26.76-3.25 3.99-2.2 7.21 1.03 3.23 3.7 5.23 5.96 4.47 2.26-.76 3.25-3.99 2.2-7.21ZM43.9 24.04c.45-2.47-.71-4.71-2.6-5-1.87-.3-3.76 1.45-4.2 3.92-.45 2.47.71 4.71 2.6 5 1.87.3 3.76-1.45 4.2-3.92ZM18.01 26.68c-1.45-2.28-3.98-3.3-5.64-2.3-1.67 1.01-1.84 3.67-.38 5.94 1.45 2.28 3.98 3.3 5.64 2.3 1.67-1.01 1.84-3.67.38-5.94ZM21.48 33.25c.25.7.45 1.19 1 1.61 1.4 1.07 3.29 1.42 5.07 1.35.24-.01.5-.04.76-.1.04 0 .07-.03.1-.05a.22.22 0 0 0 .07-.09.21.21 0 0 0-.03-.2c-.13-.18-.44-.4-.5-.63-.11-.54.08-.89.67-.96.24-.03.48.1.73.2.08.02.17.03.25.02a14.32 14.32 0 0 0 2.47-.54.14.14 0 0 0 .04-.05.13.13 0 0 0 0-.12l-.1-.15a.25.25 0 0 0-.12-.1.26.26 0 0 0-.16-.01c-1.65.4-3.25.64-4.8.73a10.3 10.3 0 0 1-2.19-.15c-1.03-.17-2.35-.79-2.62-1.84-.4-1.58.19-2.7 1.3-3.91A7.22 7.22 0 0 1 29.01 26a7.13 7.13 0 0 1 6.4 4.3c.1.23.25.31.53.33a5.26 5.26 0 0 1 4.85 3.7 5.09 5.09 0 0 1-3.76 6.34c-.34.1-.9.2-1.69.32-.24.03-.8.13-1.7.29l-9.6 1.67c-.35.06-.75.07-1.19.02-3.32-.37-5.55-3.34-4.65-6.46a5.4 5.4 0 0 1 3.11-3.37.18.18 0 0 1 .13.05l.04.06Zm12.25.92a.23.23 0 0 0-.16.13.21.21 0 0 0 .01.2l.4.66c.03.04.07.07.11.09.04.02.1.02.14.01l.75-.15.1-.05a.21.21 0 0 0 .05-.28l-.4-.66a.23.23 0 0 0-.1-.1.24.24 0 0 0-.15 0l-.75.15Zm-10.77 1.76c1.4 1.26 3.56 1.86 5.43 1.94a25.26 25.26 0 0 0 2.06 0 .06.06 0 0 0 .02-.05c.03-.36-.03-.72-.18-1.09a.25.25 0 0 0-.12-.13c-.55-.28-.7-.88-.26-1.3a.36.36 0 0 1 .1-.08c.46-.2.82-.03 1.2.23a.24.24 0 0 0 .2.04l1.37-.29.05-.02a.12.12 0 0 0 .04-.05.11.11 0 0 0-.01-.1l-.32-.53a.22.22 0 0 0-.11-.1.23.23 0 0 0-.15 0c-.9.26-1.56.42-1.96.46-.39.03-.61.07-.69.12a.35.35 0 0 0-.12.1l-.46.66a.23.23 0 0 0-.04.13v.48c0 .04-.02.07-.04.1a.18.18 0 0 1-.1.06c-.48.12-.9.2-1.28.23-.77.08-1.5-.09-2.37-.18a7.04 7.04 0 0 1-2.24-.7l-.03.02a.04.04 0 0 0 .01.05Zm13.49-1.3a.15.15 0 0 0-.08-.07.16.16 0 0 0-.11 0l-.61.24a.15.15 0 0 0-.08.08.14.14 0 0 0 0 .1l.26.6c.02.04.04.06.08.08h.11l.61-.24a.15.15 0 0 0 .08-.08.14.14 0 0 0 0-.1l-.26-.6Zm-7.72.02h-.08a.22.22 0 0 0-.08.06.33.33 0 0 0-.05.1.41.41 0 0 0-.03.1c-.01.08 0 .16.03.21.03.06.08.1.13.1h.08a.22.22 0 0 0 .07-.06.33.33 0 0 0 .06-.1.41.41 0 0 0 .03-.1.37.37 0 0 0-.03-.21c-.03-.06-.08-.1-.13-.1Zm2.46 3.13c.28.03.74-.02 1.39-.17a23.88 23.88 0 0 0 2.82-.8.21.21 0 0 0 .07-.16.2.2 0 0 0-.03-.09l-.45-.8a.3.3 0 0 0-.16-.14.3.3 0 0 0-.22 0l-.81.28c-.24.07-.42.03-.55-.13a.24.24 0 0 0-.23-.08l-1.4.27c-.3.05-.54.26-.7.62a.2.2 0 0 0-.02.12l.17.97c0 .03.02.06.04.08.03.02.05.03.08.03Zm-.5-1.91a.22.22 0 0 0-.07-.16.24.24 0 0 0-.17-.07.24.24 0 0 0-.17.07.22.22 0 0 0-.07.16c0 .06.03.12.07.16.05.04.1.07.17.07.06 0 .12-.03.17-.07.04-.04.07-.1.07-.16Z" fill="#56B5EE"/></svg>