<!-- by TradingView --><svg width="56" height="56" viewBox="0 0 56 56" xmlns="http://www.w3.org/2000/svg"><path fill="#F0F3FA" d="M0 0h56v56H0z"/><path d="M28.94 12a17 17 0 0 1 8.48 2.85c-2.55-.43-5-.53-7.34-.3a14.1 14.1 0 0 0-7.35 2.83 12.9 12.9 0 0 0-4.54 6.39c-.91 2.78-.99 5.51-.23 8.2.78 2.77 2.31 5.02 4.6 6.77a13.53 13.53 0 0 0 6.94 2.68c2.16.23 4.66.04 7.51-.56a.44.44 0 0 0 .2-.09l1.69-1.35c.43-.36.63-.37.6-.02a15.95 15.95 0 0 1-12.37 4.57 16.2 16.2 0 0 1-13.48-8.64c-.89-1.7-1.44-3.49-1.65-5.38V26.1c.71-5.07 3.2-8.94 7.47-11.62A16.27 16.27 0 0 1 27.32 12h1.62Z" fill="#2EBE70"/><path d="M37.42 14.85a16.26 16.26 0 0 1 6.34 8.69c.05.15.07.28.05.4a.1.1 0 0 1-.07.08c-.04.01-.08 0-.1-.03a7.35 7.35 0 0 0-2.39-1.83 9.39 9.39 0 0 0-3.32-2.94 13.16 13.16 0 0 0-8.99-1.2 10.07 10.07 0 0 0-7.13 5.52 10.37 10.37 0 0 0-.05 9.04 9.77 9.77 0 0 0 3.09 3.7 10.76 10.76 0 0 0 6.7 2c2.46-.03 4.72-.68 6.75-1.94a12.6 12.6 0 0 0 3.3-3.28 7.34 7.34 0 0 0 2.22-1.89c.04-.04.07-.05.12-.03.05.02.07.06.06.11-.7 3.2-2.2 5.92-4.5 8.15.03-.35-.17-.34-.6.02-.31.26-.88.71-1.7 1.35a.44.44 0 0 1-.19.1c-2.85.6-5.35.78-7.51.55a13.53 13.53 0 0 1-6.94-2.68c-2.29-1.75-3.82-4-4.6-6.77-.76-2.69-.68-5.42.23-8.2a12.9 12.9 0 0 1 4.54-6.39 14.1 14.1 0 0 1 7.35-2.83c2.34-.23 4.79-.13 7.34.3Z" fill="#4BD57C"/><path d="M41.25 22.16a6.7 6.7 0 0 0-4.91.08 5.6 5.6 0 0 0-3.31 3.47 5.85 5.85 0 0 0-.06 3.77 5.95 5.95 0 0 0 2.19 3.07c1.9 1.41 4.04 1.58 6.44.51a12.6 12.6 0 0 1-3.3 3.28 12.98 12.98 0 0 1-6.75 1.95c-2.6.03-4.83-.63-6.7-2a10.12 10.12 0 0 1-4.09-8.22 10.37 10.37 0 0 1 4.11-8.23 10.5 10.5 0 0 1 4.07-1.81 13.16 13.16 0 0 1 8.99 1.19c1.4.76 2.5 1.74 3.32 2.94Z" fill="#60E685"/></svg>