<!-- by TradingView --><svg width="56" height="56" viewBox="0 0 56 56" xmlns="http://www.w3.org/2000/svg"><path fill="#F0F3FA" d="M0 0h56v56H0z"/><path d="M18 24.07A19.94 19.94 0 0 0 37.97 44c0-2.1-.32-4.12-.94-6.05-8.49-.4-15.6-6.1-18.1-13.88H18Z" fill="#214C7E"/><path d="M37.95 37.97c0-2.1-.33-4.15-.94-6.05-1.26-.42-2.4-.2-3.51-.46a20.25 20.25 0 0 1-11.03-6.88h.01a19.8 19.8 0 0 1-3.51-6.5c-.32-.04-.62-.04-.94-.04 0 2.09.32 4.12.92 6.03h-.01a20.04 20.04 0 0 0 18.1 13.87l.9.03Z" fill="#42B63B"/><path d="M18 12a19.8 19.8 0 0 0 4.45 12.57 19.9 19.9 0 0 0 14.61 7.36c.33 0 .62.03.94.03A19.99 19.99 0 0 0 18 12Z" fill="#CFE415"/></svg>