<!-- by TradingView --><svg width="56" height="56" viewBox="0 0 56 56" xmlns="http://www.w3.org/2000/svg"><path fill="#005BAC" d="M0 0h56v56H0z"/><path d="M35 33h4v1h-3v2h2.56v1H36v2h3v1h-4v-7ZM40 33h4v1h-3v2h2.56v1H41v2h3v1h-4v-7ZM36 25h4v1h-3v2h2.56v1H37v2h3v1h-4v-7ZM30 33h4v1h-3v2h2.63v1H31v3h-1v-7ZM25 33h4v1h-3v2h2.63v1H26v3h-1v-7ZM18 36.5c0-1.75 1.1-3.5 3-3.5s3 1.75 3 3.5-1.1 3.5-3 3.5c-1.91 0-3-1.74-3-3.5Zm1 0c0 1.08.73 2.5 2 2.5 1.26 0 2-1.42 2-2.5s-.74-2.5-2-2.5c-1.27 0-2 1.42-2 2.5Z" fill="#FED001"/><path d="M41.36 29.06 39 25h1.44L42 27.83 43.55 25H45l-2.36 4.06V32h-1.28v-2.94ZM31 25h-1v3h1v-3ZM31 29h-1v3h1v-3ZM31 28.44 33.49 32H35l-2.51-3.56L34.9 25h-1.49L31 28.44ZM29 28h1v1h-1z" fill="#FED001"/><path d="M24.6 15.44a2.35 2.35 0 0 1-.98-1.84c0-1.43 1.5-2.6 3.34-2.6 1.85 0 3.35 1.17 3.35 2.6 0 .74-.4 1.4-1.03 1.88a3.07 3.07 0 0 1 2.38.16c1.38.73 1.76 2.45.83 3.84-.92 1.39-2.79 1.92-4.17 1.2-.16-.09-.3-.18-.43-.28a.98.98 0 0 1-.07.1c.11.2.18.45.18.71V26h-1v6h-1V21.21c0-.26.07-.51.18-.71a1 1 0 0 1-.07-.1c-.13.1-.27.2-.43.27-1.38.73-3.25.2-4.17-1.2-.93-1.38-.55-3.1.83-3.83.7-.36 1.5-.41 2.26-.2Zm1.04 3.63c.44-.23.84-.57.9-1.07h.91c.07.5.47.84.9 1.07.86.45 1.94.24 2.41-.47.47-.7.16-1.65-.7-2.1a2.04 2.04 0 0 0-1.62-.13l-.17-.25a6.43 6.43 0 0 1-.28-.42c.44-.3.72-.77.72-1.31 0-.89-.77-1.39-1.71-1.39s-1.7.5-1.7 1.39c0 .54.27 1.02.7 1.31-.1.18-.2.32-.3.47l-.14.2c-.5-.17-1.1-.14-1.62.13-.86.45-1.17 1.4-.7 2.1.47.71 1.55.92 2.4.47ZM12 36.5c0-1.8 1.22-3.5 3.15-3.5.63 0 1.25.16 1.85.5v1.07a3.06 3.06 0 0 0-1.64-.57C14.03 34 13 35.29 13 36.5c0 1.24.97 2.5 2.28 2.5.52 0 1.08-.2 1.64-.57l.08 1.08c-.6.33-1.22.49-1.85.49-1.93 0-3.15-1.67-3.15-3.5Z" fill="#FED001"/></svg>