<!-- by TradingView --><svg width="56" height="56" viewBox="0 0 56 56" xmlns="http://www.w3.org/2000/svg"><path fill="url(#a)" d="M0 0h56v56H0z"/><path d="M20.95 15.01c.43.56 1 1.04 1.69 1.43 1.26.7 2.78 1.34 4.54 1.92a129.55 129.55 0 0 0 9.44 2.58c2.2.55 3.91 1.34 5.11 2.36 1.69 1.44 1.78 3.25.27 5.43a20.2 20.2 0 0 1-4.51 4.3v-.04c1.31-1.67 2.08-3.21 2.3-4.63.3-1.9-.45-3.34-2.25-4.33-.62-.33-1.52-.7-2.7-1.08a80.49 80.49 0 0 0-5.13-1.5c-5.31-1.36-8.25-3.5-8.81-6.42 0-.01 0-.02.02-.03l.03.01Z" fill="#fff"/><path d="M23.88 20.21a20.18 20.18 0 0 0 5.65 2.42l1.07.28c1.52.39 2.62.7 3.3.92 1.1.36 2.08.79 2.95 1.28 1.3.73 1.88 1.66 1.74 2.78 0 .03-.02.05-.05.06-.03 0-.06 0-.07-.04a3.32 3.32 0 0 0-1.49-1.2c-.45-.22-1.07-.44-1.87-.66l-1.76-.47c-1.6-.41-2.79-.75-3.57-1.01a16.4 16.4 0 0 1-3.36-1.53 7.21 7.21 0 0 1-2.35-2.31c-.12-.18-.2-.34-.24-.48l.01-.03h.04ZM41.41 22.26c1.24-.47 2.34-.74 3.3-.82 1.4-.11 2.44.2 3.13.91.04.04.1.06.15.05a2.2 2.2 0 0 1 2 .63v.04c0 .02-.01.03-.03.03-1.2-.07-2.4.24-3.62.95a8.47 8.47 0 0 0-2.77 2.53c-.01.02-.03.02-.05.02-.02 0-.03-.02-.03-.04-.13-1.3.73-2.47 2.6-3.52a.1.1 0 0 0 .05-.09.1.1 0 0 0-.03-.08 2.63 2.63 0 0 0-1.26-.53 11.45 11.45 0 0 0-3.42 0c-.02 0-.04 0-.04-.03-.01-.02 0-.04.02-.05ZM28.4 24.84l.01-.04h.05c.8.52 1.69.95 2.67 1.3a48.84 48.84 0 0 0 3.49 1.04c2.47.67 3.66 1.57 3.59 2.69 0 .02-.01.04-.03.04h-.06a6.3 6.3 0 0 0-3.16-1.38 22.7 22.7 0 0 1-3.87-1.12c-1.6-.68-2.49-1.52-2.7-2.53ZM11.9 35h-.53c-.5-.02-.95-.14-1.31-.35-.42-.24-.71-.6-.86-1.05a3.23 3.23 0 0 1-.06-2.06c.23-.72.7-1.18 1.38-1.38.8-.24 1.6-.2 2.44.08.02 0 .04.02.04.05v1.16c0 .02-.01.03-.04.02a2.62 2.62 0 0 0-1.73-.22c-.62.17-.9.66-.83 1.47.05.62.38.98.99 1.06.46.07.98-.01 1.56-.24.04-.02.05 0 .05.03v1.14c0 .04-.02.06-.05.07L11.9 35ZM16.25 35h-.47c-1.14-.07-1.83-.53-2.08-1.39-.2-.72-.22-1.4-.05-2.03.2-.76.63-1.23 1.31-1.42.83-.24 1.62-.2 2.34.1.53.21.89.64 1.06 1.28.14.52.15 1.1.03 1.75-.2 1.04-.9 1.61-2.14 1.71Zm.77-2.87a.88.88 0 0 0-.26-.64.87.87 0 0 0-.64-.27h-.22a.87.87 0 0 0-.64.27.88.88 0 0 0-.27.64v.75c0 .25.1.47.27.64.18.18.39.27.64.27h.22c.25 0 .46-.09.64-.27.17-.17.26-.39.26-.64v-.75ZM20.46 33.88h1.96c.05 0 .08.03.08.08v.96c0 .05-.03.08-.08.08h-3.34c-.05 0-.08-.03-.08-.08v-4.84c0-.05.03-.08.08-.08h1.22c.05 0 .08.03.08.08v3.71c0 .06.02.09.08.09ZM24.4 30h-1.3a.1.1 0 0 0-.1.1v4.81c0 .05.05.1.1.1l1.31-.01a.1.1 0 0 0 .1-.1l-.01-4.8a.1.1 0 0 0-.1-.1ZM25 34.87v-4.8c0-.05.02-.07.06-.07h2.05c.55 0 .95.03 1.19.1.4.12.65.37.76.75.18.62.07 1.12-.32 1.51-.06.06-.05.1.01.14.34.2.52.45.55.77.05.63-.1 1.1-.46 1.37-.3.24-.79.36-1.44.36-1.13 0-1.9 0-2.3-.02-.07 0-.1-.04-.1-.1Zm1.35-3.78v.84c0 .04.02.06.06.06h.92c.12 0 .23-.04.32-.13.1-.09.14-.2.14-.32v-.06a.44.44 0 0 0-.14-.32.44.44 0 0 0-.32-.14h-.92c-.04 0-.06.03-.06.07Zm0 1.93v.9c0 .04.03.06.07.06h1c.12 0 .23-.05.33-.14.09-.1.14-.21.14-.35v-.05a.47.47 0 0 0-.14-.34.45.45 0 0 0-.34-.15h-1c-.04 0-.06.03-.06.07ZM34.15 34.95c.01.03 0 .05-.03.05h-1.39l-.04-.03-.56-1.27a.24.24 0 0 0-.23-.15h-.41c-.06 0-.1.03-.1.09v1.32c0 .03 0 .04-.03.04h-1.31c-.03 0-.05-.02-.05-.05v-4.89c0-.04.02-.06.06-.06h1.6c.8 0 1.36.05 1.66.17.5.2.78.63.88 1.29.1.72-.15 1.3-.75 1.72-.04.03-.05.07-.03.12l.73 1.65Zm-2.75-3.77v1.18c0 .05.02.07.07.07h.74c.16 0 .3-.07.41-.18a.6.6 0 0 0 .17-.44v-.1a.6.6 0 0 0-.17-.42.54.54 0 0 0-.4-.18h-.76c-.04 0-.06.03-.06.07ZM35.92 30h-1.34a.08.08 0 0 0-.08.08v4.84c0 .05.04.08.08.08h1.34c.04 0 .08-.03.08-.08v-4.84a.08.08 0 0 0-.08-.08Z" fill="#fff"/><defs><linearGradient id="a" x1="28" y1="0" x2="28" y2="56" gradientUnits="userSpaceOnUse"><stop stop-color="#6B1212"/><stop offset="1" stop-color="#BA2626"/></linearGradient></defs></svg>