<!-- by TradingView --><svg width="56" height="56" viewBox="0 0 56 56" xmlns="http://www.w3.org/2000/svg"><path fill="#181B1E" d="M0 0h56v56H0z"/><path d="M13.18 26.45s8.28-4.06 17.36-3.37a30.5 30.5 0 0 1 11.88 3.43s-6.32-1.7-10.73-.37C19.89 29.73 19.74 40 19.74 40s-7.24-4.5-6.56-13.55Z" fill="#fff"/><path d="M27.75 27.84s3.15-2.4 8.17-2.2c4.99.18 7.08.87 7.08 1.16 0 3.77-2.16 10.89-6.9 13.2 0 0-.42-6.8-5.71-10.78-1.37-1-2.64-1.38-2.64-1.38Z" fill="#3E81C3"/><path d="M43.47 28a15.46 15.46 0 1 0-30.92.02A15.46 15.46 0 0 0 43.47 28Zm.53 0a16 16 0 1 1-32 0 16 16 0 0 1 32 0Z" fill="#fff"/></svg>