<!-- by TradingView --><svg width="56" height="56" viewBox="0 0 56 56" xmlns="http://www.w3.org/2000/svg"><path fill="#F0F3FA" d="M0 0h56v56H0z"/><path d="m40.76 18.36-9.42 9.1a.77.77 0 0 0 .11 1.18l10.08 6.67c.07.04.12.1.15.17l.24.54c-.25.51-.55 1-.9 1.49A16.13 16.13 0 0 1 30.51 44h-.86c-.3-.2-.66-.41-.66-.65V34.5c0-.72.6-1.13 1.39-1.23.07-.01.13-.04.18-.1a.29.29 0 0 0 .07-.19v-.63c0-.12-.1-.35-.22-.35H17.45c-.12 0-.22.23-.22.35V33a.25.25 0 0 0 .22.25c.85.11 1.55.65 1.55 1.61.02 2.62.02 4.64 0 6.07 0 .1-.1.17-.2.1a17.01 17.01 0 0 1-5.07-5.73 16.13 16.13 0 0 1-.31-13.92 15.7 15.7 0 0 1 4.63-5.9 15.81 15.81 0 0 1 12.13-3.36c4.2.5 7.72 2.58 10.58 6.23Zm-16.82-.49h.42a.3.3 0 0 0 .2-.4c-.13-.35-.12-.65.03-.9.15-.24.23-.4.24-.45.04-.29-.02-.54-.18-.77a.83.83 0 0 0-.71-.36c-.3 0-.54.12-.71.36-.16.23-.22.49-.18.77 0 .06.09.21.24.45.15.25.16.55.04.91a.3.3 0 0 0 .2.4h.41Zm-1.12 1.1 2.21-.02a.03.03 0 0 0 .04-.04v-.01c0-.08-.05-.16-.15-.22a.68.68 0 0 0-.35-.09l-1.29.01c-.06 0-.13.01-.19.03a.58.58 0 0 0-.16.07.35.35 0 0 0-.1.1.21.21 0 0 0-.04.12v.03l.03.01Zm1.1 5.03h6.2c.23 0 .44-.44.45-.68.03-.44-.19-.65-.65-.64-.46.03-.83.02-1.12 0a.24.24 0 0 1-.2-.15 4.6 4.6 0 0 0-1.9-2.17 5.24 5.24 0 0 0-2.77-.76c-1.02 0-1.94.25-2.78.77a4.61 4.61 0 0 0-1.9 2.17.25.25 0 0 1-.2.14c-.28.03-.66.03-1.12.01-.45-.02-.67.2-.65.64.02.24.23.66.46.67h6.19Z" fill="#0F2941"/><path d="M40.76 18.36a17.85 17.85 0 0 1 2.54 5.15c1.27 4.28.81 8.45-1.38 12.51l-.24-.54a.43.43 0 0 0-.15-.17l-10.08-6.67a.77.77 0 0 1-.1-1.19l9.4-9.1ZM29 28v2.53a.18.18 0 0 1-.13.18.18.18 0 0 1-.21-.08l-1.32-2.26a.11.11 0 0 0-.1-.06.11.11 0 0 0-.1.07l-1.26 2.5a.21.21 0 0 1-.18.12.21.21 0 0 1-.2-.1l-1.49-2.58a.14.14 0 0 0-.12-.07.15.15 0 0 0-.13.07l-1.46 2.52a.2.2 0 0 1-.18.1.2.2 0 0 1-.18-.1l-1.43-2.46a.05.05 0 0 0-.05-.03l-.03.01-.02.02-1.12 2.22a.15.15 0 0 1-.25.03.14.14 0 0 1-.03-.09 166.72 166.72 0 0 1 .03-5.18.15.15 0 0 1 .08-.05.15.15 0 0 1 .17.08l1.12 2.22a.06.06 0 0 0 .05.03h.03l.02-.03 1.43-2.45a.2.2 0 0 1 .28-.08.2.2 0 0 1 .08.08l1.46 2.52a.14.14 0 0 0 .2.05.14.14 0 0 0 .05-.05l1.5-2.58a.21.21 0 0 1 .3-.07c.03.02.06.05.07.09l1.26 2.5a.11.11 0 0 0 .1.06.11.11 0 0 0 .1-.05l1.32-2.26a.18.18 0 0 1 .34.1V28Z" fill="#FAA61A"/><path d="m20.35 39-.07-.01a.33.33 0 0 1-.28-.33v-4.19c0-.12.05-.24.14-.33a.49.49 0 0 1 .34-.14h3.14c.1 0 .2.04.27.11s.11.17.11.27v.11a.27.27 0 0 1-.23.27c-1.08.15-1.86.6-2.34 1.34-.39.6-.63 1.46-.72 2.6a.32.32 0 0 1-.12.23.34.34 0 0 1-.24.07Z" fill="#0F2941"/></svg>