<!-- by TradingView --><svg xmlns="http://www.w3.org/2000/svg" width="56" height="56" viewBox="0 0 56 56"><path fill="#F0F3FA" d="M0 0h56v56H0z"/><path fill-rule="evenodd" d="M4.5 33h25a.5.5 0 0 0 .5-.5v-11c0-.4-.48-.66-.83-.45-3.16 1.84-11.28 4.8-24.68 5.23a.5.5 0 0 0-.49.5v5.72c0 .28.22.5.5.5zm2.99-2c.48 0 .92-.23 1.19-.6l-.33-.21a1.1 1.1 0 0 1-1.96-.7c0-.6.5-1.1 1.1-1.1.37 0 .69.19.89.46l.33-.22A1.49 1.49 0 0 0 6 29.5c0 .83.67 1.5 1.49 1.5zm12.3-.6c-.27.37-.69.6-1.17.6-.8 0-1.47-.67-1.47-1.5s.66-1.5 1.47-1.5c.5 0 .94.25 1.2.63l-.32.22c-.2-.27-.52-.45-.88-.45-.6 0-1.08.49-1.08 1.1 0 .6.49 1.1 1.08 1.1.34 0 .65-.16.85-.41l.32.22zM9.21 28h.41v.53c.36-.4.82-.5 1.03-.5v.43c-.56-.01-.88.32-1.03.58V31h-.4v-3zm14.95 0h-.4v3h.4v-1.96c.14-.27.45-.6 1-.58v-.43c-.2 0-.66.1-1 .5V28zm-10.51 2.47a1.5 1.5 0 1 1 .35-.86h-2.6a1.1 1.1 0 0 0 1.97.57l.28.29zm-2.22-1.24h2.14a1.1 1.1 0 0 0-2.14 0zM21.75 31c.45 0 .86-.2 1.13-.53l-.27-.3a1.09 1.09 0 0 1-1.95-.56h2.57v-.11c0-.83-.66-1.5-1.48-1.5a1.5 1.5 0 0 0-1.49 1.5c0 .83.66 1.5 1.49 1.5zm1.05-1.77h-2.12a1.1 1.1 0 0 1 1.06-.83c.52 0 .95.35 1.06.83zM15.6 28c-.18 0-.44.02-.66.13a.78.78 0 0 0-.3.26.8.8 0 0 0-.13.45c0 .39.25.6.51.72.25.11.54.15.72.17.12.02.28.06.4.14.13.07.2.16.2.29 0 .1-.03.18-.07.23-.05.06-.11.1-.2.14-.16.08-.36.1-.48.1-.14 0-.6-.03-.96-.3l-.22.31a2.1 2.1 0 0 0 1.18.36c.14 0 .4-.02.64-.13a.75.75 0 0 0 .48-.72.7.7 0 0 0-.38-.6c-.18-.12-.4-.16-.54-.19a2.24 2.24 0 0 1-.62-.14c-.19-.09-.3-.2-.3-.38 0-.1.03-.18.07-.24.04-.05.1-.1.16-.14.15-.07.34-.09.5-.09.32 0 .72.17.87.25l.17-.33A2.7 2.7 0 0 0 15.6 28zm10.09.44c.14-.14.56-.44 1.17-.44.75 0 1.08.44 1.14.92V31h-.38v-.42c-.14.14-.54.42-.97.42-.62 0-1.06-.36-1.05-.87 0-.51.44-.85.98-.83h1.04c.02-.3-.1-.92-.76-.93-.28 0-.64.09-.94.37l-.23-.3zm1.91 1.21v.48c-.09.17-.38.55-.87.55-.6 0-.72-.39-.72-.55 0-.16.08-.43.56-.48h1.03zM31.9 28c-.5 0-.9.4-.9.9v1.2a.9.9 0 0 0 1.82 0v-.12h-.33v.08a.58.58 0 1 1-1.17 0v-1.12a.58.58 0 0 1 1.17 0V29h.33v-.1c0-.5-.41-.9-.91-.9zm3.34 0h.34l.99 3h-.42l-.28-.77h-.9l-.25.77h-.43l.95-3zm-.17 1.86l.36-1.17.36 1.17h-.72zM47.94 28h-.33l-.96 3h.44l.25-.77h.9l.28.77h.41l-.99-3zm-.15.69l-.36 1.17h.73l-.37-1.17zM41.64 28H42v3h-.36v-3zm2.02.37V28h1.94v.37h-.8V31h-.35v-2.63h-.8zm7.2-.37h-.36v3H52v-.37h-1.14V28zm-12.82 0h.91a.93.93 0 1 1 0 1.86h-.55V31h-.36v-3zm.36 1.53v-1.2h.53a.6.6 0 1 1 0 1.2h-.53z" fill="#002A83"/></svg>