<!-- by TradingView --><svg width="56" height="56" viewBox="0 0 56 56" xmlns="http://www.w3.org/2000/svg"><path fill="#F0F3FA" d="M0 0h56v56H0z"/><path d="M22.67 35.13a27.64 27.64 0 0 1-6.83 4.27 33.85 33.85 0 0 1-2.62-1.57 2.97 2.97 0 0 1-1.2-2.55c-.02-4.7-.02-9.5-.02-14.4 0-2.16 1.29-2.72 3.27-3.92 6.05-3.66 9.69-5.84 10.9-6.54 1.05-.6 2.14-.56 3.28.12 1.08.65 5.7 3.36 13.86 8.11a.25.25 0 0 1 0 .43l-6.55 3.76a.85.85 0 0 1-.83 0l-7.58-4.35a1.31 1.31 0 0 0-1.33.01 335.73 335.73 0 0 1-6.19 3.64c-.9.5-1.81 1.27-1.83 2.06v8.17c0 .24 1.02 1.13 1.27 1.29l2.4 1.47Z" fill="#114B8A"/><path d="M15.84 39.4a27.64 27.64 0 0 0 6.83-4.27l3.94 2.22a1.55 1.55 0 0 0 1.52 0l8.2-4.71a.38.38 0 0 1 .39 0l7.2 4.14a.15.15 0 0 1 .06.2 1168.13 1168.13 0 0 0-14.55 8.48c-2.02 1.2-3.08.22-5.22-1.03-2.77-1.62-5.55-3.3-8.37-5.03Z" fill="#0E0E0E"/></svg>