<!-- by TradingView --><svg width="56" height="56" viewBox="0 0 56 56" xmlns="http://www.w3.org/2000/svg"><path fill="#181B1E" d="M0 0h56v56H0z"/><path d="m42 15.9-4 4a11.45 11.45 0 0 0 0 16.2l4 4-1.9 1.9-4-4a11.45 11.45 0 0 0-16.2 0l-4 4-1.9-1.9 4-4a11.45 11.45 0 0 0 0-16.2l-4-4 1.9-1.9 4 4a11.45 11.45 0 0 0 16.2 0l4-4 1.9 1.9ZM24 24v8h8v-8h-8Z" fill="#E9E7F2"/><path d="M28 38a7.62 7.62 0 0 1 6 2.99L32.26 43A5.18 5.18 0 0 0 28 40.7c-1.75 0-3.3.9-4.26 2.3L22 40.99A7.62 7.62 0 0 1 28 38ZM15.01 22A7.62 7.62 0 0 1 18 28a7.62 7.62 0 0 1-2.99 6L13 32.26A5.18 5.18 0 0 0 15.3 28c0-1.75-.9-3.3-2.3-4.26L15.01 22ZM43 23.74A5.18 5.18 0 0 0 40.7 28c0 1.75.9 3.3 2.3 4.26L40.99 34A7.62 7.62 0 0 1 38 28a7.62 7.62 0 0 1 2.99-6L43 23.74ZM34 15A7.62 7.62 0 0 1 28 18a7.62 7.62 0 0 1-6-2.99L23.74 13A5.18 5.18 0 0 0 28 15.3c1.75 0 3.3-.9 4.26-2.3L34 15.01Z" fill="#E9E7F2"/></svg>