<!-- by TradingView --><svg width="56" height="56" viewBox="0 0 56 56" fill="none" xmlns="http://www.w3.org/2000/svg">
<rect width="56" height="56" fill="#003662"/>
<circle cx="28" cy="28" r="28" fill="#003662"/>
<path d="M38.622 34.0534C40.3539 34.6031 42.0858 35.3359 44 36.4351C39.3512 28.7405 31.1474 20.4046 23.0348 15C25.1313 17.1069 28.504 21.687 29.4155 26.542C32.697 28.9237 35.7962 31.4886 38.622 34.0534Z" fill="white"/>
<path d="M38.6221 34.0534C34.6114 32.771 31.2387 32.6794 28.7776 32.9542C29.6891 30.8473 29.7802 28.6489 29.4156 26.542C23.3084 22.145 16.4719 18.2977 10 15.458C14.74 18.6641 20.0269 28.0992 22.2145 38.1756C26.9545 36.8015 34.1556 35.7939 43.5444 39C41.9948 37.3512 40.354 35.7023 38.6221 34.0534Z" fill="white"/>
</svg>
