<!-- by TradingView --><svg width="56" height="56" viewBox="0 0 56 56" xmlns="http://www.w3.org/2000/svg"><path fill="#F0F3FA" d="M0 0h56v56H0z"/><path d="M45.81 24C47.3 24 48 25.21 48 26.58V30h-1v-3.3c0-1.14-.6-1.7-1.5-1.7-1.14 0-1.5.9-1.5 1.94V30h-1v-6h1v1.66l-.23-.43A2.17 2.17 0 0 1 45.8 24ZM41 30v-3.66c0-.9-.55-1.42-1.58-1.42-.64 0-1.33.21-1.82.63l-.44-.8a3.77 3.77 0 0 1 2.38-.75c1.57 0 2.46.77 2.46 2.38V30h-1Zm-1.87 0c-1.04 0-2.13-.57-2.13-1.73 0-1.3 1.2-1.72 2.31-1.72h1.86v.77h-1.82c-.6 0-1.32.17-1.32.9 0 .58.47.96 1.27.96.79 0 1.44-.37 1.7-1.04l.16.73c-.27.7-.97 1.13-2.03 1.13ZM17 30v-3.66c0-.9-.55-1.42-1.58-1.42-.64 0-1.33.21-1.82.63l-.44-.8a3.77 3.77 0 0 1 2.38-.75c1.57 0 2.46.77 2.46 2.38V30h-1Zm-1.87 0c-1.04 0-2.13-.57-2.13-1.73 0-1.3 1.2-1.72 2.31-1.72h1.86v.77h-1.82c-.6 0-1.32.17-1.32.9 0 .58.47.96 1.27.96.79 0 1.44-.37 1.7-1.04l.16.73c-.27.7-.97 1.13-2.03 1.13ZM35 30v-8h1v8h-1ZM33 30v-8h1v8h-1ZM29.74 30c-1.76 0-3.24-1.18-3.24-3 0-1.71 1.32-3 3.02-3a2.92 2.92 0 0 1 2.96 3.35h-5.13v-.77h4.56l-.44.27a1.9 1.9 0 0 0-1.95-1.95c-1.12 0-2.02.86-2.02 1.97v.18c0 1.24 1.09 2.02 2.27 2.02.72 0 1.3-.24 1.74-.71l.6.69c-.54.61-1.36.95-2.37.95ZM25.76 30c-1.14 0-1.76-.64-1.76-1.78V23h1v5.17c0 .63.31.96.88.96.32 0 .59-.09.8-.27l.32.74c-.16.14-.35.24-.57.3-.21.07-.44.1-.67.1ZM23 25v-1h3.61v1H23ZM20.46 30c-.4 0-.77-.07-1.13-.2-.35-.13-.63-.3-.83-.49l.36-.84a2.71 2.71 0 0 0 1.66.61c.4 0 .68-.07.86-.21a.7.7 0 0 0 .26-.59.57.57 0 0 0-.16-.43 1 1 0 0 0-.43-.23 5 5 0 0 0-.58-.14l-.64-.15a2.54 2.54 0 0 1-.59-.27 1.3 1.3 0 0 1-.43-.48 1.8 1.8 0 0 1-.16-.82c0-.35.08-.66.24-.93.16-.26.39-.47.68-.6.3-.16.65-.23 1.05-.23.31 0 .63.05.94.14.32.1.59.22.79.4l-.37.84c-.21-.18-.44-.3-.67-.37-.23-.07-.46-.1-.7-.1-.37 0-.65.08-.83.23a.7.7 0 0 0-.28.58c0 .2.05.35.16.46.11.1.26.19.43.25.18.06.37.11.59.15.21.04.43.1.64.16.22.06.4.14.58.25.18.12.32.27.43.47.11.2.17.47.17.8 0 .35-.08.66-.25.92-.17.26-.4.46-.7.6-.3.15-.67.22-1.1.22ZM9.82 30a2.74 2.74 0 0 1-2.46-1.45A3.23 3.23 0 0 1 7 26.99c0-.58.12-1.1.36-1.55.24-.45.58-.8 1-1.05.43-.26.92-.39 1.46-.39.49 0 .92.1 1.3.32.38.2.67.52.88.93l-.74.52c-.17-.28-.39-.5-.64-.63a1.75 1.75 0 0 0-2.4.77c-.16.3-.24.66-.24 1.08 0 .43.08.8.24 1.1.16.31.38.55.65.72.28.17.6.26.94.26.3 0 .56-.07.8-.2.26-.14.48-.36.65-.64l.74.5c-.2.41-.5.73-.89.95-.37.21-.8.32-1.29.32Z" fill="#124470"/><path d="M48.13 31c.48 0 .87.37.87.83v3.34c0 .46-.4.83-.88.83H7.88a.85.85 0 0 1-.88-.83v-3.34c0-.46.4-.83.88-.83h40.24ZM24 33c-.2 0-.37.04-.52.13A.94.94 0 0 0 23 34c0 .2.04.37.13.52.1.15.22.26.38.35.17.09.35.13.57.13.17 0 .32-.03.45-.08a.88.88 0 0 0 .34-.24l-.2-.23a.7.7 0 0 1-.26.18c-.1.04-.2.06-.32.06a.83.83 0 0 1-.38-.09.65.65 0 0 1-.26-.23.66.66 0 0 1-.09-.25H25v-.06l.01-.05c0-.2-.04-.38-.13-.53a.88.88 0 0 0-.35-.35 1.03 1.03 0 0 0-.51-.13Zm2.47-.47H26v.37h.48v1.34c0 .24.08.43.24.56a1 1 0 0 0 .66.2c.12 0 .23-.01.34-.04a.8.8 0 0 0 .28-.13l-.16-.32a.67.67 0 0 1-.4.12.48.48 0 0 1-.33-.1c-.08-.08-.11-.18-.11-.31V32.9h.8v-.37H27V32h-.52v.53Zm3.94-.53c-.3 0-.53.06-.7.19a.6.6 0 0 0-.24.5v.18H29v.32h.48V35H30v-1.8h.81v-.33H30v-.18c0-.12.04-.22.11-.28.08-.06.2-.1.35-.1a.8.8 0 0 1 .4.1l.15-.29a.78.78 0 0 0-.26-.09c-.1-.02-.2-.03-.32-.03Zm2.64 1c-.2 0-.38.02-.52.07a.76.76 0 0 0-.34.2.45.45 0 0 0-.12.32c0 .11.02.2.08.27.05.07.12.12.21.16.09.04.19.07.3.09a7.18 7.18 0 0 0 .6.1c.1.01.17.04.22.07.05.04.08.09.08.15 0 .08-.04.15-.13.2a.96.96 0 0 1-.43.06 1.77 1.77 0 0 1-.83-.2l-.18.28c.1.06.24.12.41.16a2.33 2.33 0 0 0 1.11 0 .84.84 0 0 0 .35-.2.43.43 0 0 0 .13-.31.4.4 0 0 0-.09-.27.53.53 0 0 0-.2-.15 3.67 3.67 0 0 0-.61-.14l-.3-.05a.72.72 0 0 1-.22-.08.18.18 0 0 1-.08-.16c0-.08.05-.14.14-.19.1-.05.23-.08.42-.08.11 0 .23.01.35.04.11.02.22.06.33.12l.18-.28c-.1-.06-.23-.1-.39-.13a2.34 2.34 0 0 0-.47-.05Zm-9.05.3a.65.65 0 0 1 .57.31c.04.08.06.16.07.25h-1.29a.65.65 0 0 1 .08-.24c.05-.1.13-.18.23-.24.1-.05.21-.08.34-.08Z" fill="#599B44"/><circle cx="22.5" cy="22.5" r=".5" fill="#124470"/><circle cx="26.5" cy="22.5" r=".5" fill="#124470"/><circle cx="24.5" cy="21.5" r=".5" fill="#124470"/><path d="M20 21.05c.16.55 1.02 1.15 2 .88a1.86 1.86 0 0 0-2-.88ZM29 21.05c-.16.55-1.02 1.15-2 .88.22-.4.93-1.12 2-.88ZM21 18c.13.67.72 2 2 2 0-.53-.4-1.68-2-2ZM28 18c-.13.67-.72 2-2 2 0-.53.4-1.68 2-2ZM24.5 17c-.38.5-.9 1.8 0 3 .38-.5.9-1.8 0-3Z" fill="#599B44"/></svg>