<!-- by TradingView --><svg xmlns="http://www.w3.org/2000/svg" width="56" height="56" viewBox="0 0 56 56"><path fill="#F0F3FA" d="M0 0h56v56H0z"/><path d="M39.5 26c-.83 0-1.5.62-1.5 1.38v8.24c0 .76.67 1.38 1.5 1.38s1.5-.62 1.5-1.38v-8.24c0-.76-.67-1.38-1.5-1.38ZM21.74 33.8a.71.71 0 0 1 .26.52.73.73 0 0 1-.22.55A7.44 7.44 0 0 1 16.51 37C12.28 37 9 33.7 9 29.47c0-4.2 3.27-7.47 7.5-7.47a7.06 7.06 0 0 1 5.16 2.09.72.72 0 0 1 .2.56.72.72 0 0 1-.27.52l-1 .77a.74.74 0 0 1-1.02.04c-.83-.82-2.07-1.04-3.06-1.04A4.57 4.57 0 0 0 12 29.5c0 2.51 2 4.54 4.5 4.54 1.2 0 2.36-.23 3.17-1.11a.69.69 0 0 1 .92-.06l1.15.93ZM35.27 22h-4.1a1.71 1.71 0 0 0-1.17.44 1.55 1.55 0 0 0-.5 1.1 1.48 1.48 0 0 0-.5-1.1 1.64 1.64 0 0 0-1.17-.44h-4.09a.77.77 0 0 0-.52.2.7.7 0 0 0-.22.5v1.6a.66.66 0 0 0 .21.5.74.74 0 0 0 .52.2h3.54c.2 0 .38.07.52.2.13.13.21.31.21.5v10.6c0 .19.08.37.21.5.14.13.33.2.52.2h1.54c.2 0 .38-.07.52-.2.13-.13.21-.31.21-.5V25.7c0-.19.08-.37.21-.5.14-.13.33-.2.52-.2h3.54a.77.77 0 0 0 .52-.2.7.7 0 0 0 .21-.5v-1.6a.68.68 0 0 0-.22-.5.75.75 0 0 0-.51-.2Z" fill="#000001"/><path d="M39.5 25a1.5 1.5 0 1 0 0-3 1.5 1.5 0 0 0 0 3ZM37.73 18.25c.43 0 .78-.35.78-.79a.78.78 0 0 0-.78-.78.78.78 0 0 0-.78.78c0 .44.35.79.78.79ZM46.22 26.13c.43 0 .78-.35.78-.79a.78.78 0 0 0-.78-.78.78.78 0 0 0-.78.78c0 .44.35.8.78.8ZM41.27 21.43c.65 0 1.17-.53 1.17-1.18 0-.65-.52-1.18-1.17-1.18-.64 0-1.16.53-1.16 1.18 0 .65.52 1.18 1.16 1.18ZM44.88 18.36c.64 0 1.16-.53 1.16-1.18 0-.65-.52-1.18-1.16-1.18-.65 0-1.17.53-1.17 1.18 0 .65.52 1.18 1.17 1.18ZM43.71 23.71c.64 0 1.17-.53 1.17-1.18 0-.65-.53-1.18-1.17-1.18-.64 0-1.17.53-1.17 1.18 0 .65.53 1.18 1.17 1.18Z" fill="#D50032"/></svg>