<!-- by TradingView --><svg width="56" height="56" viewBox="0 0 56 56" xmlns="http://www.w3.org/2000/svg"><path fill="#F0F3FA" d="M0 0h56v56H0z"/><path fill-rule="evenodd" d="M8 18h40v20H8V18Zm6.9 1h-2.8a.1.1 0 0 0-.1.1v2.8c0 .05.05.1.1.1h2.8c.06 0 .1-.05.1-.1v-2.8a.1.1 0 0 0-.1-.1Zm13.95 1.71c-.22-.83-.97-1.67-1.88-1.71h-4.21c-.7 0-.98.31-1.35.7a9.67 9.67 0 0 1-.29.27.08.08 0 0 1-.08-.03l-.02-.02-.02-.02v-.7c0-.1-.05-.2-.15-.2H18v3h2.89c.02 0 .04.03.05.05l.02.02c.02.02.04.05.04.08v12.33c0 .9.48 2.52 1.62 2.52h4.89a2 2 0 0 0 1.27-1.24c.14-.38.22-.84.22-1.37V29h-3v5.78c0 .5-.47.68-.97.66-.47-.02-1.03-.27-1.03-.77V21.53c0-.5.43-.74.9-.75.52 0 1.1.19 1.1.73v4.3a.2.2 0 0 0 .18.19H29v-4c0-.48-.05-.9-.15-1.29Zm6.69.83v15.34a.12.12 0 0 1-.07.11h-.04l-2.8.01a.11.11 0 0 1-.08-.03.12.12 0 0 1-.04-.09V21.54a.12.12 0 0 0-.06-.11l-.05-.01-2.25.01a.11.11 0 0 1-.08-.03l-.02-.02c-.02-.02-.05-.04-.05-.06v-2.16a.12.12 0 0 1 .07-.1l.02-.03c0-.02.02-.03.03-.03h7.76a.11.11 0 0 1 .11.07l.01.05v2.2l-.04.07a.11.11 0 0 1-.08.04h-2.22a.11.11 0 0 0-.09.03.12.12 0 0 0-.03.08Zm9 15.34V21.54c0-.03.01-.06.03-.08a.11.11 0 0 1 .09-.04h2.22c.03 0 .06 0 .08-.03a.12.12 0 0 0 .04-.08v-2.2a.12.12 0 0 0-.07-.1l-.05-.01h-7.76l-.03.03-.02.02a.12.12 0 0 0-.07.11v2.16c0 .02.03.04.05.06l.02.02c.02.02.05.03.08.03l2.25-.01a.11.11 0 0 1 .08.03.12.12 0 0 1 .04.09v15.34c0 .03 0 .06.03.09.02.02.05.03.08.03h2.8a.11.11 0 0 0 .08-.04.12.12 0 0 0 .03-.08ZM11.87 22H9.13a.13.13 0 0 0-.13.12v2.76c0 .06.06.12.13.12h2.74c.07 0 .13-.06.13-.12v-2.76a.13.13 0 0 0-.13-.12ZM18 27.9v-5.83c0-.04-.04-.07-.08-.07H15v2.91c0 .06-.03.09-.09.09h-2.83c-.02 0-.04 0-.06.02a.08.08 0 0 0-.02.05v2.85c0 .05-.03.08-.08.08H9.15c-.15 0-.15.07-.15.17v8.59c0 .11.11.24.23.24H15v-2.92c0-.06-.06-.08-.12-.08h-2.76a.12.12 0 0 1-.12-.12v-2.8a.07.07 0 0 1 .05-.07l.03-.01h2.82c.02 0 .04 0 .06-.02v-.01l.04-.04v-2.84c0-.06.03-.09.1-.09h2.79a.1.1 0 0 0 .07-.03l.04-.07Z" fill="url(#audplcbji)"/><defs><linearGradient id="audplcbji" x1="8" y1="28" x2="48" y2="28" gradientUnits="userSpaceOnUse"><stop stop-color="#62B4D0"/><stop offset="1" stop-color="#397FB3"/></linearGradient></defs></svg>