<!-- by TradingView --><svg width="56" height="56" viewBox="0 0 56 56" xmlns="http://www.w3.org/2000/svg"><path fill="#126269" d="M0 0h56v56H0z"/><path d="M21 17c2.37 0 4.54.82 6.25 2.2-.71.7-1.32 1.5-1.82 2.38a7 7 0 1 0 0 10.84c.5.87 1.1 1.68 1.82 2.38A10 10 0 1 1 21 17Z" fill="#FFFEFF"/><path d="M32.52 17.31a2.99 2.99 0 0 0-.12 3.19 7 7 0 0 0 .65 13.22 3 3 0 0 0-1 2.84 10 10 0 0 1 .47-19.25Zm4.96 0a10 10 0 0 1 .47 19.25 3.01 3.01 0 0 0-1-2.84 7 7 0 0 0 .64-13.22 2.98 2.98 0 0 0-.11-3.19Z" fill="#FDFBFC"/><circle cx="35" cy="19" r="2" fill="#E4078A"/><circle cx="35" cy="36" r="2" fill="#E4078A"/></svg>