<!-- by TradingView --><svg xmlns="http://www.w3.org/2000/svg" width="56" height="56" viewBox="0 0 56 56"><path d="M56 0H0v56h56V0Z" fill="#F0F3FA"/><path d="M48 24v-2l-4 4h1.99v2.06c0 1.6.9 3.04 2.62 2.93.7.03 1.77-.13 2.39-.47v-1.57c-.46.35-1.39.53-1.96.52-.8 0-1.04-.42-1.04-1.27V26h1.63v-2H48Zm-12 .89V24h-2v7h2v-4a3.4 3.4 0 0 1 2.7-1.6c.79 0 1.34.2 1.68.5.33.3.61.8.61 1.5V31H43v-3.92c0-.84-.16-1.4-.45-1.84-.3-.42-.73-.74-1.22-.9a5.2 5.2 0 0 0-1.88-.34c-1.21 0-2.45.22-3.45.89ZM25.79 27c.43-1.01 1.68-1.54 2.71-1.5.95 0 2.19.5 2.5 1.5h-5.21Zm2.71-3c-2.16 0-4.73.85-4.71 3.45.04 2.66 2.77 3.55 5.03 3.55 1.78 0 3.11-.45 3.82-.93V28.7c-1.48.76-7.02 1.36-7.02-.71h7.17c0-2.38-1.53-4-4.29-4Zm-4.65 0h-2.2l-2.67 4.4-2.79-4.4H14l4.62 7h.71l4.53-7Z"/><path d="M13 29.03v1.6c-1.02.24-2.01.37-2.98.37-2.13 0-5.1-.81-5.02-3.46C5 24.93 7.58 24 9.8 24c1.02 0 2.03.15 2.99.47v1.62c-1.53-.68-5.8-1.33-5.79 1.4 0 2.7 4.37 2.03 6 1.54Z" fill="#4A90E2"/></svg>