<!-- by TradingView --><svg width="56" height="56" viewBox="0 0 56 56" xmlns="http://www.w3.org/2000/svg"><path fill="url(#a)" d="M0 0h56v56H0z"/><path d="M17.27 34.93A22.47 22.47 0 0 1 14.95 30a10.16 10.16 0 0 1-.4-1.49 8.13 8.13 0 0 1-.25-1.43 25.13 25.13 0 0 1-.27-2.94L14 18.93c0-.6.18-1.12.56-1.6.16-.2.42-.35.78-.47l2.17-.6c.47-.14.84-.22 1.1-.27.37-.05.62-.1.75-.14.25-.07.66-.15 1.24-.22.32-.04.55-.07.67-.1.48-.1.87-.15 1.17-.17.35-.02.87-.07 1.56-.15a38.7 38.7 0 0 1 6.96-.1l2.9.27c.21.02.53.07.96.15l.88.14c.38.04.75.1 1.08.2l.65.12.8.18 2.03.54c.68.17 1.14.42 1.36.75.4.6.49 1.1.25 1.49a39.05 39.05 0 0 1-6.45 7.88 30.68 30.68 0 0 1-10.62 6.55c-.86.32-1.71.57-2.55.76-.52.12-.95.23-1.3.33-.37.1-.96.2-1.78.3-.44.06-.76.1-.96.14a3.43 3.43 0 0 1-.9.05.12.12 0 0 1-.04-.03Z" fill="#22E4C7"/><path d="m31.52 16.81-1.75.23-1.54.2c-.78.02-1.47.1-2.04.21-.73.15-1.33.25-1.8.3-.53.06-1.25.17-2.15.34l-.98.18c-.42.08-.91.21-1.47.41-.56.2-1.04.47-1.44.83a6 6 0 0 0-1.2 1.33 6.81 6.81 0 0 0-.93 3.35l-.04 2.44c0 .13-.02.29-.06.46a.08.08 0 0 1-.06.06.07.07 0 0 1-.08-.05c-.17-.39-.29-.87-.36-1.42-.06-.48-.16-1.12-.28-1.91-.16-.97-.2-1.97-.16-3a4.9 4.9 0 0 1 .53-2.12c.08-.14.27-.26.55-.36.56-.2 1.08-.34 1.57-.45.5-.11.82-.19.93-.23.36-.12.93-.26 1.72-.4l.66-.11c.32-.07.77-.14 1.36-.21.44-.06.77-.1 1.01-.15.4-.06.8-.12 1.22-.15l2.81-.25c1.67-.15 3-.09 4 .2a.14.14 0 0 1-.02.27Z" fill="#fff"/><path d="M18.44 36.38c1.43-.08 2.25-.15 2.47-.19l1.03-.16c.74-.11 1.3-.22 1.7-.32l2-.5c1.55-.38 3.27-.99 5.16-1.81a33.88 33.88 0 0 0 11.15-7.82.03.03 0 0 1 .01.03 20.02 20.02 0 0 1-13 17.2c-.7.29-1.43.25-2.16-.12a8.77 8.77 0 0 0-.65-.28 20.6 20.6 0 0 1-6.64-4.64 9.28 9.28 0 0 1-1.1-1.37.03.03 0 0 1 .03-.02Z" fill="#22E4C7"/><defs><linearGradient id="a" x1="10.42" y1="9.71" x2="68.15" y2="76.02" gradientUnits="userSpaceOnUse"><stop stop-color="#1A1E21"/><stop offset="1" stop-color="#06060A"/></linearGradient></defs></svg>