<!-- by TradingView --><svg width="56" height="56" viewBox="0 0 56 56" xmlns="http://www.w3.org/2000/svg"><path fill="#F0F3FA" d="M0 0h56v56H0z"/><path d="M39 25h5v1.54h-.2c-.1-.48-.24-.8-.4-.94-.15-.15-.48-.22-.98-.22H42v4.64c0 .63.17.77.78.82V31h-2.53v-.16c.66-.06.75-.27.75-.93v-4.53h-.42c-.48 0-.8.07-.98.21-.17.15-.3.46-.39.95H39V25Z" fill="url(#a)"/><path d="M31 28c0 1.23.54 2.69 2 2.69s2-1.46 2-2.69-.54-2.69-2-2.69-2 1.47-2 2.7Zm-1 0c0-1.7 1.3-3 3-3 1.71 0 3 1.3 3 3s-1.3 3-3 3-3-1.3-3-3Z" fill="url(#b)"/><path d="M21.21 30.84c.66-.06.79-.29.79-.93v-3.93c0-.59-.2-.77-.79-.81V25h2.48v.17c-.58.03-.69.22-.69.81v1.86c.54-.47.86-.88 1.2-1.21.6-.6.91-1 .91-1.16 0-.13-.05-.2-.15-.24a1.3 1.3 0 0 0-.44-.06V25h2.27v.15c-.27.03-.5.08-.65.17-.16.08-.38.27-.67.56l-1.65 1.69 2.03 2.28a8 8 0 0 0 .77.8c.13.1.33.16.6.2V31h-2.66v-.16c.24-.01.4-.03.49-.06.08-.03.12-.1.12-.19a.56.56 0 0 0-.08-.23c-.06-.1-.14-.22-.26-.36l-1.54-1.88-.29.26v1.64c0 .6.2.76.67.82V31h-2.46v-.16Z" fill="url(#c)"/><path d="M6 30.3c0 .31.18.36.46.36 1.54 0 2.1-1.2 2.1-2.66 0-1.46-.57-2.67-2.13-2.67-.27 0-.43.07-.43.36v4.61Zm-1.5.54c.54-.07.5-.29.5-.82v-4.04c0-.52.05-.77-.5-.81V25h2.1c1.8 0 2.9 1.18 2.9 3.02C9.5 29.8 8.42 31 6.66 31H4.5v-.16Z" fill="url(#d)"/><path d="M17.22 30.05c.14.34.26.55.34.63.1.08.24.13.44.16V31h-2.2v-.16a2 2 0 0 0 .48-.08c.08-.04.11-.12.11-.25a2.56 2.56 0 0 0-.16-.58l-1.49-3.67s-.86 2.08-1.55 3.88c-.04.13-.06.23-.06.3 0 .16.06.26.18.32.07.04.2.06.41.08V31H12v-.16a.69.69 0 0 0 .5-.26c.11-.15.3-.55.58-1.2l1.8-4.38h.18l2.16 5.05Z" fill="url(#e)"/><path d="M51.22 30.05c.14.34.26.55.34.63.1.08.24.13.44.16V31h-2.2v-.16a2 2 0 0 0 .48-.08c.08-.04.11-.12.11-.25a2.56 2.56 0 0 0-.16-.58l-1.49-3.67s-.86 2.08-1.55 3.88c-.04.13-.06.23-.06.3 0 .16.06.26.18.32.07.04.2.06.41.08V31H46v-.16a.69.69 0 0 0 .5-.26c.11-.15.3-.55.58-1.2l1.8-4.38h.18l2.16 5.05Z" fill="url(#f)"/><defs><linearGradient id="a" x1="41.5" y1="25" x2="41.5" y2="31" gradientUnits="userSpaceOnUse"><stop stop-color="#1A5682"/><stop offset=".41" stop-color="#00040C"/><stop offset="1" stop-color="#629B91"/></linearGradient><linearGradient id="b" x1="33" y1="25" x2="33" y2="31" gradientUnits="userSpaceOnUse"><stop stop-color="#1A5682"/><stop offset=".41" stop-color="#00040C"/><stop offset="1" stop-color="#629B91"/></linearGradient><linearGradient id="c" x1="24" y1="25" x2="24" y2="31" gradientUnits="userSpaceOnUse"><stop stop-color="#1A5682"/><stop offset=".41" stop-color="#00040C"/><stop offset="1" stop-color="#629B91"/></linearGradient><linearGradient id="d" x1="6.5" y1="25" x2="6.5" y2="31" gradientUnits="userSpaceOnUse"><stop stop-color="#1A5682"/><stop offset=".41" stop-color="#00040C"/><stop offset="1" stop-color="#629B91"/></linearGradient><linearGradient id="e" x1="15" y1="25" x2="15" y2="31" gradientUnits="userSpaceOnUse"><stop stop-color="#1A5682"/><stop offset=".41" stop-color="#00040C"/><stop offset="1" stop-color="#629B91"/></linearGradient><linearGradient id="f" x1="49" y1="25" x2="49" y2="31" gradientUnits="userSpaceOnUse"><stop stop-color="#1A5682"/><stop offset=".41" stop-color="#00040C"/><stop offset="1" stop-color="#629B91"/></linearGradient></defs></svg>