<!-- by TradingView --><svg width="56" height="56" viewBox="0 0 56 56" fill="none" xmlns="http://www.w3.org/2000/svg">
<rect width="56" height="56" fill="#074658"/>
<path fill-rule="evenodd" clip-rule="evenodd" d="M42 42V14H14V42H42ZM13 13H43V43H13V13ZM18.707 19.033C18.6483 19.0087 18.5858 18.9976 18.5233 19.0004H18.4843C18.3543 19.0041 18.2292 19.057 18.1291 19.1507C18.0464 19.2445 18 19.3714 18 19.5038C18 19.6361 18.0464 19.763 18.1291 19.8569C18.2223 19.948 18.343 20.0065 18.4662 20C18.8186 20 18.9998 19.8272 18.9998 19.5043C19.0016 19.4367 18.9905 19.3694 18.9674 19.3071C18.9443 19.2447 18.9096 19.1886 18.8657 19.1425C18.8197 19.0946 18.7658 19.0574 18.707 19.033ZM19 20.6274L18 21.0628V24H19V20.6274ZM20.0015 19H21.0024L22.0256 22.3389L23.0061 19H23.9969V24H23V20.3748L21.9244 24H21.5437L20.4239 20.1832V24H20.0015V19ZM22.9038 26L21.9991 26.4704V31H22.9991V26H22.9038ZM25.0423 30.9999C24.8367 31.002 24.6329 30.9601 24.4447 30.8769C24.2652 30.7968 24.1049 30.6792 23.9747 30.5319C23.8398 30.3772 23.7359 30.1979 23.6687 30.0039C23.5937 29.7855 23.5568 29.5558 23.5597 29.3249C23.5576 29.0967 23.5955 28.87 23.6717 28.6549C23.7416 28.4579 23.8463 28.275 23.9807 28.1149C24.1071 27.964 24.2629 27.8404 24.4387 27.7519C24.6153 27.6636 24.8103 27.6184 25.0077 27.6199C25.2058 27.6186 25.4014 27.6638 25.5787 27.7519C25.7554 27.8396 25.9117 27.9633 26.0377 28.1149C26.1698 28.2774 26.2714 28.4623 26.3377 28.6609C26.4123 28.8805 26.4495 29.111 26.4477 29.3429C26.4498 29.5687 26.4136 29.7932 26.3407 30.0069C26.2756 30.1984 26.176 30.3763 26.0467 30.5319C25.9251 30.6773 25.7737 30.7949 25.6027 30.8769C25.4276 30.9596 25.236 31.0017 25.0423 30.9999ZM25.0423 30.9999L25.0447 30.9999H25.0397L25.0423 30.9999ZM24.5327 29.3189C24.5327 29.5909 24.5397 29.8189 24.5557 29.9949C24.5646 30.1393 24.5897 30.2822 24.6307 30.4209C24.6524 30.5082 24.7019 30.5862 24.7717 30.6429C24.8393 30.6871 24.919 30.7092 24.9997 30.7059C25.0733 30.7063 25.1445 30.6796 25.1997 30.6309C25.2711 30.5628 25.3229 30.4768 25.3497 30.3819C25.3972 30.2304 25.428 30.0741 25.4417 29.9159C25.465 29.6776 25.4757 29.4383 25.4737 29.1989C25.4756 29.0039 25.4632 28.8091 25.4367 28.6159C25.4186 28.4815 25.3851 28.3496 25.3367 28.2229C25.3066 28.1387 25.2573 28.0627 25.1927 28.0009C25.1474 27.9583 25.088 27.9338 25.0257 27.9319C24.9686 27.9301 24.912 27.944 24.8621 27.972C24.8122 28 24.7709 28.0411 24.7427 28.0909C24.6732 28.2087 24.6245 28.3376 24.5987 28.4719C24.5675 28.6234 24.5491 28.7773 24.5437 28.9319C24.5377 29.0899 24.5357 29.2189 24.5357 29.3189H24.5327ZM28 27.964V26.0061L27 26.4239V30.8846C27.0014 30.938 27.0077 30.9999 27.052 30.9999C27.0717 31.0007 27.0913 30.9965 27.109 30.9878L27.657 30.575C27.9426 30.7997 28.2479 31.0018 28.627 30.9999C29.5061 31.0091 30.008 30.1013 29.996 29.3053C30.0026 28.561 29.626 27.573 28.744 27.5803C28.4488 27.5679 28.1666 27.7173 28 27.964ZM29 29.2142C29 30.1457 28.7823 30.6114 28.459 30.6114C27.9528 30.6114 27.91 29.6738 27.91 29.2142C27.8916 28.8239 27.9444 28.0213 28.448 28.0113C28.9983 28.0071 29 28.8529 29 29.2142ZM34 26.4704L34.9046 26H35V31H34V26.4704ZM19.69 33.0001H18V38H19V36.0247C18.987 35.8491 19.0796 35.8174 19.234 35.8174C19.522 35.821 19.8094 35.7883 20.09 35.72C20.3179 35.6659 20.5349 35.5702 20.731 35.4372C20.8962 35.3237 21.0333 35.1708 21.131 34.991C21.225 34.8084 21.2725 34.6036 21.269 34.3961C21.2696 34.2092 21.227 34.0249 21.145 33.8589C21.061 33.6878 20.9454 33.5358 20.805 33.4117C20.6564 33.2814 20.4871 33.1793 20.305 33.11C20.1078 33.0355 19.8996 32.9983 19.69 33.0001ZM20.21 34.437C20.2515 35.1465 19.6715 35.5499 19 35.4403V33.5122C18.9763 33.3424 19.2045 33.3363 19.321 33.3363C19.9448 33.3003 20.21 33.9056 20.21 34.437ZM21.5444 34.8588C21.659 34.8108 21.759 34.7718 21.8444 34.7418C21.9977 34.6867 22.1579 34.6531 22.3204 34.6418C22.3994 34.6358 22.4904 34.6328 22.5944 34.6328C23.1277 34.6328 23.5844 34.7511 23.7971 34.9878C23.9919 35.1829 24.0069 35.4888 24 35.7498V37.1908C23.9987 37.4552 24.0406 37.7549 24.1431 38H23.1594L23.0594 37.6598C22.9479 37.7592 22.8213 37.8402 22.6844 37.8998C22.5269 37.9689 22.3563 38.0031 22.1844 37.9998C22.0481 38.001 21.9133 37.9723 21.7894 37.9158C21.6692 37.8604 21.5612 37.7819 21.4714 37.6848C21.3799 37.5843 21.3086 37.4672 21.2614 37.3398C21.2103 37.2012 21.1849 37.0544 21.1864 36.9068C21.1844 36.7573 21.2137 36.6092 21.2724 36.4718C21.3284 36.3444 21.4101 36.2301 21.5124 36.1358C21.6186 36.0389 21.743 35.9641 21.8784 35.9158C22.0302 35.8621 22.1903 35.8357 22.3514 35.8378C22.4896 35.8319 22.6271 35.8608 22.7514 35.9218C22.8392 35.9698 22.9222 36.0261 22.9994 36.0898V35.4778C22.9994 35.2778 22.9574 35.1328 22.8724 35.0548C22.7512 34.9653 22.6013 34.9236 22.4514 34.9378C22.3787 34.9368 22.3061 34.9449 22.2354 34.9618C22.1681 34.9793 22.1037 35.0066 22.0444 35.0428C21.9705 35.0891 21.9012 35.1423 21.8374 35.2018C21.7624 35.2698 21.6724 35.3578 21.5684 35.4658L21.4884 35.4778L21.5444 34.8588ZM22.9984 36.3848C22.9413 36.3269 22.8733 36.281 22.7984 36.2498C22.7224 36.2163 22.6404 36.1989 22.5574 36.1988C22.4915 36.1983 22.4267 36.215 22.3693 36.247C22.3118 36.2791 22.2636 36.3255 22.2294 36.3818C22.1381 36.5345 22.0945 36.7111 22.1044 36.8888C22.0953 37.0649 22.1411 37.2396 22.2354 37.3888C22.2746 37.4469 22.3279 37.4943 22.3903 37.5263C22.4527 37.5583 22.5222 37.5739 22.5924 37.5718C22.6628 37.5733 22.7323 37.5545 22.7924 37.5178C22.8729 37.4594 22.9434 37.3885 23.0014 37.3078L22.9984 36.3848ZM31.0596 27.7418C30.9742 27.7718 30.8742 27.8108 30.7596 27.8588L30.7036 28.4778L30.7836 28.4658C30.8876 28.3578 30.9776 28.2698 31.0526 28.2018C31.1164 28.1423 31.1857 28.0891 31.2596 28.0428C31.3189 28.0066 31.3833 27.9793 31.4506 27.9618C31.5213 27.9449 31.5939 27.9368 31.6666 27.9378C31.8165 27.9236 31.9664 27.9653 32.0876 28.0548C32.1726 28.1328 32.2146 28.2778 32.2146 28.4778V29.0898C32.1374 29.0261 32.0544 28.9698 31.9666 28.9218C31.8423 28.8608 31.7048 28.8319 31.5666 28.8378C31.4056 28.8357 31.2454 28.8621 31.0936 28.9158C30.9582 28.9641 30.8338 29.0389 30.7276 29.1358C30.6253 29.2301 30.5436 29.3444 30.4876 29.4718C30.4289 29.6092 30.3996 29.7573 30.4016 29.9068C30.4001 30.0544 30.4256 30.2012 30.4766 30.3398C30.5238 30.4672 30.5951 30.5843 30.6866 30.6848C30.7764 30.7819 30.8844 30.8604 31.0046 30.9158C31.1285 30.9723 31.2634 31.001 31.3996 30.9998C31.5715 31.0031 31.7421 30.9689 31.8996 30.8998C32.0365 30.8402 32.1631 30.7592 32.2746 30.6598L32.3746 31H33.3583C33.2558 30.7549 33.2139 30.4552 33.2152 30.1908V28.7498C33.2221 28.4888 33.2071 28.183 33.0123 27.9878C32.7996 27.7511 32.3429 27.6328 31.8096 27.6328C31.7056 27.6328 31.6146 27.6358 31.5356 27.6418C31.3731 27.6531 31.2129 27.6867 31.0596 27.7418ZM32.0136 29.2498C32.0885 29.281 32.1565 29.3269 32.2136 29.3848L32.2166 30.3078C32.1586 30.3885 32.0881 30.4594 32.0076 30.5178C31.9475 30.5545 31.878 30.5733 31.8076 30.5718C31.7375 30.5739 31.6679 30.5583 31.6055 30.5263C31.5431 30.4943 31.4898 30.4469 31.4506 30.3888C31.3563 30.2396 31.3106 30.0649 31.3196 29.8888C31.3097 29.7111 31.3533 29.5345 31.4446 29.3818C31.4788 29.3255 31.527 29.2791 31.5845 29.247C31.6419 29.215 31.7068 29.1983 31.7726 29.1988C31.8556 29.1989 31.9376 29.2163 32.0136 29.2498ZM24.5835 35.107L25.5798 34.707V35.386C25.6299 35.3286 25.678 35.2642 25.7271 35.1987L25.7271 35.1987C25.8761 34.9996 26.0333 34.7896 26.2763 34.73C26.3337 34.7173 26.3925 34.7113 26.4514 34.712H26.5151C26.5368 34.7123 26.5585 34.7143 26.5798 34.718V35.718C26.4121 35.526 26.2324 35.43 26.0407 35.43C25.8474 35.4318 25.6605 35.5705 25.5798 35.742V38H24.5835V35.107ZM36.9963 34.707L36 35.107V38H36.9963V35.742C37.077 35.5705 37.2639 35.4318 37.4572 35.43C37.6489 35.43 37.8286 35.526 37.9963 35.718V34.718C37.975 34.7143 37.9533 34.7123 37.9316 34.712H37.8679C37.809 34.7113 37.7502 34.7173 37.6928 34.73C37.4498 34.7896 37.2926 34.9996 37.1436 35.1987C37.0946 35.2642 37.0464 35.3286 36.9963 35.386V34.707ZM28 33.5269V34.6215H28.5977V35H28V37.6019C28.0484 37.6421 28.1648 37.6519 28.2253 37.6319C28.3551 37.601 28.5244 37.4545 28.5341 37.3099H28.6535V37.9279C28.6371 37.9279 28.5626 37.9399 28.4345 37.9639C28.2847 37.9895 28.1325 38.0015 27.9801 37.9999C27.8532 37.9998 27.728 37.9742 27.6132 37.9249C27.4967 37.8762 27.3909 37.8084 27.3011 37.7249C27.2098 37.6405 27.1357 37.542 27.0821 37.4339C27.0278 37.3253 26.9998 37.2072 27 37.0879V33.9479L28 33.5269ZM30 34.659L29 35.059V37.999H30V35.599C30.1633 35.3772 30.3291 35.1591 30.622 35.161C30.9024 35.1511 31.0002 35.4409 31 35.677V38H31.9999V35.484C32.0084 34.9866 31.5445 34.653 31.0715 34.655C30.6229 34.6523 30.1913 34.8568 30 35.206V34.659ZM33.5658 36.8215C33.568 37.0552 33.6459 37.2819 33.7878 37.4675C33.8514 37.542 33.931 37.601 34.0208 37.6402C34.1105 37.6793 34.208 37.6976 34.3058 37.6935C34.4966 37.6986 34.6843 37.6441 34.8428 37.5375C35.017 37.4011 35.1544 37.2234 35.2428 37.0205L35.3178 37.0145L35.2838 37.6875C35.1336 37.7974 34.9639 37.8778 34.7838 37.9245C34.564 37.9784 34.3381 38.0036 34.1118 37.9995C33.8869 38.0023 33.6639 37.9584 33.4568 37.8705C33.2621 37.7868 33.0886 37.6608 32.9488 37.5015C32.8044 37.3339 32.6938 37.1401 32.6228 36.9305C32.5431 36.6928 32.5042 36.4433 32.5078 36.1925C32.506 35.9807 32.5451 35.7706 32.6228 35.5735C32.6959 35.3881 32.8039 35.2184 32.9408 35.0735C33.0744 34.9316 33.2353 34.818 33.4138 34.7395C33.5991 34.6584 33.7995 34.6175 34.0018 34.6195C34.3871 34.6195 34.6831 34.7149 34.8898 34.9055C35.0965 35.0962 35.2331 35.3962 35.2998 35.8055L33.5658 36.8215ZM34.4248 35.8785C34.4248 35.5225 34.3941 35.2725 34.3328 35.1285C34.3083 35.062 34.2632 35.005 34.204 34.9659C34.1448 34.9269 34.0746 34.9078 34.0038 34.9115C33.9269 34.9114 33.8517 34.934 33.7875 34.9763C33.7233 35.0186 33.673 35.0788 33.6428 35.1495C33.5482 35.3702 33.5057 35.6098 33.5188 35.8495V36.0685C33.5188 36.1391 33.5218 36.2204 33.525 36.3075L33.5278 36.3845L34.4248 35.8785ZM19.695 28.4236H20.995V30.5238C20.8923 30.6131 20.7815 30.6927 20.664 30.7618C20.5275 30.8362 20.382 30.8932 20.231 30.9313C19.784 31.0544 19.307 31.011 18.89 30.8094C18.6298 30.6822 18.3989 30.5029 18.212 30.2829C18.0141 30.0476 17.8606 29.7789 17.759 29.4896C17.6474 29.1739 17.5919 28.8414 17.595 28.5069C17.5912 28.1652 17.647 27.8253 17.76 27.5024C17.8631 27.2106 18.022 26.9413 18.228 26.7092C18.43 26.4828 18.6788 26.3022 18.9575 26.1799C19.2362 26.0575 19.5383 25.9962 19.843 26.0002C19.9696 26.0027 20.0954 26.0197 20.218 26.0508C20.3594 26.0845 20.5517 26.141 20.795 26.2203L20.84 26.9501L20.776 26.9561C20.7155 26.8562 20.6452 26.7626 20.566 26.6764C20.5004 26.6054 20.4246 26.5442 20.341 26.495C20.2621 26.4491 20.1764 26.4156 20.087 26.3958C19.9855 26.374 19.8819 26.3637 19.778 26.3651C19.0094 26.3657 18.625 27.1319 18.625 28.6636C18.6257 29.3114 18.7177 29.8039 18.901 30.1411C19.0844 30.4782 19.351 30.6468 19.701 30.6468C19.751 30.6468 19.805 30.6448 19.863 30.6408C19.8969 30.6385 19.9154 30.6355 19.9381 30.6318C19.9543 30.6292 19.9726 30.6263 20 30.623V28.7746H19.667C19.632 28.7746 19.615 28.7627 19.615 28.7389L19.649 28.4593C19.649 28.4355 19.664 28.4236 19.695 28.4236Z" fill="#FAB403"/>
</svg>
