<!-- by TradingView --><svg width="56" height="56" viewBox="0 0 56 56" xmlns="http://www.w3.org/2000/svg"><path fill="url(#a)" d="M0 0h56v56H0z"/><path d="M30.64 12.02c2.1-.03 3.97-.03 5.59 0 1.48.01 1.77 1.08 1.77 2.47V39.9c0 1.71-.88 2.1-2.5 2.1l-17.65-.02c-1.22 0-1.84-.7-1.84-2.1-.02-2.94-.01-5.4.02-7.35 0-.86.31-1.7.91-2.54l12.43-17.27c.27-.37.79-.7 1.27-.7Z" fill="#fff"/><defs><linearGradient id="a" x1="10.42" y1="9.71" x2="68.15" y2="76.02" gradientUnits="userSpaceOnUse"><stop stop-color="#1A1E21"/><stop offset="1" stop-color="#06060A"/></linearGradient></defs></svg>