<!-- by TradingView --><svg width="56" height="56" viewBox="0 0 56 56" xmlns="http://www.w3.org/2000/svg"><path fill="#F0F3FA" d="M0 0h56v56H0z"/><path d="M24.66 22.17a.09.09 0 0 1-.06.03.1.1 0 0 1-.07-.02 7.95 7.95 0 0 0-6.97-2.22.1.1 0 0 1-.1-.07l-.55-2.59a.13.13 0 0 1 .02-.1.13.13 0 0 1 .09-.05 10.98 10.98 0 0 1 9.59 2.93.15.15 0 0 1-.03.17l-1.92 1.92Z" fill="url(#a)"/><path d="M15.38 20.72a13.73 13.73 0 0 0-1.13.64.09.09 0 0 1-.06-.03l-1.73-2.1a.06.06 0 0 1-.02-.05.06.06 0 0 1 .03-.04 11.57 11.57 0 0 1 3.47-1.71.06.06 0 0 1 .05.03v.02l.6 2.66-.01.06a13.72 13.72 0 0 0-1.2.51Z" fill="#5051A1"/><path d="M11.15 26.1a8.48 8.48 0 0 0 .19 4.7.1.1 0 0 1-.05.12l-2.5 1.1a.07.07 0 0 1-.08-.03c-.8-2.16-.92-4.36-.37-6.59a10.97 10.97 0 0 1 3.43-5.66.06.06 0 0 1 .04.03l1.69 2.15a.1.1 0 0 1 0 .13 8.44 8.44 0 0 0-2.35 4.06Z" fill="url(#b)"/><path d="m20.11 20.66-.12.55a.16.16 0 0 1-.18.12 6.88 6.88 0 0 0-6.76 3.38.09.09 0 0 1-.05.05l-.06-.01-.58-.34a.08.08 0 0 1-.03-.11 7.56 7.56 0 0 1 4.6-3.6 8.3 8.3 0 0 1 3.14-.15.1.1 0 0 1 .04.1Z" fill="url(#c)"/><path d="m21.27 20.87-.34-.1a.13.13 0 0 0-.17.1l-.14.5c-.02.07.02.14.09.16l.34.1c.07.02.15-.02.17-.09l.14-.5a.13.13 0 0 0-.09-.17Z" fill="#53C4EB"/><path d="M23.53 22.09c.55.42.94.8 1.17 1.12a.1.1 0 0 1-.01.13l-.38.31a.11.11 0 0 1-.16 0c-.36-.4-.71-.74-1.05-1a8.2 8.2 0 0 0-1.22-.76.11.11 0 0 1-.05-.14l.2-.45a.1.1 0 0 1 .12-.05c.37.13.83.42 1.38.84Z" fill="#6660AB"/><path d="M20.1 21.8A6.3 6.3 0 0 1 22.57 23a.11.11 0 0 1-.01.13l-1 1.14a.09.09 0 0 1-.13.01 4.37 4.37 0 0 0-3.65-.8.1.1 0 0 1-.04-.04l-.45-1.46a.11.11 0 0 1 0-.09.1.1 0 0 1 .08-.05 6.3 6.3 0 0 1 2.71-.03Z" fill="url(#d)"/><path d="M16.34 24.3a5.7 5.7 0 0 0-.53.4.12.12 0 0 1-.15-.01l-1.13-1.01-.02-.02a.07.07 0 0 1 0-.05l.01-.03c.24-.23.53-.47.88-.7a5.64 5.64 0 0 1 1.04-.54.07.07 0 0 1 .03.04l.49 1.45a.12.12 0 0 1-.06.14c-.18.1-.37.2-.56.33ZM14.8 26.06c-.1.2-.19.4-.26.6 0 .03-.02.05-.04.06a.09.09 0 0 1-.06 0l-1.49-.32a.1.1 0 0 1-.05-.04.1.1 0 0 1-.01-.08 5.37 5.37 0 0 1 1.02-1.95.1.1 0 0 1 .07 0 .1.1 0 0 1 .03.02l1.12 1.04a.09.09 0 0 1 .01.11c-.13.18-.24.37-.34.56Z" fill="#5051A1"/><path d="m12.44 25.15-.35-.08a.22.22 0 0 0-.26.16l-.5 2.03c-.02.12.05.24.16.26l.35.09c.12.03.23-.04.26-.16l.5-2.03a.22.22 0 0 0-.16-.27Z" fill="#53C4EB"/><path d="M35.98 26.7a.06.06 0 0 1 0 .08l-.04.01h-3.51c-.06 0-.1.02-.14.05a.19.19 0 0 0-.07.12l-.39 3v.06l.04.06.05.03.07.02h3.33c.07 0 .13-.03.18-.07l.28-.23a.07.07 0 0 1 .08 0l.03.03v.04c-.13.27-.19.6-.19.97a.13.13 0 0 1-.04.1.14.14 0 0 1-.1.03H30.3l-.05-.01c-.2-.1-.28-.27-.24-.49l.67-4.36c0-.04.02-.07.05-.1a.18.18 0 0 1 .12-.04h4.27a.46.46 0 0 1 .32.13l.54.57ZM26.24 26a.27.27 0 0 1 .18.07l1.03.99c.02.01.03.04.04.06v.08l-.48 3.05c-.08.5-.46.75-1.15.75a520.5 520.5 0 0 0-4.8 0 .1.1 0 0 1-.06-.06.1.1 0 0 1 0-.05l.7-4.47c0-.03 0-.06-.02-.09a.88.88 0 0 0-.18-.2.08.08 0 0 1-.02-.04v-.04c0-.02.02-.03.03-.04l.05-.01h4.68Zm-2.55.79a.14.14 0 0 0-.1.03.12.12 0 0 0-.04.07l-.51 3.14v.05c0 .02.01.03.03.05a.13.13 0 0 0 .1.04h1.9c.03 0 .06 0 .09-.03a.12.12 0 0 0 .04-.07l.52-3.14a.11.11 0 0 0-.03-.1.14.14 0 0 0-.1-.04h-1.9ZM43.84 26a.28.28 0 0 1 .19.08l.93.9.03.06a77.06 77.06 0 0 1-.22 1.51c-.07.44-.29.65-.66.65a50.4 50.4 0 0 0-1.2.01v.03l1.55 1.68.01.03v.02l-.02.02-.03.01H42.9a.29.29 0 0 1-.21-.09l-1.56-1.68-.03-.02h-.02l-.03.02-.01.02-.27 1.7a.05.05 0 0 1-.05.05h-1.63a.09.09 0 0 1-.06-.03l-.02-.03v-.04l.7-4.5a.14.14 0 0 0-.04-.13l-.16-.16-.02-.03v-.04l.03-.03.03-.01h4.3Zm-2.46.82c-.02 0-.04 0-.05.02a.08.08 0 0 0-.03.05l-.21 1.37a.08.08 0 0 0 .04.08l.04.01h1.88c.02 0 .04 0 .06-.02a.08.08 0 0 0 .03-.05l.2-1.37v-.03a.08.08 0 0 0-.04-.05h-1.92Z"/><path d="M14.54 29.57a4.77 4.77 0 0 0 .92 1.7c0 .03 0 .05-.02.06l-.96 1.09a.08.08 0 0 1-.12 0 6.32 6.32 0 0 1-1.57-5.13.08.08 0 0 1 .05-.03h.04l1.4.34a.09.09 0 0 1 .06.1c-.06.64 0 1.26.2 1.87Z" fill="url(#e)"/><path d="M13.4 32.15a6.98 6.98 0 0 0 3.17 2.45.1.1 0 0 1 .06.12l-.1.49a.13.13 0 0 1-.07.08.13.13 0 0 1-.1.01 7.54 7.54 0 0 1-4.97-7.05.13.13 0 0 1 .13-.07l.5.05a.1.1 0 0 1 .09.1c.07 1.43.5 2.7 1.28 3.82Z" fill="url(#f)"/><path d="M12.39 32.9a9.53 9.53 0 0 0 .82 1.02.1.1 0 0 1-.02.07l-1.73 1.96a.14.14 0 0 1-.16.04 11.52 11.52 0 0 1-2.17-3.03.14.14 0 0 1 .08-.14l2.4-1.03a.1.1 0 0 1 .12.04c.22.4.43.75.66 1.07Z" fill="#6D3693"/><path d="M16.79 32.28c.17.09.39.19.65.3a.1.1 0 0 1 .06.12l-.3 1.36a.06.06 0 0 1-.02.04.06.06 0 0 1-.05 0 5.11 5.11 0 0 1-2.04-1.12l.01-.02.94-1.03a.1.1 0 0 1 .14-.02c.23.15.44.28.61.37Z" fill="#53C4EB"/><path d="m21.43 34.11.3-.61h.7l-1.3 2.5h-.6l.58-1.22-.56-1.28h.64l.24.61ZM50 33.96h-.34l-.12-.18h-.39v.35H50v.68l-.17.2h-1.18l-.19-.33h.97v-.31h-.9v-.65l.15-.22h.95l.37.46Zm-29.8-.57-.08 1.33-.27.28H18l.44-2h1.38l.38.4Zm3.74.11c.17.02.5.17.42.56l-.24.94h-.6l.26-.94c0-.1-.03-.3-.22-.3h-.16L23.1 35h-.58l.42-1.5h1Zm1.67 0c.27 0 .8.11.75.6l-.26.9h-1.11c-.1-.02-.28-.1-.28-.3 0-.24.13-.55.33-.55h.83c0-.09-.06-.26-.23-.26h-.93l.25-.39h.65Zm2.72 0c.22.02.65.17.58.55l-.18.95h-.44l.18-.95c.02-.07.02-.22-.18-.22h-.18L27.9 35h-.39l.23-1.17h-.43L27.09 35h-.41l.33-1.5h1.32Zm1.6.38L29.81 35h-.47l.16-1.4.43.28Zm2.54-.53h-1.19l-.21 1.33h1.3V35h-1.92l.27-2h1.6l.15.35Zm4.12-.35c.19.05.56.21.49.5l-.2.73h-.51l.62.77h-.62l-.66-.71-.17.71h-.65l.34-2h1.36Zm1.91.5c.46 0 .6.36.6.54v.37h-1l-.1.28h1.07l-.09.31h-1.6l.24-1.5h.88Zm1.9 0c.26 0 .79.11.74.6l-.26.9h-1.1c-.1-.02-.28-.1-.28-.3 0-.24.12-.55.33-.55h.82c0-.09-.05-.26-.22-.26h-.93l.25-.39h.64Zm1.85-.02L42 35h-.59l.28-2 .55.48Zm.9 1.52h-.5l.2-1.42h.45L43.14 35Zm1.5-1.58h.4v.36h-.45l-.11.79h.48l-.16.43h-.58c-.34 0-.37-.42-.34-.63l.09-.6h-.2l.11-.35h.14l.07-.42h.6l-.05.42Zm1.2 1.58h-.5l.2-1.42H46L45.85 35Zm1.7-1.5c.46 0 .6.36.61.54v.37h-1.01l-.1.28h1.07l-.08.31h-1.6l.24-1.5h.88Zm-22.25.91c-.05 0-.17.03-.17.12 0 .14.12.18.17.18h.34l.09-.3h-.43Zm14.79 0c-.06 0-.17.02-.17.12 0 .14.11.18.17.18h.34l.08-.3h-.42Zm-21.4.22h.7l.18-.12.12-.97-.15-.17h-.56l-.3 1.26Zm19.43-.5h.56c.02-.09.02-.26-.16-.32h-.35l-.05.31Zm9.06 0h.55c.03-.09.03-.26-.15-.32h-.35l-.05.31Zm-11.5-.2h.64l.19-.22v-.36h-.7l-.13.59Zm7.65-.5h-.46l.09-.43.37.43Zm2.7 0h-.45l.08-.43.37.43ZM29.73 33c.11 0 .2.1.2.2 0 .12-.09.2-.2.2a.2.2 0 0 1-.21-.2c0-.1.1-.2.2-.2Z" fill="#55C9FF"/><defs><linearGradient id="a" x1="17.91" y1="18.05" x2="23.3" y2="22.89" gradientUnits="userSpaceOnUse"><stop stop-color="#3B60B4"/><stop offset="1" stop-color="#0F95D6"/></linearGradient><linearGradient id="b" x1="13.52" y1="21.64" x2="10.73" y2="32.02" gradientUnits="userSpaceOnUse"><stop stop-color="#5F3E9F"/><stop offset="1" stop-color="#70328D"/></linearGradient><linearGradient id="c" x1="18.93" y1="21.43" x2="15.58" y2="25.82" gradientUnits="userSpaceOnUse"><stop stop-color="#60B5EB"/><stop offset="1" stop-color="#625AA3"/></linearGradient><linearGradient id="d" x1="17.65" y1="24" x2="21.19" y2="25.1" gradientUnits="userSpaceOnUse"><stop stop-color="#5E63B7"/><stop offset="1" stop-color="#52ACE0"/></linearGradient><linearGradient id="e" x1="14.09" y1="27.25" x2="15.48" y2="31.92" gradientUnits="userSpaceOnUse"><stop stop-color="#8157A3"/><stop offset=".95" stop-color="#4F54B0"/></linearGradient><linearGradient id="f" x1="11.7" y1="28.97" x2="14.36" y2="35.3" gradientUnits="userSpaceOnUse"><stop stop-color="#6289C5"/><stop offset="1" stop-color="#62549F"/></linearGradient></defs></svg>