<!-- by TradingView --><svg width="56" height="56" viewBox="0 0 56 56" xmlns="http://www.w3.org/2000/svg"><path fill="#F0F3FA" d="M0 0h56v56H0z"/><path d="M18 18.7 16.09 20 15 18l3 .7Z" fill="#FBA532"/><path d="M34 24h-6.31l-.18 4H33v3h-5.68l-.2 4H23l.69-12.87c.03-.63.55-1.13 1.19-1.13H34v3ZM44.8 21a3.16 3.16 0 0 1 3.2 3.37l-.31 3.41C47.57 29.42 46.18 31 44.5 31h-5.08l-.2 4H35l.7-12.85c.04-.64.57-1.15 1.22-1.15h7.88Zm-4.45 3c-.3 0-.56.24-.57.54l-.11 2.87c-.02.32.25.59.57.59H42v1l.98-1h.98c.3 0 .55-.23.57-.53l.15-2.87a.57.57 0 0 0-.57-.6h-3.76ZM16 21c.96-.01 2.9.5 2.9 2.59s-.9 3.18-1.36 3.46c.17-.92 0-3.05-1.98-3.05H13l-.49 8h1.97c1.84-.05 5.52-1.6 5.52-7.15a6.8 6.8 0 0 0-1.06-3.47A7.42 7.42 0 0 1 22 27.43c0 4.1-2.54 7.54-6.77 7.54H8L8.9 21H16Z" fill="#004594"/></svg>