<!-- by TradingView --><svg width="56" height="56" viewBox="0 0 56 56" xmlns="http://www.w3.org/2000/svg"><path fill="#F0F3FA" d="M0 0h56v56H0z"/><path d="M39.18 15.01a3.97 3.97 0 0 1-2.03-1.12c-.26-.33-.47-.5-.63-.5l-2.24-.53-1.24-.36a.28.28 0 0 0-.18 0 .26.26 0 0 0-.13.12c-.16.26-.41.21-.76-.15-.08-.08-.22-.12-.42-.11a.82.82 0 0 0-.34.07.23.23 0 0 0-.11.22.21.21 0 0 0 .15.18l.26.08a.13.13 0 0 1 .08.11c0 .03 0 .05-.02.07a.11.11 0 0 1-.06.04c-.47.15-.83.14-1.08-.01a.37.37 0 0 0-.48.08.36.36 0 0 0 .02.48c.67.67.83 1.25.47 1.72a.32.32 0 0 0 .4.46l.4-.22a.2.2 0 0 1 .14-.02c.55.15.1.45-1.37.92a.2.2 0 0 1-.25-.22l.06-.38a.36.36 0 0 0-.06-.27.37.37 0 0 0-.24-.15l-.71-.12a.37.37 0 0 1-.27-.18.93.93 0 0 0-.45-.38.46.46 0 0 0-.6.21.18.18 0 0 1-.11.09.17.17 0 0 1-.14-.03.7.7 0 0 1-.22-.38c-.05-.18-.14-.3-.26-.35a1.49 1.49 0 0 0-1.01-.1.54.54 0 0 0-.39.45.22.22 0 0 1-.25.17.86.86 0 0 1-.65-.42c-.13-.24-.42-.27-.64-.17.07-.32.42-.33 1.05-.01a.22.22 0 0 0 .3-.3c-.31-.63-.89-.77-1.73-.43a.33.33 0 0 0-.2.32l.08.19a.17.17 0 0 1-.08.23h-.1a2.06 2.06 0 0 0-.5 0 .3.3 0 0 0-.21.41c.02.06.07.1.12.14l.38.21.01.01v.07c-.18.12-.3.17-.39.14a.42.42 0 0 1-.26-.25v-.06a.39.39 0 0 0-.51-.32.4.4 0 0 0-.19.12l-1.46 1.72a.51.51 0 0 1-.35.18c-.8.07-1.05.32-.76.75l.04.04.28.24a.28.28 0 0 1 0 .42 4.21 4.21 0 0 0-1.46 2.37.25.25 0 0 1-.22.2c-.04 0-.07 0-.1-.02-.35-.12-.54-.03-.58.27l-.7.78a.28.28 0 0 0-.01.35c.02.04.06.06.1.08.17.08.28.15.33.22a.28.28 0 0 1-.06.37.29.29 0 0 1-.11.06c-.55.15-1.09.4-1.63.77l3.76-6.64c.13-.23.31-.42.52-.58a20.85 20.85 0 0 0 2.9-2.38c.45-.47.96-.8 1.51-.99.1-.03.2-.04.29-.04.5.04.85-.03 1.05-.22.7-.64 1.41-.24 2.05-.65a.46.46 0 0 1 .48 0l.55.3a.38.38 0 0 0 .45-.04c.39-.36.8-.32 1.26.13a.25.25 0 0 0 .36 0c.32-.34.8-.5 1.42-.47 3.03.15 5.47.7 7.68 3.01Z" fill="#898A8F"/><path d="M36.52 13.39c.21.24.22.45.03.64a.3.3 0 0 0-.08.27c.06.22.07.45.05.68-.88.09-1.76.13-2.65.12-.62 0-.95-.14-1-.4a.4.4 0 0 1 .01-.26.23.23 0 0 1 .33-.11c.41.23.76.35 1.03.35a.2.2 0 0 0 .17-.32c-.13-.2-.35-.34-.67-.4-.27-.05-.58-.3-.72-.5a.22.22 0 0 1 .27-.32c.8.4 1.14.31 1-.28l2.23.53Z" fill="#A4A5AB"/><path d="M37.15 13.9c-.26.02-.39.08-.37.17.02.18.1.3.26.39.93.51 1.4.91 1.37 1.2 0 .01 0 .04.02.06a.1.1 0 0 0 .05.04c.12.05.25.05.38 0a.18.18 0 0 0 .06-.06.17.17 0 0 0 .03-.08c.04-.32.15-.46.34-.4l1.48 2.34c.09.14.14.3.16.46l.25 1.93-.44.3.12.67.16.5a.43.43 0 0 1-.13.45c-.45.38-.71.38-.8 0a1.58 1.58 0 0 1-.03-.59.94.94 0 0 0-.11-.6 5.25 5.25 0 0 1-.56-2.11c0-.1 0-.18.04-.26.23-.58 0-1.06-.7-1.44a.55.55 0 0 1-.28-.6.29.29 0 0 0-.03-.18.3.3 0 0 0-.12-.13l-1.78-.98c.02-.23 0-.46-.05-.68a.29.29 0 0 1 .08-.27c.19-.19.18-.4-.03-.64.16 0 .37.17.63.5Z" fill="#444447"/><path d="M31.68 14.83c-.4.16-.74-.08-1.04-.7a.45.45 0 0 1 .27-.62.45.45 0 0 1 .25 0c.02 0 .08.02.18.07a.43.43 0 0 0 .45-.06c.25-.2.52-.24.81-.12a.33.33 0 0 1-.05.63c-.35.07-.57.25-.65.55a.37.37 0 0 1-.22.25Z" fill="#95969B"/><path d="M37.15 13.9c.57.57 1.25.94 2.03 1.11-.14-.05-.1.02.1.2-.18-.05-.29.09-.33.4 0 .04-.01.06-.03.09a.18.18 0 0 1-.06.05.45.45 0 0 1-.38.01.1.1 0 0 1-.05-.04.12.12 0 0 1-.02-.07c.02-.28-.44-.68-1.37-1.19a.5.5 0 0 1-.26-.39c-.02-.1.1-.15.37-.18Z" fill="#A4A5AB"/><path d="m23.82 14.31-.07.52a.16.16 0 0 1-.2.13.16.16 0 0 1-.09-.05c-.1-.13-.16-.24-.14-.34.01-.11.08-.18.2-.23.08-.03.19-.04.3-.03Z" fill="#95969B"/><path d="m26.15 15.98.08-.18a.35.35 0 0 0-.05-.4.34.34 0 0 0-.39-.08c-.11.05-.3.19-.57.4-.23.19-.43.23-.62.12a.18.18 0 0 1 0-.31l1.57-.9a.16.16 0 0 1 .24.08l.46 1.33a.08.08 0 0 1-.04.1l-.3.16a.27.27 0 0 1-.4-.16.26.26 0 0 1 .02-.16ZM32.61 15.02c.06.3.07.46.03.5a.2.2 0 0 1-.14.05.25.25 0 0 1-.16-.07.39.39 0 0 1-.1-.17.44.44 0 0 1-.01-.2c.02-.17.13-.23.3-.19a.1.1 0 0 1 .05.03c.02.01.03.03.03.05ZM27.7 15.9c-.17.04-.26-.03-.26-.22 0-.16.05-.26.12-.3a.34.34 0 0 1 .41.05.3.3 0 0 1 .04.39c-.02.02-.12.05-.31.09ZM28.26 16.77l.13-.78a.23.23 0 0 1 .35-.16c.04.02.07.06.1.1.24.53.44.84.6.95.11.08.15.15.1.21a.6.6 0 0 1-.1.15c-.06.05-.1.05-.16 0-.27-.29-.5-.37-.7-.25a.22.22 0 0 1-.32-.22ZM22.53 16.3a.18.18 0 0 1-.18-.12.19.19 0 0 1 .06-.2c.1-.08.2-.1.33-.05.04 0 .06.03.08.06.02.03.03.07.02.1-.03.13-.13.2-.31.2Z" fill="#A4A5AB"/><path d="M21 16.94c.38-.41.61-.8.53-.88-.08-.07-.45.2-.82.6-.38.41-.62.8-.53.88.08.07.45-.2.82-.6Z" fill="#95969B"/><path d="M35.24 27.76a3.23 3.23 0 0 0-.58-1.17c.2-.01.38-.13.53-.34a.41.41 0 0 1 .48-.15c.08.03.17.13.28.29a.2.2 0 0 0 .36-.03c.11-.26.44-.51 1-.74a.45.45 0 0 0 .2-.66.67.67 0 0 1-.07-.54.66.66 0 0 0-.17-.63c-.35-.34-.64-.8-.87-1.37l.16-.33c.73.22 1.41.24 2.03.06a.26.26 0 0 0 .2-.2.27.27 0 0 0-.1-.27.95.95 0 0 0-.5-.16c.1-.2.12-.4.07-.6a.3.3 0 0 0-.11-.17.32.32 0 0 0-.2-.07.38.38 0 0 0-.34.25c-.04.1-.11.17-.23.21a.28.28 0 0 1-.31-.07 3.87 3.87 0 0 0-1.86-1.04.16.16 0 0 1-.1-.19l.02-.14a.2.2 0 0 1 .22-.15l.4.06a.2.2 0 0 0 .19-.07.2.2 0 0 0 .03-.2c-.27-.67-.6-.93-1.01-.77a.92.92 0 0 1-.68-.04c-.26-.11-.4-.27-.41-.47 0-.07.01-.13.04-.2.04-.05.08-.1.14-.13.36-.2.45-.4.27-.63a.18.18 0 0 0-.07-.05.2.2 0 0 0-.09-.02l-.5.02a.3.3 0 0 1-.28-.41.3.3 0 0 1 .14-.15c.68-.33 1.23-.49 1.65-.46.25.01.39.1.43.26.03.1-.02.18-.15.22-.09.03-.12.09-.09.17.02.07.05.13.08.18.1.13.31.19.66.19a.33.33 0 0 1 .32.25c.1.47.33.7.67.67.09 0 .17.01.25.05.08.04.15.1.2.18.07.07.11.17.14.27.03.1.04.2.04.32-.01.19-.14.32-.4.4a.17.17 0 0 0-.1.26c.02.03.05.06.08.07.06.02.2.03.42.01a.45.45 0 0 0 .32-.15c.11-.13.21-.2.3-.25a.12.12 0 0 1 .1 0c.02.01.05.03.06.06l.1.17a.08.08 0 0 1-.01.1l-.03.02c-.44.14-.55.3-.33.5.51.49.92 1.12 1.24 1.9a.46.46 0 0 1-.03.4l-.6 1.04a.36.36 0 0 0 .02.39c.79 1.12-1.2 2.98-2.05 3.35a.46.46 0 0 0-.27.48c.02.16.02.25-.01.26a.33.33 0 0 1-.38 0c-.25-.17-.55-.19-.9-.04ZM31.35 17.8c-.24-.41-.53-.5-.88-.25a.17.17 0 0 1-.27-.09.17.17 0 0 1 0-.1c.02-.06.13-.12.34-.2a4.6 4.6 0 0 1 1.71-.4c.25.07.39.2.41.42a.25.25 0 0 1-.08.21.24.24 0 0 1-.21.05c-.34-.08-.56.02-.67.32a.2.2 0 0 1-.35.03Z" fill="#A4A5AB"/><path d="M38.71 17.95c-.05-.09-.03-.18.06-.27.12-.12.22-.1.3.04.05.1.07.19.06.23a.18.18 0 0 1-.07.1.2.2 0 0 1-.12.04.26.26 0 0 1-.13-.04.28.28 0 0 1-.1-.1Z" fill="#95969B"/><path d="M20.56 18.9a1 1 0 0 1-.06-.46.22.22 0 0 1 .1-.17.23.23 0 0 1 .22-.01c.34.17.58.35.7.53a.19.19 0 0 1 0 .21.2.2 0 0 1-.2.1l-.65-.11a.14.14 0 0 1-.07-.03.14.14 0 0 1-.04-.06Z" fill="#A4A5AB"/><path d="M33.83 20.26c-.25-.3-.58-.4-1-.3a.66.66 0 0 0-.45.4 3.94 3.94 0 0 0-.12 2.22c.05.23 0 .48-.1.7l-.38.69a4.5 4.5 0 0 1-.96-1.36c-.06-.12-.08-.19-.05-.2l.16-.13a.27.27 0 0 0 .06-.1 8.43 8.43 0 0 1 1-3.62.26.26 0 0 1 .33 0l.12.11a.24.24 0 0 1-.1.41l-.21.06a.23.23 0 0 0-.13.36c.03.03.07.06.12.08.76.22 1.4.14 1.92-.25a.25.25 0 0 1 .33.37l-.54.56Z" fill="#95969B"/><path d="M24.1 19.09c.08-.08.17-.04.25.11.07.14.05.29-.07.44-.03.05-.1 0-.22-.15a.3.3 0 0 1-.06-.21c0-.08.04-.14.1-.2ZM19.4 19.41c-.2.3-.38.5-.52.59a.18.18 0 0 1-.26-.17c0-.04.02-.09.05-.12.33-.3.53-.45.6-.47a.12.12 0 0 1 .13.17Z" fill="#A4A5AB"/><path d="M33.83 20.26c-.08.16-.13.3-.15.43a.15.15 0 0 0 .08.15.15.15 0 0 0 .16 0l.76-.59a.29.29 0 0 1 .39.05c.12.14.2.25.23.31.06.12.17.19.34.2.57.04.94.25 1.13.65l-.21.63-.16.33a7.9 7.9 0 0 1-2.03 1.78l-.14.01c-.93.07-1.5.6-1.68 1.58a.17.17 0 0 0 .11.19c.08.02.1.12.09.29a.12.12 0 0 1-.05.09c-.31.18-.53.44-.67.78a.47.47 0 0 0-.02.18c0 .1.02.2.05.32.02.12-.12.26-.42.42a.26.26 0 0 0-.1.09l-1.3 2.26a.18.18 0 0 1-.33-.1c.04-.38.01-.75-.07-1.1a.49.49 0 0 1-.18-.25c-.08-.29.18-.4.42-.3.08.02.11.07.1.12 0 .07.03.11.09.13h.04s.02 0 .03-.02c.22-.25.39-.57.5-.99a6 6 0 0 0 .93-3.58c-.05-.03-.05-.15.01-.35l.37-.7c.12-.21.16-.46.1-.7a3.94 3.94 0 0 1 .13-2.2.68.68 0 0 1 .45-.4c.42-.12.75-.02 1 .3Z" fill="#201D1D"/><path d="M41.71 25.81a5.75 5.75 0 0 0-.7-1.96.89.89 0 0 1-.14-.42c0-.12 0-.24.03-.35a.33.33 0 0 0-.03-.26.34.34 0 0 0-.22-.15c-.2-.05-.38-.06-.56-.02v-.78c.09.38.35.38.8 0a.42.42 0 0 0 .13-.44l-.16-.51c.46-.22.42-.45-.12-.68l.44-.3c.87 2.2 1.05 4.16.53 5.87Z" fill="#898A8F"/><path d="M26.63 23.3c-.07.14-.15.22-.23.23-.13.05-.29.17-.45.34a.4.4 0 0 1-.26.11c-.1 0-.2-.02-.27-.09l-1.86-1.53a.37.37 0 0 0-.45 0l-.06.06a.21.21 0 0 1-.19.08.2.2 0 0 1-.16-.13c-.16-.42-.2-.88-.1-1.39a.3.3 0 0 1 .17-.21.3.3 0 0 1 .28.01c.05.04.11.13.19.28a.41.41 0 0 0 .49.2c.31-.09.44-.28.4-.55a.34.34 0 0 1 .28-.4c1.06-.15 1.82.23 2.28 1.15.07.15.08.32.02.47-.16.45-.19.9-.08 1.37Z" fill="#201D1D"/><path d="M19.2 20.78a.67.67 0 0 1-.3.46.19.19 0 0 1-.3-.14c0-.05.01-.1.04-.13 0 0 .12-.1.32-.31a.15.15 0 0 1 .17-.03l.06.06c.01.03.02.06.01.09ZM16.98 20.95c0 .14.14.23.4.27a.34.34 0 0 1 .26.19c.13.24-.01.51-.42.81a.39.39 0 0 0 .14.68l.14.02a.17.17 0 0 1 .16.2c0 .04-.02.07-.04.1a2.8 2.8 0 0 0-.62.82.31.31 0 0 0-.01.23c.02.07.07.13.14.17l1.11.68a.19.19 0 0 1 .09.2l-.04.08c-.1.11-.12.2-.05.25.06.04.12.07.2.08.53.12 1.03.18 1.47.2.11 0 .22.03.3.1.1.05.17.13.21.23a.41.41 0 0 1-.13.52c-.12.09-.18.26-.18.52a.15.15 0 0 1-.2.15.15.15 0 0 1-.07-.05c-.1-.13-.15-.24-.14-.35a.4.4 0 0 0-.27-.43c-.71-.22-1.2-.3-1.46-.22a.7.7 0 0 1-.47-.03 2.53 2.53 0 0 0-2.38.13.3.3 0 0 1-.36-.45c.34-.39.59-.78.74-1.18.26-.42.62-.65 1.06-.67a.28.28 0 0 0 .27-.27c0-.04 0-.09-.03-.13-.1-.22-.23-.35-.36-.41a.5.5 0 0 0-.57.1c-.29.3-.65.46-1.1.5 0-.15.04-.29.13-.4a5.45 5.45 0 0 1 1.63-.78.29.29 0 0 0 .17-.43c-.05-.07-.16-.14-.33-.22a.27.27 0 0 1-.1-.43l.7-.78Z" fill="#A4A5AB"/><path d="M21.66 22.03c-.12.19-.35.3-.71.36a.2.2 0 0 1-.17-.06.18.18 0 0 1-.04-.17 2.08 2.08 0 0 1 .63-1 .18.18 0 0 1 .17-.05.2.2 0 0 1 .13.13c.11.34.1.6-.01.8Z" fill="#95969B"/><path d="M38.2 21.52c.21.02.37.07.48.16a.28.28 0 0 1 .1.26.27.27 0 0 1-.19.2c-.62.19-1.3.17-2.03-.05l.21-.63c.34.26.81.28 1.42.06Z" fill="#898A8F"/><path d="m41.71 25.81-.2 3.62a1 1 0 0 1-.04.25l-1.42 4.85c-.07.25-.23.47-.45.61-.63.43-.6 1.35-1.07 1.67-.11.07-.2.16-.29.26-.03.05-.04.18-.02.38.03.4-.15.75-.54 1.05-.26-.06-.36-.26-.28-.6.11-.16.14-.37.1-.62l.34-.67c.14-.63-.03-1.03-.51-1.2a.58.58 0 0 0-.33 0c-.48.14-.78.43-.92.87-.27.72-.6.45-.99-.79a5.73 5.73 0 0 0 1.61-1.54.37.37 0 0 1 .3-.16h.06a.33.33 0 0 0 .32-.35c-.02-.24 0-.4.06-.5a.44.44 0 0 1 .23-.19c.1-.03.2-.03.3 0l.23.08a.23.23 0 0 1 .16.23c0 .03 0 .06-.02.1a3.2 3.2 0 0 0-.25 1.97.14.14 0 0 0 .13.12.14.14 0 0 0 .15-.1l.3-1a.35.35 0 0 1 .34-.26c.05 0 .1.02.15.05.24.14.44.12.6-.06a.28.28 0 0 0 .05-.26l-.27-.87c.28-.38.33-.78.18-1.2a.45.45 0 0 1-.02-.24.43.43 0 0 1 .1-.21c.9-.93.77-2.48 1.34-3.26a.4.4 0 0 0-.05-.52c-.31-.31-.8-.35-1.46-.11a.26.26 0 0 0-.11.4l.23.3c.05.08.08.17.08.26a.4.4 0 0 1-.1.25l-1.48 1.76c-.2.99-.7 1.8-1.49 2.43-.47.03-1 .22-1.57.57-.3.17-.58.2-.86.12l.12-.3a.55.55 0 0 1 .37-.32c.75-.18 1.15-.64 1.19-1.38.6-.23.97-.55 1.1-.95.4-1.2.91-1.8 1.54-1.78a.28.28 0 0 0 .27-.23l-.01-.13a.8.8 0 0 0-.23-.3c-.06-.06-.09-.16-.07-.3.01-.16.11-.24.29-.26a.44.44 0 0 0 .32-.18c.12-.18.11-.38-.03-.62a.36.36 0 0 1 .06-.44l.3-.3a.75.75 0 0 0 .2-.42l.34-2.74c.18-.04.36-.03.56.02a.35.35 0 0 1 .22.15.33.33 0 0 1 .03.26 1.2 1.2 0 0 0-.03.35c.01.15.06.3.14.42.32.52.55 1.17.7 1.96Z" fill="#444447"/><path d="m15.5 24.87-1.38.9a.24.24 0 0 0-.07.06L13 27.6a.54.54 0 0 0-.08.35c.08.68-.27 1.05-1.06 1.1a.22.22 0 0 0-.11.4c.94.62 1.22 1.33.81 2.14a.24.24 0 0 0 .24.34l.14-.04a.18.18 0 0 1 .16.05.17.17 0 0 1 .05.15c-.03.17-.18.32-.44.45a.35.35 0 0 1-.3 0c-1.03-.44-1.37-1.22-1-2.34a.72.72 0 0 0-.04-.54c-.32-.66-.44-1.14-.33-1.46.53-1.65 1.78-3.05 3.73-4.2.45-.04.81-.2 1.1-.5a.5.5 0 0 1 .57-.1c.13.06.25.2.36.4a.28.28 0 0 1-.24.41c-.44.02-.8.25-1.06.67ZM23.28 26.99a1.13 1.13 0 0 0 .54.53.23.23 0 0 0 .28-.26.23.23 0 0 0-.1-.15c-.1-.09-.34-.13-.72-.12-.03-.1 0-.2.1-.26.07-.06.16-.07.26-.04.87.25 1.78.47 2.73.65a.24.24 0 0 0 .27-.33l-.25-.6-.02-.02h-.03l-.72-.13a.13.13 0 0 1-.1-.09.13.13 0 0 1 .03-.13c.17-.17.34-.26.52-.25a.28.28 0 0 0 .21-.08.3.3 0 0 0 .1-.2l.02-1.98c.08-.01.16-.09.23-.23.44.9.06 1.95.5 2.96a.8.8 0 0 1 .07.43l-.17 1.56a.24.24 0 0 1-.13.19.25.25 0 0 1-.24 0c-.63-.4-1.4.12-2.19-.13a10.38 10.38 0 0 1-2.65-1.27.17.17 0 0 1 .02-.2l.1-.1.03-.02H22c.4.22.83.3 1.28.27Z" fill="#95969B"/><path d="M21.36 23.56c.12-.1.3-.11.55-.02a.2.2 0 0 1 .04.34c-.26.2-.42.32-.48.32a.24.24 0 0 1-.18-.06.28.28 0 0 1-.1-.17.43.43 0 0 1 .03-.22.48.48 0 0 1 .14-.2ZM34.13 25.5l.1-1.29h.14c0 .18.01.36.07.55a.25.25 0 0 0 .16.17.26.26 0 0 0 .24-.04l1.6-1.22a.2.2 0 0 1 .31.1.2.2 0 0 1 0 .12l-.34 1.16a.54.54 0 0 1-.37.37c-.78.21-1.42.24-1.9.09ZM28.84 24.02a.03.03 0 0 1 .03-.03c.04 0 .07.01.1.04.02.02.04.06.04.1-.02.95-.07 2-.17 3.17-.03.36.07.53.32.51.17-.02.39-.12.65-.31a.23.23 0 0 1 .3.02l.13.14a.1.1 0 0 1 .04.07.1.1 0 0 1-.03.07c-.13.15-.3.26-.51.32-.19.05-.34.03-.47-.07-.17-.13-.38-.09-.6.13a.29.29 0 0 1-.48-.25l.65-3.91ZM30.64 24.67a.17.17 0 0 1-.11.14.17.17 0 0 1-.17-.03c-.21-.17-.23-.4-.07-.7a.2.2 0 0 1 .36.04c.04.1.03.29-.01.55Z" fill="#A4A5AB"/><path d="m34.23 24.21-.1 1.3c-.5.04-.81.2-.92.5a.26.26 0 0 0 .2.33l1.25.25c.23.26.42.65.58 1.17-.46.15-.98.15-1.56.01a.24.24 0 0 0-.3.25c.05.7.42 1.2 1.12 1.47a.55.55 0 0 0 .48-.03l1.66-.95a.23.23 0 0 1 .28.03.24.24 0 0 1 .05.3c-.32.55-.74.86-1.27.9a.59.59 0 0 0-.5.34 1 1 0 0 0-.04.1.58.58 0 0 1-.36.32c-.64.2-1.2.54-1.68 1.01a.39.39 0 0 1-.64-.17l-.31-1.15a.15.15 0 0 0-.2-.1.61.61 0 0 0-.25.2.2.2 0 0 0-.04.11c0 .04.01.09.03.12.25.38.27.75.08 1.11a.29.29 0 0 1-.41.11c-.2-.11-.32-.31-.37-.58a.17.17 0 0 0-.1-.13.17.17 0 0 0-.15.01c-.19.12-.29.18-.29.2a.34.34 0 0 1-.37.3.36.36 0 0 1-.33-.37c0-.7.03-1.35.07-1.96.08.35.1.72.07 1.1a.18.18 0 0 0 .12.18.18.18 0 0 0 .2-.08l1.31-2.26a.26.26 0 0 1 .1-.1c.3-.15.44-.29.42-.4a2.47 2.47 0 0 1-.05-.33l.01-.18c.15-.34.37-.6.68-.79a.12.12 0 0 0 .05-.08c.02-.17-.01-.27-.1-.3a.17.17 0 0 1-.1-.18c.19-.98.75-1.5 1.68-1.58Z" fill="#95969B"/><path d="M31.77 24.32a6 6 0 0 1-.94 3.58.61.61 0 0 0-.04-.45.46.46 0 0 0-.32-.26c-.13-.03-.27-.13-.41-.32a.23.23 0 0 1 .13-.36c.18-.05.33-.13.46-.26.04-.04.06-.18.07-.42.03-.6.37-1.11 1.05-1.5Z" fill="#95969B"/><path d="M22.12 25.06a.17.17 0 0 1-.11-.18c0-.02 0-.05.02-.07l.08-.14a.1.1 0 0 1 .06-.04.1.1 0 0 1 .08 0c.45.26.8.3 1.07.13a.67.67 0 0 1 .43-.11c.94.1 1.59.08 1.94-.04a.26.26 0 0 1 .3.1c.07.09.06.27 0 .54a.24.24 0 0 1-.14.16.23.23 0 0 1-.2-.01c-.4-.24-.77-.2-1.12.1-.25.2-.4.28-.46.23-.11-.1-.17-.2-.18-.3a.23.23 0 0 0-.1-.19.24.24 0 0 0-.22-.02c-.34.1-.82.05-1.45-.16Z" fill="#A4A5AB"/><path d="M15.8 27.27a.9.9 0 0 0 .2.47.4.4 0 0 0 .32.14l1.23-.03c1.18.85 2.23.64 3.14-.61a.22.22 0 0 1 .35 0 5.57 5.57 0 0 0 2.56 2.17.1.1 0 0 1 .02.1l-.02.05c-.05.05-.1.06-.16.04a6.03 6.03 0 0 1-2.57-1.7.28.28 0 0 0-.19-.1.3.3 0 0 0-.21.06l-1.16.87a.3.3 0 0 1-.27.05l-1.06-.3a.3.3 0 0 0-.35.15c-.13.29-.39.5-.77.67a.22.22 0 0 1-.13 0c-.1-.01-.13-.09-.1-.21a.07.07 0 0 0-.02-.07.07.07 0 0 0-.06-.02 3.1 3.1 0 0 1-1.55-.1.64.64 0 0 0-.68.19c-.26.3-.45.47-.56.53a.3.3 0 0 1-.38-.14c-.1-.18-.06-.33.1-.46a.3.3 0 0 0 .1-.17.3.3 0 0 0-.04-.2 5.2 5.2 0 0 0-.1-.18.16.16 0 0 1 .07-.18c.3-.17.57-.51.8-1.01a.56.56 0 0 1 .52-.34c.36 0 .68.11.98.33Z" fill="#95969B"/><path d="m39.54 32.75-.49-.1c.02-.57.11-1.05.27-1.44a.77.77 0 0 0-.62-1.06c-.08-.01-.09.26 0 .83-.1-.66-.25-.93-.45-.8l1.48-1.76a.4.4 0 0 0 .02-.5l-.23-.3a.26.26 0 0 1 .11-.41c.66-.24 1.15-.2 1.46.11a.4.4 0 0 1 .05.52c-.56.78-.43 2.33-1.33 3.26a.43.43 0 0 0-.11.21c-.02.08-.01.16.02.24.15.42.1.82-.18 1.2ZM28.91 30.77a.2.2 0 0 1 .08.16.22.22 0 0 1-.09.17l-.12.09a.1.1 0 0 1-.06.02.1.1 0 0 1-.07-.03c-.3-.29-.53-.72-.68-1.28a.6.6 0 0 0-.41-.42l-.03-.02a.25.25 0 0 1-.22-.32l.19-.57a.4.4 0 0 1 .19-.22c.09-.05.2-.06.29-.03l.41.12a.24.24 0 0 1 .17.27c0 .04-.02.07-.04.1-.5.66-.36 1.3.4 1.96Z" fill="#898A8F"/><path d="M26.18 30.8c-.6-.24-1.12-.61-1.55-1.12a.35.35 0 0 1 .46-.52c.13.08.2.25.2.5a.63.63 0 0 0 .31.52c.24.14.43.35.58.62Z" fill="#A4A5AB"/><path d="M14.89 31.44c-.05.05-.08.15-.1.3a.45.45 0 0 1-.38.38c-.22.03-.54-.05-.98-.26a.43.43 0 0 1-.19-.16.45.45 0 0 1-.07-.24c0-.6.28-1.06.85-1.38a.68.68 0 0 1 .29-.09l3.91-.26c.09 0 .18 0 .25.04l.83.35a.22.22 0 0 1 .13.15.23.23 0 0 1-.05.2c-.04.05-.14.1-.3.14-.1.03-.17.1-.22.23-.34.8-1.34 1.5-2.23 1.24-.35-.1-.72-.06-1.1.1a.28.28 0 0 1-.4-.31l.07-.27a.18.18 0 0 0-.2-.22.18.18 0 0 0-.11.06Z" fill="#95969B"/><path d="M24.32 30.3c-.12-.1-.28-.09-.35.01-.07.1-.02.25.1.34.13.09.3.08.36-.02.07-.1.02-.25-.1-.34Z" fill="#898A8F"/><path d="M39.05 32.66c-.29.1-.43.05-.43-.14l.07-1.54c-.08-.57-.07-.84.01-.83a.78.78 0 0 1 .68.72c0 .12-.01.23-.06.34-.16.4-.25.87-.27 1.45Z" fill="#444447"/><path d="m24.88 30.93.86.5a.16.16 0 0 1-.1.29c-.45-.01-.77-.22-.94-.62a.13.13 0 0 1 .18-.17Z" fill="#95969B"/><path d="M26.18 30.8c.77.03 1.54.26 2.28.67.14.07.23.17.26.28a.26.26 0 0 1-.12.3.26.26 0 0 1-.32-.05 4.93 4.93 0 0 0-2.1-1.2Z" fill="#A4A5AB"/><path d="M23.5 33.5c0 .16-.07.3-.2.4-.23.02-.43.07-.6.15a.35.35 0 0 0-.16.47c.1.2.15.37.16.51a.4.4 0 0 1-.3.39c-1.17.31-1.84.9-2 1.75a.44.44 0 0 1-.14.24.42.42 0 0 1-.25.1l-.57.09a.2.2 0 0 0 .05.4c.71.04 1.26-.28 1.63-.95a.44.44 0 0 1 .52-.2c.6.18 1.05.26 1.36.24a.28.28 0 0 0 .3-.27.27.27 0 0 0-.27-.28l-.26-.05a.38.38 0 0 1-.23-.62.38.38 0 0 1 .24-.12c.64-.08.96.23.95.92 0 .07.02.14.06.2.04.06.1.11.16.14.19.07.38.05.58-.08a.21.21 0 0 0 .01-.35c-.54-.4-.6-.93-.16-1.58a.25.25 0 0 1 .45.24c-.07.16-.1.36-.09.6l.21.14c.07.05.12.12.14.2.03.07.03.15 0 .21a.77.77 0 0 1-.05.1.44.44 0 0 0 .13.56c.24.19.45.41.64.68a.3.3 0 0 0 .35.11.3.3 0 0 0 .1-.07l.38-.36a.4.4 0 0 1 .4-.1c.33.1.47-.1.42-.59 0-.05.01-.11.04-.16a.27.27 0 0 1 .13-.1l.26-.11a.15.15 0 0 1 .2.13c.02.42-.1.75-.35 1l-1.35 1.36a.28.28 0 0 1-.42-.03l-.65-.86a.27.27 0 0 0-.16-.1.28.28 0 0 0-.18.03c-.38.19-.82.19-1.3 0a.67.67 0 0 0-.57.04l-2.74 1.57a.1.1 0 0 1-.12-.02.17.17 0 0 1-.01-.2.17.17 0 0 1 .04-.05l1.96-1.48a.1.1 0 0 0-.01-.16l-.33-.2h-.03l-.03.01-1.3.98a.52.52 0 0 1-.5.06 5.47 5.47 0 0 0-2.02-.34.64.64 0 0 1-.34-.1c-.48-.3-1.12-.33-1.92-.11a.51.51 0 0 1-.51-.17.33.33 0 0 1-.07-.23.3.3 0 0 1 .1-.2c.32-.26.63-.33.93-.23.89.31 1.62-.35 2.41.2a.33.33 0 0 0 .41-.03c.15-.13.5-.2 1.03-.18a.3.3 0 0 0 .2-.07.3.3 0 0 0 .1-.18l.04-.2a.18.18 0 0 0-.14-.2l-2.1-.35a.3.3 0 0 1-.2-.48.3.3 0 0 1 .16-.11 8.39 8.39 0 0 1 3.83-.25.28.28 0 0 0 .32-.22l.02-.17a.34.34 0 0 0-.28-.4l-.44-.07a.17.17 0 0 1-.14-.13.18.18 0 0 1 .07-.18c.91-.68 1.61-1.17 2.1-1.47.17-.1.3-.26.36-.43a.55.55 0 0 0-.01-.48c-.06-.1-.22-.13-.5-.1-.16 0-.24.06-.24.18 0 .08-.02.14-.08.18a.08.08 0 0 1-.13-.1c.1-.26.27-.42.5-.49a.9.9 0 0 1 .45 0c.15.04.28.12.38.22.1.1.17.23.2.36.02.13 0 .27-.06.4-.17.32-.49.73-.97 1.2Z" fill="#95969B"/><path d="M36 31.3c-.03.74-.43 1.2-1.19 1.38a.55.55 0 0 0-.36.32l-.12.3c-.15.11-.28.16-.38.13-.1-.03-.14-.13-.12-.32.08-.7.04-.88-.14-.51a4.11 4.11 0 0 1 2.32-1.3Z" fill="#A4A5AB"/><path d="M33.69 32.6c.18-.37.22-.2.14.5-.02.2.02.3.12.33.1.03.23-.02.38-.13.28.09.57.05.86-.12.58-.35 1.1-.54 1.57-.57-.45.74-.99 1.4-1.6 2a1.6 1.6 0 0 0-.39.6c-.06.18-.21.25-.45.24-.06-.01-.12 0-.18.02a.41.41 0 0 0-.16.12c-.29.35-.57.67-.85.98a2.7 2.7 0 0 1-2.4.92.57.57 0 0 1-.35-.15.17.17 0 0 1-.04-.17c0-.03.02-.05.05-.07a.16.16 0 0 1 .08-.04c.5-.09.93-.33 1.26-.74.02.14.13.18.32.13a.42.42 0 0 0 .31-.34l.08-.45a.27.27 0 0 0-.38-.3l-.3.12a.58.58 0 0 0-.43-.1.3.3 0 0 0-.15.08.3.3 0 0 0-.08.16 1.93 1.93 0 0 0-.05.28.23.23 0 0 1-.24.14c-.32-.05-.51-.15-.58-.3a.25.25 0 0 1 .07-.28.25.25 0 0 1 .09-.06l.16-.06a.35.35 0 0 0-.29-.42.35.35 0 0 0-.18.02l-2.37.97a.55.55 0 0 0-.18.12c-.44.46-.95.73-1.54.8a.5.5 0 0 1-.5-.22 1.35 1.35 0 0 1-.23-.82l.2-.48a.27.27 0 0 1 .32-.16l.12.07c.26.25.46.24.6-.04a.4.4 0 0 1 .14-.16.42.42 0 0 1 .21-.07c.45-.01.84-.2 1.18-.58a.37.37 0 0 0 .1-.3c-.05-.31-.16-.52-.36-.64a.2.2 0 0 0-.18 0 .18.18 0 0 0-.1.16c0 .52-.23.81-.68.88a.24.24 0 0 1-.28-.25c0-.1 0-.18-.02-.2a.26.26 0 0 0-.44.05c-.25.57-.62.64-1.14.22-.14-.12-.33-.2-.52-.23l-1.1-.15c.13-.12.2-.25.2-.4.12.31.47.2 1.03-.37a.82.82 0 0 1 .99-.12l1.09.63a.2.2 0 0 0 .25-.3l-.71-.92a.23.23 0 0 1 .16-.37l.64-.07c.09 0 .17.02.23.07.05.04.05.14.02.32a.25.25 0 0 0 .06.22.26.26 0 0 0 .21.08c.27-.01.46.1.56.32a.25.25 0 0 0 .4.07c.32-.32.7-.32 1.14 0 .2.15.45.22.7.21 1.5-.07 2.63-.3 3.41-.68Z" fill="#898A8F"/><path d="M21.5 33.24c-.14.09-.25.12-.34.09a.2.2 0 0 1-.12-.1.2.2 0 0 1-.01-.15c.01-.06.05-.1.1-.15a.3.3 0 0 1 .16-.06c.13-.01.22.06.27.2a.13.13 0 0 1-.06.17ZM16.78 35.74c.09.08.14.12.18.12.04 0 .05.05.06.14a.4.4 0 0 1-.14.35c-.06.05-.17.03-.33-.06a2.69 2.69 0 0 0-1.91-.19.33.33 0 0 1-.4-.42l.58-1.9a.4.4 0 0 1 .18-.22.42.42 0 0 1 .28-.06c.27.05.67-.09 1.19-.41a.25.25 0 0 1 .14-.04l2.18-.06a.12.12 0 0 1 .11.16.12.12 0 0 1-.05.06c-.79.44-1.75.8-1.39 1.8a.36.36 0 0 1-.08.37.68.68 0 0 1-.54.21.09.09 0 0 0-.08.06.08.08 0 0 0 .02.1ZM13.59 34.9a.6.6 0 0 1-.45.08.65.65 0 0 1-.38-.25.92.92 0 0 1-.03-1c.25-.4.67-.6 1.28-.63a.36.36 0 0 1 .37.3c.01.06 0 .12-.01.18-.26.71-.52 1.15-.78 1.32Z" fill="#A4A5AB"/><path d="M20.74 33.58c-.31.25-.67.37-1.07.37a.33.33 0 0 1-.32-.44.33.33 0 0 1 .13-.16c.2-.13.59-.15 1.18-.07a.17.17 0 0 1 .14.22.17.17 0 0 1-.06.08Z" fill="#898A8F"/><path d="m31.73 36.32.03-.84.3-.12a.27.27 0 0 1 .38.3l-.08.45a.42.42 0 0 1-.31.34c-.19.05-.3 0-.32-.13Z" fill="#444447"/><path d="M35.09 35.5c.39 1.23.72 1.5.99.78.3.34.9.45 1.76.33l-.35.67c-.22-.2-.47-.32-.74-.35-.34-.04-.56.07-.66.34-.09.23-.21.4-.37.51a.25.25 0 0 1-.4-.22.69.69 0 0 0-.3-.67.43.43 0 0 0-.52.04.41.41 0 0 0-.08.5l.7 1.22c.03.05.08.1.15.12.06.02.13.01.2-.01.52-.23.87-.14 1.07.27.05.1.14.12.27.02.1-.07.15-.14.16-.2.02-.17-.05-.26-.2-.25-.12.01-.2 0-.23-.01a.27.27 0 0 1-.1-.37c.17-.3.49-.4.96-.32-.08.34.02.54.28.6-.45.57-.79 1.23-1 1.95-.06.21-.27.39-.6.53a.22.22 0 0 1-.29-.3c.1-.18.14-.34.15-.45a.18.18 0 0 0-.33-.1c-.04.06-.02.28.07.67a.43.43 0 0 1-.31.5c-.17.05-.34-.03-.5-.24a.2.2 0 0 0-.2-.08.22.22 0 0 0-.17.15c0 .04-.02.09-.04.15a.9.9 0 0 1-.33.5c-.27.2-.46.48-.56.82a.74.74 0 0 1-.36.44c-.78.4-1.33.57-1.65.5a.45.45 0 0 0-.23 0 .43.43 0 0 0-.2.13c-.2.22-.52.33-1 .33a.4.4 0 0 1-.35-.2l-.64-1.12a.25.25 0 0 1 0-.25.24.24 0 0 1 .23-.12c.91.06 1.63.2 2.13.41a.21.21 0 0 0 .28-.1c.06-.14.06-.32 0-.55a.25.25 0 0 1 .13-.31c1.18-.52 1.82-.96 1.92-1.32a.28.28 0 0 0-.3-.36.29.29 0 0 0-.16.06 2.8 2.8 0 0 0-.66.8.45.45 0 0 1-.42.22c-.3-.02-.54.11-.71.39a.62.62 0 0 1-.48.29c-.82.06-1.25-.46-1.28-1.58l.4.02a.34.34 0 0 1 .33.34c0 .27.1.4.3.4.35.02.68-.04.95-.17.27-.13.47-.31.56-.53.14-.31.3-.61.5-.91a.43.43 0 0 1 .47-.18c.15.04.26 0 .32-.1a.43.43 0 0 0 .05-.27c-.05-.3-.19-.54-.4-.73a.38.38 0 0 1-.12-.22.4.4 0 0 1 .04-.26 6.43 6.43 0 0 1 1.87-2.16Z" fill="#898A8F"/><path d="M30.7 40.05c.06-.3-.03-.5-.28-.6-.6-.25-1-.36-1.19-.34-.64.07-1.14.06-1.52-.04a.38.38 0 0 0-.43.18c-.18.34-.26.6-.24.8a.5.5 0 0 1-.18.45c-.54.44-1.05.55-1.51.35-.36-.16-.44-.11-.25.15l.24.21c.06.06.06.13 0 .21-.7.87-1.4 1.04-2.1.5a.65.65 0 0 0-.45-.13l-.28.01a.22.22 0 0 1-.21-.28.22.22 0 0 1 .07-.11l.64-.5a.23.23 0 0 1 .36.13v.15c-.08.19-.06.32.05.4a.19.19 0 0 0 .26-.05c.37-.48.78-.81 1.22-.99.17-.06.31-.2.39-.36l.11-.24a.28.28 0 0 0-.2-.4.29.29 0 0 0-.17.02l-.14.13a.14.14 0 0 1-.15.04.15.15 0 0 1-.1-.14 2.45 2.45 0 0 1 .25-.39.16.16 0 0 1 .06-.02c.48-.06.83 0 1.07.17a.72.72 0 0 0 .54.12.7.7 0 0 0 .46-.3c.27-.42.58-.84.94-1.27l.67-.6a.45.45 0 0 1 .45-.1c.47.19.77.46.89.83a.6.6 0 0 0 .36.38c.47.17.8.4.96.68a.17.17 0 0 0 .28.04l.98-.99a.12.12 0 0 1 .12-.03.13.13 0 0 1 .1.08l.1.24v.04a3.81 3.81 0 0 1-1.57 1.77c-.3.16-.5.1-.6-.2Z" fill="#95969B"/><path d="M17.61 40.16c.07-.4.19-.65.35-.73a.35.35 0 0 1 .43.1.4.4 0 0 1 .02.46c-.05.09-.23.2-.55.36a.17.17 0 0 1-.25-.19ZM23.02 40c.05.08-.32.4-1.1.95a.12.12 0 0 1-.04.02h-.05a.2.2 0 0 1-.16-.08.2.2 0 0 1-.02-.18c0-.02 0-.04.02-.05a.12.12 0 0 1 .04-.03c.81-.5 1.25-.72 1.3-.64Z" fill="#A4A5AB"/><path d="M28.6 42.07c-.1.02-.15-.07-.12-.28a.44.44 0 0 0-.37-.5c-.24-.03-.42-.33-.53-.9a.46.46 0 0 1 .5-.53c.09 0 .18.04.25.1.25.2.47.32.69.34a.38.38 0 0 1 .34.3c.12.68-.07 1.15-.57 1.4a.9.9 0 0 1-.2.07Z" fill="#95969B"/><path d="M21.1 40.67c.06.06.06.28 0 .67a.13.13 0 0 1-.25.05c-.07-.13-.1-.33-.08-.59a.19.19 0 0 1 .12-.16.2.2 0 0 1 .21.03ZM26.72 42.31a5.4 5.4 0 0 0-.42-.15.25.25 0 0 1-.06-.34c.1-.15.3-.28.6-.38a.34.34 0 0 1 .25.01c.08.04.14.1.17.18.21.6.77 1.14 1.66 1.6a.34.34 0 0 1-.16.64h-1.75a.57.57 0 0 1-.56-.68.57.57 0 0 1 .15-.29l.21-.2a.23.23 0 0 0 .06-.22.24.24 0 0 0-.15-.17ZM25.38 43.28c-.18.13-.43.16-.77.12a.21.21 0 0 1-.15-.34c.07-.09.23-.22.49-.4.25-.17.44-.28.54-.3a.21.21 0 0 1 .27.14v.1c-.08.34-.2.56-.38.68Z" fill="#A4A5AB"/><path d="M40.65 25.65c.01.04 0 .08-.02.1a.16.16 0 0 1-.08.07.22.22 0 0 1-.22-.07c-.08-.09-.1-.21-.07-.38 0-.03.03-.05.05-.07a.14.14 0 0 1 .08-.03c.04 0 .07.01.1.03.03.02.05.04.06.07.05.1.09.2.1.28Z" fill="#95969B"/><path d="M34.38 34.82c-.09.17-.33.32-.74.45a.2.2 0 0 1-.25-.18.2.2 0 0 1 .04-.12l.32-.46.17-.54a.2.2 0 0 1 .37-.01c.15.4.17.69.09.86ZM29.6 34.72c-.07.1-.3.15-.7.19a.17.17 0 0 1-.16-.26c.18-.28.3-.43.39-.47a.39.39 0 0 1 .45.1c.05.06.08.14.08.22 0 .08-.02.16-.07.22ZM23.8 35.22c0 .04-.01.08-.04.12a.27.27 0 0 1-.09.08.31.31 0 0 1-.26.02c-.13-.05-.2-.12-.2-.21a.3.3 0 0 1 .16-.25.33.33 0 0 1 .3-.01c.1.04.14.12.13.25Z" fill="#A4A5AB"/></svg>