<!-- by TradingView --><svg width="56" height="56" viewBox="0 0 56 56" xmlns="http://www.w3.org/2000/svg"><path fill="#F0F3FA" d="M0 0h56v56H0z"/><path d="M28 46c10.38-.09 18-8.06 18-18s-7.73-18-18-18c-2.48 0-4.9.7-7.05 1.6a.05.05 0 0 0 .04.1c1.84-.68 4.4-.97 6.46-.97 9.28 0 16.84 7.91 16.84 17.53 0 9.61-7.68 17.53-17.15 17.53-.22 0-.46 0-.68-.02a.07.07 0 0 0-.07.07c0 .04.02.07.06.07.5.05 1.04.09 1.54.09Z" fill="#009EE3"/><path d="M16.16 41.48a.05.05 0 0 0 0-.08c-2.75-3-4.73-7.21-4.73-11.64 0-9.23 7.45-16.75 16.38-16.75a15.52 15.52 0 0 1 6.23 1.07.05.05 0 0 0 0-.08 16.13 16.13 0 0 0-7.68-1.94A16.46 16.46 0 0 0 10 28.62c0 5.07 2.52 9.8 6.09 12.86.02.01.05.01.07 0ZM37.28 40.12a.07.07 0 0 0-.1 0 15.36 15.36 0 0 1-9.11 2.87c-3.6 0-6.95-1.1-9.41-2.96a.08.08 0 0 0-.1 0 .08.08 0 0 0 0 .12 13.37 13.37 0 0 0 9.42 3.78c3.67 0 6.94-1.43 9.3-3.71a.07.07 0 0 0 0-.1Z" fill="#009EE3"/><path d="M18.02 21.43c.47-1.2 1.5-1.82 2.62-2.23 2.3-.84 4.86-1.2 7.3-1.2 2.43 0 4.98.36 7.29 1.2 1.12.41 2.14 1.04 2.61 2.23.21.73.76 1.21 1.36 1.61.25.17.48.33.7.58.4.44 1.18 1.28 1.18 4.88 0 3.6-.78 4.44-1.18 4.88-.22.25-.45.4-.7.57-.6.4-1.15.89-1.36 1.62-.47 1.2-1.49 1.82-2.61 2.23-2.3.84-4.86 1.2-7.3 1.2-2.43 0-4.99-.36-7.3-1.2-1.12-.41-2.14-1.04-2.6-2.23-.22-.73-.76-1.21-1.36-1.61-.26-.17-.49-.33-.71-.58-.4-.44-1.17-1.28-1.17-4.88 0-3.6.78-4.44 1.17-4.88.22-.25.45-.4.7-.57.61-.4 1.15-.89 1.36-1.62Z" fill="url(#amir251qf)"/><path d="M19.15 20.8c.63-.6 1.9-1.01 2.65-1.2.04 0 .05.04.02.05-.41.2-.99.47-1.48.72a3.3 3.3 0 0 0-1.4 1.08c-.2.3-.28.62-.42.93-.2.4-.44.76-.8 1.03-.27.19-.58.37-.73.5a3.1 3.1 0 0 0-.97 1.95c-.23 1.39-.2 2.86-.2 3.08 0 .26.08 1.84.35 2.68.27.83.94 1.32 1.18 1.45.24.14.62.41.87.76.26.35.59 1.2.72 1.4.14.2.5.65 1.11.99.4.22 1.2.58 1.75.82.03.02.01.07-.02.06a9.29 9.29 0 0 1-2.39-.97c-.84-.6-.96-1.34-1.33-1.98-.38-.64-.77-.7-1.46-1.26s-.99-2.13-1.06-3c-.08-.86-.1-2.8.15-4.21.25-1.42.91-1.86 1.4-2.18a3.1 3.1 0 0 0 1.25-1.48c.32-.69.67-1.1.81-1.22ZM36.74 20.8a6.79 6.79 0 0 0-2.65-1.2c-.03 0-.05.04-.02.05.41.2.99.47 1.48.72a3.3 3.3 0 0 1 1.4 1.08c.2.3.28.62.42.93.2.4.44.76.8 1.03.27.19.58.37.73.5.6.53.85 1.19.97 1.95.23 1.39.2 2.86.2 3.08 0 .26-.08 1.84-.35 2.68a2.77 2.77 0 0 1-1.18 1.45c-.24.14-.62.41-.87.76-.26.35-.59 1.2-.72 1.4-.14.2-.5.65-1.11.99-.4.22-1.2.58-1.75.82-.03.02-.01.07.02.06.71-.2 1.82-.57 2.39-.97.84-.6.96-1.34 1.33-1.98.38-.64.77-.7 1.46-1.26s.99-2.13 1.06-3c.08-.86.1-2.8-.15-4.21-.25-1.42-.91-1.86-1.4-2.18a3.1 3.1 0 0 1-1.25-1.48 3.95 3.95 0 0 0-.81-1.22Z" fill="#fff"/><path d="M16.51 25.02c8.72.28 14.98-3.45 17.86-4.89-1.08-.56-5.84-1.37-10.19-.65-1.28.22-2.6.55-3.77 1.12-.52.26-1 .57-1.25.96-.36.54-.5 1.26-.94 1.76-.3.35-.56.48-.93.7-.4.24-.69.77-.78 1Z" fill="url(#bmir251qf)"/><path fill-rule="evenodd" d="M20.06 24H18v5h2.06C21.4 29 22 27.8 22 26.56c0-1.27-.52-2.56-1.94-2.56Zm-.48.77H19v3.6h.58c1 0 1.42-.96 1.42-1.8 0-.85-.42-1.8-1.42-1.8ZM30.06 30H28v5h2.06C31.4 35 32 33.8 32 32.56c0-1.27-.52-2.56-1.94-2.56Zm-.48.74H29v3.62h.58c1 0 1.42-.95 1.42-1.8 0-.84-.42-1.82-1.42-1.82Z" fill="#fff"/><path d="M23.5 24h-1v3.71c0 .71.55 1.29 1.24 1.29h1.01c.69 0 1.25-.58 1.25-1.29V24h-1v3.65c0 .42-.34.78-.75.78a.77.77 0 0 1-.75-.78V24ZM30.16 24h-3.32v.9s.58-.07 1.16-.11V29h1v-4.21l1.16.1V24ZM32.66 24c.35 0 .68.06.99.17v1.14c-.26-.36-.63-.59-1.04-.59-.87 0-1.61.79-1.61 1.75 0 1.26.78 1.8 1.55 1.8.3 0 .63-.17.86-.37l.45.4c-.56.58-1.16.7-1.6.7-1.5 0-2.26-.99-2.26-2.35A2.62 2.62 0 0 1 32.66 24ZM34.5 24h1v2.03l1.5-.2V24h1v5h-1v-2.4l-1.5.2V29h-1v-5ZM22 30h-1v5h2.02l.29-.7H22V30ZM24.7 30.96c.2-.58.73-.96 1.3-.96l1.67 5h-1.25L26 33.69l-1.39.23-.34 1.08h-1l1.42-4.04Zm.16 2.22.95-.16-.45-1.43-.5 1.6ZM31.5 30l1.5 2.96V35h1v-2.02L35.7 30h-1.07l-1.08 1.8-.84-1.8H31.5Z" fill="#fff"/><defs><linearGradient id="amir251qf" x1="19.56" y1="19.29" x2="28.22" y2="38.88" gradientUnits="userSpaceOnUse"><stop stop-color="#0093D9"/><stop offset="1" stop-color="#134094"/></linearGradient><linearGradient id="bmir251qf" x1="25.44" y1="19.21" x2="26.18" y2="25.04" gradientUnits="userSpaceOnUse"><stop stop-color="#E1F3FD"/><stop offset="1" stop-color="#07A0E4" stop-opacity=".54"/></linearGradient></defs></svg>