<!-- by TradingView --><svg width="56" height="56" viewBox="0 0 56 56" xmlns="http://www.w3.org/2000/svg"><path fill="#E3DED9" d="M0 0h56v56H0z"/><path d="M14.42 35c-2.18 0-4.68-.47-6.42-1.87l1.05-2.24a9.03 9.03 0 0 0 5.37 1.61c1.3 0 3.58-.16 3.58-1.92 0-1.7-2.56-2.05-3.8-2.31-2.57-.56-5.85-1.4-5.85-4.63 0-3.46 3.67-4.64 6.56-4.64 1.85 0 3.83.39 5.42 1.38l-.96 2.24A8.7 8.7 0 0 0 15 21.5c-1.36 0-3.65.24-3.65 2.01 0 1.74 2.53 2.02 3.79 2.31 2.56.55 5.86 1.34 5.86 4.56 0 3.47-3.71 4.62-6.58 4.62ZM32.6 35c-4.58 0-8.6-3.22-8.6-8 0-4.76 4.05-8 8.63-8 2.36 0 4.78.78 6.37 2.6l-1.93 1.76a6.33 6.33 0 0 0-4.47-1.86 5.39 5.39 0 0 0-5.59 5.5c0 3.23 2.45 5.5 5.6 5.5 1.65 0 3.32-.67 4.46-1.88L39 32.4c-1.62 1.82-4.01 2.6-6.4 2.6ZM37 37h11v2H37z"/></svg>