<!-- by TradingView --><svg width="56" height="56" viewBox="0 0 56 56" xmlns="http://www.w3.org/2000/svg"><path fill="#F0F3FA" d="M0 0h56v56H0z"/><path d="m28 9 19 19-19 19L9 28 28 9Z" fill="#153C5D"/><path d="M14.7 22.3 28 9l9.03 9.02L25.15 29.9 14.7 22.3Z" fill="#F5D335"/><path d="m9.95 27.05 9.03-9.03 3.69 3.7c-.66.2-1.82.66-2.34 1.18-.59.58.04 1.7.42 2.17.48.39 1.6 1.01 2.18.43a6.54 6.54 0 0 0 1.27-2.25l3.8 3.8-3.8 3.8c.68.22 1.65.54 2.14 1.04a.8.8 0 0 1 .24.52c.04.58-.39 1.2-.68 1.56-.36.3-.87.72-1.45.68a.8.8 0 0 1-.54-.23c-.5-.5-.92-1.47-1.13-2.15l-3.8 3.8-9.03-9.02ZM46.05 27.05l-9.03 9.03-3.69-3.7c.66-.2 1.82-.66 2.34-1.18.59-.58-.04-1.7-.42-2.17-.48-.39-1.6-1.01-2.18-.43a6.54 6.54 0 0 0-1.27 2.25l-3.8-3.8 3.8-3.8a5.78 5.78 0 0 1-2.14-1.04.8.8 0 0 1-.24-.52c-.04-.58.39-1.2.68-1.56.36-.3.87-.72 1.45-.68.2.01.39.08.54.23.5.5.92 1.47 1.13 2.14l3.8-3.8 9.03 9.03Z" fill="#7DA1D5"/></svg>