<!-- by TradingView --><svg width="56" height="56" viewBox="0 0 56 56" xmlns="http://www.w3.org/2000/svg"><path fill="#181B1E" d="M0 0h56v56H0z"/><path d="M22 18.94v3.3c-.57.13-2.15.9-2.7.73a11.77 11.77 0 0 1-3.29-1.66c-1.8-1.27-2.4-3.04-1.77-5.29.26-.95 1-2.13 1.4-3.02l2.12 1.85c-.15.62-.2 1.18-.16 1.69.07.94.66 1.49 1.4 2.1l1.96-1.74L22 18.94ZM32.64 22.44c.25.61.37 1.25.36 1.9-.31-2.28-1.77-3.4-4.06-3.4-1.76-.02-2.9.79-3.44 2.42-.16.48-.24.95-.26 1.42-.02.32-.7.25-.86.05-.9-1.18-1.6-2.6-1.32-4.16 1.12.75 2.08.57 3.15.06 2.6-1.17 5.02-1.15 6.43 1.7ZM18.83 26.6A5.85 5.85 0 0 1 17 23.13c1.8.29 3.88.47 5.59-.13l.41 1.18a2.34 2.34 0 0 0-1.6.18c-1.09.52-.5 2.68-.23 3.64a5.77 5.77 0 0 1-2.34-1.4ZM15 28c.9.28 2.09.47 3.06.32.83.8 1.77 1.53 2.85 1.89-1.57.65-.5 2.68.09 3.79-2.36-.93-5.11-3.26-6-6ZM43 33l-.58 1.75c-2 .21-5.64.25-8.42.25l.77-2H43ZM41.98 36.28C41.1 38.72 38.36 39.71 36 40v-1.25L32.51 40s.35-1.13.47-1.66H32L33.29 36h8.7c.02.08.01.18 0 .28Z" fill="#fff"/><path d="M27.79 22.35c2.47-1.07 5.08.4 4.55 3.16-.02.08.05.16.13.16h3.23c1.87-.03 3.2-1.28 5-1.55 1.6-.24 2.45 1.27 2.28 2.54-.18 1.31-.94 2.19-2.27 2.64-1.57.28-3.66.2-5.29.2.01 0 .43-.23 1.26-.56.46-.18 1.3-.37 2.26-.33v-.72a7.11 7.11 0 0 0-3.68.6c-.11.06-.22.14-.3.23l-.66.6c-1.53 1.32-.72 3.26-1.47 4.86-.94 1.98-1.63 3.22-3.23 4.5A6.97 6.97 0 0 1 26.16 40v-.8a7.1 7.1 0 0 0 2.39-.78c.2-.1-.32-.17-.42-.14-2.65.97-5.33.87-8.04-.3a9.62 9.62 0 0 1-4.06-3.19 7.13 7.13 0 0 0 3.48-.62c1.52.73 3.4 1.61 5.1 1.87-.32 1.34.55 1.5 1.58 1.18 1.6-.5 2.41-.91 4.05-.8.22.02.43-.08.56-.24l.33-.44c.12-.17 0-.42-.22-.42a8.18 8.18 0 0 0-2.96.36l-2.25.8-.02-1.47a9.2 9.2 0 0 1-4.27-3.2c-.17-.23-.19-.5-.04-.8a.28.28 0 0 1 .07-.1.3.3 0 0 1 .11-.05c.8-.22 1.7-.05 2.2-.08a.07.07 0 0 0 .06-.04v-.04a7.62 7.62 0 0 1-2.34-4.45.45.45 0 0 1 .35-.5c1.28-.27 2.9-.12 4.33-.02.11.01.2-.09.18-.2-.24-1.3.1-2.59 1.46-3.18ZM29 29c0 1.5-.31 4.28 2.66 3.97.34-.03.58-.2.73-.51.1-.19-.07-.42-.32-.4-.25.03-.43.02-.53-.01-.1-.05-.1-.18 0-.22l.74-.6c.18-.16.3-.42.34-.78.05-.42.1-1.04.38-1.45h-4Zm11.5-3a.5.5 0 1 0 0 1 .5.5 0 0 0 0-1Zm-10.57-1.53c-.47-.6-1.4-.67-1.8.07-.4.73.2 1.43.98 1.46H31c-.17-.26-.59-.91-1.07-1.53Z" fill="#fff"/></svg>