<!-- by TradingView --><svg xmlns="http://www.w3.org/2000/svg" width="56" height="56" viewBox="0 0 56 56"><path fill="#F0F3FA" d="M0 0h56v56H0z"/><path d="M25.86 44.58c.28 0 .5.23.5.5 0 .7.22 1.17.5 1.47a1.45 1.45 0 0 0 2.11 0c.29-.3.5-.77.5-1.47a.5.5 0 0 1 1 0c0 .92-.29 1.65-.77 2.16a2.45 2.45 0 0 1-3.56 0 3.04 3.04 0 0 1-.78-2.16c0-.27.23-.5.5-.5ZM18.88 12.46A11.23 11.23 0 0 1 28.08 8a11.1 11.1 0 0 1 9.02 4.46c2.65 3.53 3.25 8.4 1.08 12.32a23 23 0 0 1-1.89 2.84c-.38.54-.76 1.06-1.12 1.6a9.42 9.42 0 0 0-1.78 4.73.5.5 0 0 1-1-.06 10.4 10.4 0 0 1 1.95-5.23c.37-.56.76-1.1 1.15-1.64l.4-.54c.5-.72 1-1.43 1.42-2.18 1.95-3.54 1.43-8-1.01-11.24A10.1 10.1 0 0 0 28.08 9c-3.66 0-6.56 1.62-8.4 4.06-2.43 3.24-2.93 7.71-.98 11.24a22.04 22.04 0 0 0 1.81 2.72c.39.54.79 1.08 1.15 1.64 1 1.5 1.83 3.15 1.95 5.23a.5.5 0 1 1-1 .06 9.41 9.41 0 0 0-1.78-4.74c-.35-.53-.73-1.05-1.12-1.59l-.4-.55a23 23 0 0 1-1.49-2.3c-2.15-3.9-1.58-8.79 1.06-12.3Z"/><path d="M24.12 12.4c.56-.64 1.46-.88 2.5-.88a.5.5 0 0 1 0 1c-.93 0-1.47.22-1.75.53-.26.3-.4.82-.17 1.7a.5.5 0 0 1-.65.59c-.76-.28-1.25-.26-1.54-.15a.89.89 0 0 0-.54.6c-.1.3-.09.67 0 1.01.1.35.29.6.46.71a.5.5 0 0 1-.35.91c-.37-.06-.64.02-.82.14-.19.12-.33.32-.4.57-.16.51-.02 1.16.46 1.55a1.64 1.64 0 0 0 1.03.38.5.5 0 0 1 .35.9c-.4.29-.61.55-.71.77-.13.27-.13.47-.08.62a.9.9 0 0 0 .38.46c.41.28 1.1.41 1.8.24a.5.5 0 0 1 .54.77c-.3.44-.28 1 0 1.37.28.34.92.65 2.16.28a.5.5 0 0 1 .29.96c-1.48.44-2.6.15-3.22-.62a2.1 2.1 0 0 1-.41-1.68 3.1 3.1 0 0 1-1.73-.5 1.9 1.9 0 0 1-.76-.98c-.13-.42-.1-.88.12-1.34.07-.15.16-.3.28-.45a2.48 2.48 0 0 1-1.46-3.03c.13-.44.4-.84.81-1.11.15-.1.3-.17.47-.22a2.79 2.79 0 0 1-.16-2c.16-.53.53-1.01 1.14-1.24.4-.16.89-.19 1.44-.08-.05-.7.1-1.31.52-1.79ZM29.41 12.71c.23-.16.63-.24 1.22-.03.4.15.64.37.76.66.13.3.16.76 0 1.4a.5.5 0 0 0 .65.6c.76-.28 1.25-.26 1.54-.15.27.1.45.32.54.6.1.3.09.67-.01 1.01-.1.35-.28.6-.46.71a.5.5 0 0 0 .36.91c.37-.06.63.02.82.14.18.12.33.32.4.57.16.51.01 1.16-.47 1.55a1.64 1.64 0 0 1-1.02.38.5.5 0 0 0-.35.9c.4.29.6.55.71.77.12.27.12.47.07.62a.9.9 0 0 1-.37.46c-.41.28-1.1.41-1.81.24a.5.5 0 0 0-.53.77c.42.62.22 1.46-.53 1.72-.43.16-.96.16-1.35.01a.94.94 0 0 1-.43-.3.8.8 0 0 1-.15-.5V13.66c0-.48.18-.79.41-.95Zm-.56-.83a2.08 2.08 0 0 0-.85 1.78v12.09a1.8 1.8 0 0 0 1.22 1.74c.64.24 1.42.22 2.04 0a2.05 2.05 0 0 0 1.38-2.36 3.1 3.1 0 0 0 1.72-.5c.35-.23.63-.56.77-.98.13-.42.1-.88-.12-1.34-.07-.15-.17-.3-.28-.45a2.48 2.48 0 0 0 1.46-3.03c-.14-.43-.4-.84-.82-1.11a1.9 1.9 0 0 0-.46-.22 2.78 2.78 0 0 0 .16-2c-.16-.53-.53-1.01-1.14-1.24-.41-.16-.9-.19-1.44-.08.03-.45-.02-.86-.18-1.22-.24-.6-.72-1-1.34-1.22-.8-.28-1.55-.24-2.12.14Z"/><path d="M26.23 14.38a.5.5 0 0 1 .36.61 3.27 3.27 0 0 1-2.25 2.38.5.5 0 0 1-.24-.97c.4-.1 1.25-.58 1.53-1.65a.5.5 0 0 1 .6-.37ZM29.88 14.38a.5.5 0 0 0-.4.59c.15.69.46 1.29.81 1.74.34.43.78.8 1.21.9a.5.5 0 1 0 .24-.97c-.11-.03-.38-.19-.66-.55-.27-.34-.5-.8-.61-1.32a.5.5 0 0 0-.6-.4ZM25.95 20.42a.5.5 0 0 1-.58.42 2.53 2.53 0 0 1-1.94-1.42 3.72 3.72 0 0 1-.39-1.63c0-.27.24-.5.51-.5.28 0 .5.23.5.5 0 .22.05.72.28 1.17.22.44.58.8 1.2.9.27.03.46.29.42.56ZM23.72 22.52c0-.27.22-.5.5-.5.5 0 1 .13 1.47.45.46.32.82.82 1.06 1.5a.5.5 0 0 1-.95.33 1.93 1.93 0 0 0-.69-1.01 1.53 1.53 0 0 0-.9-.27.5.5 0 0 1-.5-.5ZM32.13 18.25a.5.5 0 0 1 .4.59c-.15.72-.55 1.9-1.7 2.65a.5.5 0 1 1-.55-.84 3.08 3.08 0 0 0 1.26-2.01.5.5 0 0 1 .6-.4ZM31.93 22.59a.5.5 0 0 1-.3.64c-1.25.48-1.34 1.39-1.19 1.76a.5.5 0 0 1-.93.38c-.4-.97.07-2.42 1.77-3.07a.5.5 0 0 1 .65.29ZM21.66 36.87c0-1.03.84-1.87 1.87-1.87h8.78a1.87 1.87 0 1 1 0 3.73h-1.1a.5.5 0 1 1 0-1h1.1a.87.87 0 1 0 0-1.73h-8.78a.87.87 0 1 0 0 1.73h5.21a.5.5 0 1 1 0 1h-5.21a1.87 1.87 0 0 1-1.87-1.86Z"/><path d="M23.57 38.73a.91.91 0 0 0 0 1.82h2.3a.5.5 0 1 1 0 1h-2.3a1.91 1.91 0 0 1 0-3.82h4.76v1h-4.76Zm8.7 0h-.65v-1h.65a1.91 1.91 0 0 1 0 3.82h-4.76a.5.5 0 1 1 0-1h4.76a.91.91 0 0 0 0-1.82Z"/><path d="M24.62 41.55a.72.72 0 1 0 0 1.45h6.6a.72.72 0 1 0 0-1.45h-3.71v-1h3.71a1.72 1.72 0 0 1 0 3.45h-6.6a1.72 1.72 0 1 1 0-3.45h1.24v1h-1.24Z"/></svg>