<!-- by TradingView --><svg width="56" height="56" viewBox="0 0 56 56" xmlns="http://www.w3.org/2000/svg"><path fill="#F0F3FA" d="M0 0h56v56H0z"/><path d="M43.5 32c.35 0 .5.29.5.64v8.16c0 1.77-1.4 3.2-3.14 3.2H15.14A3.17 3.17 0 0 1 12 40.8v-8.16c0-.35.15-.64.5-.64s.5.29.5.64v7.8c0 1.6.95 2.56 2.51 2.56h24.65c1.56 0 2.84-.82 2.84-2.41V32.7c0-.36.15-.71.5-.71ZM29.19 18c.39 0 .72.28.76.65l1.62 13.08 1.55-8.17c.07-.37.4-.65.8-.65.39 0 .73.26.8.62l1.24 5.55.8-.94c.19-.29.51-.46.87-.46h2.69c.37 0 .68.3.68.66 0 .36-.3.66-.68.66h-2.5l-1.38 1.82c-.41.62-1.4.45-1.57-.28l-.9-4.1-1.75 9.2a.78.78 0 0 1-.8.63.78.78 0 0 1-.76-.67l-1.5-12.15-1.87 13.9a.78.78 0 0 1-.76.65.78.78 0 0 1-.8-.64l-2.12-12.72-1.3 7.75c-.13.83-1.3.96-1.63.19L19.07 29h-2.38a.67.67 0 0 1-.69-.66c0-.37.31-.66.69-.66h2.6c.42 0 .8.24.96.61l1 2.16 1.57-9.43c.06-.37.4-.65.79-.65s.72.27.78.65l2.06 12.28 1.97-14.65a.76.76 0 0 1 .77-.65ZM42 25.81a.8.8 0 0 1 1.21-.68l3.42 2.18c.5.32.5 1.06 0 1.38l-3.42 2.18A.8.8 0 0 1 42 30.2V25.8ZM13 26a2 2 0 1 1 0 4 2 2 0 0 1 0-4Zm27.86-14A3.17 3.17 0 0 1 44 15.2v8.16c0 .35-.15.64-.5.64s-.5-.35-.5-.7V15.4c0-1.59-1.28-2.41-2.84-2.41H15.5c-1.56 0-2.51.97-2.51 2.56v7.8c0 .35-.15.64-.5.64s-.5-.29-.5-.64V15.2c0-1.77 1.4-3.2 3.14-3.2h25.72Z" fill="url(#a)"/><defs><linearGradient id="a" x1="46.41" y1="24.85" x2="10" y2="24.85" gradientUnits="userSpaceOnUse"><stop stop-color="#215ECF"/><stop offset="1" stop-color="#59D6D0"/></linearGradient></defs></svg>