<!-- by TradingView --><svg width="56" height="56" viewBox="0 0 56 56" xmlns="http://www.w3.org/2000/svg"><path fill="#23283B" d="M0 0h56v56H0z"/><path d="m29.02 31-.27.28c-.6.62-1.3.84-2.09.66-1.12-.26-1.56-1.42-1.64-2.54-.1-1.16.13-2.48 1.03-3.22.42-.34.9-.5 1.48-.5a1.88 1.88 0 0 1 1.44.7H29v-.01l.01-.02v-3.3l.01-.04H30v.03l.01 8.83-.01.03-.03.02h-.56c-.15-.02-.24-.1-.27-.28a11.14 11.14 0 0 1-.09-.65h-.02Zm-.02-.86V27.3c0-.02 0-.05-.02-.07a1.5 1.5 0 0 0-1.31-.7c-1.36.01-1.67 1.34-1.64 2.53.02 1.02.29 2.06 1.42 2.08.64 0 1.15-.36 1.53-.92a.12.12 0 0 0 .02-.07ZM38.97 23h-.94c-.02 0-.03.01-.03.03v8.94c0 .02.01.03.03.03h.94c.02 0 .03-.01.03-.03v-8.94c0-.02-.01-.03-.03-.03ZM5 23.07c0-.02 0-.03.02-.05a.06.06 0 0 1 .04-.01L8.14 23c.5 0 1 .1 1.47.32s.9.53 1.26.93A4.71 4.71 0 0 1 12 27.28v.42c0 1.13-.4 2.23-1.13 3.03-.72.8-1.7 1.26-2.72 1.26L5.07 32c-.01 0-.03 0-.04-.02a.07.07 0 0 1-.02-.05L5 23.07Zm1 4.43v3.45l.02.03.03.02h2c.3-.02.49-.04.56-.06C10.2 30.61 11 29.16 11 27.5c0-1.67-.8-3.11-2.39-3.44a5.31 5.31 0 0 0-.55-.06 46.5 46.5 0 0 0-2.04.01l-.02.04v3.45ZM17.06 31.17a.03.03 0 0 0-.02-.02.03.03 0 0 0-.03 0c-.3.28-.61.5-.95.64-.73.32-1.97.34-2.47-.42-.48-.75-.3-1.62.49-2.1a5.77 5.77 0 0 1 2.88-.63l.04-.03c.02-.69-.02-1.63-.93-1.77-.73-.1-1.16.16-1.76.54-.1.06-.22.06-.37 0a.14.14 0 0 1-.06-.05l-.24-.35a.07.07 0 0 1 0-.09c.61-.58 1.35-.87 2.22-.89 1.47-.03 2.14.94 2.14 2.28a1705.5 1705.5 0 0 1-.01 3.7c-.01.02-.02.02-.04.02h-.57a.19.19 0 0 1-.12-.04.18.18 0 0 1-.06-.1l-.14-.69Zm-.1-1.87c-.75.02-2.8.1-2.61 1.3.11.73.94.75 1.5.6a2.37 2.37 0 0 0 1.12-.7l.03-.06v-1.12l-.02-.01h-.01v-.01h-.02ZM35.05 31.17a.03.03 0 0 0-.02-.02.03.03 0 0 0-.03 0c-.29.28-.6.5-.94.64-.73.32-1.98.34-2.47-.42-.48-.75-.3-1.62.48-2.1a5.77 5.77 0 0 1 2.89-.63l.04-.03c.02-.69-.03-1.63-.94-1.77-.72-.1-1.16.16-1.76.54-.1.06-.21.06-.36 0a.14.14 0 0 1-.07-.05l-.24-.35a.07.07 0 0 1 .01-.09c.6-.58 1.34-.87 2.21-.89 1.48-.03 2.14.94 2.15 2.28a1705.5 1705.5 0 0 1-.02 3.7c0 .02-.02.02-.03.02h-.58a.19.19 0 0 1-.11-.04.18.18 0 0 1-.06-.1l-.15-.69Zm-.1-1.87c-.75.02-2.8.1-2.6 1.3.1.73.93.75 1.5.6a2.37 2.37 0 0 0 1.11-.7l.04-.06v-1.12l-.03-.01-.01-.01h-.01ZM20.04 29.05c.01.65.18 1.17.52 1.57.57.68 1.65.7 2.43.35.17-.07.37-.17.6-.3a.24.24 0 0 1 .3.05l.29.35a.05.05 0 0 1 0 .07c-.23.23-.45.4-.67.5-1.14.52-2.6.54-3.58-.33-.7-.62-.95-1.58-.93-2.54a2.72 2.72 0 0 1 3.18-2.74c1.31.16 2.06 1.18 2.09 2.42 0 .12.03.3-.03.44a.19.19 0 0 1-.07.09.2.2 0 0 1-.1.02h-3.98l-.02.01-.01.01-.01.02v.01Zm.08-.68h3.18a.04.04 0 0 0 .03-.03v-.02c0-.83-.52-1.55-1.43-1.57-.97-.02-1.56.44-1.78 1.38l-.05.2.02.03h.03ZM46.84 31.24c.2-.33.33-.65.75-.4a1.92 1.92 0 0 0 1.86.3c.3-.12.5-.33.56-.64.12-.55-.26-.81-.71-.98-.32-.12-.88-.28-1.33-.46-.73-.3-1.11-.88-.96-1.68.2-1.06 1.34-1.47 2.35-1.37a2.49 2.49 0 0 1 1.53.66v.03a1.9 1.9 0 0 1-.11.19c-.13.18-.22.36-.47.23a9 9 0 0 0-.4-.2c-.5-.22-1.28-.27-1.72.15a.7.7 0 0 0-.23.51c0 .5.5.69.92.82.89.3 2.03.58 2.11 1.52.1 1.05-.52 1.78-1.54 2a3.06 3.06 0 0 1-2.61-.64v-.04ZM45.95 31.91l-.62-.01c-.12-.01-.2-.08-.23-.2a3.87 3.87 0 0 1-.1-.6.03.03 0 0 0-.03-.01h-.01c-.62.66-1.38 1.01-2.3.88-1.13-.15-1.65-1.07-1.65-2.11a366.47 366.47 0 0 1 .02-3.86H42v3.57c0 .66.16 1.3.82 1.53.45.15 1.04.05 1.46-.2.23-.14.44-.3.62-.5.03-.03.1-.12.1-.16V26s0-.01 0 0c-.01 0 0 0 0 0h.96l.03.01.01.03v5.82l-.01.03-.04.02Z" fill="#fff"/></svg>