<!-- by TradingView --><svg width="56" height="56" viewBox="0 0 56 56" xmlns="http://www.w3.org/2000/svg"><path fill="#F0F3FA" d="M0 0h56v56H0z"/><path fill-rule="evenodd" d="M4.11 31.44C4.78 29.32 8.7 17 27.92 16.1c4.31-.57 16.76 1.33 24.08 7.3-.88 5.2-7.01 15.6-24.55 15.6C16.35 39 7.19 34.16 4 31.75c.02-.02.05-.12.11-.31Zm41.5-7.6c-.55-.64-1.74-1.38-3.21-.41A5.32 5.32 0 0 0 39.33 20c-.33.95-.06 1.81.11 2.13-.05-.67.1-1.28.17-1.5 1.39.65 2.35 2.5 2.65 3.34 1.23-.93 2.23-.54 2.73-.11-.8.07-1.67.31-2.6.82.15 1.2-.12 3.84-2.3 4.77-.03-1.06.2-3.43 1.42-4.68a.13.13 0 0 0 .01-.18.14.14 0 0 0-.2 0A6.76 6.76 0 0 0 39.7 30c1.16-.25 3.41-1.61 3.16-5.05 1-.58 3.62-1.36 6.13.22a5.1 5.1 0 0 0-3.38-1.33Zm-8.42-1.95c0 .8.52 1.59.79 1.88 0-.13-.27-1.04-.4-1.48 1.05-.1 2.4.59 2.95.95a3.88 3.88 0 0 0-3.34-1.35Zm2.7 2.6c-.54-.4-2.06-1-3.89-.1.35.77 1.68 2.16 4.18 1.63-1.05-.07-3.23-.48-3.55-1.52.4-.17 1.63-.4 3.25 0ZM17 25.5a.5.5 0 1 1-1 0 .5.5 0 0 1 1 0Zm-1 5.01v-3.37c0-.07.06-.13.14-.13h.5c.08 0 .14.06.14.13v2.9c0 .38.22.41.33.37.1 0 .32.03.32.3 0 .26-.4.31-.6.3-.68 0-.84-.33-.83-.5Zm-5-4.14V31h2.22c.76.03 2.28-.53 2.28-2.97 0-1.01-.6-3.03-3.11-3.03-.3.02-.96.1-1.32.27a.12.12 0 0 0-.07.11v.35c0 .08.08.14.16.13.29-.06.76-.13 1.14-.13.59 0 2.32.16 2.32 2.3 0 2.14-1.67 2.26-2.23 2.26h-.51v-4.12a.12.12 0 0 0-.13-.12c-.2.02-.47.07-.7.2a.12.12 0 0 0-.05.1Zm6.8.64h-.67c-.09 0-.16.09-.12.17l1.49 3.59c.06.14.2.24.37.24h.27a.4.4 0 0 0 .37-.24l1.48-3.59c.04-.08-.03-.17-.12-.17h-.62c-.05 0-.1.03-.12.08L19 29.9l-1.08-2.8a.13.13 0 0 0-.13-.09Zm6.69 2.07c-.01.06-.07.1-.13.1h-2.5c0 .62.35 1.21 1.1 1.21.48 0 .83-.22 1.02-.4.06-.05.15-.06.21 0l.26.22c.05.05.06.12.01.17-.48.47-1.2.62-1.5.63-1.57 0-1.96-1.27-1.96-1.9 0-1.65 1.18-2.09 1.77-2.1 1.57 0 1.8 1.32 1.72 2.07Zm-.74-.57h-1.87c0-.28.18-.83.9-.83a.9.9 0 0 1 .97.83Zm10.6.67c.07 0 .13-.04.14-.1.08-.75-.15-2.07-1.72-2.07-.6.01-1.77.45-1.77 2.1 0 .63.4 1.9 1.95 1.9a2.53 2.53 0 0 0 1.51-.63c.05-.05.04-.12 0-.17l-.27-.23c-.06-.05-.15-.04-.2.01-.2.18-.55.4-1.04.4-.74 0-1.09-.6-1.09-1.2h2.5Zm-2.47-.67h1.87a.9.9 0 0 0-.96-.83c-.73 0-.9.55-.9.83Zm-6.71 2.38v-2.75a1.24 1.24 0 0 0-.43-.8c-.09-.06-.12-.16-.07-.25.03-.06.1-.1.17-.08.25.05.66.22.97.65a2 2 0 0 1 1.32-.6c.23 0 .67.07.67.3 0 .3-.25.4-.61.4s-1.19.13-1.19.97v2.16c0 .07-.05.12-.12.12h-.58c-.07 0-.13-.05-.13-.12Zm2.65-.89-.15.14c-.1.1-.1.27.03.35.39.27.9.52 1.66.52.9 0 1.64-.5 1.64-1.2 0-.68-.55-1.01-1.47-1.22-.9-.2-.9-.4-.9-.46 0-.05.02-.5.73-.5.38 0 .69.13.88.26.13.08.3.1.42 0 .05-.05.1-.1.16-.13.1-.1.1-.23-.02-.3a2.4 2.4 0 0 0-1.44-.45c-.83 0-1.54.55-1.54 1.12 0 .57.4 1.03 1.36 1.16.76.1.98.37 1 .5 0 .18-.17.54-.86.54-.47 0-.82-.17-1.05-.33-.13-.1-.34-.1-.45 0ZM37.87 27h-.61c-.06 0-.1.04-.12.09l-1 3.05-1.1-3.04a.13.13 0 0 0-.12-.09h-.57c-.09 0-.15.1-.11.18l1.51 4.08c-.24.66-.89.97-1.18 1.05h-.28a.25.25 0 0 0-.25.2l-.03.16c-.04.16.08.32.24.32h.14c1.12 0 1.75-.84 1.92-1.27L38 27.18c.03-.09-.03-.18-.12-.18Z" fill="#10059F"/></svg>