<!-- by TradingView --><svg width="56" height="56" viewBox="0 0 56 56" xmlns="http://www.w3.org/2000/svg"><path fill="#F0F3FA" d="M0 0h56v56H0z"/><path d="M21.06 43.34c-.1 1.64.62 1.76 1 1.61 1.2 0 1.57-1.07 1.61-1.61l.32-2.61c2-2.84 4.44-4.59 5.42-5.1l1.62.93h3.56l2.12-1.68v-1.12l1.3-1.3c1.1.16 3.92-.16 6.36-2.74 2.45-2.6 1.6-5.27.88-6.29 0-2.68-1.37-3.52-2.06-3.6l-1.37-.81c-.1-1.94-1.58-2.14-2.3-2-2.25-3.85-8.49-4.4-9.55-3.66-.85.6-2.76.25-3.61 0-1.55-.65-3.52-.27-4.3 0A5.99 5.99 0 0 0 18 15.1l-3.05 3.92c-3 1.59-3.25 5.06-3 6.59-1.4 1.7-.95 4.15-.56 5.16-.35 1.9 1.64 3.07 2.68 3.42.85 5.63 5.01 6.16 6.99 5.73.04.45.1 1.78 0 3.42Z" fill="url(#aer4jmm45)"/><path d="M25.33 13c-.52.21-1.2.56-1.48 1.24-.04.11-.08.24-.1.36l-.06-.06-1.45 1.44h-1.93a.58.58 0 0 1-.09-.3c0-.1.04-.2.12-.3.16-.2.45-.35.68-.42l-.16-.48c-.27.1-.67.28-.91.6a.98.98 0 0 0-.23.59c0 .23.08.47.26.71l.07.1h2.4l1.31-1.3.07.24c.14.42.45.87.97 1.34l.07.06h.1c.55 0 1.39.1 2.11.41.73.3 1.28.78 1.38 1.5v.05l1.6 2.97v3.03h.5v-3.16l-1.62-3c-.14-.95-.88-1.52-1.66-1.85a6.36 6.36 0 0 0-2.22-.44c-.43-.4-.66-.77-.76-1.07-.1-.32-.08-.6.02-.83.2-.5.74-.88 1.2-1.07l-.2-.36Zm6.65 0c-.49.26-1.17.64-1.63 1.24-.45.58-.72 1.33-.3 2.1-.04.29-.05.7.05 1.1.1.43.35.89.87 1.09.3.11.43.36.46.7.03.33-.05.7-.14.93l-.07.18 1.89 1.42c-.33.71-.73 1.75-.95 2.76-.12.56-.2 1.11-.17 1.6.02.32.07.62.18.88h-1.46c-.31-.34-.83-.8-1.46-1.11a3.4 3.4 0 0 0-2.01-.4l.74-3.83-.83-2.19-.46.18.78 2.06-.74 3.75-2.5-1.13v-.87l-1.34-2.75-.45.22 1.3 2.65v1.08l3.16 1.42.09-.02c.7-.2 1.4-.04 2.03.27.62.32 1.12.77 1.4 1.08l.07.1h2.07l2.25.99c.15.56.61 1.02 1.47 1.29 1.09.33 1.81.17 2.24-.29.33-.34.44-.8.45-1.2h1.44c.06.2.18.39.4.52a2 2 0 0 0 1.21.17h.05l1.37-.71-.24-.45-1.28.67c-.45.04-.7-.03-.85-.11-.13-.08-.2-.2-.2-.35-.01-.15.03-.34.11-.55.08-.19.18-.38.29-.53l2.1-1.88a4.1 4.1 0 0 1 1.95 2.52l.49-.12a4.58 4.58 0 0 0-2.33-2.9l-1.77-2.31-.39-2.07-.49.1.41 2.18 1.74 2.27-1.72 1.54-.43-3.05-2.62.3c.16-.12.33-.26.49-.42.51-.5.96-1.18.96-2.01v-2.16h1.82v-.5H39.5l-1.21-1.27h-.11c-.26.02-.61.14-.9.46-.1.1-.18.23-.26.38a2.2 2.2 0 0 0-.83-1.14v-2.77h-.5v2.49a3.46 3.46 0 0 0-.5-.21c-.3-.1-.66-.16-.97-.07a1 1 0 0 0-.65.56 2.1 2.1 0 0 0-1.47-1.04 3.56 3.56 0 0 0-1.67.15c-.21-.49-.06-.98.3-1.44.4-.52 1.02-.96 1.48-1.2l-.24-.35Zm-1.4 4.31c-.06-.29-.07-.6-.04-.83a3.1 3.1 0 0 1 1.48-.15c.4.08.7.27.92.52.23.26.38.59.47.93 0 .28.04.6.11.97l.5-.04c0-.3-.02-.64-.1-1 0-.2.02-.36.06-.49.08-.26.22-.37.38-.42.18-.05.42-.02.7.06.22.08.44.19.64.31v2.66l-2.27 1.55-1.61-1.22c.08-.28.14-.64.1-.98-.04-.44-.23-.9-.77-1.12-.3-.12-.48-.4-.56-.75Zm2.07 7.32c.23-1.02.64-2.09.97-2.78l1.01-.69 2.17 2.85v1.29h.5v-1.15l3.1-.35.41 2.93c-.1.17-.21.37-.3.58-.06.16-.1.32-.13.5h-1.94l.03.27c.03.35-.04.8-.3 1.08-.26.26-.75.46-1.74.15-.8-.25-1.09-.65-1.16-1.03-.06-.3 0-.61.12-.92.1-.27.25-.52.4-.72h3.33v-.5h-3.28l-.92-2.31-.46.18.92 2.34c-.17.23-.34.52-.46.83-.09.23-.15.49-.17.75l-1.98-.88a1.66 1.66 0 0 1-.28-.95c-.02-.43.04-.94.16-1.47Zm4.48-1.02-2.08-2.73 1.15-.79v-2.54c.13.15.24.35.33.56.16.4.24.81.27 1.07l.5-.02c0-.62.17-.98.36-1.19a.9.9 0 0 1 .45-.27l1.05 1.1v2.3c0 .65-.35 1.21-.81 1.67-.4.38-.87.67-1.22.84Zm-16.92-5.6-1.46-2.17-5.8 6.06.37.34 5.36-5.6 1.14 1.67-1.37 1.05.34 3.21V25l-.77-.45c.07-.36.11-.82.05-1.23a1.42 1.42 0 0 0-.28-.68.87.87 0 0 0-.7-.32.4.4 0 0 1-.22-.05.3.3 0 0 1-.11-.14 1.22 1.22 0 0 1-.01-.7 4.6 4.6 0 0 1 1.17-2.1l-.36-.34a5.1 5.1 0 0 0-1.3 2.33c-.08.36-.08.72.04 1a.8.8 0 0 0 .3.37c.15.09.31.13.5.13.15 0 .24.05.3.14.08.1.14.24.17.44.06.35.02.79-.05 1.12l-.88.53-2.82-1.88-.28.42 2.62 1.74-.62.37-2.58-2.08-.34 2.16-.39 5.17 2.43 3.39-.44.08.1.5a27.89 27.89 0 0 1 2.05-.35 5 5 0 0 1 3.68.58l1.19.87-1.26 1.64.4.3 1.38-1.8c.31-.2 1.3-.48 2.72.4L21.4 40.3l.38.32 3.14-3.81.57.25L22.42 41l.4.3 3.14-4.04.86.38.2-.46-1.85-.82.6-1.45h2.36v-.5h-2.59c-.77.17-1.5-.04-2.1-.38a4.49 4.49 0 0 1-1.33-1.13l-.4.3c.28.37.8.89 1.48 1.27.57.32 1.26.55 2.01.5l-.47 1.15c-1.44-.88-2.57-.75-3.13-.46l-1.28-.93a5.5 5.5 0 0 0-3.87-.69l-2.19-3.16 1.45-1.79-.38-.31-1.7 2.08 2.27 3.26-.7.1-2.46-3.42.37-4.97.2-1.3 1.77 1.44-.72.43 1.36 1.41.36-.34-.92-.97 2.58-1.54 1.05.6v3.35c-.37-.07-.71-.15-.99-.22l-.6-.14 2.6 4.22.22-.23c.27-.28.8-.6 1.47-.65.67-.05 1.5.17 2.43 1.04a3.49 3.49 0 0 0 3.9.93l.13-.06.43-2.9-.5-.07-.3 2.07-1.02-1.7-.43.26 1.22 2.03a2.99 2.99 0 0 1-3.06-.89l-.02-.02c-1-.96-1.98-1.25-2.81-1.2-.66.05-1.2.31-1.56.6l-1.63-2.67.73.14c.78.13 1.68.23 2.48.21.4 0 .8-.04 1.13-.13.34-.08.65-.2.88-.4l-.33-.38c-.15.13-.37.23-.66.3-.3.07-.65.1-1.03.11-.69.02-1.47-.06-2.18-.17v-3.02l2.55 2.22v-.55c0-.26.17-.54.56-.74.4-.2.96-.3 1.66-.2.49.07.98.5 1.41 1.1.36.48.64 1.03.82 1.46-.55.25-.94.68-1.2 1.14a4 4 0 0 0-.5 1.54l.5.04c.04-.36.17-.87.43-1.33a2.1 2.1 0 0 1 1.18-1.01c.27-.1.6-.13 1-.07.96.12 1.47.55 1.73 1 .27.48.3 1 .24 1.35l.48.11c.08-.26.27-.65.57-.98.3-.32.7-.56 1.2-.56s.8.23.97.52c.17.3.23.67.23.92l-.64 2.98h1.5l.82-1.68.34.42-1.53 2.72.43.25 1.7-3.02-1.05-1.3-1.02 2.1h-.57l.48-2.24 1.93-.6-.15-.47-1.76.54a2.25 2.25 0 0 0-.28-.87c-.26-.43-.7-.77-1.4-.77-.68 0-1.2.33-1.57.72l-.23.28a2.45 2.45 0 0 0-.26-.66c-.34-.6-1-1.11-2.1-1.26-.36-.05-.7-.03-.99.03-.2-.46-.5-1.06-.9-1.6-.44-.61-1.03-1.2-1.73-1.3-.79-.11-1.47 0-1.97.26-.33.17-.6.42-.73.72L19.3 25.3v-2.66l3.43-3.89c.59.08 1.78.65 2.26 2.61l.48-.11c-.53-2.2-1.92-2.92-2.72-3l-1.11-1.34L20.2 18Zm2.08.49-3.06 3.47-.25-2.38 2.57-1.98.74.89Zm-4.3 12.78-.38-1.93-.5.1.39 1.93.49-.1Zm-1.9-1.92-.44 2.56.5.08.43-2.56-.5-.08Zm16.33 3.15-.4-.3-1.44 2 1.15 1.52.4-.3-.93-1.24 1.22-1.68Z" fill="#21EAFF"/><circle cx="16.61" cy="28.49" fill="#21EAFF" r="1.65"/><circle cx="24.07" cy="28.73" fill="#21EAFF" r="1.41"/><circle cx="21.48" cy="28.15" fill="#21EAFF" r=".95"/><ellipse cx="25.75" cy="32.61" rx="1.35" ry="1.34" fill="#21EAFF"/><circle cx="26.82" cy="30.78" fill="#21EAFF" r="1.07"/><circle cx="28.16" cy="28.49" fill="#21EAFF" r="1.07"/><circle cx="26.03" cy="26.13" fill="#21EAFF" r="1.07"/><circle cx="18.26" cy="18.46" fill="#21EAFF" r="1.07"/><circle cx="28.58" cy="16.95" fill="#21EAFF" r="1.07"/><circle cx="31.02" cy="14.98" fill="#21EAFF" r="1.07"/><circle cx="30.56" cy="28.75" fill="#21EAFF" r="1.32"/><circle cx="32.91" cy="28.75" fill="#21EAFF" r="1.03"/><circle cx="17.64" cy="32.61" fill="#21EAFF" r="1.03"/><circle cx="21.02" cy="32.99" fill="#21EAFF" r="1.41"/><circle cx="25.38" cy="22.28" fill="#21EAFF" r="1.41"/><circle cx="23.09" cy="20.68" fill="#21EAFF" r="1.22"/><circle cx="20.83" cy="23.12" fill="#21EAFF" r="1.22"/><circle cx="26.64" cy="19.26" fill="#21EAFF" r="1.52"/><circle cx="29.04" cy="23.69" fill="#21EAFF" r="1.52"/><circle cx="30.56" cy="24.81" fill="#21EAFF" r="1.12"/><ellipse cx="33.78" cy="19.52" rx="1.39" ry="1.38" fill="#21EAFF"/><ellipse cx="37.55" cy="20.91" rx="1.39" ry="1.38" fill="#21EAFF"/><ellipse cx="34.55" cy="22.96" rx="1.39" ry="1.38" fill="#21EAFF"/><ellipse cx="43.62" cy="27.94" rx="1.39" ry="1.38" fill="#21EAFF"/><ellipse cx="28.5" cy="34.38" rx="1.39" ry="1.38" fill="#21EAFF"/><ellipse cx="35.5" cy="32.25" rx="1.39" ry="1.38" fill="#21EAFF"/><ellipse cx="38.94" cy="30.38" rx="1.39" ry="1.38" fill="#21EAFF"/><ellipse cx="39.94" cy="26.19" rx="1.39" ry="1.38" fill="#21EAFF"/><ellipse cx="42.94" cy="22.07" rx="1.39" ry="1.38" fill="#21EAFF"/><ellipse cx="33.78" cy="15.3" rx="1.39" ry="1.38" fill="#21EAFF"/><circle cx="25.24" cy="14.72" fill="#21EAFF" r="1.16"/><circle cx="22.8" cy="14.72" fill="#21EAFF" r="1.16"/><circle cx="14.7" cy="28.75" fill="#21EAFF" r="1.16"/><circle cx="14.73" cy="22.28" fill="#fff" r="1.14"/><ellipse cx="16.61" cy="28.49" rx=".84" ry=".83" fill="#fff"/><ellipse cx="21.03" cy="33.12" rx=".84" ry=".83" fill="#fff"/><circle cx="24.19" cy="28.77" fill="#fff" r=".69"/><circle cx="25.75" cy="32.64" fill="#fff" r=".69"/><circle cx="28.58" cy="34.4" fill="#fff" r=".96"/><circle cx="35.93" cy="32.49" fill="#fff" r=".96"/><circle cx="28.99" cy="23.69" fill="#fff" r=".96"/><ellipse cx="23.77" cy="25.45" rx="1.11" ry="1.1" fill="#fff"/><ellipse cx="22.59" cy="16.91" rx="1.11" ry="1.1" fill="#fff"/><circle cx="25.32" cy="14.72" fill="#fff" r=".71"/><ellipse cx="33.69" cy="15.3" rx=".87" ry=".86" fill="#fff"/><circle cx="34.81" cy="22.99" fill="#fff" r=".71"/><circle cx="34.55" cy="22.88" fill="#fff" r=".71"/><circle cx="37.59" cy="20.72" fill="#fff" r=".71"/><circle cx="39.94" cy="26.19" fill="#fff" r=".71"/><circle cx="42.92" cy="22.07" fill="#fff" r=".71"/><circle cx="43.64" cy="27.91" fill="#fff" r=".71"/><circle cx="25.4" cy="22.34" fill="#fff" r=".62"/><circle cx="26.49" cy="18.9" fill="#fff" r=".62"/><circle cx="23.03" cy="36.92" fill="#21EAFF" r="1.16"/><circle cx="19.91" cy="37.96" fill="#21EAFF" r="1.46"/><defs><linearGradient id="aer4jmm45" x1="35.05" y1="14.41" x2="28.53" y2="45.01" gradientUnits="userSpaceOnUse"><stop stop-color="#0031C5"/><stop offset=".33" stop-color="#0E9AF9"/><stop offset=".53" stop-color="#0C83F4"/><stop offset="1" stop-color="#001E7D"/></linearGradient></defs></svg>