<!-- by TradingView --><svg width="56" height="56" viewBox="0 0 56 56" xmlns="http://www.w3.org/2000/svg"><path fill="#002E52" d="M0 0h56v56H0z"/><path d="M32.52 9.82c.03.01.05.03.06.05l.02.06c0 .02 0 .05-.02.07a4.8 4.8 0 0 0-.68 4.2c.25.91.92 2.23 2 3.96l.43.7a12.42 12.42 0 0 1 1.6 3.7c.2.93.03 1.87-.52 2.8-1.32 2.24-3.72 2.7-7.22 1.4a.1.1 0 0 1-.04-.04.08.08 0 0 1-.02-.06l.02-.05a.1.1 0 0 1 .05-.02c1.45-.36 2.42-.84 2.93-1.45.45-.53.53-1.39.25-2.58a7.15 7.15 0 0 0-1.72-3.23h-.05a.08.08 0 0 0-.04.03l-.01.05c.05.48-.02 1-.23 1.54a2.28 2.28 0 0 1-2.1 1.56c-1.01.08-1.87-.24-2.57-.98a4.82 4.82 0 0 1-1.03-1.48.12.12 0 0 0-.13 0 7.93 7.93 0 0 0 .85 7.05 13.06 13.06 0 0 0 5.72 4.75c.03.01.05.03.06.06a.1.1 0 0 1 0 .07V32a.15.15 0 0 1-.08.08.17.17 0 0 1-.12 0 19.84 19.84 0 0 1-4.12-1.62 12.11 12.11 0 0 1-4.27-4.2 9.44 9.44 0 0 1-1.35-5.64c.1-1.46.68-2.7 1.73-3.73a7.66 7.66 0 0 1 3.95-1.97l.03.03v.05l-.02.03c-.57.4-1 .85-1.32 1.36-.5.81-.28 1.61.65 2.38.45.38.91.48 1.4.3.45-.17.77-.52.95-1.04.28-.8.24-1.84-.12-3.1a3.07 3.07 0 0 1-.15-1.38c.38-1.92 2.1-3.16 5.16-3.72h.07Zm2.05-.81.02.02v.04c-.3.6-.34 1.23-.14 1.88.51 1.69 1.55 3.56 3.1 5.6 1.74 2.27 2.55 4.27 2.44 6-.06.94-.52 1.8-1.39 2.59a7.03 7.03 0 0 1-2.77 1.51.12.12 0 0 1-.06-.04.11.11 0 0 1-.02-.07c0-.03.01-.05.03-.07 1.4-1.58 1.84-3.1 1.35-4.57-.21-.62-.63-1.5-1.27-2.64L33.7 15.4a5.78 5.78 0 0 1-.74-3.34A4.31 4.31 0 0 1 34.54 9h.03Z" fill="#A22531"/><path d="m19.1 29.92.03.03a8.32 8.32 0 0 0 3.7 4.28c1.34.79 2.74 1.27 4.2 1.44a8.1 8.1 0 0 0 4.44-.63l.03.02.01.04-.01.03c-.64.66-1.76 1.2-3.38 1.62-.19.05-.36.12-.52.22-.81.49-1.57 1.1-2.29 1.86a36.07 36.07 0 0 0-4.88 6.71.07.07 0 0 1-.05-.02l-.04-.04v-.01a24.64 24.64 0 0 1 5.57-8.79.08.08 0 0 0-.03-.08.1.1 0 0 0-.04-.02l-1.5-.27a.1.1 0 0 0-.06 0 .1.1 0 0 0-.04.05l-4.82 10.59-.02.03-.03.01a.1.1 0 0 1-.04 0 .1.1 0 0 1-.03 0l-.07-.02a.06.06 0 0 1-.04-.04v-.04l4.11-10.95a.11.11 0 0 0 0-.1.13.13 0 0 0-.08-.05 4.42 4.42 0 0 1-1.31-.72h-.04a.06.06 0 0 0-.02.03l-.01.03c.07 1.72-.15 3.48-.66 5.29a31.26 31.26 0 0 1-1.65 4.65h-.03l-.02-.01v-.02c1.39-4.28 1.67-8.13.86-11.55-.04-.14-.1-.27-.18-.39-.85-1.24-1.24-2.28-1.15-3.13 0-.02 0-.03.02-.04a.06.06 0 0 1 .07 0Zm1.41-2.64a.07.07 0 0 1 .03.07s0 .02-.02.03c-.15.14-.24.26-.29.34-.18.35.01.8.57 1.35.41.4.85.73 1.32.99 1.76.97 3.62 1.8 5.58 2.49 3.12 1.1 4.64.97 4.55-.37l.01-.03a.06.06 0 0 1 .07-.03l.03.02c.63.72.73 1.22.31 1.52-.34.25-.94.32-1.79.22-4.38-.53-8-2.07-10.88-4.62-.47-.41-.71-.83-.71-1.25 0-.49.39-.74 1.18-.74h.04Z" fill="#FEFFFF"/></svg>