<!-- by TradingView --><svg width="56" height="56" viewBox="0 0 56 56" xmlns="http://www.w3.org/2000/svg"><path fill="#F0F3FA" d="M0 0h56v56H0z"/><path d="M48.18 28.27 49.55 33h-2.83l-.49-2.45L44.87 33H42l3-4.7L43.7 24h2.75l.44 2.36L48.16 24H51l-2.82 4.27ZM39.5 31.68H38L37.58 33H35l3.51-9h3.05l.44 9h-2.5v-1.32Zm-.9-2.02h.94v-2.97h-.05l-.9 2.97ZM33.5 33h-2.51l.99-5.28h-.04L29.93 33h-1.64l-.17-5.28h-.05L27.3 33H25l1.5-9h3.04l.25 4.86h.05l1.8-4.86H35l-1.5 9Z"/><path d="M25 27.3c0 .73-.1 1.44-.27 2.13a6.4 6.4 0 0 1-.78 1.83c-.35.52-.77.94-1.28 1.27-.51.31-1.1.47-1.75.47-.92 0-1.64-.3-2.15-.9A3.63 3.63 0 0 1 18 29.7c0-.73.1-1.43.27-2.12.2-.68.47-1.3.82-1.83s.78-.95 1.3-1.27A3.22 3.22 0 0 1 22.1 24c.91 0 1.62.3 2.12.91.51.6.77 1.4.77 2.38Zm-2.25.19c0-.44-.07-.78-.21-1.04a.66.66 0 0 0-.64-.41.9.9 0 0 0-.7.36c-.2.24-.38.53-.52.9a6.82 6.82 0 0 0-.4 2.23c0 .42.06.76.18 1.02.13.27.34.4.64.4.27 0 .5-.12.7-.35.22-.24.4-.53.53-.88.14-.34.24-.72.3-1.12.08-.4.12-.77.12-1.11Z" fill="#007831"/><path d="M17.58 26.51a1.3 1.3 0 0 0-.35-.24c-.14-.07-.33-.1-.57-.1-.3 0-.58.1-.83.3-.24.21-.45.48-.62.8a4.78 4.78 0 0 0-.5 2.1c-.01.45.08.8.25 1.07.2.25.49.38.89.38.2 0 .38-.03.53-.09.16-.06.32-.14.47-.22l.72 1.87a4.36 4.36 0 0 1-2.26.62c-.59 0-1.08-.09-1.5-.26a2.88 2.88 0 0 1-1.04-.72c-.26-.3-.46-.66-.58-1.06a4.51 4.51 0 0 1-.19-1.32 6.55 6.55 0 0 1 1.25-3.83c.41-.54.9-.98 1.49-1.3.57-.34 1.23-.51 1.98-.51.6 0 1.08.07 1.43.2.35.13.64.28.85.45l-1.42 1.86ZM12 26.98a9.22 9.22 0 0 1-.25 2.1H7.39c-.03.2-.05.39-.05.53 0 .38.09.7.26.94.16.24.41.36.75.36.3 0 .55-.09.75-.27.21-.2.4-.42.54-.66l1.67 1.06c-.3.55-.72 1-1.27 1.39-.55.38-1.2.57-1.96.57-.98 0-1.74-.3-2.28-.88-.53-.6-.8-1.42-.8-2.48 0-.76.1-1.48.32-2.17.21-.68.5-1.28.87-1.8.38-.51.83-.92 1.34-1.21A3.2 3.2 0 0 1 9.19 24c.5 0 .93.08 1.29.23.35.15.64.36.87.63.22.27.38.58.48.95.11.36.17.75.17 1.17Zm-2.13-.03c0-.35-.06-.62-.2-.81-.12-.21-.32-.31-.58-.31a.89.89 0 0 0-.52.16c-.16.1-.3.25-.42.42a3.3 3.3 0 0 0-.3.56c-.08.2-.14.4-.17.6H9.8a3.95 3.95 0 0 0 .07-.62ZM7 22h5v1H7z" fill="#007831"/></svg>