<!-- by TradingView --><svg width="56" height="56" viewBox="0 0 56 56" xmlns="http://www.w3.org/2000/svg"><path fill="#F0F3FA" d="M0 0h56v56H0z"/><path d="M28 11h.02a542.47 542.47 0 0 1 17.97 19.37l-.01.02h-.01l-3.75-3.56a.03.03 0 0 0-.04 0l-1.03 1.02a.07.07 0 0 0 0 .1l3.45 3.86-.02.03-.02.01h-.02l-3.73-3.56a.04.04 0 0 0-.06 0l-1.02 1a.08.08 0 0 0 0 .1l3.44 3.87-.02.03h-.04l-3.74-3.55a.03.03 0 0 0-.03 0l-1.03 1.02a.07.07 0 0 0-.02.04c0 .02 0 .04.02.05l3.46 3.9-.01.02-.02.01h-.02l-3.77-3.58-.02-.01h-.01l-1.08 1.08a.05.05 0 0 0-.02.04.06.06 0 0 0 .01.03l3.51 3.85v.03l-.02.02-3.73-3.62-.03-.01-.03.01-1.1 1.1a.06.06 0 0 0-.03.04c0 .02 0 .03.02.05l3.5 3.84-.02.04h-.05l-3.67-3.64a.04.04 0 0 0-.06 0l-1.14 1.13a.04.04 0 0 0-.01.03v.02l3.53 3.87a.03.03 0 0 1 0 .04l-.01.02h-.01l-3.75-3.65h-.06l-1.14 1.14a.07.07 0 0 0-.02.05.07.07 0 0 0 .02.04l3.57 3.85v.01h-.02a.02.02 0 0 1-.02 0h-.02l-3.7-3.67a.05.05 0 0 0-.04-.02s-.02 0-.03.02l-1.18 1.17a.06.06 0 0 0 0 .08l3.56 3.83a.02.02 0 0 1 0 .01.02.02 0 0 1 0 .02.01.01 0 0 1 0 .02h-.01l-3.73-3.69a.06.06 0 0 0-.04-.01l-.04.01-1.18 1.18-.02.03.01.03 3.63 3.9a.01.01 0 0 1-.02.01.02.02 0 0 1-.02 0h-.01l-3.75-3.71a.04.04 0 0 0-.06 0l-1.2 1.18a.04.04 0 0 0 0 .03v.04l3.66 3.92V45a.01.01 0 0 1-.02 0l-.01-.01a.02.02 0 0 1-.03 0A586.9 586.9 0 0 1 28 41.23l-.03.01a586.9 586.9 0 0 1-3.8 3.75h-.02l-.01.01-.01-.01 3.66-3.93a.04.04 0 0 0 0-.04.04.04 0 0 0 0-.03l-1.2-1.18a.04.04 0 0 0-.06 0l-3.75 3.71a.02.02 0 0 1-.03 0h-.02v-.01l3.62-3.9.02-.03c0-.01 0-.02-.02-.03l-1.19-1.18a.05.05 0 0 0-.03-.01l-.04.01-3.72 3.7h-.02v-.03a.02.02 0 0 1 0-.04l3.56-3.82a.06.06 0 0 0 .02-.04l-.02-.04-1.18-1.17a.05.05 0 0 0-.04-.02c-.01 0-.02 0-.03.02l-3.7 3.66a.02.02 0 0 1-.02.01h-.04v-.02l3.57-3.84.02-.02a.07.07 0 0 0 0-.05l-.02-.02-1.14-1.14h-.06l-3.75 3.65h-.01l-.01-.02a.03.03 0 0 1 0-.04l3.52-3.86.01-.02a.04.04 0 0 0 0-.04l-1.15-1.13a.04.04 0 0 0-.06 0l-3.67 3.64h-.05l-.03-.04 3.51-3.85a.06.06 0 0 0 0-.09l-1.1-1.09-.04-.01h-.03l-3.73 3.63-.02-.02v-.03l3.5-3.85.02-.02a.05.05 0 0 0 0-.04l-.02-.01-1.08-1.08a.03.03 0 0 0-.03 0l-3.77 3.58h-.04l-.02-.02 3.47-3.9a.07.07 0 0 0 .02-.05c0-.01 0-.03-.02-.04l-1.03-1.02a.02.02 0 0 0-.03 0l-3.74 3.54-.02.01h-.02l-.02-.02v-.01l3.44-3.86a.08.08 0 0 0 0-.1l-1.02-1a.04.04 0 0 0-.06 0l-3.73 3.54h-.01a.02.02 0 0 1-.02 0l-.03-.02 3.45-3.88a.07.07 0 0 0 0-.1l-1.03-1.01a.03.03 0 0 0-.04 0l-3.75 3.56-.02-.02-.01-.02v-.02A542.56 542.56 0 0 1 28 11Zm.6 2.3a.04.04 0 0 0 0-.06l-.57-.6h-.05l-.57.6a.04.04 0 0 0 0 .05l.57.6a.04.04 0 0 0 .05 0l.58-.6Zm-2 .8c0-.01 0-.02-.02-.02 0 0-.02 0-.02.02l-.59.6v.05l.59.6a.03.03 0 0 0 .05 0l.58-.6.01-.03v-.02l-.6-.6Zm2.85 0-.02-.01-.03.01-.59.59v.05l.56.6.03.01h.02l.6-.6v-.05l-.57-.6Zm-.84 2.1a.05.05 0 0 0 0-.06l-.58-.58a.04.04 0 0 0-.06 0l-.57.6-.01.03v.03l.59.59.03.01.03-.01.57-.6Zm2.82.01a.04.04 0 0 0 0-.05l-.58-.6h-.01a.04.04 0 0 0-.03 0h-.01l-.58.6v.01a.04.04 0 0 0 0 .05l.58.6h.01a.04.04 0 0 0 .03 0h.01l.58-.6Zm-6.23-.64h-.02a.04.04 0 0 0-.03 0l-.58.6a.04.04 0 0 0-.01.03.04.04 0 0 0 0 .03l.59.6a.04.04 0 0 0 .02 0h.02l.6-.6a.04.04 0 0 0 0-.03.04.04 0 0 0 0-.02l-.59-.6ZM23.76 17h-.01a.03.03 0 0 0-.03 0h-.01l-.68.7h-.01a.04.04 0 0 0 0 .05l.64.66a.04.04 0 0 0 .02 0h.03l.68-.7a.04.04 0 0 0 0-.02.04.04 0 0 0 0-.03l-.63-.66Zm3.44.69a.05.05 0 0 0 0-.07l-.59-.6a.05.05 0 0 0-.06 0l-.58.6a.05.05 0 0 0 0 .07l.59.6.03.02.03-.02.58-.6Zm2.83 0a.05.05 0 0 0 0-.05v-.01l-.58-.6-.02-.01h-.02a.04.04 0 0 0-.03 0l-.58.61a.05.05 0 0 0 0 .05v.02l.59.6h.03a.04.04 0 0 0 .03 0l.58-.6Zm2.95.06a.03.03 0 0 0 0-.04l-.69-.7-.02-.02-.02.01-.64.66a.03.03 0 0 0 0 .04l.7.71a.03.03 0 0 0 .03 0l.64-.66Zm-10.56.61h-.02a.05.05 0 0 0-.03 0h-.02l-.75.78a.05.05 0 0 0 0 .07l.64.67a.05.05 0 0 0 .06 0h.01l.75-.78.02-.03c0-.01 0-.03-.02-.04l-.64-.67Zm11.22 0-.01-.01h-.02a.04.04 0 0 0-.03 0l-.65.68-.01.01a.04.04 0 0 0 0 .05l.76.78a.04.04 0 0 0 .03.02.04.04 0 0 0 .03-.02l.65-.67.01-.01a.04.04 0 0 0 0-.05l-.76-.78Zm-7.85.82a.06.06 0 0 0 .02-.04c0-.01 0-.03-.02-.04l-.6-.63a.06.06 0 0 0-.05-.01.05.05 0 0 0-.04.01l-.65.68a.06.06 0 0 0 0 .08l.61.63a.05.05 0 0 0 .04.01.05.05 0 0 0 .04-.01l.65-.68Zm2.83-.04a.05.05 0 0 0 0-.06l-.6-.6a.04.04 0 0 0-.06 0l-.59.61a.05.05 0 0 0 0 .06l.6.61a.04.04 0 0 0 .06 0l.6-.62Zm2.26-.68h-.01a.03.03 0 0 0-.04 0l-.63.65a.04.04 0 0 0 0 .05l.68.71a.04.04 0 0 0 .03.01h.02l.63-.66h.01a.04.04 0 0 0 0-.05l-.7-.7Zm-9.2 2.11a.04.04 0 0 0 0-.05l-.7-.73h-.06l-.76.79a.04.04 0 0 0 0 .03.04.04 0 0 0 0 .02l.7.73a.04.04 0 0 0 .06 0l.76-.79Zm2.17-.75a.05.05 0 0 0-.07 0l-.76.78-.02.04s0 .02.02.03l.64.67.04.01.03-.01.76-.79a.05.05 0 0 0 0-.07l-.64-.66Zm9.14.85.01-.03-.01-.04-.77-.78a.05.05 0 0 0-.07 0l-.64.67-.01.03.01.04.77.78.03.01.04-.01.64-.67Zm2.86-.04v-.01a.03.03 0 0 0 0-.03l-.78-.8v-.01h-.02a.03.03 0 0 0-.02 0l-.72.75a.03.03 0 0 0 0 .04l.78.8a.03.03 0 0 0 .03 0h.01l.72-.74Zm-8.62-.02.01-.03v-.02l-.65-.65a.03.03 0 0 0-.04 0l-.7.73-.02.03.01.02.64.65a.03.03 0 0 0 .05 0l.7-.73Zm2.92.06a.04.04 0 0 0 0-.03v-.01l-.7-.71a.03.03 0 0 0-.02-.01.03.03 0 0 0-.03 0l-.63.67a.04.04 0 0 0 0 .02v.02l.7.72a.03.03 0 0 0 .03 0h.02l.63-.67Zm-10.6.58a.03.03 0 0 0-.05 0l-.91.86a.04.04 0 0 0-.01.03v.02l.81.8a.03.03 0 0 0 .03 0 .03.03 0 0 0 .02 0l.86-.92v-.01a.03.03 0 0 0 0-.03v-.01l-.75-.74Zm17.83.91.01-.02a.04.04 0 0 0-.01-.03l-.86-.88a.04.04 0 0 0-.06 0l-.75.79a.04.04 0 0 0 0 .04v.01l.86.88a.04.04 0 0 0 .06 0l.75-.79Zm-14.28-.12a.05.05 0 0 0 0-.07l-.7-.72a.05.05 0 0 0-.06 0l-.76.8-.02.03c0 .01 0 .02.02.03l.69.72a.05.05 0 0 0 .06 0l.77-.8Zm2.16-.77a.04.04 0 0 0-.06 0l-.78.8-.01.03v.03l.67.68.02.02c.01 0 .02 0 .03-.02l.79-.8v-.06l-.66-.68Zm9.17.83v-.01a.04.04 0 0 0 0-.03v-.02l-.77-.78-.03-.02c-.01 0-.02 0-.03.02l-.7.73a.04.04 0 0 0 0 .05l.78.8h.05l.7-.74Zm-2.85.03a.04.04 0 0 0 0-.06l-.79-.81-.01-.01a.04.04 0 0 0-.03 0h-.01l-.66.7h-.01a.04.04 0 0 0 0 .05l.8.81.01.01h.04l.66-.7Zm-3.55-.77-.02-.01h-.03l-.73.75v.05l.73.75.02.01h.02l.73-.75v-.05l-.72-.75ZM18 24.44a.04.04 0 0 0 .06 0l.94-1.02c.01 0 .02-.02.01-.03v-.03l-.81-.8a.05.05 0 0 0-.06 0l-.98.97a.05.05 0 0 0 0 .07l.84.84Zm20.82-.85.01-.01a.04.04 0 0 0 0-.05l-.96-.98a.04.04 0 0 0-.03-.01h-.02l-.82.85a.04.04 0 0 0-.01.04v.01l.96 1h.02a.04.04 0 0 0 .03 0l.82-.85Zm-2.84.02v-.05l-.9-.9h-.05l-.74.8a.03.03 0 0 0 0 .04l.87.93.01.01a.03.03 0 0 0 .04 0l.77-.83Zm-14.27-.1a.04.04 0 0 0 0-.06l-.75-.77a.04.04 0 0 0-.06 0l-.86.89-.01.03v.03l.76.77.03.02s.02 0 .03-.02l.86-.88Zm2.82-.04a.03.03 0 0 0 0-.04l-.72-.74h-.04l-.8.82a.03.03 0 0 0 0 .04l.73.74.02.01h.02l.79-.83Zm2.16-.77a.03.03 0 0 0-.04 0l-.83.84v.04l.75.78.02.01h.02l.83-.84a.03.03 0 0 0 0-.04l-.75-.79Zm2.68 0a.03.03 0 0 0-.03 0l-.77.78v.04l.81.85.02.01h.02l.77-.78v-.04l-.82-.86Zm3.65.87a.05.05 0 0 0 0-.07l-.78-.8a.05.05 0 0 0-.07 0l-.7.72v.03l.01.03.78.8a.05.05 0 0 0 .06 0l.7-.71Zm-16.4 2.38a.04.04 0 0 0 .03 0h.01l.95-1.01a.04.04 0 0 0 0-.06l-.85-.91-.03-.01h-.02l-.99.98V25l.9.96Zm21.8-1.07c-.01 0-.02.01-.02.03l.01.03.91 1.02a.04.04 0 0 0 .07 0l.88-.96a.05.05 0 0 0 0-.06l-.96-.96a.04.04 0 0 0-.07 0l-.83.9Zm-18.8-.85a.04.04 0 0 0-.06 0l-.99.97a.04.04 0 0 0 0 .03.05.05 0 0 0 0 .03l.85.84a.04.04 0 0 0 .06 0l.94-1.01a.05.05 0 0 0 0-.07l-.8-.8ZM36.45 24a.05.05 0 0 0-.07 0l-.8.82c-.02 0-.02.02-.02.03l.01.04.96 1 .03.01.03-.01.81-.82a.05.05 0 0 0 0-.07l-.95-1Zm-8.43.05h-.04l-.85.87v.04l.84.87a.03.03 0 0 0 .04 0l.85-.86a.03.03 0 0 0 0-.04l-.84-.88Zm4.85.85-.01.03.01.02.86.93.02.01a.04.04 0 0 0 .04 0l.76-.83a.04.04 0 0 0 0-.05l-.9-.89h-.01a.04.04 0 0 0-.04 0l-.73.78Zm-10.68.96a.05.05 0 0 0 .04.02.05.05 0 0 0 .04-.02l.85-.92a.06.06 0 0 0 0-.08l-.74-.72a.05.05 0 0 0-.03-.01l-.04.01-.89.88a.06.06 0 0 0 0 .06v.02l.77.76Zm3.04-1.72a.04.04 0 0 0-.06 0l-.79.82a.04.04 0 0 0 0 .06l.79.8a.04.04 0 0 0 .06 0l.78-.8.02-.03c0-.02 0-.03-.02-.03l-.78-.82Zm5.58 0h-.02a.05.05 0 0 0-.04 0h-.01l-.77.8a.05.05 0 0 0 0 .07l.79.82a.05.05 0 0 0 .03.01.05.05 0 0 0 .04-.01l.77-.8a.05.05 0 0 0 0-.07l-.8-.82Zm-16.56 2.2a.04.04 0 0 0 0 .05l.98 1.05a.04.04 0 0 0 .02.01.04.04 0 0 0 .03 0l.94-1.01a.04.04 0 0 0 0-.06l-.92-.99h-.05l-1 .95Zm26.5-.94a.03.03 0 0 0-.03 0l-.97.95v.05l.93 1.04a.03.03 0 0 0 .02.01h.03l1.02-1.02a.03.03 0 0 0 .01-.03v-.02l-1-.98Zm-22.6.04a.03.03 0 0 0-.05 0l-1 .99a.03.03 0 0 0 0 .04l.93.93a.03.03 0 0 0 .04 0l.97-1.03a.03.03 0 0 0 0-.03.03.03 0 0 0 0-.02l-.9-.88Zm18.82.88a.04.04 0 0 0 0 .05l.93 1.05a.04.04 0 0 0 .03.01.04.04 0 0 0 .03-.01l.9-.97v-.01a.04.04 0 0 0 0-.03v-.01l-1-.98a.04.04 0 0 0-.05 0l-.84.9Zm-15.96-.87-.02-.01h-.02l-1 1.02v.05l.83.85a.03.03 0 0 0 .05 0l.99-1.01v-.05l-.83-.85ZM36 26.5a.04.04 0 0 0 .01-.05v-.01l-1-.99a.04.04 0 0 0-.06 0l-.78.84a.04.04 0 0 0 0 .06l.96 1.02.01.01h.02a.04.04 0 0 0 .03 0l.81-.88Zm-9.4-1a.03.03 0 0 0-.03-.01h-.02l-.85.87v.01a.03.03 0 0 0 0 .02v.01l.88.91a.03.03 0 0 0 .03 0l.85-.86a.03.03 0 0 0 .01-.02v-.02l-.88-.91Zm2.86 0-.02-.01-.03.01-.87.89v.05l.83.87h.05l.87-.89a.04.04 0 0 0 0-.05l-.83-.87Zm-4.82.98a.03.03 0 0 0 0-.05l-.84-.86a.03.03 0 0 0-.05 0l-.9.93v.01a.03.03 0 0 0 0 .04l.84.86.02.01h.02l.9-.94Zm6.74-.05v.04l.9.96a.03.03 0 0 0 .04 0l.84-.9v-.04l-.94-.93a.03.03 0 0 0-.04 0l-.8.87Zm-13.72 1.43a.04.04 0 0 0 0-.05l-.95-.94a.04.04 0 0 0-.05 0l-1.01.96-.01.02a.04.04 0 0 0 0 .03v.01l1.03 1.02a.04.04 0 0 0 .05 0l.94-1.05Zm21.67-1.02h-.01a.04.04 0 0 0-.04 0l-.93 1a.04.04 0 0 0 0 .06l.94 1.01.02.01a.04.04 0 0 0 .04 0l.96-1.04a.04.04 0 0 0 .02-.03.04.04 0 0 0-.02-.03l-.98-.98Zm-19.72.04-.01-.01a.05.05 0 0 0-.04 0l-.02.01-.98.97-.01.02a.05.05 0 0 0 0 .06l.88.93.01.01a.05.05 0 0 0 .04 0h.02l.94-1.02a.05.05 0 0 0 0-.08l-.83-.89Zm15.95.9a.04.04 0 0 0 0 .05l.95 1.06a.04.04 0 0 0 .02.01.03.03 0 0 0 .03 0l.9-.98a.04.04 0 0 0 0-.05l-1-1a.04.04 0 0 0-.05 0l-.85.91Zm-13.1-.88a.04.04 0 0 0-.06 0l-1 1.03a.04.04 0 0 0 0 .06l.89.9.02.02c.01 0 .02 0 .03-.02l1-1.02a.04.04 0 0 0 0-.06l-.89-.9Zm3.6 1.03a.04.04 0 0 0 0-.05l-.9-.93-.03-.02c-.01 0-.02 0-.03.02l-.91.94a.04.04 0 0 0 0 .06l.9.93a.04.04 0 0 0 .05 0l.92-.95Zm8.54.03a.03.03 0 0 0 0-.05l-1.02-1a.03.03 0 0 0-.04 0l-.85.91a.03.03 0 0 0 0 .05l.97 1.05a.03.03 0 0 0 .03 0h.02l.9-.96Zm-6.57-1a.05.05 0 0 0-.06 0l-.85.87a.05.05 0 0 0 0 .07l.85.88.03.01.03-.01.85-.88a.05.05 0 0 0 0-.07l-.85-.87Zm2.87-.02a.03.03 0 0 0-.02 0h-.02l-.92.94a.04.04 0 0 0-.01.04v.01l.92.95a.03.03 0 0 0 .02 0 .03.03 0 0 0 .03 0l.91-.94a.03.03 0 0 0 .01-.03.04.04 0 0 0 0-.02l-.92-.95Zm1.34 1.35a.04.04 0 0 0-.05 0l-.95.98a.04.04 0 0 0 0 .05l1.01 1.04.03.01h.03l.94-.98a.04.04 0 0 0 0-.06l-1-1.04Zm-15.17 1.02-.01.01a.03.03 0 0 0 0 .03l1.02 1.01a.03.03 0 0 0 .05 0l.97-1.04a.03.03 0 0 0 0-.04l-.98-.97-.02-.01h-.02l-1.01 1.01Zm6.73-1.02h-.04l-1.01 1.04a.03.03 0 0 0 0 .04l.96 1a.03.03 0 0 0 .04 0l1-1.05a.03.03 0 0 0 0-.04l-.95-.99Zm14.08 2.1a.03.03 0 0 0 .06 0l.99-1.06a.04.04 0 0 0 0-.03.04.04 0 0 0 0-.02l-1.03-.97-.02-.01-.03.01-.9.98a.04.04 0 0 0 0 .05l.93 1.06Zm-16.84-2.04-.04-.01h-.03l-1.02.98a.05.05 0 0 0-.02.03v.02l.02.02.94 1a.05.05 0 0 0 .03.02h.02l.02-.01.96-1.03a.05.05 0 0 0 0-.07l-.88-.95Zm15.03 1.05a.03.03 0 0 0 0-.02v-.02l-1.02-1.01a.03.03 0 0 0-.04 0l-.96.94a.03.03 0 0 0 0 .04l.98 1.05a.03.03 0 0 0 .04 0l1-.98Zm-9.48-1.02h-.05l-.95.98a.03.03 0 0 0 0 .05l.91.94.02.01h.03l.95-.99v-.02a.03.03 0 0 0 0-.02l-.91-.95Zm3.82 1.03a.04.04 0 0 0 0-.05l-.95-.97-.03-.01h-.02l-.9.95-.01.02v.03l.96.97.02.01h.03l.9-.95Zm3.29.32a.04.04 0 0 0-.06 0l-1 1.03-.01.03v.03l1 1.03.03.01h.03l1-1.04a.04.04 0 0 0 0-.06l-1-1.03Zm-10.34 1.1a.05.05 0 0 0 .01-.04v-.02l-.01-.02-1-1.02a.05.05 0 0 0-.02-.01h-.02l-.02.01-.98 1.03a.05.05 0 0 0-.01.05v.01l1 1.02a.05.05 0 0 0 .05.01h.01l.99-1.03Zm1.87-1.09a.03.03 0 0 0-.05 0l-1.03 1.06v.05l.95.99h.01a.03.03 0 0 0 .04 0l1.03-1.06.01-.02v-.03l-.96-.99Zm5.6.01a.05.05 0 0 0-.07 0l-.93.96a.05.05 0 0 0 0 .07l1 1.05a.05.05 0 0 0 .07 0l.94-.96.01-.04-.01-.03-1.01-1.05Zm6.67 1.09a.04.04 0 0 0 0-.06l-1-1.03a.04.04 0 0 0-.03-.01.04.04 0 0 0-.03 0l-1 1.04v.02a.04.04 0 0 0 0 .03v.01l1 1.03a.04.04 0 0 0 .05.01h.01l1-1.04Zm-16.96.01v-.04l-.97-1.05h-.05l-1.03.98v.01a.03.03 0 0 0 0 .04l1.03 1.1a.03.03 0 0 0 .05 0l.97-1.04Zm7.5-1.02-.02-.01h-.01a.03.03 0 0 0-.03 0L27 30.86a.04.04 0 0 0 0 .05l.98 1.02h.01a.03.03 0 0 0 .03 0l1-1.01v-.05l-.98-1.02Zm-6.06 2.47a.04.04 0 0 0 0-.05l-1.06-1.1a.04.04 0 0 0-.03 0h-.02l-1 1.05a.04.04 0 0 0 0 .05l1.05 1.1h.02a.04.04 0 0 0 .03 0l1.01-1.05Zm13.04 1.06.01.01a.04.04 0 0 0 .05 0l1.05-1.15a.04.04 0 0 0 0-.05l-1.01-1.01a.04.04 0 0 0-.06 0l-1.02 1.1a.04.04 0 0 0 0 .05l.98 1.05Zm-11.29-.04a.04.04 0 0 0 .03.01.04.04 0 0 0 .03-.01l1-1.07a.04.04 0 0 0 0-.03.04.04 0 0 0 0-.03l-1-.99-.03-.01-.03.01-1.04 1.03a.04.04 0 0 0 0 .03.04.04 0 0 0 0 .03l1.04 1.03Zm2.93-2.13a.03.03 0 0 0-.04 0l-1.07 1.09a.03.03 0 0 0 0 .02v.02l1.03 1.07a.03.03 0 0 0 .04 0l1.06-1.1a.03.03 0 0 0 .01-.02v-.02l-1.03-1.06Zm2.75.02-.02-.02a.06.06 0 0 0-.07.02l-.98 1a.06.06 0 0 0-.02.05.07.07 0 0 0 .02.05l1.01 1.05.02.02a.06.06 0 0 0 .07-.02l.99-1a.06.06 0 0 0 0-.1l-1.02-1.05Zm2.82 2.13.01.01a.04.04 0 0 0 .05 0l1-1.08a.04.04 0 0 0 0-.06l-1.05-1.03a.04.04 0 0 0-.06 0l-.95 1.03a.04.04 0 0 0 0 .05l1 1.08Zm-3.12.4a.04.04 0 0 0 0-.06l-1.08-1.11-.03-.02c-.02 0-.03 0-.03.02l-1.08 1.11a.04.04 0 0 0 0 .07l1.08 1.1.03.02.03-.01 1.08-1.12Zm4.5 1.1a.03.03 0 0 0 .03 0 .03.03 0 0 0 .03 0l1.06-1.15a.04.04 0 0 0 0-.05l-1.04-1.03a.03.03 0 0 0-.05 0l-1.03 1.1a.04.04 0 0 0 0 .05l1 1.08Zm-10.2-1.09a.03.03 0 0 0 0-.03v-.01l-1.07-1.1a.03.03 0 0 0-.02-.02.03.03 0 0 0-.03.01l-1.03 1.07v.01a.03.03 0 0 0 0 .03l1.07 1.11a.03.03 0 0 0 .03.01.03.03 0 0 0 .02 0l1.03-1.08Zm2.87.02v-.01a.04.04 0 0 0 0-.03v-.02l-1.06-1.09a.04.04 0 0 0-.05 0l-1.05 1.1a.04.04 0 0 0-.02.02v.02h.02l1.05 1.1a.04.04 0 0 0 .03.01h.01l.01-.01 1.06-1.1Zm4.52 1.1a.03.03 0 0 0 .05 0l1.04-1.13a.04.04 0 0 0 0-.04l-1.08-1.08a.04.04 0 0 0-.03 0h-.02l-1.04 1.12a.04.04 0 0 0-.01.03.04.04 0 0 0 0 .02l1.09 1.07Zm-3.09.35a.04.04 0 0 0 0-.06l-1.12-1.15a.04.04 0 0 0-.05 0l-1.09 1.12a.04.04 0 0 0 0 .05l1.12 1.16a.04.04 0 0 0 .06 0l1.08-1.12Zm1.77-1.2a.06.06 0 0 0-.09 0l-1.09 1.13a.06.06 0 0 0-.02.04v.02l.02.02 1.05 1.1a.06.06 0 0 0 .09 0l1.09-1.13a.06.06 0 0 0 0-.09l-1.05-1.09Zm-5.7.04a.04.04 0 0 0-.03-.02.04.04 0 0 0-.03.02l-1.05 1.08a.04.04 0 0 0 0 .04v.01l1.1 1.15a.04.04 0 0 0 .06 0l1.05-1.08.01-.01a.04.04 0 0 0 0-.03v-.02l-1.1-1.14Zm9.55 1.13a.04.04 0 0 0 0-.05l-1.05-1.1a.03.03 0 0 0-.05 0l-1.11 1.16a.04.04 0 0 0 0 .05l1.05 1.09a.03.03 0 0 0 .05 0l1.11-1.15Zm-5.3.26a.03.03 0 0 0-.05 0l-1.13 1.15v.05l1.12 1.17a.03.03 0 0 0 .05 0l1.13-1.16v-.04l-1.12-1.17Zm2.86 0a.03.03 0 0 0-.05 0l-1.16 1.2-.01.02v.02l1.1 1.13.02.01h.03l1.16-1.2a.03.03 0 0 0 0-.05l-1.09-1.13Zm-5.73 0-.01-.01h-.01a.03.03 0 0 0-.02 0l-1.1 1.14H24v.04l1.17 1.2a.03.03 0 0 0 .03.01l1.11-1.14a.03.03 0 0 0 0-.02v-.02l-1.16-1.2Zm2.6 2.68a.03.03 0 0 0 0-.02v-.02l-1.18-1.2a.03.03 0 0 0-.01-.01.03.03 0 0 0-.02 0l-1.14 1.18a.03.03 0 0 0 0 .04l1.17 1.2a.03.03 0 0 0 .02.01h.01l1.14-1.18Zm1.7-1.23c0-.01-.01-.02-.03-.02 0 0-.02 0-.03.02l-1.14 1.18a.05.05 0 0 0 0 .06l1.1 1.15.03.01.04-.01 1.14-1.18.02-.03c0-.02 0-.03-.02-.04l-1.1-1.14Zm-1.44 1.43a.03.03 0 0 0-.04 0l-1.17 1.2v.05l1.17 1.2a.03.03 0 0 0 .04 0l1.17-1.2a.03.03 0 0 0 0-.04l-1.17-1.2Z" fill="#E87C26"/></svg>