<!-- by TradingView --><svg width="56" height="56" viewBox="0 0 56 56" xmlns="http://www.w3.org/2000/svg"><path fill="#F0F3FA" d="M0 0h56v56H0z"/><path d="M16 23v2h-6v2h5v2h-5v2h6v2H8V23h8ZM17 23h2v10h-2zM34 26h2v7h-2zM47 27c.4-.53 1.05-1 2-1 2 0 3 1 3 2v5h-2v-4.5c0-.33-.2-1-1-1-.6 0-1.41.56-2 1.05V33h-2v-7h2v1ZM27 33h-2v-.34a3.5 3.5 0 1 1 0-6.33V26h2v7Zm-3.5-5.5c-.83 0-1.5.66-1.5 2 0 1.34.67 2 1.5 2s1.5-.63 1.5-2c0-1.38-.67-2-1.5-2ZM42 29.5c0-1.38-.67-2-1.5-2s-1.5.66-1.5 2c0 1.34.67 2 1.5 2V33a3.5 3.5 0 1 1 0-7 3.5 3.5 0 0 1 0 7v-1.5c.83 0 1.5-.63 1.5-2Z" fill="#1C94BC"/><circle cx="35" cy="24" r="1" fill="#1C94BC"/><path d="M29 26h-1v1.5h1V30c0 2.5 2 3 3 3 .6 0 .83-.33 1-.5V31c-.4.4-.83.5-1 .5-1 0-1-1-1-1.5v-2.5h2V26h-2v-2l-2 .5V26ZM8 18.2c0-.11.09-.2.2-.2h.6c.11 0 .2.09.2.2v2.6a.2.2 0 0 1-.2.2h-.6a.2.2 0 0 1-.2-.2v-2.6ZM4.91 19.98a.2.2 0 0 1 0-.28l.42-.42a.2.2 0 0 1 .29 0l1.84 1.83a.2.2 0 0 1 0 .29l-.43.42a.2.2 0 0 1-.28 0L4.9 19.98ZM7.6 25.77a.2.2 0 0 0 0-.29l-.42-.42a.2.2 0 0 0-.28 0L5.06 26.9a.2.2 0 0 0 0 .28l.42.42c.08.08.2.08.29 0l1.83-1.83ZM12.69 19.85a.2.2 0 0 0 0-.28l-.43-.43a.2.2 0 0 0-.28 0l-1.84 1.84a.2.2 0 0 0 0 .28l.43.43c.07.08.2.08.28 0l1.84-1.84ZM4.2 24a.2.2 0 0 1-.2-.2v-.6c0-.11.09-.2.2-.2h2.6c.11 0 .2.09.2.2v.6a.2.2 0 0 1-.2.2H4.2Z" fill="#1C94BC"/></svg>