<!-- by TradingView --><svg width="56" height="56" viewBox="0 0 56 56" xmlns="http://www.w3.org/2000/svg"><path fill="#F0F3FA" d="M0 0h56v56H0z"/><path d="M5 32v-8h6v1H7v2.5h4v1H7V31h4v1H5ZM45 32v-8h6v1h-4v2.5h4v1h-4V31h4v1h-6ZM12 32l1-8h2l2 6 2-6h2l1 8h-2l-1-7h1l-2.5 7h-1L14 25h1l-1 7h-2ZM30 32v-8h3.64c1.51 0 2.86.87 2.86 2.5 0 1.6-1.33 2.33-2.8 2.33l.14-.25h.46c.66 0 1.17.37 1.5 1.03L37 32h-2l-1.2-2.58c-.22-.52-.63-.42-1.1-.42H32v3h-2Zm2-4h1.34c.92 0 1.16-.76 1.16-1.5 0-.75-.25-1.5-1.16-1.5H32v3ZM41 32c-2.41 0-4-1.52-4-3.97 0-2.49 1.82-4.03 4.24-4.03a4 4 0 0 1 2.64.83l-.62.84a3.42 3.42 0 0 0-2.07-.67C39.58 25 39 26.36 39 28.03c0 1.64.36 2.97 2 2.97a5 5 0 0 0 1.7-.3l-.7.7V29h-1v-1h3v3.4c-.93.45-1.98.6-3 .6Z"/><path d="M23 24h4v2h-4v-2ZM23 27h5v2h-5v-2ZM23 30h6v2h-6v-2Z" fill="#215B5D"/></svg>