<!-- by TradingView --><svg width="56" height="56" viewBox="0 0 56 56" fill="none" xmlns="http://www.w3.org/2000/svg">
<rect width="56" height="56" fill="#F0F3FA"/>
<path d="M18.0008 17.1018C17.9405 12.0995 21.5935 8.94964 23.4275 8C23.156 10.0728 23.4275 11.8527 30.0744 17.3609C37.8009 23.7636 39 25.1641 39 31.2148C39 36.023 35.9823 40.3395 34.4097 41.8974C34.6222 41.0211 34.5372 36.5978 31.8596 33.8855C29.7174 31.7156 25.0693 28.156 23.013 26.6475C21.3674 25.5499 18.0611 22.104 18.0008 17.1018Z" fill="url(#paint0_linear_5071_142556)"/>
<path fill-rule="evenodd" clip-rule="evenodd" d="M23.4216 8.04553C22.4567 9.55274 20.9432 12.8903 21.3159 16.3525C21.7586 20.4648 24.9037 26.5159 28.0318 30.5243C26.1435 28.9914 24.1688 27.4954 23.013 26.6475C21.3674 25.5499 18.0611 22.104 18.0008 17.1018C17.9405 12.0995 21.5935 8.94964 23.4275 8C23.4255 8.01519 23.4236 8.03037 23.4216 8.04553Z" fill="url(#paint1_linear_5071_142556)"/>
<path fill-rule="evenodd" clip-rule="evenodd" d="M24.1644 11.4048C25.0318 12.7958 26.761 14.6151 30.0744 17.3609C36.7661 22.9061 38.5618 24.6993 38.9227 29.0108C37.3926 29.1317 35.6726 29.819 34.9236 30.1932C28.8182 24.2663 25.3246 15.5779 24.1644 11.4048Z" fill="url(#paint2_linear_5071_142556)"/>
<path fill-rule="evenodd" clip-rule="evenodd" d="M38.9196 28.9749C38.9777 29.6513 39 30.3898 39 31.2146C39 32.0469 38.9096 32.8645 38.7519 33.6556C37.4446 32.7184 35.6881 31.109 34.8334 30.2818C36.266 29.464 38.0393 29.0864 38.9196 28.9749Z" fill="url(#paint3_linear_5071_142556)"/>
<path fill-rule="evenodd" clip-rule="evenodd" d="M38.7536 33.647C38.0021 37.4298 35.7111 40.6082 34.4097 41.8974C34.6222 41.0211 34.5372 36.5979 31.8595 33.8855C31.8519 33.8778 31.8443 33.8701 31.8367 33.8624C32.1585 32.7167 33.0658 30.9607 34.9686 30.2375C35.4165 30.8146 36.7654 32.2508 38.7536 33.647Z" fill="url(#paint4_linear_5071_142556)"/>
<path d="M33.1515 40.3696C33.2251 44.6015 30.4805 48.5532 29.0989 50C30.0936 46.817 27.9936 43.5797 26.9345 42.4494C20.5332 38.0637 19.2898 34.8535 18.8754 31.5077C18.5438 28.8311 19.2898 25.8109 19.7043 24.6353C20.8021 26.6562 25.6707 30.149 26.9097 31.0378L26.9345 31.0556C28.1318 31.9147 33.0594 35.0796 33.1515 40.3696Z" fill="#D9D9D9"/>
<path d="M33.1515 40.3696C33.2251 44.6015 30.4805 48.5532 29.0989 50C30.0936 46.817 27.9936 43.5797 26.9345 42.4494C20.5332 38.0637 19.2898 34.8535 18.8754 31.5077C18.5438 28.8311 19.2898 25.8109 19.7043 24.6353C20.8021 26.6562 25.6707 30.149 26.9097 31.0378L26.9345 31.0556C28.1318 31.9147 33.0594 35.0796 33.1515 40.3696Z" fill="url(#paint5_linear_5071_142556)"/>
<path fill-rule="evenodd" clip-rule="evenodd" d="M29.2301 49.8595C30.6466 48.3099 33.2229 44.4714 33.1515 40.3696C33.0644 35.3665 28.6521 32.2642 27.1609 31.2157C27.0753 31.1556 26.9994 31.1022 26.9345 31.0556L26.9097 31.0378C26.806 30.9634 26.6769 30.8708 26.5266 30.7623C22.3516 29.2079 19.8244 29.6181 18.9674 30.1514C20.6406 31.4626 24.6871 35.2514 27.487 39.9174C30.0243 44.1457 29.7783 48.0249 29.2301 49.8595Z" fill="url(#paint6_linear_5071_142556)"/>
<path d="M26.9804 42.4042C25.7646 39.2935 21.9914 33.7232 20.2567 31.3269C21.7304 32.412 26.5198 37.2046 28.5001 41.952C30.0842 45.75 29.6514 48.7793 29.2369 49.8192C29.8632 46.8532 27.9935 43.64 26.9804 42.4042Z" fill="url(#paint7_linear_5071_142556)"/>
<defs>
<linearGradient id="paint0_linear_5071_142556" x1="23.2188" y1="22.78" x2="33.8595" y2="25.0264" gradientUnits="userSpaceOnUse">
<stop stop-color="#0A8595"/>
<stop offset="1" stop-color="#159FB1"/>
</linearGradient>
<linearGradient id="paint1_linear_5071_142556" x1="23.016" y1="8" x2="19.7041" y2="23.5186" gradientUnits="userSpaceOnUse">
<stop stop-color="#58B8BC"/>
<stop offset="1" stop-color="#047E91"/>
</linearGradient>
<linearGradient id="paint2_linear_5071_142556" x1="32.0188" y1="24.4444" x2="35.9557" y2="22.8895" gradientUnits="userSpaceOnUse">
<stop stop-color="#088394"/>
<stop offset="1" stop-color="#19A6B0"/>
</linearGradient>
<linearGradient id="paint3_linear_5071_142556" x1="36.9166" y1="28.9749" x2="36.9166" y2="32.5295" gradientUnits="userSpaceOnUse">
<stop stop-color="#068092"/>
<stop offset="1" stop-color="#159FB1"/>
</linearGradient>
<linearGradient id="paint4_linear_5071_142556" x1="35.295" y1="30.2375" x2="35.295" y2="41.8974" gradientUnits="userSpaceOnUse">
<stop stop-color="#058092"/>
<stop offset="1" stop-color="#96D3CC"/>
</linearGradient>
<linearGradient id="paint5_linear_5071_142556" x1="18.7927" y1="30.1665" x2="25.9638" y2="31.5284" gradientUnits="userSpaceOnUse">
<stop stop-color="#F35975"/>
<stop offset="1" stop-color="#F93449"/>
</linearGradient>
<linearGradient id="paint6_linear_5071_142556" x1="22.2533" y1="33.7591" x2="31.4868" y2="37.5572" gradientUnits="userSpaceOnUse">
<stop stop-color="#F93449"/>
<stop offset="1" stop-color="#EA5672"/>
</linearGradient>
<linearGradient id="paint7_linear_5071_142556" x1="23.7704" y1="35.5992" x2="28.8829" y2="46.0139" gradientUnits="userSpaceOnUse">
<stop stop-color="#EE4454"/>
<stop offset="1" stop-color="#F8A3AF"/>
</linearGradient>
</defs>
</svg>
