<!-- by TradingView --><svg width="56" height="56" viewBox="0 0 56 56" xmlns="http://www.w3.org/2000/svg"><path fill="#F0F3FA" d="M0 0h56v56H0z"/><path d="M7 31H4v-6h3v.62H4.63v1.76H7V28H4.63v2.38H7V31ZM11.37 31v-2.54c0-.64-.44-.95-1.2-.95-.87 0-1.54.5-1.54 1.43V31H8v-4h.59l.12.6h.03c.3-.38.86-.6 1.52-.6 1.16 0 1.74.43 1.74 1.44V31h-.63ZM14.3 30.4c.28 0 .55-.05.7-.09v.56c-.24.1-.54.13-.8.13-.98 0-1.2-.49-1.2-1.47v-2.85h-1v-.35l1-.3.32-1.03h.31v1.03h1.33v.65h-1.33v2.82c0 .58.17.9.68.9ZM17.26 31c-1.2 0-2.26-.67-2.26-1.97 0-1.21.87-2.03 2.08-2.03 1.04 0 1.92.64 1.92 1.74V29h-3.37c.03.95.72 1.49 1.66 1.49.5 0 1.01-.09 1.5-.26v.52c-.5.18-1 .25-1.53.25Zm-.2-3.51c-.75 0-1.35.43-1.43 1.14h2.74c0-.74-.56-1.14-1.3-1.14ZM21.58 27c.16 0 .3.01.42.04l-.07.55a1.6 1.6 0 0 0-.38-.05.89.89 0 0 0-.72.39c-.2.26-.2.58-.2.96V31H20v-4h.43l.06.8h.03c.13-.26.28-.45.46-.6.19-.13.39-.2.6-.2ZM25.01 31c-.51 0-1.07 0-1.38-.36V33H23v-6h.56l.07.63c.35-.44.88-.63 1.48-.63 1.25 0 1.89.83 1.89 2 0 1.16-.75 2-1.99 2Zm0-3.47c-.92 0-1.37.46-1.38 1.47 0 .92.3 1.48 1.3 1.48.9 0 1.44-.7 1.44-1.48 0-1.02-.55-1.47-1.36-1.47ZM29.58 27c.16 0 .3.01.42.04l-.07.55a1.6 1.6 0 0 0-.38-.05.89.89 0 0 0-.72.39c-.2.26-.2.58-.2.96V31H28v-4h.43l.06.8h.03c.13-.26.28-.45.46-.6.19-.13.39-.2.6-.2ZM31.2 31.03h-.63V27h.63v4.03Zm-.65-5.59c0-.15.04-.26.1-.33.08-.07.17-.11.28-.11.1 0 .2.04.27.1.08.08.12.2.12.34 0 .15-.04.26-.12.34a.37.37 0 0 1-.27.1c-.1 0-.2-.03-.27-.1-.07-.08-.11-.19-.11-.34ZM35 29.88c0 .72-.62 1.12-1.68 1.12-.56 0-1-.08-1.3-.24v-.55c.4.2.89.3 1.32.3.67 0 1.03-.18 1.03-.58 0-.47-.7-.65-1.04-.77-.56-.19-1.33-.43-1.33-1.14 0-.8.93-1.02 1.58-1.02.45 0 .9.08 1.33.25l-.23.48c-.42-.16-.8-.24-1.15-.24-.6 0-.9.18-.9.49 0 .49.75.64 1.09.76.55.18 1.28.44 1.28 1.14ZM38.26 31c-1.2 0-2.26-.67-2.26-1.97 0-1.21.87-2.03 2.08-2.03 1.04 0 1.92.64 1.92 1.74V29h-3.37c.03.93.37 1.5 1.66 1.49.5 0 1.01-.09 1.5-.26v.52c-.5.18-1 .25-1.53.25Zm-.2-3.51c-.63 0-1.35.46-1.43 1.14h2.74c0-.74-.56-1.14-1.3-1.14ZM46 29.5h-1V31h-.63v-1.5H42V29l2.35-4H45v4h1v.5Zm-1.63-.5c0-1.1-.06-2.2 0-3.3 0 0-1.15 2.21-1.76 3.3h1.76ZM46.51 30.5c0-.16.04-.29.13-.37.08-.09.2-.13.36-.13.16 0 .29.04.38.13.09.08.13.2.13.37 0 .16-.05.29-.14.37A.53.53 0 0 1 47 31a.53.53 0 0 1-.35-.12c-.1-.07-.14-.2-.14-.38ZM52 28c0 2.01-.65 3-2 3-1.3 0-2-1.04-2-3 0-2.03.65-3 2-3 1.3 0 2 1.05 2 3Zm-3.37 0c0 .9.13 2.43 1.36 2.43.92 0 1.38-.76 1.38-2.43 0-1.68-.46-2.43-1.38-2.43-1.23 0-1.36 1.52-1.36 2.43Z" fill="#0A2EEA"/></svg>