<!-- by TradingView --><svg width="56" height="56" viewBox="0 0 56 56" xmlns="http://www.w3.org/2000/svg"><path fill="#E5544F" d="M0 0h56v56H0z"/><path d="M41.35 30.38a6.3 6.3 0 0 1 2.73 5.26c0 1.9-.79 3.6-2.2 4.76a7.2 7.2 0 0 1-4.6 1.6c-3.48 0-6.34-1.64-8.26-4.74-.4-.64-.74-1.31-1.02-2.01-.27.67-.6 1.34-1.02 2.01A9.33 9.33 0 0 1 18.72 42a7.21 7.21 0 0 1-4.61-1.6 6.04 6.04 0 0 1-2.2-4.76c0-2.11 1.03-4.07 2.75-5.26a1.05 1.05 0 0 1 1.47.28c.34.5.22 1.16-.27 1.5a4.2 4.2 0 0 0-1.81 3.48c0 1.26.48 2.32 1.4 3.08a5.17 5.17 0 0 0 3.27 1.11c2.76 0 4.93-1.26 6.47-3.73a12.3 12.3 0 0 0 1.74-5.21c-4.83-.11-8.72-.81-11.58-2.11-2.44-1.1-5.35-3.24-5.35-7.16a6.4 6.4 0 0 1 2.16-4.9A7.24 7.24 0 0 1 16.9 15c4 0 7.3 2.08 9.55 6.02.63 1.1 1.14 2.26 1.54 3.46.4-1.17.9-2.34 1.54-3.46C31.8 17.08 35.1 15 39.1 15c1.8 0 3.5.62 4.74 1.73a6.4 6.4 0 0 1 2.16 4.9c0 3.91-2.9 6.06-5.35 7.16-2.85 1.3-6.74 2-11.58 2.11.1 1.15.54 3.26 1.74 5.21 1.54 2.47 3.7 3.73 6.47 3.73 1.23 0 2.42-.4 3.28-1.11a3.89 3.89 0 0 0 1.4-3.1 4.26 4.26 0 0 0-1.8-3.47 1.1 1.1 0 0 1-.28-1.5 1.06 1.06 0 0 1 1.47-.28Zm-9.98-8.27a18.9 18.9 0 0 0-2.2 6.62c4.45-.1 8.1-.76 10.63-1.91a8.13 8.13 0 0 0 3.1-2.26c.66-.86 1-1.82 1-2.94 0-2.92-2.42-4.46-4.8-4.46-1.71 0-3.26.47-4.62 1.41-1.2.84-2.24 2.03-3.1 3.54Zm-19.25-.48c0 1.11.32 2.08 1 2.94a8.17 8.17 0 0 0 3.07 2.26c2.54 1.15 6.2 1.8 10.63 1.91a18.61 18.61 0 0 0-2.18-6.63 10.85 10.85 0 0 0-3.1-3.54 7.9 7.9 0 0 0-4.63-1.41c-2.38 0-4.79 1.52-4.79 4.47Z" fill="#fff"/></svg>