<!-- by TradingView --><svg width="56" height="56" viewBox="0 0 56 56" xmlns="http://www.w3.org/2000/svg"><path fill="#F0F3FA" d="M0 0h56v56H0z"/><path d="M41.38 32.03c-.26.02-.49.08-.7.21a3.34 3.34 0 0 1-5.18-2.74 3.09 3.09 0 0 1 3.01-3.22c.77-.06 1.62.22 2.1.47.29.14.6.25.96.22a1.46 1.46 0 0 0 1.37-1.56 1.44 1.44 0 0 0-.63-1.07 6.79 6.79 0 0 0-4.05-.93A5.78 5.78 0 0 0 33 27.57V23.4c0-.93-1.02-1.4-2-1.4s-1.99.66-1.99 1.6v.95a5.02 5.02 0 0 0-.21-.5l-.08-.16a4.79 4.79 0 0 0-4.45-2.53 5.5 5.5 0 0 0-2.77.76s.01 0 0 0c-.31-.56-.92-1.12-1.63-1.12-1.02 0-1.87.8-1.87 1.78v3.4l.02.1a5.82 5.82 0 0 0-5.15-3.01h-.07c-3.2 0-5.8 2.49-5.8 5.56a5.65 5.65 0 0 0 3.96 5.27c1.32.43 2.8.38 4.1-.13.72-.3 1.23-.95.94-1.72a1.37 1.37 0 0 0-1.75-.78c-1.49.55-3.25.1-3.99-1.29-.04-.08.02-.18.14-.18h6.46c.45 0 .85-.25 1.16-.51l-.02.15v4.69c0 .92 1.04 1.67 2 1.67s2-.75 2-1.67v-4.16c.82.5 1.29.75 2.27.75A4.85 4.85 0 0 0 29 27.76v4.54c0 .94 1.01 1.7 1.99 1.7s2-.82 2-1.76v-.96c.9 2.7 3.28 4.6 6.33 4.35a6.8 6.8 0 0 0 3.02-.98c.43-.28.7-.78.64-1.31a1.48 1.48 0 0 0-1.61-1.31Zm-25.54-4.51c-.03.04-.1.12-.25.12l-5.12.01h-.02a.34.34 0 0 1-.3-.15.3.3 0 0 1 .01-.3A3.23 3.23 0 0 1 13 25.63c1.14 0 2.25.6 2.82 1.56.08.12.08.23.03.32ZM24 28c-1.34 0-2-.72-2-1.96s.63-2 1.97-2c1.34 0 2.03.72 2.03 1.96s-.66 2-2 2ZM30.6 20.96a2 2 0 0 0 2.36-1.56 1.96 1.96 0 0 0-1.56-2.36 2 2 0 0 0-2.36 1.56 2.02 2.02 0 0 0 1.55 2.36ZM45.5 32c.83 0 1.5-.75 1.5-1.69V21.7c0-.94-.67-1.69-1.5-1.69s-1.5.75-1.5 1.69v8.62c0 .93.67 1.69 1.5 1.69ZM45.8 33.03a1.5 1.5 0 0 0-1.77 1.17c-.17.82.33 1.6 1.17 1.77.8.17 1.6-.34 1.77-1.17.16-.78-.36-1.6-1.17-1.77Z" fill="#0A96E6"/></svg>