<!-- by TradingView --><svg width="56" height="56" viewBox="0 0 56 56" xmlns="http://www.w3.org/2000/svg"><path fill="#F0F3FA" d="M0 0h56v56H0z"/><path d="M38.86 34c-.29 0-.57-.1-.79-.3l-3.56-3.17a.75.75 0 0 0-1 0l-3.55 3.15c-.27.24-.64.36-1 .3A1.1 1.1 0 0 1 28 32.9V22h2v8.75l2.27-2.1a2.61 2.61 0 0 1 3.42 0l2.31 2.1V22h2v10.86A1.13 1.13 0 0 1 38.86 34ZM46.62 34l-5.73-5.75L46.77 22H50l-5.87 6.25L49.85 34h-3.23ZM19 34h-2v-6h5.55c.44.01 2.34-.38 2.34-1.88S23.67 24.1 22.71 24H17v-2h5.96c2.2 0 4.06 1.85 3.9 4.24-.2 2.78-2.72 3.83-4.38 3.76H19v4ZM8.84 24H15v-2H7.76C6.78 22 6 22.8 6 23.78v8.5c0 .95.76 1.72 1.69 1.72h7.3v-2H8.72c-.29 0-.72-.48-.72-.77V29h6v-2H8v-2.12c0-.35.48-.88.84-.88Z" fill="#E50000"/></svg>