<!-- by TradingView --><svg width="56" height="56" viewBox="0 0 56 56" xmlns="http://www.w3.org/2000/svg"><path fill="#F0F3FA" d="M0 0h56v56H0z"/><path d="M42.97 20.18v.02a.01.01 0 0 0 0 .01l4.07 1.47c.02 0 .03.02.04.03a.1.1 0 0 1 .03.1l-.28.74a.08.08 0 0 1-.05.05.09.09 0 0 1-.06 0l-4.86-1.76a.05.05 0 0 0-.05 0l-.02.03v.02l.78 3.7a.08.08 0 0 1-.03.09.1.1 0 0 1-.04 0l-.6.13a.08.08 0 0 1-.08-.04v-.02l-.7-3.31-.02-.02a.04.04 0 0 0-.04-.01c-.01 0-.02 0-.02.02l-2.11 3.53a.08.08 0 0 1-.1.03l-.58-.32a.2.2 0 0 1-.1-.12.19.19 0 0 1 .03-.14l1.97-3.3a.05.05 0 0 0 0-.06l-.03-.02h-.04l-2.58.83a.18.18 0 0 1-.2-.05.17.17 0 0 1-.03-.06l-.1-.29a.16.16 0 0 1 .05-.17.17.17 0 0 1 .06-.03l2.91-.94.02-.01v-.05l-.02-.02-3.14-1.13a.08.08 0 0 1-.04-.04.08.08 0 0 1 0-.06l.26-.7a.1.1 0 0 1 .1-.06.1.1 0 0 1 .03 0l3.2 1.16a.1.1 0 0 0 .09-.02.08.08 0 0 0 .03-.08l-.6-2.78c0-.04 0-.08.03-.11a.15.15 0 0 1 .1-.06l.4-.08a.17.17 0 0 1 .16.06l.03.06.52 2.46a.06.06 0 0 0 .05.05l.04-.01.03-.03 2.3-3.86h.01a.02.02 0 0 1 .02 0l.72.4a.08.08 0 0 1 .03.04.07.07 0 0 1 0 .06L42.1 19.6a.05.05 0 0 0 0 .06.05.05 0 0 0 .06.01l5.3-1.7a.1.1 0 0 1 .07 0 .1.1 0 0 1 .05.05 1.97 1.97 0 0 0 .4.52.03.03 0 0 1 0 .03h-.01l-5 1.61Z" fill="#602B7D"/><path d="m29.17 22.95-.15.05H29a.05.05 0 0 1-.03-.03l-.46-1.06-.02-.02a.06.06 0 0 0-.06 0l-.02.02-.37.81v.02a.05.05 0 0 1-.05 0h-.02l-.17-.09a.05.05 0 0 1-.03-.03v-.03l.39-.85v-.03l-.01-.03h-.06l-.95.29h-.04a.05.05 0 0 1-.02-.03l-.07-.15a.05.05 0 0 1 0-.03l.02-.02.02-.01.98-.3.02-.02a.05.05 0 0 0 0-.05l-.01-.02-.93-.5a.05.05 0 0 1-.02-.03v-.04l.1-.15v-.02h.03a.06.06 0 0 1 .04 0l.75.4.03.01.03-.01.02-.03v-.03l-.39-.87v-.03l.01-.02.02-.02h.03l.18.04h.02l.02.03.43.99.02.02a.06.06 0 0 0 .06 0l.02-.02.43-.97.02-.02a.05.05 0 0 1 .04-.01H29l.15.09.03.02v.04l-.4.86v.03l.01.03h.06l.63-.19h.03l.02.01.02.02V21l-.04.16-.01.03h-.02l-.58.19-.03.01-.01.03v.03l.03.02 1.07.58c.02 0 .02.02.03.03v.04l-.1.15-.04.02h-.03l-1.02-.55a.06.06 0 0 0-.06 0l-.02.03v.03l.47 1.09a.05.05 0 0 1 0 .04.05.05 0 0 1-.03.02ZM46.73 34c-.22 0-.41-.04-.59-.1a.92.92 0 0 1-.42-.35 1.2 1.2 0 0 1-.15-.65v-2.85c0-.3-.03-.59-.08-.86-.05-.28-.15-.51-.31-.69-.16-.18-.4-.27-.74-.27a2.84 2.84 0 0 0-1.14.26c-.17.09-.32.2-.43.33-.1.14-.16.3-.16.48h-.27c0-.23.08-.4.23-.54.16-.14.33-.2.52-.2.2 0 .38.06.54.18.16.13.25.3.25.53 0 .27-.09.46-.26.59a.88.88 0 0 1-1.07 0 .7.7 0 0 1-.22-.56c0-.21.06-.4.2-.55.12-.16.29-.3.5-.4.22-.12.46-.2.73-.26.27-.06.54-.09.82-.09.59 0 1.03.1 1.34.3.3.19.52.44.63.75.12.32.17.65.17 1v3.08c0 .14.03.26.08.36.05.1.15.14.3.14.11 0 .23-.04.37-.13.13-.1.24-.22.31-.37l.12.2c-.1.19-.27.35-.5.48-.21.13-.47.19-.77.19Zm-2.98 0a1.9 1.9 0 0 1-1.28-.41 1.44 1.44 0 0 1-.47-1.14c0-.56.24-1 .7-1.32a3.6 3.6 0 0 1 2.03-.48h1.41v.2h-1.3c-.35 0-.63.08-.84.24-.2.15-.36.34-.46.57-.1.22-.14.45-.14.67 0 .21.03.4.08.6a1 1 0 0 0 .28.45c.13.12.3.18.5.18.21 0 .42-.07.61-.21.2-.15.37-.36.5-.66.13-.3.2-.66.2-1.1h.13c0 .47-.07.9-.22 1.26s-.38.64-.67.85c-.28.2-.64.3-1.06.3ZM41 28v.24h-.72L38.16 34h-.34l-2.15-5.76H35V28h2.93v.24H37l1.46 4.27 1.56-4.27H39V28H41ZM32 34c-1.69 0-3-1.3-3-3s1.31-3 3-3c1.7 0 3 1.3 3 3s-1.3 3-3 3Zm0-.23c1.37 0 2-1.76 2-2.77 0-1.02-.63-2.77-2-2.77s-2 1.75-2 2.77.63 2.77 2 2.77ZM24.87 31.5c0-1 .29-2.55 1.13-3.21.24-.2.52-.29.84-.29.25 0 .46.05.63.15.17.1.3.23.4.4.08.15.13.33.13.5 0 .25-.07.45-.22.62a.74.74 0 0 1-.59.25.82.82 0 0 1-.6-.21.73.73 0 0 1-.21-.54c0-.26.08-.46.24-.6a.86.86 0 0 1 .57-.21c.15 0 .29.03.4.1.12.05.22.14.3.24.06.1.1.23.1.35h-.23a.71.71 0 0 0-.13-.4.84.84 0 0 0-.33-.3 1.1 1.1 0 0 0-1.19.14c-.77.63-1.11 2.07-1.11 3.01h-.13ZM25 28l.03 5.76h.98V34H23v-.24h1l-.03-5.52H23V28h2ZM21 28v5.76h1V34h-3v-.24h1v-5.52h-1V28h2ZM10 28.01v5.75h.84V34H8v-.24h1v-5.51H8V28h2Zm3.56 1.9v3.85h.83V34H11.6v-.24h.89v-3.7c0-.5-.03-1.7-.8-1.7-1.21 0-1.7 1.8-1.7 2.74l-.13.03c0-1.3.6-3.13 2.18-3.13 1.17 0 1.5.88 1.5 1.92Zm3.44 0v3.85h1V34h-2.85v-.24H16v-3.7c0-.52-.02-1.7-.8-1.7-.94 0-1.4 1.1-1.56 1.86-.05.32-.08.61-.08.88l-.15.03c0-.29.03-.61.09-.97.17-1.07.83-2.16 2.05-2.16 1.16 0 1.45.85 1.45 1.92Z" fill="#2B2928"/><circle cx="34" cy="24" r="2" fill="#26BCDE"/><path d="M21.5 25a1 1 0 1 1-2 0 1 1 0 0 1 2 0Z" fill="#2B2928"/></svg>