<!-- by TradingView --><svg width="56" height="56" viewBox="0 0 56 56" xmlns="http://www.w3.org/2000/svg"><path fill="#F0F3FA" d="M0 0h56v56H0z"/><path d="M28 12v5.85a10.22 10.22 0 0 1 9.39 6.26c.5 1.23.76 2.55.76 3.89H44c0-8.85-7.15-16-16-16Z" fill="#F4D036"/><path d="M28 12a16 16 0 0 0-16 16h5.85A10.07 10.07 0 0 1 28 17.85V12Z" fill="#E31E30"/><path d="M44 28h-5.85c0 2.59-.97 4.96-2.56 6.73l2.19 1.96 2.18 1.96A15.78 15.78 0 0 0 44 28" fill="#839794"/><path d="M17.85 28H12c0 4.07 1.56 7.8 4.04 10.65l4.37-3.88A10.22 10.22 0 0 1 17.85 28Z" fill="#5B6670"/><path d="M35.6 34.75a10.22 10.22 0 0 1-7.6 3.4V44a15.95 15.95 0 0 0 11.96-5.36l-2.18-1.96-2.19-1.93Z" fill="#8A4A51"/><path d="m20.4 34.75-4.36 3.88A16.04 16.04 0 0 0 28 44v-5.85a10.35 10.35 0 0 1-7.6-3.4" fill="#A3A983"/><path d="m28.64 27.16-.2-.07-.04-.04-.16-.1h-.48l-.16.1c-.12.08-1.58.84-4.6.84v1.16c2.7 0 4.37-.58 5-.87.64.3 2.26.87 5 .87V27.9c-1.63 0-2.78-.22-3.53-.44a5.55 5.55 0 0 1-.83-.29Zm.83-2.65c-.4-.11-.64-.22-.83-.3l-.2-.06-.04-.04-.16-.11h-.48l-.16.1c-.12.08-1.58.85-4.6.85v1.16c2.7 0 4.37-.58 5-.87.64.29 2.26.87 5 .87v-1.16c-1.63.03-2.78-.22-3.53-.44Zm-.83 5.6-.2-.07-.04-.04-.16-.1h-.48l-.16.1c-.12.07-1.58.84-4.6.84V32c2.7 0 4.37-.58 5-.87.64.29 2.26.87 5 .87v-1.16c-1.63 0-2.78-.22-3.53-.44a5.55 5.55 0 0 1-.83-.3Z" fill="#202944"/></svg>