<!-- by TradingView --><svg width="56" height="56" viewBox="0 0 56 56" xmlns="http://www.w3.org/2000/svg"><path fill="#009FC5" d="M0 0h56v56H0z"/><path d="M42.45 23.88c0 .08.15.17.33.17.2 0 .37.1.42.21.05.18.14.18.37-.01.15-.15.24-.29.2-.34-.19-.17-1.32-.21-1.32-.03ZM41.42 24.07c-.69.28-1.44.88-1.77 1.44-.33.53-.31.53.14 1.13.37.51.42.67.25.95-.28.46-.27.95.05 1.22.17.15.26.56.26 1.32 0 .75.09 1.16.26 1.32.21.17.26.16.26-.13 0-.19.35-.65.77-1.04.44-.38.88-.91 1-1.17.2-.44.16-.52-.63-1.27a4.33 4.33 0 0 0-1.03-.81l-.54-.06c-.25-.01-.35-.14-.33-.42 0-.2-.06-.39-.14-.39-.07 0-.14-.12-.14-.26 0-.35.49-.55.73-.3.12.12.28.07.5-.16.18-.17.65-.38 1.04-.44.54-.09.7-.2.7-.45 0-.29-.1-.34-.46-.27-.31.05-.42.02-.35-.16.1-.28 0-.3-.57-.05ZM45 24.7c-.07.16-.04.37.07.48.12.12.17.1.17-.04 0-.12.09-.2.18-.2.28 0 .19.49-.12.68-.25.12-.27.21-.1.4.17.22.13.3-.2.48-.54.3-.74 1.36-.33 1.81.15.18.5.32.8.32.49 0 .5.02.42.74-.05.42-.16 1.02-.21 1.32-.17.83.14.72.77-.23.61-.93.77-1.55.68-2.76-.05-.87-.28-1.13-1.24-1.43-.18-.05-.28-.18-.21-.26.05-.1.28-.07.56.07.26.14.5.2.54.17.2-.2-1.19-1.81-1.55-1.85-.07 0-.18.15-.23.3ZM18 23h3v11h1V23h3v-1h-7v1ZM27 34h1v-6h7v6h1V22h-1v5h-7v-5h-1v12Z" fill="#F0F3FA"/><path fill-rule="evenodd" d="M43 33a5 5 0 1 0 0-10 5 5 0 0 0 0 10Zm0 1a6 6 0 1 0 0-12 6 6 0 0 0 0 12Z" fill="#F0F3FA"/><path d="M17.05 30.94a5 5 0 0 1-6.67 1.32l6.24-7.08.91-1.11A5.99 5.99 0 0 0 7 28a6 6 0 0 0 10.93 3.42l-.88-.48Zm-.85-6.79-6.62 7.5A4.99 4.99 0 0 1 13 23c1.22 0 2.33.43 3.2 1.16ZM33 35v.31h-1.33V38h-.34v-2.69H30V35h3ZM36.4 37.31h-1.8l-.27.69H34l1.31-3h.38L37 38h-.33l-.28-.69Zm-.15-.31-.75-1.75-.75 1.75h1.5ZM38 38v-3h.4v2.69H41V38h-3ZM18.59 35.96a.93.93 0 0 0-.06-.36.4.4 0 0 0-.19-.2.92.92 0 0 0-.34-.08 6.03 6.03 0 0 0-.52-.02h-.96c-.19 0-.34 0-.47.02-.12 0-.23.02-.31.05a.42.42 0 0 0-.19.13.5.5 0 0 0-.1.2 21.67 21.67 0 0 0-.03 1.26c0 .13.01.24.04.33.02.09.05.16.09.22.04.05.1.09.19.12.08.03.19.05.31.06l.47.01h.96a6.68 6.68 0 0 0 .72-.05.6.6 0 0 0 .2-.09.36.36 0 0 0 .11-.13.57.57 0 0 0 .06-.19 2 2 0 0 0 .02-.26H19c0 .12 0 .23-.03.33a.78.78 0 0 1-.09.25.64.64 0 0 1-.17.2.95.95 0 0 1-.28.14 4.9 4.9 0 0 1-.94.1h-.97a4.2 4.2 0 0 1-.64-.04 1.53 1.53 0 0 1-.43-.12.7.7 0 0 1-.26-.2.84.84 0 0 1-.14-.3 1.82 1.82 0 0 1-.04-.38 15.24 15.24 0 0 1 0-.93c0-.13.02-.26.04-.37.03-.11.08-.21.14-.3a.7.7 0 0 1 .26-.2c.11-.05.25-.1.43-.12.17-.03.38-.04.64-.04h.96a4.94 4.94 0 0 1 .95.1c.11.04.2.08.28.13a.7.7 0 0 1 .27.43l.02.3h-.41ZM22.4 37.31h-1.8l-.27.69H20l1.31-3h.38L23 38h-.33l-.28-.69Zm-.15-.31-.75-1.75-.75 1.75h1.5ZM24 35h2c.17 0 .3 0 .42.03.12.01.21.04.28.07.08.03.14.07.18.12.04.05.07.1.08.17a6.23 6.23 0 0 1-.01 1 .48.48 0 0 1-.1.18.55.55 0 0 1-.21.14c-.1.03-.21.06-.35.08l-.51.02h-1.45V38H24v-3Zm.33 1.5h1.45a7.44 7.44 0 0 0 .62-.04.39.39 0 0 0 .15-.07.24.24 0 0 0 .08-.11 4.7 4.7 0 0 0 0-.78.21.21 0 0 0-.08-.1.41.41 0 0 0-.15-.05 9.9 9.9 0 0 0-.63-.03h-1.44v1.18ZM28.7 35h.3v3h-.3v-3ZM7 36.5h7v.5H7v-.5ZM42 36.5h7v.5h-7v-.5Z" fill="#F0F3FA"/></svg>