<!-- by TradingView --><svg width="56" height="56" viewBox="0 0 56 56" xmlns="http://www.w3.org/2000/svg"><path fill="#F0F3FA" d="M0 0h56v56H0z"/><path d="M6.96 33c-.93 0-2.16-.33-2.96-.86l.48-.88c.8.51 1.62.74 2.45.74C8.13 32 9 31.34 9 30.52c0-.78-.7-1.25-2.18-1.6-1.54-.37-2.46-1.01-2.46-2.5C4.36 24.9 5.55 24 7.13 24c1.12 0 2.05.35 2.71.75l-.5.88A4.26 4.26 0 0 0 7.18 25c-1.18 0-1.7.68-1.7 1.39 0 .85.62 1.21 1.79 1.5 1.79.45 2.75 1.05 2.74 2.58C10 32.23 8.5 33 6.96 33ZM13.5 24.01h1.06l1.94 3.67L18.56 24l.94.01L17 28.6V33h-1v-4.34l-2.5-4.65ZM25 33h-1v-9h1.09L28 31.51 30.93 24H32v9h-1v-6.6L28.35 33h-.84L25 26.48V33ZM37 24.09c.98-.03 1.66-.09 2.56-.09 1.58 0 2.94.6 2.94 2.35 0 .95-.38 1.5-.98 1.83v.04c.8.34 1.48.95 1.48 2.05 0 1.98-1.75 2.73-3.32 2.73-.9 0-1.69-.03-2.68-.06v-8.85ZM40.12 29H38v2.93c.59.03 1.18.07 1.75.07 1.28 0 2.25-.69 2.25-1.8 0-.9-.8-1.2-1.88-1.2ZM38 28h2.1c.99 0 1.42-.86 1.42-1.54 0-.84-.7-1.46-1.87-1.46-.55 0-1.1.01-1.65.05V28ZM47 33v-9h1v8h4v1h-5Z" fill="#98A2C8"/></svg>