<!-- by TradingView --><svg width="56" height="56" viewBox="0 0 56 56" xmlns="http://www.w3.org/2000/svg"><path fill="#F0F3FA" d="M0 0h56v56H0z"/><path d="M32.22 25c1.07 0 2.17.16 3.3.47 1.13.3 1.76.46 1.9.46.27 0 .54-.07.79-.22s.42-.39.52-.71h.62l.27 6.51h-.68a9.3 9.3 0 0 0-1.54-3.13A6.12 6.12 0 0 0 32.5 26c-4.89 0-7.5 4.96-7.5 9.18 0 4.35 3.05 8.5 7.77 8.5 2.62 0 4.8-1.17 6.68-2.91l.55.54A10.2 10.2 0 0 1 32.16 45C26.44 45 22 40.92 22 35.12A9.99 9.99 0 0 1 32.22 25Z" fill="#1BADAD"/><path d="M15 31.48c1.85-.2 2-.66 2-2.6V16.12c0-1.88-.16-2.45-2-2.58V13h15.41l.1 4.12h-.73C29.26 14.45 28 14 25.38 14h-4.45c-.42 0-.68.07-.79.21-.1.13-.14.38-.14.76V22h4.97c2.36 0 2.93-.77 3.35-3H29v7h-.68c-.43-2.22-.99-3-3.35-3H20v6.84c0 .57.18.9.54 1 .37.1 1.97.16 3.78.16 1.97 0 3.42-.21 4.35-.63.94-.43 1.78-1.73 2.52-3.37H32l-1.32 5H15v-.52Z" fill="#1BADAD"/></svg>