<!-- by TradingView --><svg width="56" height="56" viewBox="0 0 56 56" xmlns="http://www.w3.org/2000/svg"><path fill="#F0F3FA" d="M0 0h56v56H0z"/><path d="M8.52 25.72a.2.2 0 0 1-.1.1c-.33.17-.69.22-1.05.15a.68.68 0 0 1-.28-.12 7.48 7.48 0 0 1-.4-.33.36.36 0 0 1-.13-.23l-.13-1.02v-.01l-.02-.01a.03.03 0 0 0-.02 0c-.18.06-.37.1-.57.09-.03 0-.06-.01-.08-.03a5.46 5.46 0 0 0-.71-.92.11.11 0 0 1 0-.16l.15-.13.28-.4h.01c.47-.35.97-.3 1.55-.25.21 0 .44.05.67.13h.1c.03 0 .05-.02.08-.05.08-.09.18-.18.31-.27.23-.15.25-.43.31-.74a6.3 6.3 0 0 1 1.74-3.03c.3-.24.52-.48.86-.49.03 0 .06 0 .08.03a.1.1 0 0 1 .03.07c0 .13.02.26.05.37a556.65 556.65 0 0 0 .3 1.32c-.01.18-.05.38-.12.6a.72.72 0 0 1-.17.26 16.42 16.42 0 0 1-.65.66v.03l.02.02.03.01.53.06c.93.12.92 1.45.65 2.06-.16.36-.54.88-.94 1.03a1.8 1.8 0 0 1-.98.1c-.03 0-.12-.05-.27-.15-.2-.11-.34-.32-.54-.44a.14.14 0 0 0-.17.02l-.2.19a.22.22 0 0 0-.07.16c.02.44 0 .93-.15 1.32Z" fill="#698FB7"/><path d="M51 27.65h-3v1.75h2.02v.65H48v2.3h3V33h-4v-6h4v.65ZM43 32.35h3V33h-4v-6h1v5.35ZM37.89 33A2.91 2.91 0 0 1 35 30c0-1.66 1.2-3 2.89-3 .82 0 1.56.3 2.1.85l-.51.49c-.4-.45-.93-.68-1.6-.68-1.3 0-1.88 1.09-1.88 2.33s.57 2.35 1.89 2.35c.65 0 1.2-.23 1.6-.7l.51.5a2.9 2.9 0 0 1-2.11.86ZM33.1 33l-.7-1.64h-2.8L28.9 33H28l2.52-6h.97L34 33h-.9Zm-3.24-2.28h2.28L31 28l-1.14 2.72ZM18 27h1v6h-.9L15 28.5V33h-1v-6h.88l3.16 4.5L18 27ZM25 27h1v6h-.9L22 28.5V33h-1v-6h.88l3.16 4.5L25 27ZM11 33v-6h1v6h-1ZM6.8 27c1.11 0 2.2.5 2.2 1.75 0 1.28-1.07 1.89-2.2 1.89H6V33H5v-6h1.8Zm-.02 3c.8 0 1.22-.37 1.22-1.25 0-.72-.44-1.1-1.22-1.1H6V30h.78Z" fill="#262262"/></svg>