<!-- by TradingView --><svg xmlns="http://www.w3.org/2000/svg" width="56" height="56" viewBox="0 0 56 56"><path fill="#33533B" d="M0 0h56v56H0z"/><path fill-rule="evenodd" d="M28 13.52l.26-.24-.26.24zm12.73 18.63l.34-.14-.16-.34-.01-.02-.02-.04a10.43 10.43 0 0 0-.42-.78c-.29-.5-.7-1.2-1.24-1.93a12.24 12.24 0 0 0-3.44-3.33 12.15 12.15 0 0 0 1.95-4.79 20.89 20.89 0 0 0 .39-3.17v-.45l-.36.02h-.07a10.7 10.7 0 0 0-.83.08c-.56.06-1.32.18-2.18.39-1 .24-2.12.6-3.18 1.16-.36-1.1-.88-2.11-1.4-2.96a19.98 19.98 0 0 0-1.8-2.52l-.03-.04-.01-.01L28 13l-.26.27-.01.02-.03.03a10.81 10.81 0 0 0-.57.67c-.37.45-.86 1.1-1.34 1.86-.57.9-1.15 1.97-1.53 3.12-1-.51-2.07-.85-3.02-1.08a18.98 18.98 0 0 0-3-.47H18.17l-.37-.02v.45a11.96 11.96 0 0 0 .06.89c.05.58.15 1.39.34 2.29a12.2 12.2 0 0 0 1.92 4.76 12.38 12.38 0 0 0-3.35 3.27 20.4 20.4 0 0 0-1.66 2.71l-.02.05v.01l-.17.35.34.14h.02l.04.03a10.68 10.68 0 0 0 .8.29c.52.18 1.27.4 2.12.59 1.7.36 3.91.57 5.8-.13a5.87 5.87 0 0 0 3.52-3.42 6.78 6.78 0 0 0 .44-1.8v.04c.06.41.17.98.42 1.59a5.87 5.87 0 0 0 3.52 3.42c1.89.7 4.1.5 5.8.13a19.04 19.04 0 0 0 2.92-.88l.04-.02h.01zm0 0l-.13-.31.12.29v.02zM18.16 17.78l.02-.36-.02.36zm-.35 0h.35-.35zm9.94-4.5l.25.24-.25-.25zm3.14 5.88a13.94 13.94 0 0 0-1.37-2.94c-.4-.67-.8-1.24-1.13-1.66v7.2c.27-.5.63-1 1.1-1.48.42-.43.9-.8 1.4-1.12zm-2.5 5.14a5.33 5.33 0 0 1 1.59-3.52c.33-.34.7-.64 1.1-.9.13.53.2 1.07.2 1.6 0 1.28-.35 2.26-.83 3.01l-1.51 1.55c-.11.08-.22.15-.32.2-.1-.34-.2-.81-.23-1.36v-.58zm6.35.77a5.55 5.55 0 0 0-3.75-.13l6.38-6.55v.04c-.05.56-.14 1.34-.32 2.2a11.24 11.24 0 0 1-1.9 4.61 6.05 6.05 0 0 0-.4-.17zm-2.96-1.94l5-5.14c-.51.06-1.2.17-1.94.35-1 .25-2.13.61-3.13 1.16.16.65.26 1.32.26 1.98 0 .6-.07 1.15-.2 1.65zm-.56 4.86a5.58 5.58 0 0 0 4.1-1.87c1.33.75 2.48 2.02 3.34 3.2.52.71.92 1.38 1.2 1.87l.02.03L31.22 28zm3.44-2.2a4.88 4.88 0 0 1-3.96 1.47 5.9 5.9 0 0 1-1.6-.37c.27-.25.63-.54 1.08-.8a4.86 4.86 0 0 1 4.48-.3zm-5.96 2.03c.05.37.15.87.37 1.42a5.17 5.17 0 0 0 3.12 3.02l.03.01a6.5 6.5 0 0 0-.16-.76 5.2 5.2 0 0 0-3.36-3.7zm4.25 4.67c1.52.35 3.23.18 4.66-.13.74-.16 1.4-.35 1.9-.51l-8.09-3.03a6.3 6.3 0 0 1 1.3 2.5c.11.38.18.77.23 1.17zm-8.14-7.44l-6.25-6.42v.04c.05.57.15 1.35.32 2.21a11.3 11.3 0 0 0 1.87 4.57l.5-.22a5.57 5.57 0 0 1 3.56-.18zm-4.22 1.29c-1.3.76-2.4 2-3.25 3.15-.52.7-.92 1.38-1.2 1.86l-.02.04 8.46-3.16a5.59 5.59 0 0 1-3.99-1.89zm-2.2 6.2c-.74-.17-1.4-.36-1.9-.53l8.14-3.04a6.33 6.33 0 0 0-1.25 2.44c-.11.4-.18.8-.23 1.22-1.55.39-3.3.21-4.76-.1zm8.37-4.36l.06-.03.48-.18V28c-.05.37-.15.87-.37 1.42a5.16 5.16 0 0 1-3.05 3c.04-.28.1-.55.17-.8a5.2 5.2 0 0 1 2.7-3.43zm-.5-1.64l.58.59a5.67 5.67 0 0 1-1.6.37 4.88 4.88 0 0 1-4-1.5l.26-.1a4.86 4.86 0 0 1 4.76.64zm-2.44-5.06c0 .66.1 1.26.24 1.8l-4.9-5.05c.51.06 1.19.17 1.93.35.96.24 2.01.58 2.97 1.08-.15.6-.24 1.2-.24 1.82zm3.88.83v-7.9l-.03.04c-.35.43-.82 1.05-1.3 1.8-.57.9-1.13 1.95-1.48 3.06.56.34 1.1.74 1.56 1.21.57.59.97 1.2 1.25 1.8zm-3-2.3c.45.3.88.63 1.26 1.02a5.32 5.32 0 0 1 1.41 5.24 6.01 6.01 0 0 1-1.06-.74 5.16 5.16 0 0 1-1.8-4.05c0-.48.07-.97.18-1.46zM33.05 35h-2.7v.2c.22.01.39.06.49.14.1.08.15.2.15.37v4.58c0 .17-.05.3-.14.38-.1.08-.27.12-.5.13v.2h2.95v-.2c-.23-.01-.4-.05-.5-.13-.1-.09-.15-.21-.15-.38v-2.25h.14c.5 0 .84.34 1.01 1.03l.17.68.08.3.02.12c.17.6.64.83 1.35.83.4 0 .74-.15 1-.29v-.2c-.25 0-.59-.21-.67-.43a15.68 15.68 0 0 1-.29-1c-.11-.47-.32-.78-.6-.96-.3-.18-.7-.27-1.22-.27a3.68 3.68 0 0 0 1.53-.39c.41-.22.62-.54.62-.96 0-.34-.14-.62-.41-.86a2.4 2.4 0 0 0-1.02-.5c-.4-.1-.83-.14-1.31-.14zm-.34.43c.87 0 1.3.36 1.3 1.07 0 .38-.1.68-.34.89-.23.2-.55.31-.96.31h-.06v-2.27h.06zm-2.9 2.79a2.83 2.83 0 0 1-1.04 2.13c-.62.5-1.36.7-2.2.64a3.2 3.2 0 0 1-1.46-.48 2.9 2.9 0 0 1-1.35-2.73c.06-.9.4-1.6 1-2.11.61-.5 1.36-.73 2.25-.66.82.06 1.5.39 2.06.97s.8 1.33.75 2.24zm-1.77-.33a4.05 4.05 0 0 0-.56-1.77c-.3-.52-.65-.75-1.04-.7a.83.83 0 0 0-.57.31c-.15.19-.24.41-.28.68-.04.26-.07.54-.09.85-.01.3 0 .6.05.85.07.66.26 1.24.56 1.77.31.52.65.76 1.03.7.2-.04.36-.14.5-.32.13-.18.23-.4.29-.65a5.65 5.65 0 0 0 .1-1.72zm-4.29.87h-.35l-1.05 1.81h-1.64v-4.86c0-.17.06-.3.16-.37.1-.08.25-.13.47-.13V35h-2.83v.2c.23.01.4.06.48.14.1.08.14.2.14.37v4.58c0 .17-.05.3-.14.38-.1.08-.26.12-.48.13v.2h4.89l.35-2.24zm-8.44-3.33v2.31h.16c.28 0 .55-.09.82-.27.27-.19.45-.41.54-.67h.1v2.26h-.1c-.1-.26-.28-.48-.55-.66a1.42 1.42 0 0 0-.8-.28h-.17v2.17c0 .17.05.3.15.38.1.08.27.12.5.13v.2H13v-.2c.24-.01.4-.05.5-.13.1-.09.13-.21.13-.38V35.7c0-.17-.03-.3-.13-.37-.1-.08-.27-.13-.5-.13V35h4.87l.2 1.9h-.2l-1.1-1.47h-1.45zM43 40.8c-.4 0-.7-.27-.9-.8l-1.91-5h-.55l-1.8 4.99c-.08.23-.2.43-.36.58a.78.78 0 0 1-.56.23v.2h1.9v-.2c-.45-.04-.62-.25-.51-.63l.24-.7h1.54l.25.71c.05.13.08.22.09.3.01.06 0 .12-.05.16a.38.38 0 0 1-.15.09l-.3.07v.2H43v-.2zm-3.07-1.75H38.7l.61-1.76.63 1.76z" fill="#FDDC8D"/></svg>