<!-- by TradingView --><svg width="56" height="56" viewBox="0 0 56 56" xmlns="http://www.w3.org/2000/svg"><path fill="#F0F3FA" d="M0 0h56v56H0z"/><path d="M8 27c0-.5.14-1.21.59-1.83A2.85 2.85 0 0 1 11 24h7v2h-7c-.47 0-.67.17-.79.33-.15.21-.21.5-.21.67v1h6v2h-6v4H8v-7ZM30 34v-1.5l2-2V34h-2Z" fill="#1C4061"/><path d="M19 24v10h2v-6l3 2 3-2v6h2l13-12 1 1 1-4-4 .5 1 1.5-12 10.5V24l-5 4-5-4Z" fill="#8A99A8"/><path d="m32 28-2 1.5V24h2v4ZM36 28.5 34.5 30l3 4H40l-4-5.5ZM41 24l-2 2h3v8h2v-8h4v-2h-7Z" fill="#1C4061"/></svg>