<!-- by TradingView --><svg width="56" height="56" viewBox="0 0 56 56" fill="none" xmlns="http://www.w3.org/2000/svg">
<rect width="56" height="56" fill="#8263FF"/>
<path fill-rule="evenodd" clip-rule="evenodd" d="M44.5037 34C45.2963 34 46.0498 33.8324 46.7306 33.5306L47.1759 33.9976H50.0049L48.4329 32.3491C49.4053 31.3568 50.0049 29.9978 50.0049 28.4988C50.0049 25.4605 47.5419 22.9976 44.5037 22.9976C41.4655 22.9976 39.0025 25.4605 39.0025 28.4988C39.0025 31.537 41.4655 34 44.5037 34ZM47.0007 28.4976C47.0007 29.1799 46.811 29.809 46.4913 30.3131L46.1904 29.9976H43.3614L44.7749 31.4798C44.6852 31.4915 44.594 31.4976 44.5016 31.4976C43.1214 31.4976 42.0025 30.1544 42.0025 28.4976C42.0025 26.8407 43.1214 25.4976 44.5016 25.4976C45.8818 25.4976 47.0007 26.8407 47.0007 28.4976ZM8 23H6V34H9V30H12V27.5H9V25.5H13V23H9H8ZM14 34V23H17L19.99 28.3552L23 23H26V34H23V28.3552L20.7264 32H19.2736L17 28.3552V34H14ZM34.7281 33.5331C34.0473 33.8348 33.2939 34.0024 32.5012 34.0024C29.463 34.0024 27 31.5395 27 28.5012C27 25.463 29.463 23 32.5012 23C35.5395 23 38.0024 25.463 38.0024 28.5012C38.0024 30.0003 37.4029 31.3593 36.4304 32.3515L38.0025 34H35.1734L34.7281 33.5331ZM34.4888 30.3155C34.8085 29.8115 34.9983 29.1823 34.9983 28.5C34.9983 26.8431 33.8794 25.5 32.4991 25.5C31.1189 25.5 30 26.8431 30 28.5C30 30.1569 31.1189 31.5 32.4991 31.5C32.5915 31.5 32.6827 31.494 32.7724 31.4823L31.3589 30H34.188L34.4888 30.3155Z" fill="#E0B91B"/>
</svg>
