<!-- by TradingView --><svg width="56" height="56" viewBox="0 0 56 56" xmlns="http://www.w3.org/2000/svg"><path fill="#F0F3FA" d="M0 0h56v56H0z"/><path d="m41.43 23.56 2.57-.24-2.76-1.57.19 1.8Z" fill="#F06623"/><path d="m41.43 23.56.12 1.2L44 23.32l-2.57.24Z" fill="#F06623"/><path d="m42.33 24.3-.94 1.27-1.38 2.6.22-1.3.45-1.24.87-.87.78-.46Z" fill="#09539D"/><path d="m39.14 27.54-1.44-.68-2.27.62.82 3.02.87 1.1 2.89-3.44-.87-.62Z" fill="#3D80C1"/><path d="m35.43 27.48-1.15-1.81-4.87 1.03 5.17 1.98.85-1.2Z" fill="#1B2F5B"/><path d="m29.44 26.7-.16 2.9 1.42.55 3.88-1.47-5.14-1.98Z" fill="#09539D"/><path d="m33.78 24.89-.26-.84-3.03-3.69.4 1.3-2.52-2.31-1.46.14 1.26 4.82-2.65 1.56 3.92.83 4.84-1.03-.5-.78Z" fill="#3D80C1"/><path d="m29.44 26.7-4.83 4.54-.04.68-.07.95 4.78-3.26.16-2.91Z" fill="#1B2F5B"/><path d="m35.72 28.57-.3-1.09-.84 1.2-3.88 1.47-5.16 3.43-2.27 1.8 2.06-.15v-.02l1.19-.22 9.77-4.48-.57-1.94Z" fill="#F3CB29"/><path d="m40.1 23.66 1.32-.12-.18-1.8-1.57-.45-2.47.24-1.44.82-2.25 1.73.25.83 1.65 2.59 2.32-.61-1.93-2.52 3.46-.89a.85.85 0 0 1-.13-.24v-.17c0-.15.05-.29.13-.4a.69.69 0 0 1 .56-.27H40a.7.7 0 0 1 .47.4c.03.07.05.16.05.24 0 .13-.04.25-.1.35-.07.1-.17.2-.28.25" fill="#09539D"/><path d="M39.85 23.74c-.1 0-.2-.03-.28-.07a1.1 1.1 0 0 1-.28-.23l-3.51.93 1.93 2.55 1.46.7.84.58.28-1.33.09-1.2-.53-1.93Z" fill="#F3CB29"/><path d="m41.42 23.54-1.3.12c-.1.04-.2.07-.31.07l.54 1.93-.09 1.2.45-1.23.87-.88-.16-1.21Z" fill="#3D80C1"/><path d="M37.12 31.6s-1 6.68-12.73 8.04l3.05-2.06-1.09-1.07 1-1.94 8.94-4.07.83 1.1Z" fill="#09539D"/><path d="m16.51 15.24 1.45.62v-.84l-1.23-.74-.22.96ZM28.37 19.35 24 14.55l-.39 1.32-3.7-2.87.13 1.94 7.4 4.5.92-.09ZM26.38 36.53l1-1.94-.86.4-1.2.22-2.05.17-.68-.3-4.87 4.5.01.19-1.36 1.06.03.3-2.4 2.3.46-.05-.12.49.73-.33-.04.46 3.93-2.84.07-.04 2.8-1.02 2.56-.46 3.14-2.1-1.15-1Z" fill="#1B2F5B"/><path d="m30.7 30.15-1.42-.54-4.78 3.26-1.9 2.2.67.3 2.27-1.79 5.16-3.43ZM27.88 23.23l-.25-.99-12.4-3.21 1.32 2.39-.83-.13 2 3.02 11.23 1.27-1.07-2.35Z" fill="#3D80C1"/><path d="m27.19 20.54-.28-1.05.22-.01.33-.03-9.54-5.94-.3 1.33.34.18v.84l-2.24-.95.63 2.16-1.12-.36.77 2.51 11.62 3.03-.43-1.7Z" fill="#09539D"/><path d="M26.68 25.18 28.35 24H16.58l1.68 1.5h-.22l1.38 1.4-.62.11.9 1.24 6.61-2.21-.8-.17 1.17-.69Z" fill="#74AFDE"/><path d="m26.31 26.04-7.23 2.41 1.83.93-.59.29 1.95.98-.5.34 2.8.93.04-.68 4.83-4.54-3.13-.66Z" fill="#09539D"/><path d="M40.61 23.03c0 .14-.04.29-.13.4a.78.78 0 0 1-1.17.12.73.73 0 0 1-.16-.8.74.74 0 0 1 .28-.33.78.78 0 0 1 .96.1c.14.13.22.32.22.5Z" fill="#1B2F5B"/></svg>