<!-- by TradingView --><svg width="56" height="56" viewBox="0 0 56 56" xmlns="http://www.w3.org/2000/svg"><path fill="#F0F3FA" d="M0 0h56v56H0z"/><path d="M13 26h1v.95c.29-.59 1.03-.95 1.67-.95h.1l.23.02v.87a1.95 1.95 0 0 0-.34-.02c-.52 0-.92.13-1.2.4-.28.26-.46.57-.46.92V31h-1v-5ZM9.5 30.32c1.1 0 1.5-.91 1.5-1.91 0-1.13-.48-1.72-1.5-1.72-1.07 0-1.5.9-1.5 1.88 0 .98.47 1.75 1.5 1.75ZM9.52 26c1.42 0 2.47.95 2.47 2.38C12 29.95 10.98 31 9.41 31A2.3 2.3 0 0 1 7 28.59C7 27.09 8.02 26 9.53 26ZM5 24.26c.03-.86.47-1.26 1.27-1.26.11 0 .62 0 .73.02l-.5.82c-.1-.01-.08-.03-.18-.03-.32 0-.31.19-.31 2.19H7v.7H6V31H5v-4.3H4V26h1v-1.74Z"/><path d="M18 26h-1v3a2 2 0 0 0 4 0v-3h-1v3.5a1 1 0 1 1-2 0V26Z" fill="#6D3290"/><path d="M49.35 29.3c.03.72.4 1.4 1.18 1.4.62 0 1.14-.33 1.14-1.02 0-.46-.2-.76-.62-.92a3.6 3.6 0 0 0-.63-.18c-.73-.16-1.29-.54-1.29-1.35 0-.8.62-1.23 1.37-1.23.9 0 1.39.66 1.39 1.52h-.3c0-.66-.37-1.21-1.1-1.21-.55 0-1.03.3-1.03.92 0 .73.62.88 1.2 1.05.2.04.36.1.53.15.56.2.81.68.81 1.25 0 .85-.67 1.32-1.47 1.32-.98 0-1.51-.79-1.53-1.7h.35ZM48 26.12v4.72c0 1.25-.65 2.16-1.97 2.16-.99 0-1.76-.51-1.8-1.55h.33c.08.9.78 1.23 1.47 1.23 1.04 0 1.63-.75 1.63-1.75v-1.15h-.02c-.32.73-.87 1.22-1.66 1.22-1.37 0-1.98-1.3-1.98-2.5 0-1.18.65-2.5 1.98-2.5.74 0 1.41.45 1.66 1.15h.02v-1.03H48Zm-2.02.2c-1.12 0-1.64 1.2-1.64 2.18 0 1 .49 2.18 1.64 2.18s1.67-1.18 1.67-2.18c0-1-.53-2.18-1.67-2.18ZM39 26.11h.37v1.05h.02c.07-.18.16-.35.28-.49.12-.14.26-.26.42-.37a2.24 2.24 0 0 1 1.11-.3c.3 0 .55.03.75.1.2.07.38.17.5.28.14.11.24.24.31.39.08.14.14.28.17.43a7.31 7.31 0 0 1 .07.78V31h-.37v-3.09l-.03-.46a1.28 1.28 0 0 0-.61-.96 1.48 1.48 0 0 0-.8-.18c-.29 0-.54.05-.76.16-.23.1-.42.24-.58.42-.15.18-.27.4-.36.65-.08.25-.12.52-.12.82V31H39v-4.89ZM38 24.88V24h.34v.88H38ZM38 31v-5.28h.34V31H38ZM36.67 29.82h-.02c-.37.78-.9 1.18-1.72 1.18-1.4 0-1.93-1.38-1.93-2.58 0-1.22.58-2.42 2-2.42.75 0 1.43.5 1.65 1.22h.02V24H37v6.88h-.33v-1.06Zm-1.67.86c1.18 0 1.66-1.27 1.66-2.26 0-1.01-.48-2.1-1.66-2.1-1.23 0-1.67 1.07-1.67 2.1s.47 2.26 1.67 2.26ZM32.34 25v6H32v-6h.34ZM27 28.5c0-.34.04-.66.13-.96.09-.3.22-.57.39-.8A1.82 1.82 0 0 1 29 26a1.82 1.82 0 0 1 1.48.74c.17.23.3.5.38.8a3.37 3.37 0 0 1 0 1.92c-.08.31-.2.58-.38.8-.17.23-.38.4-.62.54-.25.13-.54.2-.86.2-.32 0-.6-.07-.86-.2a1.97 1.97 0 0 1-.62-.53c-.17-.23-.3-.5-.4-.8-.08-.3-.12-.63-.12-.97Zm.32 0c0 .29.04.56.11.83.08.26.18.49.32.7.15.2.32.36.53.49.2.11.45.17.72.17a1.44 1.44 0 0 0 1.25-.67c.14-.2.24-.43.32-.7a3.1 3.1 0 0 0 0-1.64c-.08-.26-.18-.5-.32-.7-.15-.2-.32-.37-.53-.49-.2-.12-.45-.18-.72-.18-.27 0-.51.06-.72.18-.2.12-.38.28-.53.49-.14.2-.24.44-.32.7a3 3 0 0 0-.1.82ZM22.37 24v3.2h.02c.27-.76 1.04-1.2 1.81-1.2 1.26 0 1.8.91 1.8 2.04V31h-.37v-3.03c0-.88-.45-1.65-1.44-1.65-.8 0-1.45.5-1.7 1.27-.08.25-.12.38-.12.68V31H22v-7h.37Z"/></svg>