<!-- by TradingView --><svg width="56" height="56" viewBox="0 0 56 56" xmlns="http://www.w3.org/2000/svg"><path fill="#F0F3FA" d="M0 0h56v56H0z"/><path d="M23.99 30.95c2.78-.8 6.25 2.05 8.45 5.21.6.86 1.13 1.77 1.64 2.7a495.02 495.02 0 0 1-4.05 5.02c-1.89 2.26-4.28.46-4.48.16-.22-.32-4.75-6.14-8.56-11.03 2.48-.34 4.65-1.39 7-2.06Zm17.35-12c1.45 1.81 2.9 3.68 2.92 3.71 0 0 1.67 1.77 0 3.64-.93 1.04-4.64 5.66-8.08 9.95-.34-.58-.7-1.15-1.08-1.7-1.82-2.62-4.45-5.16-7.35-6.2 1.23-.97 2.4-2.02 3.53-3.04a46.29 46.29 0 0 1 4.54-3.77 16.92 16.92 0 0 1 5.52-2.58Zm-22.77 1.68c4.03-.27 8.54.6 9.54 3.16l.09.18a35.22 35.22 0 0 1-4.1 3.27 18.33 18.33 0 0 1-9.27 3l-3.07-3.94s-1.44-1.69-.36-3.32c.27-.4.65-.9 1.08-1.43l.1-.02c2.07-.4 4.03-.77 6-.9Zm16.55-5.62c.04 0 2.75-.2 4.13 1.4l.02.03c-1.89.62-3.74 1.6-5.34 2.71a37.37 37.37 0 0 0-3.32 2.66c-2.15-3.49-7.6-4.45-12.26-4.14-.92.06-1.83.17-2.74.3l1.85-1.96c.02-.02.65-.99 2.68-1h14.98Z" fill="#144C8B"/></svg>