<!-- by TradingView --><svg width="56" height="56" viewBox="0 0 56 56" xmlns="http://www.w3.org/2000/svg"><path fill="#F0F3FA" d="M0 0h56v56H0z"/><path d="M44 35v-7h4v1h-3v2h3v1h-3v2h3v1h-4ZM38 35v-7h4v1h-3v2h3v1h-3v3h-1ZM36 28v7h-1v-7h1ZM30 35v-7h1v6h3v1h-4ZM19 29v-1h5v1h-2v6h-1v-6h-2ZM14 35v-7h4v1h-3v2h3v1h-3v2h3v1h-4ZM8 35v-7h2.58c1.38 0 2.42.9 2.42 2.32s-1.05 2.31-2.44 2.31h-1.7V31.6h1.53c.78 0 1.61-.47 1.61-1.27S11.16 29 10.39 29H9v6H8ZM36 20v-1h5v1h-2v6h-1v-6h-2ZM33.78 21c-.06-.57-.53-.96-1.23-.96-.25 0-.46.04-.64.12a.94.94 0 0 0-.4.32.8.8 0 0 0-.05.82c.06.1.15.2.26.26.1.08.23.14.36.18.13.05.26.1.4.13l.6.16c.25.06.49.14.71.24.23.1.44.23.62.38A1.7 1.7 0 0 1 35 24c0 .4-.1.75-.3 1.05-.19.3-.47.54-.84.7-.37.18-.81.26-1.33.26-1.32 0-2.47-.58-2.52-2h1.16c.05.72.68.95 1.35.95.26 0 .48-.04.67-.12.2-.08.35-.2.46-.34a.84.84 0 0 0 .17-.51.67.67 0 0 0-.15-.44 1.1 1.1 0 0 0-.41-.3 3.84 3.84 0 0 0-.61-.2l-.74-.2a2.94 2.94 0 0 1-1.27-.66c-.31-.3-.47-.69-.47-1.17 0-.4.1-.76.31-1.06.21-.3.5-.53.86-.7.36-.17.77-.25 1.22-.25 1.17 0 2.33.74 2.35 2h-1.13ZM24 26v-7h2.45c1.35 0 2.31.87 2.31 2.24 0 1.38-.98 2.2-2.32 2.2h-1.75v-1.06h1.59c.74 0 1.27-.36 1.27-1.14 0-.78-.53-1.24-1.28-1.24H25v6h-1Zm3.38-3.17L29 26h-1l-1.6-3.17h.98ZM22 19v7h-1v-7h1ZM15 26v-7h4v1h-3v2h3v1.03h-3V26h-1Z"/></svg>