<!-- by TradingView --><svg width="56" height="56" viewBox="0 0 56 56" xmlns="http://www.w3.org/2000/svg"><path fill="#F0F3FA" d="M0 0h56v56H0z"/><path d="M22 32V22h3.54c2.32 0 3.46.96 3.46 2.97 0 1.94-1.12 3.03-3.27 3.03h-1.72L24 32h-2Zm2-5.63h1.27c1.27 0 1.73-.33 1.73-1.4 0-1.09-.45-1.42-1.73-1.42H24v2.82ZM14 32V22h2v8h4v2h-6ZM10.65 32l-.1-1.18c-.64.8-1.5 1.18-2.68 1.18C5.48 32 4 30.13 4 26.88 4 23.78 5.58 22 8.2 22c1.82 0 3.07.87 3.58 2.46l-1.73.41c-.41-.9-1.01-1.35-1.89-1.35C6.71 23.52 6 24.7 6 27c0 2.23.74 3.4 2.1 3.4 1.08 0 1.85-.62 2.02-1.87H8V27h4v5h-1.35Z" fill="#575757"/><path d="M40.52 22c6.06 0 11.03 4.4 11.48 10h-.8c-.47-4.84-5.07-8.64-10.68-8.64-5.61 0-10.22 3.8-10.7 8.64h-.79c.46-5.6 5.42-10 11.49-10Z" fill="#80B618"/><path d="M42 27.6c3.07 0 5.57 1.94 5.8 4.4h-.49c-.33-1.98-2.58-3.5-5.3-3.5-2.73 0-4.98 1.52-5.31 3.5h-.5c.24-2.46 2.74-4.4 5.8-4.4Z" fill="#0E6145"/><path d="M38.71 25.48c5.13 0 9.34 2.88 9.72 6.52h-.98c-.4-2.97-4.16-5.3-8.74-5.3-4.57 0-8.33 2.33-8.73 5.3H29c.38-3.64 4.59-6.52 9.71-6.52Z" fill="#058E3E"/><path d="M42.7 22.9c4.9 0 8.93 4.02 9.3 9.1h-.64a8.67 8.67 0 0 0-8.67-7.85A8.67 8.67 0 0 0 34.03 32h-.64c.37-5.09 4.39-9.1 9.3-9.1Z" fill="#0E6145"/></svg>