<!-- by TradingView --><svg width="56" height="56" fill="none" xmlns="http://www.w3.org/2000/svg"><path fill="#F0F3FA" d="M0 0h56v56H0z"/><path fill-rule="evenodd" clip-rule="evenodd" d="M22.343 11h12.534l-12.08 16.504 5.261 7.775 5.215-7.78-2.734-3.746 6.672-9.373L46 27.51 33.565 45l-5.503-7.94-5.451 7.939L10 27.495 22.343 11zm5.103 25.17l-5.533-8.168H11.62l10.966 15.246 4.86-7.077zM11.629 27h10.29L32.9 12.01H22.853L11.629 27zm17.045 9.168l4.906 7.079L44.4 28.002H34.154l-5.48 8.166zM34.152 27h10.295L37.18 16.168l-5.404 7.592L34.152 27z" fill="#000"/></svg>