<!-- by TradingView --><svg width="56" height="56" viewBox="0 0 56 56" xmlns="http://www.w3.org/2000/svg"><path fill="#F36A26" d="M0 0h56v56H0z"/><path d="M21.73 16c3.73.06 6.84 1.48 9.32 4.29.21.24.45.2.72-.1a12.12 12.12 0 0 1 11.32-4 .5.5 0 0 1 .21.1.22.22 0 0 1 .09.2.22.22 0 0 1-.15.17c-.18.07-.52.17-1.03.3-2.4.6-4.38 1.97-5.95 4.12a11.25 11.25 0 0 0-2.2 6 11.56 11.56 0 0 0 8.4 11.87c.2.05.52.1.98.16l.42.06c.04 0 .06.02.09.04a.16.16 0 0 1 .04.17.16.16 0 0 1-.05.07c-.25.19-.57.3-.95.36-4.47.62-8.2-.71-11.16-3.98-.29-.32-.55-.35-.79-.1a12.28 12.28 0 0 1-10.12 4.25 5.46 5.46 0 0 1-1.54-.3.17.17 0 0 1-.05-.05.16.16 0 0 1 0-.08c0-.02 0-.05.02-.07.03-.05.12-.1.26-.13 2.97-.67 5.29-2.2 6.96-4.58.3-.42.39-.92.28-1.51a1.86 1.86 0 0 0-1.3-1.51 1.92 1.92 0 0 0-1.99.35c-.08.07-.27.29-.58.66a7.19 7.19 0 0 1-5.42 2.76 7 7 0 0 1-5.55-2.3 7.02 7.02 0 0 1-1.99-4.48 7.12 7.12 0 0 1 1.33-4.75 6.89 6.89 0 0 1 5.31-3.05 7.29 7.29 0 0 1 6.28 2.65c.4.52.7.82.91.93.76.38 1.45.38 2.1 0a2.08 2.08 0 0 0 .89-2.42 3.6 3.6 0 0 0-.73-1.13 11.59 11.59 0 0 0-7.62-4.12.19.19 0 0 1-.02-.36c.92-.35 2-.5 3.26-.49ZM19 26c-1.11 0-2.01.87-2.01 1.94v.12c0 1.07.9 1.94 2.01 1.94h8.98c1.11 0 2.01-.87 2.01-1.94v-.12c0-1.07-.9-1.94-2.01-1.94h-8.98Z" fill="#fff"/></svg>