<!-- by TradingView --><svg width="56" height="56" viewBox="0 0 56 56" xmlns="http://www.w3.org/2000/svg"><path fill="#F0F3FA" d="M0 0h56v56H0z"/><path d="m29.82 18.04 4.55-3.95a.12.12 0 0 1 .09-.03c.03 0 .06.01.08.03l3.23 3.38.01.03a.05.05 0 0 1-.01.05l-.03.01-1.25.2h-.01v.02c.04.05.17.07.37.07a69.66 69.66 0 0 1 2.9.16.2.2 0 0 1 .06.05L44 23.35v.03h-.03l-7.7-5.13a.03.03 0 0 0-.03 0l-.01.02v.02l.83 2.95a.03.03 0 0 1-.01.04.03.03 0 0 1-.04 0l-3.47-3.64a.09.09 0 0 0-.12-.01l-7.04 5.45a.03.03 0 0 1-.04 0v-.04l2.59-6.16a.26.26 0 0 0-.01-.22l-.32-.62a.08.08 0 0 0-.06-.04.07.07 0 0 0-.07.03l-2.08 2.69-.01.01h-.02l-.02-.01v-1.79l-.02-.02a.02.02 0 0 0-.02.01l-4.86 6.28-.02.02h-.03l-.03-.01v-.03l-.3-1.98v-.02l-.02-.02a.05.05 0 0 0-.04 0l-3.43 1.95a.03.03 0 0 1-.03 0 .03.03 0 0 1 0-.04l1.2-2.57a.04.04 0 0 0 0-.04.03.03 0 0 0-.04 0l-5.58 2.95-.01-.01v-.01l5.39-4.42a.15.15 0 0 1 .15-.02l2.79 1.17a.02.02 0 0 0 .02 0v-.02l-.75-.64-.01-.01v-.04l.02-.02 1.9-.69h.05c.02 0 .03.02.04.03l.02.04c0 .02 0 .03-.02.05-.12.2-.2.37-.22.49a.04.04 0 0 0 .02.04h.04l5.1-6.31a.1.1 0 0 1 .07-.04.1.1 0 0 1 .07.03l3.4 3.13.03.04a.13.13 0 0 1-.02.14l-1.4 1.67-.01.01v.01a.02.02 0 0 0 .03 0Z" fill="#D28F00"/><path d="M6 27.5v-.72c.11-1.05.59-1.8 1.42-2.26a5.2 5.2 0 0 1 4.92.23l.02.08v1.69l-.01.03-.02.02a.06.06 0 0 1-.06 0 4.15 4.15 0 0 0-2.7-.74c-.6.03-1.43.22-1.65.85-.18.46-.09.83.26 1.12.58.46 1.65.7 2.42.94 1.72.54 2.52 1.77 2.39 3.68a2.41 2.41 0 0 1-.99 1.74c-1.58 1.27-4.24.95-5.89.01a.23.23 0 0 1-.11-.2v-1.69l.01-.03.03-.03a.06.06 0 0 1 .06 0 5.02 5.02 0 0 0 4.1.83c.54-.12 1-.52.99-1.13-.01-.78-.63-1.2-1.3-1.43-1.84-.64-3.62-.96-3.89-3ZM15.09 30.5c0 1.77.4 3 2.3 3.08a5.14 5.14 0 0 0 2.6-.56v.01l.01.01v1.39l-.01.03-.03.03a6.11 6.11 0 0 1-3.34.44c-2.3-.38-3.04-2.23-3.04-4.43 0-2.21.75-4.06 3.04-4.43a6.12 6.12 0 0 1 3.37.47l.02.03v1.39a.03.03 0 0 1-.02.02.03.03 0 0 1-.03 0c-.83-.42-1.69-.6-2.57-.56-1.89.08-2.3 1.31-2.3 3.08ZM24.24 29.74a171.27 171.27 0 0 0 1.74-.02.08.08 0 0 0 .02-.05v-3.58a.1.1 0 0 1 .03-.06.09.09 0 0 1 .06-.03h1.29a.1.1 0 0 1 .07.03c.02.02.03.05.03.08a1292.62 1292.62 0 0 1-.03 8.86.1.1 0 0 1-.07.03h-1.3a.08.08 0 0 1-.05-.03.1.1 0 0 1-.03-.06v-3.58c0-.01 0-.03-.02-.05a171.27 171.27 0 0 0-3.48 0 .08.08 0 0 0-.02.05v3.58a.1.1 0 0 1-.02.06.08.08 0 0 1-.06.03h-1.3a.1.1 0 0 1-.07-.03.11.11 0 0 1-.03-.08 1292.62 1292.62 0 0 1 .03-8.86.1.1 0 0 1 .08-.03h1.29l.06.03a.1.1 0 0 1 .02.06v3.58l.02.05.05.02h1.7ZM32.45 26a20.55 20.55 0 0 1 .82.04l.05.07 3.27 8.85a.03.03 0 0 1 0 .03h-1.57l-.02-.02-.77-2.1a.1.1 0 0 0-.04-.04 201.84 201.84 0 0 0-3.48 0 .1.1 0 0 0-.03.04l-.78 2.1-.01.02h-.03l-1.52.01h-.01l-.01-.01v-.03l3.27-8.85a.15.15 0 0 1 .05-.07 20.5 20.5 0 0 1 .81-.04Zm-1.24 5.29a.07.07 0 0 0 0 .06l.03.02H33.66l.02-.02a.06.06 0 0 0 0-.06l-1.17-3.32a.06.06 0 0 0-.02-.03.06.06 0 0 0-.04-.01h-.03a.06.06 0 0 0-.02.04l-1.19 3.32ZM43.66 34.98V35h-1.79a.07.07 0 0 1-.02-.03l-1.97-3.08a.16.16 0 0 0-.06-.06.15.15 0 0 0-.07-.02h-1.16a.09.09 0 0 0-.07.03.1.1 0 0 0-.03.07v3.04l-.01.03-.03.02h-1.42a.03.03 0 0 1-.03-.04V26.1c0-.03 0-.05.03-.07a.09.09 0 0 1 .06-.03l3.31.01c1.54.02 2.8.86 2.9 2.6.09 1.5-.5 2.47-1.74 2.9a.07.07 0 0 0-.03.02l-.02.03a.09.09 0 0 0 .01.08l2.14 3.34Zm-5.17-7.4.01 2.7.01.04.04.01h1.97a1.42 1.42 0 0 0 .9-.34c.12-.11.22-.24.28-.38.07-.14.1-.29.1-.44v-.5c0-.3-.14-.6-.38-.82a1.37 1.37 0 0 0-.91-.33h-1.97l-.03.02-.02.04ZM50 26v1.44h-3.9a.1.1 0 0 0-.07.03.1.1 0 0 0-.03.07v2.38c0 .02 0 .04.02.06.02.02.04.02.06.02h3.34l.02.02a.06.06 0 0 1 .01.04v1.4l-.01.04a.06.06 0 0 1-.04.02h-3.28a.11.11 0 0 0-.09.03.12.12 0 0 0-.03.09v3.31l-.01.04-.04.01h-1.44l-.03-.01V26.1c0-.03 0-.05.02-.06a.08.08 0 0 1 .05-.03L50 26Z" fill="#002856"/></svg>