<!-- by TradingView --><svg width="56" height="56" viewBox="0 0 56 56" xmlns="http://www.w3.org/2000/svg"><path fill="#F0F3FA" d="M0 0h56v56H0z"/><path d="M8.5 23a4.5 4.5 0 1 1 0 9 4.5 4.5 0 0 1 0-9ZM8 25v2H6v1h2v2h1v-2h2v-1H9v-2H8Z" fill="#049A03"/><path d="M49.95 25H52l-2.3 7.16-.26.75c-.43 1.4-1.27 2.09-2.53 2.09H46v-2h.76c.43 0 .65-.18.65-.53 0-.12-.03-.25-.08-.4L45 25h2.07l1.44 5.62L49.95 25ZM39 22h2v10h-2v-1.19c-.26.84-1.11 1.19-1.92 1.19-1.96 0-3.08-1.63-3.08-3.48C34 26.7 35.13 25 37.08 25c.79 0 1.66.4 1.92 1.22V22Zm-1.48 8.33c1.01 0 1.48-.85 1.48-1.8 0-.96-.47-1.81-1.48-1.81-1.02 0-1.52.84-1.52 1.8 0 .97.5 1.8 1.52 1.8ZM33 32h-2v-.94c-.45.63-.85.94-1.8.94-1.22 0-2.2-.66-2.2-1.95 0-1.14.97-1.74 1.99-1.9l1.7-.27c.33-.05.31-.24.31-.55v-.03c0-.48-.21-.8-.85-.8s-1.17.42-1.27 1.06l-1.6-.4c.34-1.39 1.5-2.16 2.9-2.16 1.49 0 2.82.77 2.82 2.4V32Zm-3.2-1.33c.83 0 1.2-.65 1.2-1.47v-.24l-1.36.24c-.55.09-.83.34-.83.75 0 .46.38.72.98.72ZM24 32V22h2v10h-2ZM42 32V22h2v10h-2ZM19 26.3h4V32h-2v-1.42A2.8 2.8 0 0 1 18.36 32c-2.8 0-4.36-2.4-4.36-5 0-2.73 1.8-5 4.63-5 1.88 0 3.73 1.1 4.2 3l-1.75.66a2.46 2.46 0 0 0-2.37-1.71c-1.71 0-2.67 1.45-2.67 3.05 0 1.63 1 3.05 2.74 3.05 1.22 0 2.15-.81 2.22-2.05h-2v-1.7Z"/></svg>