<!-- by TradingView --><svg width="56" height="56" viewBox="0 0 56 56" xmlns="http://www.w3.org/2000/svg"><path fill="#F0F3FA" d="M0 0h56v56H0z"/><path d="M28 45c-9.37 0-17-7.63-17-17 0-9.38 7.63-17 17-17 9.37 0 17 7.63 17 17 0 9.37-7.63 17-17 17Zm0-33.46A16.48 16.48 0 0 0 11.54 28c0 9.07 7.39 16.46 16.46 16.46 9.08 0 16.46-7.39 16.46-16.46 0-9.08-7.39-16.46-16.46-16.46Z" fill="#231F20"/><path d="M42.5 22a1.5 1.5 0 1 0 0-3 1.5 1.5 0 0 0 0 3Z" fill="#EF3829"/><path d="M19 25.45c-.35.31-.69.55-1.2.55-.96 0-1.8-.79-1.8-2.5 0-1.7.83-2.5 1.9-2.5.79 0 1.45.35 2.04.72l-.46.76a3.16 3.16 0 0 0-1.45-.55c-.64 0-1.02.6-1.02 1.57 0 .97.34 1.62 1 1.62.44 0 .78-.35.99-.55V24h-1v-1h2v3h-1v-.55ZM24.52 22.46a3.1 3.1 0 0 0-1.43-.54c-.65 0-1.04.6-1.04 1.58 0 .97.39 1.57 1.04 1.57.46 0 .95-.25 1.43-.53l.48.76a4 4 0 0 1-2.03.7c-1.12 0-1.97-.79-1.97-2.5s.85-2.5 1.97-2.5a4 4 0 0 1 2.03.7l-.48.76ZM26 26v-5h1v5h-1ZM15 34v-5h1v4h2v1h-3ZM19 29h1v1h-1v-1Zm.03 5L19 30.5h1V34h-.97ZM21 29h1v1.78c.33-.25.84-.48 1.44-.48.91 0 1.56.6 1.56 1.86 0 1.25-.65 1.84-1.56 1.84-.6 0-1.11-.22-1.44-.46V34h-1v-5Zm1 2.55v1.22c.28.29.75.45 1.11.45.52 0 .89-.37.89-1.06 0-.7-.38-1.07-.89-1.07-.36 0-.83.16-1.11.46ZM27.16 32.23c.06.64.36.99.9.99.47 0 1.03-.23 1.51-.47l.43.66c-.33.17-1.12.59-2.05.59-1.07 0-1.95-.63-1.95-1.99 0-1.28.79-2.01 2.05-2.01 1.25 0 1.93.72 1.93 1.7 0 .3-.07.53-.07.53h-2.75Zm0-.57h1.71c.01-.6-.28-.9-.82-.9-.53 0-.8.33-.89.9ZM32 30.88c.08-.2.51-.94 1.5-.88v1.02c-1.3 0-1.5 1.26-1.5 1.26V34h-1v-4h1v.88ZM34.5 30h.5v-.86l1-.14v1h1.23v.77H36v1.96c0 .32.32.36.49.36.19 0 .52-.13.62-.17l.39.77c-.25.11-.76.31-1.29.31-.76 0-1.21-.4-1.21-1.29v-1.94h-.5V30ZM39.1 30l.9 2.9.88-2.9H42l-2.07 6h-1.1l.64-1.69L38 30h1.11Z" fill="#231F20"/></svg>