<!-- by TradingView --><svg xmlns="http://www.w3.org/2000/svg" width="56" height="56" viewBox="0 0 56 56"><path fill="#F0F3FA" d="M0 0h56v56H0z"/><path d="M29.78 17.02c-2.15-.22-3.76 1.14-3.76 1.14s1.5.14 2.82 1.21l.7.6c1.19 1.05 2.78 2.44 4.81 2.6 1.77.12 3.65-1.17 3.65-1.17s-1.42-.1-2.88-1.02c-.47-.3-.94-.7-1.44-1.15-1.1-.96-2.31-2.04-3.9-2.2zM11.5 33H13v1.78c-.43.12-.94.22-1.4.22-1.44 0-2.6-1.05-2.6-2.48 0-1.4 1.19-2.52 2.58-2.52.75 0 1.5.24 2.1.58l.05.02.2-1.04-.03-.02a4.63 4.63 0 0 0-2.25-.54c-.73 0-1.38.16-1.93.46-.55.3-.98.73-1.28 1.26-.29.54-.44 1.15-.44 1.83 0 .7.15 1.31.46 1.83.3.52.73.93 1.26 1.2.54.28 1.15.42 1.83.42.75 0 2.49-.5 2.45-.5V32h-2.5v1zm14.91-.53c-.3-.2-.74-.4-1.28-.57-.33-.1-.58-.2-.76-.3-.17-.09-.3-.19-.37-.3a.76.76 0 0 1-.12-.44c0-.27.1-.48.3-.63.21-.14.52-.23.91-.23a3.7 3.7 0 0 1 1.7.49l.04.02.18-1.02-.02-.01a4.22 4.22 0 0 0-1.92-.48c-.47 0-.88.08-1.22.23-.35.16-.62.38-.8.66-.18.29-.28.61-.28.97 0 .53.16.96.46 1.27.3.31.82.59 1.53.81.54.18.92.34 1.11.5.2.16.29.36.29.61 0 .3-.12.53-.35.69-.24.16-.58.26-1.01.26-.32 0-.66-.06-1.02-.17-.36-.1-.68-.24-.96-.42l-.04-.02-.13 1.05.02.01c.24.16.57.3.98.4.4.1.8.15 1.2.15.5 0 .94-.08 1.3-.24.37-.17.66-.4.86-.69.2-.3.3-.64.3-1.02 0-.34-.08-.64-.22-.9a1.96 1.96 0 0 0-.68-.68zM29 29h1v6h3v1h-4v-7zm10.25.44A3.6 3.6 0 0 0 37.5 29a3.44 3.44 0 0 0-3.5 3.5c0 .67.16 1.29.48 1.82.31.53.74.95 1.27 1.24.53.3 1.11.44 1.75.44a3.46 3.46 0 0 0 3.5-3.5c0-.67-.16-1.29-.48-1.82a3.34 3.34 0 0 0-1.27-1.24zM37.5 35a2.56 2.56 0 0 1-2.5-2.5c0-1.3 1.13-2.5 2.5-2.5s2.5 1.2 2.5 2.5-1.14 2.5-2.5 2.5zm8-2v-1H48v3.42h-.02c-.76.33-1.6.5-2.49.5a4 4 0 0 1-1.83-.42 3.06 3.06 0 0 1-1.27-1.18 3.5 3.5 0 0 1-.45-1.81c0-.67.15-1.28.44-1.8.3-.53.73-.95 1.28-1.26.55-.3 1.2-.45 1.93-.45a5.03 5.03 0 0 1 2.25.54h.02l-.2 1.04-.04-.02a4.46 4.46 0 0 0-2.1-.56 2.5 2.5 0 1 0 .03 5c.4 0 .89-.14 1.3-.25l.15-.04V33h-1.5zm-26.35-3.98V29h-1.3L15 36h1.25l.62-1.62c.23-.04.38-.03.38-.03a1 1 0 0 1 .1 0c.33.04.67.31 1.03.6.22.18.44.37.7.52 0 0 .9.51 1.61.53H22l-2.85-6.98zm.42 5.42c-.18-.1-.37-.26-.57-.42-.44-.36-.93-.76-1.56-.82H17.32l1.14-3 1.13 2.93.35.9.26.68c-.19-.05-.4-.14-.63-.27zm2.44-14.57s1.61-1.35 3.76-1.13c1.59.16 2.8 1.24 3.9 2.2.5.44.97.86 1.44 1.16a7.03 7.03 0 0 0 2.88 1.01s-1.87 1.3-3.65 1.16c-2.03-.14-3.62-1.54-4.81-2.6l-.7-.59c-1.32-1.06-2.82-1.2-2.82-1.2zm-.25.58A5.49 5.49 0 0 0 18 21.6s1.5.14 2.82 1.2l.7.6c1.2 1.05 2.78 2.45 4.81 2.6 1.78.13 3.65-1.16 3.65-1.16s-1.42-.1-2.87-1.02c-.47-.3-.95-.71-1.45-1.16-1.1-.96-2.31-2.03-3.9-2.2z" fill="#204667"/></svg>