<!-- by TradingView --><svg width="56" height="56" viewBox="0 0 56 56" xmlns="http://www.w3.org/2000/svg"><path fill="#181B1E" d="M0 0h56v56H0z"/><path d="M15 30h-1v-8h1v8ZM19.78 25H21l-3.13 7h-1.22l1.28-2.86L16 25h1.23l1.27 2.86L19.78 25ZM23.5 29c.53 0 1.02-.25 1.24-.74l.8.51a2.37 2.37 0 0 1-2.1 1.23A2.52 2.52 0 0 1 21 27.5c0-1.44 1.2-2.47 2.44-2.5.85-.01 1.68.47 2.08 1.22l-.8.52c-.2-.49-.7-.74-1.23-.74-.97 0-1.49.63-1.49 1.5s.53 1.5 1.5 1.5ZM28.5 25a2.5 2.5 0 1 1 0 5 2.5 2.5 0 0 1 0-5Zm0 1a1.48 1.48 0 0 0-1.5 1.5 1.5 1.5 0 1 0 1.5-1.5ZM37.25 25c1.13 0 1.75.73 1.75 1.77V30h-1v-3.12c0-.63-.34-.88-.85-.88-.61 0-1.12.4-1.15 1.04V30h-1v-3.12c0-.38-.32-.88-.84-.88-.6 0-1.13.44-1.16 1.04V30h-1v-5h.93l.1.52.05.06.05-.06c.28-.33.7-.52 1.13-.52.62-.04 1.24.3 1.55.84.38-.46.82-.83 1.44-.84ZM40 23h1v1h-1v-1ZM42 25h.88l.1.52.04.06.05-.06c.27-.33.67-.52 1.07-.52 1.1-.07 1.92.95 1.86 1.98V30h-1V27c-.03-.67-.3-.99-.95-.99-.6 0-1.03.47-1.05 1.04V30h-1v-5ZM48.11 27.75c-.02.8.74 1.25 1.5 1.25.54 0 1.08-.18 1.29-.63l.93.4A2.64 2.64 0 0 1 49.56 30 2.48 2.48 0 0 1 47 27.5c0-1.48 1.11-2.5 2.56-2.5 1.33 0 2.44.97 2.44 2.45l-.11.3H48.1Zm.06-.9h2.66c-.1-.59-.7-.85-1.27-.85-.61 0-1.23.25-1.4.86Z" fill="#fff"/><path d="M15.98 16.11c2.78-.39 5.6.24 7.96 1.76A11.9 11.9 0 0 1 29 24.39c-.42-.1-.98-.12-1.41-.05A10.67 10.67 0 0 0 17.49 17a10.5 10.5 0 0 0 0 21c4.72 0 8.85-3.18 10.14-7.48.44.06.95.04 1.37-.07-.72 2.7-2.6 5.03-4.92 6.59a11.68 11.68 0 0 1-15.16-1.9 11.45 11.45 0 0 1-.1-15.15 11.63 11.63 0 0 1 7.16-3.88Z" fill="#0AF"/><path d="M10.87 25c.49-.03.97.12 1.35.41l.07-.4H13v1.95a1.92 1.92 0 0 1-.77 1.54 1.92 1.92 0 0 1-.07 3.14 2.03 2.03 0 0 1-3.05-.96 1.92 1.92 0 0 1 .66-2.18 1.96 1.96 0 0 1-.68-2.12c.12-.38.35-.71.67-.96.32-.24.7-.39 1.1-.42Zm.13 4a1 1 0 1 0 0 2 1 1 0 0 0 0-2Zm0-3a1 1 0 1 0 0 2 1 1 0 0 0 0-2ZM41 25h-1v5h1v-5Z" fill="#fff"/></svg>