<!-- by TradingView --><svg width="56" height="56" viewBox="0 0 56 56" xmlns="http://www.w3.org/2000/svg"><path fill="#181B1E" d="M0 0h56v56H0z"/><path d="M40 24v-1h9v1h-4v9h-1v-9h-4ZM31.3 33H30l4.4-10h1.2L40 33h-1.38l-1.31-3h-4.74l-1.26 3Zm3.61-8.44L33.01 29h3.85L35 24.56h-.09ZM23.99 23A5 5 0 1 1 19 27.98 4.95 4.95 0 0 1 23.99 23Zm0 1A3.96 3.96 0 0 0 20 27.98 4 4 0 1 0 23.99 24ZM16.32 24.6l-.86.67A5.07 5.07 0 0 0 12.14 24 4.16 4.16 0 0 0 8 28c0 2.04 1.76 4 4.22 4C14.1 32 16 30.84 16 29h-4v-1h5v.95c0 2.32-2.2 4.05-4.82 4.05A5.05 5.05 0 0 1 7 28c0-2.77 2.26-5 5.13-5 1.47 0 2.99.57 4.19 1.6Z" fill="#fff"/></svg>