<!-- by TradingView --><svg width="56" height="56" viewBox="0 0 56 56" xmlns="http://www.w3.org/2000/svg"><path fill="#F0F3FA" d="M0 0h56v56H0z"/><path d="M19.68 20.27c-2.62-1.85-2.67-3.89-2.67-4.9h4.07c.26.38 1 .88 1.34 1.08l15.74 8.93-4.77 2.72-13.7-7.83ZM36.32 35.73c2.62 1.85 2.67 3.89 2.67 4.9h-4.07c-.26-.38-1-.88-1.34-1.08l-15.74-8.93 4.77-2.72 13.7 7.83Z" fill="#538548"/><path d="M22.88 9c-5.08 0-6 4.73-5.87 6.47h4.1c-.06-1.2.8-1.42 1.25-1.47h11c.4 0 1.24.02 1.32.75.09.74-.08 1.04-.53 1.4l-12.22 6.74a8 8 0 0 0-4.13 7v.8l17.1-9.57c3.5-1.83 4.19-4.87 4.1-6.16-.15-4.44-3.49-5.82-5.14-5.96H22.88ZM33.12 47c5.08 0 6-4.73 5.87-6.47h-4.1c.06 1.2-.8 1.42-1.25 1.47h-11c-.4 0-1.24-.02-1.32-.75-.09-.74.08-1.04.53-1.4l12.22-6.74a8 8 0 0 0 4.13-7v-.8l-17.1 9.57c-3.5 1.83-4.19 4.87-4.1 6.16.15 4.44 3.49 5.82 5.14 5.96h10.98Z" fill="#93E251"/></svg>