<!-- by TradingView --><svg width="56" height="56" viewBox="0 0 56 56" xmlns="http://www.w3.org/2000/svg"><path fill="#F0F3FA" d="M0 0h56v56H0z"/><path d="M12 28c0-7.18 10.25-15.01 17-15 6.88.01 15.38 7.89 15 15-.36 7.3-9.91 15.04-17 15-7.16-.04-15-7.8-15-15Zm14.67 16C34.56 44.12 45 36.21 45 28c0-8-8.21-16.02-16-16-7.53.02-18 7.9-18 15.91 0 7.83 7.8 15.97 15.67 16.09Z" fill="#016836"/><path d="M27.95 37.15c-.17 0-.28 0-.4.05-3.48.26-6.3.56-8.55.81 1.13.86 2.25 1.52 3.32 2.03 1.46.66 3.04.96 4.56.96 2.87 0 5.97-1.11 9.12-3.4-1.63-.2-3.72-.4-6.36-.6l-1.69.15Z" fill="#016836"/><path d="M37.74 19c-2.03.34-5 .68-9.28 1.01-.12 0-.29 0-.45.06-5.52.45-8.84.9-10.92 1.24-1.74 1.92-2.8 3.77-3.09 5.69.5-.34 2.81-1.18 13.56-2.08.17 0 .28 0 .45-.06 8.04-.68 11.47-1.3 12.99-1.7a17.98 17.98 0 0 0-2.81-3.7c-.17-.18-.28-.35-.45-.46Z" fill="#3FAE29"/><path d="M27.96 18.85s.06 0 0 0c.17 0 .29 0 .46-.05 3.5-.25 6.38-.55 8.58-.8-2.54-1.95-5.25-3-7.96-3-.23 0-.51 0-.74.05-2.65.2-5.36 1.25-8.3 3.35 1.64.2 3.73.4 6.33.6.5-.1 1.07-.1 1.63-.15Z" fill="#016836"/><path d="M27.94 31.18c-7.99.62-11.42 1.29-12.94 1.68a18 18 0 0 0 2.87 3.75l.4.39c2.02-.34 4.94-.67 9.27-1 .12 0 .29 0 .45-.06 5.57-.45 8.95-.9 10.97-1.29 1.75-1.9 2.76-3.75 3.04-5.65-.4.28-2.42 1.17-13.61 2.07-.17.06-.34.06-.45.11Z" fill="#3FAE29"/><path d="M27.89 29.85h.44C38.6 29.1 40.94 28.4 42 27.95v-.1s0-.9-12.27-1.85l-1.67.15h-.45c-9.87.75-12.66 1.45-13.61 1.9v.15c.22.2 1.73 1 12.22 1.8l1.67-.15Z" fill="#016836"/></svg>