<!-- by TradingView --><svg width="56" height="56" viewBox="0 0 56 56" xmlns="http://www.w3.org/2000/svg"><path fill="#1BAC5D" d="M0 0h56v56H0z"/><path d="M28 12a16 16 0 1 1 0 32 16 16 0 0 1 0-32Zm-9.26 13c-.45 0-.8.39-.73.82l1.7 10.39c.08.45.5.79.98.79h14.74c.49 0 .9-.33.98-.78l1.2-6.4c.07-.43-.28-.82-.74-.82H24.19c-.46 0-.81.4-.73.83l.77 3.28c.04.23.24.39.48.39h6.6c.23 0 .69-.15.69-.5 0-.74-.36-1-.67-1h-4.55c-.23 0-.55-.2-.6-.41-.08-.3.15-.59.47-.59h7.06c.3 0 .54.26.5.54L33.54 35h-11.1l-1.29-6.94c-.05-.3.18-.56.49-.56h16.2l.14-1.69c.07-.43-.28-.81-.73-.81H18.74Zm3.37-7c-.44.12.55 2.7.88 3.23.29.46 2.54 1.49 3.65 1.76.23.06.4-.12.35-.35-.17-.83-.62-2.63-1.13-3.13-.66-.64-3.3-1.6-3.75-1.5Zm11.78 0c-.44-.1-3.09.87-3.75 1.51-.51.5-.96 2.3-1.13 3.13-.05.23.12.4.35.35 1.11-.27 3.36-1.3 3.65-1.76.33-.54 1.32-3.11.88-3.22Z" fill="#fff"/></svg>