<!-- by TradingView --><svg width="56" height="56" viewBox="0 0 56 56" xmlns="http://www.w3.org/2000/svg"><path fill="url(#acdlzgzto)" d="M0 0h56v56H0z"/><path d="M5.01 27.91a12.5 12.5 0 0 0 2.42 7.52c3.8 2.27 11.34.95 14.63 0 2.74 3.74 2.86 1.54 5.15 2.38 1.83.67 3.9-.58 4.7-1.29 1.58-.1 5.74-1.63 7.63-2.38.44 1.35 9.85 3.73 10.93-2.45.86-4.95.72-9.34-.7-10.4-5.28-2.5-16.08-.6-19.45-.6-2.69 0-3.46 1.91-3.5 2.86-1.59-2.45-3.22-1.75-5.54-2.25-1.86-.4-4.07.53-4.95 1.05-2.07-1.5-3.95-1.9-7.27-1.65-3.3.25-3.85 3.05-4.05 7.21Z" fill="url(#bcdlzgzto)"/><path fill-rule="evenodd" d="M39 23h9v1.91l-5.27 6.59H48V34h-9v-2.13l5.14-6.37H39V23Zm-23 9.47A6.13 6.13 0 0 1 11.9 34C8.66 34 6 31.54 6 28.5S8.65 23 11.9 23c1.85 0 3.5.78 4.57 2l-2 1.61a3.15 3.15 0 0 0-5.62 1.89 3.16 3.16 0 0 0 4.65 2.7V28H16v4.47ZM18 23h5.6a4 4 0 0 1 1.85 7.55L27.6 34h-3.13l-1.87-3H21v3h-3V23Zm3 2.46h1.77a1.77 1.77 0 0 1 0 3.54H21v-3.54ZM38 23h-9v2.5h5.14L29 31.87V34h9v-2.5h-5.27L38 24.91V23Z" fill="#fff"/><defs><linearGradient id="acdlzgzto" x1="10.42" y1="9.71" x2="68.15" y2="76.02" gradientUnits="userSpaceOnUse"><stop stop-color="#1A1E21"/><stop offset="1" stop-color="#06060A"/></linearGradient><linearGradient id="bcdlzgzto" x1="4.37" y1="27.57" x2="50.03" y2="28.96" gradientUnits="userSpaceOnUse"><stop stop-color="#180416"/><stop offset=".09" stop-color="#5D0642"/><stop offset=".27" stop-color="#FC1AF6"/><stop offset=".43" stop-color="#533097"/><stop offset=".51" stop-color="#4E928A"/><stop offset=".66" stop-color="#25A025"/><stop offset=".8" stop-color="#37CF04"/><stop offset=".91" stop-color="#0B3608"/><stop offset="1"/></linearGradient></defs></svg>