<!-- by TradingView --><svg width="56" height="56" viewBox="0 0 56 56" xmlns="http://www.w3.org/2000/svg"><path fill="#F0F3FA" d="M0 0h56v56H0z"/><path fill-rule="evenodd" d="m7.77 26-.6.78H5.56a.7.7 0 0 0-.7.72c0 .4.31.72.7.72h1.23v-.43H5.32l.54-.79h1.82v2H5.44C4.64 29 4 28.33 4 27.5S4.64 26 5.44 26h2.33Zm.27 3 .53-.76h2.3c.12 0 .22-.1.22-.23 0-.12-.1-.22-.22-.22h-1.9a.87.87 0 0 1-.85-.9c0-.49.38-.89.85-.89h2.86l-.58.78h-2.1c-.1 0-.18.1-.18.2 0 .12.08.21.19.21h1.9c.48 0 .87.4.87.9s-.39.91-.86.91H8.04Zm6.92-2.12h-2.62l.57-.88H15c.35 0 1.2.27 1.2 1.19 0 .73-.51 1-.76 1.05L17 30H15.8l-1.24-1.53H13.2V29h-.86v-1.33h2.62c.19 0 .34-.18.34-.4 0-.21-.15-.39-.34-.39Zm28.05-.03h2.62c.19 0 .34.18.34.4 0 .22-.15.4-.34.4H43V29h1v-.55h1.24L46.48 30h1.19l-1.55-1.78c.25-.04.76-.32.76-1.06 0-.92-.86-1.16-1.2-1.16h-2.1l-.57.85ZM18 26h1v3h-1v-3Zm3 0h-1v3h1v-3Zm1.73.4L22 29h.84l.45-1.78.75 1.45c.11.2.32.33.54.33a.6.6 0 0 0 .54-.35l.69-1.43.49 1.78h.85l-.74-2.63a.5.5 0 0 0-.47-.37c-.18 0-.34.1-.43.27L24.58 28l-.87-1.7a.53.53 0 0 0-.47-.3.54.54 0 0 0-.5.4Zm8.55-.4H28v3h2.72l.56-.76H29v-.4h1.61l.5-.7H29v-.36h1.72l.56-.78ZM35 26h3l-.5.78H36v.36h1.85l-.46.7H36v.4h2l-.5.76H35v-3Zm-.8.76H33V29h-1v-2.24h-1l.55-.76h3.2l-.55.76Zm4.3.77c0-.82.35-1.53 1.97-1.53s2.03.67 2.03 1.53c0 .79-.45 1.47-2.03 1.47-1.58 0-1.97-.68-1.97-1.47Zm.82-.01c0-.42.2-.77 1.16-.77s1.2.34 1.2.77c0 .39-.27.73-1.2.73-.92 0-1.16-.34-1.16-.73Zm8 1.48h1.04l1.3-1.92.82 1.19h-1.24l-.44.73H52l-1.78-2.7a.66.66 0 0 0-1.1 0l-1.8 2.7Z" fill="#4777DB"/></svg>