<!-- by TradingView --><svg width="56" height="56" viewBox="0 0 56 56" xmlns="http://www.w3.org/2000/svg"><path fill="#86AD65" d="M0 0h56v56H0z"/><path d="M45.22 25h-2.45l-.36 1H40l2.68-8h2.65L48 26h-2.42l-.36-1Zm-.56-2-.67-2.32-.66 2.32h1.33ZM37.45 21.9c.9.2 1.55.97 1.55 1.9 0 1.57-1.34 2.2-2.74 2.2H32v-8h4.15c1.32 0 2.67.58 2.67 2.08 0 .86-.52 1.6-1.37 1.82Zm-2.9-.9h.99c.47 0 .68-.07.68-.43 0-.4-.22-.57-.68-.57h-.99v1Zm1.16 3c.48 0 .68-.19.68-.57 0-.38-.23-.43-.68-.43h-1.16v1h1.16ZM19.5 24H22v2h-5v-8h2.5v6ZM41 38l3.24-8h.52L48 38h-.55l-3.07-7.63h.23L41.55 38H41Zm1.19-2.25.17-.5h4.22l.17.5H42.2ZM33 38v-8h2.77c.65 0 1.2.1 1.66.32.47.21.82.52 1.07.93.25.4.38.88.38 1.45 0 .55-.13 1.03-.38 1.44-.25.4-.6.7-1.07.92-.46.22-1.01.32-1.66.32H33.3l.25-.27V38H33Zm5.36 0-2-2.9h.63L39 38h-.64Zm-4.8-2.86-.25-.27h2.46c.83 0 1.46-.2 1.88-.57.44-.38.66-.92.66-1.6 0-.7-.22-1.23-.66-1.6-.42-.38-1.05-.57-1.88-.57H33.3l.25-.29v4.9ZM24 38v-8h2.77c.65 0 1.2.1 1.66.32.47.21.82.52 1.07.93.25.4.38.88.38 1.45 0 .55-.13 1.03-.38 1.44-.25.4-.6.7-1.07.92-.46.22-1.01.32-1.66.32H24.3l.25-.27V38H24Zm5.36 0-2-2.9h.63L30 38h-.64Zm-4.8-2.86-.25-.27h2.46c.83 0 1.46-.2 1.88-.57.44-.38.66-.92.66-1.6 0-.7-.22-1.23-.66-1.6-.42-.38-1.05-.57-1.88-.57H24.3l.25-.29v4.9ZM16.47 33.68h3.92v.51h-3.92v-.51Zm.06 3.8H21V38h-5v-8h5v.53h-4.47v6.94ZM10.72 38v-7.47H8V30h6v.53h-2.72V38h-.56ZM13.54 23.24v-.02a.02.02 0 0 0-.01 0h-1.5L12 23.2l-.01-.02v-1.8l.01-.02H15.98a.02.02 0 0 1 .02 0v.01l-.02.48a5.47 5.47 0 0 1-.37 1.84 3.34 3.34 0 0 1-2.53 2.18c-.97.21-1.88.14-2.74-.2-1.81-.74-2.61-2.64-2.26-4.5a3.87 3.87 0 0 1 2.87-3.04c.63-.17 1.3-.17 1.94-.08a3.52 3.52 0 0 1 2.15 1.18v.02l-1.5 1.5-.03.02-.03-.01a2.03 2.03 0 0 0-1.2-.63c-1.12-.14-1.72.72-1.75 1.75-.03 1.07.34 2.14 1.59 2.16.65.01 1.13-.26 1.42-.8ZM26.84 18A3.85 3.85 0 0 1 31 21.83c.1 2.4-1.6 4.07-3.84 4.17A3.85 3.85 0 0 1 23 22.18 3.88 3.88 0 0 1 26.84 18Zm.3 1.73c-.29.27-.52.57-.69.9a.52.52 0 0 1-.08.13c-.11.12-.06.21-.03.35v.03l-.11.2-.01.03v.03l.01.05v.03h-.02a.18.18 0 0 0-.04.03l-.02.02v.02l.05.14v.02l-.01.02c-.08.04-.1.09-.08.14l.08.1v.04h-.01l-.01.01h-.08a.04.04 0 0 0-.02.05v.02l.12.13v.02a.04.04 0 0 1-.01.03h-.08l-.03.02-.02.02v.06l.07.08.01.02-.01.03-.07.06a.03.03 0 0 0-.01.03v.02l.07.05c.03.05.02.07-.02.1-.03.01-.05.03-.05.06 0 .02.04.05.1.08l.02.02v.04l-.01.02-.04.04a.04.04 0 0 0 0 .04v.02l.1.05v.02l.01.02v.02l-.02.01a.16.16 0 0 0-.05.04v.01a.03.03 0 0 0 0 .03v.01l.12.08.02.03v.05l-.01.04.01.03a1.28 1.28 0 0 0 .69.44.05.05 0 0 1 .02.04v.02l-.06.18v.02a.03.03 0 0 0 .02.02H27l.01-.02V24l.01-.03.03-.02c.21 0 .54-.05.67-.23.13-.17.22-.35.28-.55.02-.08 0-.13.05-.2l.01-.01v-.02a.05.05 0 0 0-.03-.03l-.01-.01v-.02a.05.05 0 0 1 0-.04c.07-.07.1-.14.07-.2 0-.03.01-.07.05-.11v-.06l-.03-.03a.04.04 0 0 1 0-.04l.04-.13v-.03l-.02-.01-.02-.01-.02-.03v-.03l.04-.08a.07.07 0 0 0 0-.07.28.28 0 0 1-.04-.24c.01-.04 0-.07-.01-.09l-.04-.01v-.01l-.01-.01v-.02c.06-.2-.25-.78-.37-1a.13.13 0 0 0-.04-.05l-.02-.01-.02-.02-.01-.03a2.24 2.24 0 0 0-.42-.8h-.01Z" fill="#fff"/></svg>