<!-- by TradingView --><svg width="56" height="56" viewBox="0 0 56 56" xmlns="http://www.w3.org/2000/svg"><path fill="#F0F3FA" d="M0 0h56v56H0z"/><path d="M37.13 11c.05 0 .08.04.1.09 2.72 5.54 4.5 8.4 4.6 8.58.11.24.16.42.16.7v16.29l-.03 4.1c-.22.14-.4.21-.54.22l-5.34.02H14.3c-.12 0-.25-.02-.37-.05-2.9-.77-4.49-1.62-4.76-1.69-.1-.02-.15-.05-.16-.1a.11.11 0 0 1 .01-.1.13.13 0 0 1 .1-.06 870.07 870.07 0 0 1 5.76 0c.07 0 .12-.03.12-.08V15.57c.03-.48.33-.56.76-.57H32a99.8 99.8 0 0 0 0 5H20.83c-.37 0-.75.08-.78.48l-.05.78v17.68l.04.02a.06.06 0 0 0 .03.03H35.44c.43 0 .86 0 1.3-.02.4-.01.63-.17.64-.57.01-1 .02-1.88 0-3.5v-7.75C37.4 21.8 37 16.46 37 11.12a.12.12 0 0 1 .04-.09.12.12 0 0 1 .1-.03Z" fill="url(#a)"/><path d="M37.14 11.02c.04 0 .08.03.1.08 2.7 5.55 4.5 8.4 4.59 8.57.12.24.17.42.17.7v20.4c-.12.07-.23.12-.34.15l-4.65-1.96-.01-.18V11.14l.01-.05c0-.02.02-.03.03-.04a.12.12 0 0 1 .04-.03h.06Z" fill="url(#b)"/><path d="M41.65 40.92c-.08.04-.3.08-.36.08H14.3c-.12 0-.25-.02-.37-.05-2.9-.77-4.49-1.61-4.76-1.68-.1-.03-.15-.06-.16-.1a.11.11 0 0 1 .01-.12.12.12 0 0 1 .05-.03.4.4 0 0 1 .1-.02h5.73s.01 0 0 0H36.5c.3-.01.44-.26.53-.48l4.63 2.4Z" fill="url(#c)"/><defs><linearGradient id="a" x1="40.25" y1="14.71" x2="13.87" y2="41.1" gradientUnits="userSpaceOnUse"><stop offset=".31" stop-color="#1E452D"/><stop offset=".41" stop-color="#376D3E"/><stop offset=".51" stop-color="#619F48"/><stop offset=".6" stop-color="#376E3C"/><stop offset=".72" stop-color="#255134"/><stop offset=".91" stop-color="#1C402E"/></linearGradient><linearGradient id="b" x1="40.13" y1="14.73" x2="40.34" y2="40.18" gradientUnits="userSpaceOnUse"><stop offset=".55" stop-color="#407740"/><stop offset=".95" stop-color="#62A146"/></linearGradient><linearGradient id="c" x1="9" y1="40.04" x2="41.65" y2="40.04" gradientUnits="userSpaceOnUse"><stop offset=".3" stop-color="#1D412F"/><stop offset=".63" stop-color="#1D442A"/><stop offset="1" stop-color="#3A6531"/></linearGradient></defs></svg>