<!-- by TradingView --><svg width="56" height="56" viewBox="0 0 56 56" xmlns="http://www.w3.org/2000/svg"><path fill="#F0F3FA" d="M0 0h56v56H0z"/><path d="M46 31.72v-5.44c0-.57-.3-.94-.9-.94H45V25h3.2c1.93 0 2.85.7 2.85 2.17 0 .97-.62 1.67-1.52 1.95l1.45 2.6c.2.35.36.59.5.73.15.14.3.21.47.21H52V33h-.6c-1.15 0-1.48-.1-1.95-.9l-1.72-2.77h-.23v2.4c0 .56.21.93.82.93h.1V33H45v-.34h.1c.6 0 .9-.37.9-.94Zm1.5-2.84h.33c1.1 0 1.47-.8 1.47-1.8 0-1.04-.43-1.57-1.22-1.6-.47-.01-.58.23-.58.67v2.73ZM38 33v-.34c.64 0 1-.31 1-.94v-5.44c0-.62-.37-.94-1-.94V25h5.66v2.41h-.26c-.21-1.38-.84-1.93-2.24-1.93h-.06c-.22 0-.36.05-.44.14-.07.09-.1.26-.1.53v2.51h.11c.46 0 .79-.11.98-.34.18-.23.33-.63.44-1.32h.26v4h-.26a3.78 3.78 0 0 0-.45-1.5c-.2-.24-.51-.36-.97-.36h-.12v2.54c0 .35.05.58.14.69.1.11.28.17.56.16 1.45 0 2.1-.77 2.65-2.04l.23.06L43.7 33h-5.7ZM24.5 31.74V25.5c-1.14 0-2.08.86-2.18 1.98H22l.3-2.48H29l-.29 2.48h-.28c-.1-1.12-.52-2-2.43-2v6.24c0 .56.2.94.8.94h.09V33h-3.24v-.34h.09c.6 0 .76-.39.76-.92ZM32.5 31.74V25.5c-1.14 0-2.08.86-2.18 1.98H30l.3-2.48H37l-.29 2.48h-.28c-.1-1.12-.52-2-2.43-2v6.24c0 .56.2.94.8.94h.09V33h-3.24v-.34h.09c.6 0 .76-.39.76-.92ZM21 29.96c0 2-.73 3.04-2.47 3.04-1.73 0-2.53-.9-2.53-2.71v-4.01c0-.56-.22-.93-.9-.95H15V25h3.3v.33h-.09c-.5.02-.71.4-.71.95v4.14c0 1.32.52 1.99 1.47 1.99 1.18 0 1.62-.84 1.62-2.52v-3.36c0-.6-.14-1.14-.81-1.2h-.1V25h2.17v.33h-.08c-.66.06-.77.64-.77 1.2v3.43ZM9.76 33C6.4 33 4 30.6 4 27c0-3.12 2.01-6 5.12-6 1.59 0 3.3.2 4.4.94l.43 3.1h-.41c-1.32-2.48-1.75-3.34-4.2-3.34-2.37 0-2.84 3.56-2.84 5.35 0 2.05.56 5.33 3.1 5.33l.23-.01c.95-.03 1.96-.66 1.96-1.6v-.97c0-1-.74-1.37-1.63-1.37H10V28h5v.43h-.14c-.86 0-1.25.47-1.25 1.37v.48c0 2.36-2.08 2.71-3.85 2.72Z"/></svg>