<!-- by TradingView --><svg width="56" height="56" viewBox="0 0 56 56" xmlns="http://www.w3.org/2000/svg"><path fill="#F0F3FA" d="M0 0h56v56H0z"/><path d="M28.6 12.01c3.92.17 7.47 1.75 10.16 4.25L42.02 13l.98.98-3.26 3.26a15.86 15.86 0 0 1 4.1 10.09H48v1.34h-4.17a15.86 15.86 0 0 1-4.17 10.02L43 42.02l-.98.98-3.33-3.34c-2.68 2.46-6.2 4.01-10.09 4.18V48h-1.2v-4.16a15.86 15.86 0 0 1-10.16-4.1L13.98 43l-.98-.98 3.26-3.26a15.86 15.86 0 0 1-4.24-10.09H8v-1.34h4.01c.15-3.91 1.7-7.47 4.18-10.16L13 13.96l.98-.97 3.18 3.19A15.86 15.86 0 0 1 27.4 12V8h1.2v4.01ZM28 13.4a14.6 14.6 0 1 0 0 29.22 14.6 14.6 0 0 0 0-29.22Z" fill="#2E2C6D"/><path d="M27.47 15.18c.03-.24-.12-.45-.35-.48-.22-.04-.43.13-.46.37-.03.24.12.46.35.5.22.02.43-.15.46-.39ZM29.62 15.36a.42.42 0 0 0-.36-.47.42.42 0 0 0-.46.38c-.02.24.14.45.37.47.23.03.43-.15.45-.38ZM24.91 15.98c.14-.2.1-.47-.1-.6a.43.43 0 0 0-.59.13c-.13.2-.09.47.1.6.2.13.46.07.6-.13ZM32.32 15.7a.43.43 0 0 0-.45-.4.43.43 0 0 0-.4.47c.03.24.23.42.46.4.24-.01.41-.22.4-.46ZM22.1 17.25a.43.43 0 1 0 0-.86.43.43 0 0 0 0 .86ZM33.93 17.3a.43.43 0 1 0 0-.85.43.43 0 0 0 0 .85ZM30.32 17.37a.42.42 0 1 0 0-.84.42.42 0 0 0 0 .84ZM27.22 17.8a.43.43 0 1 0 0-.86.43.43 0 0 0 0 .86ZM24.68 17.64c0-.24-.18-.43-.4-.43-.22 0-.4.2-.4.43 0 .24.18.43.4.43.22 0 .4-.2.4-.43ZM36.51 18.15a.43.43 0 0 0-.3-.52.43.43 0 0 0-.5.33c-.06.23.07.46.3.52.22.05.45-.1.5-.33ZM29.33 18.54c.04-.24-.1-.46-.33-.5-.22-.03-.43.13-.47.37-.03.24.11.46.34.5.22.03.43-.13.46-.37ZM32.8 18.65a.43.43 0 0 0-.18-.57c-.21-.1-.46-.01-.57.2-.1.22-.02.48.19.58.2.1.46 0 .57-.2ZM19.56 18.9a.43.43 0 1 0 0-.85.43.43 0 0 0 0 .85ZM21.75 19.3a.42.42 0 1 0 0-.84.42.42 0 0 0 0 .84ZM26.85 19.65c.03-.24-.13-.45-.35-.48-.23-.03-.43.15-.46.39-.03.24.13.45.35.48.22.03.43-.15.46-.39ZM24.38 19.68c.04-.23-.1-.46-.33-.5-.23-.04-.44.12-.48.36-.04.24.1.46.33.5.22.04.44-.12.48-.36ZM34.32 19.81a.42.42 0 0 0-.3-.5.42.42 0 0 0-.5.33c-.05.22.09.45.31.5.22.05.44-.1.5-.33ZM36.12 20.03c0-.24-.18-.44-.4-.44-.22 0-.4.2-.4.44s.17.44.4.44c.21 0 .4-.2.4-.44ZM38.22 19.6h-.07c-.2 0-.35.16-.35.35v.16c0 .2.16.35.35.35h.07c.2 0 .35-.15.35-.35v-.16c0-.2-.16-.35-.35-.35ZM31.21 20.18c.03-.25-.13-.46-.35-.48-.23-.03-.43.15-.45.4-.02.24.13.46.36.48.22.02.42-.16.44-.4ZM18.1 20.6a.43.43 0 0 0-.38-.48.43.43 0 0 0-.47.4c-.02.24.14.45.37.48.24.02.45-.15.47-.4ZM20.67 20.74c.03-.24-.13-.46-.36-.48-.22-.03-.43.15-.45.39-.03.24.13.45.36.48.22.02.43-.15.45-.4ZM28.96 21.05a.41.41 0 0 0-.24-.53.41.41 0 0 0-.51.27c-.08.22.03.46.24.53.2.07.44-.05.51-.27ZM22.9 21.19c.02-.24-.16-.45-.38-.46-.22-.02-.42.17-.43.41-.02.24.16.45.38.46.22.01.42-.17.43-.41ZM33.46 21.27a.42.42 0 0 0-.47-.36.42.42 0 0 0-.34.48c.04.23.24.4.47.36a.42.42 0 0 0 .34-.48ZM37.83 22.16a.42.42 0 0 0-.36-.47.42.42 0 0 0-.45.39c-.03.23.14.44.36.47.22.02.43-.15.45-.39ZM34.98 22.67a.42.42 0 1 0 0-.84.42.42 0 0 0 0 .84ZM24.61 21.83h-.08c-.2 0-.36.16-.36.35v.12c0 .2.16.36.36.35h.09c.2 0 .35-.15.35-.35v-.12c0-.2-.16-.35-.36-.35ZM27.03 22.66a.41.41 0 1 0 0-.83.41.41 0 0 0 0 .83ZM18.98 22.46c.03-.24-.13-.46-.35-.48-.22-.03-.42.15-.45.4-.03.23.13.45.35.47.22.03.43-.15.45-.39ZM30.82 22.84a.42.42 0 1 0 0-.84.42.42 0 0 0 0 .84ZM21.27 22.12h-.07c-.2.03-.35.21-.32.41l.01.1c.02.2.2.34.4.32h.08c.2-.03.34-.21.32-.41l-.02-.1a.37.37 0 0 0-.4-.32ZM16.18 23.36a.4.4 0 1 0 0-.8.4.4 0 0 0 0 .8ZM39.93 23.34a.4.4 0 1 0 0-.78.4.4 0 0 0 0 .78ZM16.49 25.43a.4.4 0 1 0 0-.79.4.4 0 0 0 0 .79ZM39.63 25.44a.4.4 0 1 0 0-.8.4.4 0 0 0 0 .8ZM14.85 27.11a.43.43 0 1 0 0-.86.43.43 0 0 0 0 .86ZM41.26 27.11a.44.44 0 1 0 0-.87.44.44 0 0 0 0 .87ZM39.63 28.51a.4.4 0 1 0 0-.78.4.4 0 0 0 0 .78ZM16.5 28.5a.39.39 0 1 0 0-.77.39.39 0 0 0 0 .77ZM40.9 30.1a.38.38 0 1 0 0-.77.38.38 0 0 0 0 .77ZM15.21 30.1a.39.39 0 1 0 0-.77.39.39 0 0 0 0 .78ZM39.98 33.27a.43.43 0 1 0 0-.87.43.43 0 0 0 0 .87ZM16.54 32.86a.44.44 0 0 0-.4-.47.44.44 0 0 0-.45.43c-.01.24.16.45.4.47.24 0 .44-.18.45-.43ZM21.68 33.5a.43.43 0 0 0-.29-.53.43.43 0 0 0-.51.32c-.06.23.07.47.29.53.22.06.45-.08.51-.32ZM18.99 33.54c.01-.25-.16-.46-.38-.47-.23-.02-.43.17-.44.42-.01.25.16.46.38.47.23.02.43-.17.44-.42ZM31.23 33.58a.42.42 0 0 0-.33-.5.42.42 0 0 0-.49.36c-.04.23.11.46.34.5.23.03.44-.13.48-.36ZM24.57 34.11a.43.43 0 1 0 0-.85.43.43 0 0 0 0 .85ZM27.03 34.1a.42.42 0 1 0 0-.83.42.42 0 0 0 0 .84ZM34.98 34.1a.41.41 0 1 0 0-.83.41.41 0 0 0 0 .83ZM37.83 33.78a.42.42 0 0 0-.44-.4.42.42 0 0 0-.38.46c.02.23.21.41.44.4.22-.02.4-.22.38-.46ZM33.46 34.62c0-.24-.17-.44-.4-.45-.22 0-.4.19-.4.43-.01.24.16.44.39.44.22 0 .4-.18.41-.42ZM22.9 34.72a.42.42 0 0 0-.46-.38.42.42 0 0 0-.36.48c.03.24.24.4.47.37a.42.42 0 0 0 .35-.47ZM29 35.05c.02-.25-.15-.46-.38-.48-.23-.02-.44.17-.45.42-.02.24.15.45.39.47.23.02.43-.17.45-.41ZM20.68 35.2a.42.42 0 0 0-.46-.39.42.42 0 0 0-.36.47c.03.24.23.4.45.38a.42.42 0 0 0 .37-.47ZM18.08 35.38c0-.25-.19-.44-.42-.44-.23 0-.4.2-.4.45 0 .24.19.44.42.43.23 0 .4-.2.4-.44ZM31.2 35.91a.42.42 0 0 0-.27-.52.42.42 0 0 0-.51.3c-.06.24.06.47.28.53.22.06.45-.08.5-.31ZM35.72 36.33a.42.42 0 1 0 0-.84.42.42 0 0 0 0 .84ZM38.57 36.01c.06-.24-.07-.47-.29-.52-.22-.06-.44.09-.5.32-.06.24.07.47.29.53.22.05.44-.1.5-.33ZM33.92 36.64a.43.43 0 1 0 0-.85.43.43 0 0 0 0 .85ZM24.39 36.3c-.02-.24-.22-.43-.44-.41-.22.01-.4.22-.38.46.02.25.22.43.44.42.22-.02.4-.23.38-.47ZM26.44 36.75a.42.42 0 1 0 0-.85.42.42 0 0 0 0 .85ZM21.74 37.46a.41.41 0 1 0 0-.83.41.41 0 0 0 0 .83ZM19.55 37.87a.41.41 0 1 0 0-.82.41.41 0 0 0 0 .82ZM29.33 37.45c0-.24-.19-.43-.41-.42-.22 0-.4.2-.4.44.01.24.2.43.42.43.22 0 .4-.2.39-.45ZM32.43 37.89a.42.42 0 1 0 0-.85.42.42 0 0 0 0 .85ZM36.51 37.8a.42.42 0 0 0-.49-.34.42.42 0 0 0-.32.5c.05.23.27.38.5.34a.42.42 0 0 0 .31-.5ZM24.68 38.32c.02-.23-.15-.43-.37-.45-.22-.01-.41.17-.43.4-.01.23.15.44.37.45.22.02.42-.16.43-.4ZM27.22 38.99a.42.42 0 1 0 0-.85.42.42 0 0 0 0 .85ZM30.72 39.03a.42.42 0 0 0-.36-.48.42.42 0 0 0-.46.38c-.03.24.14.46.36.48.23.03.44-.14.46-.38ZM33.93 39.48a.42.42 0 1 0 0-.85.42.42 0 0 0 0 .85ZM22.1 39.53a.42.42 0 1 0 0-.83.42.42 0 0 0 0 .83ZM31.9 40.62a.42.42 0 1 0 0-.84.42.42 0 0 0 0 .84ZM24.57 40.6a.4.4 0 1 0 0-.81.4.4 0 0 0 0 .8ZM29.22 41.03a.41.41 0 1 0 0-.82.41.41 0 0 0 0 .82ZM27.06 41.21a.42.42 0 1 0 0-.83.42.42 0 0 0 0 .83Z" fill="#D4A475"/><path d="M36.2 26c.26 0 .63.04.9.13.26.09.41.13.44.13.08 0 .15-.03.2-.08a.37.37 0 0 0 .09-.17H38v1.32h-.16c-.15-.3-.3-.52-.46-.68-.3-.3-.74-.46-1.1-.46-.43 0-.73.16-.9.5-.18.32-.27.75-.27 1.3 0 .4.05.74.16 1 .2.49.55.73 1.08.73.32 0 .62-.08.9-.24.16-.1.35-.24.56-.45l.19.14c-.24.25-.46.42-.65.53-.33.2-.7.3-1.1.3-.62 0-1.14-.17-1.55-.5-.47-.36-.7-.85-.7-1.47s.22-1.11.66-1.5c.42-.35.93-.53 1.54-.53ZM29 26h4v1.2h-.2c-.05-.43-.23-.72-.53-.87a1.82 1.82 0 0 0-.74-.14v3.12c0 .22.04.36.12.43.1.07.27.11.54.11V30h-2.36v-.15c.26 0 .43-.04.51-.1.09-.08.13-.23.13-.44v-3.12c-.32.01-.57.06-.74.14-.32.15-.5.44-.54.86H29V26ZM24 29.85c.18 0 .3-.03.39-.06.13-.07.2-.18.2-.36v-2.86c0-.17-.07-.3-.2-.35-.06-.04-.2-.06-.39-.07V26h2.05c.4 0 .73.04.99.12.49.15.74.43.74.83 0 .25-.1.44-.3.59-.2.14-.42.23-.65.27v.05c.24.05.46.12.64.22.35.2.53.47.53.82 0 .33-.17.6-.5.8-.35.2-.8.3-1.36.3H24v-.15Zm1.64-2.06c.41 0 .69-.05.83-.17.14-.12.21-.34.21-.64 0-.23-.05-.42-.14-.57-.09-.15-.27-.23-.53-.23-.14 0-.23.02-.29.06-.05.04-.08.12-.08.23v1.32Zm0 1.66c0 .1.02.18.06.23.05.09.15.13.3.13.32 0 .54-.08.66-.23.13-.15.2-.37.2-.65 0-.42-.14-.7-.42-.84a1.8 1.8 0 0 0-.8-.12v1.48ZM18 29.85c.18 0 .3-.03.38-.07.13-.06.2-.18.2-.35v-2.86c0-.17-.06-.28-.18-.34-.07-.04-.2-.06-.4-.08V26h2.29v.15c-.2.01-.34.03-.41.07-.13.06-.2.18-.2.35l.02 1.16h1.62l-.02-1.16c0-.17-.06-.29-.18-.35a1.24 1.24 0 0 0-.42-.07V26H23v.15c-.2.01-.33.04-.4.08-.13.06-.19.17-.19.34v2.86c0 .18.07.3.2.36.08.03.2.05.39.06V30h-2.3v-.15c.2 0 .33-.03.41-.07.13-.06.19-.18.19-.35l.02-1.43H19.7l-.01 1.43c0 .18.06.3.2.36.08.03.21.05.4.06V30H18v-.15Z" fill="#2E2C6D"/></svg>