<!-- by TradingView --><svg width="56" height="56" viewBox="0 0 56 56" xmlns="http://www.w3.org/2000/svg"><path fill="#181B1E" d="M0 0h56v56H0z"/><path d="M20 24a4 4 0 0 1 0 8h-3v-8h3Zm-1.49 1.2v5.59h1.26a2.8 2.8 0 1 0 0-5.58H18.5ZM16 25.4h-3.5v1.9H16v1.4h-3.5v1.9H16V32h-5v-8h5v1.4ZM38 25.4h-3.5v1.9H38v1.4h-3.5v1.9H38V32h-5v-8h5v1.4ZM52 25.4h-3.5v1.9H52v1.4h-3.5v1.9H52V32h-5v-8h5v1.4ZM5.5 27.3h3V24H10v8H8.5v-3.3h-3V32H4v-8h1.5v3.3ZM42.77 27.78 45 24h1.33l-2.83 4.66V32H42v-3.34L39 24h1.33l2.44 3.78ZM28.86 24a3.8 3.8 0 0 1 3.06 1.56l-1 .71a2.6 2.6 0 0 0-2.06-1.01c-1.46 0-2.36 1.22-2.36 2.74 0 1.52.9 2.74 2.36 2.74.76 0 1.16-.33 1.64-.87V29h-2.04v-1H32v2.32A3.81 3.81 0 0 1 28.86 32 3.93 3.93 0 0 1 25 28c0-2.2 1.73-4 3.86-4Z" fill="#FEFEFE"/></svg>