<!-- by TradingView --><svg width="56" height="56" viewBox="0 0 56 56" xmlns="http://www.w3.org/2000/svg"><path fill="#F0F3FA" d="M0 0h56v56H0z"/><path d="m40 16 .53.02a14.83 14.83 0 0 1 1.8.14 9 9 0 0 1 1.86.44c.66.23 1.22.53 1.67.9.74.61 1.12 1.41 1.14 2.4v.17a5.88 5.88 0 0 1-.81 2.48c-.44.75-.95 1.46-1.54 2.12a22.58 22.58 0 0 1-2.36 2.29 8.84 8.84 0 0 0 1.67-2.75c.27-.72.35-1.42.25-2.1a3.65 3.65 0 0 0-.86-1.91 5.46 5.46 0 0 0-1.4-1.15 11.58 11.58 0 0 0-4.04-1.26 22.66 22.66 0 0 0-5.14-.1 35.22 35.22 0 0 0-6.08 1.03 50.5 50.5 0 0 1 6.94-2 35.16 35.16 0 0 1 6.02-.72H40Z" fill="#F5A236"/><path d="M33.29 25.56h-3.05c-.02 0-.04 0-.04-.03a1.5 1.5 0 0 0-.53-.91 2.39 2.39 0 0 0-2.78.06 3.5 3.5 0 0 0-1.1 1.51c-.17.4-.3.83-.4 1.3a4.5 4.5 0 0 0-.08 1.55c.08.6.32 1.04.7 1.34.23.19.55.31.95.37a2.75 2.75 0 0 0 2.52-.87c.18-.22.35-.55.45-.86l-.01-.02h-1.65c-.02 0-.03 0-.03-.02l.4-1.96c0-.02.01-.02.03-.02h5.1l.02-.02 2.74-4.86.04-.03H40c.02 0 .03.01.04.03L42 32.5c0 .01 0 .02-.02.02h-3.2l-.02-.02-.17-1.4c0-.02-.02-.09-.04-.09h-3.99c-.02 0-.03.07-.04.08l-.68 1.4c0 .02-.02.03-.04.03h-3.54c-.01 0-.02 0-.02-.02V31.4c0-.02 0-.02-.02-.01v.01a4.96 4.96 0 0 1-2.96 1.52c-.75.11-1.51.09-2.29-.08a3.93 3.93 0 0 1-1.57-.71 3.42 3.42 0 0 1-1.07-1.35 8.58 8.58 0 0 1-.2-.45 5.64 5.64 0 0 1-2.95 1.86 9.3 9.3 0 0 1-1.7.29c-.3.02-.87.03-1.7.03h-3.75c-.02 0-.03 0-.03-.03l1.91-10.36c0-.02.02-.03.03-.03h4.6c1 .02 1.81.1 2.43.27.9.24 1.57.66 2.03 1.25.15.2.3.5.46.85a9.2 9.2 0 0 1 .46-.47c.96-1 2.12-1.62 3.5-1.87.5-.09 1.03-.13 1.61-.13 1.31 0 2.36.34 3.14.99.7.59 1.1 1.43 1.15 2.54 0 .02-.01.03-.03.03ZM15.7 30.44c.65 0 1.13 0 1.46-.02a3.02 3.02 0 0 0 1.68-.62c.46-.35.8-.85 1.04-1.48.26-.7.4-1.43.41-2.18.01-.65-.17-1.14-.55-1.46-.12-.1-.27-.19-.45-.26-.27-.1-.57-.17-.91-.2a13.37 13.37 0 0 0-1.56-.03l-1.15 6.21c0 .03 0 .04.03.04ZM35.5 29h2.93l.02-.03-.66-4.6c0-.02 0-.02-.01 0l-2.29 4.6.01.03Z" fill="#0F477E"/><path d="M14.4 38h-.37l-.51-.02a15.65 15.65 0 0 1-1.84-.14 9.02 9.02 0 0 1-1.87-.43 5.5 5.5 0 0 1-1.67-.91A3.05 3.05 0 0 1 7 34.2V34c.07-1.26.68-2.6 1.82-4.04a18.75 18.75 0 0 1 1.9-2.03c-.34.47-.62.94-.84 1.43-.25.56-.4 1.1-.46 1.6a3.7 3.7 0 0 0 .9 2.95 6.6 6.6 0 0 0 3.1 1.86 28.06 28.06 0 0 0 1.48.37l.38.06a11.29 11.29 0 0 0 1.7.22c1.85.12 3.76.04 5.74-.24a35.47 35.47 0 0 0 4.73-.96 47.67 47.67 0 0 1-8.64 2.34 34.85 34.85 0 0 1-4.4.44Z" fill="#F5A236"/><path d="M42.1 34c.03 0 .04.01.04.03l.5 3.94c0 .02 0 .03-.03.03h-1.17c-.03 0-.04-.02-.05-.05l-.03-.67c0-.02-.01-.03-.03-.03h-.89c-.02 0-.03 0-.04.03l-.25.69c0 .02-.02.03-.04.03h-3.8c-.03 0-.03-.01-.03-.03l.61-3.93c0-.03.02-.04.04-.04h1.16c.02 0 .02.01.02.04l-.45 2.89c0 .02 0 .03.02.03h1.52c.02 0 .03 0 .03.03-.03.1-.05.22-.06.36 0 .02 0 .05-.02.07-.02.02-.02.04-.02.05h.03l1.5-3.44c0-.02.02-.03.04-.03h1.4Zm3.88 0c.02 0 .02 0 .02.03l-.16 1-.02.01h-1.05l-.02.02-.45 2.92c0 .01 0 .02-.02.02H43.1c-.01 0-.02 0-.02-.03l.45-2.9-.01-.03h-1.05c-.01 0-.02 0-.01-.02l.15-1c0-.01 0-.02.02-.02h3.35ZM30.8 34c.23-.01.45 0 .64.05.5.11.74.41.72.9-.02.56-.28.91-.77 1.04l-.01.01v.01l.25.07c.18.1.29.27.31.49.03.19-.01.39-.1.6-.16.34-.44.59-.86.72-.35.12-.72.14-1.11.07-.54-.1-.83-.4-.87-.9 0-.03 0-.05.03-.05l1.11-.47h.02v.02c-.04.24.02.38.18.41.26.05.42-.05.46-.3v-.06a.22.22 0 0 0-.16-.18.78.78 0 0 0-.24-.01h-.1c-.02 0-.02-.01-.02-.03l.11-.73c0-.02.02-.03.04-.03h.08a.8.8 0 0 0 .18 0c.18-.05.27-.2.26-.43 0-.08-.04-.14-.11-.17a.3.3 0 0 0-.34.07c-.09.1-.14.2-.16.35 0 .03 0 .03-.03.03l-.94-.34c-.02 0-.02-.02-.02-.04.13-.5.43-.83.9-.99.16-.05.35-.09.55-.1Zm4.2 0c.02 0 .02 0 .02.02l-.15.98c0 .02-.02.03-.03.03h-1.4c-.02 0-.04.01-.04.03l-.15.58v.01c.14-.11.3-.18.5-.2.35-.05.63.02.84.2.22.2.3.5.25.89-.06.4-.21.73-.46.98s-.55.4-.93.45a2.1 2.1 0 0 1-1.01-.08c-.27-.1-.48-.28-.6-.56-.02-.02-.01-.03 0-.04l1.1-.65h.02v.03c0 .16.05.26.15.32.08.05.2.06.33.03.11-.02.2-.08.26-.18.05-.1.07-.21.06-.34a.21.21 0 0 0-.07-.13.25.25 0 0 0-.12-.07.69.69 0 0 0-.55.1.07.07 0 0 1-.05.01l-.8-.17c-.02 0-.03 0-.02-.03l.57-2.18c0-.02.01-.03.03-.03h2.26Zm6.23 1.06-.02.01-.46 1.28c-.01.02 0 .03.01.03h.54l.01-.02-.07-1.28-.01-.02Z" fill="#0F477E"/></svg>