<!-- by TradingView --><svg width="56" height="56" viewBox="0 0 56 56" xmlns="http://www.w3.org/2000/svg"><path fill="#083159" d="M0 0h56v56H0z"/><path d="M4 32v-8h1v3h4v-3h1v8H9v-4H5v4H4ZM16 24h-5v8h5v-1h-4v-3h4v-1h-4v-2h4v-1ZM38 24h-5v8h5v-1h-4v-3h4v-1h-4v-2h4v-1ZM52 24h-5v8h5v-1h-4v-3h4v-1h-4v-2h4v-1ZM40 24h-1l3 4.5V32h1v-3.5l3-4.5h-1l-2.5 3.5L40 24ZM32 25.5l-1 .5c-.5-.5-1-1-2-1s-3 .5-3 3 2 3 3 3c.8 0 1.83-.33 2-.5V29h-2v-1h3v2.5c-.17.5-1 1.5-3 1.5-2.5 0-4-1.5-4-4s2-4 4-4c1.6 0 2.67 1 3 1.5ZM20.5 24c1.17 0 3.5 1.2 3.5 4 0 3-2 4-3.5 4H17v-8h3.5ZM18 31h2.5c.67 0 2.5-.2 2.5-3 0-.83-.9-3-2.5-3H18v6Z" fill="#fff"/></svg>