<!-- by TradingView --><svg width="56" height="56" viewBox="0 0 56 56" xmlns="http://www.w3.org/2000/svg"><path fill="#F0F3FA" d="M0 0h56v56H0z"/><path d="M28.34 31v-6H29v2.63h3V25h.66v6H32v-2.74h-3V31h-.66ZM34.81 30.99c-.37 0-.69-.1-.97-.29a1.9 1.9 0 0 1-.64-.8 2.9 2.9 0 0 1-.23-1.2c0-.45.07-.85.23-1.2.15-.34.37-.6.64-.8.28-.19.6-.28.97-.28s.69.1.96.28c.28.2.5.46.65.8.16.35.23.75.23 1.2 0 .47-.07.86-.23 1.2-.15.35-.37.61-.65.8-.27.2-.6.29-.96.29Zm0-.61c.28 0 .5-.08.69-.24.18-.15.31-.36.4-.6.09-.26.13-.54.13-.83 0-.3-.04-.57-.13-.83a1.4 1.4 0 0 0-.4-.62 1 1 0 0 0-.69-.23 1 1 0 0 0-.69.23 1.4 1.4 0 0 0-.4.62c-.09.26-.13.53-.13.83 0 .3.04.57.13.82s.22.46.4.61c.18.16.41.24.69.24ZM37.72 31l-1.24-4.53h.66l.88 3.39h.04l.87-3.39h.67l.85 3.38h.05l.88-3.38h.65L40.8 31h-.61l-.9-3.5h-.05l-.9 3.5h-.61ZM43.39 31c-.26 0-.5-.05-.7-.16-.22-.1-.38-.26-.5-.46a1.4 1.4 0 0 1-.2-.74c0-.25.05-.46.15-.62.09-.15.21-.28.36-.37.16-.09.33-.16.51-.2a5.77 5.77 0 0 1 1.17-.19.87.87 0 0 0 .34-.1c.07-.04.1-.11.1-.22v-.03c0-.28-.07-.5-.2-.66-.15-.16-.36-.23-.65-.23-.3 0-.53.07-.7.2-.17.15-.3.3-.36.46l-.6-.23a1.54 1.54 0 0 1 1-.94 2.24 2.24 0 0 1 1.09-.04c.17.03.33.1.5.2.15.1.29.26.4.47.1.21.15.5.15.84V31h-.62v-.7h-.04a1.2 1.2 0 0 1-.6.58c-.17.08-.37.12-.6.12Zm.1-.61c.24 0 .45-.05.62-.16.17-.1.3-.24.38-.4.1-.17.14-.35.14-.53v-.63c-.03.04-.09.07-.18.1l-.3.07a12.67 12.67 0 0 1-.6.09c-.17.02-.32.06-.46.1a.78.78 0 0 0-.34.24.61.61 0 0 0-.13.4c0 .24.08.42.24.54.17.12.37.18.62.18ZM45.72 31v-4.53h.6v.67h.05c.07-.22.2-.4.4-.53.2-.14.41-.2.66-.2a6.47 6.47 0 0 1 .33 0v.7a1.7 1.7 0 0 0-.39-.05c-.2 0-.37.05-.53.14a.97.97 0 0 0-.36.37c-.09.15-.13.33-.13.53V31h-.63Z" fill="#17335E"/><path d="M49.14 30.99c-.34 0-.64-.1-.9-.28a1.86 1.86 0 0 1-.6-.8 3.09 3.09 0 0 1-.23-1.21c0-.47.07-.87.22-1.21.15-.34.35-.6.61-.8.26-.18.57-.27.9-.27.27 0 .48.04.64.14.15.1.27.2.35.32l.2.3h.05V25H51v6h-.6v-.78h-.07l-.2.3c-.09.12-.2.23-.36.33-.16.1-.37.14-.63.14Zm.08-.61c.25 0 .47-.07.64-.21.17-.15.3-.35.4-.6.08-.26.13-.55.13-.88 0-.33-.05-.62-.13-.87a1.26 1.26 0 0 0-.4-.58.99.99 0 0 0-.64-.21 1 1 0 0 0-.66.22c-.17.14-.3.34-.4.6-.08.24-.12.52-.12.84 0 .31.04.6.13.85.09.26.22.46.4.61.17.15.4.23.65.23Z" fill="#17335E"/><path fill-rule="evenodd" d="M4 23h48v10H4V23Zm47.58 9.53v-9.11H27.8l-3.3 9.1h27.07ZM5.36 25h.8l1.81 4.94h.06L9.84 25h.8v6H10v-4.44h-.04L8.3 31h-.6l-1.67-4.44H6V31h-.64v-6ZM12 31v-4.39h.63V31H12Zm2.62 0v-6H14v6h.62Zm1.75-6v6h-.63v-6h.63Zm1.93 5.73c.28.18.62.27 1.02.27a2 2 0 0 0 .75-.13 1.43 1.43 0 0 0 .88-.95l-.6-.18a.95.95 0 0 1-.58.6 1.3 1.3 0 0 1-.45.07 1.2 1.2 0 0 1-1.12-.69c-.1-.2-.15-.45-.16-.73H21v-.28c0-.4-.03-.74-.13-1.02-.1-.27-.24-.5-.41-.66a1.56 1.56 0 0 0-.57-.36c-.21-.08-.42-.11-.63-.11-.37 0-.7.1-.98.28-.27.19-.49.45-.64.8-.16.33-.23.71-.23 1.15 0 .45.07.83.23 1.16.15.33.37.6.66.78Zm-.26-2.32c.01-.2.06-.38.15-.56.1-.2.23-.38.41-.5.19-.14.4-.2.66-.2a1.05 1.05 0 0 1 .98.61c.09.2.14.41.14.65h-2.34ZM22 31v-4.39h.62v.65h.04c.08-.21.21-.38.4-.52.2-.13.43-.2.67-.2a6.5 6.5 0 0 1 .33.02v.67a1.79 1.79 0 0 0-.38-.05c-.2 0-.38.05-.54.13a.96.96 0 0 0-.5.88V31H22Zm-10-6h.62v.72H12V25Z" fill="#17335E"/></svg>