<!-- by TradingView --><svg width="56" height="56" viewBox="0 0 56 56" xmlns="http://www.w3.org/2000/svg"><path fill="#F0F3FA" d="M0 0h56v56H0z"/><path d="M9.55 22v5H7.83l1.72 2.29V34H7V22h2.55ZM17 22v12h-2.54v-4.71H11.2L9.55 27h4.9v-5H17Zm5.77 3.77L25.59 22h2.84L24 28.13V34h-2.44v-6l-3.54-4.8-.88-1.2h2.94l2.69 3.77ZM34.6 22c1.2 0 2.23.43 3.1 1.28.87.85 1.3 1.82 1.3 2.94 0 2.34-2.12 4.23-4.4 4.23h-3.01V34H29V22h5.6Zm10.34 0c.66 0 1.28.08 1.84.22.56.15 1.07.37 1.53.67.46.3.82.72 1.09 1.26a4.35 4.35 0 0 1 .06 3.5c-.23.47-.53.84-.9 1.12a5.1 5.1 0 0 1-2.39.94L50 34h-2.84l-4.68-5.37V34H40V22h4.94ZM31.6 28h2.62c1.09 0 2.18-.61 2.18-1.78 0-.54-.21-1-.64-1.36a2.3 2.3 0 0 0-1.54-.55h-2.62V28Zm10.89-.3h2.28c.41 0 .8-.04 1.14-.11.35-.08.67-.25.97-.53.3-.27.45-.62.45-1.05 0-.44-.15-.8-.44-1.06-.3-.27-.61-.44-.95-.52a5.33 5.33 0 0 0-1.14-.12h-2.31v3.4Z" fill="url(#a)"/><defs><linearGradient id="a" x1="7.83" y1="34.64" x2="11.88" y2="13.21" gradientUnits="userSpaceOnUse"><stop stop-color="#3E0ED5"/><stop offset="1" stop-color="#997FE8"/></linearGradient></defs></svg>