<!-- by TradingView --><svg width="56" height="56" viewBox="0 0 56 56" xmlns="http://www.w3.org/2000/svg"><path fill="#F0F3FA" d="M0 0h56v56H0z"/><path d="M45 32v-8h1.53v3.39h3.93V24H52v8h-1.54v-3.4h-3.93V32H45ZM39.48 26.6a1.86 1.86 0 0 0-1.85-1.33c-1.5 0-2.2 1.38-2.2 2.72 0 1.38.7 2.74 2.23 2.74 1.11 0 1.96-.64 1.96-1.78l.32.05H38v-1h3v.83c0 1.93-1.45 3.17-3.35 3.17-2.28 0-3.65-1.81-3.65-4 0-2.13 1.35-4 3.61-4 1.57 0 3.07.97 3.32 2.6h-1.45ZM23.67 32H22l3.03-8h1.93L30 32h-1.67l-2.3-6.36h-.07L23.66 32Zm.01-3h4.55v1.16h-4.55V29ZM12 25.21V24h7v1.21h-2.71V32H14.7v-6.79H12ZM4 32v-8h1.53v3.39h3.93V24H11v8H9.46v-3.4H5.53V32H4Z"/></svg>