<!-- by TradingView --><svg width="56" height="56" viewBox="0 0 56 56" xmlns="http://www.w3.org/2000/svg"><path fill="#F0F3FA" d="M0 0h56v56H0z"/><path d="M4 25h1v2.5h5V25h1v6h-1v-2.5H5V31H4v-6ZM35 25h1v2.5h5V25h1v6h-1v-2.5h-5V31h-1v-6ZM13 25h-1v6h6v-1h-5v-1.5h5v-1h-5V26h5v-1h-5Z" fill="#004B84"/><path fill-rule="evenodd" d="M19 25h5.65c.6 0 1.35.6 1.35 1.25v1.07c0 .52-.36.95-.85 1.06.62.2.85.64.85.87V31h-1v-1.54c0-.46-.4-.46-.7-.46H20v2h-1v-6Zm1 3v-2h4.19c.45 0 .81.3.81.65v.7c0 .36-.36.65-.81.65H20Z" fill="#004B84"/><path d="M34 26.33v.4h-1v-.25c0-.41-.27-.48-.69-.48h-3.75c-.42 0-.56.17-.56.58v.25c0 .41.14.67.56.67h3.92c.84 0 1.52.55 1.52 1.36v.66A1.5 1.5 0 0 1 32.48 31h-4.1c-.77 0-1.38-.6-1.38-1.33V29h1v.41c0 .41.14.59.56.59h3.9c.43 0 .54-.07.54-.48v-.5c0-.41-.11-.52-.53-.52h-3.95c-.84 0-1.52-.62-1.52-1.44v-.58c0-.82.68-1.48 1.52-1.48h3.96c.76 0 1.52.6 1.52 1.33ZM43 31l3.94-6h1.13L52 31h-1.2l-.64-1h-5.3l-.66 1H43Zm2.53-2h3.97l-1.96-3.01-2 3.01Z" fill="#004B84"/></svg>