<!-- by TradingView --><svg width="56" height="56" viewBox="0 0 56 56" xmlns="http://www.w3.org/2000/svg"><path fill="#F0F3FA" d="M0 0h56v56H0z"/><ellipse cx="28" cy="20.5" rx="2" ry="2.5" fill="#1B3565"/><path d="m25 23.45-4-1.81L28 38l9-20-5 3.64-3 7.27-4-5.46Z" fill="#F13832"/><path d="M9 22h4v5h3v-5h4v13h-4v-6h-3v6H9V22Z" fill="#1B3565"/><path fill-rule="evenodd" d="M39 22h-3v13h7.4c2.7 0 3.6-1.64 3.6-3.5 0-1.49-1-2.5-2.7-3 1.7 0 2.7-2.07 2.7-3 0-2.97-2.4-3.5-3.6-3.5H39Zm1 2v3.5h1c.6 0 2-.26 2-1.75S41.6 24 41 24h-1Zm0 5.5V33h1.6c.6 0 1.4-.26 1.4-1.75s-1.4-1.75-2-1.75h-1Z" fill="#1B3565"/></svg>