<!-- by TradingView --><svg width="56" height="56" viewBox="0 0 56 56" xmlns="http://www.w3.org/2000/svg"><path fill="#F0F3FA" d="M0 0h56v56H0z"/><path d="M48.03 31c1.83 0 3.97-.91 3.97-3.02 0-1.55-.87-2.45-2.62-2.75-.82-.16-3.38.01-3.38-1.23 0-.84 1.29-1 2-1 .83 0 1.92.55 2 1.5h2c0-2-2.07-3.5-4-3.5-1.8 0-4 .94-4 3 0 2.47 2.36 2.73 4.25 3.07.62.1 1.75.15 1.75.93 0 .9-1.27 1-2 1-1.26 0-1.9-.56-2-1.5h-2c.23 2.3 1.97 3.5 4.03 3.5ZM6 31H4V21h2v4h5v-4h2v10l3.84-10h2.64l3.87 10h-2.4l-.78-2h-4.09l-.8 2H11v-4H6v4Zm12.17-7.6h-.04L16.76 27h2.75l-1.34-3.6ZM30.29 31h2.54l2.64-10h-2.3l-1.67 7.02h-.03L29.84 21h-2.3l-1.63 7.02h-.04L24.21 21h-2.42l2.63 10h2.55l1.64-7.06h.03L30.29 31Zm14.57 0h-2.83l-3-4.01-1.53 1.51V31h-2.03V21h2.03v4.7l4.26-4.7h2.64l-3.82 4.3 4.28 5.7ZM9.4 32.73c.38 0 .62.22.7.64h.82c-.15-.88-.68-1.37-1.53-1.37-1.12 0-1.72.99-1.72 2.02 0 1.06.6 1.98 1.72 1.98.85 0 1.39-.5 1.53-1.34h-.83c-.07.43-.31.65-.7.65-.54 0-.85-.47-.85-1.3 0-.82.31-1.28.85-1.28ZM6.88 36h.87l-1.4-4H5.4L4 36h.83l.3-1H6.6l.28 1Zm-1.02-3.03h.01l.49 1.44h-1l.5-1.44Zm8.23 2.56.3.37-.42.4-.35-.42c-.21.1-.47.12-.75.12-1.14 0-1.75-.9-1.75-1.98 0-1.05.62-2.02 1.75-2.02s1.75.98 1.75 2.02c0 .62-.19 1.15-.53 1.51Zm-1.22-2.8c-.56 0-.88.46-.88 1.29 0 .82.32 1.29.88 1.29h.14l.12-.04-.31-.38.42-.4.34.4c.11-.22.17-.5.17-.87 0-.83-.31-1.3-.88-1.3ZM18 34.4V32h-.85v2.37c0 .62-.17.93-.65.93s-.63-.3-.63-.93V32H15v2.4c0 1 .5 1.6 1.49 1.6 1 0 1.5-.6 1.5-1.6ZM19.57 36h-.85v-4h.85v4Zm.84-.3c.29.23.67.3 1.15.3.42 0 .77-.07 1.04-.3.27-.22.4-.52.4-.88 0-.31-.08-.56-.23-.74a1.2 1.2 0 0 0-.72-.37l-.67-.15a.97.97 0 0 1-.4-.15.34.34 0 0 1-.1-.26c0-.14.05-.26.15-.34.11-.09.25-.13.43-.13.2 0 .36.04.47.14.12.09.2.21.2.38h.8a1.23 1.23 0 0 0-.44-.89c-.25-.2-.6-.31-1.04-.31-.41 0-.75.11-1.01.34-.27.23-.4.52-.4.88 0 .3.08.55.24.73.17.19.41.31.74.38l.62.12c.2.04.33.09.4.15.09.07.12.16.12.28 0 .15-.05.27-.17.35a.76.76 0 0 1-.46.13.88.88 0 0 1-.55-.15.58.58 0 0 1-.22-.44h-.83c.04.4.2.72.48.94Zm3.84.3h-.85v-4h.85v4ZM26 36h.85v-3.2H28V32h-3.32v.8H26V36Zm3.25 0h-.85v-4h.85v4Zm2.25-4c-1.13 0-1.75.97-1.75 2.02 0 1.07.61 1.98 1.75 1.98 1.13 0 1.75-.91 1.75-1.98 0-1.04-.63-2.02-1.75-2.02Zm0 3.31c-.57 0-.88-.47-.88-1.3 0-.82.32-1.28.88-1.28s.88.46.88 1.29c0 .82-.31 1.29-.88 1.29ZM33.75 32h.98l1.45 2.53V32H37v4h-.8l-1.63-2.79V36h-.82v-4Zm6.15.73c.2 0 .35.05.47.16s.2.27.23.48h.83a1.7 1.7 0 0 0-.51-1.01c-.26-.24-.6-.36-1.02-.36-1.12 0-1.72.99-1.72 2.02 0 1.06.59 1.98 1.72 1.98.42 0 .76-.08 1.02-.32s.43-.57.5-1.02h-.82a.82.82 0 0 1-.23.49.66.66 0 0 1-.47.16c-.55 0-.86-.47-.86-1.3 0-.82.32-1.28.86-1.28Zm3.49-.73c.52 0 .95.19 1.26.56.33.37.49.86.49 1.46s-.16 1.09-.49 1.46c-.31.37-.74.52-1.26.52-.53 0-.95-.15-1.27-.52a2.18 2.18 0 0 1-.48-1.46c0-.6.16-1.1.48-1.46.32-.37.74-.56 1.27-.56Zm0 3.31c.28 0 .5-.11.65-.33.15-.23.23-.55.23-.96 0-.41-.08-.73-.23-.95a.73.73 0 0 0-.65-.34c-.28 0-.5.11-.66.34-.15.22-.22.54-.22.95 0 .41.07.73.22.96.16.22.38.33.66.33Zm3 .69v-1.38h.66l.7 1.38h.92l-.8-1.53c.22-.1.39-.24.5-.43.13-.2.19-.43.19-.7 0-.4-.12-.72-.35-.94-.24-.22-.58-.4-1.02-.4h-1.63v4h.83Zm0-2.1v-1.1h.7c.21 0 .37.04.48.13.1.1.15.23.15.42 0 .18-.05.32-.15.41-.1.09-.27.13-.49.13h-.7Zm5.61-.54c0 .84-.48 1.3-1.37 1.3h-.76V36H49v-4h1.62c.8 0 1.38.57 1.38 1.36Zm-2.13-.57v1.23h.66c.43 0 .63-.28.63-.66s-.2-.57-.63-.57h-.66Z" fill="#004D78"/></svg>