<!-- by TradingView --><svg width="56" height="56" viewBox="0 0 56 56" xmlns="http://www.w3.org/2000/svg"><path fill="#F0F3FA" d="M0 0h56v56H0z"/><path d="M22 14.8c0-3.38 3.88-5.94 5.81-6.8-.28.6-.83 2.29-.83 4.18 0 5.53 6.02 7.72 6.02 12.2 0 3.57-2.7 5.9-4.06 6.62.16-.55.46-1.9.46-2.87 0-4.56-7.4-8.1-7.4-13.34ZM33 32a2.74 2.74 0 0 1-1.79 2H26.8A2.74 2.74 0 0 1 25 32h8ZM29.9 48h-1.8L27 36h4l-1.1 12Z" fill="#2A7560"/><path d="M25.32 23.78A21.89 21.89 0 0 1 22.26 20c-.9 5.2.73 6.69 2.28 7.7 1.25.81 2.56 2.54 3.06 3.3 1.17-3.04-.43-5.41-2.28-7.22Z" fill="#2A7560"/></svg>