<!-- by TradingView --><svg width="56" height="56" viewBox="0 0 56 56" fill="none" xmlns="http://www.w3.org/2000/svg">
<rect width="56" height="56" fill="#F0F3FA"/>
<path fill-rule="evenodd" clip-rule="evenodd" d="M9 39L16.8909 17H22.0455L30 39H25.3545L23.6081 34H14.5601L12.8182 39H9ZM15.6053 31H22.5603L19.0783 21.0311L15.6053 31Z" fill="black"/>
<path d="M37.6571 17.0002C42.7802 17.0319 44.9043 20.0461 45.326 21.5492L41.5706 22.6964C40.9381 20.6078 39.5025 20 37.9338 20C36.3651 20 34.0317 20.7027 34 22.6964C33.9684 24.69 37.0641 25.5312 38.5663 25.7026C45.8794 27.008 45.9585 31.2801 45.998 32.0712C46.0375 32.8623 45.5667 38.9935 37.6571 38.9935C31.224 38.9935 29.2503 35.1698 29 33.3765L32.5204 32.9414C33.6232 35.2146 36.1156 36.0489 37.5803 36C38.7662 35.9604 42 35.2752 42 32.9414C42 30.9731 38.4872 29.9088 36.906 29.6187C30.2649 28.2738 30.0396 25.0302 30 23.4084C29.9605 21.7866 31.2532 16.9607 37.6571 17.0002Z" fill="#EC5823"/>
</svg>
