<!-- by TradingView --><svg width="56" height="56" viewBox="0 0 56 56" xmlns="http://www.w3.org/2000/svg"><path fill="#002F4D" d="M0 0h56v56H0z"/><path d="M45.54 20.72c-.02-.05-.08-.05-.13-.05l-.04.01a.05.05 0 0 0-.01.04c-1.05 4.03-7.03 7.64-8.08 8.29-1.72 1.06-2.18 1.37-3.28 1.9-.14.09-.19.24-.03.3.27.1.51.25.7.43v.03l-.1.05c-.03 0-.03.02-.03.02l.02.03c.22.08.76.28.7.67 0 .26-.1.5-.35.62h-.02V32.94c0-.11-.03-.11-.11-.11-2 .18-2.5.88-3.02.93a.42.42 0 0 1-.43-.41c0-.03 0-.08.03-.1.1-.7.65-1.66-.05-2.54-1.03-1.26-14.35-3.87-16.99-13.68.03 0-.02-.03-.1-.03-.03 0-.03.03-.06.03-5 5.4 2.7 8.05 4.52 10.04.02.01.02.03.02.05 0 .02 0 .04-.02.05-.02.03-.05.03-.08 0-1.85-.85-6.27-1.83-8.2-5.37-.03-.05-.09-.05-.14-.02l-.04.01a.05.05 0 0 0-.01.04C8.46 28.46 18.39 28.7 20.78 30c.06.03.06.08.03.1.03.03-.03.06-.05.06-1.89-.41-5.76-.08-9.18-2.22-.06-.03-.11-.03-.14.02-.02.03-.02.06-.02.08 1.05 5.48 9.42 3.1 11.38 4.18.05.03.05.08.03.13-.03.03-.06.06-.08.06-1.27 0-4.95.87-8-.03-.05-.03-.1 0-.1.05v.08c1.9 4 8.07 1.55 9.95 1.75.06 0 .09.06.09.1 0 .06-.03.09-.09.09-1.23.25-3.23 1.13-5.76 1.39-.05 0-.08.05-.08.1 0 .03 0 .03.03.05 1.78 1.84 4.41.34 6.03.03 1.67-.31 2.61-.13 3.01.57.38.67.03 1.4-1 2.25-.02.02-.05.1 0 .12.04.03.06.03.09.03a2 2 0 0 0 1.4-.57c.16-.13.24-.05.21.03a.78.78 0 0 1-.16.33c-.02.05-.02.1.03.13.03.03.05.03.08.03.52-.13.99-.41 1.35-.8.3-.34 1.23-1.5 2.4-2.1 1.26-.64 3-.28 3.95-.36.91-.07 2.93-.07 4-1.93.04-.05 0-.1-.02-.13-.03-.03-.05-.03-.08 0a7.43 7.43 0 0 1-3.01.6c-.06 0-.08-.06-.08-.11s.02-.08.08-.08c5.06-.98 6.13-3.07 6.35-3.74.02-.05 0-.1-.06-.1h-.08c-.53.3-2.2 1.18-3.36 1.34-.05 0-.1-.03-.1-.08s.02-.08.05-.1c1.56-.7 5.62-2.43 5.54-5.17 0-.05-.05-.1-.1-.08-.03 0-.06 0-.06.03-.92.85-1.97 1.55-3.12 2.1-.06.02-.11 0-.14-.06-.03-.05 0-.1.03-.13 1.88-1.29 5.2-4.05 3.52-7.33Z" fill="#F0C430"/></svg>