<!-- by TradingView --><svg width="56" height="56" viewBox="0 0 56 56" fill="none" xmlns="http://www.w3.org/2000/svg">
<rect width="56" height="56" fill="#333331"/>
<path fill-rule="evenodd" clip-rule="evenodd" d="M41.3842 14.0921C41.9459 14.5139 42.5191 15.7318 41.1709 17.8313C41.0996 17.9423 41.0155 18.0729 40.9194 18.222C38.7449 21.5962 30.4904 34.4047 28.204 42.5281C28.0168 43.2467 27.2958 44.4682 25.9102 43.606C24.5246 42.7437 25.0832 39.9975 25.5357 38.7322C27.377 34.6239 32.5388 24.4015 38.4558 16.3785C39.85 14.4882 40.5603 13.7172 41.3842 14.0921ZM35.4699 17.9288C36.8181 15.8293 36.2449 14.6114 35.6831 14.1896C34.8593 13.8147 34.149 14.5857 32.7548 16.476C26.8378 24.499 21.676 34.7213 19.8347 38.8297C19.3822 40.095 18.8235 42.8412 20.2092 43.7034C21.5948 44.5657 22.3157 43.3441 22.503 42.6256C24.7894 34.5022 33.0438 21.6938 35.2184 18.3195L35.2184 18.3194L35.2197 18.3174C35.3152 18.1692 35.3989 18.0393 35.4699 17.9288ZM20.9978 27.2111C21.7555 27.2375 23.0733 27.7374 22.2826 29.5263C21.2943 31.7623 19.9699 31.9206 18.9619 31.881C17.9538 31.8414 16.8271 30.8718 17.7166 29.269C18.6061 27.6662 20.0094 27.2111 20.9978 27.2111ZM17.6037 33.282C18.3615 33.3084 19.6792 33.8083 18.8886 35.5972C17.9002 37.8332 16.5759 37.9915 15.5678 37.9519C14.5597 37.9123 13.4331 36.9427 14.3226 35.3399C15.212 33.7371 16.6154 33.282 17.6037 33.282Z" fill="#13C812"/>
</svg>
