<!-- by TradingView --><svg width="56" height="56" viewBox="0 0 56 56" xmlns="http://www.w3.org/2000/svg"><path fill="url(#a)" d="M0 0h56v56H0z"/><path d="M26.46 29.04a21.3 21.3 0 0 1 2.05.16 11.86 11.86 0 0 1 1.06.13 14674.46 14674.46 0 0 0 .04 10.91c.02.44.1.83.25 1.2.03.07.12.18.26.33.08.08.2.15.35.22.23.09.38.14.47.15l.95.18.36.04c.15 0 .26.02.33.03a.1.1 0 0 1 .06.03.1.1 0 0 1 .02.07v.42l-.01.04-.04.02a.75.75 0 0 1-.16.03h-8.84a.43.43 0 0 1-.18-.04.06.06 0 0 1-.03-.02v-.48l.02-.04.04-.02c.08-.02.2-.03.35-.04l.32-.04.22-.04a6.2 6.2 0 0 0 1.04-.25c.36-.13.6-.33.7-.58.13-.29.2-.54.22-.76.06-.53.09-1.05.09-1.54a7351.35 7351.35 0 0 0 .02-10.09l.02-.01h.02ZM25.91 19c.02 0 .05 0 .06.02l.03.06v.94a.1.1 0 0 1-.1.1l-.53.05c-.12.01-.23.16-.32.43l-.01.03c-.02.06-.03.17-.03.32v6.55l.01.03h.03a43.07 43.07 0 0 0 2.85-.03 16.89 16.89 0 0 0 2.25-.18c.17-.03.41-.11.75-.26.44-.18.8-.43 1.1-.73.33-.34.55-.75.66-1.23l.04-.16a5.16 5.16 0 0 0-.12-2.38c-.1-.3-.23-.58-.41-.82a3.4 3.4 0 0 0-1.27-1.07 3.51 3.51 0 0 0-.64-.2l-.14-.05-.04-.01-.01-.04a.94.94 0 0 1-.02-.24v-.06a17.37 17.37 0 0 1 .01-.92l.02-.02c.26-.01.59.02 1 .1a57.97 57.97 0 0 1 1.06.25l.25.08.4.14.36.15a4.4 4.4 0 0 1 1.66 1.19l.1.14c.13.16.21.28.26.37.3.58.48 1.2.52 1.84.01.2.02.5 0 .87a3.69 3.69 0 0 1-.37 1.53c-.24.5-.56.9-.97 1.2-.38.28-.78.5-1.2.65a26.32 26.32 0 0 1-1.09.41v.01h.02l.3.07c.04.02.11.03.21.05l.24.07a8.96 8.96 0 0 1 2 1c.48.31.86.66 1.13 1.04a4.78 4.78 0 0 1 .57 1.27 5.09 5.09 0 0 1 .02 2.3 3.13 3.13 0 0 1-.23.82c-.06.18-.12.3-.16.4a4.41 4.41 0 0 1-1.76 1.83c-.59.34-1.16.58-1.73.7l-.46.12c-.12.03-.28.06-.47.08l-.25.03-.53.06-.63.06a.94.94 0 0 0-.21.04h-.04v-.02l-.01-.02a7.94 7.94 0 0 1 .01-1.24 2.92 2.92 0 0 0 3.15-2.57l.12-.74c.05-.39.05-.8-.01-1.22a8.4 8.4 0 0 0-.12-.69 2.94 2.94 0 0 0-1.69-2.02 4.5 4.5 0 0 0-1.16-.39 4.4 4.4 0 0 0-.66-.13 6.34 6.34 0 0 1-.5-.08c-.2-.05-.4-.08-.63-.1-.86-.06-1.47-.1-1.81-.1-.14-.01-.6-.02-1.36-.02a1.48 1.48 0 0 1-.35-.05h-.02v.02l-.01.01c-.02.15-.02.28-.02.4v6.76c0 .16.02.32.08.48.07.19.17.31.3.37.17.08.35.15.54.19.02 0 .03.01.05.03l.01.05v.99c0 .02 0 .04-.02.05a.08.08 0 0 1-.05.02h-6.44a.1.1 0 0 1-.07-.03.1.1 0 0 1-.03-.07v-.36l.01-.04.04-.03.34-.08c.55-.06.92-.12 1.1-.15 1-.2 1.13-1.15 1.13-2.03V21.8c0-1.11-.25-1.9-1.43-2.08l-.92-.12h-.05c-.16-.03-.24-.1-.23-.2l.02-.3a.1.1 0 0 1 .1-.09h6.42Zm12.87-6a.05.05 0 0 1 .05.05l.02.75c0 .74.03 1.31.05 1.71a88.1 88.1 0 0 1 .1 2.94l-.03.04a.07.07 0 0 1-.04.02h-.58c-.03 0-.06 0-.08-.02a.16.16 0 0 1-.06-.07 2.52 2.52 0 0 1-.16-.61l-.01-.08A3.74 3.74 0 0 0 37 15.36c-.18-.23-.41-.4-.7-.53-.37-.17-.8-.29-1.25-.34-.76-.1-1.54-.14-2.36-.14a3670.16 3670.16 0 0 0-3.08 0 .05.05 0 0 0-.02.04v12.45c0 .02 0 .03-.02.05a9.15 9.15 0 0 1-1.1.12 116.3 116.3 0 0 1-2.06.03l-.01-.02V14.4a.05.05 0 0 0-.05-.05h-3.7c-.45.01-1.11.07-2 .18a5 5 0 0 0-.91.28c-.48.23-.84.56-1.08.98-.24.43-.42.89-.55 1.36a19.72 19.72 0 0 0-.35 1.34.1.1 0 0 1-.06.02h-.62a.08.08 0 0 1-.08-.09l.15-5.35.02-.05a.07.07 0 0 1 .06-.02h21.55Z" fill="#fff"/><defs><linearGradient id="a" x1="10.42" y1="9.71" x2="68.15" y2="76.02" gradientUnits="userSpaceOnUse"><stop stop-color="#1A1E21"/><stop offset="1" stop-color="#06060A"/></linearGradient></defs></svg>