<!-- by TradingView --><svg width="56" height="56" viewBox="0 0 56 56" xmlns="http://www.w3.org/2000/svg"><path fill="#F0F3FA" d="M0 0h56v56H0z"/><path d="M28 12c3.46 0 7.33.24 10.6 1.47 1.03.39 1.93.92 2.4 1.95v23.63c-.04.63-.4 1.22-.87 1.73-.5.52-1.2 1.05-2.17 1.56C36.02 43.35 28 45 28 45s-8.02-1.64-9.95-2.66a8.13 8.13 0 0 1-2.18-1.56c-.48-.51-.82-1.1-.87-1.73V15.42c.46-1.03 1.39-1.56 2.4-1.95C20.68 12.24 24.55 12 28 12Zm.01 2.2c-3.2 0-7.02.2-10.04 1.33-.33.13-.69.27-.97.5v22.86c.01.04.07.17.28.39.28.3.77.69 1.58 1.11 1.62.85 4.62 1.78 9.14 2.42 4.52-.64 7.52-1.57 9.14-2.42.81-.42 1.3-.81 1.58-1.11.2-.22.27-.35.28-.4V16.03a3.64 3.64 0 0 0-.97-.49C35.02 14.4 31.2 14.21 28 14.21Z"/><path d="M27 19h2v19h-2z"/></svg>