<!-- by TradingView --><svg width="56" height="56" viewBox="0 0 56 56" xmlns="http://www.w3.org/2000/svg"><path fill="#0D7DDF" d="M0 0h56v56H0z"/><path d="m44 27.99-.01 1.46c-.01.2-.1.34-.28.41a25.06 25.06 0 0 0-13.53 12.89c-.1.23-.28.3-.53.21l-3.18-1.23c-.25-.09-.32-.26-.22-.5a28.33 28.33 0 0 1 3.87-6.91.23.23 0 0 0 .03-.27c-.05-.1-.12-.05-.23-.05H13.26c-.17 0-.25-.17-.25-.34v-3.4c0-.18.09-.26.27-.26h20.66c.46 0 1.05-.03 1.42-.3.9-.66 1.75-.96 2.87-1.48.03-.01.05-.05.07-.1l.01-.13-.01-.12c-.02-.06-.04-.09-.07-.1-1.12-.52-2.08-.69-2.99-1.34a2.24 2.24 0 0 0-1.3-.43H13.28c-.18 0-.27-.02-.27-.2v-3.4c0-.16.08-.4.24-.4h16.67c.2 0 .32-.12.19-.28a28.53 28.53 0 0 1-3.88-6.94c-.1-.25-.03-.42.21-.51l3.19-1.23c.24-.1.42-.02.53.21A25.06 25.06 0 0 0 43.7 26.12c.18.07.27.2.28.4L44 28Z" fill="#fff"/></svg>