<!-- by TradingView --><svg width="56" height="56" viewBox="0 0 56 56" xmlns="http://www.w3.org/2000/svg"><path fill="#F0F3FA" d="M0 0h56v56H0z"/><path fill="#008" d="M9 23h3v12H9zM44.08 23H49v2.58h-4V28h4v2.58h-4V35h-3V23h2.08ZM15 23v12h3v-7.3l5.83 7.3H27V23h-3v7.28L18.15 23H15Z"/><path fill-rule="evenodd" d="M34 23h-4v12h4a6 6 0 0 0 0-12Zm-.42 2.58H33v6.84h.58a3.42 3.42 0 0 0 0-6.84ZM10.5 22a3.5 3.5 0 1 0 0-7 3.5 3.5 0 0 0 0 7Zm0-.46a3.04 3.04 0 1 0 0-6.08 3.04 3.04 0 0 0 0 6.08Zm0-5.96-.1 1.6.06.72-.08.01-.12-.7c-.02-.1-.35-1.06-.5-1.53.07.45.27 1.44.3 1.58l.2.55.04.12a.56.56 0 0 0-.06.03l-.3-.65-.89-1.34.71 1.45.33.47.08.11a.57.57 0 0 0-.04.04l-.45-.53-1.22-1.06c.3.35.96 1.1 1.07 1.2l.45.38.08.07a.6.6 0 0 0-.04.05l-.57-.4-1.44-.7c.37.25 1.2.81 1.34.89l.52.24.1.05c0 .02 0 .04-.02.06l-.66-.25-1.58-.31 1.52.51a25.04 25.04 0 0 1 .7.12v.1-.02l-.74-.06-1.6.1c.44.04 1.45.1 1.6.1l.58-.04.15-.02v-.03l.01.1-.12.02-.58.1c-.14.04-1.1.36-1.52.52l1.58-.32c.1-.02.47-.16.66-.24l.03.06-.1.05-.53.24c-.13.08-.98.63-1.34.9l1.44-.72.57-.4.04.06-.08.07-.45.37-1.07 1.2 1.22-1.05.45-.53.04.03-.08.11-.33.48c-.08.13-.52 1.04-.7 1.45l.88-1.34.3-.65a.6.6 0 0 0 .06.02c0 .04-.02.08-.04.13l-.2.55c-.03.14-.23 1.13-.3 1.57.15-.46.48-1.42.5-1.52.03-.1.1-.5.12-.7h.08l-.06.73.1 1.6c.04-.45.1-1.45.1-1.6l-.05-.58-.01-.14.08-.01.12.7c.02.1.35 1.06.5 1.52a39.3 39.3 0 0 0-.3-1.57l-.2-.55a23.2 23.2 0 0 1-.04-.13l.06-.02.3.65.89 1.34-.7-1.45-.34-.48-.08-.1a.57.57 0 0 0 .04-.04l.45.53 1.22 1.06c-.3-.35-.96-1.1-1.07-1.2-.08-.09-.3-.26-.45-.38l-.08-.07a.56.56 0 0 0 .04-.06l.57.4 1.44.71c-.36-.26-1.2-.81-1.34-.89a8.3 8.3 0 0 0-.52-.24l-.1-.05a.6.6 0 0 0 .02-.06c.2.08.57.22.66.24l1.58.32c-.42-.16-1.38-.48-1.52-.51a22.76 22.76 0 0 1-.7-.12v-.07a38.13 38.13 0 0 1 .71.06l1.6-.1-1.6-.1-.7.05-.01-.07.12-.02.58-.1 1.52-.52-1.58.31-.66.25a.58.58 0 0 0-.03-.06l.1-.05.54-.24c.12-.08.97-.64 1.33-.9l-1.44.72c-.08.04-.4.27-.57.4a.56.56 0 0 0-.04-.06l.08-.07c.16-.12.37-.3.45-.38.1-.1.78-.85 1.07-1.2l-1.21 1.06-.46.53a.59.59 0 0 0-.04-.03l.08-.11.33-.48c.08-.13.52-1.04.7-1.45l-.88 1.34-.3.65a.56.56 0 0 0-.06-.03l.04-.12.2-.55c.04-.14.23-1.13.3-1.58-.15.47-.48 1.43-.5 1.53-.03.1-.1.5-.12.7h-.08c0-.05 0-.1.02-.15l.04-.58c0-.15-.06-1.16-.1-1.6Z" fill="#008"/></svg>