<!-- by TradingView --><svg width="56" height="56" viewBox="0 0 56 56" xmlns="http://www.w3.org/2000/svg"><path fill="#F0F3FA" d="M0 0h56v56H0z"/><path fill="#1B3F7D" d="M5 22h3v12H5zM17 22h-6l6 7.36V22ZM11 34h6l-6-7.36V34Z"/><path fill-rule="evenodd" d="M24 22h-4v12h4a6 6 0 0 0 0-12Zm0 3h-1v6h1a3 3 0 1 0 0-6Z" fill="#1B3F7D"/><path d="M35 22h-3v8.03c0 2.2 2.17 3.97 4.33 3.97h1.37c2.16 0 4.3-1.78 4.3-3.97V22h-3v7a2 2 0 1 1-4 0v-7ZM47.86 22c1.47.02 3.04.63 3.63.93l-1.33 2.23a2.7 2.7 0 0 0-1.85-.73c-1.34-.02-1.71.48-1.8.73-.13.3-.16.88 1.8 1.38 1.85.48 3.74 1.48 3.69 3.8-.05 2.3-2.03 3.55-4.62 3.65A7.48 7.48 0 0 1 43 32.77l1.36-2.44c2.49 1.76 4.64 1.23 4.64.15 0-.94-1.68-1.34-2.34-1.48-1.11-.2-3.3-1.14-3.13-3.39.22-2.8 2.49-3.63 4.33-3.61Z" fill="#0072BA"/></svg>