<!-- by TradingView --><svg width="56" height="56" viewBox="0 0 56 56" xmlns="http://www.w3.org/2000/svg"><path fill="#F0F3FA" d="M0 0h56v56H0z"/><path d="M26 11.03v11.24a3.5 3.5 0 0 1-.67 2.05c-.03.03-.05.04-.08 0l-6.26-6.25c-.03-.04-.03-.07 0-.1L25.96 11h.03l.01.02ZM11.03 26c-.01 0-.02 0-.03-.02l.01-.03 7.11-7.1c.02-.03.05-.03.07 0l6.32 6.31c.02.02.02.04 0 .06-.69.52-1.45.78-2.3.78H11.02ZM30 11.03c0-.02 0-.02.02-.03h.03L37 17.98c.03.03.03.06 0 .1l-6.26 6.26c-.03.03-.05.03-.08 0a3.52 3.52 0 0 1-.66-2.06V11.03ZM44.97 26H33.8c-.86 0-1.62-.27-2.3-.78-.03-.02-.03-.04 0-.07l6.3-6.3c.03-.03.06-.03.08 0l7.11 7.1v.03c0 .01 0 .02-.02.02Z" fill="#052147"/><path d="M25.15 31.48c.02-.02.04-.02.06 0 .52.69.78 1.45.78 2.31a6359.52 6359.52 0 0 1 0 11.2h-.04l-7.11-7.1c-.03-.03-.03-.06 0-.08l6.31-6.33Zm-2.89-1.47c.74 0 1.42.22 2.05.66.03.03.03.05 0 .08L18.06 37c-.03.04-.07.04-.1 0l-6.95-6.96v-.02l.01-.02h11.24Z" fill="#7D7C7C"/><path d="M30.78 31.5c.02-.02.04-.02.06 0l6.3 6.31c.03.03.03.05 0 .07L30.06 45h-.03c-.01 0-.02 0-.02-.02V33.8c0-.85.26-1.62.78-2.3Zm14.2-1.5.02.02v.03l-6.97 6.97c-.03.03-.07.03-.1 0l-6.26-6.27c-.03-.03-.03-.05 0-.08a3.51 3.51 0 0 1 2.06-.67h11.24Z" fill="#052147"/></svg>