<!-- by TradingView --><svg width="56" height="56" viewBox="0 0 56 56" xmlns="http://www.w3.org/2000/svg"><path fill="#02B388" d="M0 0h56v56H0z"/><path d="M33.25 15h-10.5c-2.58 0-5.06.99-6.89 2.74a9.16 9.16 0 0 0-2.86 6.6v4.81c0 1.67.46 3.3 1.34 4.74a9.56 9.56 0 0 0 3.67 3.43L13.28 42l12.83-3.49h7.14c2.58 0 5.06-.99 6.89-2.74a9.16 9.16 0 0 0 2.86-6.6v-4.81a9.16 9.16 0 0 0-2.85-6.61 9.99 9.99 0 0 0-6.9-2.75ZM37 29.17c0 .92-.22 1.82-.87 2.5a3.98 3.98 0 0 1-2.5 1.22l.27 3.03L28.84 33h-6.1A4.09 4.09 0 0 1 20 31.8a3.53 3.53 0 0 1-.99-2.63v-4.81c0-.99.26-1.94.99-2.64a4 4 0 0 1 2.75-1.1h10.5a4 4 0 0 1 2.75 1.1c.73.7 1 1.65 1.01 2.64v4.8Z" fill="#fff"/></svg>