<!-- by TradingView --><svg xmlns="http://www.w3.org/2000/svg" width="56" height="56" viewBox="0 0 56 56"><path fill="#F0F3FA" d="M0 0h56v56H0z"/><path fill-rule="evenodd" d="M10 19H9v8h1v-8zm28 0h-1v8h1v-8zm-15 0h-1v8h5v-1h-4v-2.5h3.5v-1H23V20h4v-1h-4zm-11 0h1.26l2.7 5.8 2.73-5.8H20l-3.79 8h-.51L12 19zm20.18 0H29v7.99h1V24h2.08l1.62 3h1.2l-1.75-3.23c.8-.4 1.35-1.27 1.35-2.27 0-1.38-1.04-2.5-2.32-2.5zm-.16 1H30v3h2.02c.82 0 1.48-.67 1.48-1.5s-.66-1.5-1.48-1.5zm12.04 7c1.16 0 2.2-.48 2.94-1.24l-.86-.66A3 3 0 0 1 41 23a3 3 0 0 1 5.17-2.07l.77-.75A4.08 4.08 0 0 0 40 23c0 2.2 1.82 4 4.06 4z" fill="url(#aagqi2vbb)"/><path fill-rule="evenodd" d="M12.17 30H9v8h3.17c1.26 0 2.29-.97 2.29-2.17 0-.77-.42-1.44-1.06-1.83a2.14 2.14 0 0 0 1.06-1.83c0-1.2-1.03-2.17-2.3-2.17zm-.14 1H10v2.5h2.03c.81 0 1.47-.56 1.47-1.25S12.84 31 12.03 31zm0 3.5H10V37h2.03c.81 0 1.47-.56 1.47-1.25s-.66-1.25-1.47-1.25zM18 30h-1v8h1v-8z" fill="url(#bagqi2vbb)"/><path d="M25.55 31.2a3 3 0 0 0-3.52 2.93 3 3 0 0 0 3 2.98 3 3 0 0 0 2.93-2.33 3.5 3.5 0 0 1-3.5 3.22 3.5 3.5 0 0 1-3.52-3.49 3.5 3.5 0 0 1 4.6-3.32z" fill="url(#cagqi2vbb)"/><path d="M20.55 34.65a4.03 4.03 0 0 1 4.44-3.8c1.83.2 3.23 1.6 3.5 3.33a3.97 3.97 0 0 0-3.54-4.16 4.03 4.03 0 0 0-4.4 4.63z" fill="#535E7C"/><defs><linearGradient id="aagqi2vbb" x1="29" y1="18.7" x2="29" y2="27.64" gradientUnits="userSpaceOnUse"><stop stop-color="#6B70A2"/><stop offset="1" stop-color="#31357C"/></linearGradient><linearGradient id="bagqi2vbb" x1="13.5" y1="30" x2="13.5" y2="38" gradientUnits="userSpaceOnUse"><stop stop-color="#A1A2A4"/><stop offset="1" stop-color="#6C6C6E"/></linearGradient><linearGradient id="cagqi2vbb" x1="21.68" y1="38.36" x2="24.88" y2="34.74" gradientUnits="userSpaceOnUse"><stop stop-color="#646464"/><stop offset="1" stop-color="#909092"/></linearGradient></defs></svg>