<!-- by TradingView --><svg width="56" height="56" viewBox="0 0 56 56" xmlns="http://www.w3.org/2000/svg"><path fill="#F0F3FA" d="M0 0h56v56H0z"/><path d="M40 24v-2h10v2h-4v10h-2V24h-4ZM31 34V22h7.95v2H33v3h5.54v2H33v3h6v2h-8ZM22 34V22h2v10h5.52v2H22ZM17.8 25.37c-.06-.5-.28-.89-.68-1.17a2.6 2.6 0 0 0-1.53-.41c-.45 0-.83.06-1.14.2-.32.13-.56.31-.73.54a1.31 1.31 0 0 0-.1 1.41c.12.18.28.33.47.46.2.12.41.22.65.3.24.09.47.16.71.21l1.1.28c.45.1.87.24 1.28.41.41.18.78.4 1.1.66A2.88 2.88 0 0 1 20 30.54a3.15 3.15 0 0 1-2.04 3.03c-.66.29-1.46.43-2.4.43-.91 0-1.7-.14-2.37-.42-.67-.28-1.2-.7-1.57-1.23a3.63 3.63 0 0 1-.61-1.97h2.09c.03.4.16.74.38 1.01a2 2 0 0 0 .86.6c.36.14.76.2 1.2.2.47 0 .87-.06 1.22-.2s.62-.33.82-.58c.2-.25.3-.54.3-.88 0-.3-.09-.55-.26-.75-.18-.2-.42-.37-.74-.5a7.14 7.14 0 0 0-1.1-.37l-1.33-.34a5.38 5.38 0 0 1-2.3-1.12 2.58 2.58 0 0 1-.83-2.01 3 3 0 0 1 .56-1.8c.38-.52.9-.92 1.54-1.2a5.37 5.37 0 0 1 2.2-.44c.84 0 1.57.14 2.2.43.62.29 1.12.68 1.47 1.2.36.5.55 1.08.56 1.74H17.8ZM9 22v12H7V22h2Z"/></svg>