<!-- by TradingView --><svg width="56" height="56" viewBox="0 0 56 56" xmlns="http://www.w3.org/2000/svg"><path fill="#00CA00" d="M0 0h56v56H0z"/><path d="M18.8 12.01c.32.05.73.23 1.22.53.96.6 2.25 1.4 3.86 2.38.08.04.12.12.12.21v25.74c0 .1-.04.16-.12.21l-3.86 2.38c-.5.3-.9.48-1.22.53-.41.05-.8-.06-1.18-.36-.4-.31-.6-.75-.61-1.3a5109.22 5109.22 0 0 1 0-28.66c0-.56.2-1 .6-1.3.38-.3.78-.41 1.19-.36Zm8.28 4.71 6.9 4.19.02.04v13.8c0 .01 0 .03-.02.04l-6.9 4.19c-.05.03-.08.01-.08-.05V16.77c0-.07.03-.08.08-.05Zm9.99 5.8 5.55 3.41c.48.3.8.55 1 .77.25.3.38.68.38 1.12 0 .45-.13.82-.39 1.13-.18.22-.51.47-.99.76l-5.55 3.42c-.04.03-.06.02-.06-.03v-5.27L37 22.56c0-.05.02-.07.07-.04Z" fill="#fff"/></svg>