<!-- by TradingView --><svg width="56" height="56" viewBox="0 0 56 56" xmlns="http://www.w3.org/2000/svg"><path fill="#F0F3FA" d="M0 0h56v56H0z"/><path d="M13.45 12H44v30.58A1.4 1.4 0 0 1 42.55 44H12V13.42c0-.81.62-1.42 1.45-1.42Z" fill="#627136"/><path d="M16.18 15H41v24.85c0 .66-.5 1.15-1.18 1.15H15V16.15c0-.66.5-1.15 1.18-1.15Z" fill="#768250"/><path d="M18 17h21v21.03c0 .55-.43.97-1 .97H17V17.97c0-.55.43-.97 1-.97Z" fill="#889369"/><path d="M19.82 19H37v17.2c0 .46-.35.8-.82.8H19V19.8c0-.46.35-.8.82-.8Z" fill="#95A075"/><path d="M37 20v1h-8s-1 0-1 1v17s.14 6-7.69 6c-5.49 0-6.35-3.5-6.31-5.85.04-1.92.85-4.15 3.19-4.15 1.56 0 2.81 1.24 2.81 2.5S18.96 40 17.7 40c-1.24 0-.94-.73-1.47-.42-.14.09-.24.44-.23.92.02 1.29.77 3.5 3.9 3.5 4.27 0 4.1-4.54 4.1-6V22s0-1-1-1h-3v-1h17Z" fill="#F0F3FA"/><path d="M27 36v-1h2s1 0 1-1.02V17.43c0-4.5 2.62-6.43 6-6.43 3 0 4 2.53 4 3.5 0 .92-.68 1.5-1.5 1.5-1 0-1.5-.58-1.5-1.5s1-1 1-1.5c0-.3-.5-1-2-1-2.5 0-3 4.1-3 6.35v15.63S32.87 35 34 35h3v1H27Z" fill="#F0F3FA"/></svg>