<!-- by TradingView --><svg width="56" height="56" viewBox="0 0 56 56" xmlns="http://www.w3.org/2000/svg"><path fill="#F0F3FA" d="M0 0h56v56H0z"/><path d="M22 37.74v-.32c0-.24.22-.42.47-.42H32.8c.12 0 .2-.17.2-.29v-3.15c0-.17.1-.35.25-.46.42-.33 1.08-.71 1.53-1.07a10.44 10.44 0 0 0-.47-16.82 10.89 10.89 0 0 0-12.53-.05 10.45 10.45 0 0 0-4.4 10.35 10.61 10.61 0 0 0 5.4 7.54.6.6 0 0 1 .22.81l-.03.05a.57.57 0 0 1-.35.27.58.58 0 0 1-.44-.06 11.97 11.97 0 0 1-5.55-6.55 11.65 11.65 0 0 1 3.68-12.83 12.17 12.17 0 0 1 17.6 2.37c3.91 5.6 2.12 13.14-3.63 16.7a.56.56 0 0 0-.28.45v3c0 .62-.04.74-.69.73L22.27 38a.27.27 0 0 1-.26-.26Z" fill="#046F44"/><path d="M27.6 16a.2.2 0 0 1 .06.05c1.09.95 1.73 2.5 1.08 3.86-.3.62-.97 1.2-1.22 2.02a.1.1 0 0 1-.07.07.1.1 0 0 1-.1-.02c-2.16-1.8-1.41-4 .03-5.9a.2.2 0 0 1 .13-.08.2.2 0 0 1 .08 0Zm-.25 2.78c-.1 0-.18.6-.18 1.33 0 .73.08 1.32.18 1.32.1 0 .18-.6.18-1.32 0-.73-.08-1.33-.18-1.33ZM32.25 18l.06.04.03.05c.79 1.7 1 3.93-.07 5.53-.17.25-.54.59-1.1 1a4.68 4.68 0 0 0-1.32 1.37.1.1 0 0 1-.11 0 .13.13 0 0 1-.04-.05c-1.73-3.31 0-6.29 2.44-7.92a.13.13 0 0 1 .11-.02ZM31 21.35c-.08-.04-.4.85-.72 1.97a7.64 7.64 0 0 0-.43 2.08c.08.03.4-.85.71-1.97.32-1.12.51-2.05.44-2.08ZM21.18 19c1.98-.07 4.14.67 5 2.4.14.29.24.8.3 1.54a4.55 4.55 0 0 0 .52 1.9c0 .03 0 .05-.02.07a.13.13 0 0 1-.04.04.15.15 0 0 1-.07.02c-3.97.35-5.74-2.64-5.87-5.79 0-.04.02-.09.05-.12a.2.2 0 0 1 .13-.06Zm2.44 2.9c-.09.08.48.74 1.27 1.47.78.72 1.49 1.25 1.58 1.17.09-.08-.48-.73-1.26-1.46-.79-.73-1.5-1.26-1.59-1.18ZM32.43 26.22c.46-.51 1.49-1.75 2.3-.97.75.7-.23 1.44-1 1.56-.34.05-.62.1-.82.16a.39.39 0 0 0-.22.14c-1.91 2.69-2.54 5.46-1.35 8.54a.23.23 0 0 1-.03.22.3.3 0 0 1-.1.08.35.35 0 0 1-.12.04h-.02c-.1.02-.2 0-.3-.05a.38.38 0 0 1-.17-.2 8.7 8.7 0 0 1 .4-7.23 23.2 23.2 0 0 1 .86-1.48.1.1 0 0 0 0-.05.12.12 0 0 0-.03-.04.14.14 0 0 0-.05-.03h-.08l-.03-.01-.02-.02-.01-.02v-.03l.1-.36.03-.05a.16.16 0 0 1 .05-.04l.06-.02h.06c.18.05.38-.02.49-.14Zm1.65-.6a.16.16 0 0 0-.1.04l-.56.49a.06.06 0 0 0-.02.03v.04l.04.03h.04c.32-.04.57-.19.74-.43a.12.12 0 0 0 .02-.1.13.13 0 0 0-.06-.07.17.17 0 0 0-.1-.03ZM22.37 25.17c.74-.56 1.66.4 2.06.92a.27.27 0 0 0 .22.1h.22l.09.03.06.06c.14.23.17.4.1.49a.23.23 0 0 0-.01.25c1.46 2.55 2.51 5.9 1.56 8.75a.33.33 0 0 1-.41.22l-.02-.01a.33.33 0 0 1-.23-.29c0-.04 0-.08.02-.12.9-2.72-.2-6.14-1.7-8.49a.32.32 0 0 0-.34-.14c-.83.2-1.45-.02-1.85-.64-.27-.42-.13-.85.23-1.13Zm.45.49-.16.3v.01a.05.05 0 0 0 0 .04h.02l.13.08a3.32 3.32 0 0 0 .53.24.7.7 0 0 0 .2.04c.04 0 .07-.02.08-.04l.03-.04c.01-.02 0-.06-.02-.1a.7.7 0 0 0-.13-.14 2.1 2.1 0 0 0-.48-.33l-.13-.08h-.04a.05.05 0 0 0-.03.02ZM33.19 39.02 22.8 39c-.44 0-.8.43-.81.97v.04c0 .53.36.97.81.97L33.2 41c.44 0 .8-.43.81-.97v-.04c0-.53-.36-.97-.81-.97ZM28 42.01a1608.69 1608.69 0 0 0 4.97 0l.03.02v.03c0 .01 0 .02-.02.03A7.6 7.6 0 0 1 28 44a7.59 7.59 0 0 1-5-1.93v-.03l.03-.03H28Z" fill="#046F44"/></svg>