<!-- by TradingView --><svg width="56" height="56" viewBox="0 0 56 56" xmlns="http://www.w3.org/2000/svg"><path fill="#F0F3FA" d="M0 0h56v56H0z"/><path d="M47 30.5c0-1.5-2.4-1.66-3.5-2-1.95-.58-3.96-1.39-3.96-3.7 0-2.46 2.48-3.8 4.65-3.8 2.35 0 4.81 1.47 4.81 4h-2c0-1.32-1.54-2-2.81-2-1.06 0-2.42.6-2.42 1.8 0 1.07 1.76 1.42 2.72 1.7 2.06.59 4.51 1 4.51 3.7 0 2.51-2.53 3.8-4.75 3.8-2.5 0-5.25-1.26-5.25-4h1.99c0 1.57 1.54 2 3 2 1.04 0 3 0 3-1.5ZM5 33.47c.72.33 1.63.53 2.78.53 4.18 0 5.22-2.67 5.22-4v-9h-2v9c0 .67-.71 2-3.22 2-.74 0-1.32-.12-1.77-.3L5 33.47Z"/><path fill-rule="evenodd" d="M14 34h2.5l.93-2h5.14l.93 2H26l-6-13-6 13Zm7.63-4L20 26.5 18.37 30h3.26Z"/><path d="M26.5 21H24l4.5 13 3-7 3 7L39 21h-2.5l-2 6.5-3-6.5-3 6.5-2-6.5Z"/></svg>