<!-- by TradingView --><svg width="56" height="56" viewBox="0 0 56 56" xmlns="http://www.w3.org/2000/svg"><path fill="#F0F3FA" d="M0 0h56v56H0z"/><path fill-rule="evenodd" d="M28.52 8.64 27.97 8l-.57.63a53.03 53.03 0 0 0-6.52 9.28C18.74 21.8 17 26.27 17 30.45c0 3.93 1.87 6.6 4.16 8.3 2 1.5 4.34 2.27 6.08 2.56v6.94c0 .42.33.75.74.75s.75-.33.75-.75v-6.9c1.29-.15 3.37-.67 5.33-1.94 2.46-1.58 4.7-4.34 4.93-8.92.17-3.66-1.56-8.08-3.73-12.04a60.15 60.15 0 0 0-6.74-9.81Zm.2 31.2c1.1-.15 2.87-.61 4.53-1.68 2.11-1.36 4.06-3.7 4.25-7.74.16-3.23-1.4-7.33-3.54-11.25a59.65 59.65 0 0 0-6.01-8.9 52.22 52.22 0 0 0-5.77 8.37c-2.09 3.8-3.7 8-3.7 11.81a8.47 8.47 0 0 0 3.57 7.1 13 13 0 0 0 5.19 2.24v-3.38l-5.07-5.85a.75.75 0 0 1 .07-1.05.74.74 0 0 1 1.05.07l3.95 4.55v-4.67l-3.18-3.83a.75.75 0 0 1 .1-1.05.74.74 0 0 1 1.05.1l2.03 2.44v-6.37c0-.42.33-.75.74-.75s.75.33.75.75v6.27l1.81-2.33a.74.74 0 0 1 1.05-.13c.32.26.38.73.12 1.05l-2.98 3.84v4.62l3.73-4.48a.74.74 0 0 1 1.05-.1c.32.27.36.75.1 1.06l-4.88 5.85v3.45Z" fill="#2B8267"/></svg>