<!-- by TradingView --><svg width="56" height="56" viewBox="0 0 56 56" xmlns="http://www.w3.org/2000/svg"><path fill="#F0F3FA" d="M0 0h56v56H0z"/><path d="M14.51 27.77c0 .08.04.12.12.14.08 0 .13-.03.16-.1.6-2.02 1.33-4.1 2.18-6.25.34-.86.88-1.44 1.63-1.74.8-.33 1.54-.14 2.2.55.4.42.6.97.61 1.63.05 2.51.05 4.78 0 6.8 0 .06.02.09.08.1.05.01.09 0 .1-.06l4.33-10.4c.07-.17.2-.3.37-.37a.65.65 0 0 1 .51 0l.15.06c.3.13.41.35.33.66a766.05 766.05 0 0 1-3.6 12.95c-.24.82-.61 1.95-1.12 3.4-.62 1.78-1.4 2.73-2.32 2.84-1.61.2-2.37-1.08-2.28-3.83l.24-6.82c0-.09-.03-.14-.11-.15-.09-.02-.14.01-.17.09a56.7 56.7 0 0 1-1.96 4.47 8.6 8.6 0 0 1-.76 1.34 1.8 1.8 0 0 1-1.12.75c-1.18.2-1.76-.91-1.75-3.3l.08-4.37c0-.07-.03-.11-.1-.12-.07-.01-.11.02-.13.08a29.82 29.82 0 0 1-1.7 4.52c-.24.47-.61.65-1.13.55a.8.8 0 0 1-.6-.56A15.1 15.1 0 0 1 8 27.15c-.03-.31.05-.53.26-.64.15-.09.32-.1.48-.03.17.06.3.17.37.34.15.37.27.78.35 1.24.01.09.06.13.16.14.09 0 .15-.03.17-.12.34-1.25.78-2.67 1.34-4.26.36-1.02.89-1.6 1.6-1.74a.63.63 0 0 1 .33.03c.69.25 1.13.92 1.33 2 .12.63.16 1.57.13 2.85-.02.39-.02.66-.02.8Z" fill="#EB0141"/><path d="M30.7 20.34c-.1-.09-.1-.17 0-.26a8.98 8.98 0 0 1 7.08-1.98 9.58 9.58 0 0 1 6.33 3.83c.13.18.11.33-.06.46a103.08 103.08 0 0 1-3.67 2.78c-.66.45-1.33.61-2.03.48a5.03 5.03 0 0 1-2.02-1.03l-5.62-4.28Z" fill="#121E2E"/><path d="M35.97 28c0 .42-.23.81-.7 1.17l-6.15 4.7c-.16.12-.3.1-.4-.07A10.43 10.43 0 0 1 27 27.99c0-2.11.58-4.05 1.72-5.8.12-.18.25-.2.41-.08l6.14 4.7c.47.36.7.76.7 1.18Z" fill="#488FCD"/><path d="M46 28c0 1.14-.16 2.23-.46 3.27a.23.23 0 0 1-.16.16.23.23 0 0 1-.22-.04l-2.68-2.1c-.5-.38-.75-.82-.75-1.3 0-.47.25-.9.75-1.3l2.68-2.09a.23.23 0 0 1 .22-.04c.08.03.14.08.16.16.3 1.05.46 2.14.46 3.28ZM30.7 35.66l5.63-4.29a5.1 5.1 0 0 1 2.02-1.03c.7-.13 1.38.03 2.04.48.53.36 1.76 1.29 3.67 2.78.18.13.2.29.06.46a9.6 9.6 0 0 1-6.34 3.84 8.98 8.98 0 0 1-7.08-1.98c-.1-.09-.1-.17 0-.26Z" fill="#121E2E"/></svg>