<!-- by TradingView --><svg width="56" height="56" viewBox="0 0 56 56" xmlns="http://www.w3.org/2000/svg"><path fill="#F0F3FA" d="M0 0h56v56H0z"/><path d="M14.86 15c.14 0 .27.07.37.17.1.1.16.23.16.38v12.37l3.6-4.56c.19-.17.39-.36.69-.36h2.5c.46 0 .63.53.35.84l-4.1 4.91 4.9 5.45c.28.31.11.8-.36.8H20a.66.66 0 0 1-.47-.23l-4.15-5.14v4.82c0 .29-.24.55-.52.55h-2.34c-.28 0-.52-.26-.52-.55v-18.9c0-.29.24-.55.52-.55h2.34Zm13.1 8c.14 0 .28.06.38.17.1.1.16.25.16.4v10.86c0 .3-.26.57-.55.57h-2.4c-.3 0-.55-.27-.55-.57V23.57c0-.33.26-.57.55-.57h2.4Zm9.8 0c3.73 0 5.24 2.78 5.24 5.83v5.61c0 .3-.26.56-.56.56h-2.41a.56.56 0 0 1-.56-.56v-5.79c0-1.51-.8-2.48-2.22-2.48a3 3 0 0 0-2.77 1.84v6.43c0 .4-.18.56-.74.56h-2.18a.58.58 0 0 1-.56-.56V23.86c0-.33.26-.56.55-.56h1.13c.26 0 .42.14.5.35l.41 1.08a5.81 5.81 0 0 1 4.16-1.72V23Zm8.22 8c.54 0 1.05.21 1.43.59A1.99 1.99 0 0 1 45.98 35a2 2 0 0 1-1.84-1.24 1.95 1.95 0 0 1-.13-.57l-.01-.18A2 2 0 0 1 45.98 31ZM26.73 18a2.04 2.04 0 0 1 1.87 1.23 1.98 1.98 0 0 1-1.1 2.62 2.04 2.04 0 0 1-1.54 0 2 2 0 0 1-1.07-1.1c-.1-.23-.14-.49-.14-.75 0-1.1.88-2 1.98-2Z" fill="#FEC556"/></svg>