<!-- by TradingView --><svg width="56" height="56" viewBox="0 0 56 56" xmlns="http://www.w3.org/2000/svg"><path fill="#F0F3FA" d="M0 0h56v56H0z"/><path fill-rule="evenodd" d="M30.02 10C23.8 9.85 11.22 15.24 11 26.8c-.2 10.97 9.77 13.52 14.81 13.52 6.45 0 18.19-5.94 18.19-16.3C43.95 13.38 35.63 10.1 30.02 10Zm-.67 1.9c-6.97-.15-17.72 4.93-17.93 15-.16 9.58 9.3 12.97 14.55 12.97 5.61 0 16.03-5.59 16.03-15.5C42 15.08 34.5 12 29.35 11.9Z" fill="#93DCFF"/><path fill-rule="evenodd" d="M26.38 12.84c-5.47 0-15.22 3.87-15.38 13.88-.15 9.12 8.55 10.75 12.93 10.75 6.78 0 15.07-5.8 15.07-13.33 0-8.42-8.08-11.3-12.62-11.3Zm-.62 1.3c-5.95 0-14.45 3.6-14.6 12.33-.16 7.93 7.71 10.66 12.82 10.66 5.9 0 13.02-4.76 13.02-12.6.05-7.33-7.28-10.4-11.24-10.4Z" fill="#609DDC"/><path fill-rule="evenodd" d="M11.11 29.9c.9 5.64 5.56 8.32 11.48 7.4 4.09-.64 9.3-4.37 9.4-9.45.12-5.1-5.05-8.46-10.12-8.37-5.71.1-11.7 4.63-10.76 10.42Zm.21.34c.79 5.1 5.2 7.69 10.8 6.86 4-.6 8.88-4.36 8.88-9.25 0-3.78-4.65-7.29-9.13-7.43-5.6-.18-11.43 4.2-10.55 9.82Z" fill="#08559E"/><path fill-rule="evenodd" d="M20.88 18.19c-11.02 2.86-10.6 12.03-9.1 16.3C13.44 39.18 20.55 45.9 29 46c7 0 14.63-4.6 14.99-11.84.52-10.67-12.87-18.67-23.12-15.97Zm0 .34c-9.61 2.47-10.19 11.5-8.62 15.92 1.44 4.1 8.25 10.64 16.45 10.6 6.57-.03 12.92-4.32 13.29-10.9.55-9.9-11.17-18.2-21.13-15.62Z" fill="#93DCFF"/><path fill-rule="evenodd" d="M38.41 28.58c-1.65-4.65-8.35-12.15-18.65-9.5-9.38 2.4-9.48 11.65-8.14 15.4 2.06 5.8 11.02 10.34 19.06 8.1 8.6-2.46 9.12-10.1 7.73-14Zm-1.55-.15a14.34 14.34 0 0 0-17.2-8.75c-8.2 2.1-9.18 10.4-7.63 14.74 1.8 5.05 10.1 9.6 18.03 7.4 7.58-2.1 8.04-10 6.8-13.4Z" fill="#609DDC"/><path fill-rule="evenodd" d="M16.63 21.82c-5.71 2.18-7 7.03-4.22 11.79C13.94 36.24 18 39.34 23 39.34c6 .03 9-3.76 9-8.38 0-5.8-9.13-11.53-15.37-9.14Zm0 .34c-5.29 1.74-6.78 6.5-4.22 10.96 1.56 2.71 6.09 5.3 10.59 5.3s7.78-3.74 8-7.46c.38-6.27-8.57-10.67-14.37-8.8Z" fill="#08559E"/></svg>