<!-- by TradingView --><svg width="56" height="56" viewBox="0 0 56 56" fill="none" xmlns="http://www.w3.org/2000/svg">
<rect width="56" height="56" fill="#F0F3FA"/>
<path d="M37.2902 27H47L40.0383 19.8263L42.416 17.5961H37.5983L29 9V14.2213L28 13.1108L27 14.2213V9L18.4017 17.5961H13.5836L15.9617 19.8263L9 27H18.7096V29H9L27 47V41.8546L28 42.8751L29 41.8546V47L47 29H37.29L37.2902 27Z" fill="#0B3677"/>
<path d="M18.7096 31.5209V33.5099L24.479 39.3259V41.4264L14.5738 31.5209H18.7096ZM34.3332 17.5662H31.8684L31.5208 17.1818V14.5736L34.3332 17.5662ZM37.2904 24.4791V22.646L38.4269 21.4798L41.4262 24.4791H37.2904Z" fill="#EE2D2F"/>
<path d="M18.7096 24.4791H14.5738L17.5731 21.4798L18.7096 22.6462V24.4791ZM24.4792 17.1822L24.1318 17.5662H21.667L24.4792 14.5736V17.1822ZM31.5208 39.3259L37.2902 33.5101V31.5209H41.4262L31.5208 41.4266V39.3259Z" fill="white"/>
<path d="M19 33.3425V22.4805L14.5488 18H24.3122L28 13.7175L31.6877 18H41.4512L37 22.4805V33.3425L28 42.297L19 33.3425ZM29.4843 46.0175V41.243L31 39.7362V42.4094L42.4091 31H37.2902V29.439H46.017L29.4843 46.0175ZM9.98294 29.439H18.7098V31H13.591L25 42.4094V39.7364L26.5088 41.243V46.0175L9.98294 29.439ZM17.2891 21.1884L13.5913 25H18.71V26.5692H9.98273L16.2457 20.1174L17.2891 21.1884ZM26.5907 14.7224L25 16.552V13.5909L21.0911 17.3861H18.9774L26.5907 9.80478V14.7224ZM34.9087 17.3859L31 13.5907V16.5518L29.4339 14.7224V9.80499L37.0224 17.3861L34.9087 17.3859ZM37.2902 25H42.4089L38.7109 21.1884L39.7541 20.1178L46.017 26.5694H37.2902V25ZM36 24H20V33.0158L27.9998 41.1712L36 33.0158V24Z" fill="#FEBC11"/>
<path d="M26.6482 36.9188C26.1238 37.1546 25.563 36.8889 25.0607 36.3555C24.8805 36.1637 24.6964 35.9849 24.5254 35.9736C24.3153 35.984 24.1064 36.0111 23.9007 36.0548C23.9765 35.8586 24.0364 35.6566 24.0799 35.4509C24.0959 35.28 23.9488 35.0699 23.7882 34.8615C23.2911 34.2155 23.2697 33.5725 23.7158 33.0642L23.3526 32.8966C23.3479 32.8943 23.3441 32.8907 23.3415 32.8862C23.339 32.8817 23.3378 32.8766 23.3383 32.8714C23.3387 32.8663 23.3407 32.8614 23.344 32.8574C23.3472 32.8533 23.3517 32.8504 23.3566 32.849C23.7368 32.5625 24.1833 32.3768 24.6546 32.3091C24.5489 32.7416 24.4058 33.6203 24.4058 33.6203C24.4061 33.6256 24.4048 33.6308 24.402 33.6353C24.3992 33.6397 24.3951 33.6432 24.3903 33.6453C24.3854 33.6473 24.38 33.6478 24.3749 33.6467C24.3698 33.6455 24.3651 33.6428 24.3616 33.6389L24.1303 33.3797C23.8249 33.7057 23.8484 34.0882 24.1995 34.5448C24.2999 34.675 24.5867 35.1179 25.0157 34.7404L26.6482 33.3495V34.0788L25.3755 35.1628C24.9343 35.5262 25.326 35.8799 25.4387 35.9997C25.8585 36.4456 26.2545 36.6252 26.6482 36.3153V36.9188ZM29.3518 31.5594L31.4539 29.7205L31.2105 29.4422C31.1208 29.3397 30.9694 29.1287 31.0674 28.9688C31.0069 28.9981 30.9379 29.0044 30.873 28.9866C30.8082 28.9688 30.7521 28.9282 30.715 28.8721C30.6779 28.8161 30.6624 28.7485 30.6714 28.6819C30.6803 28.6153 30.7131 28.5542 30.7637 28.5099C30.8143 28.4657 30.8792 28.4413 30.9464 28.4413C31.0137 28.4413 31.0786 28.4656 31.1292 28.5099C31.1798 28.5541 31.2126 28.6152 31.2216 28.6818C31.2306 28.7484 31.2151 28.816 31.178 28.8721C31.3497 28.796 31.5385 28.9741 31.6284 29.0768L31.8718 29.3553L32.3254 28.9588C32.2539 28.7893 32.2374 28.6016 32.2785 28.4223C32.3196 28.243 32.4161 28.0812 32.5543 27.9598C32.7311 27.8092 32.9596 27.7336 33.1912 27.7491C33.4229 27.7646 33.6393 27.8699 33.7944 28.0426C33.9319 28.1992 34.0091 28.3997 34.0122 28.6081C34.0152 28.8165 33.9439 29.0192 33.8111 29.1797C33.6783 29.3403 33.4925 29.4483 33.2873 29.4844C33.082 29.5204 32.8706 29.4822 32.691 29.3765L32.2374 29.7732L32.4809 30.0517C32.5706 30.1542 32.7222 30.3652 32.624 30.5254C32.6844 30.496 32.7535 30.4896 32.8183 30.5073C32.8832 30.525 32.9394 30.5656 32.9765 30.6216C33.0137 30.6776 33.0293 30.7452 33.0204 30.8118C33.0115 30.8785 32.9787 30.9396 32.9282 30.9839C32.8776 31.0282 32.8127 31.0526 32.7455 31.0527C32.6783 31.0528 32.6133 31.0285 32.5627 30.9843C32.512 30.9401 32.4791 30.879 32.4701 30.8124C32.4611 30.7458 32.4765 30.6782 32.5136 30.6221C32.3419 30.6979 32.1531 30.5198 32.0632 30.4171L31.8197 30.139L29.3518 32.2974V31.5594ZM33.407 28.9348C33.4691 28.8806 33.5136 28.8093 33.5351 28.7298C33.5566 28.6502 33.554 28.5661 33.5276 28.4881C33.5013 28.41 33.4524 28.3416 33.3871 28.2913C33.3219 28.2411 33.2432 28.2113 33.161 28.2058C33.0788 28.2002 32.9969 28.2192 32.9255 28.2603C32.8541 28.3013 32.7964 28.3626 32.7599 28.4365C32.7233 28.5103 32.7095 28.5933 32.7201 28.6749C32.7307 28.7566 32.7654 28.8333 32.8196 28.8953C32.8923 28.9784 32.995 29.0292 33.1052 29.0365C33.2153 29.0439 33.3239 29.0075 33.407 28.9348ZM29.3518 34.1967L31.7529 36.103C31.8759 36.2083 32.0948 36.2796 32.165 36.1981C32.2353 36.1165 32.1324 35.9106 32.0102 35.8045L29.3516 33.3288L29.3518 34.1967ZM26.6482 31.3259L25.2386 30.1282L25.1562 30.3816L25.1248 30.4782L25.036 30.5277L24.8075 30.6554L26.6482 32.1193V31.3259ZM25.2687 28.3076C25.1908 28.2631 25.0995 28.2479 25.0113 28.2648C24.9232 28.2816 24.8439 28.3294 24.7878 28.3995C24.5911 28.3602 24.5132 28.4213 24.5025 28.4341C24.4538 28.4939 24.4854 28.6485 24.5433 28.7631L24.334 29.0801C24.2848 29.1162 24.2282 29.1411 24.1683 29.153C24.1084 29.1649 24.0466 29.1636 23.9872 29.149C23.9872 29.149 23.7053 28.9511 23.6075 28.871C23.5174 28.7969 23.4741 28.7356 23.4004 28.6752L22.8383 28.2088L22.8554 28.1874C22.8727 28.166 22.8809 28.1386 22.8782 28.1112C22.8754 28.0838 22.8619 28.0587 22.8407 28.0411L22.4578 27.7281C22.4089 27.6896 22.3471 27.6716 22.2853 27.6779C22.2234 27.6841 22.1664 27.714 22.1262 27.7614L21.8791 28.0618C21.8394 28.1101 21.8204 28.1721 21.8262 28.2343C21.8321 28.2965 21.8624 28.3538 21.9105 28.3937L22.2917 28.7089C22.3134 28.7253 22.3406 28.733 22.3677 28.7304C22.3948 28.7278 22.42 28.7152 22.4384 28.695L22.4557 28.6741L23.0222 29.1354C23.0959 29.1958 23.1642 29.2265 23.2543 29.3006C23.3519 29.3809 23.6005 29.6193 23.6005 29.6193C23.6272 29.6744 23.6411 29.7349 23.641 29.7962C23.641 29.8575 23.6269 29.918 23.6001 29.9731L23.3297 30.2396C23.2419 30.2151 23.0551 30.1954 22.9989 30.2631C22.9809 30.3095 22.9735 30.3593 22.9771 30.4089C22.9808 30.4585 22.9955 30.5067 23.0201 30.5499C22.9846 30.5799 22.9561 30.6173 22.9366 30.6595C22.9171 30.7017 22.907 30.7476 22.9071 30.7941C22.9072 30.8405 22.9175 30.8864 22.9372 30.9285C22.9569 30.9706 22.9855 31.0079 23.0211 31.0377C23.0567 31.0676 23.0985 31.0893 23.1433 31.1013C23.1882 31.1133 23.2352 31.1154 23.281 31.1074C23.3267 31.0994 23.3702 31.0815 23.4083 31.0549C23.4464 31.0283 23.4783 30.9937 23.5016 30.9535C23.605 30.9762 23.7515 30.9755 23.7957 30.9221C23.8154 30.8668 23.8218 30.8077 23.8144 30.7495C23.8071 30.6912 23.7862 30.6355 23.7534 30.5869L23.9287 30.3156C24.2255 30.4498 24.3125 30.349 24.4513 30.463L24.5196 30.5196L24.9098 30.3016L25.0481 29.8764L24.9794 29.8204C24.8406 29.7062 24.9228 29.6018 24.7338 29.3363L24.9661 29.1117C25.0947 29.1484 25.2563 29.1454 25.3031 29.0882C25.321 29.0403 25.3279 28.989 25.3234 28.938C25.3188 28.8871 25.3029 28.8379 25.2768 28.7939C25.3344 28.7255 25.3652 28.6386 25.3637 28.5493C25.3622 28.4599 25.3285 28.3741 25.2687 28.3076ZM28.5868 29.3015H29.0312C29.0373 29.3015 29.0433 29.3004 29.0489 29.2981C29.0546 29.2957 29.0597 29.2924 29.064 29.2881C29.0683 29.2838 29.0717 29.2787 29.074 29.2731C29.0764 29.2675 29.0776 29.2615 29.0776 29.2554V28.9291C29.0776 28.9168 29.0727 28.905 29.064 28.8963C29.0553 28.8876 29.0435 28.8827 29.0312 28.8827H28.5868C28.5745 28.8827 28.5628 28.8876 28.5541 28.8963C28.5454 28.905 28.5405 28.9168 28.5405 28.9291V29.2554C28.5405 29.2615 28.5417 29.2675 28.544 29.2731C28.5464 29.2787 28.5498 29.2838 28.5541 29.2881C28.5584 29.2924 28.5635 29.2957 28.5691 29.2981C28.5747 29.3004 28.5808 29.3015 28.5868 29.3015ZM29.0017 30.4722C29.0017 30.4599 28.9968 30.4482 28.9882 30.4395C28.9795 30.4308 28.9678 30.4259 28.9556 30.4258H28.5866C28.5805 30.4258 28.5745 30.427 28.5689 30.4294C28.5633 30.4317 28.5582 30.4351 28.5539 30.4394C28.5496 30.4437 28.5463 30.4488 28.5439 30.4545C28.5416 30.4601 28.5405 30.4661 28.5405 30.4722V36.7779C28.5405 36.7839 28.5416 36.79 28.5439 36.7956C28.5463 36.8012 28.5496 36.8063 28.5539 36.8106C28.5582 36.8149 28.5633 36.8183 28.5689 36.8207C28.5745 36.823 28.5805 36.8242 28.5866 36.8242H28.9556C28.9616 36.8242 28.9677 36.823 28.9733 36.8207C28.9789 36.8183 28.984 36.8149 28.9883 36.8106C28.9925 36.8063 28.9959 36.8012 28.9982 36.7956C29.0005 36.79 29.0017 36.7839 29.0017 36.7779V30.4722ZM27.8332 39.2847H28.1668L28.271 37.9285H27.7292L27.8332 39.2847ZM26.6946 37.1159C26.6824 37.116 26.6707 37.1208 26.662 37.1295C26.6534 37.1381 26.6485 37.1498 26.6485 37.162V37.6069C26.6485 37.6191 26.6533 37.6309 26.662 37.6395C26.6706 37.6482 26.6823 37.6531 26.6946 37.6532H29.3054C29.3115 37.6532 29.3175 37.652 29.3232 37.6497C29.3288 37.6473 29.3339 37.6439 29.3382 37.6396C29.3425 37.6353 29.3459 37.6302 29.3482 37.6246C29.3506 37.619 29.3518 37.6129 29.3518 37.6069V37.162C29.3518 37.1497 29.3469 37.138 29.3382 37.1293C29.3295 37.1206 29.3177 37.1157 29.3054 37.1157L26.6946 37.1159ZM28.2249 28.8825H27.7751C27.7629 28.8825 27.7511 28.8874 27.7424 28.8961C27.7337 28.9048 27.7288 28.9166 27.7288 28.9289V29.2552C27.7288 29.2612 27.73 29.2673 27.7323 29.2729C27.7347 29.2785 27.7381 29.2836 27.7424 29.2879C27.7467 29.2921 27.7518 29.2955 27.7574 29.2978C27.763 29.3001 27.7691 29.3013 27.7751 29.3013H28.2244C28.2367 29.3013 28.2485 29.2964 28.2571 29.2878C28.2658 29.2791 28.2707 29.2674 28.2708 29.2552V28.9289C28.2708 28.9166 28.2659 28.9048 28.2572 28.8961C28.2485 28.8874 28.2372 28.8825 28.2249 28.8825ZM29.3054 29.9982C29.3115 29.9983 29.3176 29.9971 29.3232 29.9948C29.3289 29.9925 29.334 29.9891 29.3383 29.9847C29.3427 29.9804 29.3461 29.9753 29.3484 29.9697C29.3508 29.964 29.352 29.958 29.352 29.9519V29.5071C29.3519 29.4948 29.347 29.4831 29.3383 29.4745C29.3296 29.4658 29.3179 29.461 29.3056 29.461H26.6946C26.6824 29.461 26.6706 29.4658 26.662 29.4745C26.6533 29.4831 26.6485 29.4948 26.6485 29.5071V29.9519C26.6484 29.958 26.6496 29.964 26.6519 29.9696C26.6542 29.9752 26.6576 29.9804 26.6619 29.9847C26.6662 29.989 26.6713 29.9924 26.6769 29.9947C26.6825 29.997 26.6885 29.9982 26.6946 29.9982H29.3054ZM27.7292 28.5891H28.271V27.67C28.8942 27.7445 29.5124 27.8557 30.1225 28.0031C29.8425 27.4966 28.8984 26.9407 28.271 26.7306V25.81C28.2723 25.6908 28.2853 25.6558 28.3056 25.6327L28.5277 25.4106L27.9938 24.7728L27.4599 25.4109L27.6724 25.6233C27.7066 25.6601 27.7267 25.7077 27.7292 25.7579V26.6157C27.0761 26.4443 26.4877 26.0846 26.0373 25.5815C25.9578 25.6349 25.5589 26.1803 25.5589 27.0981C25.5589 28.1644 26.0138 28.4845 26.1184 28.4849C26.1228 28.4853 26.1273 28.4841 26.1308 28.4815C26.5233 27.8951 27.0753 27.6807 27.729 27.6546L27.7292 28.5891ZM26.9688 29.3013H27.4134C27.4256 29.3013 27.4374 29.2964 27.4461 29.2878C27.4548 29.2791 27.4597 29.2674 27.4597 29.2552V28.9289C27.4597 28.9166 27.4548 28.9048 27.4462 28.8961C27.4375 28.8874 27.4257 28.8825 27.4134 28.8825H26.9686C26.9563 28.8826 26.9446 28.8875 26.9359 28.8962C26.9273 28.9049 26.9224 28.9166 26.9224 28.9289V29.2552C26.9224 29.2674 26.9273 29.2791 26.936 29.2878C26.9446 29.2964 26.9565 29.3013 26.9688 29.3013ZM28.2249 30.4256H27.7751C27.7629 30.4256 27.7511 30.4305 27.7424 30.4392C27.7337 30.4479 27.7288 30.4597 27.7288 30.472V36.7776C27.7288 36.7837 27.73 36.7898 27.7323 36.7954C27.7347 36.801 27.7381 36.8061 27.7424 36.8104C27.7467 36.8147 27.7518 36.8181 27.7574 36.8205C27.763 36.8228 27.7691 36.824 27.7751 36.824H28.2244C28.2305 36.824 28.2366 36.8228 28.2422 36.8205C28.2478 36.8182 28.253 36.8148 28.2573 36.8105C28.2616 36.8062 28.265 36.801 28.2673 36.7954C28.2696 36.7898 28.2708 36.7837 28.2708 36.7776V30.4724C28.2708 30.4601 28.2659 30.4483 28.2572 30.4396C28.2485 30.4309 28.2372 30.4256 28.2249 30.4256ZM27.0502 36.824H27.4134C27.4195 36.824 27.4255 36.8228 27.4312 36.8205C27.4368 36.8182 27.4419 36.8148 27.4462 36.8105C27.4505 36.8062 27.4539 36.801 27.4563 36.7954C27.4586 36.7898 27.4598 36.7837 27.4597 36.7776V30.4724C27.4597 30.4601 27.4548 30.4483 27.4462 30.4396C27.4375 30.4309 27.4257 30.4261 27.4134 30.4261H27.0502C27.0379 30.4261 27.0262 30.4309 27.0175 30.4396C27.0088 30.4483 27.0039 30.4601 27.0039 30.4724V36.7781C27.0039 36.7842 27.0051 36.7902 27.0074 36.7958C27.0097 36.8014 27.0132 36.8065 27.0175 36.8108C27.0218 36.8151 27.0269 36.8186 27.0325 36.8209C27.0381 36.8232 27.0441 36.824 27.0502 36.824Z" fill="white"/>
<path d="M22.2769 23.2435L22.7877 22.6599L21.415 20.8691V22.6996L21.9121 23.2435H19.9091L20.4135 22.6996V19.1316L19.9093 18.5875H21.9121L21.415 19.1316V20.8093L22.6151 19.6219V18.5873H24.4988L23.0926 19.7415L22.3367 20.5041L24.028 22.6928L24.691 23.2433L22.2769 23.2435ZM34.098 23.3958C35.2632 23.3958 36.0456 22.643 36.0456 21.5227V21.4115L35.9685 21.5362C35.8232 21.8154 35.6026 22.0482 35.3316 22.2083C35.0607 22.3684 34.7503 22.4493 34.4357 22.4419C33.4427 22.4419 32.8012 21.6893 32.8012 20.5242C32.8012 19.5263 33.3036 18.9305 34.1454 18.9305C34.3375 18.9243 34.5289 18.9562 34.7086 19.0244L35.3509 20.442L36.0546 19.0785L36.0332 19.062C35.5319 18.6413 34.8941 18.4184 34.2398 18.4352C32.6645 18.4352 31.8404 19.7272 31.8404 21.0034C31.8404 22.412 32.7689 23.3958 34.098 23.3958ZM26.6309 22.2806C26.8205 22.2864 27.0092 22.2532 27.1855 22.183C27.3617 22.1129 27.5216 22.0073 27.6554 21.8728C27.7892 21.7384 27.8939 21.5779 27.9631 21.4013C28.0324 21.2247 28.0646 21.0358 28.0578 20.8462C28.0578 20.4678 27.9075 20.1048 27.6399 19.8372C27.3723 19.5696 27.0094 19.4193 26.6309 19.4193C26.2525 19.4193 25.8895 19.5696 25.6219 19.8372C25.3543 20.1048 25.204 20.4678 25.204 20.8462C25.1972 21.0358 25.2295 21.2247 25.2987 21.4013C25.3679 21.5779 25.4726 21.7384 25.6064 21.8728C25.7402 22.0073 25.9001 22.1129 26.0763 22.183C26.2526 22.2532 26.4413 22.2864 26.6309 22.2806ZM26.6309 19.7238C27.0123 19.7238 27.2395 20.0642 27.2395 20.6348V21.0576C27.2395 21.6282 27.0123 21.9686 26.6309 21.9686C26.2521 21.9686 26.0257 21.6282 26.0257 21.0578V20.6348C26.0257 20.0642 26.2521 19.7238 26.6309 19.7238ZM29.3237 21.8401V21.0493H29.674L30.1468 21.4687V20.2662L29.6742 20.6809H29.3235V19.7992H29.9339L30.6264 20.5833V19.4569H28.2599L28.634 19.8551V21.8369L28.2599 22.2358H29.6372L29.3237 21.8401Z" fill="#0B3677"/>
</svg>
