<!-- by TradingView --><svg width="56" height="56" viewBox="0 0 56 56" xmlns="http://www.w3.org/2000/svg"><path fill="#F0F3FA" d="M0 0h56v56H0z"/><path fill-rule="evenodd" d="M20 21H6v14h14V21Zm-3.76 3.2.17 1.62c0 .07-.05.12-.12.12h-.22a.12.12 0 0 1-.12-.1c-.1-.46-.5-1.24-1.5-1.27h-1.18c-.13 0-.27.1-.27.23v2.52c0 .13.14.23.27.23h1.1c.39 0 .63-.3.63-.68v-.28c0-.06.12-.1.18-.1h.21c.07 0 .12.04.12.1v2.56c0 .06-.05.11-.12.11h-.2c-.07 0-.19-.05-.19-.11v-.28c0-.37-.24-.67-.63-.67h-1.1c-.13 0-.27.1-.27.22v2.36c0 .38.35.68.73.68h1.24c.34.02 1.13-.23 1.6-1.37a.12.12 0 0 1 .14-.07l.2.04c.06.02.1.08.08.14l-.44 1.63a.23.23 0 0 1-.22.17H9.87a.11.11 0 0 1-.11-.11v-.15c0-.06.05-.11.11-.11h.66c.26 0 .47-.2.47-.45V24.9c0-.25-.21-.45-.47-.45h-.66a.11.11 0 0 1-.11-.1v-.25c0-.06.05-.11.11-.11h6.14c.12 0 .22.09.23.2ZM35 21H21v14h14V21Zm-8 3.75v6.1c0 .37-.22.67-.6.67H26a.11.11 0 0 0-.12.11v.26c0 .06.06.11.12.11h4.02c.07 0 .12-.05.12-.11v-.26a.11.11 0 0 0-.12-.1h-.46c-.38 0-.56-.3-.56-.68V24.7c0-.1-.01-.16.1-.16h.88c.75 0 1.35.66 1.35 1.37 0 .06.05.1.11.1h.28c.06 0 .12-.05.12-.1v-1.2c0-.2.06-.61.15-.83.02-.06.01-.12-.04-.16l-.03-.02a.12.12 0 0 0-.16 0l-.3.31h-6.6l-.13-.27a.12.12 0 0 0-.16-.05l-.12.07a.11.11 0 0 0-.05.07l-.4 2.05c-.01.07.04.13.12.13h.2c.05 0 .1-.03.11-.08.15-.45.6-1.32 1.49-1.39h.94c.13 0 .14.1.14.22ZM36 21h14v14H36V21Zm10.57 3.32.17 1.8c0 .06-.05.12-.12.12h-.23a.12.12 0 0 1-.12-.09 2.25 2.25 0 0 0-2.21-1.63c-2.78.03-3.06 2.45-3.06 3.68 0 1.24.99 3.45 3.06 3.32a2.72 2.72 0 0 0 2.47-1.81c.02-.06.1-.1.16-.08l.23.08c.05.02.09.06.08.11-.08.6-.32 1.37-.43 1.7-.73.3-2.06.44-2.63.48-3.94.04-4.93-2.52-4.94-3.8 0-4.61 5.18-4.53 7.57-3.88Z" fill="#3540FA"/></svg>