<!-- by TradingView --><svg width="56" height="56" viewBox="0 0 56 56" xmlns="http://www.w3.org/2000/svg"><path fill="#F0F3FA" d="M0 0h56v56H0z"/><path d="M33.11 30.25c1.85-2.74 1.94-5.96-.17-8.62a6.94 6.94 0 0 1 4.62 7.21 9.06 9.06 0 0 1-1.3 3.99 14.2 14.2 0 0 1-3.7 4.1 15.3 15.3 0 0 1-5.71 2.8c4.68.4 9.45-2.48 11.66-6.6 1.8-3.32 2.02-7.92-.8-10.86a8.52 8.52 0 0 1 3.93 3.76c2.02 3.77 1.41 8.03-1.08 11.4A16.83 16.83 0 0 1 36 41.68a15.72 15.72 0 0 1-21.75-5.42 16.13 16.13 0 0 1-.72-15.09 15.5 15.5 0 0 1 4.52-5.7 15.67 15.67 0 0 1 13.46-3.06A16.25 16.25 0 0 1 43.96 26.6c.04.46.06.86.04 1.31-.2-.77-.39-1.51-.76-2.25a9.71 9.71 0 0 0-3.27-3.7 11.22 11.22 0 0 0-10.4-1.3c-1.61.57-3.04 1.41-4.32 2.55-1.06.94-1.95 2-2.63 3.24-1.36 2.57-1.77 5.46-.09 7.98a6.1 6.1 0 0 1-2.4-2 7.91 7.91 0 0 1-.96-7.78c1.2-2.88 4-5.28 6.7-6.7a16.1 16.1 0 0 1 4.8-1.58c-.93-.15-1.84-.11-2.78-.08-1.74.2-3.4.67-4.94 1.52a13.2 13.2 0 0 0-4.7 4.35 10.55 10.55 0 0 0-1.05 9.52c.89 2.35 3.16 3.72 5.6 3.94 2.13.2 4.2-.28 6.04-1.36 1.71-1 3.17-2.34 4.28-4Z" fill="#1E1335"/></svg>