<!-- by TradingView --><svg width="56" height="56" viewBox="0 0 56 56" xmlns="http://www.w3.org/2000/svg"><path fill="#1C242B" d="M0 0h56v56H0z"/><path d="M8.09 35.02c-.03 0-.06 0-.08-.03-.02-.02-.01-.05 0-.08l16.91-18.87c.05-.05.1-.05.14 0l4.52 4.9c.09.1.09.2 0 .3l-1.18 1.32c-.05.06-.11.06-.17 0l-3.1-3.37c-.1-.1-.17-.1-.25 0L14.65 30.6c-.02.02-.02.04 0 .06 0 .02.02.03.04.02 3.6-.8 7.14-.71 10.62.25.7.2 1.68.57 2.96 1.13l.84.36c4.34 1.81 9.04 1.92 14.1.32.05-.02.09-.06.1-.12.02-.05 0-.1-.03-.15l-9.21-10c-.08-.07-.15-.07-.22.01l-5.7 6.36c-.08.1-.17.1-.25 0l-2.78-3c-.08-.1-.17-.1-.25 0l-2.63 2.93a.38.38 0 0 1-.3.13h-2.39a.08.08 0 0 1-.08-.05c-.02-.04-.01-.07.01-.1l5.44-6.07c.05-.06.11-.06.17 0l2.82 3.07c.07.08.15.08.22 0l5.77-6.44c.04-.05.09-.05.13 0l12.93 14.02c.06.07.05.13-.04.17a23.6 23.6 0 0 1-13.67 2.29 19.2 19.2 0 0 1-2.5-.6c-.7-.2-1.69-.58-2.98-1.13a19.15 19.15 0 0 0-10.89-1.67c-1.5.2-4.01.93-7.5 2.16l-1.3.46Z" fill="#075D72"/></svg>