<!-- by TradingView --><svg width="56" height="56" viewBox="0 0 56 56" xmlns="http://www.w3.org/2000/svg"><path fill="#F0F3FA" d="M0 0h56v56H0z"/><path d="M40 26v1h-2v6h-1v-6h-2v-1h5ZM9 26H8v7h1v-7ZM11.05 28.69a.53.53 0 0 0-.01.68L14 33h-1.23l-2.42-2.96a1.6 1.6 0 0 1 .05-2.06L12.22 26h1.3l-2.47 2.69ZM15 30.5V26h1v4.5c0 .25.08.64.3.96.21.29.56.54 1.2.54.64 0 .99-.25 1.2-.54.22-.32.3-.7.3-.96V26h1v4.5c0 .41-.12 1.02-.5 1.54-.39.55-1.04.96-2 .96s-1.61-.41-2-.96a2.73 2.73 0 0 1-.5-1.54ZM26 31c0-.17-.06-.44-.2-.65-.14-.18-.36-.35-.8-.35h-2v2h2c.27 0 .5-.01.68-.12.12-.07.32-.25.32-.88Zm0-3c0-.38-.13-.61-.29-.75A1.05 1.05 0 0 0 25 27h-2v2h2c.5 0 .71-.14.81-.27.12-.14.19-.38.19-.73Zm1 0c0 .45-.08.96-.41 1.37l-.18.17.2.23c.3.42.39.9.39 1.23 0 .87-.3 1.44-.8 1.74-.45.27-.97.26-1.2.26h-3v-7h3c.5 0 1 .16 1.39.5.39.36.61.88.61 1.5ZM33 30v-1a2 2 0 1 0-4 0v1c0 1.1.9 2 2 2v1a3 3 0 0 1-3-2.85V29a3 3 0 1 1 6 0v1.15A3 3 0 0 1 31 33v-1a2 2 0 0 0 2-2ZM48 33h-1.17l-.96-2h-1.9l.5-1h.95l-.92-2.23L42.14 33H41l3.15-7h.7L48 33ZM45 23h-5l2.5-6 2.5 6ZM35 23h-2l3-6h2l-3 6ZM38 23h-2l3-6h2l-3 6ZM32 23h-2l3-6h2l-3 6Z"/></svg>