<!-- by TradingView --><svg width="56" height="56" viewBox="0 0 56 56" xmlns="http://www.w3.org/2000/svg"><path fill="#239FFF" d="M0 0h56v56H0z"/><rect x="26" y="11" width="4" height="12" rx="2" fill="#FDFDFC"/><path d="M12.1 23.31c.35-1 1.5-1.55 2.57-1.21l6.93 2.17a1.9 1.9 0 0 1 1.3 2.42c-.35 1-1.5 1.55-2.57 1.21l-6.93-2.16a1.9 1.9 0 0 1-1.3-2.43Zm29.2-1.21a2.08 2.08 0 0 1 2.6 1.22c.35 1.01-.24 2.1-1.32 2.44l-6.89 2.14a2.08 2.08 0 0 1-2.59-1.22c-.35-1.01.24-2.1 1.32-2.44l6.88-2.14ZM22.04 32.84a2.29 2.29 0 0 1 3.06-.44c.98.67 1.19 1.95.48 2.86l-4.63 5.9a2.29 2.29 0 0 1-3.06.44 1.97 1.97 0 0 1-.47-2.86l4.62-5.9Zm8.85-.44a2.29 2.29 0 0 1 3.06.44l4.63 5.9c.71.91.5 2.2-.48 2.86-.97.67-2.34.47-3.06-.44l-4.62-5.9c-.71-.91-.5-2.2.47-2.86Z" fill="#FDFDFC"/></svg>