<!-- by TradingView --><svg width="56" height="56" viewBox="0 0 56 56" xmlns="http://www.w3.org/2000/svg"><path fill="#F0F3FA" d="M0 0h56v56H0z"/><path d="M34.54 14.19a5.58 5.58 0 0 1 3.5.21 5.42 5.42 0 0 1 2.63 2.24c-.7-.64-1.63-1-2.6-1-2.16 0-4.09 1.75-4.09 3.68v15.07c0 1.09.68 2.13 1.47 2.9a4.25 4.25 0 0 0 4.7.82 5.56 5.56 0 0 1-4.19 1.9 5.41 5.41 0 0 1-5.45-5.3V19.32c0-1.16.4-2.3 1.12-3.23a5.46 5.46 0 0 1 2.9-1.9ZM17.99 34.71c0 .3.06.6.1.9L14.67 40H10l8-10.27v4.98Zm4.49-20.53a5.47 5.47 0 0 1 6.07 2.46c-.7-.64-1.63-1-2.58-1-2.14 0-3.98 1.75-3.98 3.68v15.07c0 1.08.6 2.12 1.38 2.9a4.18 4.18 0 0 0 4.67.81 5.5 5.5 0 0 1-4.15 1.9 5.38 5.38 0 0 1-5.4-5.3V19.32a5.27 5.27 0 0 1 3.99-5.14ZM42 35.74l-.75.95a3.67 3.67 0 0 1-3.15 1.32 3.74 3.74 0 0 1-2.9-1.8 1.78 1.78 0 0 0 2.14-.5l1.7-2.18 2.96 2.2ZM29.91 34.7c0 .29.03.58.08.87l-.87 1.1A3.63 3.63 0 0 1 26 38a3.68 3.68 0 0 1-2.87-1.8 1.74 1.74 0 0 0 2.13-.49l4.65-5.98v4.98Zm8.15-18.57c.89 0 1.73.34 2.36.94.63.6.99 1.43 1 2.29 0 1.17-.4 2.3-1.12 3.22l-5.6 7.13v-5.96l2.64-3.37a1.67 1.67 0 0 0-.04-2.17 1.75 1.75 0 0 0-2.2-.34c.29-.53.71-.96 1.23-1.27.53-.3 1.13-.47 1.73-.47Zm-12.1 0c.88 0 1.72.34 2.34.94.62.6.97 1.43.98 2.29a5.2 5.2 0 0 1-1.1 3.22l-5.53 7.13v-5.96l2.6-3.37a1.68 1.68 0 0 0-.04-2.17 1.72 1.72 0 0 0-2.17-.34 3.3 3.3 0 0 1 2.92-1.74Z" fill="#1E164B"/></svg>