<!-- by TradingView --><svg width="56" height="56" viewBox="0 0 56 56" xmlns="http://www.w3.org/2000/svg"><path fill="#F0F3FA" d="M0 0h56v56H0z"/><path d="M48.8 26.94a1.47 1.47 0 0 0-.52-.73 1.3 1.3 0 0 0-.41-.2 1.84 1.84 0 0 0-1.4.18c-.27.15-.47.39-.62.7-.15.3-.22.67-.22 1.1 0 .45.07.82.22 1.13.15.3.35.53.61.7.26.15.57.23.92.23.31 0 .58-.06.81-.17.23-.11.41-.28.54-.49.12-.2.18-.45.18-.74l.26.35h-1.68v-1H50v.56a2.26 2.26 0 0 1-1.27 2.14c-.4.2-.85.3-1.36.3-.57 0-1.07-.12-1.5-.36a2.57 2.57 0 0 1-1.01-1.04 3.34 3.34 0 0 1-.36-1.6c0-.47.07-.89.21-1.26.14-.37.34-.68.6-.94.26-.26.56-.46.9-.6.35-.13.72-.2 1.13-.2.34 0 .66.05.95.14.3.1.56.23.8.4.23.17.42.38.57.62.14.24.24.5.29.78H48.8ZM44 28c0 .63-.12 1.17-.36 1.62-.24.44-.57.79-.98 1.02-.42.24-.89.36-1.41.36a2.57 2.57 0 0 1-2.4-1.39A3.38 3.38 0 0 1 38.5 28c0-.63.12-1.17.36-1.61.24-.45.57-.8.98-1.03.42-.24.89-.36 1.41-.36.52 0 1 .12 1.4.36.42.23.75.58.99 1.03.24.44.36.98.36 1.61Zm-1.09 0c0-.44-.07-.82-.21-1.12-.14-.3-.34-.54-.59-.7a1.58 1.58 0 0 0-.86-.23c-.33 0-.61.08-.86.24-.25.15-.45.38-.59.69-.14.3-.21.68-.21 1.12 0 .44.07.82.21 1.12.14.3.34.54.59.7.25.15.53.23.86.23.33 0 .61-.08.86-.23.25-.16.45-.4.59-.7.14-.3.21-.68.21-1.12ZM33 31v-6h2.32c1.17 0 2.18.66 2.18 1.92 0 1.27-1.03 2.08-2.2 2.08h-1.65v-1h1.5c.65 0 1.2-.37 1.2-1.08 0-.72-.55-.92-1.2-.92H34v5h-1Zm3.2-2.72L37.71 31h-1.25l-1.5-2.72h1.22ZM28 31v-6h4v1h-3v1.54h2.73v.91H29V31h-1ZM22 31v-6h2.32c1.2 0 2.18.73 2.18 1.99S25.5 29 24.3 29h-1.53v-1h1.38c.68 0 1.2-.3 1.2-1.01 0-.72-.53-.99-1.2-.99H23v5h-1ZM16.77 31h-1.2l2.18-6h1.38l2.18 6h-1.2l-1.65-4.77h-.05L16.77 31Zm.03-2.35h3.26v.87H16.8v-.87ZM11 31v-6h3.98v1H12v1.54h2.77v.91H12V30h3v1h-4ZM6 31v-6h1v5h3v1H6Z"/></svg>