<!-- by TradingView --><svg width="56" height="56" viewBox="0 0 56 56" xmlns="http://www.w3.org/2000/svg"><path fill="#013622" d="M0 0h56v56H0z"/><path d="M35.2 33.36h1.79v4.74a1.84 1.84 0 0 1-1.77 1.9h-.4a103046.15 103046.15 0 0 0-21.27-.02 1.83 1.83 0 0 1-1.1-.63 1.84 1.84 0 0 1-.45-1.2V17.88a1.94 1.94 0 0 1 .44-1.24 1.81 1.81 0 0 1 1.13-.63A117970.1 117970.1 0 0 0 35.12 16a1.86 1.86 0 0 1 1.52.76c.17.23.28.5.33.8.02.1.03.3.03.56a13096.45 13096.45 0 0 0-.01 4.57H35.2l-.01-.01v-4.8c0-.02 0-.02-.02-.02H13.83l-.02.01v20.25c0 .02 0 .02.02.02h21.34c.01 0 .02 0 .02-.02v-4.75h.01Z" fill="#fff"/><path d="M23.28 26.7c.2.17.45.3.78.4.34.1.64.12.91.05.1-.03.17-.07.22-.13a.36.36 0 0 0 .1-.23.33.33 0 0 0-.16-.31c-.09-.06-.17-.1-.26-.13l-.67-.2c-.2-.06-.38-.13-.55-.2a.9.9 0 0 1-.55-.95c0-.16.04-.3.1-.43.09-.2.24-.38.45-.5.18-.12.4-.2.64-.23.29-.03.58-.02.87.06.28.08.55.2.8.36.01 0 .02.01.01.02l-.34.6h-.01a1.91 1.91 0 0 0-1.08-.38c-.12 0-.22.02-.31.05-.24.07-.34.22-.32.45 0 .1.06.19.15.26.07.04.17.09.29.13l.63.17c.17.05.34.1.52.19.35.16.55.41.6.74.04.23.02.44-.05.63-.07.2-.2.37-.38.5-.25.17-.58.26-.99.26a3.08 3.08 0 0 1-1.73-.5v-.02l.33-.65ZM36.22 26.11h.01a1345.59 1345.59 0 0 1 1.2-2.26h.81l.01.01v3.97l-.01.01h-.77v-2.6h-.01a2213.33 2213.33 0 0 1-1.03 1.93 36.75 36.75 0 0 1-.43 0 3192.28 3192.28 0 0 1-1.03-1.93v2.6h-.77l-.01-.01v-3.97H35.03a1417.5 1417.5 0 0 1 1.2 2.25ZM47.13 23.85a91.73 91.73 0 0 0 .4.02L49 27.83v.01h-.81l-.36-.98-.02-.01h-1.39l-.36.98-.02.01h-.78v-.01l1.47-3.96a63.66 63.66 0 0 0 .4-.01Zm-.58 2.44h.01l1.12.01-.55-1.63-.58 1.62ZM28.1 26.85a115213.13 115213.13 0 0 0-.7 0l-.37.98-.01.01h-.78l-.01-.01 1.47-3.96.02-.02a87.16 87.16 0 0 0 .79.02l1.47 3.96-.01.01h-.78l-.02-.01-.36-.97-.02-.01h-.69Zm0-2.18-.57 1.62v.01h1.12l-.54-1.63ZM33.67 27.83v.01h-.87L32 26.5h-.79v1.32l-.02.01h-.76v-3.98h1.76c.3 0 .57.1.8.29a1.37 1.37 0 0 1 .3 1.73c-.13.2-.3.36-.52.46v.01l.9 1.48Zm-2.46-3.3v1.29a216.27 216.27 0 0 1 1.09-.01c.05-.01.1-.04.15-.07.1-.08.16-.18.2-.3a.8.8 0 0 0 .04-.37.67.67 0 0 0-.17-.36.48.48 0 0 0-.34-.18 94.35 94.35 0 0 0-.97 0ZM40.58 26.85a120278.73 120278.73 0 0 0-.7 0l-.37.98-.02.01h-.78v-.01l1.47-3.96a87.25 87.25 0 0 0 .8 0l1.47 3.96v.01h-.8l-.36-.98-.02-.01h-.7Zm-.57-.56 1.12.01-.55-1.63L40 26.3ZM43.85 25.72l.01-.02a805.46 805.46 0 0 1 1-1.85h.82v.02l-1.43 2.55a.11.11 0 0 0-.02.05v1.37a61.51 61.51 0 0 0-.77-.01v-1.36c0-.02 0-.04-.02-.05l-1.43-2.56h.85a741 741 0 0 1 .99 1.86ZM27.49 32.2l-.01-.01v-3.15l.01-.01h1.16c.16 0 .28 0 .36.02.18.05.34.14.47.3a.93.93 0 0 1 .27.68c0 .22-.07.42-.19.6-.13.2-.3.32-.5.37-.08.02-.22.03-.41.03a87.61 87.61 0 0 0-.86.01v1.16h-.3Zm.3-2.88v1.42l.02.01h.96a.63.63 0 0 0 .47-.2.72.72 0 0 0 .2-.5V30a.72.72 0 0 0-.2-.49.65.65 0 0 0-.47-.2h-.96l-.02.01ZM35.34 29.87l.01.01v.23h-.53v1.56c0 .08.02.15.07.2.05.05.12.07.2.07.12 0 .24-.03.35-.1l.02.01.07.23c-.1.05-.19.09-.27.1a.97.97 0 0 1-.28.04c-.1 0-.2-.02-.27-.07a.39.39 0 0 1-.18-.21 472.24 472.24 0 0 0-.03-1.82h-.3l-.02-.02v-.22h.31l.02-.02v-.77h.3v.77l.02.01h.51ZM30.15 30.14a1.57 1.57 0 0 1 .84-.3c.14-.01.27 0 .4.04.11.04.22.1.3.17.2.17.29.4.29.69v1.06c0 .1.03.15.09.15.01 0 .02 0 .02.02v.22h-.02l-.1.02-.1-.02a.23.23 0 0 1-.15-.2 2.04 2.04 0 0 1-.01-.16c-.17.2-.38.32-.63.38-.35.07-.63.02-.84-.16a.67.67 0 0 1-.24-.6c.02-.16.1-.3.23-.4a1 1 0 0 1 .43-.2 1.96 1.96 0 0 1 1 .07h.01v-.1l-.01-.24c-.06-.28-.23-.44-.52-.49a.98.98 0 0 0-.46.05c-.14.05-.27.12-.41.21h-.01l-.11-.2Zm1.51 1c-.17-.06-.35-.1-.52-.11-.14-.01-.26 0-.38.02a.7.7 0 0 0-.32.14c-.15.13-.18.29-.12.48.03.1.1.18.2.24.08.06.18.1.3.1.16 0 .32-.03.47-.1a.69.69 0 0 0 .35-.32.24.24 0 0 0 .03-.1 12.22 12.22 0 0 0 0-.35ZM36.2 30.38c.21-.33.51-.5.9-.54a.8.8 0 0 1 .34.03c.16.06.28.18.36.37.05.14.08.32.08.53a136.66 136.66 0 0 1 0 1.43h-.29l-.01-.02v-1.37c0-.12-.02-.23-.05-.33-.05-.2-.17-.33-.33-.36a.68.68 0 0 0-.38.04.98.98 0 0 0-.59.6V32.17l-.02.02h-.28l-.01-.02v-2.3h.27v.5h.01ZM38.7 31.16c.03.3.17.55.42.72.1.06.2.1.32.12.16.02.32 0 .48-.07a.68.68 0 0 0 .36-.33h.02l.24.06v.02c-.08.16-.2.3-.38.4-.16.1-.34.15-.53.16-.34.01-.63-.09-.86-.3a1.18 1.18 0 0 1-.3-.44 1.28 1.28 0 0 1 .13-1.19 1.15 1.15 0 0 1 1.08-.47 1.18 1.18 0 0 1 .91.67c.1.2.13.4.11.62v.01H38.7l-.01.02Zm.85-.24a489.63 489.63 0 0 1 .87 0 .95.95 0 0 0-.27-.6.84.84 0 0 0-.93-.19c-.1.05-.19.1-.26.19a.96.96 0 0 0-.27.6h.86ZM42.57 31.85l.11-.2h.02c.02.03.06.06.12.1.23.2.5.27.82.24a.68.68 0 0 0 .34-.12c.1-.08.16-.18.15-.32 0-.1-.05-.17-.14-.23a1.1 1.1 0 0 0-.3-.11 3.09 3.09 0 0 1-.67-.2.61.61 0 0 1-.24-.2.4.4 0 0 1-.07-.18.74.74 0 0 1 0-.19c0-.16.07-.29.19-.39.1-.1.23-.15.4-.19.2-.04.4-.04.58 0 .2.05.38.14.5.28v.02l-.13.2h-.01a.84.84 0 0 0-.41-.25 1 1 0 0 0-.48 0c-.26.05-.38.19-.36.42.01.09.06.16.15.21.05.03.14.07.26.1h.02a22.2 22.2 0 0 1 .68.23c.08.04.14.08.2.13.08.08.12.2.13.34a.6.6 0 0 1-.16.44.76.76 0 0 1-.41.22 1.5 1.5 0 0 1-.92-.08 1.12 1.12 0 0 1-.37-.25v-.02ZM32.93 30.41h.01c.09-.18.2-.31.35-.4a.8.8 0 0 1 .5-.15c.01 0 .02 0 .02.02v.25l-.01.01c-.2 0-.37.06-.52.17a.79.79 0 0 0-.34.46v1.42h-.3v-2.32h.28v.54h.01ZM41.47 30.41h.01c.09-.18.2-.31.35-.4a.8.8 0 0 1 .5-.15l.02.01v.27c-.2 0-.38.06-.53.17a.79.79 0 0 0-.33.46v1.42h-.31v-2.3l.01-.02h.27v.54h.01Z" fill="#fff"/></svg>