<!-- by TradingView --><svg width="56" height="56" viewBox="0 0 56 56" xmlns="http://www.w3.org/2000/svg"><path fill="#ECB143" d="M0 0h56v56H0z"/><path fill-rule="evenodd" d="M23 22a5 5 0 0 1 10 0v12a5 5 0 0 1-10 0V22Zm3 0a2 2 0 0 1 4 0v12a2 2 0 1 1-4 0V22Zm10 .54A5.52 5.52 0 0 1 41.5 17c3.04 0 5.5 2.48 5.5 5.54V37.5a1.5 1.5 0 0 1-3 0V22.52c0-1.28-1.03-2.57-2.5-2.52a2.55 2.55 0 0 0-2.5 2.52V37.5a1.5 1.5 0 0 1-3 0V22.54ZM14.5 39A5.59 5.59 0 0 1 9 33.33V18.5a1.5 1.5 0 0 1 3 0v14.85c0 1.31.94 2.65 2.5 2.65s2.5-1.34 2.5-2.65V23.5a1.5 1.5 0 0 1 3 0v9.83A5.59 5.59 0 0 1 14.5 39Zm4-19a1.5 1.5 0 1 0 0-3 1.5 1.5 0 0 0 0 3Z" fill="#fff"/></svg>