<!-- by TradingView --><svg width="56" height="56" viewBox="0 0 56 56" xmlns="http://www.w3.org/2000/svg"><path fill="#A39161" d="M0 0h56v56H0z"/><path d="M30.77 30.9c0-.03.03-.02.08.03a.07.07 0 0 0 .06.02.07.07 0 0 0 .05-.04c.05-.1.12-.18.2-.26a.22.22 0 0 1 .14-.05c.05 0 .1.01.15.04a1.96 1.96 0 0 0 .72.24.06.06 0 0 0 .04-.04v-.03l-.02-.03a7.89 7.89 0 0 0-.66-.63v-.04c.06-.17.16-.32.31-.46l.03-.02h.04c.2.1.53.24.96.4.07.03.13.03.17.01a.07.07 0 0 0 .03-.05.07.07 0 0 0-.01-.06 4.43 4.43 0 0 0-.83-.71.15.15 0 0 1-.06-.17c.04-.13.1-.24.19-.34a.16.16 0 0 1 .17-.04c.22.07.54.2.97.37.09.03.16.04.24.02a.1.1 0 0 0 .07-.14.1.1 0 0 0-.04-.04l-1.07-.74a.05.05 0 0 1-.02-.06l.2-.43h.02l1.4.38a.1.1 0 0 0 .08-.19l-1.02-.61a.65.65 0 0 1-.18-.18.1.1 0 0 1-.02-.09l.16-.42.02-.02h.03l1.46.34c.09.01.15 0 .18-.04a.1.1 0 0 0 .02-.08.1.1 0 0 0-.05-.07 38.65 38.65 0 0 0-1.42-.73v-.05l.11-.42c0-.02.02-.04.05-.06a.11.11 0 0 1 .07-.02l1.67.13a.07.07 0 0 0 .08-.05c.04-.17-.09-.19-.22-.23a27.64 27.64 0 0 0-1.42-.46v-.03l.16-.61a.1.1 0 0 1 .1-.07l1.7.08.05-.01c.05-.04.07-.1.05-.18a.05.05 0 0 0-.03-.03l-1.65-.53a.06.06 0 0 1-.04-.07l.1-.69.03-.03.03-.01c.18-.02.72-.06 1.63-.11.1 0 .16-.02.19-.04a.12.12 0 0 0 0-.18.12.12 0 0 0-.05-.03l-1.7-.27c-.02 0-.03 0-.04-.02a.05.05 0 0 1-.01-.04l.03-.65a.04.04 0 0 1 .03-.04l1.86-.27a.08.08 0 0 0 .06-.05.3.3 0 0 0 0-.17.06.06 0 0 0-.05-.04l-1.8-.14a.05.05 0 0 1-.05-.05v-.75l.01-.03.03-.02c.46-.12.94-.22 1.43-.32a1.83 1.83 0 0 0 .4-.13.1.1 0 0 0 .04-.08l-.01-.04c-.03-.06-.06-.1-.1-.1-.51 0-1.05.02-1.6.05l-.24-.03v-.01l-.02-.01-.1-.76v-.07a.1.1 0 0 1 .06-.03l1.71-.57a.16.16 0 0 0 .11-.15.1.1 0 0 0-.12-.1l-1.86.26a.06.06 0 0 1-.06-.04l-.27-.82a.04.04 0 0 1 .02-.05c.49-.25.77-.4 1.24-.58l.5-.24c.07-.03.12-.09.13-.16a.1.1 0 0 0-.03-.08.09.09 0 0 0-.08-.02l-2 .52a.05.05 0 0 1-.07-.02l-.37-.65a.05.05 0 0 1 .01-.06l1.6-1.07a.82.82 0 0 0 .2-.17.08.08 0 0 0-.1-.13l-1.98.85a.05.05 0 0 1-.06-.02l-.44-.6a.09.09 0 0 1 .01-.11l.66-.62c.3-.3.58-.5.84-.77a.13.13 0 0 0 .04-.08.1.1 0 0 0-.03-.08c-.06-.07-.13-.07-.2-.02a65.66 65.66 0 0 1-1.7 1.1h-.03l-.43-.4a.07.07 0 0 1 0-.08l1.23-1.58a.1.1 0 0 0 .02-.04c0-.08-.02-.14-.07-.17-.05-.02-.08-.01-.12.02a76.25 76.25 0 0 1-1.55 1.32h-.03l-.49-.45a4.4 4.4 0 0 0 .94-1.79.1.1 0 0 0-.14-.07 2.77 2.77 0 0 0-.65.71l-.6.68a.09.09 0 0 1-.13.01l-.4-.28c-.02 0-.02-.01-.03-.02v-.03l.63-1.63a.11.11 0 0 0-.1-.15l-.06.01a.63.63 0 0 0-.23.22 32.5 32.5 0 0 0-.77 1.2h-.06l-.47-.23a.08.08 0 0 1-.04-.09l.37-1.48a.13.13 0 0 0-.1-.16.19.19 0 0 0-.2.1l-.61 1.32a.1.1 0 0 1-.11.05l-.54-.15a.06.06 0 0 1-.04-.07l.1-1.45a.24.24 0 0 0-.11-.23.11.11 0 0 0-.17.07l-.52 1.89v.01l.57.09c.53.07.95.3 1.32.67.32.32.64.55 1 .76a9.75 9.75 0 0 1 1.98 1.7A10.64 10.64 0 0 1 33.76 22a18.73 18.73 0 0 1-2.25 7.32 12.2 12.2 0 0 1-.96 1.48l-.06.15c0 .01 0 .02-.02.03a.06.06 0 0 1-.03.01h-6.26c-.06-.01-.12-.1-.2-.24-.37-.66-.73-1.5-1.08-2.48a2.2 2.2 0 0 1-.09-1.25l.04-.12c.28-.58.65-1.1.92-1.6.67-1.26 1.18-2.5 1.73-3.8.17-.4.45-.7.84-.92.8-.43 1.56-1.07 1.73-2a.07.07 0 0 0-.13-.03 3.19 3.19 0 0 1-1.57 1.62c-.41.2-.86.35-1.33.42-.43.07-.96.02-1.35.08-.18.02-.42.09-.71.2-.7.25-1.36.7-2.1 1.03-.38.19-.44-.29-.82-.18-.14.04-.23-.02-.32-.12a2.4 2.4 0 0 1-.73-1.27l.04-.34c0-.04 0-.07.02-.1a5.95 5.95 0 0 1 1.07-1.62c.16-.21.3-.37.4-.47.19-.17.34-.43.55-.64.28-.29.59-.56.82-.88.13-.18.26-.3.35-.43l.97-1.33.51-.63c.35-.42.77-.76 1.18-1.08.04-.04.15-.1.34-.19.37-.18.6-.08 1.05.03a2.62 2.62 0 0 0 .58.04.02.02 0 0 0 0-.03 3 3 0 0 1-1.33-.77c-.3-.29-.7-.91-.59-1.37a.11.11 0 0 1 .12-.08 2.88 2.88 0 0 1 .8.15l.56.07h.03a.03.03 0 0 0 0-.03c0-.26-.06-.5-.1-.78a12.34 12.34 0 0 1-.12-1.79.11.11 0 0 1 .13-.06l.83.17c.8.16 1.68.47 2.32.7.28.1.75.33 1.43.68a10.5 10.5 0 0 1 3.14 2.34 11.04 11.04 0 0 1 2.33 4.19 15.65 15.65 0 0 1-.42 9.67c-.13.38-.25.7-.36.97l-.41.95c-.41.96-.92 1.93-1.53 2.91-.2.3-.19.43-.55.42a62.94 62.94 0 0 0-2.34 0 .09.09 0 0 1-.05-.07.1.1 0 0 1 0-.04ZM25.9 15.51l-.23-.38c-.32-.53-1.12-.77-1.71-.96a.07.07 0 0 0-.09.03l-.01.02c-.04.21 0 .4.12.58a.12.12 0 0 0 .11.05c.3-.03.6.03.91.16a.2.2 0 0 1 .06.04l.32.32a.05.05 0 0 1 .01.05.05.05 0 0 1-.03.03c-.1.02-.2 0-.29-.05a2.8 2.8 0 0 0-1.01-.27.07.07 0 0 0-.03.03.84.84 0 0 0-.04.7c0 .03.02.06.04.08a.7.7 0 0 0 .85.08c.18-.1.25-.13.34-.3a.07.07 0 0 1 .05-.04l.6-.09a.05.05 0 0 0 .04-.06v-.02Zm-2.32 12.4c-.03.03-.03.07-.01.14.27 1.01.95 2 1.94 2.44.22.1.43.13.65.1a.1.1 0 0 0 .08-.12c-.03-.07-.05-.1-.08-.13-.44-.31-.93-.7-1.46-1.16a9.5 9.5 0 0 1-.74-.8 3.49 3.49 0 0 0-.3-.48h-.06l-.02.01ZM33.26 32.02 24.51 32c-.28 0-.5.23-.5.52v.01c-.01.29.22.52.5.52l8.75.02c.28 0 .5-.24.5-.52v-.01a.51.51 0 0 0-.5-.52ZM32.46 34h-6.92c-.3 0-.54.22-.54.49v.02c0 .27.24.49.54.49h6.92c.3 0 .54-.22.54-.49v-.02c0-.27-.24-.49-.54-.49ZM30.09 36h-4.05c-.02 0-.04.01-.04.03v1.9l.04.02h4.05c.02 0 .04-.01.04-.03v-1.89c0-.02-.02-.03-.04-.03ZM31.98 36h-1.24l-.02.02v1.92l.02.01h1.24l.02-.01v-1.92s0-.02-.02-.02ZM31.52 39h-6.04a.49.49 0 0 0-.48.5c0 .28.21.5.48.5h6.04c.27 0 .48-.22.48-.5s-.21-.5-.48-.5ZM31.69 44.92v.02l-.02.01h-10.6a.07.07 0 0 1-.06-.02.06.06 0 0 1 0-.05c.43-1.52 1.98-1.86 3.18-2.65a4.1 4.1 0 0 0 1.25-1.26l.05-.02h4.02c.01 0 .02 0 .03.02l.01.02c.05.78.17 1.54.79 2.1a4.63 4.63 0 0 1 1.35 1.83ZM30.17 40.96h1.26a.13.13 0 0 1 .1.04c.25.33.39.52.69.76.39.32.8.6 1.26.85.94.51 2.2 1.14 2.45 2.18 0 .03.02.07.06.1v.06H32.8l-.06-.01a.1.1 0 0 1-.04-.05c-.13-.29-.29-.53-.47-.73a6.56 6.56 0 0 0-.78-.75c-.3-.22-.55-.43-.74-.63a2.62 2.62 0 0 1-.6-1.78v-.03l.05-.01ZM36.5 46h-16a.5.5 0 0 0-.5.5c0 .28.23.5.5.5h16a.5.5 0 0 0 .5-.5.5.5 0 0 0-.5-.5Z" fill="#fff"/></svg>