<!-- by TradingView --><svg width="56" height="56" viewBox="0 0 56 56" xmlns="http://www.w3.org/2000/svg"><path fill="#F0F3FA" d="M0 0h56v56H0z"/><circle cx="28" cy="28" r="17" fill="#0052A1"/><path d="M42.8 19.62a17 17 0 0 0-16.4-8.54c-.15.32-.35.75-.52.96a.85.85 0 0 0-.17.35c-.03.13-.04.16-.28.03a1.15 1.15 0 0 1-.4-.4c-.08-.1-.14-.19-.23-.2-.06 0-.14-.02-.21-.04-.19-.05-.37-.1-.35.05.02.1.07.2.12.33a1.32 1.32 0 0 1 .14.54c0 .15.01.23-.26.37l-.19.08c-.28.13-.57.27-.5.46.06.13.2.24.31.33.09.07.16.12.17.17.01.1-.22.4-.35.47h-.02c-.13.08-.32.2-.1.46l.17.24c.1.15.15.24.3.21h.08c.17-.03.31-.04.54-.45.21-.35.4-.42.63-.5l.24-.09c.29-.13.56-.42.66-.56h.87l.14-.03c.14-.05.32-.12.54.03.2.14.32.03.44-.06.07-.06.13-.12.2-.12.2 0 .62.24.69.4.02.06.1.03.18 0 .16-.08.38-.17.52.18.08.2.04.38.01.54-.05.27-.09.46.48.54.9.12 1.87.12 1.97.12.11 0 .8.96.76 1.48-.04.52-.45 1.24-.76 1.35-.3.1-.34.6 0 .97.27.27.28.34.35.57l.09.27c.06.19.07.37.08.53.02.25.03.43.24.44.14.01.23-.12.34-.28.14-.21.31-.46.68-.45.65.01 1.32.52.92.63-.15.04-.32.03-.47.02-.25-.01-.45-.02-.45.2 0 .33-.03 1.29-.21 1.48-.07.08-.2.11-.34.15-.2.05-.41.1-.3.32.04.12.22.29.4.46.38.35.78.74.24.8-.7.08-.67.54-.66.82l.01.11c0 .26.04.47.5.47.47 0 .96-.23 1.05-.47.04-.1-.03-.33-.1-.57-.09-.31-.18-.65-.08-.8.13-.18.39-.02.55.09l.11.06c.08.03.54.02.9 0h.34c.22 0 .94-.65 1.28-.97.3-.4.94-1.2 1.2-1.19.26.02.53.3.63.44-.76.91-2.33 2.74-2.46 2.73-.06 0-.14-.05-.24-.1-.19-.1-.45-.25-.77-.26-.37-.01-.62.31-.82.58l-.17.21c-.18.2-.67.59-.9.76-.02.37-.14 1.16-.37 1.29l-.12.06c-.22.12-.36.2-.33.46l.02.62c.02.45.03 1 .09 1.27.09.43.56 1.96 2.08 2 .94.04 1.34-.37 1.66-.7.21-.2.38-.38.64-.4.32 0 .56-.17.7-.27.16-.11.23-.16.2.1 0 .06 0 .13-.02.19-.05.48-.1 1.04.18 1.2.06.04.12.08.2.11.33.18.77.43.91.85.17.51.19.95-.14 1.27-.05.05-.1.1-.15.13-.27.25-.47.43-.19.68l.16.13c.3.24.6.49.6.96 0 .37.08.85.15 1.2.03.18.06.33.06.4 0 .08.2.64.41 1.19a16.93 16.93 0 0 0 3.93-8.67c-.3-.15-.73-.42-.73-.77 0-.54.4-1.02.88-1.25l.02-.01a17.19 17.19 0 0 0-.45-4.31c-.25.42-.51.8-.68.88-.42.2-.6.11-.44-.52.16-.63.14-1.33.12-1.53-.02-.14.05-.58.3-1.08-.23-.56-.48-1.11-.75-1.65-.28.07-.6.21-.72.5-.1.22-.1.4-.1.54.01.19.01.26-.32.12l-.42-.15c-.33-.1-.5-.16-.22-.3a6.5 6.5 0 0 0 1.48-1.26Zm-21.13-3.59c-.21.26-.69.11-.9 0-.06.11-.14.36 0 .48.05.05.14.1.24.14.23.1.49.22.47.47-.04.36.98.86 1.46.97.49.1.87-.25 1.04-.54.17-.3.24-1.23.22-1.52-.01-.24-.45-.46-.7-.59l-.12-.07c-.14-.08-.23.1-.33.32-.05.1-.29.11-.55.13-.33.01-.7.03-.83.21Zm5.56 2.89c-.08.17-.2.56 0 .69l.19.1c.1.04.13.05.15.19l.05.19c.06.18.13.4.06.66l-.05.15c-.09.26-.14.44-.06.68.1.27.49.76.66.8.17.06.48-.06.52-.18.03-.12.3-.68.43-.87.04-.06.12-.1.2-.16.16-.09.33-.19.25-.42-.1-.3-.34-.69-.45-.85.09-.11.19-.43-.09-.78-.14-.18-.2-.32-.26-.43-.07-.15-.1-.24-.29-.26-.04 0-.08 0-.14-.02-.43-.06-1.37-.2-1.17.5Zm-1.25.96c-.02.16.15.56.25.75.15.13 0 .32-.16.43-.16.1-.2.24-.2.41 0 .11.14.25.29.39l.24.25c.14.18.18 0 .2-.14l.02-.08c.04-.12.38-.75.43-.83.04-.06-.01-.16-.07-.27l-.08-.16c-.07-.18-.38-.75-.5-.75a.5.5 0 0 1-.15-.04c-.11-.04-.24-.09-.27.04Zm-7.77 6.86c-.06-.08-.15-.32 0-.62l.13-.23c.14-.24.24-.42.15-.77a7.87 7.87 0 0 1 0-1.8c.08-.08.28-.26.46-.33l.7-.23c.55-.17 1.24-.4 1.43-.48.31-.13 2.6-.77 3.07-.65.47.12 1.28.3 1.57.33.3.01.38.03.44.32.01.1 0 .17-.02.22-.04.1-.06.17.24.37l.3.2c.3.2.52.33.48.5-.05.2-.24.72-.62.86-.38.13-.6.24-1 .51-.17.11-.19.25-.2.43-.04.26-.09.61-.67 1.06-.97.74-1.5 1.17-1.6 1.8-.1.62.08 1.03.32 1.17l.14.08c.4.22 1.35.74 1.14.82-.24.08-.66.15-.97-.12l-.34-.27c-.42-.31-.98-.73-.97-1.01 0-.16.06-.29.1-.4.07-.16.12-.3.04-.46-.14-.3-.42-.75-.7-.87l-.18-.1c-.18-.11-.33-.2-.57-.04l-.1.07c-.4.26-1.17.77-.77 1.32.4.52.7.5.91.48h.1c.22 0 .45.14.41.5-.02.27.18.78.3 1.08.04.1.08.19.08.22l.38 1.05c.06.18.1.48-.24.2a9.69 9.69 0 0 1-1.18-1.5l-.34-.48c-.21-.3-.51-.44-.8-.58-.26-.13-.51-.26-.67-.5a2.56 2.56 0 0 0-.4-.43c-.25-.22-.44-.4-.27-.63.26-.36.76-2.02.38-1.71-.3.25-.57.52-.66.62Zm3.72 7.14c0-.6.47-1.15.71-1.35 0-.47.27-.88.6-1 .34-.13.84-.22 1.03-.11l.56.22.7.27c.16.08.25.15.35.23.15.12.3.26.71.4.68.22.85.3 1.05.67l.03.06c.18.35.32.62.62.77.24.12.7.14 1.13.16.13 0 .26 0 .38.02a1 1 0 0 1 .92.78c.12.44-.28 1.08-.5 1.2-.16.1-.22.3-.26.45l-.04.1c-.03.08-.05.34-.07.57l-.05.39c-.04.14-.21.42-.74.53-.36.07-.46.37-.57.68a1.9 1.9 0 0 1-.2.45 4 4 0 0 1-.99.79c-.21.14-.41.27-.55.38a6.73 6.73 0 0 0-1.33 2.06c-.16.5.27 1.2.41 1.41.14.21-.2.2-.74 0-.55-.2-.82-.76-1.01-1.26-.11-.28-.1-.59-.08-.92.01-.24.03-.5-.01-.76-.07-.5.16-1.75.28-2.32-.04-.37-.15-1.16-.2-1.36-.03-.18-.43-.4-.79-.58l-.37-.2c-.34-.21-.46-.9-.4-1.22.01-.14-.08-.3-.2-.49-.16-.26-.36-.58-.38-1.02Zm8.35-12.24c-.17-.12-.46-.4-.2-.58.34-.23.72-.21.78-.1.06.1-.03.57-.17.68-.1.08-.32.03-.4 0Zm2.07 1.56c-.2 0-.36-.34-.41-.52 0-.21.1-.23.16-.2.16.06.48.24.56.36.11.15-.07.36-.31.36Z" fill="#FFC10F"/><path fill-rule="evenodd" d="m35.54 17.29-.45-.07a5.14 5.14 0 0 0-1.28-3.06c1.09-.5 2.21-.89 3.26-1.03l-.04-.32c-1.12.15-2.31.56-3.46 1.1a6.76 6.76 0 0 0-2.94-1.74c.22-.38.4-.7.56-.93l-.27-.18c-.17.25-.38.6-.6 1.02a7.7 7.7 0 0 0-4.15.13l-.72-1.19-.27.17.67 1.13a6.6 6.6 0 0 0-2.66 1.78 24.84 24.84 0 0 0-4.8-1.44l-.06.32c1.02.17 2.75.62 4.64 1.38a5.1 5.1 0 0 0-1.12 2.9 25.7 25.7 0 0 0-7.63 2.63 9.85 9.85 0 0 1-.65-3.03l-.33.02c.04.9.25 2 .7 3.17a16.9 16.9 0 0 0-2.24 1.45l.2.26c.52-.41 1.25-.9 2.16-1.4a11.5 11.5 0 0 0 2.98 4.17c-.62.84-1.15 1.7-1.6 2.58a20.81 20.81 0 0 0-2.18 10.34c-.2-.16-.38-.3-.52-.44l-.22.24c.2.19.46.4.77.62.03.27.05.53.09.78l.32-.04-.06-.5c1.45.93 3.86 2.05 7.18 2.8.28 1.47.6 2.73.82 3.46l.3-.1c-.2-.7-.5-1.89-.77-3.3 1.62.35 3.46.6 5.5.7l.41 3.31.34.02c-.12-.84-.27-2.07-.41-3.31a30.6 30.6 0 0 0 4.63-.12 70.26 70.26 0 0 1-.36 3.25l.32.05c.1-.7.24-1.92.36-3.34 1.72-.19 3.27-.52 4.66-.93-.08.9-.2 1.84-.33 2.81l.32.05c.15-1.02.26-2.01.34-2.96 4.07-1.28 6.64-3.26 7.65-4.5l-.25-.2c-.96 1.16-3.43 3.09-7.37 4.35.46-5.86-.28-10.4-1.54-13.88a11.41 11.41 0 0 0 3.3-2.47 20.21 20.21 0 0 1 4.8 12l.32-.03c-.4-5.31-2.38-9.3-4.9-12.2a12.38 12.38 0 0 0 2.35-4.27c.85.38 1.64.84 2.37 1.38l.2-.26a14 14 0 0 0-2.47-1.45c.49-1.67.57-3.13.57-3.86h-.33c0 .71-.07 2.11-.54 3.73a22.3 22.3 0 0 0-5.57-1.55Zm-.5 8.81a20.6 20.6 0 0 0-2.22-4.32c-.65.48-1.4.86-2.24 1.1.32 1.3.63 2.77.89 4.36 1.36-.26 2.54-.65 3.57-1.14Zm.3-.14a20.9 20.9 0 0 0-2.26-4.38c.54-.44 1-.97 1.33-1.55 1.41.92 2.83 2.08 4.12 3.53-.83.9-1.88 1.73-3.2 2.4Zm-2.45-4.65c.5-.42.93-.91 1.25-1.46a19.62 19.62 0 0 0-4.75-2.19c1.09.8 2.33 2 3.5 3.65Zm5.86 2a20.86 20.86 0 0 0-4.18-3.56c.34-.68.53-1.42.53-2.2l.4.06c1.84.28 3.76.76 5.52 1.54a12.06 12.06 0 0 1-2.27 4.16Zm-3.97-5.8a29.65 29.65 0 0 0-5.41-.19c1.43.42 3.16 1.14 4.92 2.25a4.6 4.6 0 0 0 .49-2.05Zm1.87 22.74c.47-5.86-.25-10.39-1.5-13.84-1.04.5-2.25.89-3.63 1.15.42 2.66.7 5.66.7 8.85 0 1.57-.1 3.28-.23 4.8 1.73-.2 3.28-.54 4.66-.96Zm-4.99.99c.13-1.52.24-3.25.24-4.83 0-3.17-.29-6.15-.7-8.8a22.42 22.42 0 0 1-4.3.3c-.21 2.53-.36 5.45-.36 8.73 0 .84.2 2.8.43 4.72a30.26 30.26 0 0 0 4.7-.12Zm-5.02.1a56.63 56.63 0 0 1-.42-4.7c0-3.28.14-6.2.36-8.73-1.67-.06-3.14-.3-4.44-.67a30.2 30.2 0 0 0-1.54 8.51c0 1.6.22 3.35.5 4.88 1.63.35 3.48.61 5.54.71Zm-5.88-.78a28.4 28.4 0 0 1-.48-4.8c0-1.92.45-5.23 1.54-8.6a12.86 12.86 0 0 1-4.53-2.42c-.6.82-1.12 1.67-1.56 2.52a20.45 20.45 0 0 0-2.12 10.43c1.36.93 3.75 2.1 7.15 2.87Zm14-23.38a4.86 4.86 0 0 0-1.26-2.88A27.47 27.47 0 0 0 29.1 17c1.45-.1 3.47-.1 5.66.17Zm-4.28-4.72c1.1.31 2.05.87 2.78 1.6a27.63 27.63 0 0 0-4.55 2.85c.4-1.65 1.14-3.29 1.77-4.45Zm-2-.27c.58 0 1.14.06 1.67.19-.6 1.13-1.3 2.7-1.7 4.28-.55-1.31-1.4-2.91-2.12-4.16.67-.2 1.39-.31 2.14-.31Zm-4.97 2.04A6.3 6.3 0 0 1 26 12.6a37.3 37.3 0 0 1 2.2 4.36 20.05 20.05 0 0 0-4.7-2.73Zm-1.33 2.98c.07-1 .46-1.94 1.1-2.72 1.5.63 3.09 1.46 4.46 2.5a22.56 22.56 0 0 0-5.56.22Zm-7.84 2.98c1.9-1.02 4.5-2.07 7.5-2.6.02.76.2 1.48.53 2.14a18.13 18.13 0 0 0-5.13 4.54 11.19 11.19 0 0 1-2.9-4.08Zm7.83-2.65c0 .71.17 1.4.48 2.03 1.57-.9 3.37-1.66 5.45-2.21a22.16 22.16 0 0 0-5.93.18Zm-4.69 6.94a17.8 17.8 0 0 1 5.05-4.46c.4.7.98 1.32 1.67 1.82a24.58 24.58 0 0 0-2.27 5 12.53 12.53 0 0 1-4.45-2.36Zm5.33-4.63a5.6 5.6 0 0 0 1.57 1.72 13.95 13.95 0 0 1 3.38-3.78 22 22 0 0 0-4.95 2.06Zm-.43 6.66a24.28 24.28 0 0 1 2.1-4.48c.77.5 1.68.86 2.67 1.03-.2 1.32-.39 2.83-.54 4.52-1.65-.05-3.1-.28-4.37-.64l.14-.43Zm2.26-4.76c.74.48 1.6.82 2.56.99.33-2.18.7-3.82 1.01-4.87-1.4.98-2.59 2.33-3.57 3.88Zm2.3 5.84c.15-1.68.33-3.17.53-4.48a7.82 7.82 0 0 0 2.8-.15c.32 1.3.62 2.76.88 4.34a22.1 22.1 0 0 1-4.22.3Zm1.53-4.74c.6 0 1.18-.07 1.72-.2a38.22 38.22 0 0 0-1.58-5 38.37 38.37 0 0 0-1.1 5.13c.32.04.64.07.96.07Zm.55-5.05a40 40 0 0 1 1.48 4.76c.8-.23 1.52-.59 2.14-1.04a15.61 15.61 0 0 0-3.62-3.72Z" fill="#EEF1F8"/><path d="M18.06 18h7v7H32v7h-7v-7h-6.94v-7ZM38 32h-6v7h6v-7Z" fill="#EEF1F8"/><path d="M36.9 34.61h-.16c-.1-.68-.6-1.27-1.46-1.27-.87 0-1.5.72-1.5 1.95 0 1.24.44 2.42 1.5 2.42.84 0 1.33-.58 1.46-.87H37c-.27.85-.9 1.16-1.72 1.16-.84 0-2.28-.37-2.28-2.42A2.48 2.48 0 0 1 35.28 33c.51 0 .89.25 1.05.25.13 0 .25-.17.3-.25h.28v1.61ZM22.59 19h-2.25v.31H21v4.39h-.66v.3h2.25v-.3H22V19.3h.59V19ZM26.16 26 26 27.18h.38c0-.57.38-.8.58-.83H28v4.3h-.51V31h1.94v-.35H29v-4.3h1.11c.52 0 .64.55.63.83H31L30.87 26h-4.7Z" fill="#0052A1"/></svg>