<!-- by TradingView --><svg width="56" height="56" viewBox="0 0 56 56" xmlns="http://www.w3.org/2000/svg"><path fill="#055E82" d="M0 0h56v56H0z"/><path d="m45.92 25.96-.6.68c-.34-.52-.88-.8-1.69-.8-.88 0-1.38.3-1.38.75 0 .33.2.6.94.77l1.33.3c1.17.25 1.49.97 1.48 1.7 0 1.01-.94 1.64-2.37 1.64-1.3 0-2.21-.46-2.63-1.3l.82-.56c.37.74.99 1.03 1.82 1.03.88 0 1.36-.34 1.36-.83 0-.41-.26-.7-.9-.86l-1.45-.35c-1.03-.23-1.4-.83-1.4-1.5 0-1.05.93-1.63 2.4-1.63h.02c1.05 0 1.82.36 2.25.96ZM35 25h2.16c1.78 0 2.84 1.21 2.84 3s-1.06 3-2.84 3H35v-6Zm1 1v4h1.16c1.2 0 1.84-.76 1.84-2 0-1.23-.64-2-1.84-2H36ZM33 29.39V25h1v6h-.86L30 26.61V31h-1v-6h.86L33 29.39ZM25.51 25 28 31h-1.14l-.4-1h-2.9l-.41 1H22l2.49-6h1.02Zm.63 4L25 26l-1.13 3h2.27ZM19.46 28.84 21 31h-1.12l-1.37-2H17v2h-1v-6h2.46c1.54 0 2.39.77 2.39 2.01v.01c0 .91-.48 1.56-1.4 1.82Zm-1-2.84H17v2h1.46c.88 0 1.4-.24 1.4-.98 0-.75-.52-1.02-1.4-1.02ZM13.7 27.98c.85.15 1.3.58 1.3 1.39 0 1.17-.95 1.63-2.3 1.63H10v-6h2.51c1.52 0 2.29.5 2.29 1.6 0 .84-.41 1.23-1.1 1.38ZM12.5 26H11v1.58h1.53c.82 0 1.26-.22 1.26-.85 0-.66-.44-.73-1.28-.73ZM11 28.33V30h1.7c.85 0 1.3-.09 1.3-.75 0-.57-.38-.92-1.31-.92H11ZM31 23v-7h1.5v3h3v-3H37v7h-1.5v-3h-3v3H31ZM24 23v-7h3.1c1.41 0 2.9.65 2.9 2.26 0 1.62-1.5 2.32-2.93 2.32h-2.05v-1.05h1.85c.8 0 1.6-.36 1.6-1.27 0-.74-.48-1.26-1.6-1.26h-1.38v6H24ZM18 23v-7h1.46v6H23v1h-5ZM11.46 23H10l2.65-7h1.7L17 23h-1.46l-2.04-5.5-2.04 5.5Zm-.02-3h3.97v1.02h-3.97V20ZM39.46 23H38l2.65-7h1.7L45 23h-1.46l-2.04-5.5-2.04 5.5Zm-.02-3h3.97v1.02h-3.97V20Z" fill="#fff"/><path d="M43 35h4v1h-3v1h2.5v1H44v2h-1v-5ZM39 36h-2v-1h5v1h-2v4h-1v-4ZM32 35h4v1h-3v1h2.51v1H33v1h3v1h-4v-5ZM21.23 40C19.8 40 19 38.83 19 37.5c0-1.35.82-2.5 2.14-2.5 1.01 0 1.52.5 1.86 1.12l-.79.54a1.18 1.18 0 0 0-1.07-.66c-.76 0-1.14.69-1.14 1.5 0 .8.31 1.5 1.22 1.5.44 0 .63-.06.78-.26V38h-1v-.7h2v1.87c-.39.51-1.02.83-1.77.83ZM15.5 40c-1.48 0-2.5-1.1-2.5-2.5s1.03-2.5 2.5-2.5 2.5 1.1 2.5 2.5-1.03 2.5-2.5 2.5Zm0-1c.85 0 1.5-.65 1.5-1.53 0-.9-.64-1.47-1.5-1.47s-1.5.59-1.5 1.47.64 1.53 1.5 1.53ZM26.5 40c-1.48 0-2.5-1.1-2.5-2.5s1.03-2.5 2.5-2.5 2.5 1.1 2.5 2.5-1.03 2.5-2.5 2.5Zm0-1c.85 0 1.5-.65 1.5-1.53 0-.9-.64-1.47-1.5-1.47s-1.5.59-1.5 1.47.64 1.53 1.5 1.53ZM9 40v-5h1v4h2v1H9Z" fill="#FFCC02"/><path fill="#fff" d="M9 32h38v1H9z"/></svg>