<!-- by TradingView --><svg xmlns="http://www.w3.org/2000/svg" width="56" height="56" viewBox="0 0 56 56"><path fill="#F0F3FA" d="M0 0h56v56H0z"/><path d="M41.76 24.83a1.69 1.69 0 1 0 0-3.38 1.69 1.69 0 0 0 0 3.38ZM37.84 23.17a1.55 1.55 0 1 0 0-3.09 1.55 1.55 0 0 0 0 3.1ZM34.1 22.08a1.4 1.4 0 1 0 0-2.8 1.4 1.4 0 0 0 0 2.8ZM30.55 21.51a1.25 1.25 0 1 0 0-2.5 1.25 1.25 0 0 0 0 2.5ZM27.2 21.4a1.1 1.1 0 1 0 0-2.22 1.1 1.1 0 0 0 0 2.21ZM24.07 21.69a.96.96 0 1 0 0-1.93.96.96 0 0 0 0 1.93ZM21.18 22.33a.82.82 0 1 0 0-1.63.82.82 0 0 0 0 1.63ZM18.53 23.27a.67.67 0 1 0 0-1.34.67.67 0 0 0 0 1.34ZM16.15 24.44a.52.52 0 1 0 0-1.05.52.52 0 0 0 0 1.05ZM14.04 25.8a.38.38 0 1 0 0-.77.38.38 0 0 0 0 .76Z" fill="#83BD6A"/><path d="M5 29.65c0 .38.07.57.31.57.07 0 .14 0 .2-.02l.07.75c-.16.03-.32.05-.48.05-.73 0-1.1-.44-1.1-1.33V26h1v3.65ZM9.04 29.41H6.88c.09.53.41.8.96.8.33 0 .65-.07.95-.2l.15.76c-.38.16-.78.23-1.2.22-.76-.02-1.46-.37-1.74-1.1-.26-.68-.12-1.52.35-2.05.32-.34.76-.51 1.23-.51.57.02 1.05.33 1.3.79.22.38.23.86.16 1.3Zm-.87-.57v-.09c.01-.33-.22-.68-.58-.66-.41-.01-.68.37-.71.75h1.29ZM10.83 31c-.37 0-.74-.08-1.05-.3a.96.96 0 0 1-.36-.77c-.03-.73.74-1.11 1.37-1.09.2 0 .4.02.6.06v-.17c0-.4-.22-.61-.69-.61-.3 0-.61.05-.9.16l-.17-.74c.38-.14.79-.2 1.18-.2.62.01 1.2.24 1.43.88.07.18.1.38.08.58v1.9c-.47.22-.82.3-1.5.3Zm.57-.77v-.74a2.3 2.3 0 0 0-.49-.05c-.37 0-.56.15-.56.45 0 .3.2.44.57.44.17 0 .33-.03.48-.1ZM15.77 27.81a1.75 1.75 0 0 1 .48 1.3c.02.5-.14.98-.45 1.36-.16.18-.35.31-.57.4a1.62 1.62 0 0 1-1.23.02V32h-1v-4.37c.45-.2 1.03-.3 1.46-.3.26 0 .48.03.7.1.23.1.44.22.61.38ZM14 30.13c.14.06.25.09.4.09.6 0 .88-.36.88-1.07 0-.69-.29-1.03-.88-1.03-.15 0-.26.03-.4.09v1.91Z" fill="#0481BF"/><path d="m18.66 30.53.04.4c-.17.05-.34.07-.52.07-.67 0-1-.36-1-1.1v-2.03h-.52v-.4h.52v-.82l.48-.04v.85h.93v.4h-.92v2.04c0 .27.08.55.36.65.07.03.16.04.24.03.13 0 .26-.02.4-.05ZM19.34 31v-5h.48v1.73c.6-.32 1.44-.4 1.99.08.24.26.34.58.34.93V31h-.47v-2.22c0-.38-.18-.71-.55-.83-.42-.14-.95 0-1.31.21V31h-.48ZM25.66 28.89c0 .13 0 .26-.02.4h-2.46a1.36 1.36 0 0 0 .38.97c.54.47 1.36.37 1.97.1l.09.4a2.69 2.69 0 0 1-1.85.13 1.6 1.6 0 0 1-.98-.99 2.17 2.17 0 0 1 .33-2.02c.28-.33.72-.52 1.15-.5.84-.04 1.43.71 1.4 1.5Zm-.47.06v-.13c0-.27-.07-.52-.23-.73a.84.84 0 0 0-.69-.3c-.63-.02-1.05.57-1.08 1.16h2ZM27.82 27.46c.13 0 .26.02.39.04l-.07.42a1.98 1.98 0 0 0-1.27.2v2.88h-.48v-3.19c.44-.24.93-.36 1.43-.35ZM29.83 31c-.6 0-1.31-.32-1.29-1.01-.04-.72.7-1.07 1.33-1.05.28 0 .55.03.82.1v-.4c0-.59-.3-.84-.9-.84-.31 0-.63.06-.92.18l-.1-.4c.33-.14.7-.2 1.06-.2.74 0 1.33.49 1.33 1.28v2.02c-.4.22-.86.32-1.33.32Zm.86-.57v-1.04c-.25-.06-.51-.1-.77-.1-.6 0-.9.22-.9.68-.03.46.46.64.85.64.3 0 .57-.05.82-.18ZM34.9 29.1c.03.72-.28 1.5-.96 1.78-.22.1-.46.11-.68.11-.27 0-.54-.05-.78-.17V32H32v-4.3c.4-.21.84-.32 1.3-.32.96 0 1.65.76 1.6 1.73Zm-2.42 1.3c.23.11.48.18.74.18.16.01.33-.02.48-.08.52-.22.73-.85.7-1.38.01-.34-.09-.68-.28-.95-.2-.25-.53-.4-.85-.37-.28 0-.55.07-.8.2v2.4ZM38.29 28.89l-.02.4H35.8c-.02.36.12.72.36.98.26.22.6.34.94.32.36 0 .7-.08 1.03-.23l.1.4c-.37.17-.76.25-1.16.24-.23 0-.47-.01-.7-.1a1.6 1.6 0 0 1-.97-.99 1.8 1.8 0 0 1-.1-.72c-.02-.47.13-.93.43-1.3.28-.33.71-.5 1.15-.5.4 0 .76.14 1.02.43.25.3.39.68.38 1.07Zm-.48.06c.02-.3-.04-.61-.23-.86a.88.88 0 0 0-.69-.3c-.63 0-1.05.57-1.08 1.16h2ZM40.25 31c-.87 0-1.25-.41-1.25-1.23v-2.3h.48v2.3c0 .54.23.81.77.81.35.01.68-.07.99-.22v-2.9h.48v3.2a3.2 3.2 0 0 1-1.47.34ZM44.48 30.53l.04.4c-.17.05-.34.07-.52.07-.67 0-1-.36-1-1.1v-2.03h-.52v-.4H43v-.82l.48-.04v.85h.93v.4h-.93v2.04c0 .26.09.56.35.65.2.07.46.03.65-.02ZM45.06 26.5a.31.31 0 0 1 .09-.22.35.35 0 0 1 .47 0 .31.31 0 0 1 .09.22c0 .09-.03.17-.1.23a.35.35 0 0 1-.46 0 .34.34 0 0 1-.09-.23Zm.56 4.5h-.47v-3.45h.47V31ZM49 27.59l-.11.4a2.31 2.31 0 0 0-.86-.19c-.33-.02-.66.13-.87.38-.22.3-.33.66-.3 1.03-.03.37.08.74.31 1.02.25.25.6.38.94.35.29 0 .56-.07.82-.2l.1.4c-.3.15-.61.22-.94.22-.48 0-.92-.12-1.28-.46a1.81 1.81 0 0 1-.45-1.31c-.03-.49.13-.96.43-1.34.3-.34.76-.52 1.21-.5.34 0 .68.06 1 .2ZM51.7 27.96c-.28-.1-.57-.15-.87-.16-.49 0-.73.19-.73.55-.02.4.44.54.75.64.31.08.6.22.87.4A.8.8 0 0 1 52 30a.9.9 0 0 1-.35.75c-.27.18-.6.27-.92.25-.39 0-.78-.06-1.14-.2l.08-.41c.34.12.7.19 1.06.2.2 0 .4-.05.58-.15.27-.18.29-.62 0-.8a3.02 3.02 0 0 0-.7-.28c-.63-.17-1.24-.68-.92-1.4.18-.43.68-.6 1.12-.58.33 0 .66.05.97.17l-.08.41Z" fill="#B6BCAF"/></svg>