<!-- by TradingView --><svg width="56" height="56" viewBox="0 0 56 56" xmlns="http://www.w3.org/2000/svg"><path fill="#F0F3FA" d="M0 0h56v56H0z"/><path d="M20.2 14.66c-.23.19-.27.49-.07.7.16.15.44.22.64.13 6.19-3.03 12.64-1.16 16.79 3 4.13 4.15 5.97 10.58 2.95 16.74-.1.2-.02.48.13.64.21.2.51.16.7-.06 5.82-7.06 4.08-15.24-.88-20.22-4.97-5-13.19-6.77-20.27-.93ZM14.66 20.2c.19-.23.49-.27.7-.07.15.16.22.44.13.64-3.03 6.19-1.16 12.64 3 16.79 4.15 4.13 10.58 5.97 16.74 2.95.2-.1.48-.02.64.13.2.21.16.51-.06.7-7.06 5.82-15.24 4.08-20.22-.88-5-4.97-6.77-13.19-.93-20.27Z" fill="#04529C"/><path d="M27.08 16.38c.5-.5 1.33-.5 1.84 0l10.7 10.7c.5.5.5 1.33 0 1.84l-10.7 10.7c-.5.5-1.33.5-1.84 0l-10.7-10.7a1.3 1.3 0 0 1 0-1.84l10.7-10.7Z" fill="#FFCA08"/></svg>