<!-- by TradingView --><svg width="56" height="56" viewBox="0 0 56 56" xmlns="http://www.w3.org/2000/svg"><path fill="#F26B3C" d="M0 0h56v56H0z"/><path d="M26 43.94c.03-7.05.02-11.38 0-14.99 0-.56 0-1.04.15-1.43a.33.33 0 0 1 .16-.17c.38-.2.77-.34 1.16-.35h9.9c1.04 0 1.99-.96 1.89-2-.07-.74-.49-1.3-1.26-1.69a.14.14 0 0 1-.06-.05.14.14 0 0 1 .05-.2c1.8-1.06 1-3.5-1.12-3.48a.19.19 0 0 1-.15-.06.17.17 0 0 1-.03-.16c.48-1.77-.91-3.34-2.76-2.58a.18.18 0 0 1-.2-.04 4.81 4.81 0 0 1-.18-.54 2.03 2.03 0 0 0-3.47-.95.19.19 0 0 1-.16.05.2.2 0 0 1-.09-.03.18.18 0 0 1-.06-.07c-.83-1.7-3.08-1.8-3.9-.01 0 .02-.02.04-.04.05a.15.15 0 0 1-.19 0c-1.24-.96-2.34-.92-3.3.15-.12.13-.24.53-.37 1.2 0 .03-.03.06-.05.08a.16.16 0 0 1-.1.04c-.14-.01-.4-.14-.57-.17a2.41 2.41 0 0 0-1.33.15c-1.13.45-1.37 1.49-1.04 2.52a.19.19 0 0 1-.07.22.21.21 0 0 1-.08.03c-.22.05-.56.02-.82.09-1.5.4-2.08 2.4-.76 3.37a.14.14 0 0 1 .06.13.14.14 0 0 1-.08.12c-2.11 1.04-1.42 3.77.96 3.82a68.6 68.6 0 0 0 2.18.03l.02.04v.04c0 .02-.02.03-.03.03-1.18.73-.97 2.55.57 2.64a40.14 40.14 0 0 0 2.63.05.22.22 0 0 1 .12.11.2.2 0 0 1 .02.09v13.56l-4.43-.69a.21.21 0 0 1-.12-.06.2.2 0 0 1-.05-.13v-5.1a1.13 1.13 0 0 0-.36-.83c-.8-.77-1.54-1.5-2.12-2.2-5.67-6.88-4.46-16.78 3.43-21.49a15.01 15.01 0 0 1 15.15-.06 14.55 14.55 0 0 1 6.78 9.05c.6 2.24 1.29 4.32 2.08 7.1.07.27.05.48-.08.64-.11.12-.33.19-.64.19h-2.95c-.05 0-.1.06-.14.1a.22.22 0 0 0-.07.11c-.06.25-.09.48-.08.68v6.17c-.02.7-.43.92-1.18.94h-4.3c-.53 0-1.52.26-1.52.94v5.86a.2.2 0 0 1-.03.09.2.2 0 0 1-.13.1.2.2 0 0 1-.08 0L26 43.95Z" fill="#fff"/><path d="m26 43.94-2.4-.36V30.21a.2.2 0 0 0-.07-.15.22.22 0 0 0-.16-.06c-.96.01-1.81 0-2.54-.04-1.54-.08-1.74-2.1-.57-2.82.02-.01.03-.02.03-.04v-.04a.07.07 0 0 0-.02-.04 68.6 68.6 0 0 1-2.18-.03c-2.38-.05-3.07-2.78-.96-3.82a.15.15 0 0 0 .06-.05.14.14 0 0 0-.04-.2c-1.32-.96-.73-2.97.77-3.37.25-.07.6-.04.81-.09a.2.2 0 0 0 .13-.1.19.19 0 0 0 .02-.15c-.33-1.03-.09-2.07 1.04-2.52.46-.18.9-.23 1.33-.15.18.03.43.16.57.17.03 0 .07-.01.1-.04a.14.14 0 0 0 .05-.08c.13-.67.25-1.07.37-1.2.96-1.07 2.06-1.11 3.3-.15a.15.15 0 0 0 .13.03l.06-.03a.15.15 0 0 0 .04-.05c.82-1.8 3.07-1.7 3.9.01l.06.07a.2.2 0 0 0 .25-.02 2.03 2.03 0 0 1 3.48.95 4.78 4.78 0 0 0 .17.54.18.18 0 0 0 .13.06l.08-.02c1.84-.76 3.23.8 2.75 2.58a.17.17 0 0 0 .03.16.18.18 0 0 0 .15.06c2.12-.02 2.92 2.42 1.12 3.49a.14.14 0 0 0 .01.24c.77.38 1.2.95 1.26 1.7.1 1.03-.85 2-1.9 1.99h-9.9c-.38 0-.77.15-1.15.35a.33.33 0 0 0-.16.17c-.15.39-.15.87-.15 1.43v14.99Z" fill="#FDB81A"/></svg>