<!-- by TradingView --><svg width="56" height="56" viewBox="0 0 56 56" xmlns="http://www.w3.org/2000/svg"><path fill="#012C3D" d="M0 0h56v56H0z"/><path d="M44 19c-8.41 1-13.8-1-13.8-1L29 23.5c6.38 1.73 11 1.83 15 1V19Z" fill="#78BCC3"/><path d="M16 19.5c8.41-1 13.55 1.5 13.55 1.5l1.2-5.51A30.2 30.2 0 0 0 16 14.5v5ZM14 28c8.41-1 13.7 1 13.7 1l1.3-5.5c-6.38-1.73-11-1.83-15-1V28ZM12 36c8.41-.97 14 1 14 1l1-5c-6.38-1.73-11-1.83-15-1v5Z" fill="#EE4651"/><path d="M42 28c-8.41 1-13.71-1.42-13.71-1.42L27 32c6.38 1.73 11 1.83 15 1v-5ZM40 36c-8.41 1-13.6-1-13.6-1L25 40.5c6.38 1.73 11 1.83 15 1V36Z" fill="#78BCC3"/></svg>