<!-- by TradingView --><svg width="56" height="56" viewBox="0 0 56 56" xmlns="http://www.w3.org/2000/svg"><path fill="#F0F3FA" d="M0 0h56v56H0z"/><path d="M44 23h-6.48L31 28.01 37.52 33H44V23Z" fill="url(#ahudq4w22)"/><path d="M12 23h6.48L25 28.01 18.48 33H12V23Z" fill="url(#bhudq4w22)"/><path d="M41 38.5 37.5 33l-7.85-2L28 38.5l3.5 5.5 9.5-5.5Z" fill="url(#chudq4w22)"/><path d="m24.5 12 3.5 5.17L26.5 25l-8-2-3.5-5.5 9.5-5.5Z" fill="url(#dhudq4w22)"/><path d="m24.5 44 3.5-5.5-1.5-7.5-8 2-3.5 5.5 9.5 5.5Z" fill="url(#ehudq4w22)"/><path d="M41 17.5 37.5 23l-8 2-1.5-7.83L31.5 12l9.5 5.5Z" fill="url(#fhudq4w22)"/><defs><linearGradient id="ahudq4w22" x1="40.9" y1="27.99" x2="28.78" y2="27.99" gradientUnits="userSpaceOnUse"><stop offset=".14" stop-color="#F08C1E"/><stop offset="1" stop-color="#FEEBD9"/></linearGradient><linearGradient id="bhudq4w22" x1="15.1" y1="27.99" x2="27.22" y2="27.99" gradientUnits="userSpaceOnUse"><stop offset=".14" stop-color="#F08C1E"/><stop offset="1" stop-color="#FEEBD9"/></linearGradient><linearGradient id="chudq4w22" x1="34.58" y1="38.89" x2="29.2" y2="28.87" gradientUnits="userSpaceOnUse"><stop offset=".14" stop-color="#F08C1E"/><stop offset="1" stop-color="#FEEBD9"/></linearGradient><linearGradient id="dhudq4w22" x1="21.44" y1="17.09" x2="26.81" y2="27.11" gradientUnits="userSpaceOnUse"><stop offset=".14" stop-color="#F08C1E"/><stop offset="1" stop-color="#FEEBD9"/></linearGradient><linearGradient id="ehudq4w22" x1="21.44" y1="38.91" x2="26.81" y2="28.89" gradientUnits="userSpaceOnUse"><stop offset=".14" stop-color="#F08C1E"/><stop offset="1" stop-color="#FEEBD9"/></linearGradient><linearGradient id="fhudq4w22" x1="34.58" y1="17.11" x2="29.2" y2="27.13" gradientUnits="userSpaceOnUse"><stop offset=".14" stop-color="#F08C1E"/><stop offset="1" stop-color="#FEEBD9"/></linearGradient></defs></svg>