<!-- by TradingView --><svg width="56" height="56" viewBox="0 0 56 56" xmlns="http://www.w3.org/2000/svg"><path fill="#252541" d="M0 0h56v56H0z"/><path d="M10.01 28.76h.04l3.2-4.72.04-.03H14.95a.06.06 0 0 1 .03 0 .05.05 0 0 1 .02.04v7.92l-.01.02-.03.01h-1.95v-4.34a2.16 2.16 0 0 0-.05-.35h-.02l-2.44 3.65-.03.03a.1.1 0 0 1-.05 0h-.9l-.02-.02-2.46-3.58-.01-.01H7V31.96l-.01.03-.03.01H5L5 31.97v-7.94l.01-.03h1.71l.03.02L10 28.76ZM19.53 24h1.93a.03.03 0 0 1 .02.02l3.77 7.94V32H23.18l-.01-.02-.74-1.68a.03.03 0 0 0-.02-.01h-3.9v.01l-.75 1.68V32h-2a.03.03 0 0 1-.02-.01v-.03l3.76-7.94a.03.03 0 0 1 .02-.02Zm-.4 4.97V29a.02.02 0 0 0 .02 0H21.85l.01-.01v-.01L20.5 25.9v-.01h-.02a.02.02 0 0 0-.02 0l-1.34 3.08ZM30.76 27.45A54.83 54.83 0 0 0 32 28.78l.01-.01V24h1.99l.01.01V32l-.02.01h-1.6a.1.1 0 0 1-.08-.03 786.6 786.6 0 0 1-4.27-4.75h-.01l-.02.01V32L28 32H26l-.01-.02V24h1.62a.1.1 0 0 1 .08.02l3.06 3.42ZM39 24a1605.5 1605.5 0 0 1 4 .02v1.48a.03.03 0 0 1-.03.01h-2.94l-.02.01-.01.02v6.45h-.02a112.69 112.69 0 0 1-1.97-.01v-6.44l-.02-.02H35v-.02L35 24.02l.02-.01H39ZM46.04 30.48h3.92l.03.01.01.03v1.44l-.01.03H44l-.01-.03v-7.92l.01-.03H46l.01.03v6.4l.01.03.03.01Z" fill="#fff"/></svg>