<!-- by TradingView --><svg width="56" height="56" viewBox="0 0 56 56" xmlns="http://www.w3.org/2000/svg"><path fill="#F0F3FA" d="M0 0h56v56H0z"/><path d="M35.47 18.87a87.54 87.54 0 0 0-10.16 7.45c-4.04 3.4-7.73 6.81-10.15 9.77a20.42 20.42 0 0 0-2.61 3.68c-.63 1.26-.72 2.15-.27 2.7.27.35.72.53 1.26.53C15.88 43 24 37 24 37s-6.74 3-7.82 3H16c0-.09 0-1 2.4-3.9a72.74 72.74 0 0 1 8.35-7.99C33.49 22.55 39.11 19 40.82 19H41c0 .09-.14 1.58-2.66 4.54a214.72 214.72 0 0 1-5.48 6l.27.28c2.52-2.07 6.3-5.3 7.82-7.18a24.5 24.5 0 0 0 2.52-3.5c.63-1.16.72-2.06.18-2.6-.27-.36-.72-.54-1.26-.54-1.8-.09-4.77 1.53-6.92 2.87ZM24 16a4 4 0 0 0 8 0c.1-2.15-1.75-4-3.9-4a4.1 4.1 0 0 0-4.1 4Z"/><path d="M12.29 16.54c-.45.54-.36 1.44.18 2.61.54.9 1.35 2.07 2.52 3.51 1.35 1.62 4.6 4.43 7.04 6.5l.4-.34c-1.72-1.8-3.84-4.09-4.83-5.26C15.08 20.5 15 19.09 15 19h.18c1.71 0 7.28 3.48 14.04 9.06a72.92 72.92 0 0 1 8.37 8.01C40 39 40 39.91 40 40h-.18C38.74 40 32 37 32 37s8.12 6 10.46 6c.54 0 .99-.18 1.26-.54.45-.54.36-1.44-.27-2.7a26.41 26.41 0 0 0-2.61-3.69 98.39 98.39 0 0 0-10.18-9.81 87.74 87.74 0 0 0-10.18-7.47C18.23 17.62 15.26 16 13.55 16c-.54 0-1 .18-1.26.54Z" fill="#F86823"/></svg>