<!-- by TradingView --><svg width="56" height="56" viewBox="0 0 56 56" xmlns="http://www.w3.org/2000/svg"><path fill="#F0F3FA" d="M0 0h56v56H0z"/><path d="m27.54 11.03 1.97 2.23a.1.1 0 0 1 .02.07.1.1 0 0 1-.04.07l-.04.03a.1.1 0 0 1-.08.02.11.11 0 0 1-.07-.04l-1.75-1.97a.13.13 0 0 0-.15-.04.13.13 0 0 0-.04.04l-1.64 1.9a.07.07 0 0 1-.1 0l-.04-.03a.1.1 0 0 1-.04-.08.11.11 0 0 1 .03-.08l1.82-2.12a.1.1 0 0 1 .08-.03.1.1 0 0 1 .07.03Z"/><path d="m27.31 12.24-1.03 1.33a.1.1 0 0 1-.11.04.1.1 0 0 1-.04-.02l-.04-.04a.05.05 0 0 1-.02-.03v-.04l1.23-1.58a.1.1 0 0 1 .06-.04.09.09 0 0 1 .07.03l1.5 1.5a.1.1 0 0 1 .02.07.1.1 0 0 1-.03.06l-.05.06-.02.01a.06.06 0 0 1-.05 0l-.02-.01-1.33-1.35a.1.1 0 0 0-.14 0Z"/><path d="M28.48 13.7a.1.1 0 0 1 .02.14l-.06.07-.02.02-.04-.01-.9-.72a.11.11 0 0 0-.09-.03.12.12 0 0 0-.07.05l-.53.68a.04.04 0 0 1-.07 0l-.06-.05a.08.08 0 0 1-.03-.05.08.08 0 0 1 .02-.06l.64-.82a.14.14 0 0 1 .19-.02l1 .8ZM36.25 18.55c.15-.77.11-1.4-.12-1.86a5.62 5.62 0 0 0-1.41-1.8 4.93 4.93 0 0 0-4.47-1.14 3.38 3.38 0 0 0-2.3 1.8.09.09 0 0 1-.11-.04l-.03-.06a.2.2 0 0 1 0-.2 3.56 3.56 0 0 1 3.5-1.94 5.73 5.73 0 0 1 5.01 3.16c.32.57.36 1.29.13 2.14l-.01.01h-.14l-.02-.01-.02-.01a.05.05 0 0 1-.01-.05ZM19.19 19.26a.06.06 0 0 1-.01.07l-.03.01h-.17a.18.18 0 0 1-.1-.05.19.19 0 0 1-.06-.1c-.23-1-.13-1.9.3-2.66a7.1 7.1 0 0 1 1.61-1.9 4.98 4.98 0 0 1 4.48-1.05c1.03.22 1.74.84 2.12 1.85a.1.1 0 0 1-.05.14.1.1 0 0 1-.14-.04 3.34 3.34 0 0 0-2.3-1.7 4.3 4.3 0 0 0-3.46.74c-1.53 1.09-2.88 2.72-2.2 4.7Z"/><path d="M27.18 14.28a.1.1 0 0 1-.16-.01.1.1 0 0 1-.01-.06.83.83 0 0 1 .33-.47.2.2 0 0 1 .2-.02c.24.1.41.22.5.33a.1.1 0 0 1-.06.17.1.1 0 0 1-.07-.02l-.3-.2a.21.21 0 0 0-.3.06l-.13.22ZM35.92 18.26l-.02.03a.06.06 0 0 1-.09-.01.06.06 0 0 1 0-.04c.07-1.77-1.74-3.1-3.2-3.74a11.55 11.55 0 0 0-1.79-.2 3.32 3.32 0 0 0-2.36 1.3.08.08 0 0 1-.08-.04.08.08 0 0 1-.02-.04v-.18l.01-.06a3.36 3.36 0 0 1 3.06-1.3c1.72.12 3.08.9 4.1 2.34.43.6.56 1.25.4 1.94ZM26.7 15.72l-.61-.58a.34.34 0 0 0-.04-.03c-2.17-1.24-3.98-.48-5.5 1.25a3.12 3.12 0 0 0-.78 2.43l-.02.02a.07.07 0 0 1-.06.01l-.1-.03a.2.2 0 0 1-.1-.07.22.22 0 0 1-.03-.13c-.04-1.07.34-2 1.11-2.78 1.1-1.11 2.41-1.84 3.94-1.54.84.16 1.93.56 2.31 1.36a.08.08 0 0 1-.02.1.07.07 0 0 1-.1-.01ZM27.38 14.66a.1.1 0 0 1-.06-.1c0-.02 0-.04.02-.05.13-.13.27-.14.4-.05a.08.08 0 0 1 .04.08.09.09 0 0 1-.05.07c-.16.06-.27.07-.35.05Z"/><path d="M35.28 17.79a.1.1 0 0 1-.07 0 .1.1 0 0 1-.06-.05c-.4-.82-.85-1.4-1.35-1.72-1.26-.84-2.9-1.38-4.32-.38a.1.1 0 0 1-.15-.03.1.1 0 0 1-.02-.04v-.06a.26.26 0 0 1 .1-.25c.7-.44 1.44-.62 2.22-.53.3.03.84.23 1.64.61a4.14 4.14 0 0 1 2.06 2.32.1.1 0 0 1 0 .07.1.1 0 0 1-.05.06ZM25.98 15.67v.02a.09.09 0 0 1-.13.04c-1.74-1.13-3.99-.23-4.88 1.55a72.55 72.55 0 0 0-.4.78.08.08 0 0 1-.12-.05l-.03-.08a.43.43 0 0 1 0-.31 4.06 4.06 0 0 1 3.77-2.75c.49-.03 1.07.18 1.73.64a.14.14 0 0 1 .06.16Z"/><path d="M34.27 17.15v.04l-.02.02a.05.05 0 0 1-.06 0 4.3 4.3 0 0 0-2.57-1.45l-.93.12a.05.05 0 0 1-.04-.02l-.01-.02v-.03l.03-.07a.2.2 0 0 1 .13-.13c.75-.2 1.51-.07 2.28.37.47.27 1.03.68 1.2 1.17ZM25.04 15.8l.01.15a.07.07 0 0 1-.02.06.06.06 0 0 1-.06 0c-.4-.14-.95-.15-1.65-.01-.78.16-1.3.61-1.54 1.36a.1.1 0 0 1-.1.08.1.1 0 0 1-.1-.09c-.14-.7.72-1.26 1.28-1.5a2.8 2.8 0 0 1 2.18-.04ZM39.49 15.7c.06.06.09.14.08.23a35.06 35.06 0 0 0-.19 2.91.12.12 0 0 1-.06.06l-.05.01h-.02a.1.1 0 0 1-.1-.07 263.66 263.66 0 0 1 .2-2.84c0-.04 0-.07-.04-.1-.04-.04-.07-.05-.1-.05a224.45 224.45 0 0 1-2.8.4.1.1 0 0 1-.08-.1v-.02a.12.12 0 0 1 .11-.13c.93-.08 1.87-.2 2.82-.36.09-.02.16 0 .23.06Z"/><path d="M32.32 16.04a.8.8 0 0 1 .34.25c.06.08.07.13.05.17a.05.05 0 0 1-.04.02.05.05 0 0 1-.04 0 1.4 1.4 0 0 0-.85-.34.05.05 0 0 1-.03-.04v-.02c0-.05.05-.08.15-.1a.8.8 0 0 1 .42.06ZM22.93 16.27c.16-.06.3-.07.46-.04.1.02.15.05.15.1a.06.06 0 0 1-.02.05.06.06 0 0 1-.04.02 1.52 1.52 0 0 0-.92.33.06.06 0 0 1-.06-.03c-.03-.04-.01-.1.05-.18a.9.9 0 0 1 .38-.25ZM36.78 16.8a.1.1 0 0 1-.08-.01.1.1 0 0 1-.03-.07v-.03a.27.27 0 0 1 .2-.16l2.04-.32a.17.17 0 0 1 .2.11v.08l-.25 2.13v.02a.06.06 0 0 1-.06.03h-.05a.12.12 0 0 1-.08-.05.12.12 0 0 1-.03-.09l.22-1.87a.11.11 0 0 0-.08-.12.1.1 0 0 0-.05 0l-1.95.36ZM18.73 16.7l-2.78-.1h-.02a.04.04 0 0 0-.03.06l.3 2.43a.05.05 0 0 1-.02.03.04.04 0 0 1-.04.02h-.16l-.03-.02-.01-.03-.33-2.66a.04.04 0 0 1 .02-.03.04.04 0 0 1 .03-.02l3.08.12a.05.05 0 0 1 .03.01.05.05 0 0 1 0 .03v.12a.05.05 0 0 1-.03.04h-.01Z"/><path d="M37 17.26a.08.08 0 0 1-.06-.02.08.08 0 0 1-.03-.07v-.08l.02-.04a.07.07 0 0 1 .04-.02l1.3-.16a.21.21 0 0 1 .24.21l-.05 1.3c0 .03-.02.07-.04.1a.14.14 0 0 1-.1.03h-.09a.07.07 0 0 1-.05-.08l.05-1.21a.1.1 0 0 0-.07-.1.1.1 0 0 0-.04 0l-1.12.14ZM16.5 18.72l-.19-1.58a.16.16 0 0 1 .1-.17l.07-.01 1.84.07a.07.07 0 0 1 .05.02.07.07 0 0 1 .02.06v.07l-.01.03a.08.08 0 0 1-.05.04l-.03.01-1.58-.06a.11.11 0 0 0-.12.08v.05c.08.74.12 1.2.1 1.38a.1.1 0 0 1-.02.08.1.1 0 0 1-.18-.07Z"/><path d="M17.31 18.6a.11.11 0 0 1-.1.08.11.11 0 0 1-.11-.07c-.1-.27-.1-.56 0-.87a.17.17 0 0 1 .17-.12l1 .04a.08.08 0 0 1 .06.08v.06a.1.1 0 0 1-.03.07.1.1 0 0 1-.07.03l-.8-.03a.18.18 0 0 0-.14.06.18.18 0 0 0-.04.16c.05.28.07.45.06.5ZM37.55 18.41l.02-.37a.17.17 0 0 0-.06-.12.16.16 0 0 0-.12-.04l-.54.06a.1.1 0 0 1-.08-.02.1.1 0 0 1-.03-.08v-.08a.14.14 0 0 1 .04-.1.14.14 0 0 1 .1-.04l.76.03a.17.17 0 0 1 .12.05.18.18 0 0 1 .05.13l-.03.63a.07.07 0 0 1-.02.05.07.07 0 0 1-.05.01h-.06a.1.1 0 0 1-.07-.03.1.1 0 0 1-.03-.08Z"/><path d="M18.29 18.26a.05.05 0 0 1 .03.02.05.05 0 0 1 .02.03v.08a.04.04 0 0 1-.06.04c-.3-.06-.44.05-.44.31a.08.08 0 0 1-.07.09l-.05-.01a.08.08 0 0 1-.04-.05.77.77 0 0 1-.02-.38c.01-.05.03-.08.06-.1a.17.17 0 0 1 .12-.05l.45.02ZM37.07 18.55c-.15 0-.25-.03-.3-.06a.11.11 0 0 1-.04-.12.11.11 0 0 1 .08-.09c.18-.03.29.02.33.14a.1.1 0 0 1 .01.05.1.1 0 0 1-.01.04l-.03.03a.07.07 0 0 1-.04 0ZM18.26 19.03l-.06-.01a.1.1 0 0 1-.04-.07c0-.02 0-.05.02-.08a.18.18 0 0 1 .05-.07c.07-.05.12-.07.16-.05.09.05.1.1.04.15a.47.47 0 0 1-.17.13ZM40.48 27.5a.07.07 0 0 1-.07-.06.07.07 0 0 1 .03-.08c.32-.14.52-.26.63-.35.35-.33.68-1.07.8-1.56.3-1.3.18-2.6-.38-3.88a.67.67 0 0 0-.14-.2c-1.34-1.41-2.44-2.7-4.57-2.19l-.1-.01a.14.14 0 0 1-.06-.09.13.13 0 0 1 .09-.16 3.2 3.2 0 0 1 2.08.01c1.1.47 2.05 1.3 2.87 2.52.27.4.48 1.54.55 1.97a4.8 4.8 0 0 1-.64 3.31c-.25.42-.61.68-1.09.76ZM18.74 19.67a.07.07 0 0 1-.03.13l-.05-.01c-.76-.42-1.44-.82-2.15-.39-.7.42-1.32.96-1.74 1.75-.52 1-.82 1.66-.88 1.95-.31 1.46-.24 3.17.7 4.27a2.77 2.77 0 0 0 .95.65.1.1 0 0 1 .03.08.1.1 0 0 1-.01.04l-.05.08a.1.1 0 0 1-.05.04.1.1 0 0 1-.07 0 2.99 2.99 0 0 1-1.2-.93 4.87 4.87 0 0 1-.77-3.14c.1-1.58 1.83-5.31 3.83-5.2.57.04 1.06.27 1.5.68Z"/><path d="m37.08 19.55-.04-.01a.07.07 0 0 1 .01-.11.98.98 0 0 1 .7-.09c2 .48 3.27 1.73 3.65 3.78.26 1.42.32 2.97-.88 3.96a.05.05 0 0 1-.04.01l-.03-.01-.05-.05v-.01a.01.01 0 0 1 0-.01c.43-.44.68-.87.75-1.29.23-1.3.12-2.54-.32-3.69-.6-1.54-2.26-2.34-3.75-2.48ZM18.3 20.06c.02.01.04.03.04.05v.07l-.04.05-.01.01h-.03c-.7-.34-1.31-.3-1.86.14a5.73 5.73 0 0 0-1.83 2.83c-.1.98-.15 1.54-.14 1.68a3.05 3.05 0 0 0 1.2 2.28.1.1 0 0 1-.02.11v.01a.15.15 0 0 1-.2 0c-1.16-.84-1.28-1.88-1.2-3.3.04-.58.15-1.1.35-1.56.57-1.4 2.08-3.37 3.74-2.37Z"/><path d="M40.32 25.99c.24-.58.37-.96.37-1.13a5.3 5.3 0 0 0-.8-3.13 3.54 3.54 0 0 0-1.94-1.2.28.28 0 0 1-.2-.21v-.02a.1.1 0 0 1 .03-.1.1.1 0 0 1 .1-.02c.51.14 1.01.39 1.51.72.43.28.79.7 1.06 1.25.56 1.14.65 2.3.28 3.5a.64.64 0 0 1-.34.4.05.05 0 0 1-.06 0 .05.05 0 0 1-.01-.06ZM15.8 26.12a.07.07 0 0 1 .01.08.07.07 0 0 1-.07.04l-.17-.01a.12.12 0 0 1-.1-.05 3.54 3.54 0 0 1-.06-3.69c.62-1.08 1.1-1.93 2.4-1.87a.1.1 0 0 1 .1.07.1.1 0 0 1 0 .04v.05a.07.07 0 0 1-.04.06h-.03c-1.3-.04-1.73 1.04-2.38 2.12a3.15 3.15 0 0 0 .35 3.17Z"/><path d="M39.94 24.88c.26-.75.13-.99-.08-1.88-.17-.7-.6-1.2-1.32-1.5a.12.12 0 0 1-.07-.09.13.13 0 0 1 0-.1h.01a.16.16 0 0 1 .2-.07c.58.29.98.64 1.18 1.07.38.77.62 1.78.26 2.63 0 .02-.02.03-.04.03h-.05l-.05-.02a.06.06 0 0 1-.03-.03v-.04ZM17.32 21.5l.1.09a.06.06 0 0 1 .02.06l-.02.02-.02.02c-.37.15-.76.5-1.15 1.04-.45.6-.52 1.25-.22 1.92a.1.1 0 0 1-.03.12.1.1 0 0 1-.12 0c-.53-.39-.28-1.33-.05-1.85a2.67 2.67 0 0 1 1.49-1.42Z"/><path d="M39.58 22.75c.07.15.1.3.1.44 0 .1-.04.16-.09.17a.06.06 0 0 1-.04 0 .06.06 0 0 1-.03-.05 1.58 1.58 0 0 0-.14-.46 1.59 1.59 0 0 0-.29-.39.06.06 0 0 1 0-.08c.04-.03.1-.02.19.03.12.08.22.2.3.34ZM16.14 23.2a.88.88 0 0 1 .28-.35c.09-.06.15-.08.2-.04a.06.06 0 0 1 .01.04.06.06 0 0 1-.01.04c-.12.13-.21.27-.28.41a1.6 1.6 0 0 0-.13.5.06.06 0 0 1-.04.03h-.02c-.06 0-.09-.06-.1-.17a.88.88 0 0 1 .09-.45ZM44.97 27.66l-2.28 2.3a.1.1 0 0 1-.12.02.1.1 0 0 1-.03-.03l-.04-.04a.12.12 0 0 1-.02-.09c0-.03.01-.05.03-.08l2.03-2.04a.15.15 0 0 0-.02-.22l-2.14-1.68a.08.08 0 0 1-.01-.11l.03-.05a.12.12 0 0 1 .17-.02l2.39 1.88a.1.1 0 0 1 .04.08.1.1 0 0 1-.03.08Z"/><path d="M42.2 26.42a.08.08 0 0 1-.02-.1l.05-.06a.1.1 0 0 1 .13-.02l1.54 1.2a.14.14 0 0 1 .05.1.15.15 0 0 1-.03.11l-1.26 1.65a.12.12 0 0 1-.13.04.12.12 0 0 1-.04-.02l-.06-.05-.01-.01a.06.06 0 0 1 0-.07l1.17-1.52a.13.13 0 0 0-.02-.17l-1.37-1.08ZM11.03 28.46l2.17-2.06a.1.1 0 0 1 .07-.03.1.1 0 0 1 .07.04l.03.04c.02.03.03.05.03.08s-.02.05-.04.07l-1.93 1.84a.13.13 0 0 0-.02.15c0 .02.02.04.03.05l1.94 1.62.02.02a.07.07 0 0 1 0 .06l-.01.02-.04.05a.11.11 0 0 1-.15.01l-2.16-1.8a.1.1 0 0 1-.04-.08.1.1 0 0 1 .03-.08Z"/><path d="M42.1 28.74a.1.1 0 0 1-.14.03l-.08-.06-.01-.03v-.03l.69-.97a.12.12 0 0 0 .01-.09.12.12 0 0 0-.04-.07L41.8 27a.05.05 0 0 1 0-.07l.04-.06a.09.09 0 0 1 .09-.04l.03.02.85.61a.14.14 0 0 1 .04.2l-.76 1.07ZM13.47 29.76a.07.07 0 0 1 .03.05.07.07 0 0 1-.02.06l-.05.05a.1.1 0 0 1-.13.01l-1.43-1.28a.14.14 0 0 1-.01-.2l1.34-1.53a.12.12 0 0 1 .08-.04.11.11 0 0 1 .09.03l.05.05a.06.06 0 0 1 .02.04.06.06 0 0 1-.02.04l-1.23 1.41a.12.12 0 0 0 .01.18l1.27 1.13Z"/><path d="M41.41 27.45a.08.08 0 0 1 .02-.14h.05c.15.03.28.13.4.3a.18.18 0 0 1 .02.19c-.1.21-.2.36-.31.45a.09.09 0 0 1-.12-.01.1.1 0 0 1-.01-.12l.18-.26a.2.2 0 0 0-.04-.27l-.19-.14ZM13.63 27.42a.1.1 0 0 1 .07-.04.1.1 0 0 1 .08.02l.07.06.02.02-.01.04-.73.94a.12.12 0 0 0-.02.08c0 .04.02.07.05.09l.69.54a.05.05 0 0 1 0 .06l-.04.06a.08.08 0 0 1-.1.04l-.03-.02-.83-.65a.14.14 0 0 1-.02-.2l.8-1.04ZM41.25 27.71c-.05-.1-.12-.17-.18-.14-.05.02-.06.12-.02.22.04.1.12.17.17.15.06-.02.07-.13.03-.23Z"/><path d="M14.25 28.81a.09.09 0 0 1 .01.11.09.09 0 0 1-.1.04.78.78 0 0 1-.38-.37.2.2 0 0 1 0-.2c.13-.21.25-.35.37-.43a.1.1 0 0 1 .13.02.1.1 0 0 1 0 .13l-.23.25a.2.2 0 0 0 .02.29l.18.16ZM40.42 28.1l.01-.08a.07.07 0 0 1 .12-.05c1.33.77 2.03 1.8 2 3.4a6.16 6.16 0 0 1-2.4 4.85 2.86 2.86 0 0 1-2.95.44v-.12a.07.07 0 0 1 .04-.05.07.07 0 0 1 .05 0c.47.15.92.21 1.33.18 1.14-.1 2.26-1.38 2.8-2.33l.45-.82a6.8 6.8 0 0 0 .35-3.07 3.54 3.54 0 0 0-1.8-2.32v-.03ZM14.72 28.47c-.01-.1-.09-.18-.17-.17-.08 0-.14.1-.13.2.01.1.09.18.17.18.08-.01.14-.1.13-.2Z"/><path d="M40.4 28.6a.1.1 0 0 1 .07-.03.1.1 0 0 1 .08.03c.6.66.96 1.24 1.09 1.76.42 1.72-.03 3.35-1.38 4.87a2.83 2.83 0 0 1-2.61 1.05.1.1 0 0 1-.05-.07.1.1 0 0 1 0-.04v-.06s0-.02.02-.03h.03c1.53.1 2.14-.58 3.01-1.75a4.39 4.39 0 0 0-.27-5.6.09.09 0 0 1-.02-.06c0-.03 0-.05.02-.06ZM19.23 37.06a.08.08 0 0 1 .07.02.08.08 0 0 1 .02.07v.02a.2.2 0 0 1-.14.17c-.2.05-.67.14-1.43.24-.48.06-.95-.08-1.42-.43a6.61 6.61 0 0 1-2.73-5.57c-.01-1.34.43-2.69 1.89-2.94l.04.01c.02.01.03.02.03.04v.04c0 .02-.01.03-.03.04-.55.34-1.19.5-1.4 1.37-.1.36-.17.76-.23 1.17v.35l.24 1.95c.07.53.3 1.03.67 1.52.72.93 1.59 1.96 2.74 2.15h.13l1.55-.22Z"/><path d="M15.55 29.12h.04c.02 0 .03 0 .04.02a.06.06 0 0 1 0 .08c-1.46 1.5-1.43 3.62-.52 5.35l.14.2c.66.69 1.27 1.45 2.01 1.67a5.63 5.63 0 0 0 1.53.04.08.08 0 0 1 .05.06v.04l-.05.13-.01.01-.02.01c-1.72.37-2.7-.46-3.66-1.7a5.22 5.22 0 0 1-.87-3.53c.05-.8.57-2.04 1.32-2.38ZM37.95 35.73c-.02 0-.03 0-.04-.02a.05.05 0 0 1-.01-.04v-.06l.01-.02.02-.01c.68.03 1.22-.3 1.63-.97.55-.9.95-1.46 1.07-2.42a4.7 4.7 0 0 0-.41-2.64.1.1 0 0 1 .05-.1.1.1 0 0 1 .05 0h.09a.1.1 0 0 1 .06.02l.04.05c.3.74.45 1.22.48 1.43.04.27-.01.8-.15 1.6-.09.47-.29.96-.61 1.47-.65 1.02-1.11 1.86-2.28 1.71Z"/><path d="M15.75 30.13a.05.05 0 0 1 .06.02.05.05 0 0 1 0 .07 3.25 3.25 0 0 0-.6 3c.02.12.06.22.12.32.71 1.14 1.35 2.15 2.73 2.08a.12.12 0 0 1 .1.04.13.13 0 0 1 .03.09c0 .04 0 .07-.03.1a.14.14 0 0 1-.1.05c-1.23.16-1.82-.52-2.5-1.42a3.45 3.45 0 0 1-.34-3.87c.12-.23.3-.4.53-.48Z"/><path d="M15.95 31.34c-.15.4-.14.95 0 1.64a1.9 1.9 0 0 0 1.37 1.51.1.1 0 0 1 0 .2c-.68.16-1.26-.7-1.5-1.24a2.86 2.86 0 0 1-.08-2.18l.14-.02a.06.06 0 0 1 .07.06v.03ZM26.16 25.14l-.03.01a49.41 49.41 0 0 1-2.63.03v-.02h.01A170.2 170.2 0 0 0 27.48 23h.02v.04c-.31.55-.75 1.24-1.3 2.07 0 .02-.01.02-.04.03ZM30.45 24.04a134.25 134.25 0 0 0 1.93 1.01v.02h-.02c-.65.02-1.48.02-2.5 0h-.03l-.03-.03a40.07 40.07 0 0 1-1.3-2h.04l1.9 1ZM27.8 23.28l.02 2.61v.03l-.03.02a.06.06 0 0 1-.06 0l-1.17-.61a.1.1 0 0 1-.05-.06l.01-.07 1.19-1.94.02-.02h.03l.03.01v.03ZM28.1 23.18l.02-.02.02-.01h.03l.02.01 1.27 1.95a.1.1 0 0 1 .02.08.1.1 0 0 1-.05.06l-1.18.65a.06.06 0 0 1-.06 0c-.01 0-.02 0-.03-.02v-.03l-.05-2.67ZM32.46 25.45l-2.48 1.33a.07.07 0 0 1-.06 0l-.02-.02v-.03l-.01-1.25a.1.1 0 0 1 .03-.07.1.1 0 0 1 .07-.03l2.45-.01h.02l.02.03v.03l-.02.02ZM23.58 25.56c-.01 0-.02 0-.02-.02v-.05h.04l2.43-.04a.1.1 0 0 1 .07.03.1.1 0 0 1 .04.07l.01 1.25v.02l-.02.02-.03.01h-.03l-2.5-1.29ZM28.4 26.14l1.08-.59a.06.06 0 0 1 .06 0 .06.06 0 0 1 .03.05l.01 1.16v.03l-.03.02a.06.06 0 0 1-.06 0l-1.1-.57-.01-.02a.05.05 0 0 1 0-.06l.02-.02ZM27.55 26.28l-.99.52a.07.07 0 0 1-.07 0 .07.07 0 0 1-.02-.02l-.01-.03v-1.09c.02 0 .02-.02.03-.02a.07.07 0 0 1 .07 0l1 .53.02.02a.06.06 0 0 1 0 .06l-.02.03ZM32.6 25.7l.03-.01.03.01.01.02v.03l-1.2 1.95a.1.1 0 0 1-.05.05l-.08-.01-1.18-.61a.06.06 0 0 1-.03-.02.05.05 0 0 1 0-.05l.02-.03 2.46-1.34ZM23.37 25.77l2.49 1.33.02.02a.05.05 0 0 1 0 .06l-.02.02-1.19.63a.12.12 0 0 1-.08 0 .1.1 0 0 1-.06-.04l-1.23-1.96v-.05l.03-.01h.04ZM32.97 27.97a119.21 119.21 0 0 0 .01 2.05h-.03c-.34-.51-.76-1.18-1.25-2v-.08a39.36 39.36 0 0 1 1.24-2.02h.02v.02l.01 2.03ZM23.03 28.07a114.9 114.9 0 0 0 0-2.08l.02.02c.35.5.77 1.18 1.26 2.02l.01.04v.03a40.34 40.34 0 0 1-1.27 2.05h-.01v-.02l-.01-2.06ZM27.73 27.72l-1.04-.54a.07.07 0 0 1-.02-.02.06.06 0 0 1 0-.07s0-.02.02-.02l1.02-.56a.07.07 0 0 1 .1.02l.01.04.02 1.09-.01.03-.03.03a.07.07 0 0 1-.07 0ZM28.23 26.48l1.1.56s.02 0 .02.02a.05.05 0 0 1 0 .05l-.02.02-1.08.6a.06.06 0 0 1-.08-.02l-.01-.03-.02-1.16v-.02l.03-.02a.07.07 0 0 1 .06 0ZM29.88 28.56v-1.18l.03-.02a.07.07 0 0 1 .06 0l1.1.54c.02 0 .02.01.03.02a.05.05 0 0 1 0 .06l-.02.02-1.11.61h-.06a.06.06 0 0 1-.03-.02v-.03ZM26.05 28.68l-1.1-.57-.02-.02a.05.05 0 0 1 0-.05l.02-.03 1.08-.59a.06.06 0 0 1 .06 0l.03.02v.03l.02 1.16v.03l-.03.02a.06.06 0 0 1-.06 0ZM27.58 28.09l-1.03.55a.08.08 0 0 1-.07 0 .07.07 0 0 1-.03-.03V27.45l.03-.02a.07.07 0 0 1 .07 0l1.03.55.03.02a.06.06 0 0 1 0 .07l-.03.02ZM29.55 28.01a2.67 2.67 0 0 0 .03.58s0 .02-.02.03l-.03.01h-.04l-1.02-.53a.1.1 0 0 1-.04-.04.1.1 0 0 1-.02-.05l.02-.05a.1.1 0 0 1 .04-.04l1.03-.52a.07.07 0 0 1 .07.01l.01.03v.04c-.02.04-.02.22-.03.53ZM32.67 30.3l-2.55-1.36-.02-.02-.01-.03v-.03l.03-.02 1.2-.64a.12.12 0 0 1 .13 0 .1.1 0 0 1 .03.03l1.25 2a.04.04 0 0 1 0 .05l-.03.02h-.03ZM23.4 30.37a.05.05 0 0 1-.05 0l-.01-.03v-.03l1.19-1.98a.1.1 0 0 1 .06-.04h.08l1.2.61.02.02v.06l-.02.02-2.46 1.37ZM27.84 28.39l.03 1.08-.01.04-.02.02a.07.07 0 0 1-.07 0l-1.04-.52a.07.07 0 0 1-.02-.03.06.06 0 0 1 0-.06c0-.01 0-.02.02-.02l1-.57a.07.07 0 0 1 .1.03l.01.03ZM29.3 28.97l-1.02.55a.07.07 0 0 1-.07 0 .07.07 0 0 1-.02-.02.06.06 0 0 1-.01-.03l-.01-1.08v-.04l.03-.02a.07.07 0 0 1 .07 0l1.03.53.02.02a.06.06 0 0 1 0 .07l-.02.02ZM26.44 30.43v-1.18l.02-.02a.06.06 0 0 1 .06 0l1.1.54c.02 0 .02.02.03.02a.05.05 0 0 1 0 .06l-.02.02-1.1.6a.06.06 0 0 1-.08-.01l-.01-.03ZM29.45 30.39l-1-.53a.07.07 0 0 1-.03-.02.06.06 0 0 1 0-.07l.03-.02 1-.53.03-.01h.03l.02.03.01.03.01 1.06v.03l-.03.03a.07.07 0 0 1-.07 0ZM32.41 30.47l.03.02a.04.04 0 0 1-.02.05l-.03.01-2.41.03a.1.1 0 0 1-.08-.03.1.1 0 0 1-.02-.03l-.01-.03-.02-1.24v-.03l.03-.02h.06l2.47 1.27ZM23.6 30.58l2.43-1.3a.06.06 0 0 1 .05 0l.03.02v.03l.01 1.23a.1.1 0 0 1-.03.06.1.1 0 0 1-.07.03H23.59l-.02-.02v-.03l.03-.02ZM28.21 32.77l-.04-2.64.01-.03.02-.02h.06l1.2.61a.1.1 0 0 1 .04.06c.01.03 0 .05 0 .07l-1.2 1.97-.02.02h-.03c-.01 0-.02 0-.03-.02v-.02ZM27.9 32.9l-.01.03-.02.02h-.03l-.03-.02-1.3-2a.1.1 0 0 1 0-.08.1.1 0 0 1 .05-.06l1.2-.67a.07.07 0 0 1 .07 0l.02.02.01.03.04 2.73ZM28.57 32.9l1.24-2.03.02-.02h.03l2.53-.03.04.01.02.03v.04l-.03.03-3.76 2.05a.07.07 0 0 1-.08-.01.05.05 0 0 1-.01-.07ZM25.54 32a170.82 170.82 0 0 0-1.92-1.01v-.02h.03c.64-.02 1.46-.02 2.47 0l.04.01.03.02a40.02 40.02 0 0 1 1.28 2 .03.03 0 0 1-.04 0c-.33-.19-.96-.52-1.9-1ZM38.57 34.88h-.03a.05.05 0 0 1-.01-.09 4.22 4.22 0 0 0 1.53-2.41l-.06-.92v-.02l.02-.02.03-.01h.02l.07.04a.19.19 0 0 1 .11.14c.14.74-.02 1.47-.49 2.2-.29.44-.7.96-1.2 1.09Z"/><path d="m39.46 33.06.14-.67a.1.1 0 0 1 .1-.08.1.1 0 0 1 .1.09c.06.34-.02.58-.24.73a.06.06 0 0 1-.1-.04v-.03ZM16.29 33.33a.88.88 0 0 1-.06-.46c.02-.1.05-.15.1-.16a.06.06 0 0 1 .05.01.06.06 0 0 1 .02.04 1.6 1.6 0 0 0 .36.93.06.06 0 0 1-.03.06c-.04.03-.1.02-.18-.05a.88.88 0 0 1-.26-.37ZM27.88 34.13c.3-.22.79.13.6.48a1.3 1.3 0 0 0-.04.08.16.16 0 0 0 .06.17c.49.37.4 1.05-.25 1.06a.3.3 0 0 1-.19-.06l-.2-.16a.1.1 0 0 0-.08-.01c-.06.01-.1.04-.1.1 0 .02.02.04.04.05.08.03.12.06.12.09.01.07-.01.11-.06.13a.72.72 0 0 1-.13.02.15.15 0 0 0-.13.1l-.47 1.02a.13.13 0 0 0 0 .1c0 .03.03.06.06.07l.23.1a.12.12 0 0 1 .06.07.12.12 0 0 1 0 .1l-.02.05a.12.12 0 0 1-.16.06 1.3 1.3 0 0 0-.3-.11.07.07 0 0 0-.02.02l-.01.04a.07.07 0 0 0 .03.06c.2.1.27.23.2.38l-.05.12a10.12 10.12 0 0 0-.22 1.73.1.1 0 0 1-.02.02.1.1 0 0 1-.07.02h-.09l-.04-.02a.11.11 0 0 1-.05-.07v-.04l.2-1.79a.07.07 0 0 0-.04-.07.07.07 0 0 0-.08.01l-.22.23a.21.21 0 0 0-.05.1l-.22 1.58-.01.02a.06.06 0 0 1-.04.03H26.03a.1.1 0 0 1-.04-.02.11.11 0 0 1-.05-.1 13.07 13.07 0 0 0 .21-1.62L27.18 36l.01-.06c0-.02 0-.04-.02-.06l-.03-.06a.11.11 0 0 1 .03-.15.11.11 0 0 1 .04-.02c.1-.01.16-.04.19-.08l.01-.04v-.04a.07.07 0 0 0-.07-.03c-.8.14-.77-1.4.15-1.06h.1c.03 0 .06-.03.08-.05l.21-.22Zm.4.9a.33.33 0 0 0-.32.33c0 .19.14.33.32.33s.33-.14.33-.33a.33.33 0 0 0-.33-.33Zm-.98-.45a.33.33 0 0 0-.33.33c0 .18.15.33.33.33.18 0 .32-.15.32-.33a.33.33 0 0 0-.32-.33Zm.78-.34c-.12 0-.2.11-.2.25s.1.25.2.25c.12 0 .22-.12.21-.25 0-.14-.1-.25-.21-.25ZM39.94 36.86l.35 2.92a.06.06 0 0 1-.03.06h-.02l-3.26-.11a.05.05 0 0 1-.04-.02.06.06 0 0 1-.01-.04v-.19a.06.06 0 0 1 .02-.03.06.06 0 0 1 .04-.02l2.98.11a.05.05 0 0 0 .04-.02.06.06 0 0 0 .02-.04l-.32-2.61a.06.06 0 0 1 .03-.06h.15a.06.06 0 0 1 .05.05ZM36.73 37.17a.1.1 0 0 1 .03-.07.1.1 0 0 1 .07-.04c.04 0 .07 0 .09.03.02.02.04.04.04.07.25 1.91-.79 3.72-2.28 4.83a8.58 8.58 0 0 1-2.36.64c-1.75.12-2.74-.34-3.64-1.8a.12.12 0 0 1 .04-.16l.05-.03a.06.06 0 0 1 .05-.01.06.06 0 0 1 .04.03c.66 1.38 1.96 1.78 3.36 1.73.07 0 .13-.02.2-.03 1-.26 2.06-.43 2.77-1.1a4.76 4.76 0 0 0 1.54-4.09ZM37.6 37.4c.1-.08.15-.2.1-.24-.04-.05-.16-.02-.25.06-.1.09-.15.2-.1.25.04.05.16.02.25-.06Z"/><path d="M39.13 37.19a.07.07 0 0 1 .02-.05l.02-.01h.08c.03 0 .06 0 .08.02.02.02.03.05.03.07l.22 1.84a.12.12 0 0 1-.12.13l-2.25-.08a.1.1 0 0 1-.07-.03.1.1 0 0 1-.02-.07v-.06a.09.09 0 0 1 .06-.08h.03l1.93.07a.18.18 0 0 0 .13-.06.18.18 0 0 0 .05-.15l-.19-1.54ZM37.57 37.78l.25.01a.2.2 0 0 0 .22-.2l.01-.36a.1.1 0 0 1 .1-.1.1.1 0 0 1 .1.08c.03.14.02.34-.04.6a.2.2 0 0 1-.13.15.78.78 0 0 1-.55 0 .09.09 0 0 1-.05-.11.09.09 0 0 1 .09-.07Z"/><path d="M37.43 38.58a.1.1 0 0 1-.1-.06.1.1 0 0 1-.02-.04v-.13l.04-.01 1.2-.09a.12.12 0 0 0 .11-.08v-.05l-.06-.9a.05.05 0 0 1 .03-.05h.01l.09-.01a.09.09 0 0 1 .06.02.09.09 0 0 1 .03.06l.08 1.1a.15.15 0 0 1-.08.13.14.14 0 0 1-.06.02l-1.33.09ZM19.63 37.42a.06.06 0 0 1 .08-.03l.03.03.02.04-.21.72c-.22.68-.08 1.15.37 1.71.43.52.76.9.99 1.14a4.73 4.73 0 0 0 4.19 1.42 3.81 3.81 0 0 0 2.85-1.82.09.09 0 0 1 .08 0l.03.03.04.06a.16.16 0 0 1 0 .18 4.11 4.11 0 0 1-2.9 1.83c-2.21.3-4.27-.93-5.5-2.67-.65-.93-.65-1.7-.07-2.64ZM29.72 40.66c.22.17.44.49.73.61 1 .42 2.03.67 3.05.25 1.77-.73 2.72-1.93 2.72-3.88a.08.08 0 0 1 .02-.05.08.08 0 0 1 .06-.02h.06l.03.02v.02a3.95 3.95 0 0 1-1.46 3.27 4.98 4.98 0 0 1-2.37 1.13c-.9.06-2.6-.27-2.98-1.24a.1.1 0 0 1 .03-.1.1.1 0 0 1 .11 0ZM16.43 40.48a.1.1 0 0 1-.08-.03.1.1 0 0 1-.02-.07l.17-2.7a.1.1 0 0 1 .12-.1h.07a.07.07 0 0 1 .04.05v.02l-.16 2.43a.13.13 0 0 0 .08.13h.06l2.52-.14a.1.1 0 0 1 .11.09l.01.05a.1.1 0 0 1-.02.07.09.09 0 0 1-.06.04l-2.84.16ZM18.85 37.65c.15.12.23.2.25.25a.1.1 0 0 1-.02.08.09.09 0 0 1-.07.04c-.2-.02-.29-.13-.26-.33a.06.06 0 0 1 .04-.05h.06Z"/><path d="M20.07 37.84h.09l.03.02a.07.07 0 0 1 .01.06c-.2 1.8 1.17 2.89 2.53 3.68l.11.04 1.78.13h.06c1-.16 1.72-.26 2.2-1.09a.13.13 0 0 1 .14-.06c.02 0 .03.02.05.03a.15.15 0 0 1 .04.2c-.7 1.08-1.92 1.23-3.17 1.15a3.85 3.85 0 0 1-1.65-.38 5.86 5.86 0 0 1-1.61-1.32c-.58-.69-.81-1.48-.7-2.39 0-.02 0-.04.02-.05a.09.09 0 0 1 .07-.02ZM17.22 37.96l.05 1.5a.1.1 0 0 0 .1.1l1.63-.04a.05.05 0 0 1 .04.01l.01.02v.08a.1.1 0 0 1-.02.08.1.1 0 0 1-.07.03l-1.77.05a.12.12 0 0 1-.12-.07.12.12 0 0 1-.01-.05l-.05-1.69a.08.08 0 0 1 .05-.08h.1l.04.01.02.05ZM18.35 37.94l.04.23c0 .06.03.1.08.13.04.04.1.05.14.04l.33-.05a.1.1 0 0 1 .1.06.1.1 0 0 1-.04.12c-.13.05-.31.08-.56.08a.19.19 0 0 1-.16-.1.77.77 0 0 1-.1-.52.09.09 0 0 1 .09-.06c.02 0 .03 0 .05.02l.03.05Z"/><path d="m18.88 39.1-1.16-.01a.12.12 0 0 1-.08-.04.13.13 0 0 1-.04-.09l.02-.94a.08.08 0 0 1 .04-.07h.13l.01.04-.01.78a.1.1 0 0 0 .1.1l1.05.02.02.01.01.03v.08a.1.1 0 0 1-.1.1ZM30.27 40.57a.1.1 0 0 1 .09-.16.1.1 0 0 1 .07.03c.78.7 2.15.56 3.23.26.47-.13.84-.4 1.1-.8a4.34 4.34 0 0 0 .65-1.65l.1-.03a.08.08 0 0 1 .08 0 .08.08 0 0 1 .03.08c-.33 2.48-2.55 3.36-4.72 2.72-.3-.08-.5-.23-.63-.45ZM20.66 38.33l.01-.02.02-.01a.04.04 0 0 1 .04.03c.22.79.63 1.28 1.26 1.8.83.7 1.8.95 2.93.75.31-.06.6-.2.86-.43a.12.12 0 0 1 .18.03l.03.06c.02.02.02.04.02.07a.1.1 0 0 1-.04.06c-.4.36-.9.55-1.45.57a3.92 3.92 0 0 1-3.61-1.87c-.22-.34-.3-.68-.25-1.04Z"/><path d="M33.76 40.29c-.47.22-1.02.26-1.66.1-.1-.02-.17-.07-.2-.13a.09.09 0 0 1 0-.1.09.09 0 0 1 .1-.03c.63.23 1.2.23 1.68 0 .49-.24.84-.68 1.06-1.33a.09.09 0 0 1 .08-.06.09.09 0 0 1 .09.06c.02.08.01.16-.03.25-.28.6-.66 1.01-1.12 1.24ZM23.21 40.23c.45.17.87.25 1.25.23.1 0 .3-.05.61-.15a.07.07 0 0 1 .1.03.08.08 0 0 1-.02.1c-.49.46-1.42.23-2.02 0-.6-.23-1.44-.69-1.49-1.37l.01-.04.04-.03a.07.07 0 0 1 .1.03c.16.29.28.46.34.53.28.28.64.5 1.08.67Z"/><path d="M33.37 39.99a.69.69 0 0 1-.6 0c-.04-.03-.07-.06-.08-.1v-.02c0-.01 0-.02.02-.03l.02-.01h.03c.2.05.37.04.52-.03.16-.08.28-.2.37-.39l.02-.02.03-.01a.06.06 0 0 1 .05.03c.02.03.02.07 0 .12a.7.7 0 0 1-.38.46ZM23.25 39.83a1.7 1.7 0 0 0 .52.17.06.06 0 0 1 .03.04v.03c-.02.05-.08.08-.19.09a.92.92 0 0 1-.47-.12.94.94 0 0 1-.37-.33c-.05-.1-.06-.16-.03-.2a.06.06 0 0 1 .07-.02l.02.01c.13.14.27.25.42.33ZM28.6 41.44c-.14.16-.3.18-.46.06a.1.1 0 0 1 0-.17.1.1 0 0 1 .06-.01l.38.04a.05.05 0 0 1 .04.03v.03l-.01.02ZM28.02 41.7l.18.19a.21.21 0 0 0 .3 0l.25-.26a.1.1 0 0 1 .17.05.1.1 0 0 1 0 .07 1.4 1.4 0 0 1-.44.42.2.2 0 0 1-.2.02.81.81 0 0 1-.4-.39.1.1 0 0 1 .03-.11.09.09 0 0 1 .11.01Z"/><path d="M28.38 43.04c-.08 0-.18-.05-.3-.16a13.47 13.47 0 0 1-.66-.63.11.11 0 0 1 .03-.13.12.12 0 0 1 .17 0c.2.22.42.42.65.62h.1l.1-.01c.2-.22.4-.44.58-.67a.12.12 0 0 1 .17-.03.11.11 0 0 1 .05.08.12.12 0 0 1-.03.1 14 14 0 0 1-.57.65c-.11.12-.2.18-.29.18Z"/><path d="M29.64 42.4a.07.07 0 0 1 .05-.03.07.07 0 0 1 .05.02l.05.05a.1.1 0 0 1 0 .13l-1.24 1.38a.14.14 0 0 1-.2 0l-1.44-1.33a.12.12 0 0 1-.03-.13l.02-.03.05-.05a.06.06 0 0 1 .06-.02l.02.01 1.33 1.23a.12.12 0 0 0 .17 0l1.1-1.24Z"/><path d="M28.34 44.67c.01 0 .05 0 .06-.02.6-.62 1.19-1.28 1.79-1.97a.1.1 0 0 1 .13-.02l.05.05a.05.05 0 0 1 .02.03.05.05 0 0 1-.01.03c-.57.68-1.22 1.41-1.95 2.2-.02.02-.05.03-.1.03-.03 0-.06-.01-.08-.03a61.5 61.5 0 0 1-1.94-2.25v-.02l.02-.02.05-.04a.1.1 0 0 1 .14.02c.59.7 1.18 1.36 1.76 2l.06.01Z"/><path d="M28 16a12 12 0 0 1 .5 24v-2a10 10 0 1 0-3.77-.54l-.55 1.93A12 12 0 0 1 28 16Z" fill-opacity=".3"/><path d="M28 19a9 9 0 0 1 2.87 17.53l-.42-1.44a7.5 7.5 0 1 0-5.9-.43l-.74 1.3A9 9 0 0 1 28 19Z" fill-opacity=".4"/></svg>