<!-- by TradingView --><svg width="56" height="56" viewBox="0 0 56 56" xmlns="http://www.w3.org/2000/svg"><path fill="url(#ax5rrds1h)" d="M0 0h56v56H0z"/><path d="M20.2 26h-.1l-1.9-4.15v3.04c0 .2 0 .35.02.48.02.11.06.2.11.28.06.07.13.12.23.15s.21.05.36.06V26h-1.8v-.14c.15-.01.28-.03.37-.06.1-.03.17-.08.22-.15a.61.61 0 0 0 .11-.28c.02-.13.03-.29.03-.48v-3.06c0-.14-.01-.25-.03-.33a.33.33 0 0 0-.1-.2.4.4 0 0 0-.22-.1 2.3 2.3 0 0 0-.37-.05V21h1.52l1.74 3.82L21.94 21h1.73v.15c-.15.01-.26.03-.35.05a.44.44 0 0 0-.2.1.38.38 0 0 0-.1.2l-.02.33v3.36c0 .13 0 .24.03.32.01.08.04.15.09.2.05.05.12.08.2.1.1.03.2.04.35.05V26H21.3v-.14c.15 0 .27-.02.36-.05.1-.02.17-.05.22-.1a.43.43 0 0 0 .1-.23l.01-.39v-3.42L20.2 26ZM28.4 26h-4.06v-.14c.13 0 .25-.02.33-.05a.4.4 0 0 0 .2-.1.38.38 0 0 0 .1-.2c.02-.08.03-.2.03-.32v-3.36c0-.14 0-.24-.02-.33a.35.35 0 0 0-.1-.2.44.44 0 0 0-.2-.1c-.1-.02-.2-.04-.34-.05V21h3.99l.01 1.08h-.18c-.03-.17-.08-.3-.12-.4a.54.54 0 0 0-.2-.25.73.73 0 0 0-.33-.11 4.2 4.2 0 0 0-.52-.03h-.72c-.1 0-.18.02-.21.05-.03.03-.06.1-.06.2v1.68h.87c.16 0 .29 0 .39-.02a.5.5 0 0 0 .23-.1.48.48 0 0 0 .14-.22c.04-.1.07-.22.1-.37h.17v1.75h-.18a2.54 2.54 0 0 0-.09-.38.46.46 0 0 0-.13-.21.47.47 0 0 0-.24-.11c-.1-.02-.23-.03-.39-.03H26v1.87l.02.16c.01.04.03.07.05.08.04.02.12.04.26.06.14.02.08.02.27.02h.21c.28 0 .41-.01.6-.04.18-.02.34-.07.47-.15.14-.07.26-.18.36-.3.1-.13.2-.3.29-.5h.22L28.4 26ZM33.9 24.7l-.37 1.3h-4.14v-.14c.38-.02.61-.28.61-.67v-3.36c0-.4-.22-.65-.6-.68V21h2.16v.15c-.42.03-.56.27-.56.68v3.57c0 .36.38.3.64.3h.38c.33 0 .6-.03.82-.1.22-.08.4-.2.54-.35l.16-.23.17-.33h.2ZM35 21.83c0-.55-.18-.65-.7-.68V21h2.45v.15c-.16 0-.3.02-.4.04a.46.46 0 0 0-.22.1.36.36 0 0 0-.11.2c-.02.09-.02.2-.02.34v3.36c0 .13 0 .25.02.33a.4.4 0 0 0 .11.2.5.5 0 0 0 .23.1c.1.03.23.04.39.04V26H34.3v-.14c.5-.01.69-.14.69-.67v-3.36ZM6.92 28h2.01v.16c-.13 0-.24.02-.33.04a.88.88 0 0 0-.25.08c-.08.04-.17.1-.26.17s-.2.16-.32.28l-1.46 1.4L8.1 32l.42.42c.11.1.21.19.3.25.08.05.16.09.23.1.07.02.16.03.25.03V33H6.96v-.2l.21-.02c.22 0 .33-.06.33-.16 0-.05-.03-.11-.08-.2a4.73 4.73 0 0 0-.53-.66 8.46 8.46 0 0 0-.4-.4l-.82-.79-.2.16v1.4c0 .13.01.24.03.32a.4.4 0 0 0 .1.2c.04.05.11.08.2.1l.37.04V33H4v-.2l.36-.05a.37.37 0 0 0 .2-.11.42.42 0 0 0 .1-.23c.02-.1.03-.22.03-.37v-3.22c0-.13-.01-.23-.03-.31a.34.34 0 0 0-.1-.2.45.45 0 0 0-.2-.1c-.1-.03-.21-.04-.36-.05V28h2.19v.16c-.16 0-.29.02-.38.05a.4.4 0 0 0-.21.1.37.37 0 0 0-.1.19c-.02.08-.02.19-.02.32v1.53l1.36-1.2c.22-.2.37-.35.46-.46.1-.12.14-.22.14-.3 0-.08-.02-.13-.07-.16-.05-.04-.13-.06-.25-.07h-.2V28ZM12.13 32.15c0 .16.02.28.05.34.03.06.1.1.18.1.1 0 .22-.05.34-.14v.19c-.13.13-.25.23-.34.28A.73.73 0 0 1 12 33c-.16 0-.27-.04-.35-.12a.79.79 0 0 1-.13-.43c-.24.2-.44.33-.62.42-.17.09-.35.13-.51.13a.82.82 0 0 1-.6-.22.77.77 0 0 1-.22-.57c0-.12.02-.24.07-.35a.72.72 0 0 1 .2-.3l.23-.17c.07-.06.17-.1.28-.16a106.3 106.3 0 0 0 1.15-.47v-.47c0-.2-.05-.36-.15-.46-.1-.1-.25-.16-.44-.16a.69.69 0 0 0-.4.11c-.1.07-.15.15-.15.25l.01.15c.02.06.02.11.02.15 0 .09-.03.16-.1.22a.34.34 0 0 1-.24.1.34.34 0 0 1-.24-.1.32.32 0 0 1-.09-.22c0-.1.03-.2.08-.3a1.09 1.09 0 0 1 .65-.47c.17-.04.36-.07.57-.07.23 0 .43.04.58.12.17.07.29.18.37.31.06.09.1.2.12.3.02.12.03.28.03.47v1.46Zm-.62-1.2c-.23.08-.43.16-.6.24-.16.07-.3.15-.4.23a.67.67 0 0 0-.28.55V32a.62.62 0 0 0 .15.41c.05.06.1.1.17.13.06.03.12.04.2.04.07 0 .16-.01.26-.04l.3-.13c.08-.04.14-.1.16-.14a.57.57 0 0 0 .04-.25v-1.08ZM15.02 30.6a1.7 1.7 0 0 0-.32-.7.67.67 0 0 0-.52-.22.63.63 0 0 0-.43.15c-.1.09-.16.2-.16.36 0 .21.11.38.33.5l.83.48c.24.14.4.27.5.4.1.14.15.3.15.48 0 .13-.03.25-.09.37a1 1 0 0 1-.23.3c-.1.09-.21.16-.34.2a1.2 1.2 0 0 1-.42.08c-.08 0-.17 0-.26-.02-.1 0-.2-.03-.31-.05a3.74 3.74 0 0 0-.36-.06.2.2 0 0 0-.1.02.28.28 0 0 0-.07.07h-.1V31.8h.12c.04.2.1.35.15.48.06.13.13.24.2.32a.7.7 0 0 0 .28.19c.1.03.22.05.35.05a.7.7 0 0 0 .47-.15c.12-.1.18-.22.18-.39 0-.22-.14-.4-.4-.55l-.45-.25c-.17-.09-.31-.17-.43-.26a1.7 1.7 0 0 1-.28-.24.86.86 0 0 1-.2-.56c0-.14.03-.26.08-.37a.95.95 0 0 1 .21-.3c.1-.08.2-.14.34-.18a1.5 1.5 0 0 1 .95.03c.1.03.17.05.22.05l.04-.01.06-.06.01-.02h.1l.02 1.02h-.12ZM18.83 33h-2.91v-.18l2.05-3H16.9c-.11 0-.2 0-.29.02a.39.39 0 0 0-.18.1.51.51 0 0 0-.1.2c-.03.08-.05.19-.07.32h-.14l.03-.88h2.67v.12l-2.08 3h1.07c.4 0 .65-.06.76-.19a.6.6 0 0 0 .12-.2l.05-.18c.02-.06.04-.14.05-.24l.15.04-.11 1.07ZM22.4 31.76c-.16.41-.38.72-.66.93-.27.2-.6.31-.97.31a1.5 1.5 0 0 1-.6-.12 1.3 1.3 0 0 1-.45-.33 1.48 1.48 0 0 1-.3-.52c-.06-.2-.1-.43-.1-.69 0-.27.05-.52.12-.75.08-.22.2-.42.33-.58a1.51 1.51 0 0 1 1.72-.4c.17.07.32.17.44.3l.12.19.09.2.06.25.06.31h-2.37c0 .24.03.44.06.6.03.14.1.3.17.43.22.4.54.6.97.6.25 0 .46-.06.64-.17.18-.12.37-.32.55-.6l.12.04Zm-.93-1.15c-.05-.32-.13-.54-.24-.66-.1-.13-.28-.19-.51-.19a.76.76 0 0 0-.56.2c-.13.14-.22.35-.26.65h1.57ZM22.61 28.18l.23-.05a55.9 55.9 0 0 1 .75-.21l.22-.07.03.02V31l1.06-.91c.11-.1.17-.2.17-.27 0-.04-.03-.07-.08-.1a1.45 1.45 0 0 0-.3-.03v-.1h1.57v.11c-.12 0-.23 0-.33.03-.1.02-.2.06-.33.12a15.61 15.61 0 0 0-1.01.78l-.22.2 1.19 1.45c.15.19.3.33.43.4.13.09.29.13.46.14V33h-1.68v-.18h.15c.05 0 .08 0 .11-.03a.1.1 0 0 0 .05-.08c0-.02 0-.05-.02-.07a.26.26 0 0 0-.07-.09.66.66 0 0 1-.05-.06l-.02-.04-1.08-1.38v1.36c0 .13.03.22.09.28.07.06.18.1.33.1l.16.01V33h-1.8v-.18l.31-.05a.47.47 0 0 0 .18-.08.24.24 0 0 0 .06-.14l.02-.23v-3.58c0-.18-.02-.3-.07-.36-.04-.06-.13-.09-.26-.09h-.12l-.13.01v-.12ZM30 32.13c0 .13 0 .24.02.33.02.08.06.15.1.2a.5.5 0 0 0 .23.1c.1.02.22.03.37.03V33h-2.1v-.2l.34-.06a.37.37 0 0 0 .2-.11.38.38 0 0 0 .07-.22c.02-.1.02-.22.02-.37v-3.22c0-.13 0-.24-.02-.31a.33.33 0 0 0-.08-.2.4.4 0 0 0-.2-.1 2.3 2.3 0 0 0-.34-.05v-.15h1.98c.38 0 .73.05 1.03.16.31.1.55.24.7.4.2.23.3.49.3.79 0 .24-.07.47-.2.69-.14.2-.32.37-.55.5-.16.08-.35.14-.57.18-.21.04-.47.06-.78.06h-.26l-.26-.01v1.35Zm0-1.66a11.47 11.47 0 0 0 .43.03c.9 0 1.34-.37 1.34-1.1 0-.38-.12-.66-.37-.84-.24-.18-.63-.27-1.15-.27-.1 0-.17.02-.2.05-.04.03-.05.1-.05.2v1.93ZM34.1 29.53v2.64l.01.33c.02.08.05.14.09.19.04.04.1.07.16.09l.31.04V33h-1.82v-.18c.13 0 .24-.02.31-.03a.38.38 0 0 0 .19-.1.36.36 0 0 0 .08-.2c.02-.07.02-.18.02-.32v-1.72a.7.7 0 0 0-.06-.34c-.03-.07-.1-.1-.19-.1a1.51 1.51 0 0 0-.27.02h-.05v-.1l1.19-.42.03.02Zm-.38-1.68c.1 0 .2.04.27.12.08.08.12.16.12.27 0 .1-.04.2-.12.27a.4.4 0 0 1-.28.1.38.38 0 0 1-.28-.1.38.38 0 0 1-.1-.27c0-.1.03-.2.11-.27a.37.37 0 0 1 .28-.12ZM36.8 29.51c.24 0 .47.04.68.13.2.08.38.2.53.35.15.15.27.32.36.53a1.9 1.9 0 0 1-.36 1.97 1.64 1.64 0 0 1-1.23.51c-.24 0-.47-.04-.67-.13-.21-.09-.39-.2-.54-.36a1.85 1.85 0 0 1-.48-1.25c0-.26.04-.5.12-.7.09-.22.2-.4.36-.56.14-.15.32-.27.53-.36.21-.08.44-.13.7-.13Zm-.12.21c-.27 0-.49.1-.65.32-.16.21-.24.5-.24.85 0 .26.03.52.09.77.05.25.14.47.25.66a.9.9 0 0 0 .32.35c.13.09.28.13.44.13.28 0 .5-.12.66-.36.16-.24.24-.57.24-1 0-.31-.04-.6-.14-.88a1.4 1.4 0 0 0-.38-.62.82.82 0 0 0-.6-.22ZM38.85 29.85a13.92 13.92 0 0 0 1.06-.34l.09.02v.59c.13-.12.21-.22.31-.3l.27-.18a.99.99 0 0 1 .5-.13c.28 0 .5.1.67.3.16.2.25.46.25.82v1.7c0 .18.02.3.09.36.06.07.18.11.37.13V33h-1.6v-.18c.1 0 .17-.02.23-.04a.3.3 0 0 0 .15-.1.39.39 0 0 0 .08-.2c.02-.07.02-.17.02-.29v-1.55c0-.48-.18-.72-.56-.72a.84.84 0 0 0-.36.09 1.3 1.3 0 0 0-.2.13l-.22.2v2.1c0 .13.02.22.09.28.07.05.2.09.4.1V33h-1.63v-.18c.1 0 .18-.02.24-.03a.33.33 0 0 0 .14-.1c.04-.05.06-.1.08-.16l.02-.27v-1.84c0-.18-.02-.3-.06-.37-.04-.07-.12-.1-.22-.1a.6.6 0 0 0-.21.03v-.13ZM45.84 31.76c-.16.41-.38.72-.66.93-.27.2-.6.31-.97.31a1.5 1.5 0 0 1-.6-.12 1.3 1.3 0 0 1-.45-.33 1.48 1.48 0 0 1-.3-.52c-.06-.2-.1-.43-.1-.69 0-.27.05-.52.12-.75.08-.22.2-.42.33-.58a1.52 1.52 0 0 1 1.72-.4c.17.07.32.17.44.3l.12.19.08.2c.03.07.05.16.07.25l.06.31h-2.37c0 .24.03.44.06.6.03.14.09.3.17.43.22.4.54.6.97.6.25 0 .46-.06.64-.17.18-.12.37-.32.55-.6l.12.04Zm-.93-1.15c-.05-.32-.13-.54-.24-.66-.1-.13-.28-.19-.51-.19a.76.76 0 0 0-.56.2c-.13.14-.22.35-.26.65h1.57ZM49.27 31.76c-.17.41-.39.72-.66.93-.28.2-.6.31-.98.31a1.5 1.5 0 0 1-.6-.12 1.3 1.3 0 0 1-.45-.33 1.48 1.48 0 0 1-.29-.52c-.07-.2-.1-.43-.1-.69 0-.27.04-.52.11-.75.08-.22.2-.42.33-.58a1.51 1.51 0 0 1 1.73-.4c.17.07.31.17.43.3l.12.19.09.2c.02.07.05.16.06.25l.06.31h-2.37c0 .24.03.44.06.6.04.14.1.3.17.43.22.4.54.6.97.6.25 0 .46-.06.64-.17.19-.12.37-.32.56-.6l.12.04Zm-.93-1.15c-.05-.32-.14-.54-.25-.66-.1-.13-.28-.19-.51-.19a.76.76 0 0 0-.56.2c-.13.14-.22.35-.26.65h1.58ZM49.48 29.92a14.12 14.12 0 0 1 .58-.2 10.25 10.25 0 0 1 .55-.2h.05v.69a3.9 3.9 0 0 1 .48-.55c.07-.05.14-.1.2-.11a.8.8 0 0 1 .23-.04c.14 0 .24.04.32.11.07.07.11.17.11.28 0 .11-.03.2-.08.26a.29.29 0 0 1-.22.08c-.05 0-.1 0-.15-.02a.68.68 0 0 1-.16-.13.55.55 0 0 0-.11-.08.22.22 0 0 0-.09-.02.32.32 0 0 0-.18.06.95.95 0 0 0-.3.34.43.43 0 0 0-.05.2v1.68c0 .1 0 .19.02.26.02.06.06.12.1.16.05.04.12.07.2.1.1.02.2.03.33.03V33h-1.85v-.18l.29-.06a.45.45 0 0 0 .16-.1.22.22 0 0 0 .08-.13l.01-.23v-1.85c0-.16-.01-.28-.05-.34-.04-.07-.11-.1-.2-.1a1.29 1.29 0 0 0-.27.02v-.1Z" fill="#fff"/><defs><linearGradient id="ax5rrds1h" x1="10.42" y1="9.71" x2="68.15" y2="76.02" gradientUnits="userSpaceOnUse"><stop stop-color="#1A1E21"/><stop offset="1" stop-color="#06060A"/></linearGradient></defs></svg>