<!-- by TradingView --><svg width="56" height="56" viewBox="0 0 56 56" xmlns="http://www.w3.org/2000/svg"><path fill="#F0F3FA" d="M0 0h56v56H0z"/><path d="M34 34V23h7v1.67h-5v2.99h4.6v1.67H36v3h5V34h-7ZM43 34V23h7v1.67h-5v2.99h4.6v1.67H45v3h5V34h-7ZM24 34V23h4.1c.78 0 1.42.13 1.94.38a2.6 2.6 0 0 1 1.54 2.47c0 .45-.08.83-.25 1.15-.17.32-.4.57-.68.77-.28.2-.6.34-.94.42v.11a2.47 2.47 0 0 1 1.96 1.27c.22.4.33.87.33 1.43 0 .57-.13 1.08-.4 1.54-.27.45-.68.8-1.22 1.07-.54.26-1.22.39-2.04.39H24Zm2-1.66h2.03c.7 0 1.21-.14 1.52-.42.32-.28.48-.64.48-1.07a1.68 1.68 0 0 0-.91-1.5 2.18 2.18 0 0 0-1.04-.24H26v3.23Zm0-4.66h1.86c.34 0 .64-.06.91-.19s.48-.3.63-.54c.16-.24.24-.52.24-.84 0-.43-.15-.78-.44-1.05-.3-.28-.72-.42-1.3-.42H26v3.04ZM22 23v11h-2V23h2ZM6 23h2.54l3.4 7.97h.13l3.4-7.97H18v11h-2v-7.56h-.1L12.74 34h-1.48l-3.17-7.57H8V34H6V23Z"/></svg>