<!-- by TradingView --><svg width="56" height="56" viewBox="0 0 56 56" xmlns="http://www.w3.org/2000/svg"><path fill="url(#a)" d="M0 0h56v56H0z"/><path d="M30.29 40H12l9.14-9.23L30.3 40ZM12 26.15v9.81l20.57-21.34L28 10 12 26.15ZM28.5 33 24 28.5l4.5-4.5 4.5 4.5-4.5 4.5ZM34.5 26 30 21.5l4.5-4.5 4.5 4.5-4.5 4.5ZM34.86 30.77l-4.57 4.61L34.86 40H44l-9.14-9.23ZM41.71 23.85l-4.57 4.61L44 35.38v-9.23l-2.29-2.3Z" fill="#fff"/><defs><linearGradient id="a" x1="28" y1="0" x2="28" y2="56" gradientUnits="userSpaceOnUse"><stop stop-color="#46B4CC"/><stop offset="1" stop-color="#44CFC8"/></linearGradient></defs></svg>