<!-- by TradingView --><svg width="56" height="56" viewBox="0 0 56 56" xmlns="http://www.w3.org/2000/svg"><path fill="#113164" d="M0 0h56v56H0z"/><path d="M35.25 23h-1.21a.03.03 0 0 0-.04.04v8.93c0 .01.02.03.04.03h1.2c.02 0 .04-.02.04-.03v-8.93a.03.03 0 0 0-.03-.04ZM38.25 23h-1.22a.03.03 0 0 0-.03.03v1.36c0 .02.01.03.03.03h1.22c.02 0 .03 0 .03-.03v-1.36a.03.03 0 0 0-.03-.03ZM7.3 31.92a.06.06 0 0 1-.02.04l-.02.02-.03.02H6.06l-.04-.04a.06.06 0 0 1-.02-.04v-7.85a.07.07 0 0 1 .07-.07h1.8a.07.07 0 0 1 .07.06c.05.25.14.53.27.84a51.82 51.82 0 0 1 1.75 5.05l.04.01a.06.06 0 0 0 .06-.04l2.04-5.9.01-.01.02-.01h1.82l.04.01.01.03v7.89c0 .01 0 .02-.02.03l-.03.04H12.8l-.02-.02-.02-.02a.05.05 0 0 1-.01-.03v-6.1a.08.08 0 0 0-.13-.06.09.09 0 0 0-.03.04c-.57 1.81-1.06 3.19-1.62 4.78a20.6 20.6 0 0 1-.55 1.4.11.11 0 0 1-.06.01h-.68a.13.13 0 0 1-.12-.08l-2.17-6.14a.08.08 0 0 0-.05-.05l-.14-.05a.04.04 0 0 0-.05.05c.07.27.13.65.14 1.1v5.09ZM17.24 27.41c.02-.02.07-.03.16-.03a107.08 107.08 0 0 1 3.59 0 .05.05 0 0 0 .01-.04v-3.26c0-.02 0-.04.02-.06a.08.08 0 0 1 .06-.02h1.19a.06.06 0 0 1 .04.02.06.06 0 0 1 .01.05c-.01.1-.05.23-.05.36-.02 2.2-.02 4.59 0 7.14 0 .14.04.25.05.37a.05.05 0 0 1 0 .04.05.05 0 0 1-.05.02h-1.21a.06.06 0 0 1-.06-.06v-3.5h-3.57c-.03 0-.07-.01-.1-.03l-.1-.03h-.03a.03.03 0 0 0-.02.02v.02c.03.1.1.18.09.3a57.05 57.05 0 0 0 0 3.26.06.06 0 0 1-.05.02h-1.15c-.02 0-.04 0-.05-.02a.06.06 0 0 1-.02-.04v-7.87a.07.07 0 0 1 .07-.07h1.2a.05.05 0 0 1 .03.02.04.04 0 0 1 0 .03c-.03.18-.05.43-.05.74l.01 2.36c0 .08-.06.16-.07.24a.03.03 0 0 0 .01.03h.04ZM28.19 27.45c.08-.03.16-.08.25-.08a117.87 117.87 0 0 0 3.08-.01.07.07 0 0 1 .04.09c-.1.3-.1.6 0 .9a.07.07 0 0 1 0 .06.07.07 0 0 1-.07.03h-3.06a.1.1 0 0 1-.04 0l-.16-.07h-.02a.04.04 0 0 0-.03.05c.03.07.1.12.1.23a95.83 95.83 0 0 0-.03 2.2l-.07.1a.03.03 0 0 0 0 .03.03.03 0 0 0 .03.02h4.03a.06.06 0 0 1 .06.05v.02a1.72 1.72 0 0 0 .01.89.05.05 0 0 1-.03.03l-.02.01h-5.2c-.02 0-.03 0-.04-.02a.05.05 0 0 1-.02-.04v-7.93l.03-.01h5a.06.06 0 0 1 .06.08c-.1.3-.1.55 0 .85a.07.07 0 0 1-.01.06.06.06 0 0 1-.06.02c-1.21-.01-2.4-.02-3.57 0-.08 0-.14-.05-.2-.06a.05.05 0 0 0-.05.02.05.05 0 0 0 0 .05l.04.07c.02.02.03.05.03.07v2c0 .03 0 .05-.02.07l-.1.17v.04a.03.03 0 0 0 .04 0ZM41.88 26.93c.03.1.12.16.12.26v2.85c.01 1.05 1.14.92 1.78.7a.05.05 0 0 1 .05.02l.02.03v.03l-.06.17v.08c.03.15.03.31 0 .48-.02.14.02.15.03.24l-.01.06a.08.08 0 0 1-.05.04c-1.16.23-2.9.24-2.98-1.4-.05-1.15.01-2.59-.01-3.47L40.7 27c0-.01.01 0 0 0h-1c-.02 0-.03-.02-.03-.03l-.01-.02v-.93c.02 0 .02-.02.03-.02h1.05a.06.06 0 0 0 .02-.05v-1.9c0-.01 0-.02.02-.03a.05.05 0 0 1 .03-.02h1.14a.04.04 0 0 1 .03.01l.01.02.01.02v1.73c0 .03-.04.06-.05.08l-.08.19v.03l.02.01h.02c.07-.04.13-.1.21-.09h1.54a.06.06 0 0 1 .06.03.06.06 0 0 1 0 .06c-.1.26-.1.48 0 .84a.06.06 0 0 1 0 .05.06.06 0 0 1-.05.02h-1.52c-.03 0-.08-.03-.1-.05l-.12-.07h-.04a.04.04 0 0 0 0 .05ZM46.08 29.41c.07.08.1.18.1.3 0 .07.03.18.08.32.56 1.34 2.42 1.02 3.5.67a.02.02 0 0 1 .01 0 .02.02 0 0 1 .01.02v.95a.05.05 0 0 1-.03.04c-1.28.35-2.63.48-3.74-.16-1.22-.68-1.36-2.49-.97-3.7a2.49 2.49 0 0 1 2.3-1.84c.95-.1 2.07.39 2.4 1.37.17.53.26.85.26.97a115.95 115.95 0 0 0-.02.98.06.06 0 0 1-.04.02H46.09l-.01.02v.04Zm.17-1.03h2.42a.04.04 0 0 0 .03-.03v-.03a1.48 1.48 0 0 0-.36-.96 1.24 1.24 0 0 0-.4-.3 1.2 1.2 0 0 0-1.36.3c-.23.25-.37.6-.37.96v.03l.01.02.03.01ZM38.2 26h-1.17a.03.03 0 0 0-.03.04l.02 5.93c0 .02.02.03.03.03h1.17c.02 0 .03-.02.03-.04l-.02-5.93a.03.03 0 0 0-.03-.03Z" fill="#F7F7F7"/></svg>