<!-- by TradingView --><svg width="56" height="56" viewBox="0 0 56 56" xmlns="http://www.w3.org/2000/svg"><path fill="#F0F3FA" d="M0 0h56v56H0z"/><path d="M22 21.98A2.98 2.98 0 0 1 24.98 19h14.04A2.98 2.98 0 0 1 42 21.98v16.04A2.98 2.98 0 0 1 39.02 41H24.98A2.98 2.98 0 0 1 22 38.02V21.98Z" fill="#0654A9"/><path d="M14 16.7c0-1.49 1.34-2.7 2.98-2.7h14.04c1.64 0 2.98 1.21 2.98 2.7v14.6c0 1.49-1.34 2.7-2.98 2.7H16.98C15.34 34 14 32.79 14 31.3V16.7Z" fill="#BE2A2A"/><path d="M29 31v9h-3.8c-.66 0-1.2-.55-1.2-1.24V20.24c0-.69.54-1.24 1.2-1.24H29v8h3v4h-3Zm1-12h3.5c.27 0 .5.25.5.57V23h-4v-4Z" fill="#F0F3FA"/></svg>