<!-- by TradingView --><svg width="56" height="56" viewBox="0 0 56 56" xmlns="http://www.w3.org/2000/svg"><path fill="url(#aywgqro4l)" d="M0 0h56v56H0z"/><path d="M43.32 19.76c1.38-1.38 2.58-.57 3.03 0 1.01 1.27.57 2.4.03 2.4-.62 0-.48-.8-1.64-.8-.78 0-3.4 2.88-4.62 4.27-.49.55-.67.95-.54 1.32.61 1.44 1.37 2.8 2.27 4.08.5.65 1.25 1.37 1.69 1.48 1.27.3 2.46-1.42 3.06-2.16.29-.37.47-.08.38.33-.32 1.4-1.99 4.06-4.4 3.39-.68-.2-1.7-.93-2.45-2.1a96.8 96.8 0 0 1-1.88-3.11.5.5 0 0 0-.86-.02c-.49.65-3.03 3.86-3.31 4.24-.74.97-1.23 1.92-2.08 1.92-1.32 0-1.1-1.3-.66-1.8.6-.65 4.97-5.6 5.34-6.02.37-.43.42-.65.29-.97-.39-.99-.65-1.48-1.14-2.57-.38-.85-1.21-.6-1.73-.8a1.07 1.07 0 0 1-.4-1.45c.38-.85 1.6-1.26 2.93 0 .76.72 1.02 1.77 1.5 2.65.28.54.51.78 1.08.17 2-2.2 3.35-3.71 4.1-4.45ZM14.29 26.09a1.7 1.7 0 0 1 1-.53c.97 0 .88.96.63 1.96l-.64 2.73c-.08.3-.16.66.01.66.26 0 .35-.13.61-.41 1.99-2.05 5.2-5.37 5.58-5.74.38-.37.81-.76 1.22-.76.24.04.47.16.62.35a.9.9 0 0 1 .21.65c-.03.27-.73.5-1.33 1.6a10.24 10.24 0 0 0-1.16 3.42c-.27 1.6-.12 2.44.8 2.44 1.2 0 3.92-2.3 5.63-4.4.22-.27.45-.27.51-.08s-.03.43-.33.88c-2.4 3.62-5.12 5.13-6.53 5.13-1.14 0-2.02-1.13-1.73-3.33.15-1.12.5-1.83.63-2.55.06-.3-.04-.37-.36-.03-1.05 1.13-4 4.25-4.88 5.1-.6.56-.9.81-1.2.81-.51 0-.39-1.18-.18-2.61l.31-2.38c.05-.44.01-.97-.54-.4-.56.59-3.53 3.7-4.38 4.61-.42.45-.68.79-1.11.79-.44 0-.85-.58-.6-1.92.12-.73.7-3.94 1.57-4.75.78-.74 1.94.17.97 1.28-.2.24-.26.56-.51 1.54-.2.74-.08.97.32.58l3.65-3.56c.38-.39.79-.75 1.2-1.1v.02Z" fill="#fff"/><path d="M30.07 22.8a9.55 9.55 0 0 0-.99 2.42c-.15.57-.23 1.42 1.09 0C31.67 23.6 32 23.6 32 22.8c0-.74-1.1-1.35-1.93 0Z" fill="#50B848"/><defs><linearGradient id="aywgqro4l" x1="10.42" y1="9.71" x2="68.15" y2="76.02" gradientUnits="userSpaceOnUse"><stop stop-color="#1A1E21"/><stop offset="1" stop-color="#06060A"/></linearGradient></defs></svg>