<!-- by TradingView --><svg width="56" height="56" viewBox="0 0 56 56" xmlns="http://www.w3.org/2000/svg"><path fill="#F0F3FA" d="M0 0h56v56H0z"/><path d="M14 12h16.53l.18.4.12-.33.62 1.93h-1.32l-.36 1h2l.32 1h-2.67l-.36 1h3.36l.32 1H28.7l-.36 1h4.72l.32 1h-5.4l-.35 1h6.07l.32 1h-6.75l-.36 1h7.43v.02H47l-1.38.98h-29.5l1.26 1h26.84l-1.4 1H18.66l1.27 1h21.49l-1.4 1H21.2l1.27 1h16.15l-1.4 1H23.74l.4.3-.21.7h13.03l.31 1H23.63l-.3 1H37.6l.31 1H23.03l-.3 1h7.71l.56-.37V42H14V14h16.12l.37-1H14v-1Zm14.94 24h-6.5l-.3 1h5.3l1.5-1Zm-3 2h-4.1l-.3 1h2.9l1.5-1Zm-3.01 2h-1.69l-.3 1h.48l1.5-1ZM14 43h17v1H14v-1Zm17.14-8h7.08l.32 1h-5.99l-1.41-1Zm2.82 2h4.9l.3 1h-3.78l-1.42-1Zm2.83 2h2.7l.3 1H38.2l-1.41-1Zm2.82 2h.5l.15.46-.65-.46Z" fill="#CF0A2C"/></svg>