<!-- by TradingView --><svg xmlns="http://www.w3.org/2000/svg" width="56" height="56" viewBox="0 0 56 56"><path fill="#F0F3FA" d="M0 0h56v56H0z"/><path d="M9 36.77l17 1.75v-17.2L17.84 14c.32 5.57-9 19.43-8.84 22.77z" fill="#8294A2"/><path opacity=".9" d="M33.65 36.13a42.26 42.26 0 0 0-1.22-7.8l-3.65-4.78c1.3 3.5 1.3 15.53 2.36 15.45l9.48-.48-2.02-2.63c-2.76.08-4.95.24-4.95.24z" fill="#E5D06C"/><path opacity=".8" d="M48 37.57s-15.57-16-18.73-18.8c1.3 3.11 2.35 6.3 3.16 9.56l6.08 7.72c3.57-.08 8.11.24 9.49 1.52z" fill="#5D6779"/><path opacity=".9" d="M38.51 35.97l-6.08-7.72a42.26 42.26 0 0 1 1.22 7.8c0 .08 2.19-.08 4.86-.08z" fill="#42566A"/></svg>