<!-- by TradingView --><svg width="56" height="56" viewBox="0 0 56 56" xmlns="http://www.w3.org/2000/svg"><path fill="#F0F3FA" d="M0 0h56v56H0z"/><path d="M43 21.88v-4.61A2.27 2.27 0 0 0 40.75 15h-27.5A2.27 2.27 0 0 0 11 17.27v21.5A2.24 2.24 0 0 0 13.25 41h27.5A2.24 2.24 0 0 0 43 38.77v-4.65A1.12 1.12 0 0 1 44.12 33h2.76A1.12 1.12 0 0 0 48 31.88v-7.75a1.12 1.12 0 0 0-.7-1.04c-.13-.05-.27-.09-.42-.09h-2.76A1.12 1.12 0 0 1 43 21.89m-9 13.99V24.14A1.1 1.1 0 0 0 32.9 23h-2.77c-.3 0-.58.13-.8.34-.2.21-.33.5-.33.8v11.74A1.12 1.12 0 0 1 27.88 37h-1.74c-.3 0-.59-.12-.8-.33-.2-.21-.34-.5-.34-.8V24.15c0-.15-.02-.3-.07-.43a1.12 1.12 0 0 0-.61-.61c-.14-.06-.28-.1-.43-.1h-2.76c-.3 0-.58.13-.8.34-.2.21-.33.5-.33.8v11.74A1.12 1.12 0 0 1 18.89 37h-1.74c-.3 0-.59-.12-.8-.33-.2-.21-.35-.5-.35-.8V20.13c0-.3.14-.58.35-.79.21-.21.5-.33.8-.33h19.74A1.12 1.12 0 0 1 38 20.12v15.76A1.11 1.11 0 0 1 36.89 37h-1.75c-.3 0-.58-.12-.79-.33-.21-.21-.35-.5-.35-.79Z" fill="#00B950"/></svg>