<!-- by TradingView --><svg xmlns="http://www.w3.org/2000/svg" width="56" height="56" viewBox="0 0 56 56"><path fill="#F0F3FA" d="M0 0h56v56H0z"/><path d="M6 24h.26L9 30.13 11.74 24H13v8h-1v-5.8l-2.64 5.79V32h-.71L6 26.2V32H5v-8h1zm13 0l2.78 8H20.7l-.68-2h-2.64l.33-1h1.98l-1.19-3.52L16.3 32h-1.06L18 24h1zm31 0h-1v8h1v-8zm-3.73 8l-2.78-8h-1l-2.76 8h1.06l2.2-6.52L44.17 29H42.2l-.33 1h2.64l.67 2h1.1zM24 24H26.93a2.53 2.53 0 0 1 2.57 2.5 2.5 2.5 0 0 1-1.4 2.22L30 32h-1l-1.8-3.01-.27.01H25.5v-1h1.15c.91 0 1.65-.68 1.65-1.5s-.74-1.5-1.65-1.5H25v7h-1v-8zm10 0h-1v8h1v-7h1.87c.9 0 1.63.67 1.63 1.5s-.73 1.5-1.63 1.5H34.5v1h1.43a2.53 2.53 0 0 0 2.57-2.5c0-1.38-1.15-2.5-2.57-2.5H34z" fill="url(#adfbvg04l)"/><defs><linearGradient id="adfbvg04l" x1="1.62" y1="28.77" x2="53.41" y2="28.77" gradientUnits="userSpaceOnUse"><stop stop-color="#01B2E1"/><stop offset="1" stop-color="#1D26C9"/></linearGradient></defs></svg>