<!-- by TradingView --><svg width="56" height="56" viewBox="0 0 56 56" fill="none" xmlns="http://www.w3.org/2000/svg">
<rect width="56" height="56" fill="#171D59"/>
<path d="M11 22.0287C11 22.0287 8.18235 21.7991 7.11911 22.6367C6.59667 22.9777 6.08491 23.5453 6 24.1623V26.3475C5.25492 26.3573 4.6616 26.5404 4 26.8824V30.0894C4 30.0894 5.37171 29.3729 6 29.477V34H9V29.9757C9.81566 30.4807 11.0695 31.0701 11.7614 31.734C11.7614 31.734 14.1115 33.9962 17.2451 33.9962C17.2451 33.9962 22 34 22 29.6166C22 29.6166 21.9448 25.4005 17.719 25.0305C17.719 25.0305 14.6889 24.8451 13.4108 27.6212C13.4108 27.6212 15.1208 29.3091 15.967 29.5129C15.9637 28.7389 16.6258 28.0036 17.3863 28C17.69 28 19 28.1404 19 29.6301C19 30.4892 18.1796 31.0135 17.4459 31.0049C17.4459 31.0049 15.967 31.0049 14.8678 30.2735C14.8678 30.2735 12.8141 28.6609 12.0639 27.9707C11.3083 27.377 9.9239 26.9347 9 26.6681V24.5903C9 24.5903 8.92028 23.9864 9.78534 24L11 24.0033V22.0287Z" fill="white"/>
<path d="M23 25V31.4676C23 32.9152 24.8137 34.0273 26.2976 33.9994C26.2976 33.9994 28.407 34 29 33.0435V34H32V25H29V29.8107C29 30.4299 28.407 30.9822 27.5454 31C26.6838 31.0178 26 30.4959 26 29.8107V25H23Z" fill="white"/>
<path d="M43 34V27.5324C43 26.0847 41.1863 24.9726 39.7024 25.0005C39.7024 25.0005 37.593 25 37 25.9565V25H34V34H37V29.1893C37 28.5701 37.593 28.0178 38.4546 28C39.3162 27.9822 40 28.5041 40 29.1893V34H43Z" fill="white"/>
<path d="M51 33.9329C49.9769 34.0224 48.9461 34.0224 47.923 33.9329C47.923 33.9329 46.1409 33.7189 46 31.7931V27H44V25H46V23H49V25H50.999V27H49V31.4171C48.9868 31.744 49.278 32.0336 49.6522 31.9975H50.9971L51 33.9329Z" fill="white"/>
</svg>
