<!-- by TradingView --><svg width="56" height="56" viewBox="0 0 56 56" xmlns="http://www.w3.org/2000/svg"><path fill="#F0F3FA" d="M0 0h56v56H0z"/><path d="M38 14v4.8c-2.1-.23-3.01 1.34-3 3.06V35.2l-5-.02V21.55a7.5 7.5 0 0 1 1.99-4.92A8.15 8.15 0 0 1 38 14Z" fill="#00843F"/><path d="M45 21.64v.56h-5c0-1.93-.4-3.22-2-3.4V14c.87 0 1.65.15 2.32.42a7.6 7.6 0 0 1 4.67 7.22Z" fill="#FC83FF"/><path d="M26 22.04h-4.98c0-3.92-4.88-4.06-5.02-.36v.61l-5 .04v-.7c.15-7.85 10.2-10.52 14.05-3.73.64 1.13.96 2.78.96 4.14Z" fill="#FF4B4B"/><path d="M16 22v17.9a.1.1 0 0 1-.04.07.12.12 0 0 1-.08.03h-4.77a.1.1 0 0 1-.07-.03c-.02-.02-.04-.04-.04-.07V22h5Z"/><path d="M25.98 22v13.3L26 40h-4.9a.1.1 0 0 1-.07-.03.1.1 0 0 1-.03-.07l.02-17.9h4.96Z" fill="#5887FF"/><path d="M45 22v17.89c0 .03-.02.06-.04.08a.13.13 0 0 1-.09.03h-4.82l-.04-.01-.01-.03V22h5Z"/><path d="M35 35v4.9l-.01.03a.1.1 0 0 1-.03.03.11.11 0 0 1-.03.02l-.05.01h-8.87L26 35h9Z" fill="#FA0"/></svg>