<!-- by TradingView --><svg width="56" height="56" viewBox="0 0 56 56" xmlns="http://www.w3.org/2000/svg"><path fill="#F0F3FA" d="M0 0h56v56H0z"/><path d="M4.44 26 4 29h.54l.2-1.41L5.82 29l.94-1.41.19 1.41h.55l-.55-3-1.13 2.05L4.44 26ZM11.81 29h-.58l-.23-.5H9.82l-.2.5H9l1.37-3 1.43 3Zm-1.78-1h.74l-.39-.84-.35.84ZM15.15 28.2c0-.05-.03-.13-.13-.23s-.25-.2-.47-.28c-.26-.1-.46-.2-.61-.33a.99.99 0 0 1-.32-.5.6.6 0 0 1 .17-.63c.18-.16.45-.23.77-.23.26 0 .47.05.64.14.16.1.27.2.34.32l-.36.23a.54.54 0 0 0-.2-.18.9.9 0 0 0-.42-.09c-.27 0-.41.06-.48.12-.05.04-.07.1-.04.2.03.14.1.23.18.31.1.08.24.16.48.25.26.1.48.23.63.37.15.15.25.33.25.53 0 .17-.07.37-.24.54a1.1 1.1 0 0 1-.78.26c-.57 0-1.01-.27-1.17-.43l.3-.3c.1.1.43.31.87.31.27 0 .41-.07.48-.14.08-.08.1-.17.1-.24ZM51.53 28.2c0-.23-.41-.44-.6-.5-.53-.2-.94-.52-.94-.93 0-.65.47-.77.96-.77.55 0 .86.24 1.01.46l-.37.23c-.09-.13-.22-.27-.64-.27-.2 0-.54.04-.54.33 0 .29.22.38.68.55.39.14.91.43.91.9 0 .56-.57.8-1.05.8a1.9 1.9 0 0 1-1.21-.43l.3-.3c.11.1.46.31.9.31.24 0 .59-.1.59-.38ZM19.98 26.5H19V29h-.5v-2.5h-1.02V26h2.5v.5ZM24.04 26v.5H22.5v.7h1.33v.5H22.5v.8h1.54v.5H22v-3h2.04ZM27.16 26a.94.94 0 0 1 .26 1.84l.94 1.15h-.59l-.9-1.12h-.34V29H26v-3h1.16Zm-.66 1.5h.68c.27 0 .49-.25.49-.54 0-.3-.22-.54-.5-.54h-.67v1.08ZM43.16 26c.52 0 .94.48.94 1 0 .4-.25.77-.6.93l.86 1.06h-.59l-.8-.99h-.47v1H42v-3h1.16Zm-.66 1.5h.66c.26 0 .47-.22.47-.5s-.2-.5-.47-.5h-.66v1ZM31.1 27.85l.58-1.85H32l.57 1.85.68-1.85h.65l-1.33 3-.74-1.73L31.1 29l-1.33-3h.65l.68 1.85ZM37.5 26a1.5 1.5 0 1 1 0 3 1.5 1.5 0 0 1 0-3Zm0 .5a1 1 0 1 0 0 2 1 1 0 0 0 0-2ZM46.5 27.46 47.78 26h.65l-1.39 1.55L48.43 29h-.78l-1.15-1.2V29H46v-3h.5v1.46Z"/><path d="M40 30h-5v-5h5v5Zm-4.5-4.5v4h4v-4h-4Z"/></svg>