<!-- by TradingView --><svg width="56" height="56" viewBox="0 0 56 56" xmlns="http://www.w3.org/2000/svg"><path fill="#F0F3FA" d="M0 0h56v56H0z"/><path d="M34.07 12c.36 0 .6.37.46.7a39.18 39.18 0 0 1-2.82 5.3h8.99a.5.5 0 0 1 .36.83c-.67.74-3.09 3.43-7.9 8.24a55.25 55.25 0 0 0 10.51 7.76.63.63 0 0 1 .31.7.62.62 0 0 1-.6.47h-9.59c2.1 1.76 3.6 2.66 5 3.63 1.2.83 2.74 1.66 3.97 2.42a.51.51 0 0 1 .15.72.52.52 0 0 1-.68.16 57.02 57.02 0 0 1-4.02-2.49c-1.62-1.12-3.46-2.27-5.97-4.44h-8.48c-2.51 2.17-4.47 3.32-6.1 4.44-1.22.85-2.6 1.76-3.89 2.5a.51.51 0 0 1-.68-.17.51.51 0 0 1-.09-.3.5.5 0 0 1 .24-.41c1.23-.77 2.64-1.6 3.84-2.43 1.4-.97 3.04-1.87 5.13-3.63h-9.59a.62.62 0 0 1-.62-.63c0-.22.12-.43.33-.54a55.25 55.25 0 0 0 10.5-7.76c-4.8-4.81-7.22-7.5-7.9-8.24a.5.5 0 0 1 .37-.83h8.99c-1.06-1.67-2.01-3.44-2.82-5.3a.5.5 0 0 1 .46-.7h12.14ZM28 32.14c-1.1 1.04-2.12 2-3.1 2.86h6.2c-.98-.87-2-1.82-3.1-2.86Zm-4.45-4.36A58.05 58.05 0 0 1 14.13 35h9.25c1.2-1.04 2.5-2.23 3.9-3.56l-.08-.06a419.1 419.1 0 0 1-3.65-3.6Zm8.9 0c-1.1 1.1-2.31 2.3-3.65 3.6l-.07.06c1.4 1.33 2.7 2.52 3.9 3.56h9.24c-2.55-1.55-5.98-4-9.42-7.22ZM28 23.08a54.34 54.34 0 0 1-3.73 4c1.1 1.1 2.31 2.29 3.65 3.58l.08.08.08-.08c1.34-1.3 2.55-2.49 3.65-3.58a54.33 54.33 0 0 1-3.73-4ZM16.46 19c1.16 1.27 3.43 3.7 7.1 7.37a53.22 53.22 0 0 0 3.79-4.1A46.81 46.81 0 0 1 24.94 19h-8.48Zm14.6 0a46.78 46.78 0 0 1-2.4 3.28 53.21 53.21 0 0 0 3.78 4.09c3.67-3.67 5.94-6.1 7.1-7.37h-8.48Zm-4.9 0c.59.85 1.2 1.68 1.84 2.47A46.1 46.1 0 0 0 29.84 19h-3.68Zm-3.45-6c.81 1.75 1.75 3.42 2.78 5h5.02a38.98 38.98 0 0 0 2.78-5H22.72Z" fill="#976948"/></svg>