<!-- by TradingView --><svg width="56" height="56" viewBox="0 0 56 56" xmlns="http://www.w3.org/2000/svg"><path fill="#F0F3FA" d="M0 0h56v56H0z"/><path d="M12.14 28.07a.12.12 0 0 1-.1-.08l-.02-.05c.19-5 2.15-9.07 5.9-12.2.2-.17.8-.6 1.78-1.3.9-.63 1.61-.84 2.92-1.37a13.82 13.82 0 0 1 5.86-.99c.2.01.61-.12.71-.07.04.02.06.04.08.08a.2.2 0 0 1 .02.1c-.1 1.79-.3 3.18-.6 4.17-.8 2.67-2.4 5.57-4.66 7.4-.52.43-1.04.96-1.72 1.4-3.05 2-6.44 2.97-10.17 2.9Z" fill="#77B7F4"/><path d="m44 39.92-.01.03a.07.07 0 0 1-.04.04H34.2a.2.2 0 0 1-.13-.05.2.2 0 0 1-.07-.14c-.02-.37 0-.83 0-1.36V27.39a5.43 5.43 0 0 0-5.25-5.73.12.12 0 0 1-.05-.1c0-.03 0-.05.02-.07a18.54 18.54 0 0 0 2.82-9.12.09.09 0 0 1 .05-.04h.03c.94.13 1.92.42 2.96.89 3 1.34 5.35 3.37 7.06 6.09a15.99 15.99 0 0 1 2.18 5.9c.13.78.19 2.9.18 6.34v8.37ZM21.88 30h-9.76a.12.12 0 0 0-.12.12v9.76c0 .07.05.12.12.12h9.76c.07 0 .12-.05.12-.12v-9.76a.12.12 0 0 0-.12-.12Z" fill="#3F5AFF"/></svg>