<!-- by TradingView --><svg width="56" height="56" viewBox="0 0 56 56" xmlns="http://www.w3.org/2000/svg"><path fill="url(#ajyoiofeo)" d="M0 0h56v56H0z"/><path d="M44 18h-4s.17-1-1-1c-1 0-1 1-1 2 0 .89 0 2 1 2s2 .11 2-1h-2v-1h5v4h-2v-2c0 1.5-2.33 2-3 2-4 0-5-1-5-3v-1.44C34 17 35 15 39 15s5 2.11 5 3ZM12 27v-3h10v3h-3v2h3v3H12v-3h3v-2h-3ZM12 15h10v2h-6v1h6v2h-6v1h6v2H12v-8ZM34 24h10v2h-6v1h6v2h-6v1h6v2H34v-8ZM26 23h-3v-8h4l3 4v-4h3v8h-4l-3-4v4ZM26 32h-3v-8h4l3 4v-4h3v8h-4l-3-4v4ZM28.53 33.5v-.48C30.71 33.16 33 34.56 33 37c0 2.68-2.67 4-4.99 4C25.7 41 23 39.71 23 37c0-.59.13-1.28.4-1.78h.6c-.5.78-.5 1.3-.5 1.78 0 2.2 2.64 3.5 4.51 3.5 1.87 0 4.49-1.3 4.49-3.5 0-1.97-2.23-3.37-3.97-3.5Z" fill="#fff"/><path d="M24 35.22h-.6C24 34 26.08 33.05 27.76 33v.5c-1.37.04-2.76.5-3.76 1.72ZM26 37c0 1.1.68 1.92 1.76 2v-.5c-.65-.07-1.26-.5-1.26-1.5 0-.78.75-1.5 1.5-1.5s1.5.75 1.5 1.5c0 1-.54 1.34-1 1.5.03 0 .03-.01 0 0v.5c.99-.18 1.5-1.05 1.5-2 0-1.19-.8-2-1.99-2-1.2 0-2.01.79-2.01 2ZM21.5 33.45H20V33h2v8h-5l-1.5-3v3H15v-5l2.2 4.5h4.3v-7.05Z" fill="#fff"/><path d="M14 40.56h-1.5v-7.1h3.14L19 38.68V33h-.5v4L16 33h-4v8h2v-.44ZM34.5 37v3.5H36v.5h-2v-4h.5ZM36 37v.5h1.5V41h.5v-4h-2ZM42 33h2v8h-.5v-7.5H42V33ZM39 36.5h2.5v4H43v.5h-2v-4h-2v-.5ZM41.5 33c0 1-.8 2-1.5 2h-.5v1H39v-1.5h1c.5 0 1-1.19 1-1.5h.5Z" fill="#fff"/><defs><linearGradient id="ajyoiofeo" x1="10.42" y1="9.71" x2="68.15" y2="76.02" gradientUnits="userSpaceOnUse"><stop stop-color="#1A1E21"/><stop offset="1" stop-color="#06060A"/></linearGradient></defs></svg>