<!-- by TradingView --><svg width="56" height="56" viewBox="0 0 56 56" xmlns="http://www.w3.org/2000/svg"><path fill="#F0F3FA" d="M0 0h56v56H0z"/><path d="M29.09 18.25c-.1-.06-.2-.07-.24-.02-.03.05.03.14.13.2.1.07.2.07.23.02s-.02-.14-.12-.2ZM28.43 19.31c.07-.04.11-.12.08-.18s-.12-.06-.2-.02c-.07.04-.1.13-.07.18.03.06.11.07.19.02Z" fill="#DDA2A2"/><path d="M29.75 19.65v.84a.12.12 0 0 0 .03.09.11.11 0 0 0 .08.03c.22-.01.4 0 .5.15.06.09.1.14.14.16a.07.07 0 0 1 .04.05.07.07 0 0 1-.01.06c-.06.06-.09.18-.08.35l-.04-.22a.16.16 0 0 0-.04-.08.15.15 0 0 0-.07-.04.4.4 0 0 0-.43.1c-.16.2-.27.24-.32.12.23-.52-.05-1.12-.19-1.43-.13-.3-.3-.38-.53-.22a1.89 1.89 0 0 0-.61.94.06.06 0 0 1-.05.02h-.02l-.07-.03-.02-.02-.01-.02a.06.06 0 0 1 0-.06l.78-1.04a.13.13 0 0 1 .16-.04l.76.3Z" fill="#AB7F70"/><path d="M30.8 19.7c-.01-.07-.06-.12-.11-.11-.05 0-.08.07-.07.15.01.07.06.13.11.12.05-.01.08-.08.07-.15ZM30.07 19.74a.89.89 0 0 0-.02.4c0 .03.02.05.04.07.02.02.05.04.08.04l.1-.01c.02-.01.07.03.12.12.08.12.17.2.3.27.05.4.02.8-.1 1.2-.12-.43-.43-.43-.9 0a.4.4 0 0 0-.12.2c-.1.34-.25.62-.46.86-.11.13-.23.26-.36.38-.05.04-.1.03-.14-.05 0-.27-.12-.4-.34-.4.1-.1.16-.21.22-.32 0-.02.06-.11.17-.29.06-.1.08-.25.04-.42 0-.03 0-.06.02-.08.01-.02.04-.04.08-.04.29-.03.54-.17.75-.41.05.12.16.08.32-.11-.2.46 0 .53.58.23 0-.17.02-.29.08-.35a.07.07 0 0 0 0-.1l-.03-.01c-.04-.02-.08-.07-.14-.16-.1-.15-.28-.16-.5-.15a.11.11 0 0 1-.08-.03.12.12 0 0 1-.04-.1l.01-.83c.08.07.19.1.32.09Z" fill="#DDA2A2"/><path d="M30.69 20.63a.75.75 0 0 1-.3-.27c-.05-.1-.1-.13-.13-.12a.27.27 0 0 1-.09 0 .13.13 0 0 1-.08-.03.14.14 0 0 1-.04-.07.9.9 0 0 1 .02-.4c.13 0 .23.08.27.24.02.07.06.12.12.16.12.07.2.14.24.21.06.1.06.2-.01.28Z" fill="#B53A3B"/><path d="M28.43 21.32c-.06-.12-.14-.2-.18-.17-.04.02-.03.13.03.25.05.11.13.19.17.17.04-.02.03-.13-.02-.25Z" fill="#DDA2A2"/><path d="M28.42 21.96c-.02.19-.1.32-.22.38a.14.14 0 0 1-.17-.03c-.08-.1-.19-.18-.3-.25a.18.18 0 0 0-.19 0l-.43.3a.4.4 0 0 0-.12.35c0 .07.03.12.07.17.03.05.08.09.14.1.06.03.14.02.24-.01a.09.09 0 0 1 .07 0c.02.01.03.02.03.04l.01.04c.01.09 0 .18-.03.29-.11-.01-.23-.04-.37-.1a.11.11 0 0 0-.07 0 .11.11 0 0 0-.06.03.12.12 0 0 0 0 .15c.1.16.18.33.22.5 0 .01 0 .02.02.03a.04.04 0 0 0 .05 0l.02-.03c.06-.3.13-.45.2-.45.2.1.3.06.33-.1.05-.3.18-.48.4-.54.23-.01.34.12.35.4a.3.3 0 0 1-.09.1.26.26 0 0 0-.17-.05.1.1 0 0 0-.05.01.1.1 0 0 0-.03.04.1.1 0 0 0 0 .1c.11.24.09.5-.07.78a.14.14 0 0 1-.08.06.13.13 0 0 1-.09 0 .4.4 0 0 0-.23-.04.24.24 0 0 0-.14.08.26.26 0 0 0-.02.3c.03.05.08.09.13.1.03.01.06.04.08.08a.2.2 0 0 1-.02.18c-.14.21-.36.27-.64.16-.13-.11-.24-.12-.32-.02-.03.03-.04.1-.02.2-.04-.06-.09-.08-.15-.07a.24.24 0 0 0-.05-.24.13.13 0 0 0-.1-.05c-.26.02-.45.1-.56.26-.24.31-.42.51-.53.6l-.24.1a.08.08 0 0 1-.1 0 .09.09 0 0 1-.02-.05.1.1 0 0 1 0-.05.75.75 0 0 1 .42-.46c.17-.2.17-.36 0-.47v-.24c.27-.21.43-.49.48-.83 0-.04.03-.08.06-.11.07-.06.18-.06.34-.02a.23.23 0 0 0 .18-.02.24.24 0 0 0 .11-.17c.08-.46.1-.85.04-1.18 0-.04 0-.07.02-.1a.13.13 0 0 1 .08-.06l.65-.19c.03 0 .06-.03.07-.06.07-.1.08-.25.03-.46l.01-.05.04-.03.06-.02a.04.04 0 0 1 .03 0l.02.03c.03.1.05.2.06.32 0 .05.01.1.04.14a.3.3 0 0 0 .1.11c.05.02.1.04.14.04.05 0 .1-.01.14-.04.06-.03.13-.03.2.02Z" fill="#B53A3B"/><path d="M30.59 21.83a6.07 6.07 0 0 1-1.2 1.97.06.06 0 0 1-.05-.02.08.08 0 0 1-.02-.09l.01-.02c.3-.3.5-.7.62-1.2.03-.17.14-.3.33-.36l.02-.02.05-.14a.07.07 0 0 0 0-.06l-.04-.02h-.03l-.36.1a.2.2 0 0 0-.08.05.2.2 0 0 0-.05.07l-.39 1a.34.34 0 0 1-.14.17c-.18.1-.3.29-.36.55l.01.07c0 .02.02.04.04.05.1.06.12.13.06.23a1.4 1.4 0 0 1-.68.5h-.05a.08.08 0 0 1-.04-.03.09.09 0 0 1 0-.1c.07-.1.19-.22.35-.32a.27.27 0 0 0 .12-.18v-.1a.22.22 0 0 0-.05-.09c-.09-.1-.14-.28-.14-.5a.3.3 0 0 0 .09-.12c.05.08.1.1.14.05.13-.12.25-.25.36-.38.21-.24.37-.52.46-.86a.4.4 0 0 1 .12-.2c.47-.43.78-.43.9 0Z" fill="#2B271E"/><path d="M26.47 23.04c-.09-.08-.2-.1-.24-.05-.05.06-.02.17.06.25.08.08.2.1.24.04.05-.05.02-.17-.06-.24Z" fill="#AB7F70"/><path d="M24.71 24.66h-.03a.05.05 0 0 1-.02-.02l-.02-.03.01-.03.24-.4a.28.28 0 0 1 .12-.1c.3-.13.52-.4.7-.83.03-.08.08-.11.15-.1.03 0 .06.01.08.03.01.02.03.05.03.08l-.01.09a.17.17 0 0 1-.06.07c-.15.1-.21.22-.2.37a.21.21 0 0 1-.1.2c-.39.2-.48.54-.89.67ZM27.52 23.34c.03.02.03.07.01.13-.07 0-.14.15-.2.45 0 .01 0 .02-.02.03a.04.04 0 0 1-.05 0l-.02-.03a1.64 1.64 0 0 0-.23-.5.12.12 0 0 1 0-.15.11.11 0 0 1 .07-.04h.07c.14.07.26.1.37.1Z" fill="#DDA2A2"/><path d="M25.52 24.64v.24c-.06-.05-.11.01-.16.19a.2.2 0 0 0 0 .1c.02.1.07.16.16.18-.2.1-.35.25-.42.46a.1.1 0 0 0 0 .05c0 .02.01.03.03.04 0 .02.02.02.04.03l.05-.01.24-.12c-.08.22-.1.47-.07.74a.4.4 0 0 0-.1-.15c-.04-.05-.1-.06-.14-.03-.06.04-.1.11-.1.22a1.8 1.8 0 0 1-.74-.5.15.15 0 0 1-.04-.1v-.53a.1.1 0 0 1 .03-.07.1.1 0 0 1 .07-.03h.17a.2.2 0 0 0 .13-.05.21.21 0 0 0 .06-.13l.02-.1c0-.05.02-.1.04-.15.03-.05.06-.1.1-.13a.35.35 0 0 1 .13-.07.3.3 0 0 1 .15-.01c.16.03.28 0 .35-.07Z" fill="#AB7F70"/><path d="M25.53 24.88c.16.1.16.27-.01.47-.09-.02-.14-.08-.16-.18a.2.2 0 0 1 0-.1c.05-.18.1-.24.17-.19Z" fill="#DDA2A2"/><path d="M26.7 25.24c.06-.01.11 0 .15.06l.02.09-.02.07a.13.13 0 0 1-.06.04c-.17.08-.32.2-.45.35a.18.18 0 0 1-.13.06.2.2 0 0 1-.08 0 .15.15 0 0 1-.07-.06.16.16 0 0 1-.02-.1.17.17 0 0 1 .1-.14c.2-.1.38-.22.56-.37Z" fill="#4C4D46"/><path d="M28.01 26.32c.37.37.34.76-.1 1.16l-.02-.1-.02-.04-.03-.01h-.06c.14-.13.2-.25.17-.37a2.73 2.73 0 0 0-.34-.96.11.11 0 0 1 0-.12.1.1 0 0 1 .04-.04.1.1 0 0 1 .06 0c.11.02.19.07.23.15v.17c0 .07.03.12.07.16ZM28.7 26.54c-.01-.1-.11-.24-.3-.44a.08.08 0 0 1-.02-.05.08.08 0 0 1 .04-.08h.04c.18.02.33.07.44.15l.04.05a.16.16 0 0 1 .02.12l-.02.06-.16.21-.03.02h-.02c-.01 0-.02 0-.03-.02v-.02Z" fill="#AB7F70"/><path d="M25.4 26.54c.02.13.13.23.26.26.22.05.38.19.48.43l.05.05a.1.1 0 0 0 .14-.02.12.12 0 0 0 .03-.07c0-.1-.04-.21-.13-.33a.13.13 0 0 1-.01-.15c.03-.05.1-.11.19-.19a.04.04 0 0 1 .03 0 .04.04 0 0 1 .03.03l.25.96c.02.06.05.11.1.15l.78.73c.42.46.7.73.84.81.23.14.46.13.7-.04.1.18.12.38.08.58 0 .03-.02.06-.05.08a.15.15 0 0 1-.18 0 .16.16 0 0 1-.06-.07c-.02-.07 0-.14.05-.22l.01.21c0 .02.01.03.03.04a.07.07 0 0 0 .08.01c.02 0 .03-.02.03-.03.07-.18.05-.28-.07-.3-.13-.11-.31-.12-.55-.03a2 2 0 0 1-.96-.83.75.75 0 0 0-.3-.26 2.07 2.07 0 0 1-.86-.78.29.29 0 0 0-.17-.12c-.53-.14-.75-.54-1.17-.86 0-.1.04-.18.1-.22.05-.03.1-.02.15.03a.4.4 0 0 1 .1.15Z" fill="#4C4D46"/><path d="M29.58 26.74a.1.1 0 0 0 .1-.1.1.1 0 0 0-.1-.11.1.1 0 0 0-.1.1c0 .07.04.11.1.11Z" fill="#AB7F70"/><path d="M29.36 27c.04-.1.02-.22-.05-.24-.06-.02-.14.05-.18.17-.04.11-.01.22.05.25.07.02.15-.06.18-.17Z" fill="#DDA2A2"/><path d="m30.66 27.83-.15.05c-.1-.17-.23-.3-.4-.4-.09-.1-.18-.14-.27-.11a.1.1 0 0 1-.07 0 .1.1 0 0 1-.05-.06c-.01-.04 0-.09.02-.15a.12.12 0 0 1 .05-.06.12.12 0 0 1 .09 0c.35.1.61.35.78.73ZM28.2 28.1c0-.08-.03-.12-.09-.13l.24-.51a.3.3 0 0 1 .2-.17l.1-.03h.04l.04.02a.07.07 0 0 1 0 .08c-.12.29-.3.53-.54.75Z" fill="#AB7F70"/><path d="M27.78 27.33h.06l.03.01.02.03.02.11a.95.95 0 0 0-.22.29c-.04.07-.1.1-.2.07-.08-.15-.1-.26-.04-.32.06-.06.17-.12.33-.2Z" fill="#4C4D46"/><path d="M28.7 29.03v.02l-.04.03a.09.09 0 0 1-.08-.01.09.09 0 0 1-.03-.03c-.13-.25-.13-.53 0-.85.03-.05.08-.1.13-.12.2-.08.33-.26.4-.54a.14.14 0 0 1 .07-.09.13.13 0 0 1 .12.01l.1.09c.01.03 0 .07-.05.1-.2.21-.73.77-.58 1.15a.27.27 0 0 1-.03.24Z" fill="#AB7F70"/><path d="m30.51 27.88-.44 1.42c.1.1.11.3.05.62l-.04-.02h-.03l-.01.02a.3.3 0 0 0-.02.09c-.14-.2-.28-.22-.4-.08-.3-.46-.26-.87.13-1.23a.79.79 0 0 0 .23-.87c0-.08.05-.2.13-.34.17.09.3.22.4.39Z" fill="#DDA2A2"/><path d="M30.66 27.83c.11.18.1.3-.02.4a.19.19 0 0 0-.06.06l-.5 1.01.43-1.42.15-.05ZM29.98 27.83c.11.34.03.63-.23.87-.39.36-.43.77-.13 1.23l-.08.35a.1.1 0 0 1-.03.04.09.09 0 0 1-.13 0 .55.55 0 0 0-.44-.2.12.12 0 0 0-.1.05.13.13 0 0 0-.02.11c.05.28.01.6-.12.94l-.05.05h-.06l-.06-.03-.02-.01v-.02a.05.05 0 0 1 0-.04c.14-.2.15-.4 0-.57.07-.18.1-.34.1-.5l-.02-.03-.02-.01a.05.05 0 0 0-.05 0c-.13.12-.25.3-.35.58l.11 1.14a.07.07 0 0 1-.02.06.07.07 0 0 1-.06.01.3.3 0 0 0-.05 0c-.03-.01-.05 0-.08.01a.12.12 0 0 0-.05.07.82.82 0 0 0-.02.32c0 .03 0 .06-.02.08a.13.13 0 0 1-.06.06.6.6 0 0 1-.45-.02.14.14 0 0 1-.06-.06.15.15 0 0 1 0-.16.13.13 0 0 1 .08-.05c.37-.1.56-.36.57-.75a.2.2 0 0 0-.03-.11.2.2 0 0 0-.09-.08.18.18 0 0 0-.11 0 .19.19 0 0 0-.1.06.4.4 0 0 1-.17.12.1.1 0 0 0-.07.07.12.12 0 0 0 .02.1l.02.03.04.08c0 .03 0 .05-.02.08-.05.11-.14.14-.28.08-.29-.1-.4-.25-.36-.44 0-.02 0-.04.02-.05a.13.13 0 0 1 .04-.04l.2-.1a.17.17 0 0 0 .07-.07.56.56 0 0 1 .35-.3.1.1 0 0 0 .06-.06.1.1 0 0 0 0-.08l-.07-.13.95-.63a.2.2 0 0 0 .08-.14c.04-.2 0-.3-.1-.3.24-.1.42-.1.55.01l-.08.08c-.05.08-.07.15-.05.22.01.03.03.06.06.08a.14.14 0 0 0 .18 0 .16.16 0 0 0 .05-.1c.04-.2.02-.39-.07-.57l.83-1.33Z" fill="#2B271E"/><path d="M28.11 27.97c.06 0 .09.05.08.14-.03.12-.16.18-.37.16a.13.13 0 0 1-.07-.03.14.14 0 0 1-.04-.06.14.14 0 0 1 .03-.14c.07-.08.2-.1.37-.07Z" fill="#4C4D46"/><path d="m30.75 28.69.06-.06a.05.05 0 0 1 .04-.02l.02.01.02.02c.16.35.23 1.28-.39 1.2a.09.09 0 0 1-.05-.03.1.1 0 0 1 0-.12.09.09 0 0 1 .04-.03c.4-.12.48-.42.25-.9v-.04l.01-.03Z" fill="#2B271E"/><path d="m28.98 29.53.08-.08c.12.03.14.13.07.3 0 .02-.01.03-.03.04a.07.07 0 0 1-.08 0 .08.08 0 0 1-.03-.05.63.63 0 0 1 0-.2Z" fill="#DDA2A2"/><path d="M30.12 29.92c.07.12.1.22.08.3l-.02.02a.05.05 0 0 1-.06.01.06.06 0 0 1-.03-.02.57.57 0 0 1-.07-.22.3.3 0 0 1 .02-.09l.01-.02h.03l.04.02Z" fill="#4C4D46"/><path d="M28.52 30.6c-.05-.05-.17-.04-.35.04.1-.27.22-.46.35-.58a.05.05 0 0 1 .07.01l.01.03c0 .16-.02.32-.08.5ZM30.78 30.34a.3.3 0 0 0-.07-.1l.04-.09c.04-.02.06 0 .07.03.02.06 0 .11-.04.16Z" fill="#DDA2A2"/><path d="M30.71 30.24a.3.3 0 0 1 .07.1.75.75 0 0 1-.18.3.42.42 0 0 0-.1.17c-.1.39-.3.68-.59.86-.42.27-.63.68-1.06.97a.12.12 0 0 1-.16-.03c-.16-.19-.26-.4-.31-.6a.09.09 0 0 1 .06-.1l.04-.02a.07.07 0 0 1 .06 0 .08.08 0 0 1 .04.05l.08.33.05.08a.16.16 0 0 0 .16.04l.07-.04.63-.67.03-.02c.37-.18.65-.47.86-.87a.15.15 0 0 0 .01-.1l-.05-.2v-.09a.15.15 0 0 1 .07-.07.52.52 0 0 1 .22-.09Z" fill="#2B271E"/><path d="m27.58 30.5.07.14a.1.1 0 0 1 0 .08.1.1 0 0 1-.06.06.56.56 0 0 0-.35.3.17.17 0 0 1-.08.07l-.19.1a.13.13 0 0 0-.04.04.14.14 0 0 0-.02.05c-.05.19.07.34.36.44-.1.2-.09.43.05.7a.2.2 0 0 1-.06 0 .15.15 0 0 1-.09-.04.16.16 0 0 1-.04-.1c0-.15-.05-.25-.14-.32a.27.27 0 0 1-.1-.18c-.04-.27-.2-.44-.47-.53a.05.05 0 0 1-.04-.05c0-.1.1-.14.3-.12.24-.03.38-.14.45-.33.17-.16.32-.26.45-.3Z" fill="#DDA2A2"/><path d="M29.89 30.6a.1.1 0 0 1 .1.05.12.12 0 0 1 .02.1l-.06.15a.17.17 0 0 1-.09.1.16.16 0 0 1-.12 0c-.16-.07-.27.03-.33.3a.1.1 0 0 1-.02.04l-.03.03a.08.08 0 0 1-.07 0l-.05-.02a.08.08 0 0 1-.05-.04v-.07c.13-.36.36-.58.7-.64ZM27.13 30.8c-.07.2-.21.31-.44.34-.1-.02-.16-.07-.18-.14.2-.33.4-.39.62-.2Z" fill="#2B271E"/><path d="M26.51 31c.02.07.08.12.18.14-.21-.02-.31.02-.3.12a.05.05 0 0 0 .03.05c.27.09.43.26.46.54a.27.27 0 0 0 .1.17c.1.07.15.17.16.32 0 .04.01.07.03.1.03.03.06.04.1.05h.05c.18.33.6.21.83.1a.1.1 0 0 1 .08 0 .1.1 0 0 1 .06.04c.07.11.09.24.03.39a.13.13 0 0 1-.06.07.12.12 0 0 1-.09 0 .64.64 0 0 0-.36.02.19.19 0 0 0-.12.13c-.06.2-.1.33-.14.39-.1.16-.22.17-.37.03.03-.14.1-.21.2-.23a.1.1 0 0 0 .08-.05.49.49 0 0 0 .09-.34c-.02-.11-.08-.12-.2-.05-.08.06-.11.15-.09.28v.04l-.02.03h-.08c-.03 0-.06-.03-.08-.09-.06-.16-.2-.35-.4-.56a.25.25 0 0 0-.19-.08c-.04 0-.17-.04-.4-.14a.09.09 0 0 1-.05-.08v-.08a.08.08 0 0 1 .03-.06l.03-.01h.03c.15.03.29.03.43-.02a.18.18 0 0 0 .08-.05.2.2 0 0 0-.01-.27c-.24-.22-.48-.3-.74-.28 0 .07-.04.04-.09-.1.16-.4.43-.3.71-.52Z" fill="#B53A3B"/><path d="M28.99 31.51c-.09-.03-.17 0-.2.06 0 .07.05.14.13.16.09.03.17 0 .19-.06.02-.06-.04-.13-.12-.16Z" fill="#2B271E"/><path d="M25.8 31.53c.05.13.08.16.09.1-.03.41-.13.58-.3.51-.06-.11-.03-.21.07-.3a.2.2 0 0 0 .06-.08l.08-.23Z" fill="#DDA2A2"/><path d="M25.12 32.22c.01.1 0 .18-.02.23-.07.12-.19.15-.35.1.04-.3.18-.53.4-.69a.04.04 0 0 1 .05 0 .05.05 0 0 1 .02.05c-.01.1-.05.2-.1.31Z" fill="#2B271E"/><path d="m25.54 32.44.08-.15c.12 0 .18.08.19.24 0 .04 0 .08-.03.1a.16.16 0 0 1-.08.07.15.15 0 0 1-.1 0 .16.16 0 0 1-.08-.07c-.02-.03-.01-.1.02-.2Z" fill="#AB7F70"/><path d="M27.08 33.66c-.2.05-.31.2-.35.45a.1.1 0 0 1-.04.07.1.1 0 0 1-.09.02c-.05-.02-.08-.08-.07-.17a.2.2 0 0 0-.03-.12.18.18 0 0 0-.09-.07.14.14 0 0 0-.1 0 .14.14 0 0 0-.07.07c-.02.05-.02.12 0 .22v.08c-.02.1-.08.14-.17.14h-.03a.07.07 0 0 0-.02.03.07.07 0 0 0-.01.06c0 .04 0 .12-.03.26 0 .03-.02.05-.04.07a.12.12 0 0 1-.07.03.1.1 0 0 1-.11-.08l-.01-.06h-.02a.05.05 0 0 0-.05 0l-.01.02-.12.2-.03.03h-.04a.07.07 0 0 1-.04-.01.07.07 0 0 1-.02-.04c-.04-.3-.18-.47-.4-.5a.11.11 0 0 1-.08-.05.13.13 0 0 1-.02-.1v-.03a.09.09 0 0 0-.05-.07h-.08l-.05.12v.05c0 .02.01.03.03.04.12.08.24.2.35.4a.16.16 0 0 1-.05.2.15.15 0 0 1-.07.03.77.77 0 0 0-.27.07.18.18 0 0 0-.1.12.63.63 0 0 1-.1.28.09.09 0 0 1-.06.03.08.08 0 0 1-.07-.02l-.25-.27a.2.2 0 0 1-.06-.14.66.66 0 0 0-.13-.43.1.1 0 0 1 0-.11l.02-.03a1 1 0 0 0 .32-.43.36.36 0 0 1 .1-.12c.3-.26.57-.29.79-.09l.05.1.17.46c.01.04.04.07.08.1a.17.17 0 0 0 .21-.05.18.18 0 0 0 .04-.11v-.33a.17.17 0 0 0-.05-.12l-.63-.57a.73.73 0 0 0-.01-.38l.08-.18.03-.04.05-.01.05.01a.1.1 0 0 1 .03.04c.02.04.02.15 0 .34a.26.26 0 0 0 .05.2.24.24 0 0 0 .2.08c.4-.02.6-.24.6-.66 0-.02 0-.04.02-.05a.08.08 0 0 1 .05-.03h.05l.04.05c.18.42.44.75.78 1Z" fill="#DC1912"/><path d="M25.05 32.91c.04.12.04.25 0 .38a.74.74 0 0 0-.45-.02.07.07 0 0 1-.08-.04v-.04c0-.1.07-.19.2-.28.12.02.23.02.33 0Z" fill="#AB7F70"/><path d="M23.59 34.68h-.13a.1.1 0 0 0-.09.1l.02.57c0 .05.04.1.09.1h.12a.1.1 0 0 0 .1-.1l-.02-.58a.1.1 0 0 0-.1-.09Z" fill="#DC1912"/><path d="m23.24 35.5-.1.1-.02.01h-.02c-.04-.01-.05-.04-.05-.09 0-.02.01-.03.03-.04l.12-.05h.03l.02.02a.04.04 0 0 1-.01.05Z" fill="#DDA2A2"/><path d="M23.95 35.91c.03-.11 0-.23-.06-.25-.07-.02-.16.06-.19.17-.03.12 0 .23.07.25.07.02.15-.05.18-.17ZM23.22 36.05c0-.11-.08-.2-.16-.19-.09 0-.15.1-.14.21.01.12.08.2.16.2.09-.01.15-.1.14-.22Z" fill="#DC1912"/><path d="M22 37.97c-.03-.33.1-.76.27-1.4.04-.13.1-.2.2-.2.03 0 .06.02.08.04.03.02.04.05.05.09 0 .03 0 .07-.02.1a.23.23 0 0 1-.06.1c-.13.11-.24.24-.32.38a.34.34 0 0 0-.05.14l-.08.75-.01.02-.02.01h-.02l-.01-.03Z" fill="#B53A3B"/><path d="M26.27 24.68a.67.67 0 0 0-.14.12c-.06.07-.1.1-.14.09-.05 0-.09-.03-.1-.07a.1.1 0 0 1 0-.05.1.1 0 0 1 .01-.05 1.14 1.14 0 0 1 .56-.37h.04c.02 0 .03.02.05.03.02.03.03.07.01.12 0 .04-.05.07-.13.1a.63.63 0 0 0-.16.08Z" fill="#DDA2A2"/><path d="M26.97 25.83a.1.1 0 0 1 .03-.07.1.1 0 0 1 .07-.03h.06a.06.06 0 0 1 .05.04v.02c0 .23.01.4.05.52.1.27 0 .44-.07.78a.1.1 0 0 1-.05.07.09.09 0 0 1-.09-.01l-.03-.03a.04.04 0 0 1-.02-.04v-1.25Z" fill="#4C4D46"/><path d="M26.27 33.55a.97.97 0 0 1-.1-.19.1.1 0 0 1 .03-.06.1.1 0 0 1 .06-.03.1.1 0 0 1 .06 0 .1.1 0 0 1 .05.05c.03.07.04.13.02.18l-.02.04a.1.1 0 0 1-.04.03h-.04a.05.05 0 0 1-.02-.02ZM26 33.74c0 .01 0 .03-.02.05l-.03.03h-.05a.07.07 0 0 1-.04-.03.54.54 0 0 1-.08-.28v-.04l.03-.03a.06.06 0 0 1 .07 0c.06.04.1.14.11.3ZM24.55 34.6c.03-.03.04-.08.02-.11-.03-.03-.08-.02-.12.02-.03.04-.04.09-.02.12.03.02.08.02.12-.02ZM46.09 18.25c-.1-.06-.2-.07-.24-.02-.03.05.03.14.13.2.1.07.2.07.23.02s-.02-.14-.12-.2ZM45.43 19.31c.07-.04.1-.12.08-.18-.03-.06-.12-.06-.2-.02-.07.04-.1.13-.07.18.03.06.11.07.19.02Z" fill="#DDA2A2"/><path d="M46.75 19.65v.84a.12.12 0 0 0 .03.09.11.11 0 0 0 .08.03c.22-.01.4 0 .5.15.06.09.1.14.14.16a.07.07 0 0 1 .04.05.07.07 0 0 1-.01.06c-.06.06-.09.18-.08.35l-.04-.22a.16.16 0 0 0-.04-.08.15.15 0 0 0-.07-.04.4.4 0 0 0-.43.1c-.16.2-.27.24-.32.12.23-.52-.05-1.12-.19-1.43-.13-.3-.3-.38-.53-.22a1.89 1.89 0 0 0-.61.94.06.06 0 0 1-.05.02h-.02l-.07-.03-.02-.02-.01-.02a.06.06 0 0 1 0-.06l.78-1.04a.13.13 0 0 1 .16-.04l.76.3Z" fill="#AB7F70"/><path d="M47.8 19.7c-.01-.07-.06-.12-.11-.11-.05 0-.08.07-.07.15.01.07.06.13.11.12.05-.01.08-.08.07-.15ZM47.07 19.74a.89.89 0 0 0-.02.4c0 .03.02.05.04.07.02.02.05.04.08.04l.1-.01c.02-.01.07.03.12.12.08.12.17.2.3.27.05.4.02.8-.1 1.2-.12-.43-.43-.43-.9 0a.4.4 0 0 0-.12.2c-.1.34-.25.62-.46.86-.11.13-.23.26-.36.38-.05.04-.1.03-.14-.05 0-.27-.12-.4-.34-.4.1-.1.16-.21.22-.32 0-.02.06-.11.17-.29.06-.1.08-.25.04-.42 0-.03 0-.06.02-.08.01-.02.04-.04.08-.04.29-.03.54-.17.75-.41.05.12.16.08.32-.11-.2.46 0 .53.58.23 0-.17.02-.29.08-.35a.07.07 0 0 0 0-.1l-.03-.01c-.04-.02-.08-.07-.14-.16-.1-.15-.28-.16-.5-.15a.11.11 0 0 1-.08-.03.12.12 0 0 1-.04-.1l.01-.83c.08.07.19.1.32.09Z" fill="#DDA2A2"/><path d="M47.69 20.63a.75.75 0 0 1-.3-.27c-.05-.1-.1-.13-.13-.12a.27.27 0 0 1-.09 0 .13.13 0 0 1-.08-.03.14.14 0 0 1-.04-.07.9.9 0 0 1 .02-.4c.13 0 .23.08.27.24.02.07.06.12.12.16.12.07.2.14.24.21.06.1.06.2-.01.28Z" fill="#B53A3B"/><path d="M45.43 21.32c-.06-.12-.14-.2-.18-.17-.04.02-.03.13.03.25.05.11.13.19.17.17.04-.02.03-.13-.02-.25Z" fill="#DDA2A2"/><path d="M45.42 21.96c-.02.19-.1.32-.22.38a.14.14 0 0 1-.17-.03c-.08-.1-.19-.18-.3-.25a.18.18 0 0 0-.19 0l-.43.3a.4.4 0 0 0-.12.35c0 .07.03.12.07.17.03.05.08.09.14.1.06.03.14.02.24-.01a.09.09 0 0 1 .07 0c.02.01.03.02.03.04l.01.04c.01.09 0 .18-.03.29-.11-.01-.23-.04-.37-.1a.11.11 0 0 0-.07 0 .11.11 0 0 0-.06.03.12.12 0 0 0 0 .15c.1.16.18.33.22.5 0 .01 0 .02.02.03a.04.04 0 0 0 .05 0l.02-.03c.06-.3.13-.45.2-.45.2.1.3.06.33-.1.05-.3.18-.48.4-.54.23-.01.34.12.35.4a.3.3 0 0 1-.09.1.26.26 0 0 0-.17-.05.1.1 0 0 0-.05.01.1.1 0 0 0-.03.04.1.1 0 0 0 0 .1c.11.24.09.5-.07.78a.14.14 0 0 1-.08.06.13.13 0 0 1-.09 0 .4.4 0 0 0-.23-.04.24.24 0 0 0-.14.08.26.26 0 0 0-.02.3c.03.05.08.09.13.1.03.01.06.04.08.08a.2.2 0 0 1-.02.18c-.14.21-.36.27-.64.16-.13-.11-.24-.12-.32-.02-.03.03-.04.1-.02.2-.04-.06-.09-.08-.15-.07a.24.24 0 0 0-.05-.24.13.13 0 0 0-.1-.05c-.26.02-.45.1-.56.26-.24.31-.42.51-.53.6l-.24.1a.08.08 0 0 1-.1 0 .09.09 0 0 1-.02-.05.1.1 0 0 1 0-.05c.07-.21.21-.36.42-.46.17-.2.17-.36 0-.47v-.24c.27-.21.43-.49.48-.83 0-.04.03-.08.06-.11.07-.06.18-.06.34-.02a.23.23 0 0 0 .18-.02.24.24 0 0 0 .11-.17c.08-.46.1-.85.04-1.18 0-.04 0-.07.02-.1a.13.13 0 0 1 .08-.06l.65-.19c.03 0 .06-.03.07-.06.07-.1.08-.25.03-.46l.01-.05.04-.03.06-.02a.04.04 0 0 1 .03 0l.02.03c.03.1.05.2.06.32 0 .05.01.1.04.14a.3.3 0 0 0 .1.11c.05.02.1.04.14.04.05 0 .1-.01.14-.04.06-.03.13-.03.2.02Z" fill="#B53A3B"/><path d="M47.59 21.83a6.07 6.07 0 0 1-1.2 1.97.06.06 0 0 1-.05-.02.08.08 0 0 1-.02-.09l.01-.02c.3-.3.5-.7.62-1.2.03-.17.14-.3.33-.36l.02-.02.05-.14a.07.07 0 0 0 0-.06l-.04-.02h-.03l-.36.1a.2.2 0 0 0-.08.05.2.2 0 0 0-.05.07l-.39 1a.34.34 0 0 1-.14.17c-.18.1-.3.29-.36.55l.01.07c0 .02.02.04.04.05.1.06.12.13.06.23a1.4 1.4 0 0 1-.68.5h-.05a.08.08 0 0 1-.04-.03.09.09 0 0 1 0-.1c.07-.1.19-.22.35-.32a.27.27 0 0 0 .12-.18v-.1a.22.22 0 0 0-.05-.09c-.09-.1-.14-.28-.14-.5a.3.3 0 0 0 .09-.12c.05.08.1.1.14.05.13-.12.25-.25.36-.38.21-.24.37-.52.46-.86a.4.4 0 0 1 .12-.2c.47-.43.78-.43.9 0Z" fill="#2B271E"/><path d="M43.47 23.04c-.09-.08-.2-.1-.24-.05-.05.06-.02.17.06.25.08.08.2.1.24.04.05-.05.02-.17-.06-.24Z" fill="#AB7F70"/><path d="M41.71 24.66h-.03a.05.05 0 0 1-.02-.02l-.02-.03.01-.03.24-.4a.28.28 0 0 1 .12-.1c.3-.13.52-.4.7-.83.03-.08.08-.11.15-.1.03 0 .06.01.08.03.01.02.03.05.03.08l-.01.09a.17.17 0 0 1-.06.07c-.15.1-.21.22-.2.37a.21.21 0 0 1-.1.2c-.39.2-.48.54-.89.67ZM44.52 23.34c.03.02.03.07.01.13-.07 0-.14.15-.2.45 0 .01 0 .02-.02.03a.04.04 0 0 1-.05 0l-.02-.03a1.64 1.64 0 0 0-.23-.5.12.12 0 0 1 0-.15.11.11 0 0 1 .07-.04h.07c.14.07.26.1.37.1Z" fill="#DDA2A2"/><path d="M42.52 24.64v.24c-.06-.05-.11.01-.16.19a.2.2 0 0 0 0 .1c.02.1.07.16.16.18-.2.1-.35.25-.42.46a.1.1 0 0 0 0 .05c0 .02.01.03.03.04 0 .02.02.02.04.03l.05-.01.24-.12c-.08.22-.1.47-.07.74a.4.4 0 0 0-.1-.15c-.04-.05-.1-.06-.14-.03-.06.04-.1.11-.1.22a1.8 1.8 0 0 1-.74-.5.15.15 0 0 1-.04-.1v-.53a.1.1 0 0 1 .03-.07.1.1 0 0 1 .07-.03h.17a.2.2 0 0 0 .13-.05.21.21 0 0 0 .06-.13l.02-.1c0-.05.02-.1.04-.15.03-.05.06-.1.1-.13a.35.35 0 0 1 .13-.07.3.3 0 0 1 .15-.01c.16.03.28 0 .35-.07Z" fill="#AB7F70"/><path d="M42.53 24.88c.16.1.16.27-.01.47-.09-.02-.14-.08-.16-.18a.2.2 0 0 1 0-.1c.05-.18.1-.24.17-.19Z" fill="#DDA2A2"/><path d="M43.7 25.24c.06-.01.11 0 .15.06l.02.09-.02.07a.13.13 0 0 1-.06.04c-.17.08-.32.2-.45.35a.18.18 0 0 1-.13.06.2.2 0 0 1-.08 0 .15.15 0 0 1-.07-.06.16.16 0 0 1-.02-.1.17.17 0 0 1 .1-.14c.2-.1.38-.22.56-.37Z" fill="#4C4D46"/><path d="M45.01 26.32c.37.37.34.76-.1 1.16l-.02-.1-.02-.04-.03-.01h-.06c.14-.13.2-.25.17-.37a2.73 2.73 0 0 0-.34-.96.11.11 0 0 1 0-.12.1.1 0 0 1 .04-.04.1.1 0 0 1 .06 0c.11.02.19.07.23.15v.17c0 .07.03.12.07.16ZM45.7 26.54c-.01-.1-.11-.24-.3-.44a.08.08 0 0 1-.02-.05.08.08 0 0 1 .04-.08h.04c.18.02.33.07.44.15l.04.05a.16.16 0 0 1 .02.12l-.02.06-.16.21-.03.02h-.02c-.01 0-.02 0-.03-.02v-.02Z" fill="#AB7F70"/><path d="M42.4 26.54c.02.13.13.23.26.26.22.05.38.19.48.43l.05.05a.1.1 0 0 0 .14-.02.12.12 0 0 0 .03-.07c0-.1-.04-.21-.13-.33a.13.13 0 0 1-.01-.15c.03-.05.1-.11.19-.19a.04.04 0 0 1 .03 0 .04.04 0 0 1 .03.03l.25.96c.02.06.05.11.1.15l.78.73c.42.46.7.73.84.81.23.14.46.13.71-.04.09.18.11.38.07.58 0 .03-.02.06-.05.08a.15.15 0 0 1-.18 0 .16.16 0 0 1-.06-.07c-.02-.07 0-.14.05-.22l.01.21c0 .02.01.03.03.04a.07.07 0 0 0 .08.01c.02 0 .03-.02.03-.03.07-.18.05-.28-.07-.3-.13-.11-.31-.12-.55-.03a2 2 0 0 1-.96-.83.75.75 0 0 0-.3-.26 2.07 2.07 0 0 1-.86-.78.29.29 0 0 0-.17-.12c-.53-.14-.75-.54-1.17-.86 0-.1.04-.18.1-.22.05-.03.1-.02.15.03a.4.4 0 0 1 .1.15Z" fill="#4C4D46"/><path d="M46.58 26.74a.1.1 0 0 0 .1-.1.1.1 0 0 0-.1-.11.1.1 0 0 0-.1.1c0 .07.04.11.1.11Z" fill="#AB7F70"/><path d="M46.36 27c.04-.1.02-.22-.05-.24-.06-.02-.14.05-.18.17-.04.11-.01.22.05.25.07.02.15-.06.18-.17Z" fill="#DDA2A2"/><path d="m47.66 27.83-.15.05c-.1-.17-.23-.3-.4-.4-.09-.1-.18-.14-.27-.11a.1.1 0 0 1-.07 0 .1.1 0 0 1-.05-.06c-.01-.04 0-.09.02-.15a.12.12 0 0 1 .05-.06.12.12 0 0 1 .09 0c.35.1.61.35.78.73ZM45.2 28.1c0-.08-.03-.12-.09-.13l.24-.51a.3.3 0 0 1 .2-.17l.1-.03h.04l.04.02a.07.07 0 0 1 0 .08c-.12.29-.3.53-.54.75Z" fill="#AB7F70"/><path d="M44.78 27.33h.06l.03.01.02.03.02.11a.95.95 0 0 0-.22.29c-.04.07-.1.1-.2.07-.08-.15-.1-.26-.04-.32.06-.06.17-.12.33-.2Z" fill="#4C4D46"/><path d="M45.7 29.03v.02l-.04.03a.09.09 0 0 1-.08-.01.09.09 0 0 1-.03-.03c-.13-.25-.13-.53 0-.85.03-.05.08-.1.13-.12.2-.08.33-.26.4-.54a.14.14 0 0 1 .07-.09.13.13 0 0 1 .12.01l.1.09c.01.03 0 .07-.05.1-.2.21-.73.77-.58 1.15a.27.27 0 0 1-.03.24Z" fill="#AB7F70"/><path d="m47.51 27.88-.44 1.42c.1.1.11.3.05.62l-.04-.02h-.03l-.01.02a.3.3 0 0 0-.02.09c-.14-.2-.28-.22-.4-.08-.3-.46-.26-.87.13-1.23a.79.79 0 0 0 .23-.87c0-.08.05-.2.13-.34.17.09.3.22.4.39Z" fill="#DDA2A2"/><path d="M47.66 27.83c.11.18.1.3-.02.4a.19.19 0 0 0-.06.06l-.5 1.01.43-1.42.15-.05ZM46.98 27.83c.11.34.03.63-.23.87-.39.36-.43.77-.13 1.23l-.08.35a.1.1 0 0 1-.03.04.09.09 0 0 1-.13 0 .55.55 0 0 0-.44-.2.12.12 0 0 0-.1.05.13.13 0 0 0-.02.11c.05.28.01.6-.12.94l-.05.05h-.06l-.06-.03-.02-.01v-.02a.05.05 0 0 1 0-.04c.14-.2.15-.4 0-.57.07-.18.1-.34.1-.5l-.02-.03-.02-.01a.05.05 0 0 0-.05 0c-.13.12-.25.3-.35.58l.11 1.14a.07.07 0 0 1-.02.06.07.07 0 0 1-.06.01.3.3 0 0 0-.05 0c-.03-.01-.05 0-.08.01a.12.12 0 0 0-.05.07.82.82 0 0 0-.02.32c0 .03 0 .06-.02.08a.13.13 0 0 1-.06.06.6.6 0 0 1-.45-.02.14.14 0 0 1-.06-.06.15.15 0 0 1 0-.16.13.13 0 0 1 .08-.05c.37-.1.56-.36.57-.75a.2.2 0 0 0-.03-.11.2.2 0 0 0-.09-.08.18.18 0 0 0-.11 0 .19.19 0 0 0-.1.06.4.4 0 0 1-.17.12.1.1 0 0 0-.07.07.12.12 0 0 0 .02.1l.02.03.04.08c0 .03 0 .05-.02.08-.05.11-.14.14-.28.08-.29-.1-.4-.25-.36-.44 0-.02 0-.04.02-.05a.13.13 0 0 1 .04-.04l.2-.1a.17.17 0 0 0 .07-.07.56.56 0 0 1 .35-.3.1.1 0 0 0 .06-.06.1.1 0 0 0 0-.08l-.07-.13.95-.63a.2.2 0 0 0 .08-.14c.04-.2 0-.3-.1-.3.24-.1.42-.1.55.01l-.08.08c-.05.08-.07.15-.05.22.01.03.03.06.06.08a.14.14 0 0 0 .18 0 .16.16 0 0 0 .05-.1c.04-.2.02-.39-.07-.57l.83-1.33Z" fill="#2B271E"/><path d="M45.11 27.97c.06 0 .09.05.08.14-.03.12-.16.18-.37.16a.13.13 0 0 1-.07-.03.14.14 0 0 1-.04-.06.14.14 0 0 1 .03-.14c.07-.08.2-.1.37-.07Z" fill="#4C4D46"/><path d="m47.75 28.69.06-.06a.05.05 0 0 1 .04-.02l.02.01.02.02c.16.35.23 1.28-.39 1.2a.09.09 0 0 1-.05-.03.1.1 0 0 1 0-.12.09.09 0 0 1 .04-.03c.4-.12.48-.42.25-.9v-.04l.01-.03Z" fill="#2B271E"/><path d="m45.98 29.53.08-.08c.12.03.14.13.07.3 0 .02-.01.03-.03.04a.07.07 0 0 1-.08 0 .08.08 0 0 1-.03-.05.63.63 0 0 1 0-.2Z" fill="#DDA2A2"/><path d="M47.12 29.92c.07.12.1.22.08.3l-.02.02a.05.05 0 0 1-.06.01.06.06 0 0 1-.03-.02.57.57 0 0 1-.07-.22.3.3 0 0 1 .02-.09l.01-.02h.03l.04.02Z" fill="#4C4D46"/><path d="M45.52 30.6c-.05-.05-.17-.04-.35.04.1-.27.22-.46.35-.58a.05.05 0 0 1 .07.01l.01.03c0 .16-.02.32-.08.5ZM47.78 30.34a.3.3 0 0 0-.07-.1c.01-.04.03-.07.05-.09.03-.02.05 0 .06.03.02.06 0 .11-.04.16Z" fill="#DDA2A2"/><path d="M47.71 30.24a.3.3 0 0 1 .07.1.75.75 0 0 1-.18.3.42.42 0 0 0-.1.17c-.1.39-.3.68-.59.86-.42.27-.63.68-1.06.97a.12.12 0 0 1-.16-.03c-.16-.19-.26-.4-.31-.6a.09.09 0 0 1 .06-.1l.04-.02a.07.07 0 0 1 .06 0 .08.08 0 0 1 .04.05l.08.33.05.08a.16.16 0 0 0 .16.04l.07-.04.63-.67.03-.02c.37-.18.65-.47.86-.87a.15.15 0 0 0 .01-.1l-.05-.2v-.09a.15.15 0 0 1 .07-.07.52.52 0 0 1 .22-.09Z" fill="#2B271E"/><path d="m44.58 30.5.07.14a.1.1 0 0 1 0 .08.1.1 0 0 1-.06.06.56.56 0 0 0-.35.3.17.17 0 0 1-.08.07l-.19.1a.13.13 0 0 0-.04.04.14.14 0 0 0-.02.05c-.05.19.07.34.36.44-.1.2-.09.43.05.7a.2.2 0 0 1-.06 0 .15.15 0 0 1-.09-.04.16.16 0 0 1-.04-.1c0-.15-.05-.25-.14-.32a.27.27 0 0 1-.1-.18c-.04-.27-.2-.44-.47-.53a.05.05 0 0 1-.04-.05c0-.1.1-.14.3-.12.24-.03.38-.14.45-.33.17-.16.32-.26.45-.3Z" fill="#DDA2A2"/><path d="M46.89 30.6a.1.1 0 0 1 .1.05.12.12 0 0 1 .02.1l-.06.15a.17.17 0 0 1-.09.1.16.16 0 0 1-.12 0c-.16-.07-.27.03-.33.3a.1.1 0 0 1-.02.04l-.03.03a.08.08 0 0 1-.07 0l-.05-.02a.08.08 0 0 1-.05-.04v-.07c.13-.36.36-.58.7-.64ZM44.13 30.8c-.07.2-.21.31-.44.34-.1-.02-.16-.07-.18-.14.2-.33.4-.39.62-.2Z" fill="#2B271E"/><path d="M43.51 31c.02.07.08.12.18.14-.21-.02-.31.02-.3.12a.05.05 0 0 0 .03.05c.27.09.43.26.46.54a.27.27 0 0 0 .1.17c.1.07.15.17.16.32 0 .04.01.07.03.1.03.03.06.04.1.05h.05c.19.33.6.21.83.1a.1.1 0 0 1 .08 0 .1.1 0 0 1 .06.04c.07.11.09.24.03.39a.13.13 0 0 1-.06.07.12.12 0 0 1-.09 0 .64.64 0 0 0-.36.02.19.19 0 0 0-.12.13c-.06.2-.1.33-.14.39-.1.16-.22.17-.37.03.03-.14.1-.21.2-.23a.1.1 0 0 0 .08-.05.49.49 0 0 0 .09-.34c-.02-.11-.08-.12-.2-.05-.08.06-.11.15-.09.28v.04l-.02.03h-.08c-.03 0-.06-.03-.08-.09-.06-.16-.2-.35-.4-.56a.25.25 0 0 0-.19-.08c-.04 0-.17-.04-.4-.14a.09.09 0 0 1-.05-.08v-.08a.08.08 0 0 1 .03-.06l.03-.01h.03c.15.03.29.03.43-.02a.18.18 0 0 0 .08-.05.2.2 0 0 0-.01-.27c-.24-.22-.48-.3-.74-.28-.01.07-.04.04-.09-.1.16-.4.43-.3.71-.52Z" fill="#B53A3B"/><path d="M45.99 31.51c-.09-.03-.17 0-.2.06 0 .07.05.14.13.16.09.03.17 0 .19-.06.02-.06-.04-.13-.12-.16Z" fill="#2B271E"/><path d="M42.8 31.53c.05.13.08.16.09.1-.03.41-.13.58-.3.51-.06-.11-.03-.21.07-.3a.2.2 0 0 0 .06-.08l.08-.23Z" fill="#DDA2A2"/><path d="M42.12 32.22c.01.1 0 .18-.02.23-.07.12-.19.15-.35.1.04-.3.18-.53.4-.69a.04.04 0 0 1 .05 0 .05.05 0 0 1 .02.05c-.01.1-.05.2-.1.31Z" fill="#2B271E"/><path d="m42.54 32.44.08-.15c.12 0 .18.08.19.24 0 .04 0 .08-.03.1a.16.16 0 0 1-.08.07.15.15 0 0 1-.1 0 .16.16 0 0 1-.08-.07c-.02-.03-.01-.1.02-.2Z" fill="#AB7F70"/><path d="M44.08 33.66c-.2.05-.31.2-.35.45a.1.1 0 0 1-.04.07.1.1 0 0 1-.09.02c-.05-.02-.08-.08-.07-.17a.2.2 0 0 0-.03-.12.18.18 0 0 0-.09-.07.14.14 0 0 0-.1 0 .14.14 0 0 0-.07.07c-.02.05-.02.12 0 .22v.08c-.02.1-.08.14-.17.14h-.03a.07.07 0 0 0-.02.03.07.07 0 0 0-.01.06c0 .04 0 .12-.03.26 0 .03-.02.05-.04.07a.12.12 0 0 1-.07.03.1.1 0 0 1-.11-.08.41.41 0 0 0-.01-.06h-.02a.05.05 0 0 0-.05 0l-.01.02-.12.2-.03.03h-.04a.07.07 0 0 1-.04-.01.07.07 0 0 1-.02-.04c-.04-.3-.18-.47-.4-.5a.11.11 0 0 1-.08-.05.13.13 0 0 1-.02-.1v-.03a.09.09 0 0 0-.05-.07h-.08l-.05.12v.05c0 .02.01.03.03.04.12.08.24.2.35.4a.16.16 0 0 1-.05.2.15.15 0 0 1-.07.03.77.77 0 0 0-.27.07.18.18 0 0 0-.1.12.63.63 0 0 1-.1.28.09.09 0 0 1-.06.03.08.08 0 0 1-.07-.02l-.25-.27a.2.2 0 0 1-.06-.14.66.66 0 0 0-.13-.43.1.1 0 0 1 0-.11l.02-.03a1 1 0 0 0 .32-.43.36.36 0 0 1 .1-.12c.3-.26.57-.29.79-.09l.05.1.17.46c.01.04.04.07.08.1a.17.17 0 0 0 .21-.05.18.18 0 0 0 .04-.11v-.33a.17.17 0 0 0-.05-.12l-.63-.57a.73.73 0 0 0-.01-.38l.08-.18c0-.02.02-.03.03-.04l.05-.01.05.01a.1.1 0 0 1 .03.04c.02.04.02.15 0 .34a.26.26 0 0 0 .05.2.24.24 0 0 0 .2.08c.4-.02.6-.24.6-.66 0-.02 0-.04.02-.05a.08.08 0 0 1 .05-.03h.05l.04.05c.18.42.44.75.78 1Z" fill="#DC1912"/><path d="M42.05 32.91c.04.12.04.25 0 .38a.74.74 0 0 0-.45-.02.07.07 0 0 1-.08-.04v-.04c0-.1.07-.19.2-.28.12.02.23.02.33 0Z" fill="#AB7F70"/><path d="M40.59 34.68h-.13a.1.1 0 0 0-.09.1l.02.57c0 .05.04.1.09.1h.12a.1.1 0 0 0 .1-.1l-.02-.58a.1.1 0 0 0-.1-.09Z" fill="#DC1912"/><path d="m40.24 35.5-.1.1-.02.01h-.02c-.04-.01-.05-.04-.05-.09 0-.02.01-.03.03-.04l.12-.05h.03l.02.02a.04.04 0 0 1-.01.05Z" fill="#DDA2A2"/><path d="M40.95 35.91c.03-.11 0-.23-.06-.25-.07-.02-.16.06-.19.17-.03.12 0 .23.07.25.07.02.15-.05.18-.17ZM40.22 36.05c0-.11-.08-.2-.16-.19-.09 0-.15.1-.14.21.01.12.08.2.16.2.09-.01.15-.1.14-.22Z" fill="#DC1912"/><path d="M39 37.97c-.03-.33.1-.76.27-1.4.04-.13.1-.2.2-.2.03 0 .06.02.08.04.03.02.04.05.05.09 0 .03 0 .07-.02.1a.23.23 0 0 1-.06.1c-.13.11-.24.24-.32.38a.34.34 0 0 0-.05.14l-.08.75-.01.02-.02.01h-.02l-.01-.03Z" fill="#B53A3B"/><path d="M43.27 24.68a.67.67 0 0 0-.14.12c-.06.07-.1.1-.14.09-.05 0-.09-.03-.1-.07a.1.1 0 0 1 0-.05.1.1 0 0 1 .01-.05 1.14 1.14 0 0 1 .56-.37h.04c.02 0 .03.02.05.03.02.03.03.07.01.12 0 .04-.05.07-.13.1a.63.63 0 0 0-.16.08Z" fill="#DDA2A2"/><path d="M43.97 25.83a.1.1 0 0 1 .03-.07.1.1 0 0 1 .07-.03h.06a.06.06 0 0 1 .05.04v.02c0 .23.01.4.05.52.1.27 0 .44-.07.78a.1.1 0 0 1-.05.07.09.09 0 0 1-.09-.01l-.03-.03a.04.04 0 0 1-.02-.04v-1.25Z" fill="#4C4D46"/><path d="M43.27 33.55a.97.97 0 0 1-.1-.19.1.1 0 0 1 .03-.06.1.1 0 0 1 .06-.03.1.1 0 0 1 .06 0 .1.1 0 0 1 .05.05c.03.07.04.13.02.18l-.02.04a.1.1 0 0 1-.04.03h-.04a.05.05 0 0 1-.02-.02ZM43 33.74c0 .01 0 .03-.02.05l-.03.03h-.05a.07.07 0 0 1-.04-.03.54.54 0 0 1-.08-.28v-.04l.03-.03a.06.06 0 0 1 .07 0c.06.04.1.14.11.3ZM41.55 34.6c.03-.03.04-.08.02-.11-.03-.03-.08-.02-.12.02-.03.04-.04.09-.02.12.03.02.08.02.12-.02Z" fill="#DDA2A2"/><path d="m9.1 24 3.9 5.39v-5.2l2-.19v8h-1.1L10 26.6V32H8v-8h1.1ZM19.45 24c2.51 0 3.41 1.23 3.55 1.85V32h-2v-3h-3v3h-2v-6.86c.05-.22 1.22-1.14 3.45-1.14Zm-.15.84c-.94 0-1.2.2-1.3.3V28h3v-2.15c-.1-.4-.54-1.01-1.7-1.02ZM40 29.72C40 31.8 38.43 32 36.5 32s-3.5-.2-3.5-2.28V24l2 .19v5.42c0 1.16.43 1.46 1.5 1.46s1.5-.3 1.5-1.46V24l2 .19v5.53Z" fill="#030303"/></svg>