<!-- by TradingView --><svg width="56" height="56" viewBox="0 0 56 56" xmlns="http://www.w3.org/2000/svg"><path fill="#F0F3FA" d="M0 0h56v56H0z"/><path d="M31.94 12C36.9 12 45 16.62 45 27.08 45 39.64 34.66 44 28 44s-17-4.36-17-16.92C11 16.62 19.09 12 24.06 12c2.05 0 3.48.59 3.94.88.46-.3 1.9-.88 3.94-.88Zm.41 4.14c.95.8 2.65 3.21 2.65 6.53C35 28.1 32.07 30 28 30s-7-1.9-7-7.33c0-3.32 1.7-5.73 2.65-6.53-2.81.28-8.65 2.84-8.65 10.94C15 37.21 24.46 40 28.06 40 31.65 40 41 37.2 41 27.08c0-8.1-5.84-10.66-8.65-10.94ZM28 17c-1.1.9-3 3.08-3 5.53 0 3.02 2.04 3.47 3 3.47s3-.45 3-3.47c0-2.45-1.9-4.62-3-5.53Z" fill="#0072BC"/></svg>