<!-- by TradingView --><svg width="56" height="56" viewBox="0 0 56 56" xmlns="http://www.w3.org/2000/svg"><path fill="#F0F3FA" d="M0 0h56v56H0z"/><path d="m32.06 12.6.87.3a.02.02 0 0 1 .02.02v.01h.02l-.01.01h-.03a16.88 16.88 0 0 0-7.98.79c-1.37.47-2.6 1.56-3.7 2.6a.53.53 0 0 1-.17.1c-1.32.52-3.12 2.23-3.95 3.27l-.15.15c-.56.42-.92.76-1.06 1.03-.5.93-.87 1.95-1.12 3.04-.03.13-.1.73-.2 1.8-.07.64-.17 1.23-.3 1.77-.34 1.48-.2 2.7.45 3.69-.08 1.89.06 3.94.4 6.16a11.1 11.1 0 0 1-2.54-4.83c-1.41-5.62-.37-10.54 3.13-14.77.43-.5.8-.9 1.12-1.19.57-.5.98-1 1.64-1.44 1.24-.82 1.85-1.32 2.93-1.7.85-.3 1.9-.81 2.96-1 1.47-.27 2.71-.4 3.73-.41 1.22 0 2.53.2 3.94.6Z" fill="#A8AFB4"/><path d="M29.81 16.25c1.29-.41 2.12-.67 2.5-.77.1-.02.38-.04.86-.07.03 0 .07-.02.1-.04a.16.16 0 0 0 .04-.09.11.11 0 0 0-.1-.14c-.46 0-.92-.1-1.39-.04-.73.1-1.58-.01-2.47.1-1.26.17-2.52.54-3.8 1.12a18.03 18.03 0 0 0-10.8 14.86c-6.43-9.75 9.8-21.61 18.18-18.23h.03v-.01l-.01-.02v-.01h-.02l-.87-.3c.97.23 1.93.53 2.87.92a2.24 2.24 0 0 1 .83.6v.03l-.01.02-.03.02c-.35.09-.57.2-.67.33a.19.19 0 0 0-.04.1c0 .04.01.08.03.1.36.55-.3.78-.67.82-1.5.19-3.01.42-4.56.7Z" fill="#E0E4E7"/><path d="M29.81 16.25a15.66 15.66 0 0 0-7.49 5.58 18.36 18.36 0 0 0-2.74 15.7c.1.37.32.72.64 1.05.64.66 1.19 1.18 1.63 1.56a12.8 12.8 0 0 0 12.92 2.16.08.08 0 0 1 .06.06v.04l-.03.08c-.64.4-1.32.69-2.04.9-.93.27-1.88.45-2.85.54-5.6.5-10.25-1.27-13.98-5.3a4.63 4.63 0 0 1-.77-1.28 31.75 31.75 0 0 1-.4-6.16 18.03 18.03 0 0 1 10.8-14.85c1.27-.59 2.53-.96 3.79-1.12.89-.12 1.74-.02 2.47-.11.47-.06.93.04 1.38.04a.11.11 0 0 1 .11.09.1.1 0 0 1 0 .05c0 .03-.02.07-.05.09a.15.15 0 0 1-.09.04c-.48.03-.77.05-.85.07-.39.1-1.22.36-2.51.77Z" fill="#2A3676"/><path d="m34.8 42.48.03-.08a.08.08 0 0 0-.02-.08.08.08 0 0 0-.08-.02 12.8 12.8 0 0 1-12.88-2.16c5.1 2.07 10 2 14.56-1.49 3.5-2.68 5.3-7.18 5.13-11.48-.01-.37-.19-1.56-.52-3.58-.2-1.2-.36-2.39-.48-3.59-.13-.42-.33-1-.62-1.72-.07-.2-.1-.42-.06-.66a.08.08 0 0 1 .1-.07c.27.06.9.87 1.25 1.32.02.01.08.11.19.29a17.7 17.7 0 0 1 2.4 6.16c.25 1.7.27 3.48.04 5.34-.07.51-.18 1-.33 1.45-.22.65-.33 1.26-.6 1.9a16.34 16.34 0 0 1-8.1 8.47Z" fill="#A8AFB4"/><path d="M21.85 40.14c-.44-.38-.99-.9-1.63-1.56a2.52 2.52 0 0 1-.64-1.06 18.36 18.36 0 0 1 2.75-15.69c-.17.6-.53 1.3-1.1 2.1-.1.15-.28.48-.55 1a.56.56 0 0 0-.06.2c-.33 3.78.31 7.53 4.07 9.1 7.68 3.19 14.29-6.63 15.82-12.93.02-.05.02-.1.02-.15V20c.13 1.2.3 2.4.5 3.59.32 2.02.5 3.21.5 3.58.18 4.3-1.62 8.8-5.12 11.48-4.56 3.5-9.45 3.56-14.56 1.5Z" fill="#E0E4E7"/></svg>