<!-- by TradingView --><svg width="56" height="56" viewBox="0 0 56 56" xmlns="http://www.w3.org/2000/svg"><path fill="url(#a)" d="M0 0h56v56H0z"/><path d="M22.77 14a9.22 9.22 0 0 1 8.36 0c2.31 1.34 2.33 3.5.03 4.84L25.4 22.2c-1.07.62-1.41 1.43-1.41 2.25 0 .82.54 1.63 1.6 2.26a8.45 8.45 0 0 0 7.72 0L43 21.02v15.37l-9.68 5.68a8.44 8.44 0 0 1-7.71 0c-1.07-.62-1.6-1.44-1.61-2.25V28.89c-.37.14-.9.3-1.23.48L13 35.05V19.68L22.77 14Z" fill="#fff"/><defs><linearGradient id="a" x1="10.42" y1="9.71" x2="68.15" y2="76.02" gradientUnits="userSpaceOnUse"><stop stop-color="#1A1E21"/><stop offset="1" stop-color="#06060A"/></linearGradient></defs></svg>