<!-- by TradingView --><svg width="56" height="56" viewBox="0 0 56 56" xmlns="http://www.w3.org/2000/svg"><path fill="#F0F3FA" d="M0 0h56v56H0z"/><path fill="#535E3E" d="M7 33h43v4H7z"/><path d="M13.5 19a6.5 6.5 0 1 1 0 13 6.5 6.5 0 0 1 0-13Zm0 3a3.5 3.5 0 1 0 0 7 3.5 3.5 0 0 0 0-7ZM24 23a5 5 0 1 1 0 8v1h-3V19h3v4Zm2.5 1.5a2.5 2.5 0 1 0 0 5 2.5 2.5 0 0 0 0-5ZM47 31a5 5 0 1 1 0-8v-1h3v10h-3v-1Zm-2.5-1.5a2.5 2.5 0 1 0 0-5 2.5 2.5 0 0 0 0 5ZM36 22.76a3.6 3.6 0 0 1 2.25-.76c.84 0 1.52.36 1.75.54l-1.37 2.14a1.3 1.3 0 0 0-.96-.43c-.73 0-1.31.51-1.67.97V32h-3V22h3v.76Z" fill="#1D1D1B"/></svg>