<!-- by TradingView --><svg xmlns="http://www.w3.org/2000/svg" width="56" height="56" viewBox="0 0 56 56"><path fill="#F0F3FA" d="M0 0h56v56H0z"/><path d="M44 29c-.63 8.27-7.85 15-16.25 15C19.2 44 12 36.47 12 28c0-1.34.14-2.69.46-4 .56 9.62 7.57 15 15.3 15 5.82 0 12.07-3.24 16.24-10Z" fill="#007AEB"/><path d="M27.3 12h.74c-4.2 1.72-6.04 5.76-6.04 9.88 0 6.26 4.5 11.87 13 11.42a12.42 12.42 0 0 1-7.7 2.7C20.87 36 15 30.75 15 24.19 15 17.45 20.7 12 27.3 12Z" fill="#00C900"/><path d="M33.5 29a7.5 7.5 0 0 0 7.36-8.95 4 4 0 1 1-3.6-5.04 7.5 7.5 0 1 0-3.76 14Z" fill="#FF8100"/></svg>