<!-- by TradingView --><svg width="56" height="56" viewBox="0 0 56 56" xmlns="http://www.w3.org/2000/svg"><path fill="#F0F3FA" d="M0 0h56v56H0z"/><path d="M26.3 12.09c-1.1.12-2.07.32-3.28.73A15.78 15.78 0 0 0 15 18.64c-.78 1.1-.77 1.05-.19 1.16 9.75 1.97 13.85 3.4 17.44 6.08 1.95 1.45 2.79 2.94 2.5 4.43a5.49 5.49 0 0 1-.85 1.98c-.47.67-.6 1.07-.6 1.72 0 .51.04.7.28 1.2.16.34.52.9.8 1.25.87 1.06 2.62 2.7 3.67 3.42l.4.27.7-.66a16.03 16.03 0 0 0 3.3-18.38 16.05 16.05 0 0 0-16.15-9.02Z" fill="#790315"/><path d="M13.44 21.32a16.29 16.29 0 0 0-.93 10.76 16.1 16.1 0 0 0 10.4 11.1c1.57.52 3.8.88 5.04.81l.53-.02-.6-1.08a25 25 0 0 1-2.53-6.19c-.2-.98-.14-2.07.15-2.8.32-.77.67-1.32 1.5-2.3.9-1.07 1.32-1.9 1.38-2.7.06-.86-.07-1.12-.92-1.98-1.64-1.63-4.69-3.26-8.89-4.75-.8-.29-3.89-1.25-4.7-1.47-.1-.03-.2.13-.43.62Z" fill="#790315"/></svg>