<!-- by TradingView --><svg width="56" height="56" viewBox="0 0 56 56" xmlns="http://www.w3.org/2000/svg"><path fill="#181B1E" d="M0 0h56v56H0z"/><path d="M28.09 12c2.35 0 4.32 5 4.91 11.8-.7-6.47-2.92-11.2-4.7-11.2-2.43 0-4.4 6.9-4.4 15.4s1.97 15.4 4.4 15.4c1.85 0 3.89-4.4 4.63-10.5-.65 6.44-2.57 11.1-4.84 11.1C25.28 44 23 36.84 23 28s2.28-16 5.09-16Z" fill="url(#a)"/><path d="M20.08 14.1c2-1.16 6.19 2.2 10.09 7.79-3.84-5.25-8.1-8.25-9.62-7.37-2.07 1.19-.3 8.13 3.96 15.5 4.25 7.37 9.37 12.37 11.44 11.18 1.6-.92 1.13-5.74-1.28-11.39 2.65 5.9 3.34 10.88 1.4 12-2.4 1.39-7.92-3.7-12.34-11.34-4.42-7.66-6.05-14.98-3.65-16.37Z" fill="url(#b)"/><path d="M14.1 35.92c-1.16-2 2.2-6.19 7.79-10.09-5.25 3.84-8.26 8.1-7.37 9.62 1.19 2.07 8.13.3 15.5-3.95 7.36-4.26 12.37-9.38 11.18-11.45-.92-1.6-5.74-1.13-11.4 1.29 5.91-2.66 10.9-3.35 12.01-1.42 1.39 2.4-3.7 7.93-11.35 12.35-7.65 4.42-14.98 6.05-16.36 3.65Z" fill="url(#c)"/><path d="M12 27.91c0-2.35 5-4.32 11.8-4.91-6.47.7-11.2 2.92-11.2 4.7 0 2.43 6.9 4.4 15.4 4.4s15.4-1.97 15.4-4.4c0-1.85-4.4-3.89-10.5-4.63 6.44.65 11.1 2.57 11.1 4.84C44 30.72 36.84 33 28 33s-16-2.28-16-5.09Z" fill="url(#d)"/><path d="M14.19 19.92c1.15-2 6.46-1.19 12.63 1.7-5.94-2.62-11.14-3.1-12.02-1.57-1.2 2.07 3.81 7.2 11.18 11.45 7.37 4.25 14.3 6.02 15.5 3.95.92-1.59-1.88-5.53-6.8-9.21 5.25 3.78 8.34 7.75 7.22 9.68-1.39 2.4-8.71.77-16.37-3.65-7.65-4.42-12.73-9.95-11.34-12.35Z" fill="url(#e)"/><path d="M19.92 41.81c-2-1.15-1.19-6.46 1.7-12.63-2.62 5.94-3.1 11.14-1.57 12.02 2.07 1.19 7.2-3.81 11.45-11.18 4.25-7.37 6.02-14.31 3.95-15.5-1.59-.92-5.53 1.88-9.21 6.8 3.78-5.25 7.75-8.34 9.68-7.22 2.4 1.39.77 8.71-3.65 16.37-4.42 7.65-9.95 12.73-12.35 11.34Z" fill="url(#f)"/><circle cx="24" cy="29" r="2" fill="#750200"/><circle cx="24.31" cy="28.64" r="1.58" fill="#EB1C21"/><defs><linearGradient id="a" x1="28" y1="12" x2="28" y2="44" gradientUnits="userSpaceOnUse"><stop offset=".3" stop-color="#D6B05F"/><stop offset="1" stop-color="#6F6C63"/></linearGradient><linearGradient id="b" x1="20" y1="14.14" x2="36" y2="41.86" gradientUnits="userSpaceOnUse"><stop offset=".3" stop-color="#D6B05F"/><stop offset="1" stop-color="#6F6C63"/></linearGradient><linearGradient id="c" x1="14.14" y1="36" x2="41.86" y2="20" gradientUnits="userSpaceOnUse"><stop offset=".3" stop-color="#D6B05F"/><stop offset="1" stop-color="#6F6C63"/></linearGradient><linearGradient id="d" x1="12" y1="28" x2="44" y2="28" gradientUnits="userSpaceOnUse"><stop offset=".3" stop-color="#D6B05F"/><stop offset="1" stop-color="#6F6C63"/></linearGradient><linearGradient id="e" x1="14.14" y1="20" x2="41.86" y2="36" gradientUnits="userSpaceOnUse"><stop offset=".3" stop-color="#D6B05F"/><stop offset="1" stop-color="#6F6C63"/></linearGradient><linearGradient id="f" x1="20" y1="41.86" x2="36" y2="14.14" gradientUnits="userSpaceOnUse"><stop offset=".3" stop-color="#D6B05F"/><stop offset="1" stop-color="#6F6C63"/></linearGradient></defs></svg>