<!-- by TradingView --><svg width="56" height="56" viewBox="0 0 56 56" xmlns="http://www.w3.org/2000/svg"><path fill="#F0F3FA" d="M0 0h56v56H0z"/><path d="M41.52 33.22a1.56 1.56 0 0 0-.18-.25 4.1 4.1 0 0 0-.64.77l-.1.11.24.08a.87.87 0 0 1 .32.18l.14.16c.04.04.07.1.09.17.02.13-.07.26-.12.36a4.74 4.74 0 0 1-.82 1.16l-.36.4a13.78 13.78 0 0 1-4.06 3.01 24.13 24.13 0 0 1-8.87 2.53c-.62.05-1.23.1-1.85.11-.73 0-1.47-.06-2.2-.16l-.63-.09a8.42 8.42 0 0 1-2.95-1.02.57.57 0 0 1-.24-.18c-.11-.2.03-.43.1-.61 0-.03.14-.46.12-.47-.3-.16-.64-.21-.97-.28-.03.97.57 1.74 1.26 2.34.57.5 1.35.76 2.06.96a13.25 13.25 0 0 0 4.09.5l.45-.02.86-.06c2.71-.25 5.35-.87 7.84-2.04 2.19-1.01 4.22-2.23 5.75-4.2.53-.7.82-1.45.84-2.32 0-.38 0-.79-.17-1.14Z" fill="#FFC60A"/><path d="m42.41 26.48-1.3 1.57c.13.22.34.41.5.6l.11.11c.29.34.3.38.07.75 0 .03-.06.1-.08.12l-.07.12-.17.25-.26.39a11.08 11.08 0 0 1-1.7 1.88l-.15.15a18.72 18.72 0 0 1-2.77 2.04 24.9 24.9 0 0 1-6.71 2.8c-1.59.4-3.2.67-4.83.78a18.88 18.88 0 0 1-5.98-.56l-.14-.03a9.69 9.69 0 0 1-1.8-.67c-.3-.15-.57-.32-.85-.48-.14-.08-.19-.18-.13-.34.12-.36.22-.73.3-1.1-.64-.2-1.27-.44-1.88-.7a.55.55 0 0 0-.08.27c-.05.44.08.85.23 1.25a4.98 4.98 0 0 0 2.1 2.72 10.99 10.99 0 0 0 4.57 1.52c.61.07 1.24.1 1.86.12h1.48c2.34-.02 4.6-.49 6.83-1.15a24.6 24.6 0 0 0 7.22-3.48 21.17 21.17 0 0 0 1.45-1.2l.36-.35a17.34 17.34 0 0 0 1.12-1.29c.37-.47.69-.98.94-1.52.21-.46.34-.95.38-1.45.08-1.1.12-2.2-.62-3.11Z" fill="#8D3847"/><path d="M32.78 30.95a34.62 34.62 0 0 0 1.63-.79 25.38 25.38 0 0 0 4.28-2.84 16.32 16.32 0 0 0 3.72-4.34c.14-.25.25-.51.38-.76.08-.15.05-.27-.06-.38a2.19 2.19 0 0 0-1.13-.55 9.19 9.19 0 0 0-3.11-.11 29.79 29.79 0 0 0-6.89 1.84c-1.4.5-2.77 1.1-4.13 1.7l-.45.18c-.2.08-.29 0-.36-.19-.14-.4-.23-.8-.34-1.2-.1-.43-.2-.85-.32-1.28-.06-.2 0-.3.17-.38.63-.29 1.29-.53 1.94-.78 2.04-.76 4.11-1.4 6.22-1.9 1.48-.37 2.98-.6 4.5-.68 1.25-.07 2.46.1 3.6.65.35.16.66.39.93.66.5.51.61 1.17.64 1.85a7.36 7.36 0 0 1-1.42 4.54l-.18.3-.3.36-.28.36c-.48.6-1 1.17-1.56 1.7-.16.16-.33.3-.5.45-.4.35-.81.69-1.24 1l-.36.27-.48.34c-.57.4-1.19.7-1.77 1.08l-.24.12a28.77 28.77 0 0 1-4.36 1.88c-1.72.57-3.48 1-5.27 1.28a24.48 24.48 0 0 1-5.94.22 19.38 19.38 0 0 1-4.44-.96c-.73-.28-1.47-.58-2.15-.99a7.16 7.16 0 0 1-2.1-1.84 7.54 7.54 0 0 1-1.27-2.58 6.1 6.1 0 0 1 .19-3.22 11.8 11.8 0 0 1 2.77-4.56 20 20 0 0 1 4.45-3.5 27.36 27.36 0 0 1 6.81-2.84c.37-.1.37-.1.5.26.3.93.54 1.88.79 2.83.1.4.07.44-.33.55a26.5 26.5 0 0 0-6.4 2.7 17.82 17.82 0 0 0-5.14 4.37A7.74 7.74 0 0 0 12 30.12l-.01.16c0 .2.04.31.22.44a14 14 0 0 0 5.22 2.1c1.77.4 3.58.48 5.4.4.71-.03 1.43-.05 2.14-.19l.27-.01c1.37-.13 2.71-.46 4.03-.82 1.2-.33 2.36-.75 3.5-1.25Z" fill="#761513"/></svg>