<!-- by TradingView --><svg width="56" height="56" viewBox="0 0 56 56" xmlns="http://www.w3.org/2000/svg"><path fill="#231F20" d="M0 0h56v56H0z"/><path d="M44.97 27.86a.1.1 0 0 1 .03.07.1.1 0 0 1-.03.07L28 44.97a.1.1 0 0 1-.07.03.1.1 0 0 1-.07-.03L11.03 28.14a.1.1 0 0 1-.03-.07.1.1 0 0 1 .03-.07L28 11.03a.1.1 0 0 1 .07-.03.1.1 0 0 1 .07.03l16.83 16.83Z" fill="#3DAEE2"/><path d="m31.26 31.28 1.95 1.96a.12.12 0 0 1 0 .17l-.88.88a.12.12 0 0 1-.16 0l-3.01-3.01a.12.12 0 0 0-.17 0l-3.06 3.05a.12.12 0 0 0 0 .17l1.95 1.96a.12.12 0 0 0 .17 0l.9-.9a.12.12 0 0 0 0-.17l-.88-.88a.12.12 0 0 1 0-.17l.93-.92a.12.12 0 0 1 .17 0l3 3a.12.12 0 0 0 .17 0l3.02-3a.12.12 0 0 0 0-.18l-1.97-1.96a.12.12 0 0 1 0-.17l1.98-1.97a.12.12 0 0 1 .16 0l1.96 1.95a.12.12 0 0 1 0 .17l-.9.9a.12.12 0 0 0 0 .17l.87.87a.12.12 0 0 1 0 .17L28 42.84a.12.12 0 0 1-.17 0l-.86-.87a.12.12 0 0 1 0-.17l4.1-4.12a.12.12 0 0 0 0-.17l-.9-.9a.12.12 0 0 0-.16 0l-3.03 3.03a.12.12 0 0 1-.17 0l-.88-.89a.12.12 0 0 1 0-.16l.88-.89a.12.12 0 0 0 0-.17l-1.94-1.94a.12.12 0 0 0-.17 0l-.88.88a.12.12 0 0 1-.17 0l-.9-.9a.12.12 0 0 1 0-.16l3.08-3.07a.12.12 0 0 0 0-.17l-.9-.9a.12.12 0 0 0-.17 0l-4.15 4.16a.12.12 0 0 1-.17 0l-.88-.88a.12.12 0 0 1 0-.17l5.2-5.2a.12.12 0 0 1 .16 0l1.94 1.94a.12.12 0 0 0 .17 0l.89-.89a.12.12 0 0 0 0-.17l-.89-.89a.12.12 0 0 1 0-.17l5.18-5.18a.12.12 0 0 0 0-.16l-.9-.9a.12.12 0 0 0-.17 0l-5.17 5.17a.12.12 0 0 1-.17 0l-.88-.88a.12.12 0 0 0-.17 0l-4.12 4.12a.12.12 0 0 1-.17 0l-.9-.9a.12.12 0 0 1 0-.16l4.14-4.14a.12.12 0 0 0 0-.17l-3.05-3.05a.12.12 0 0 0-.17 0l-5.2 5.2a.12.12 0 0 0 0 .17l.9.9a.12.12 0 0 0 .17 0l1.97-1.97a.12.12 0 0 1 .17 0l.9.9a.12.12 0 0 1 0 .17l-1.97 1.97a.12.12 0 0 0 0 .17l1.98 1.99a.12.12 0 0 1 0 .17l-.9.9a.12.12 0 0 1-.17 0l-5.15-5.15a.12.12 0 0 1 0-.17l7.32-7.32a.12.12 0 0 1 .17 0l5.15 5.14a.12.12 0 0 0 .17 0l6.19-6.18a.12.12 0 0 0 0-.17l-4.1-4.1a.12.12 0 0 0-.18 0l-5.12 5.12a.12.12 0 0 1-.17 0l-.88-.88a.12.12 0 0 1 0-.17L28 13.18a.12.12 0 0 1 .17 0l8.3 8.3a.12.12 0 0 1 0 .18l-.94.94a.12.12 0 0 1-.17 0l-1.95-1.94a.12.12 0 0 0-.16 0l-.9.9a.12.12 0 0 0 0 .16l1.95 1.95a.12.12 0 0 1 0 .17L29.15 29a.12.12 0 0 0 0 .17l.9.9a.12.12 0 0 0 .16 0l5.15-5.15a.12.12 0 0 1 .17 0l1.94 1.95a.12.12 0 0 0 .17 0l.9-.9a.12.12 0 0 0 0-.17l-1.95-1.95a.12.12 0 0 1 0-.17l.94-.94a.12.12 0 0 1 .17 0l3.01 3.01a.12.12 0 0 1 0 .17l-.9.9a.12.12 0 0 0 0 .18l.89.89a.12.12 0 0 0 .16 0l.91-.9a.12.12 0 0 1 .17 0l.87.86a.12.12 0 0 1 0 .17L40.83 30a.12.12 0 0 1-.17 0l-.88-.87a.12.12 0 0 0-.17 0l-.9.9a.12.12 0 0 1-.17 0l-3-3.01a.12.12 0 0 0-.18 0l-4.1 4.1a.12.12 0 0 0 0 .17Z" fill="#201F22"/><path d="m29.16 18.58.86.86a.15.15 0 0 1 .04.17l-.04.05-2.94 2.94a.15.15 0 0 1-.16.03.15.15 0 0 1-.05-.03l-.85-.85a.15.15 0 0 0-.16-.04.15.15 0 0 0-.05.04l-.86.85a.15.15 0 0 1-.16.04.15.15 0 0 1-.05-.04l-.86-.86a.15.15 0 0 1 0-.21l2.94-2.94a.15.15 0 0 1 .21 0l.85.84a.15.15 0 0 0 .21 0l.86-.85a.15.15 0 0 1 .21 0ZM20.45 24.92l-.86.84a.16.16 0 0 0 0 .23l.84.86c.07.07.17.07.23 0l.86-.84a.16.16 0 0 0 0-.23l-.84-.86a.16.16 0 0 0-.23 0Z" fill="#201F22"/></svg>