<!-- by TradingView --><svg width="56" height="56" viewBox="0 0 56 56" xmlns="http://www.w3.org/2000/svg"><path fill="url(#ay1o3rgxt)" d="M0 0h56v56H0z"/><path fill-rule="evenodd" d="M16.23 24c2.16 0 2.72 1.31 2.74 2.03l-1.86.11c-.1-.65-.63-.87-.88-.9-.27-.02-.81.04-.81.48 0 .43 1.03.7 1.54.79 1.89.38 2.27 1.64 2.22 2.22v.02c-.01.3-.1 2.24-2.95 2.25-2.34.01-2.9-1.57-2.9-2.36l1.89-.11c.15.94.71 1.15 1.14 1.15.3-.01.88-.16.88-.7 0-.53-1.07-.85-1.6-.94-1.93-.56-2.08-1.68-2.07-2V26c.01-.4.06-2 2.66-2ZM11 27.5c0 1.93-1.01 3.5-3.5 3.5S4 29.43 4 27.5s1.16-3.47 3.5-3.5c2.34-.03 3.5 1.57 3.5 3.5Zm-2 0c0 1.1-.43 2-1.5 2-1.06 0-1.5-.9-1.5-2s.5-1.98 1.5-2c1.01-.02 1.5.9 1.5 2Zm2.4-2.5H13v1.62c-.01.39-.26 1.16-1.22 1.57l-.38-.72c.25-.08.74-.37.76-.85h-.76V25Zm40.41 1.74c-.01-.62-.49-1.74-2.33-1.74-2.22 0-2.26 1.37-2.28 1.71v.03c0 .28.12 1.24 1.77 1.72.46.08 1.36.35 1.36.8 0 .46-.5.6-.75.6-.36 0-.84-.18-.97-.98l-1.61.1c0 .67.48 2.02 2.48 2.02 2.42-.02 2.5-1.67 2.52-1.93v-.02c.04-.5-.29-1.57-1.9-1.9-.44-.07-1.32-.3-1.32-.68 0-.37.46-.43.7-.41a.9.9 0 0 1 .75.78l1.58-.1ZM20 25h2v2h2v-2h2v6h-2v-2.46h-2V31h-2v-6Zm23 2.3v-1h3V25h-5v6h5v-1.3h-3v-1.1h3v-1.3h-3ZM27 31l2.05-6h1.89L33 31h-1.91l-.25-1H29.2l-.23 1H27Zm2.5-2.33h1l-.52-2.07-.48 2.07ZM35.6 25H34v6h2v-2.41c.18 0 .56.1.8.57s.78 1.43 1.02 1.84H40l-.97-1.84c-.11-.21-.4-.58-.86-.77A1.72 1.72 0 0 0 37.8 25h-2.2Zm.4 1.2v1.27h.98a.64.64 0 1 0 0-1.28H36Z" fill="#fff"/><defs><linearGradient id="ay1o3rgxt" x1="10.42" y1="9.71" x2="68.15" y2="76.02" gradientUnits="userSpaceOnUse"><stop stop-color="#1A1E21"/><stop offset="1" stop-color="#06060A"/></linearGradient></defs></svg>