<!-- by TradingView --><svg xmlns="http://www.w3.org/2000/svg" width="56" height="56" viewBox="0 0 56 56"><path fill="#71D2B8" d="M0 0h56v56H0z"/><path d="M33.84 31.99a6.43 6.43 0 0 1-3.28-.92l-2.18 2.26c-.17.09-.34.17-.42.17a1.2 1.2 0 0 1-.5-.17l-2.19-2.18c-.92.5-2.1.84-3.28.84a6.56 6.56 0 1 1 5.97-9.32 6.4 6.4 0 0 1 5.88-3.78 6.56 6.56 0 0 1 0 13.1ZM44 28.04a16.1 16.1 0 0 0-3.86-10.41l1.09-2.27a.52.52 0 0 0-.09-.59c-.08-.17-.33-.25-.5-.25l-3.44.42A15.7 15.7 0 0 0 27.96 12c-3.28 0-6.47 1-9.16 2.94l-3.44-.42a.76.76 0 0 0-.59.25.72.72 0 0 0 0 .59l1.1 2.27A15.67 15.67 0 0 0 12 28.04V28.46l1.18.93c1.68 1.6 3.44 3.1 5.54 4.53 4.11 2.86 4.03 5.46 3.44 7.73l-.42 1v.09A17.1 17.1 0 0 0 27.96 44c2.18 0 4.28-.42 6.13-1.26l-.42-1.1c-.59-2.26-.67-4.86 3.44-7.72a42.25 42.25 0 0 0 5.14-4.15c.5-.46 1.75-1.32 1.75-1.73Z" fill="#fff"/><path d="m43.75 30.1-1.43 1.26a53.3 53.3 0 0 1-4.54 3.52c-3.35 2.36-3.44 4.37-3.02 6.22 0 0 .17.5.42 1.1 0 .08.09.08.09.08v-.09.09-.09a15.8 15.8 0 0 0 8.56-12.1h-.08ZM21.07 41.1c.42-1.85.34-3.86-3.02-6.22a53.34 53.34 0 0 1-4.54-3.52l-1.34-1.01c.75 5.12 3.95 9.49 8.4 11.84.33-.59.5-1.09.5-1.09ZM27.96 32.11l-1.68-1.68a7.22 7.22 0 0 0 1.68-2.18c.42.84.92 1.51 1.68 2.18l-1.68 1.68ZM24.77 26.57c-.84.67-1.77 1-2.78 1-1 0-1.93-.33-2.68-1a.65.65 0 0 0-.84.17c-.25.25-.17.59.08.84a5.69 5.69 0 0 0 6.89 0c.33-.25.33-.6.17-.84-.26-.25-.6-.34-.84-.17Zm-8.07-1.18c0-2.94 2.44-5.29 5.38-5.29a5.3 5.3 0 0 1 5.29 4.79c.08.34.08.76 0 1.1a5.36 5.36 0 0 1-10.67-.59ZM36.52 26.57c-.84.67-1.76 1-2.77 1-1 0-1.93-.33-2.68-1a.65.65 0 0 0-.84.17c-.26.25-.17.59.08.84a5.69 5.69 0 0 0 6.89 0c.33-.25.33-.6.16-.84-.25-.25-.58-.34-.84-.17Zm-2.6-6.47a5.34 5.34 0 1 1 0 10.67 5.44 5.44 0 0 1-5.37-4.79V24.9a5.44 5.44 0 0 1 5.37-4.79Z" fill="#fff"/></svg>