<!-- by TradingView --><svg width="56" height="56" viewBox="0 0 56 56" xmlns="http://www.w3.org/2000/svg"><path fill="#F0F3FA" d="M0 0h56v56H0z"/><path d="M34 37.48V45H22v-7.52L28 33l6 4.48Zm-10 1.04V43h8v-4.48l-4-2.77-4 2.77ZM44 31.48V39h-7v-2h5v-4.48l-4-2.77-4 2.77V33h-2v-1.52L38 27l6 4.48ZM12 31.48V39h7v-2h-5v-4.48l4-2.77 4 2.77V33h2v-1.52L18 27l-6 4.48ZM12 18.48V26h2v-6.48l4-2.77 4 2.77V21h2v-2.52L18 14l-6 4.48ZM22 27h3l3-2.25L31 27h3l-6-5-6 5ZM22 14h3l3-2.25L31 14h3l-6-5-6 5ZM44 18.48V26h-2v-6.48l-4-2.77-4 2.77V21h-2v-2.52L38 14l6 4.48Z" fill="#F45F4D"/></svg>