<!-- by TradingView --><svg xmlns="http://www.w3.org/2000/svg" width="56" height="56" viewBox="0 0 56 56"><path fill="#EF392B" d="M0 0h56v56H0z"/><path d="M20.17 30H10c0-3.27 2.2-18 18.5-18C41.54 12 46.1 23.68 46 29.38L45.83 28a12.87 12.87 0 0 0-12.47-10.78c-10.05 0-12.98 8.51-13.19 12.77zm12.37.01L20.14 30c0 2.44 1.6 13 13.3 13 9.35 0 12.62-8.74 12.55-13l-.12 1.02c-.53 4.9-5.22 5.66-5.54 5.68-5.8.2-7.56-3.66-7.79-6.69zm-.16-.01h3.85c.07-1.65 1.18-4.96 4.98-4.96a4.9 4.9 0 0 1 4.73 4.19l.06.3c-.15-2.18-1.69-6.53-6.62-6.53-6.17 0-7 5.73-7 7z" fill="#fff"/></svg>