<!-- by TradingView --><svg width="56" height="56" viewBox="0 0 56 56" xmlns="http://www.w3.org/2000/svg"><path fill="#F0F3FA" d="M0 0h56v56H0z"/><path d="m28 10 7 9h-3.15L38 27h-2.86L43 38H31.78A6.26 6.26 0 0 0 34 33.41c0-1.83-.3-3.2-.58-4.4-.22-.98-.42-1.85-.42-2.78 0-1.45.64-2.58.9-3.05L34 23c-.17.14-.52.38-.92.64-.38.26-.81.55-1.16.81-2.1 2.33-2.34 6.66-2.2 8.55h-.57c-.58-3.5.64-7.08 1.63-9.08-.54-1-1.48-2.48-2.54-3.77.12 2.39.38 4.95.76 6.13-.05.14-.34.49-.57.72-1.01-2.7-1.24-5.52-1.38-7.23l-.05-.6c0-.08 0-.2.03-.33A7.95 7.95 0 0 0 26 18l-.12.18c-.2.3-.53.8-.91 1.47.26 2.47 1.3 7.16 2.03 8.64-.05.14-.2.48-.43.71a26.37 26.37 0 0 1-2.5-7.6c-.38.8-.76 1.72-1.08 2.75.48 2.5 1.46 5.5 2.01 6.99-.04.17-.18.58-.38.86a82.91 82.91 0 0 1-2.13-6.02c-.3 1.35-.49 2.84-.49 4.44 0 3.52 1.58 6.26 2.85 7.58H13l7.86-11H18l6.15-8H21l7-9Zm7.55 38C32.2 44.25 29.58 37.27 29 35.37c.15-.28.52-.67.87 0C31.91 41.47 35.84 46 37 46.89c-.24.14-.87.55-1.45 1.11Z" fill="#047940"/></svg>