<!-- by TradingView --><svg width="56" height="56" viewBox="0 0 56 56" xmlns="http://www.w3.org/2000/svg"><path fill="#181F4B" d="M0 0h56v56H0z"/><path d="M12.11 29.16c0-.48-.36-.7-1.03-.7H9.14v1.43h1.9c.74-.03 1.07-.26 1.07-.73ZM9.14 25.1v1.3h1.47c.7 0 1.04-.22 1.04-.66 0-.45-.34-.67-1.04-.67l-1.47.03Zm5.71 3.03c.3.38.47.86.47 1.37.03.73-.37 1.43-1.03 1.84-.9.48-1.94.7-2.98.64H6V23h5.04c1-.06 2 .16 2.88.64a2.04 2.04 0 0 1 .63 2.86c-.23.35-.57.64-.97.8.5.13.94.44 1.27.83ZM16 24.61h2.7V32H16v-7.39Zm.03-1.01a1.38 1.38 0 0 1-.53-1.09c0-.42.2-.82.53-1.08.37-.3.84-.46 1.34-.43.47-.03.97.14 1.34.43.33.26.53.66.53 1.05 0 .43-.2.85-.53 1.15-.37.3-.84.46-1.34.46-.47-.03-.93-.2-1.34-.5ZM24.1 29.3c.23-.3.36-.7.33-1.05.03-.36-.1-.72-.34-1.01a1.2 1.2 0 0 0-1.65-.07l-.06.07c-.24.3-.37.65-.33 1.01-.04.4.1.75.33 1.04.43.46 1.15.5 1.62.07.06 0 .06-.03.1-.07Zm-3.05 2.21A3.53 3.53 0 0 1 19 28.25a3.53 3.53 0 0 1 2.05-3.26 5.22 5.22 0 0 1 4.4 0 3.53 3.53 0 0 1 2.05 3.26 3.53 3.53 0 0 1-2.05 3.26 5.22 5.22 0 0 1-4.4 0ZM39.73 25.33c.55.69.85 1.55.75 2.44v4.16H37.5V28.3c0-.83-.26-1.26-.82-1.26-.26 0-.52.1-.69.33-.2.3-.3.67-.26 1.03v3.57h-2.98v-3.64c0-.82-.26-1.25-.82-1.25-.26 0-.52.1-.69.33-.2.3-.3.66-.26 1.02V32H28v-7.33h2.85v.69a2.7 2.7 0 0 1 2.06-.83c.46 0 .89.1 1.31.27.4.2.73.46.95.82.3-.36.66-.62 1.05-.82a3.22 3.22 0 0 1 3.5.53Z" fill="#fff"/><path d="m47.36 32-1.64-2.42L44.14 32H40.5l3.41-4.55L40.6 23h3.58l1.6 2.26L47.36 23h3.44l-3.28 4.36L51 32h-3.64Z" fill="#45BFBD"/></svg>