<!-- by TradingView --><svg width="56" height="56" viewBox="0 0 56 56" xmlns="http://www.w3.org/2000/svg"><path fill="#F0F3FA" d="M0 0h56v56H0z"/><path d="M23.58 12.3c-.3.34-.08 1.1.34 1.1.19 0 .3-.22.3-.58 0-.71-.28-.96-.64-.53ZM28.87 12.23c-.29.28-.33 1.1-.06 1.28.3.16.84-.67.72-1.14-.13-.44-.3-.49-.66-.14ZM25.43 13.29c-.46.44-.48 1.13-.06 1.13.4 0 .59-.4.48-1.03-.06-.45-.08-.45-.42-.1ZM27.78 13.39c0 .34.5 1.03.76 1.03.3 0 .02-1.03-.34-1.21-.35-.19-.42-.17-.42.18ZM24.21 13.61c-.46.45-.52.73-.23.92.28.16.86-.47.86-.94 0-.49-.1-.49-.63.02ZM29.4 13.57c-.38.39-.48 1.26-.19 1.26.34 0 .88-.73.88-1.18 0-.55-.23-.57-.69-.08ZM32.97 13.63c-.15.57.21 1.46.55 1.36.42-.14.42-1.05-.02-1.44-.4-.34-.42-.34-.53.08ZM21.06 13.7c0 .38.57.93.97.93.42 0 .38-.49-.09-.88-.48-.42-.88-.44-.88-.06ZM22.78 13.86c-.29.28-.33 1.17-.04 1.17.3 0 .9-.97.74-1.22-.17-.26-.38-.26-.7.05ZM34.13 14.73c-.28.57-.13 1.12.27 1.12.36 0 .59-.7.42-1.22-.19-.55-.4-.51-.7.1ZM30.68 14.77c-.44.49-.65 1.22-.4 1.36.34.2.82-.1 1.07-.69.4-.91-.06-1.34-.67-.67ZM27.72 15c-.46.48-.44.64.02.64.44 0 .88-.36.88-.75 0-.38-.5-.32-.9.1ZM23.37 15.1c0 .28.65.95.9.95.34 0 .11-.81-.25-1.02-.54-.26-.65-.26-.65.06ZM26.25 14.97c-.21.2-.17 1.04.04 1.18.23.12.65-.53.65-1 0-.32-.44-.44-.69-.18ZM21.63 15.18c-.25.22-.17.77.17 1.2.25.32.33.34.5.08.17-.25.25-.25.61.06.46.4 1.1.44 1.1.08 0-.4-.7-.96-1.2-.96-.26 0-.49-.14-.57-.3-.13-.33-.38-.39-.61-.16ZM24.67 15.38c.05.22.3.39.66.43.6.08.73-.13.31-.53-.4-.39-1.05-.3-.97.1ZM29.21 15.26c-.4.2-.52 1.2-.17 1.2.1 0 .36-.23.55-.53.4-.6.19-.98-.38-.67ZM35.13 15.44c-.27.18-.27.22 0 .4.44.3.97.25 1.24-.07.4-.45-.6-.72-1.24-.33ZM20.35 15.58c-.42.4.23 1.9.84 1.9.33 0 .4-.86.08-1.41-.2-.4-.73-.67-.92-.49ZM31.48 15.74c-.13.33.6 1.28.82 1.08.23-.22-.06-1.12-.4-1.24-.17-.06-.36.02-.42.16ZM18.12 15.93c0 .4.82.93 1.4.93.6 0 .62-.28.07-.81-.48-.47-1.47-.55-1.47-.12ZM33.03 15.93c-.12.16-.2.5-.16.77l.06.47.48-.47c.53-.5.61-1.06.17-1.06-.15 0-.4.15-.55.29ZM27.9 16.17c-.39.39-.43 1.1-.05 1.1.42 0 .77-.45.77-.96 0-.54-.25-.59-.71-.14ZM37.4 16.09c-.19.14-.4.47-.48.71-.17.61.36.63.94.06.76-.73.36-1.38-.46-.77ZM25.35 16.31c-.2.51 0 1.04.4 1.12.25.06.35-.06.35-.43 0-.63-.56-1.15-.75-.69ZM26.65 16.56c-.2.18-.34.46-.34.63 0 .42.6.34.86-.14.32-.6-.06-.94-.52-.5ZM29.36 16.72c-.3.45-.25 1.16.08 1.16.3 0 .65-.51.65-.94 0-.67-.35-.77-.73-.22ZM34.55 16.58c-.26.16-.42.4-.36.5.2.31.86.2 1.24-.2.31-.34.31-.38.02-.5-.44-.17-.36-.19-.9.2ZM24.3 17.15c-.07.28-.07.6.02.73.23.34.73-.16.73-.73 0-.65-.59-.63-.75 0Z"/><path d="M30.3 17c0 .47.2.72.86 1.12.5.3.61.3 1.01.04.25-.18.44-.22.44-.1 0 .3.7.29 1.01-.02.32-.3.34-.97 0-.97-.13 0-.42.14-.63.34-.36.3-.38.3-.38 0 0-.47-.56-.43-.88.06-.25.37-.27.37-.52-.2-.28-.67-.9-.83-.9-.27ZM17.39 17.07c-.21.32.7 1.01 1.36 1.01.78 0 .8-.24.09-.8-.6-.44-1.24-.54-1.45-.21ZM22.8 17.2c-.08.21.05.47.36.72.6.47 1 .2.65-.4-.29-.56-.84-.74-1-.31ZM35.91 16.98c-.2.2-.19 1.06.04 1.18.28.17.7-.4.61-.81-.06-.39-.42-.57-.65-.37ZM19.66 17.43c-.42.24.27 1.06.9 1.06.6 0 .65-.27.08-.82-.46-.44-.6-.48-.98-.24ZM28.29 17.55c-.09.23.04.53.35.86.47.48.47.48.07.79-.21.16-.3.3-.15.3.38 0 .86-.79.76-1.22-.07-.2-.28-.52-.5-.73-.36-.32-.4-.32-.53 0ZM21.6 17.8c-.35.34-.45 1.1-.14 1.1.34 0 .86-.64.86-1.04 0-.47-.27-.49-.71-.06ZM34.94 17.94c-.27.69-.27.77-.04 1.14.17.24.25.24.53.04.42-.35.42-.84.04-1.36-.3-.37-.32-.37-.53.18ZM37.05 17.74c-.28.34-.1.54.5.54.44 0 .94-.34.94-.65 0-.26-1.2-.18-1.44.1ZM26.86 18c-.36.35-.46 1.1-.15 1.1.13 0 .36-.2.53-.45.6-.83.31-1.32-.38-.65Z"/><path d="M24.65 18.5a1.9 1.9 0 0 0-.44 1.04c0 .53-.04.57-.46.35-.38-.2-.5-.16-.73.14-.21.29-.21.39 0 .53.37.24.94.2 1.05-.1.04-.12.16-.16.27-.08.1.08.04.24-.13.34-.27.17-.27.2.02.2.53 0 1.24 1.47 1.24 2.52 0 .88-.23 1.2-.52.76-.07-.1-.5-.5-1.01-.86-.7-.5-.65-.42.25.37l1.14 1-.15 1.5a5.67 5.67 0 0 1-.3 1.66c-.27.27-1.5-1.38-1.5-1.97 0-.3.1-.73.22-.97.15-.33.09-.3-.29.12-.44.5-.53.53-.65.24-.17-.46-.17-.5.15-.5.29 0 .98-.63.98-.88 0-.32-.86-.1-1.09.27-.15.22-.34.4-.42.4-.25 0-.2-.77.06-1.28.2-.36.2-.4-.04-.2-.44.4-.54.32-.7-.57-.12-.73-.05-.87.4-1.24.3-.22.53-.57.53-.8 0-.21.13-.56.25-.78.2-.3.21-.45.03-.63-.34-.33-.76-.02-.63.46.1.33.06.35-.24.15-.33-.25-.33-.25-.02.1.32.32.32.4-.16.9-.47.46-.5.66-.4 1.52.06.65.04.93-.1.83-.13-.08-.07.1.12.4.2.31.31.6.23.68-.06.06-.13.02-.13-.13 0-.16-.14-.22-.31-.14-.21.08-.32-.02-.32-.28 0-.23-.08-.41-.17-.41-.29 0-.67.49-.67.87 0 .29.1.37.42.29.25-.06.42 0 .42.16 0 .14.15.37.34.5.27.23.33.21.44-.2.13-.44.15-.46.3-.08.41 1.04.01 1.16-1.16.4-.84-.56-1.07-.64-.86-.31.06.1-.02.2-.21.2-.2 0-.49.14-.67.3-.3.29-.36.29-.63-.1-.42-.57-.7-.5-.7.19 0 .42.23.79.74 1.28.73.65.73.67.27.8-.36.09-.27.13.36.15.46.02 1.22.12 1.68.24l.82.23-.61.26c-.36.14-.5.29-.36.29.19.02.15.18-.15.54-.5.63-.56 1.1-.16 1.1.52 0 1.05-.77.92-1.34l-.1-.55 1.13.12c1.51.15 2.46.76 3 1.9.65 1.33.82 2.43.61 4.16-.25 1.97-.57 2.31-2.25 2.31-.94 0-1.36.1-1.7.41-.38.33-.77.4-2.18.43-2.48.02-8.57.44-8.72.6-.14.17 5.97-.07 6.68-.26.44-.1.48-.08.36.27-.13.32-.09.32.3-.08.66-.7 1.21-.53.79.24-.21.39-.19.39.32-.06.4-.35.67-.45 1.09-.35.35.08.48.23.38.39-.09.14.2-.06.63-.43.81-.67 1.02-.73 1.72-.44.35.14.3.2-.53.56-.52.25-1.17.55-1.47.72l-1.09.56c-.34.15-.59.33-.59.41 0 .08.25.02.59-.14.76-.39.95-.37.78.08-.07.22.27.02.84-.5.52-.48 1.11-.88 1.3-.88.23 0 .04.26-.55.73-.48.4-.84.8-.77.85.06.04.48-.2.92-.59.46-.38 1.3-1.03 1.91-1.44 1.37-.97 1.1-.38-.46 1-1.11.95-1.76 1.8-1.55 2.03.06.06.25-.16.42-.49.27-.49 1.4-1.48 1.7-1.48.06 0 .02.24-.09.55l-.2.57.35-.47c1.47-2.01 1.93-2.24 1.03-.49-.65 1.26-.8 1.93-.57 2.52.2.45.21.43.21-.16.02-.7.5-1.75.76-1.7.1.01.31-.3.48-.66.27-.6.32-.63.46-.26.1.22.2.91.21 1.52.05.91.09 1 .2.5.1-.38.24-.58.45-.54.24.06.26.02.05-.18-.32-.3-.36-1.32-.07-1.5.13-.07.21.03.23.24 0 .2.07.26.13.1.04-.12.17-.25.27-.25.28 0 .7 1.39.6 1.91-.07.27 0 .47.12.5.12 0 .46.07.75.13l.53.15-.46-.33c-.28-.2-.49-.5-.49-.71 0-.2-.19-.87-.4-1.52l-.42-1.14.5.34c.28.2.66.7.83 1.08.17.39.31.59.31.45.04-.49.57-.23 1.45.7l.88.98-.44-.8a9.06 9.06 0 0 0-1.53-1.78c-.59-.54-.95-.97-.8-.97.5 0 2.19 1.26 2.6 1.97.24.37.72.83 1.1 1.02l.65.32-.67-.69-1.54-1.56c-.48-.47-.75-.86-.65-.86.1 0 .28.08.34.2.06.1.31.2.54.2.24 0 .84.4 1.35.84.52.47.94.75.94.63s-.12-.26-.25-.3c-.19-.08-.17-.13.04-.13.2-.02.57.15.84.33.49.3.5.32.26 0-.17-.18-.5-.39-.74-.47a3.68 3.68 0 0 1-1.1-.69 2.82 2.82 0 0 0-1.02-.65c-.57-.08-.7-.57-.15-.57.23 0 .76.29 1.18.63.6.53.75.57.86.3.17-.4.67-.4 1.15 0 .34.31.36.3.26-.1-.15-.52.08-.54.63-.08.25.23.35.25.25.09-.15-.25.04-.27 1.07-.15.67.08 2.75.23 4.6.33 1.85.1 3.6.24 3.88.3l.53.13-.53-.23c-.54-.24-7.37-.83-10.41-.91-1.37-.04-1.85-.12-2.35-.49a2.04 2.04 0 0 0-2.04-.24c-.63.24-1.47-.25-1.91-1.14a5.55 5.55 0 0 1-.4-2.4c0-1.4.08-1.79.63-2.84.5-1 .8-1.3 1.57-1.69a4.1 4.1 0 0 1 3.55-.04c.67.32.95.34 1.58.18.4-.1.84-.36.96-.59.47-.83-.69-.65-1.32.2-.3.41-.3.41-1.39-.08-1.17-.5-1.17-.48.26-.85.46-.12.46-.12.04.18-.4.3-.4.33-.04.45.4.16 1.05-.24.86-.53-.07-.1.14-.2.48-.2.53-.04.55-.04.09-.12-.49-.1-.49-.1.2-.83.4-.43.6-.66.43-.51-.24.2-.38.14-.7-.27-.3-.34-.63-.48-1.17-.5l-.78-.05.84-.14c.46-.08.63-.16.38-.18-.57-.02-.61-.26-.17-.63.25-.2.4-.2.57-.04.29.28 1.34.32 1.5.06.07-.1-.01-.28-.18-.43-.27-.22-.23-.3.2-.65.68-.5.68-.77 0-.77-.58 0-1.44.71-1.25 1.02.1.18-.19.28-.4.14-.02-.02-.34.26-.67.65-.53.6-1.62 1.24-2.17 1.24-.4 0 .45-1.93 1.1-2.52.63-.55.63-.57.1-.24-.59.32-.59.32-.6-.23-.03-.55-.03-.55-.2.1-.2.9-.37 1-.63.43-.23-.49-.19-.18.1.73.07.25-.05.7-.33 1.1l-.44.69-.25-.49c-.21-.42-.19-.49.13-.55.2-.04.31-.18.23-.36-.09-.2 0-.25.23-.16.44.16.44-.2 0-.55-.28-.2-.36-.2-.5 0-.11.2-.28.22-.55.06-.3-.16-.53-.1-1.01.3-.48.39-.65.43-.78.23-.33-.5-.19-1.22.42-2.28.76-1.28.99-2.36.63-2.99-.46-.85-1.09-1.07-.98-.34.04.26.27.55.54.67.25.1.46.34.46.5 0 .56-1.03 2.49-1.26 2.34-.1-.06-.2-.02-.2.1 0 .13-.1.19-.22.1-.31-.18-.94.9-.67 1.16.17.17.32.17.53-.02.25-.18.31-.06.44.72.2 1.52.17 1.76-.23 1.62-.3-.12-.26-.04.1.35.7.7.65 2.35-.08 3.29a8.28 8.28 0 0 0-1.37 3.2c-.02.25-.1.05-.2-.46-.13-.67-.1-1.46.24-3.07.34-1.7.38-2.33.21-3.07a2.63 2.63 0 0 1 0-1.56c.13-.35.2-.73.13-.87-.06-.15-.13-.06-.13.18-.02.43-.35.81-.56.63a4.8 4.8 0 0 1-.21-.8c-.09-.48-.07-.6.08-.4.19.24.27.24.55.04.19-.16.33-.43.33-.63 0-.49-.6-.69-.77-.26-.13.3-.15.28-.3-.06-.12-.29-.17-.19-.17.4l-.02.77-.4-.46c-.48-.6-.75-.4-.56.34.1.39.25.51.52.43.3-.06.42.04.53.47l.25 1.1c.13.52.13.52-.46.22-.53-.27-.63-.27-.93 0-.44.38-.63.38-.63 0 0-.33.3-.5.97-.6.48-.05.59-.72.1-.72-.18 0-.48.12-.63.24-.23.22-.27.12-.14-.55.06-.45.12-.97.12-1.18 0-.18.13-.34.3-.34.4 0 .8-.53.71-.96-.06-.32-.1-.32-.54.1-.28.27-.47.35-.49.19 0-.12-.08-.06-.17.16-.14.37-.23.3-.63-.47-.25-.46-.35-.85-.25-.85.32 0 .86-.61.86-.94 0-.44-.54-.34-.9.17l-.34.46v-.46c-.02-.27.1-.45.3-.45.4 0 .84-.8.57-1.06-.13-.12-.36-.04-.66.27Zm7.04 6.18c.38 1.24.31 1.63-.4 2.44-.4.45-.82.73-.9.65-.1-.1-.23-.77-.3-1.52-.12-1.28-.08-1.38.5-2.03l.64-.7.19.5c.12.24.23.54.27.66Zm-10.35.94c.88.32 1.3.63 1.8 1.34.38.5.63.95.57 1.02-.19.18-3.15-.37-4-.74-.47-.2-1.08-.6-1.36-.89l-.5-.53.6.12c.87.17 1.33.13 1.69-.16.25-.2.25-.28.04-.4-.46-.29-.04-.2 1.16.24Zm5.88.81c.14.02.31.02.42 0 .08 0 .14.3.14.7 0 .83-.27.9-.75.2-.2-.29-.42-.47-.5-.41-.11.06-.24.02-.32-.1-.25-.4-.55-.19-.48.34.06.63.8.96.8.37 0-.25.14-.16.52.26.3.35.52.73.52.88-.02.2-.08.18-.3-.06-.33-.45-.75-.1-.75.6 0 .37.09.47.34.37.25-.1.3-.02.17.35-.15.48-.28.65-.36.52-1.1-1.54-1.2-1.78-1.2-2.8 0-.81.1-1.22.49-1.62l.46-.57.27.46c.15.27.38.51.53.51Zm7.68-.6c.21.24.74.48 1.2.56l.82.12-.76.47c-.94.55-.98.55-1.07 0-.04-.26-.31-.59-.65-.73-1.1-.5-1.3.43-.23 1 .48.24.48.28.15.4-.57.2-2.8.43-2.8.3a4.47 4.47 0 0 1 2.9-2.54c.04-.01.25.19.44.41Z"/><path d="M30.51 24.75c0 .52.53 1.13.8.97.36-.2.32-.65-.08-1.02-.44-.42-.72-.4-.72.05ZM30.3 26.07c0 .46.36.95.67.95.26 0 .2-.91-.08-1.18-.38-.36-.59-.28-.59.23ZM20.05 26.13c-.52.34-.63.9-.16.9.46 0 1.26-.72 1.09-.98-.19-.33-.36-.3-.93.08ZM21.04 26.63c-.33.63.15 1.06.57.51.17-.22.3-.53.3-.67 0-.42-.6-.3-.87.16ZM22.16 26.96c.08.65.8.93.8.32 0-.4-.39-.87-.7-.87-.08 0-.15.25-.1.55ZM25.73 28.34c.02.33.18.61.33.67.38.12.32-.67-.08-1-.3-.22-.32-.18-.25.33ZM32.61 26.68c0 .16.2.44.42.65.4.36.42.34.42-.02 0-.41-.35-.9-.67-.9-.08 0-.17.12-.17.27ZM27.72 18.22c-.27.27-.15 1.04.23 1.3.19.15.3.2.21.1-.08-.1-.06-.34.04-.54.32-.57-.08-1.26-.48-.86ZM33.5 18.33c-.3.28-.34 1.3-.07 1.48.26.14.65-.53.65-1.1 0-.5-.27-.69-.58-.38ZM18.19 18.43c-.4.14-.34.6.1.7.19.07.55.05.78-.03.3-.1.54 0 .88.32.46.49 1.32.67 1.32.3 0-.36-.65-.83-1.15-.83-.25 0-.53-.14-.61-.3-.1-.29-.8-.39-1.32-.16ZM22.85 18.5c-.2.27.73 1.08.96.86.1-.1.15-.34.09-.5-.15-.37-.88-.62-1.05-.35ZM36.33 18.6c-.34.33-.1.52.55.46.35-.04.65-.17.63-.27-.07-.24-.97-.38-1.18-.18ZM26.1 18.91c0 .19.15.67.32 1.08.31.73.31.75-.09.55-.46-.24-1.13-.08-1 .26.04.13.44.23.86.25.54 0 .86.12 1 .36.17.3.26.33.4.1.1-.16.2-.38.2-.48 0-.12-.1-.08-.2.08-.14.22-.27.14-.52-.35-.19-.36-.34-.69-.36-.75 0-.3-.59-1.36-.6-1.1ZM16.17 19.04c-.44.4.46.97 1.24.79.57-.14.67-.63.17-.81-.45-.17-1.24-.17-1.41.02ZM31.56 19.1c-.27.18-.27.22 0 .4.17.1.47.2.63.2.17 0 .47-.1.63-.2.28-.18.28-.22 0-.4-.16-.1-.46-.2-.63-.2-.16 0-.46.1-.63.2ZM37.9 19.22c-.54.36-.41.69.26.69.57 0 1.07-.49.86-.81-.19-.29-.57-.27-1.11.12ZM29.46 19.56c0 .29.65.96.9.96.26 0 .17-.71-.1-.98-.34-.32-.8-.3-.8.02ZM34.04 19.79c-.27.59-.08 1.24.3 1.01.14-.1.54-.14.86-.1.63.06 1.4-.44 1.4-.93 0-.37-.94-.33-1.28.06-.25.28-.3.28-.44-.1-.2-.57-.54-.55-.84.06ZM13.6 19.69c-.14.24.4.77.97.93.7.22.95-.18.42-.69-.46-.45-1.17-.57-1.38-.24Z"/><path d="M18.54 19.77c0 .44.72.95 1.33.95.67 0 .71-.26.14-.81-.48-.47-1.47-.55-1.47-.14ZM15.73 19.85c-.23.24-.13.83.19 1.08.44.34.82-.02.65-.57-.15-.43-.63-.71-.84-.51ZM27.15 20c0 .15.23.48.53.68.31.25.44.47.31.55-.6.37.13.7.93.39.38-.15.46-.7.1-.7-.12 0-.46-.28-.75-.6-.55-.65-1.12-.82-1.12-.33ZM28.41 19.83c0 .36.5.9.84.9.5 0 .55-.27.09-.7-.32-.3-.93-.45-.93-.2ZM31.4 20.13c.06.5.69.98.92.73.17-.16-.48-1.15-.78-1.15-.12 0-.19.2-.15.42ZM32.82 20.4c0 .49.55 1.1.76.87.23-.2-.1-1.1-.44-1.24-.23-.08-.32.02-.32.37ZM39.96 20.3c-.27.5-.27.97 0 1.13.28.17 1.05-.63 1.05-1.11 0-.53-.75-.55-1.05-.02ZM20.79 20.26c-.21.18-.19 1.07.02 1.07.3 0 .67-.47.67-.85 0-.37-.42-.5-.7-.22ZM17.11 20.66c.09.47 1.14.83 1.47.5.36-.34-.16-.84-.92-.84-.48 0-.6.08-.55.34ZM38.37 21.03c-.34.5-.27 1.11.12 1.11.36 0 1.05-.79 1.05-1.21 0-.6-.75-.53-1.17.1ZM14.55 21.23c0 .28.61.71 1.03.71.38 0 .25-.59-.17-.81-.56-.29-.86-.27-.86.1ZM23.3 21.37c-.4.55-.11.98.39.57.34-.28.44-1.01.13-1.01-.13 0-.36.2-.53.44ZM31.14 21.3c0 .42.38.84.78.84.38 0 .34-.5-.06-.89-.44-.43-.72-.4-.72.04ZM36.6 21.23c-.2.24-.2.39-.02.57.2.18.38.16.8-.06.32-.16.55-.4.53-.51-.05-.34-1.01-.34-1.3 0ZM18.96 21.31c0 .1.25.39.55.61.99.75 1.97.43 1.13-.38-.42-.41-1.68-.57-1.68-.23ZM34.65 21.5c-.2.2-.36.48-.36.6 0 .67 1.87-.16 1.9-.83 0-.3-1.2-.12-1.54.22ZM16.74 21.64c-.34.26-.36.32-.09.5.44.27.7.25 1.18-.1.33-.26.36-.32.08-.5-.44-.27-.7-.25-1.17.1ZM22.16 21.58c-.3.28-.34.97-.07.97.13 0 .36-.2.53-.45.46-.63.08-1.05-.46-.52ZM32.4 21.72c0 .4.57.97.76.77.08-.06.08-.37 0-.65-.15-.59-.76-.7-.76-.12ZM40.38 21.74c-.23.14-.25.24-.08.4.34.33 1.24.17 1.24-.2 0-.36-.71-.49-1.16-.2ZM24 22.23c0 .56.74 1.42 1.05 1.24.34-.2.26-.84-.14-1.16-.74-.61-.9-.61-.9-.08ZM30.47 22.19c-.9.85-.7 1.74.25 1.01.32-.26.44-.53.38-.95l-.06-.61-.57.55ZM13.65 22.16c-.5.29-.25.6.46.6.61 0 1.2-.43.93-.68-.21-.2-.97-.16-1.39.09ZM35.8 22.27c-.25.16-.46.42-.46.59 0 .14-.19.34-.42.4-.23.06-.42.23-.42.33 0 .28.6.44 1.01.26.2-.08.46-.12.57-.1.13.02.02-.12-.19-.28-.36-.27-.38-.3-.06-.3.19-.01.56-.21.8-.44.35-.34.4-.46.16-.6-.4-.25-.44-.23-.98.14ZM38.79 22.82c-.38.32-.53.6-.44.8.23.6 1.62-.18 1.62-.9 0-.51-.49-.47-1.18.1ZM15.4 22.82c0 .36.43.87.9 1.01.52.18.69-.4.25-.87-.42-.47-1.16-.55-1.16-.14ZM16.86 22.71c0 .1.2.35.42.55.38.33.38.39.07.61-.45.3-.2.71.44.71.6 0 1.11-.5.73-.7-.17-.11-.17-.2 0-.3.42-.26-.36-1.03-1.05-1.03-.33 0-.6.08-.6.16ZM41.44 22.71c0 .33.58.7.98.61.65-.12.44-.67-.3-.73-.37-.04-.68.02-.68.12ZM12.45 23.63c0 .5.59 1.16 1 1.16.4 0 .3-.7-.16-1.18-.57-.57-.84-.57-.84.02ZM39.63 23.67c-.55.53-.53.91.04.91.17 0 .27.08.21.19-.21.32.46.65 1.18.58 1-.08.92-.65-.1-.73l-.8-.06.52-.4c.31-.23.54-.55.54-.71 0-.47-1.02-.33-1.6.22ZM14.55 23.73c0 .24.72.85 1.01.85.4 0 .48-.36.13-.69-.34-.34-1.14-.45-1.14-.16ZM28.62 24.54c0 .39.38.86.68.86.25 0 .18-.72-.09-.98-.36-.35-.59-.3-.59.12Z"/><path d="M15.96 24.6c-.19.13-.32.29-.25.4.19.3 1.07.23 1.34-.07.42-.51-.33-.75-1.09-.33ZM24.05 24.62c-.28.27-.34 1.18-.09 1.18.32 0 .67-.49.67-.95 0-.51-.2-.6-.58-.23ZM38.12 24.52c-.42.16.12.67.71.67.65 0 .82-.32.32-.59-.44-.24-.61-.24-1.03-.08ZM13.82 24.87c-.38.26-.38.28.08.5.25.15.63.2.82.13.25-.08.21.02-.1.3-.28.23-.49.51-.49.61 0 .35.99.22 1.47-.16.5-.39.42-.85-.12-.85-.2 0-.26-.1-.17-.23.31-.53-.84-.77-1.5-.3ZM36.46 25.23c-.05.45.42.47.86.04.46-.42.42-.5-.25-.44-.4.02-.6.16-.61.4Z"/><path d="M12.03 25.27c0 .41.82.94 1.4.94.6 0 .64-.43.11-.88-.48-.42-1.5-.46-1.5-.06ZM37.57 25.54c-.12.28-.1.3.1.12.15-.14.22-.3.15-.37-.06-.06-.19.04-.25.25ZM16.38 25.7c-.19.45.17 1.26.67 1.5.63.33.82-.46.3-1.15-.5-.65-.82-.76-.97-.35ZM38.03 25.74c-.44.5-.54.92-.38 1.38.13.37.17.37.72-.16.36-.35.55-.73.5-1-.08-.56-.44-.67-.84-.22ZM39.23 25.6c-.06.1.06.36.3.59.4.38.37.38-.11.65-.67.32-.3.79.65.79.86 0 1.34-.49.8-.8-.21-.11-.25-.22-.1-.22.37 0 .3-.34-.17-.8-.45-.43-1.16-.56-1.37-.21ZM41.58 25.62c-.3.16-.33.28-.12.5.27.33.8.37 1.23.09.28-.18.26-.25-.08-.51-.48-.37-.52-.37-1.03-.08ZM24.23 26.05c-.25.65.13 1 .53.48.17-.22.3-.53.3-.67 0-.44-.64-.3-.83.19ZM28.67 26.53c.08.4.7.84.94.63.21-.22-.23-.83-.65-.91-.25-.06-.36.04-.3.28ZM41.35 26.8c-.19.28.57 1.03 1.11 1.07.68.09.78-.32.21-.83-.5-.45-1.13-.57-1.32-.24ZM14.78 27c-.42.26-.08.63.61.63.76 0 .99-.32.44-.59-.5-.26-.67-.26-1.05-.04ZM13 27.61c-.06.1.08.4.31.71.45.53.95.7 1.08.33.04-.1.16.02.29.3.19.35.17.45 0 .39-.13-.04-.42.04-.65.2-.4.28-.4.3.17.55.48.2.63.2.94-.08.21-.2.5-.35.63-.35.4 0 .3-.77-.19-1.24-.27-.26-.6-.38-.92-.34a.66.66 0 0 1-.72-.29c-.25-.38-.75-.48-.94-.18ZM28.62 27.61c0 .26.6.83.86.83.47 0 .09-.91-.37-.97-.28-.04-.49.02-.49.14ZM16.13 28.06c-.15.44.4 1.4.92 1.56.48.16.2-1.4-.33-1.73-.4-.26-.47-.24-.6.17ZM38.28 28.04c-.42.4-.58 1.62-.23 1.62.1 0 .4-.24.63-.53.78-.95.44-1.9-.4-1.1ZM17.39 28.04c-.17.26.65 1.01 1.15 1.01.57 0 .53-.3-.12-.79-.63-.47-.84-.53-1.03-.22ZM18.88 28.02c-.19.28.6.65 1.03.5.19-.08.3-.24.25-.36-.1-.29-1.11-.4-1.28-.14ZM39.54 28.44c-.5.5-.56 1.22-.1 1.22.42 0 1.36-.91 1.36-1.32 0-.45-.75-.38-1.26.1ZM28.46 28.48c-.28.27-.34.84-.1 1.04.2.2.68-.26.68-.7 0-.46-.29-.62-.58-.34ZM41.33 28.44c-.17.29.25.96.76 1.24.56.29.73.1.44-.5-.28-.6-1.01-1.04-1.2-.74ZM21.82 29.03c-.36.39-.46 1.55-.15 1.75.3.16.86-.71.86-1.36 0-.71-.27-.86-.71-.39ZM32.7 29.17c-.25 1 .75 2.06 1.07 1.1.19-.55-.04-1.18-.53-1.42-.35-.18-.44-.12-.54.32ZM33.96 28.95c-.17.39.46 1.32.86 1.32.17 0 .31-.14.31-.32 0-.8-.94-1.59-1.17-1ZM22.87 29.01c-.19.29.08.96.5 1.22.3.16.4.16.49-.04.23-.57-.68-1.65-1-1.18ZM31.58 29.34c-.14.16-.23.55-.18.87l.06.57.48-.47c.5-.49.63-1.26.17-1.26a.8.8 0 0 0-.53.29ZM18.86 29.46c.06.1.02.22-.1.3-.26.15-.3 1.53-.05 1.53.36 0 .88-.75.88-1.26 0-.35-.14-.55-.42-.63-.23-.06-.38-.02-.31.06ZM36.54 29.48c.15.14.32.2.38.14s-.04-.18-.25-.24c-.3-.12-.32-.1-.13.1ZM35.55 29.97c0 .57.74 1.4 1.05 1.22.32-.19.26-.78-.12-1.28-.44-.61-.93-.57-.93.06ZM39.99 29.74c-.24.27-.2.33.27.45.67.16 1.24-.04 1.13-.39-.14-.36-1.11-.4-1.4-.06ZM24.15 30.1c-.13.48.17 1.19.48 1.19.34 0 .49-1 .21-1.32-.35-.43-.56-.39-.69.14ZM30.3 30.25c-.27.53-.27.67.09 1.14.27.36.3.36.54-.08.26-.49.13-1.44-.2-1.44-.11 0-.3.18-.43.38ZM38.45 30c.25.05.42.17.36.27-.19.3.7 1.02 1.26 1.02.3 0 .53-.06.53-.17-.03-.5-1.27-1.25-2.04-1.23-.5.04-.53.04-.1.12ZM15.22 30.4c-.6.4-.58.89.03.89.56 0 1.3-.67 1.09-1-.2-.3-.57-.28-1.12.1ZM17.07 30.47c-.5.5-.54 1.02-.1 1.02.17 0 .5-.18.73-.4.5-.5.55-1.02.1-1.02-.16 0-.5.18-.73.4ZM37.13 30.27c-.15.23.8 1.22 1.15 1.22.4 0 .21-.8-.25-1.1-.54-.38-.73-.4-.9-.12ZM20.73 30.54c-.2.48 0 1.05.33 1.05.44 0 .5-.79.13-1.12-.27-.2-.36-.18-.46.07ZM22.34 30.56c-.33.4-.2 1.24.2 1.24.18 0 .33-.23.37-.6.09-.7-.2-1.05-.57-.64ZM34.02 30.4c-.08.07-.15.4-.15.72 0 .72.49.7.6-.02.08-.5-.22-.93-.45-.7ZM13.3 30.88c-.53.5-.55.81-.05.81.44 0 1.1-.59 1.1-.97 0-.39-.6-.29-1.06.16ZM19.5 31.12c-.37.51-.43 1.18-.12 1.18.36 0 1.05-.79 1.05-1.22 0-.54-.52-.5-.92.04Z"/></svg>