<!-- by TradingView --><svg width="56" height="56" viewBox="0 0 56 56" xmlns="http://www.w3.org/2000/svg"><path fill="#F0F3FA" d="M0 0h56v56H0z"/><path d="m13.98 30.34 4.9 8.62 2.65.72L23.98 44a16.2 16.2 0 0 1-11.9-14.18l1.9.52Z" fill="url(#a)"/><path d="m21.18 39.07-1.98-.54-4.9-8.62-2.27-.61a16.8 16.8 0 0 1 .55-5.39l8.6 15.16Z" fill="url(#b)"/><path d="m41.1 30.7-4.9 8.63.66 2.47a15.8 15.8 0 0 1-4.77 2.18l8.55-15.05.47 1.78Z" fill="url(#c)"/><path d="M43.44 23.99a16.32 16.32 0 0 1-6.16 17.51l-.55-2.1 4.9-8.62-.65-2.46L43.44 24Z" fill="url(#d)"/><path d="M28 12c2.2 0 4.3.43 6.2 1.21l-1.32 1.22h-9.37L21.82 16h-4.47c2.76-2.48 6.51-4 10.65-4Z" fill="url(#e)"/><path d="M34.65 13.4c1.48.67 2.83 1.55 4 2.6H22.48l1.22-1.14h9.37l1.58-1.45Z" fill="url(#f)"/><path d="m22.6 31.22 1.43 2.42 1.91-3.17h1.14l-2-3.46-2.48 4.21ZM33.8 30.5l1.38-2.5h-3.7l-.57-1-2 3.5h4.89ZM27.25 21h-2.7l2 3.4 1.46.7 1.28-.7-2.04-3.4Z" fill="#4FABD0"/><path d="m26.33 24.85-.98 1.68 2.27 3.91h.72l2.18-3.91-.9-1.68-1.61.81-1.68-.8Z" fill="#BC2F35"/><path d="m44 20-3.85 7h-8.22v-.03l-.02.02L28.3 21h3.66l1.76 3h4.59l2.94-5.6L44 20Z" fill="url(#g)"/><path d="m21.5 17.01 4.1 7.2h-.03l.02.02-3.44 6.07-1.82-3.2 1.62-2.88L19.54 20h-5.82l.12-3h7.65v.01Z" fill="url(#h)"/><path d="m13.82 17 9.87 17.28-1.83 3.34L12 20.33 13.82 17Z" fill="url(#i)"/><path d="M22.33 17h19.73L44 20H24.2l-1.87-3Z" fill="url(#j)"/><path d="m26.16 45-3.95-6.73L26.37 31h6.93l-1.7 3-3.28.02-2.44 4.26 3.04 5.12-2.75 1.6Z" fill="url(#k)"/><path d="m39.79 28-9.87 17h-3.77l9.87-17h3.77Z" fill="url(#l)"/><defs><linearGradient id="a" x1="15.47" y1="38.37" x2="20.34" y2="35.99" gradientUnits="userSpaceOnUse"><stop stop-color="#458FC9"/><stop offset="1" stop-color="#21438A"/></linearGradient><linearGradient id="b" x1="15.47" y1="38.37" x2="20.34" y2="35.99" gradientUnits="userSpaceOnUse"><stop stop-color="#458FC9"/><stop offset="1" stop-color="#21438A"/></linearGradient><linearGradient id="c" x1="41.87" y1="36.39" x2="38" y2="34.06" gradientUnits="userSpaceOnUse"><stop stop-color="#458FC9"/><stop offset="1" stop-color="#21438A"/></linearGradient><linearGradient id="d" x1="41.87" y1="36.39" x2="38" y2="34.06" gradientUnits="userSpaceOnUse"><stop stop-color="#458FC9"/><stop offset="1" stop-color="#21438A"/></linearGradient><linearGradient id="e" x1="28" y1="12" x2="28" y2="16" gradientUnits="userSpaceOnUse"><stop stop-color="#458FC9"/><stop offset="1" stop-color="#21438A"/></linearGradient><linearGradient id="f" x1="28" y1="12" x2="28" y2="16" gradientUnits="userSpaceOnUse"><stop stop-color="#458FC9"/><stop offset="1" stop-color="#21438A"/></linearGradient><linearGradient id="g" x1="28.43" y1="24.84" x2="43.97" y2="24.57" gradientUnits="userSpaceOnUse"><stop stop-color="#4EABD0"/><stop offset="1" stop-color="#213281"/></linearGradient><linearGradient id="h" x1="25.62" y1="25.07" x2="15.08" y2="18.02" gradientUnits="userSpaceOnUse"><stop stop-color="#4EABD0"/><stop offset="1" stop-color="#213281"/></linearGradient><linearGradient id="i" x1="12.61" y1="19.06" x2="23.06" y2="35.15" gradientUnits="userSpaceOnUse"><stop stop-color="#4EABD0"/><stop offset="1" stop-color="#213281"/></linearGradient><linearGradient id="j" x1="23.61" y1="18.63" x2="42.68" y2="18.63" gradientUnits="userSpaceOnUse"><stop stop-color="#213281"/><stop offset="1" stop-color="#4EABD0"/></linearGradient><linearGradient id="k" x1="29.62" y1="31.05" x2="29.07" y2="44.5" gradientUnits="userSpaceOnUse"><stop stop-color="#4EABD0"/><stop offset="1" stop-color="#213281"/></linearGradient><linearGradient id="l" x1="28.1" y1="44.98" x2="42.1" y2="32.2" gradientUnits="userSpaceOnUse"><stop stop-color="#4EABD0"/><stop offset="1" stop-color="#213281"/></linearGradient></defs></svg>