<!-- by TradingView --><svg width="56" height="56" viewBox="0 0 56 56" xmlns="http://www.w3.org/2000/svg"><path fill="#F0F3FA" d="M0 0h56v56H0z"/><path d="M29 44c.2-.2 4.37-4.53 6-12-9.41 4.37-15.5 9-15.5 9 2.53 1.68 5.8 3 9.06 3H29ZM34 43c5.76-2.36 9.9-8.42 10-15-2.18.67-5 2.16-7 3-.19 4.24-.93 8.28-3 12ZM44 25.5c-.96-6.55-5.63-12.04-12-13.5.22.25 2.72 3.65 4.47 8.46A26.9 26.9 0 0 1 44 25.5ZM30.95 12H31a29.1 29.1 0 0 1 3.6 7.53c-2.27-.8-4.88-.94-7.94-.94-1.77 0-3.16.06-4.66.41 4-4.72 8.51-6.82 8.95-7ZM27.06 12c-7.02.23-12.15 4.55-14.06 11 .31-.26 2.47-2.12 6.53-3.47A26.01 26.01 0 0 1 27.06 12ZM12 28c-.03 3.4.95 6.65 3 9.41a26.75 26.75 0 0 1 2.5-13.91C14.9 25 13.2 26.55 12 28Z" fill="#0A344F"/><path d="m16.19 38.95.05.05c6.08-4.87 13.59-8.5 19.29-10.64.15-2.22-.27-4.39-.92-6.95-1.87-.58-3.5-1.41-5.99-1.41-3.39 0-6.6 1.2-9.1 2.35-2.49 4.05-4.14 9.43-3.33 16.6ZM43 26c-1.03.3-3.19 1.15-5.59 2-.15-2.15-.4-4.82-.94-6.59 4.14 1.67 6.44 4.5 6.53 4.59Z" fill="#0A344F"/></svg>