<!-- by TradingView --><svg width="56" height="56" viewBox="0 0 56 56" xmlns="http://www.w3.org/2000/svg"><path fill="#F0F3FA" d="M0 0h56v56H0z"/><path d="m28.1 9-.05 11.7c0 .07-.02.13-.04.2l-.04.1a.27.27 0 0 1-.13.1l-6.9 6.92-.04.02-5.84-5.86c-.08-.08-.08-.16 0-.24l12.06-12.1c.41-.4.74-.7.98-.84Z" fill="#D0CCCB"/><path d="M28.1 9a3349.9 3349.9 0 0 1 12.84 12.93c.03.03.03.07.02.13l-5.92 5.88-.12-.05-6.65-6.69a.7.7 0 0 0-.16-.12l-.15-.08.05-.1a.51.51 0 0 0 .04-.2L28.1 9Z" fill="url(#a)"/><path d="m27.97 21 .14.08a.7.7 0 0 1 .16.12l6.65 6.69a.8.8 0 0 1-.25.4l-6.6 6.62c-.03.03-.06.03-.08 0a.23.23 0 0 1-.04-.14V21.2a.08.08 0 0 0-.04-.08l-.07-.04a.27.27 0 0 0 .13-.09Z" fill="#3E465B"/><path d="m27.84 21.1.07.03c.03.02.04.05.04.08v13.56c0 .06-.03.12-.12.18l-6.9-6.93 6.91-6.93Z" fill="#746C6A"/><path d="M40.96 22.06 41 33.89a.2.2 0 0 1-.04-.1c0-.04-.01-.04-.03-.02l-.01.03c-.01.05-.04.05-.07.02l-5.81-5.88 5.92-5.88Z" fill="#9D9B9C"/><path d="m34.92 27.89.12.05 5.81 5.88c.03.03.06.03.07-.02v-.03c.03-.02.04-.02.04.01 0 .04.02.08.04.1 0 .07-.02.13-.05.18a.52.52 0 0 0-.17-.04c-4.25.36-8.53.73-12.83 1.08-.01-.05-.05-.1-.12-.15.1-.06.13-.12.12-.18 0 .06.02.1.04.14.02.03.05.03.07 0 2.2-2.2 4.41-4.41 6.6-6.63.15-.14.24-.28.26-.4Z" fill="#615D5C"/><path d="m20.93 28.02 6.9 6.93c.07.05.1.1.12.15l.07 11.85c-.03.05-.06.06-.1.03l-12.9-12.94c-.03-.04-.03-.07 0-.11l5.88-5.89.03-.02Z" fill="#454442"/><path d="M40.95 34.06 28.02 46.94l-.07-11.84 12.83-1.08c.03 0 .08 0 .17.04Z" fill="#D0CCCB"/><defs><linearGradient id="a" x1="39.91" y1="18.47" x2="29.02" y2="20.91" gradientUnits="userSpaceOnUse"><stop stop-color="#244284"/><stop offset="1" stop-color="#477AAF"/></linearGradient></defs></svg>