<!-- by TradingView --><svg width="56" height="56" viewBox="0 0 56 56" xmlns="http://www.w3.org/2000/svg"><path fill="#F0F3FA" d="M0 0h56v56H0z"/><path d="M38 20.69c-9.07-4.44-14.67 1.83-15.82 3.31H16c8.71-11.18 22-3.31 22-3.31Z" fill="#003DA6"/><path d="M36 21.23c-4.4-1.96-6.47 1.08-6.6 2.77H25c5-6.32 10.15-3.42 11-2.77Z" fill="#898A8D"/><path d="M38 24h-2.02c-.63-.77-2.09-2.58-4.98-.97 1.01-.85 3.92-2.21 7 .97Z" fill="#009ADE"/><path d="M35 24h-1.49c-.15-.38-.98-1.07-2.51-.58.65-.39 2.8-.93 4 .58ZM9.55 31.25V34H8v-8h3.21c1.62 0 2.79.88 2.79 2.57 0 1.67-1.15 2.43-2.79 2.43H9.55v.25Zm0-1.25h1.47c.82 0 1.48-.6 1.48-1.43 0-.8-.65-1.57-1.48-1.57H9.55v3ZM19.26 32.72c-.24.04-.49.07-.75.07-.65 0-1.12-.16-1.43-.46a1.61 1.61 0 0 1-.44-.98H21c0-.7-.09-1.29-.28-1.79-.2-.5-.5-.89-.94-1.16-.43-.27-1-.4-1.7-.4-.98 0-1.74.26-2.27.79-.54.52-.81 1.28-.81 2.27 0 .62.13 1.15.4 1.59.26.43.63.77 1.1 1 .48.23 1.04.35 1.68.35a6.97 6.97 0 0 0 2.3-.38v-1.27l-.54.2c-.21.07-.43.12-.68.17Zm-2.47-2.84c.11-.27.27-.47.48-.58.22-.12.47-.18.75-.18.48 0 .83.13 1.04.4.16.19.27.48.32.86h-2.73c.03-.2.08-.36.14-.5ZM23.5 34H22v-8h1.5v8ZM27.92 34c-1.28 0-1.92-.56-1.92-1.6V30h-1v-1h1v-2h1.5v2H29v1h-1.5v2.2c0 .42.24.63.73.63a1.69 1.69 0 0 0 .77-.19v1.17c-.16.07-.33.12-.52.15-.2.02-.38.04-.56.04ZM35 30.37V34h-1.5v-3.38c0-.83-.26-1.24-1.02-1.24-.39 0-.67.14-.96.32L31.5 34H30v-8h1.52v2.62c.48-.27.89-.45 1.44-.45 1.34 0 2.04.9 2.04 2.2ZM39 34c-1 0-1.76-.26-2.25-.77-.5-.52-.75-1.27-.75-2.24 0-1.05.25-1.81.76-2.28.51-.47 1.25-.71 2.22-.71.68 0 1.24.11 1.68.33.45.22.78.55 1 1 .23.44.34 1 .34 1.66 0 .97-.26 1.72-.78 2.24-.52.51-1.26.77-2.23.77Zm-.02-1.17c.35 0 .64-.07.86-.22.22-.15.38-.37.49-.64.1-.28.15-.6.15-.98 0-.43-.05-.78-.16-1.05-.1-.27-.27-.47-.5-.6-.21-.12-.5-.18-.84-.18-.34 0-.64.06-.85.2-.22.13-.38.34-.47.6-.1.27-.15.62-.15 1.03 0 .59.12 1.04.35 1.36.23.32.6.48 1.12.48ZM45.2 34a4.86 4.86 0 0 1-2.18-.44v-1.3l.64.32a3.83 3.83 0 0 0 1.58.33c.34 0 .6-.06.77-.17.17-.11.26-.26.26-.43a.4.4 0 0 0-.2-.36 1.9 1.9 0 0 0-.51-.22 24.11 24.11 0 0 0-1.34-.36 2.4 2.4 0 0 1-.61-.3c-.19-.14-.33-.3-.44-.5a1.5 1.5 0 0 1-.17-.73c0-.34.08-.63.24-.86.16-.24.36-.43.62-.58a3.86 3.86 0 0 1 1.74-.4 4.75 4.75 0 0 1 2.1.48v1.18c-.31-.15-.6-.28-.9-.4a2.63 2.63 0 0 0-1.79-.02c-.19.1-.28.24-.28.43 0 .15.05.28.17.38.11.09.26.17.45.22l.62.17.68.17c.23.07.45.16.66.28.2.11.37.27.5.48.13.2.19.47.19.8-.01.44-.15.8-.41 1.06-.27.27-.62.46-1.04.59-.42.12-.87.18-1.35.18Z" fill="#003DA6"/><path opacity=".49" d="M37 20.09C27.07 15.8 21.07 21.96 19.44 24H16c6.57-8.32 15.7-6.09 19.94-4.4h.02l1.04.49Z" fill="url(#a)"/><defs><linearGradient id="a" x1="16" y1="21" x2="37" y2="21" gradientUnits="userSpaceOnUse"><stop offset=".26" stop-color="#fff" stop-opacity="0"/><stop offset=".54" stop-color="#fff"/><stop offset="1" stop-color="#fff" stop-opacity="0"/></linearGradient></defs></svg>