<!-- by TradingView --><svg width="56" height="56" viewBox="0 0 56 56" xmlns="http://www.w3.org/2000/svg"><path fill="#F0F3FA" d="M0 0h56v56H0z"/><path d="M25.95 13.24a.12.12 0 0 1-.04-.2.11.11 0 0 1 .08-.02c3.41-.11 6.3.3 8.64 1.24 3.6 1.43 5.72 4.73 4.1 8.59a13.95 13.95 0 0 1-4.15 5.36c-.5.42-6.9 5.33-19.22 14.75a.22.22 0 0 1-.36-.18v-9.5a.73.73 0 0 1 .3-.6c5.8-4.4 10.5-8 14.06-10.77 2.04-1.58 2.64-4.29.73-6.2-.98-.98-2.36-1.8-4.14-2.47Z" fill="#226293"/><path d="M15.12 13.04c4.83-.03 8.42-.48 12.3 2.32 1.5 1.07 2.45 2.9 1.34 4.62-.54.83-1 1.02-2 1.02H15.42a.4.4 0 0 1-.29-.13.44.44 0 0 1-.12-.3v-7.4a.13.13 0 0 1 .12-.13Z" fill="#879EBE"/><path d="m26.15 36.31 6.3-4.76a.24.24 0 0 1 .33.03l10.16 11.01a.24.24 0 0 1-.18.41H32.07a.24.24 0 0 1-.18-.08l-5.77-6.25a.24.24 0 0 1 .03-.36Z" fill="#4E4684"/></svg>