<!-- by TradingView --><svg width="56" height="56" viewBox="0 0 56 56" xmlns="http://www.w3.org/2000/svg"><path fill="url(#a)" d="M0 0h56v56H0z"/><path d="M40.66 33.64a.05.05 0 0 0 .02.08 7.54 7.54 0 0 0 3.26.78.06.06 0 0 1 .06.06v7.37a.05.05 0 0 1-.02.04h-.01l-.02.01c-1.93 0-3.8-.37-5.6-1.1a15 15 0 0 1-5.43-3.7 7.95 7.95 0 0 0-5.88-2.68.05.05 0 0 0-.04.04v7.35a.1.1 0 0 1-.04.08.11.11 0 0 1-.08.03 14.85 14.85 0 0 1-9.84-3.85 14.49 14.49 0 0 1-4.75-8.32 14.5 14.5 0 0 1 1.55-9.97 14.69 14.69 0 0 1 7.56-6.74 14.95 14.95 0 0 1 10.64-.3 15.08 15.08 0 0 1 10.18 13.74c.07 2.49-.45 4.85-1.56 7.08Zm-6.22-4.85.08-.3a7.4 7.4 0 0 0-2.02-6.74 7.3 7.3 0 0 0-4.75-2.21 7.55 7.55 0 0 0-8.17 7.13 7.32 7.32 0 0 0 2.57 5.95 7.15 7.15 0 0 0 4.76 1.87c.04 0 .09-.04.09-.08V27l.03-.01a15.5 15.5 0 0 1 7.34 1.83.05.05 0 0 0 .04 0 .05.05 0 0 0 .03-.03Z" fill="url(#b)"/><defs><linearGradient id="a" x1="10.42" y1="9.71" x2="68.15" y2="76.02" gradientUnits="userSpaceOnUse"><stop stop-color="#1A1E21"/><stop offset="1" stop-color="#06060A"/></linearGradient><linearGradient id="b" x1="14.29" y1="17.27" x2="34.04" y2="42.17" gradientUnits="userSpaceOnUse"><stop stop-color="#0364DF"/><stop offset="1" stop-color="#0CD7FF"/></linearGradient></defs></svg>