<!-- by TradingView --><svg width="56" height="56" viewBox="0 0 56 56" xmlns="http://www.w3.org/2000/svg"><path fill="#F0F3FA" d="M0 0h56v56H0z"/><path d="M20.54 12.55a.7.7 0 0 1 .69-.55h6.99c.5 0 .87.46.76.94l-6.52 30.5a.7.7 0 0 1-.69.56h-6.99a.78.78 0 0 1-.76-.94l6.52-30.5Z" fill="url(#a)"/><path d="M30.6 17.9c.12-.53.6-.9 1.17-.9h4.35c.56 0 .98.5.86 1.01l-4.58 20.1c-.12.52-.6.89-1.17.89h-4.35c-.56 0-.98-.49-.86-1.01l4.58-20.1Z" fill="url(#b)"/><path d="M38.37 20.56a.73.73 0 0 1 .72-.56h3.34c.36 0 .63.32.56.67l-3.36 14.77a.73.73 0 0 1-.72.56h-3.34c-.36 0-.63-.32-.56-.67l3.36-14.77Z" fill="url(#c)"/><defs><linearGradient id="a" x1="21.5" y1="12" x2="23.41" y2="45.32" gradientUnits="userSpaceOnUse"><stop offset=".51" stop-color="#4CBFAE"/><stop offset=".51" stop-color="#060606"/><stop offset="1" stop-color="#4D4D4D"/></linearGradient><linearGradient id="b" x1="31.5" y1="17" x2="34.31" y2="39.58" gradientUnits="userSpaceOnUse"><stop offset=".48" stop-color="#4CBFAE"/><stop offset=".49" stop-color="#060606"/><stop offset="1" stop-color="#4D4D4D"/></linearGradient><linearGradient id="c" x1="39" y1="20" x2="41.8" y2="34.11" gradientUnits="userSpaceOnUse"><stop offset=".48" stop-color="#4CBFAE"/><stop offset=".49" stop-color="#060606"/><stop offset="1" stop-color="#4D4D4D"/></linearGradient></defs></svg>