<!-- by TradingView --><svg width="56" height="56" viewBox="0 0 56 56" xmlns="http://www.w3.org/2000/svg"><path fill="#F0F3FA" d="M0 0h56v56H0z"/><path d="M28 13.25c.4 0 .82-.15 1.13-.46.62-.62.62-1.65 0-2.33A1.6 1.6 0 0 0 28 10c-.42 0-.83.15-1.14.46a1.6 1.6 0 0 0-.47 1.14c0 .41.16.82.47 1.13.26.37.67.52 1.14.52Zm.46 1.08a.98.98 0 1 0 1.96 0 .98.98 0 0 0-1.96 0Zm-4.19 7.38a1.44 1.44 0 1 1-1.45-1.44c.83 0 1.45.67 1.45 1.44Zm5.12-.77a1.5 1.5 0 1 1 0 3 1.5 1.5 0 0 1 0-3Zm4.6 4.8c0-1.2-.98-2.17-2.17-2.17s-2.17.98-2.17 2.17c0 1.18.98 2.16 2.17 2.16S34 26.92 34 25.74Zm5.12 8.72a2.87 2.87 0 0 0 2.84-2.84c0-1.55-1.29-2.84-2.84-2.84a2.83 2.83 0 1 0 0 5.68Zm-10.44-.06a2.3 2.3 0 0 0 2.27-2.27 2.3 2.3 0 0 0-2.27-2.27 2.3 2.3 0 0 0-2.28 2.27 2.3 2.3 0 0 0 2.28 2.27Zm-1.55.78c1.8 0 3.25 1.44 3.25 3.25 0 1.75-1.5 3.2-3.25 3.25a3.24 3.24 0 0 1-3.26-3.25c0-1.8 1.45-3.25 3.26-3.25Zm4.44 5.16c0-1.8 1.45-3.25 3.26-3.25 1.8 0 3.26 1.5 3.26 3.25 0 1.8-1.45 3.25-3.26 3.25a3.24 3.24 0 0 1-3.26-3.25Zm-10.65-5.78a2.37 2.37 0 0 1 2.38 2.37 2.4 2.4 0 0 1-2.38 2.38 2.37 2.37 0 1 1 0-4.75Zm15.51-.31a2.37 2.37 0 0 1-2.38 2.37 2.37 2.37 0 1 1 0-4.75 2.37 2.37 0 0 1 2.38 2.38Zm-12.3-2.94a1.96 1.96 0 1 1 0 3.92 1.96 1.96 0 0 1 0-3.92Zm16.49-4.95c0 .92.72 1.65 1.65 1.65.93 0 1.66-.78 1.66-1.65 0-.93-.78-1.66-1.66-1.66-.93-.05-1.65.73-1.65 1.66ZM30.32 40.9c-.57 0-1.03.47-1.03 1.09a1.04 1.04 0 0 0 2.07 0c.05-.62-.42-1.09-1.04-1.09Zm-9.4.42c0-.93.72-1.65 1.65-1.65.93 0 1.7.72 1.65 1.65 0 .93-.72 1.65-1.65 1.65-.93 0-1.66-.72-1.66-1.65Zm23.05-10.27c-.93 0-1.65.77-1.65 1.65 0 .93.72 1.65 1.65 1.65.93 0 1.65-.77 1.65-1.65 0-.88-.72-1.65-1.65-1.65Zm-9.62.41a1.96 1.96 0 0 1-1.96-1.96c0-1.08.88-2.01 1.96-1.96a1.96 1.96 0 1 1 0 3.92Zm4.97 3.4a1.96 1.96 0 1 0 0 3.93 1.96 1.96 0 0 0 0-3.92Zm-1.14-6.44a1.96 1.96 0 0 1-1.96-1.96 1.9 1.9 0 0 1 1.96-1.96 1.96 1.96 0 1 1 0 3.92Zm9.05-3.25c0-.78-.62-1.45-1.45-1.45a1.44 1.44 0 1 0 0 2.9c.83 0 1.45-.68 1.45-1.45Zm-6.1-2.37a1.04 1.04 0 0 1-2.07 0 1.04 1.04 0 0 1 2.07 0Zm1.55 6.5c0 .67.57 1.23 1.24 1.23s1.24-.56 1.24-1.23c0-.67-.57-1.24-1.24-1.24-.73 0-1.24.57-1.24 1.24ZM22.3 31.2c-.73 0-1.3-.56-1.3-1.28 0-.73.57-1.35 1.3-1.3.72 0 1.3.57 1.3 1.3 0 .72-.58 1.28-1.3 1.28Zm11.11-10.26c-.72 0-1.29.57-1.29 1.29 0 .72.57 1.29 1.3 1.29.72 0 1.29-.57 1.29-1.3 0-.71-.52-1.28-1.3-1.28Zm13.55 9.85c-.57 0-1.04.47-1.04 1.03a1.04 1.04 0 0 0 2.07 0c0-.56-.46-1.03-1.03-1.03Zm-29.42-3.4c1.3 0 2.43.87 2.74 2.11a2.84 2.84 0 0 1-2.01 3.46l-.11.02c-.21.04-.4.08-.62.08-1.29 0-2.43-.87-2.74-2.11a2.84 2.84 0 0 1 2.02-3.46l.1-.02c.22-.05.4-.08.62-.08Zm-5.58 2.94a1.63 1.63 0 0 0 1.19-2.01 1.65 1.65 0 0 0-1.6-1.3c-.16 0-.26 0-.42.06-.41.1-.77.36-1.03.77a1.7 1.7 0 0 0 1.45 2.53c.07 0 .14-.01.2-.03l.2-.02Zm4.86 3.4c.1-.05.15-.05.26-.05.41 0 .82.26.93.67.15.47-.16.98-.67 1.14-.1.05-.16.05-.26.05-.47 0-.83-.26-.93-.67-.16-.47.15-.98.67-1.14Zm-.52-7.9a1.5 1.5 0 0 0 1.5 1.14c.16 0 .26 0 .36-.05.42-.1.73-.36.93-.72.21-.36.26-.77.16-1.13a1.5 1.5 0 0 0-1.45-1.14c-.15 0-.26 0-.36.05a1.54 1.54 0 0 0-1.14 1.86Zm-1.5 6.3a1.9 1.9 0 0 1-.2 1.5c-.26.46-.73.77-1.2.93-.2.05-.36.05-.51.05-.88 0-1.7-.62-1.91-1.5a1.9 1.9 0 0 1 .2-1.5c.26-.46.68-.77 1.2-.92.15-.05.35-.05.5-.05.89 0 1.72.62 1.92 1.5Zm-4.96-5.16c.1 0 .26 0 .36-.05.36-.1.67-.3.88-.67.2-.3.26-.72.15-1.08a1.44 1.44 0 0 0-1.4-1.09c-.1 0-.25 0-.35.06-.36.1-.67.3-.88.67-.2.3-.26.72-.16 1.08.16.62.73 1.08 1.4 1.08ZM8.76 30.7c.1-.05.16-.05.26-.05.47 0 .83.3.98.77.16.52-.2 1.08-.72 1.24-.1.05-.15.05-.26.05a1 1 0 0 1-.98-.77.98.98 0 0 1 .72-1.24Zm23.53 6.8c.1-.2.15-.46.1-.66a.89.89 0 0 0-.88-.67c-.05 0-.15 0-.2.05-.47.1-.78.62-.68 1.13.1.42.47.68.88.68.05 0 .16 0 .2-.06.27-.1.42-.25.58-.46Zm-3.73-8.76c-.05-.2-.05-.52.1-.72.16-.21.37-.37.63-.47.1-.05.15-.05.26-.05a1 1 0 0 1 .93.72c.05.26.05.52-.1.72a.92.92 0 0 1-.63.47c-.1.05-.15.05-.26.05a1 1 0 0 1-.93-.72Zm-14.21-.88c.15 0 .26 0 .41-.05a1.5 1.5 0 0 0 1.09-1.86 1.5 1.5 0 0 0-1.5-1.13c-.16 0-.26 0-.42.05-.41.1-.72.36-.93.72-.2.36-.26.78-.15 1.19.2.57.82 1.08 1.5 1.08Zm2.43 8.3a1.44 1.44 0 0 1 .36 2.85c-.1.05-.26.05-.36.05a1.44 1.44 0 0 1-.37-2.84c.1-.05.26-.05.37-.05Zm-.68-12.27c.1 0 .16 0 .26-.05.26-.05.47-.26.62-.47.16-.26.16-.51.1-.77a1 1 0 0 0-.98-.78c-.1 0-.15 0-.25.06-.26.05-.47.25-.62.46-.16.26-.16.52-.1.77a1 1 0 0 0 .97.78ZM14.4 34.7c.52 0 .93.31 1.03.78.16.56-.15 1.13-.77 1.29-.1.05-.21.05-.31.05-.52 0-.93-.31-1.04-.78-.15-.56.21-1.13.78-1.29.1-.05.2-.05.3-.05Zm7.03-14.55a.7.7 0 0 1-.72-.72c0-.36.3-.67.72-.72.41 0 .72.36.72.72 0 .41-.36.72-.72.72Zm-.93 6.25a.82.82 0 0 0-.83.82c0 .47.36.83.83.83.46 0 .83-.36.83-.83a.82.82 0 0 0-.83-.82Zm.05 7.68a.7.7 0 0 1-.72-.72.7.7 0 0 1 .72-.72c.41 0 .72.3.72.72a.7.7 0 0 1-.72.72Zm-1.91 4.8a.82.82 0 0 0-.83.83c0 .46.36.82.83.82.46 0 .82-.36.82-.82a.82.82 0 0 0-.82-.83Zm13.9-7.43c0 .36-.3.67-.67.67a.68.68 0 0 1-.67-.67c0-.36.31-.67.67-.67.36 0 .67.31.67.67Zm9.41 2.63a.82.82 0 0 0-.82.83c0 .46.36.83.82.83.47 0 .83-.37.83-.83.05-.46-.36-.83-.83-.83ZM27.8 23.88c.57.62.93 1.4.93 2.27a3.2 3.2 0 0 1-5.48 2.27 3.11 3.11 0 0 1-.93-2.27c0-.88.3-1.65.93-2.27.62-.62 1.4-.93 2.27-.93.88 0 1.66.3 2.28.93Zm-1.7-6.55c.5 0 .97-.21 1.34-.57a1.87 1.87 0 0 0 0-2.68 1.88 1.88 0 0 0-2.7 0 1.93 1.93 0 0 0 0 2.68c.37.36.84.57 1.35.57Zm8.88 2.63a1.88 1.88 0 0 1-2.68 0 1.93 1.93 0 0 1 0-2.69 1.88 1.88 0 0 1 2.68 0c.73.73.73 1.97 0 2.69ZM19.1 40.9c-.41 0-.77.16-1.08.47a1.48 1.48 0 0 0 0 2.17 1.49 1.49 0 0 0 2.17 0 1.48 1.48 0 0 0 0-2.17 1.4 1.4 0 0 0-1.09-.47Zm5.84-22.65a2 2 0 0 1 1.5-.61 2 2 0 0 1 1.5.61c.42.37.62.93.62 1.5s-.2 1.08-.62 1.5a2 2 0 0 1-1.5.62c-.56 0-1.08-.21-1.5-.62a1.98 1.98 0 0 1-.62-1.5c0-.57.21-1.08.63-1.5Zm-3.87-1.75c-.2.26-.52.36-.83.36-.31 0-.57-.1-.83-.36-.46-.41-.46-1.13 0-1.6.21-.2.52-.3.83-.3.31 0 .62.1.83.3.46.41.46 1.14 0 1.6Zm1.91 2.27c.31 0 .62-.1.88-.36.46-.46.46-1.29 0-1.75a1.21 1.21 0 0 0-.88-.37c-.31 0-.62.16-.88.37a1.28 1.28 0 0 0 0 1.75c.26.2.57.36.88.36Zm5.79-.26a1.62 1.62 0 0 1 0-2.27c.31-.3.67-.46 1.14-.46.41 0 .82.15 1.14.46.62.62.62 1.65 0 2.27-.32.31-.73.47-1.14.47a1.6 1.6 0 0 1-1.14-.47Zm6.93-1.54c.3 0 .62-.1.83-.37.46-.46.46-1.18 0-1.6-.21-.2-.52-.3-.83-.3-.31 0-.62.1-.83.36-.46.46-.46 1.18 0 1.6.2.2.52.3.83.3Zm-5.48 3.3c0-.36.3-.67.67-.67.36 0 .67.25.67.67 0 .36-.3.67-.67.67a.68.68 0 0 1-.67-.67Z" fill="#C69214"/></svg>