<!-- by TradingView --><svg width="56" height="56" viewBox="0 0 56 56" xmlns="http://www.w3.org/2000/svg"><path fill="#F0F3FA" d="M0 0h56v56H0z"/><path d="M29.18 15.75v.01c-1.46.57-3.24 1.95-4.42 3l-.25.24-.01.01c-2.49 0-4.4.04-6.99 0-.46 0-.48.39-.48.84C17 27 17 41 17 41h-3.99s-.03-15.66 0-24c0-1.24.98-1.99 2-2h11c1.04.02 2.28.16 3.17.75Z" fill="#174882"/><path d="M21.6 31.47h-.01a15.1 15.1 0 0 1-.17-5.21 13.36 13.36 0 0 1 3.38-7.18 12.37 12.37 0 0 1 4-2.9c1.76-.83 3.7-1.19 5.63-1.17 1.08.01 2.15.12 3.2.36.76.18 1.5.43 2.2.76a13.91 13.91 0 0 1 2.54 1.55c.65.52.82 1.45.4 2.16-.51.9-1.69 1.13-2.5.5a9 9 0 0 0-3.51-1.68c-.87-.2-1.79-.28-2.69-.26a8.9 8.9 0 0 0-7.77 4.5c-.85 1.45-1.3 3.08-1.39 4.77A17.16 17.16 0 0 0 24.9 29c-.37.3-.75.59-1.15.88-.88.63-1.46 1.04-2.14 1.6Z" fill="#39BFEF"/><path d="M26.22 32.97c1.84 2.8 4.53 4.07 7.9 4.02 2.47-.05 4.3-.85 6.36-2.07.9-.54 2.03.38 2.41 1.38.22.6.1 1.25-.3 1.74-1.85 2.19-5.8 3.01-8.47 2.96-5.6-.12-10.35-3.82-12.1-9.21l-.01-.01c1.2-.94 2.4-1.85 3.56-2.8l.01-.02h.01c2.33-1.86 5.33-3.52 4-7.13a2.48 2.48 0 0 0-1.02-1.12v-.01a8.4 8.4 0 0 1 3.24-1.7l.01.01a5.46 5.46 0 0 1 1.34 2.6 8.34 8.34 0 0 1-.59 5.28c-.78 1.6-2.18 2.58-3.5 3.68l-2.85 2.4Z" fill="#174882"/></svg>