<!-- by TradingView --><svg width="56" height="56" viewBox="0 0 56 56" xmlns="http://www.w3.org/2000/svg"><path fill="#F0F3FA" d="M0 0h56v56H0z"/><path d="M38.98 24.79c.54-.65.81-1.4.82-2.28 0-.35.37-.52 1.1-.5.04 0 .07 0 .1.02.2.1.3.28.3.52 0 .51-.17.98-.53 1.4a2.51 2.51 0 0 1-1.77.9l-.01-.02a.03.03 0 0 1-.01-.03v-.01ZM9.3 22.06c.42 0 .85.12 1.3.35.51.25.85.68 1.02 1.3a3.1 3.1 0 0 1-.03 1.7c-.2.7-.7 1.22-1.51 1.57h-.01a.03.03 0 0 0 0 .03v.01c.34.3.61.66.83 1.11.29.6.57 1.22.86 1.88.15.34.28.57.4.7.17.15.4.24.7.26a7.41 7.41 0 0 1 .32.05v.04c-.03.05-.06.14-.1.27-.1.35-.27.57-.52.67h-1.73a.13.13 0 0 1-.12-.07 225.64 225.64 0 0 0-1.6-3.46c-.3-.61-.54-.87-1.04-.77a.06.06 0 0 0-.04.03l-.03.03V30c0 .5.13.77.4.84.22.06.31.09.58.08l.04.01.03.03a.09.09 0 0 1 0 .08l-.04.15c-.13.4-.24.66-.47.76a.75.75 0 0 1-.14.05H5h.04l-.02-.02-.01-.03v-.02l.3-1a.1.1 0 0 1 .04-.05.1.1 0 0 1 .06-.02c.3.02.5-.1.6-.39.07-.16.12-.44.14-.83a45.64 45.64 0 0 0 .05-3c.03-1.34.04-2.27.02-2.78 0-.53-.26-.8-.76-.82a2.39 2.39 0 0 1-.27-.03.04.04 0 0 1-.02-.03v-.02l.27-.76c.04-.09.13-.15.27-.2h.04l3.55.06ZM19.96 22a.2.2 0 0 1 .14.07c.04.04.07.1.07.16v1.67c0 .04-.02.08-.05.12-.09.1-.22.2-.4.25h-.05a.07.07 0 0 1-.03-.03c-.18-.47-.59-.71-1.23-.74h-1.96c-.29 0-.45.18-.45.55v2.03c0 .02.03.03.04.05l.05.01h1.47c.16-.01.31-.06.43-.15a.1.1 0 0 0 .04-.06l.06-.27a.4.4 0 0 1 .19-.25l.6-.32c.05-.02.08-.01.11.03a.2.2 0 0 1 .03.1c.01.7.02 1.5.01 2.41 0 .2-.07.34-.2.42a4.24 4.24 0 0 1-.57.25.14.14 0 0 1-.07-.02.15.15 0 0 1-.04-.06.16.16 0 0 1-.02-.07c0-.32-.05-.53-.14-.63-.1-.11-.3-.17-.6-.18a33.5 33.5 0 0 0-1.36 0l-.03.03v2.47c0 .28.11.47.26.57.12.08.32.1.6.09l.57-.01c.66 0 1.15-.04 1.45-.12.38-.1.64-.32.8-.67a.06.06 0 0 1 .07-.03c.17.06.31.16.42.3.02.03.03.07.03.1v1.81c0 .02 0 .03-.02.04l-.03.02c-.08 0-.2 0-.37.02l-.3.01c-2.1-.01-4.02 0-5.79.03-.1 0-.2-.02-.27-.07-.09-.07-.1-.15-.06-.26l.3-.68c.05-.1.13-.2.23-.24.33-.15.49-.48.48-.97l-.03-5.7c0-.64-.29-.98-.85-1.03a.2.2 0 0 1-.1-.04.24.24 0 0 1-.07-.3l.33-.6a.2.2 0 0 1 .07-.08.2.2 0 0 1 .1-.03h6.14Zm7.82 0a.2.2 0 0 1 .15.07c.04.04.07.1.07.15v1.68a.2.2 0 0 1-.05.11c-.09.11-.22.2-.4.26h-.05a.07.07 0 0 1-.03-.04c-.18-.46-.47-.7-1.1-.73a60 60 0 0 0-1.97 0c-.29 0-.4.18-.4.55v2.07l.04.02h1.47c.17-.01.31-.06.44-.15a.1.1 0 0 0 .04-.06l.06-.27c0-.05.03-.1.06-.15a.39.39 0 0 1 .12-.1l.6-.33c.05-.02.09 0 .12.03.01.03.05.06.05.12v2.4c0 .2-.08.34-.22.42a4.35 4.35 0 0 1-.57.25.14.14 0 0 1-.06-.03.16.16 0 0 1-.06-.13c0-.31-.05-.52-.15-.62-.1-.11-.3-.17-.6-.18a35.28 35.28 0 0 0-1.36 0l.02.03v2.46c0 .29.07.48.22.58.12.07.32.1.6.09l.57-.01c.66 0 .98-.04 1.29-.13.37-.1.63-.32.79-.66l.03-.03h.04c.18.06.32.16.42.3.02.03.03.06.03.1v1.8l-.01.04-.04.02c-.08 0-.2 0-.37.02-.15.01-.25.05-.3.05h-5.62c-.1 0-.2-.02-.27-.07-.09-.07-.11-.15-.07-.26l.3-.68c.05-.1.13-.2.23-.24.33-.15.5-.48.49-.97l-.04-5.7c0-.64-.29-.98-.85-1.03a.2.2 0 0 1-.1-.04.22.22 0 0 1-.07-.08.24.24 0 0 1 0-.22l.33-.6a.2.2 0 0 1 .07-.08.2.2 0 0 1 .1-.03h6.01Zm5.56 0c.78 0 1.36.04 1.72.15a4.22 4.22 0 0 1 2.96 3.05c.46 1.52.34 3-.37 4.44a4.14 4.14 0 0 1-2.6 2.23c-.32.1-.79.14-1.41.13H29.4c-.22 0-.31-.14-.28-.4.02-.16.09-.35.2-.55a.2.2 0 0 1 .05-.07.19.19 0 0 1 .1-.03c.34-.04.52-.36.52-.97v-5.66c0-.73-.18-1.14-.53-1.23a2.58 2.58 0 0 0-.39-.06.2.2 0 0 1-.15-.1.21.21 0 0 1-.01-.18l.2-.6a.24.24 0 0 1 .08-.1.21.21 0 0 1 .13-.05h4Zm.5 1.35a3.95 3.95 0 0 0-1.29-.03c-.37.05-.62.2-.74.46-.09.18-.13.5-.13.97v4.5a10.98 10.98 0 0 0 .12 1.3l.04.02c2.59.51 4.07-.29 4.46-2.4.2-1.12.1-2.12-.3-3.02-.43-.99-1.16-1.59-2.17-1.8Zm-25.68-.12h-.05c-.01 0-.02 0-.03.02l-.08.04v2.73l.07.03.03.02c.52 0 .69 0 .82-.03.86-.15 1.2-.77 1.04-1.84-.07-.46-.32-.76-.74-.9-.24-.07-.5-.1-1.06-.07ZM48.07 30.25l.38.14a.08.08 0 0 1 .04.05c.03.13.14.2.34.2h2.43a.22.22 0 0 0 .2-.14l.09-.22.01-.02h.02l.38.13.03.03v1.54a.04.04 0 0 1 0 .03l-.02.01h-.02l-.38-.14a.08.08 0 0 1-.04-.03.08.08 0 0 1-.01-.04c-.02-.21-.15-.32-.4-.32h-2.24c-.26 0-.39.17-.39.5V32h-.03l-.44-.16-.02-.02v-1.53l.02-.02.03-.01h.02Zm.4-4.63.01.02.01.03c0 .18.13.28.39.3a24.18 24.18 0 0 0 2.92-.01.1.1 0 0 1 .04.04l.16.38v.08a35.96 35.96 0 0 0-2.5 2.1v.02l.03.01h1.06c.32 0 .54-.06.66-.17.13-.12.2-.35.2-.68l.01-.02.02-.02h.04l.36.13a.08.08 0 0 1 .05.08v1.74l-.01.02h-.03l-.4-.15a.05.05 0 0 1-.04-.04c0-.22-.15-.32-.42-.32a512.4 512.4 0 0 0-2.23.01c-.22.08-.33.25-.32.52v.02h-.02l-.44-.17-.01-.01-.01-.02v-.81a.11.11 0 0 1 .05-.1c.45-.26 1.1-.79 1.94-1.57a65.79 65.79 0 0 1 .5-.48v-.01H48.9c-.27.09-.41.4-.43.91a.05.05 0 0 1-.02.04h-.04l-.38-.14a.06.06 0 0 1-.03-.02.06.06 0 0 1-.01-.04v-1.83h.01l.45.16Zm3.3-3.45.03.01v.02l.2.89v.58c-.21 1.26-.93 1.83-2.16 1.73-.95-.08-1.54-.6-1.76-1.54a4.7 4.7 0 0 1 .02-1.73.06.06 0 0 1 .04-.02h.95l.26.58a.02.02 0 0 1 0 .02v.01h-.02c-.33-.02-.54.07-.63.28-.07.15-.08.4-.04.76.04.33.21.55.53.67.28.1.6.14.97.1.7-.06 1.08-.46 1.14-1.18a3.36 3.36 0 0 0-.2-1.35h.02l.65.17ZM46.98 31l.01.02.01.01v.02l-.37.93-.01.01-.03.01H42.02l-.01-.02-.01-.01v-.02l.37-.93.01-.01.03-.01H46.98Zm-2.7-9c.7-.01 1.4.02 2.08.1.1 0 .18.04.25.1l.04.05.01.08v1.6c0 .04 0 .08-.03.12a.24.24 0 0 1-.1.1l-.62.33c-.2.08-.28.01-.28-.21.02-.63-.14-.98-.5-1.07-.28-.08-.55-.1-.82-.07-.35.05-.57.18-.64.41-.18.57.16 1.07 1.03 1.52l.21.1c.75.39 1.27.72 1.56 1 .45.44.61 1.05.49 1.86-.22 1.4-1.22 2.05-3 1.97l-1.45-.07c-.34-.03-.5-.28-.47-.78.02-.43.03-.98.02-1.65 0-.05.01-.1.04-.15a.27.27 0 0 1 .11-.1l.69-.35h.05c.1 0 .18.04.24.14l.02.08v.07c-.03.87.13 1.36.48 1.46.3.1.7.1 1.16.05.36-.04.57-.24.64-.6.1-.56-.2-1.04-.9-1.43a44 44 0 0 0-.49-.26 9.45 9.45 0 0 1-1.4-.87c-.59-.47-.8-1.1-.65-1.86.1-.54.37-.95.8-1.25.39-.27.86-.4 1.42-.42ZM52 33.04v.05l-.38.89-.01.01-.02.01H5.03L5 33.97 5 33.96v-.02l.4-.91.01-.02.03-.01 46.56.04Z" fill="#E11F26"/></svg>