<!-- by TradingView --><svg width="56" height="56" viewBox="0 0 56 56" xmlns="http://www.w3.org/2000/svg"><path fill="#F0F3FA" d="M0 0h56v56H0z"/><path d="M6.12 25c.43 0 .8.08 1.1.24.29.16.51.39.66.67.16.3.23.63.23 1 0 .4-.07.73-.23 1.01a1.57 1.57 0 0 1-.78.7L8.32 31H7.18l-1.11-2.2H5V31H4v-6h2.12ZM10 31H9v-6h1v6Zm3.42-1.28h.05L14.94 25h1.13l-2 6h-1.26l-1.99-6h1.13l1.47 4.72ZM20.98 26H18v1.54h2.77v.91H18V30h3v1h-4v-6h3.98v1Zm3.14-1c1.16 0 2 .74 2 1.92 0 .38-.08.72-.24 1a1.57 1.57 0 0 1-.78.7L26.32 31h-1.14l-1.11-2.2H23V31h-1v-6h2.12Zm4.79 0c.4 0 .75.07 1.05.22.3.14.55.34.72.6.17.24.26.53.27.86h-.99a.78.78 0 0 0-.32-.58c-.2-.14-.44-.2-.74-.2-.22 0-.4.03-.55.1a.82.82 0 0 0-.35.26.67.67 0 0 0-.05.71c.06.09.13.17.23.23.09.06.2.11.3.15.12.04.24.08.35.1l.53.14c.22.05.42.12.62.21s.38.2.53.33c.16.14.28.3.38.48.09.2.13.41.13.66 0 .35-.08.65-.25.9-.17.26-.41.47-.73.61-.32.15-.7.22-1.16.22-.44 0-.82-.07-1.15-.21a1.72 1.72 0 0 1-.75-.62c-.18-.27-.28-.6-.3-.98h1.01c.02.2.08.37.18.5.11.14.25.24.42.3.18.07.37.1.58.1.22 0 .42-.03.59-.1.17-.07.3-.16.4-.29.09-.12.14-.27.14-.43a.57.57 0 0 0-.13-.38.95.95 0 0 0-.36-.25 3.37 3.37 0 0 0-.52-.18l-.65-.17a2.56 2.56 0 0 1-1.1-.56c-.27-.26-.4-.6-.4-1.01 0-.34.09-.64.27-.9.18-.26.42-.46.74-.6A2.5 2.5 0 0 1 28.9 25Zm6.84 1H34v5h-1v-5h-1.76v-1h4.51v1Zm2.75-1a2.34 2.34 0 0 1 2.17 1.39c.22.44.33.98.33 1.61 0 .63-.1 1.17-.33 1.62A2.34 2.34 0 0 1 38.5 31a2.35 2.35 0 0 1-2.17-1.39A3.67 3.67 0 0 1 36 28c0-.63.1-1.17.33-1.61A2.35 2.35 0 0 1 38.5 25Zm7.35 4.09H46V25h1v6h-.98l-2.87-4.09H43V31h-1v-6h.99l2.86 4.09Zm6.13-3.18H49v1.63h2.77v.91H49v1.64h3V31h-4v-6h3.98v.91Zm-13.48.04c-.3 0-.56.08-.78.24-.23.15-.4.38-.54.69-.12.3-.19.68-.19 1.12 0 .44.07.82.2 1.12a1.35 1.35 0 0 0 1.32.93c.29 0 .55-.08.77-.23.23-.16.4-.4.54-.7.12-.3.19-.68.19-1.12 0-.44-.07-.82-.2-1.12-.12-.3-.3-.54-.53-.7a1.34 1.34 0 0 0-.78-.23ZM5 27.9h.97c.25 0 .46-.04.62-.11a.76.76 0 0 0 .36-.33c.08-.15.12-.33.12-.54 0-.21-.04-.4-.12-.55a.77.77 0 0 0-.36-.34 1.42 1.42 0 0 0-.63-.12H5v1.99Zm18 0h.97c.25 0 .46-.04.62-.11a.76.76 0 0 0 .36-.33c.08-.15.12-.33.12-.54 0-.67-.46-.92-1.1-.92H23v1.9Z"/></svg>