<!-- by TradingView --><svg width="56" height="56" viewBox="0 0 56 56" xmlns="http://www.w3.org/2000/svg"><path fill="#F0F3FA" d="M0 0h56v56H0z"/><path d="M8 34V22h3v12H8ZM15 27v7h-3V22h2.5l5.5 7v-7h3v12h-2.5L15 27ZM30 34c-3.29 0-6-2.75-6-6.02 0-3.24 2.7-5.98 5.95-5.98a6.05 6.05 0 0 1 5.88 6.03A5.91 5.91 0 0 1 30 34Zm0-2.5c1.97 0 3.03-1.68 3.03-3.52 0-1.81-1.09-3.48-3.03-3.48-1.95 0-3 1.74-3 3.53 0 1.84 1.04 3.47 3 3.47ZM29 29h2.5l4.5 5h-2.5L29 29ZM43 34c-3.29 0-6-2.75-6-6.02 0-3.24 2.7-5.98 5.95-5.98a6.05 6.05 0 0 1 5.88 6.03A5.91 5.91 0 0 1 43 34Zm0-2.5c1.97 0 3.03-1.68 3.03-3.52 0-1.81-1.09-3.48-3.03-3.48-1.95 0-3 1.74-3 3.53 0 1.84 1.04 3.47 3 3.47ZM42 29h2.5l4.5 5h-2.5L42 29Z" fill="#DFB924"/></svg>