<!-- by TradingView --><svg xmlns="http://www.w3.org/2000/svg" width="56" height="56" viewBox="0 0 56 56"><path fill="#F0F3FA" d="M0 0h56v56H0z"/><path fill-rule="evenodd" d="M14.1 19H7v12h3.5v-4.77c.46-.04 1.24.05 1.74.67.59.71 1.5 2.57 1.87 3.41.63-.12 2.28-.38 3.89-.46-.32-1.1-1.4-3.4-3.22-4.11A3.4 3.4 0 0 0 14.1 19zm-1.6 2h-2v3h2a1.5 1.5 0 0 0 0-3zM21.5 25a6 6 0 0 1 12 0v.67c0 1.15-.32 2.22-.88 3.13-.79.13-1.99.3-2.56.28h-.14c-1.1-.05-5.57-.21-6.96.51a5.98 5.98 0 0 1-1.46-3.92V25zm3.5-.75a2.5 2.5 0 0 1 5 0v2.05a2.5 2.5 0 0 1-5 0v-2.05z" fill="#013F2C"/><path d="M43.15 19A6.15 6.15 0 0 0 37 25.15v.37c0 1.35.44 2.6 1.18 3.63.98.3 2.6.72 4.13.95l4.74.18a6.16 6.16 0 0 0 1.94-2.8l-3.3-.9a2.61 2.61 0 0 1-5.19-.39v-1.83a2.6 2.6 0 0 1 5.1-.8l3.28-.67A6.16 6.16 0 0 0 43.15 19z" fill="#013F2C"/><path fill-rule="evenodd" d="M37.14 29.36l4.61 1.6 6.44-.25.02.5-3.7.15c.34 0 .72.03 1.1.07.9.1 1.9.3 2.7.72l-.22.45a7.43 7.43 0 0 0-2.53-.67 11.5 11.5 0 0 0-2.1-.03l-10.82 2.4h-.05c-1.1-.23-1.76-.04-2.11.2h14.65l-4.55-.7.08-.5 7.85 1.2-.03.5H7v-.5h8.16c.48-.42 1.74-1.01 3.75-.9.58.04 1.3.06 2.12.1h.32a136.02 136.02 0 0 1 4.7.28l-3.55-.52.98-.98c-1.34-.4-4.03-.89-6.5-.24h-.01l-5.1.38-1.95.92H7v-.5h2.81l1.77-.84-2.41.43H7v-.51h2.12l7.94-1.4h3.15v-.35h2.76l.9-.57h7.16l.87-.42h1.24l.69.23 2.4.18.91-.43zm-1.36.9l-2.05-.15-.67-.22H32l-.87.42h-7.12l-.65.4h2.42l.47.67.15-.67h1.41l.54.38h1.2v.5H28.2l-.54-.37h-.85l-.31 1.38-.97-1.38h-2.74v-.34H20.7v.34H17.1l-4.91.87 4.7-.35c2.85-.74 5.94-.05 7.14.4l.38.13-.84.84 4.46.64V32.7l2.2-.53v-1.02l3.56-.98.07.02c1.05.38 1.62.26 1.92.08zm.6.14c-.34.46-1.17.79-2.6.3l-3.05.84v1.03l-2.2.53v1.24l-.77-.11.17.04c.25.06.47.13.64.22h1.2c.31-.5 1.22-1.02 2.87-.7l10.7-2.38-4.96.2-2-1.2zm-10.26 4.1c-.58-.07-1.21-.11-1.88-.15-.96-.06-1.97-.1-2.9-.14L21 34.2c-.8-.03-1.54-.06-2.12-.1a6.17 6.17 0 0 0-2.74.4h9.97zm10.7-4.42l.35-.17 3.2 1.1-1.86.08-1.7-1.01z" fill="#A8AAA9"/><path d="M7 36h11v2H7v-2zm13 0h18v2H20v-2zm29 0h-9v2h9v-2z" fill="#013F2C" fill-opacity=".7"/></svg>