<!-- by TradingView --><svg width="56" height="56" viewBox="0 0 56 56" xmlns="http://www.w3.org/2000/svg"><path fill="url(#ar23ju2nc)" d="M0 0h56v56H0z"/><path d="M11 20H8v16h3V20.5h4c2.13 0 4.5 1.78 4.5 4.5 0 3.22-2.2 4.02-4.97 4h-.76l4.82 7h.68l-4.42-6.43c2.97 0 5.15-1.24 5.15-4.57 0-3.04-2-5-5-5h-4ZM27 20h-2v16h3V20.5h3c2.4 0 4.5 1.74 4.5 4.5 0 3.62-2.56 4.5-5.5 4.5v.5h.03c3.23 0 5.97-1.06 5.97-5 0-3.09-2.3-5-5-5h-4ZM44 20h-7v.5l4 .03V36h3V20.55l4 .03v-.57h-4V20Z" fill="#fff"/><defs><linearGradient id="ar23ju2nc" x1="10.42" y1="9.71" x2="68.15" y2="76.02" gradientUnits="userSpaceOnUse"><stop stop-color="#1A1E21"/><stop offset="1" stop-color="#06060A"/></linearGradient></defs></svg>