<!-- by TradingView --><svg width="56" height="56" viewBox="0 0 56 56" xmlns="http://www.w3.org/2000/svg"><path fill="#F0F3FA" d="M0 0h56v56H0z"/><path d="M15.73 22H12c2.52-5.11 7.66-10 15.9-10 6.6 0 11.39 3.68 12.96 5.52l-.07.3c-1.25-1.44-5.13-4.3-10.62-4.3-8.77 0-13.28 5.65-14.44 8.48Z" fill="#939598"/><path d="M39.53 22H43a14.6 14.6 0 0 0-13.43-8c-6.63 0-9.83 4.15-11.16 5.62l.06.24c1.06-1.15 4.66-4.26 9.3-4.26 7.4 0 10.78 4.14 11.76 6.4ZM15.73 34H12c2.52 5.63 7.66 11 15.9 11 6.6 0 11.39-4.05 12.96-6.08l-.07-.32c-1.25 1.58-5.13 4.73-10.62 4.73A15.37 15.37 0 0 1 15.73 34Z" fill="#1A3B5D"/><path d="M39.53 34H43c-2.13 4.5-6.47 8.8-13.43 8.8-6.63 0-9.83-4.56-11.16-6.18l.06-.26c1.06 1.26 4.66 4.69 9.3 4.69 7.4 0 10.78-4.56 11.76-7.05Z" fill="#939598"/><path d="M21.37 23.2V23h1.29c.7.94 2.04 2.85 2.04 2.85V23.2h-.5V23h1.35v.2H25v3.82l-2.7-3.48v3.3h.47V27h-1.31v-.15H22V23.2h-.63Zm-9.21-.2L12 24h.16c.09-.66.44-.84.61-.84h.73v3.39c0 .15-.23.28-.4.28h-.28V27h1.62v-.17h-.16a.29.29 0 0 1-.3-.28v-3.4h.66c.56 0 .7.57.7.85h-.15v.17h.31v2.67h-.31V27h1.11v-.16H16V25.4h1v1.44h-.35V27h1.12v-.16h-.27v-2.67h.27V24h-1.12v.17H17v1.08h-1v-1.08h.3V24h-.8l-.15-1H12.16Zm26.02 1v.17h.32v2.67h-.32V27h1.11v-.16H39v-2.67h.3V24h-1.12Zm-19.94 0v.18h.26v2.64h-.26V27h2.1l.11-.93h-.11c-.02.25-.14.75-.5.75H19v-1.38h.52c.17 0 .32.15.32.32v.3H20v-1.28h-.16v.17c0 .18-.15.32-.32.32H19v-1.1h.84c.36 0 .48.5.5.76h.11l-.11-.93h-2.1Zm7.47.18V24h2.1l.1.93h-.1c-.02-.25-.14-.75-.5-.75h-.81v1.09h.39c.16 0 .3-.14.3-.32v-.17h.15v1.27h-.15v-.29c0-.17-.14-.32-.3-.32h-.39v1.38h.8c.37 0 .49-.5.5-.75h.12l-.12.93h-2.1v-.18h.3v-2.64h-.3Zm5.52-.18v.18h.27v2.64h-.27V27h2.1l.1-.93h-.1c-.03.25-.15.75-.5.75H32v-1.38h.4c.17 0 .3.15.3.32v.3h.15v-1.28h-.15v.17c0 .18-.13.32-.3.32H32v-1.1h.82c.36 0 .48.5.5.76h.12l-.12-.93h-2.1Zm-.53 1.14h-.18c-.03-.32-.24-.96-.83-.96-.7 0-.7.92-.69 1.33v.07c0 .37.04 1.29.7 1.29.64 0 .88-.52.88-.87h.22v1h-.15l-.07-.3c-.08.1-.37.3-.89.3-.65 0-1.19-.48-1.19-1.47S28.95 24 29.7 24c.38 0 .7.18.82.3V24h.18v1.14Zm3 1.86v-1h.17c-.16 1.1 1.35 1.09 1.35.4 0-.36-.44-.62-.85-.86-.37-.23-.72-.44-.72-.7 0-.75.57-.84 1-.84.35 0 .52.15.57.21l.07-.21h.17v.9h-.17c0-.53-.42-.68-.64-.69-.16.02-.48.13-.48.47 0 .33.42.55.63.62.3.1.9.4.9.88 0 .64-.68.82-1.18.82-.39 0-.56-.1-.6-.16l-.05.16h-.17Zm2.34-1v1h.17l.06-.16c.03.05.2.16.58.16.49 0 1.15-.18 1.15-.82 0-.48-.58-.79-.87-.88-.2-.07-.62-.29-.62-.62 0-.34.31-.45.47-.47.2.01.62.16.62.68h.17V24h-.17l-.07.21c-.04-.06-.2-.21-.55-.21-.43 0-.98.1-.98.84 0 .26.34.47.7.7.4.24.83.5.83.86 0 .69-1.47.7-1.32-.4h-.16Zm3.53-1.06.1-.94h2.27l.1.94h-.14c-.01-.26-.13-.79-.5-.79H41v2.67h.3V27h-1.08v-.18h.28v-2.67h-.4c-.1.02-.34.2-.39.8h-.14Zm2.9-.79V24h1.18v.15h-.43l.65 1.24.68-1.24h-.34V24H45v.15h-.23L44 25.52v1.32h.36V27H43.1v-.16h.4V25.6l-.73-1.45h-.3Z" fill="#1A3B5D"/><path fill-rule="evenodd" d="M14 29.14V29h1.97c.36 0 1.03.2 1.03.94 0 .64-.7.9-1.27 1 .82.14.9.91.94 1.24v.03c.04.33.18.65.35.65.13 0 .16-.17.16-.25h.22c0 .13-.1.39-.48.39-.82 0-.89-.68-.94-1.19a1.65 1.65 0 0 0-.08-.42c-.1-.23-.33-.35-.5-.4l-.3.01h-.09v1.86h.34V33H14v-.14h.5v-3.72H14Zm1 1.59v-1.38c.01-.07.13-.2.48-.2.44 0 1.02.15 1.02.84s-.85.74-1.5.74Zm19.61-1.5V29h2.9l.15 1.22h-.15c-.03-.33-.2-.99-.7-.99h-1.3v1.58h.6c.23 0 .41-.2.41-.43v-.22h.21v1.68h-.2v-.38c-.01-.24-.2-.46-.42-.46h-.6v1.73h1.3c.5 0 .67-.66.7-.99h.15l-.15 1.22h-2.9v-.23h.4v-3.5h-.4Zm-16.9.77v.18h.3v2.64h-.3V33h2.12l.12-.93h-.12c-.02.25-.14.75-.5.75h-.83v-1.38h.4c.17 0 .3.15.3.32v.3h.16v-1.28h-.15v.17c0 .18-.14.32-.3.32h-.4v-1.1h.82c.36 0 .48.5.5.76h.12l-.12-.93h-2.11Zm8.45.17V30h1.13v.17H27v2.67h.29V33h-1.13v-.16h.34v-2.67h-.34Zm-5.7-.17-.13.94h.17c.05-.59.33-.77.46-.79h.54v2.68h-.4V33h1.28v-.17H22v-2.68h.48c.44 0 .58.53.6.8h.16l-.12-.95h-2.67Zm19.06 0 .15-1h3.25l.16 1h-.21c-.02-.28-.19-.84-.73-.84h-.64v3.61h.6V33H40.5v-.23H41v-3.6h-.72c-.16.01-.49.2-.56.83h-.2ZM31 29v.14h.5v3.72H31V33h1.35v-.14h-.34V31h.1l.28-.01c.18.05.41.17.51.4.05.1.06.25.08.42.05.51.12 1.19.94 1.19.39 0 .48-.26.48-.4h-.22c0 .1-.03.26-.16.26-.17 0-.31-.32-.35-.65v-.03c-.04-.33-.12-1.1-.94-1.24.56-.1 1.27-.36 1.27-1 0-.74-.67-.94-1.03-.94H31Zm1 .35v1.38c.65 0 1.5-.05 1.5-.74s-.58-.84-1.02-.84c-.35 0-.47.13-.48.2ZM23.72 33h-1.16v-.15h.45L24.29 30l1.32 2.85h.33V33h-1.55v-.15h.58L24.6 32h-.97l-.4.85h.48V33Zm.43-2.1.38.9h-.8l.42-.9Zm3.5-.73V30h1.13v.17h-.28v2.67h1.08c.2-.07.25-.45.26-.65H30V33h-2.34v-.16H28v-2.67h-.34ZM38 29.14V29h1.48v.14H39v3.68h.48V33H38v-.18h.5v-3.68H38Z" fill="#1A3B5D"/></svg>