<!-- by TradingView --><svg width="56" height="56" viewBox="0 0 56 56" xmlns="http://www.w3.org/2000/svg"><path fill="url(#ac2ma14ek)" d="M0 0h56v56H0z"/><path d="m28.81 11.52-1.1 2.7-.85 2.14L13 32.5c0 .23 0 .5.33.5H19c.25-.11.61-.25.82-.43.1-.07 2.88-3.25 6.2-7.05 6.61-7.58 6.2-7.14 6.77-7.14.47 0 .88.25 1.05.63.06.11.4 1.22.77 2.48.56 1.87.7 2.3.8 2.38.07.07.16.12.2.12.14 0 .33-.12.38-.25.03-.07.27-.96.55-1.98.26-1.02.54-1.97.6-2.11.16-.34.54-.73.88-.92l.27-.15-.07-.15c-.12-.28-.7-1.47-.85-1.79a2.52 2.52 0 0 0-.32-.46c-.32-.33-.17-.27-4.98-1.95l-1.2-.42-.38-1.13c-.36-1.03-.39-1.16-.36-1.42l.02-.3s-.03-.9-.45-.96c-.46-.07-.65.97-.65.97l-.24.55Zm.7.92c.1.1.7 1.8.7 1.97 0 .1-.67 1.22-.85 1.42-.04.04-.31.17-.55.17 0 0-.81.07-.81-.17 0-.19 1.07-3.27 1.18-3.39.1-.11.23-.11.33 0Zm6.72 5c.07.17.18.33.23.36.13.07.13.28 0 .34a1.33 1.33 0 0 1-1.03-.1c-.42-.2-.48-.24-.44-.38.04-.12.84-.56 1-.54.09 0 .14.08.24.32Z" fill="#FFFDFF"/><path d="M31.21 11.24a.83.83 0 0 0-.18.45c0 .22.39 1.43.48 1.5.04.03.33.14.64.25.59.2.72.21.8.03.01-.05-.13-.52-.31-1.05-.27-.78-.33-1.02-.32-1.21l.02-.24s-.19-.77-.57-.9c-.38-.12-.38.9-.38.9l-.18.27ZM40.03 19.03c-.77.13-1.48.27-1.57.32-.2.1-.5.38-.6.57-.04.08-.3 1.03-.59 2.12a43.44 43.44 0 0 1-.59 2.1c-.04.07-.16.2-.27.3-.52.46-1.38.35-1.74-.22-.06-.1-.42-1.22-.8-2.52a19.85 19.85 0 0 0-.8-2.46c-.09-.08-.16-.1-.3-.1-.17.02-.44.33-5.77 6.43-3.08 3.52-5.66 6.5-5.74 6.6a.7.7 0 0 0-.15.32c0 .17.13.38.28.45.1.04 1.28.05 4.75.05L31 33c.5 0 1-.5 1-1v-2c.03-2.58 0-3 0-3 .33-.3 1 0 1-.5v-1.28a.3.3 0 0 1 .16 0c.03.02.33.15.84.89.5.74 1 1.4 1.1 1.48.09.07.3.2.45.27.27.12.31.13 1.45.14.98.01 1.21 0 1.43-.06.3-.1 1.3-.67 1.57-.9.1-.1.36-.47.61-.91.49-.85.67-.62 1.27-.95.54-.28.88-.64 1.02-1.08.05-.18.1-.4.1-.5 0-.17-.5-3.36-.54-3.52-.02-.04-.05-.03-.13.07-.1.12-.12.12-.63.12-.43 0-.54-.01-.6-.09-.12-.11-.3-.74-.24-.78.06-.03.06-.04.2.22.12.25.22.3.54.3.3 0 .42-.07.6-.37.13-.2.13-.24.08-.37-.09-.2-.3-.34-.6-.37-.15-.01-.77.07-1.65.22Z" fill="#FFFDFF"/><path d="M13 34h3.42c1.54 0 3.29.62 3.29 2.42 0 1.22-.73 2-1.85 2.4l-.68.18H14.3v-1.5h2.12c.66 0 1.07-.09 1.07-1 0-.7-.4-1-1.08-1H15V42h-2v-8Zm4.76 8-1.93-3.54 2.22-.01L20 42h-2.24ZM26 34h2v5c0 1.97-1.71 3-3.49 3-1.77 0-3.51-1.03-3.51-3v-5h2v4c0 .87 0 2 1.5 2s1.5-1.13 1.5-2v-4ZM32 34v8h-2v-8h2Zm3.5 3v2h-3.95v-2h3.95Zm.5-3v2h-4.45v-2H36ZM39 34v8h-2v-8h2Zm3.45 3 .05 2h-3.95l-.05-2h3.95Zm.55-3v2h-4.45v-2H43Z" fill="#FEFFFA"/><defs><linearGradient id="ac2ma14ek" x1="10.42" y1="9.71" x2="68.15" y2="76.02" gradientUnits="userSpaceOnUse"><stop stop-color="#1A1E21"/><stop offset="1" stop-color="#06060A"/></linearGradient></defs></svg>