<!-- by TradingView --><svg width="56" height="56" viewBox="0 0 56 56" xmlns="http://www.w3.org/2000/svg"><path fill="#F0F3FA" d="M0 0h56v56H0z"/><path d="M34 33V23h4.1c1.62 0 3.48.7 3.48 2.6 0 1.2-.82 1.94-1.87 2.17 1.3.07 2.29 1.21 2.29 2.5 0 2-1.96 2.73-3.66 2.73H34Zm2-1.5h2.03c.88 0 1.97-.27 1.97-1.35 0-1.05-.98-1.58-1.92-1.58H36v2.93Zm0-4.5h1.86c.86 0 1.64-.34 1.64-1.3 0-.95-.77-1.2-1.6-1.2H36V27ZM23 23h2.11L28 30.25 30.89 23H33v10h-2v-6l-2.38 5.97h-1.24L25 27V33h-2V23ZM20 23h2v6.44c0 2.24-1.89 3.56-4 3.56-2.12 0-4-1.31-4-3.56V23h2v6.29c0 1.27.76 2.12 2 2.12s2-.85 2-2.12V23ZM49 23h2v6.44c0 2.24-1.89 3.56-4 3.56-2.12 0-4-1.31-4-3.56V23h2v6.29c0 1.27.76 2.12 2 2.12s2-.85 2-2.12V23ZM6 33V23h3.93c1.96 0 3.69 1.08 3.69 3.2 0 1.91-1.3 3.3-3.72 3.3H7.1V28h2.54c1.08 0 2.04-.6 2.04-1.8 0-1.2-.95-1.69-2.05-1.69H8V33H6Zm5.4-4.53L14 33h-2.12l-2.54-4.53h2.07Z"/></svg>