<!-- by TradingView --><svg width="56" height="56" viewBox="0 0 56 56" xmlns="http://www.w3.org/2000/svg"><path fill="#F01027" d="M0 0h56v56H0z"/><path d="M27.54 12c3.66-.09 10.96 1.36 10.96 7.92 0 4.74-2.1 6.07-7.72 7.18 9.79.95 9.22 7.31 9.22 10.76 0 3.5.93 5.8 2.8 5.8 1.51 0 2.76-.98 3.2-1.47-.34 1.02-1.65 1.75-2.96 1.75h-2.45c-3.88 0-5.08-3.1-5.42-9.94-.16-3.22-2.1-6.55-5.7-6.55H23v16.1h4.55V44H15v-.45h3.99v-31.1H15V12h12.54Zm-4.55 15h6.31c1.62-.13 4.7-1.52 4.7-7.08 0-5.59-1.83-7.25-6.05-7.45l-.41-.01h-4.55V27Z" fill="#FEFEFE"/></svg>