<!-- by TradingView --><svg width="56" height="56" viewBox="0 0 56 56" xmlns="http://www.w3.org/2000/svg"><path fill="#F0F3FA" d="M0 0h56v56H0z"/><path fill-rule="evenodd" d="M25 12h-5v24h2a1 1 0 1 1 0 2h-2a1 1 0 1 0 0 2h4v-.03c.57-.14 1-.7 1-1.36V31h7.83c3.96 0 7.17-3.35 7.17-7.47v-4.06c0-4.12-3.21-7.47-7.17-7.47H25Zm0 14h6.69A3.3 3.3 0 0 0 35 22.72v-2.44A3.3 3.3 0 0 0 31.69 17H25v9Z" fill="#163C6E"/><rect x="18" y="40" width="8" height="2" rx="1" fill="#017BBC"/><rect x="17" y="44" width="8" height="2" rx="1" fill="#017BBC"/><rect x="19" y="42" width="3" height="2" rx="1" fill="#017BBC"/><rect x="21" y="46" width="3" height="2" rx="1" fill="#017BBC"/></svg>