<!-- by TradingView --><svg width="56" height="56" viewBox="0 0 56 56" xmlns="http://www.w3.org/2000/svg"><path fill="#F0F3FA" d="M0 0h56v56H0z"/><path d="M38 33V23h1v10h-1ZM28.5 23H27l5 10 5-10h-1.5L32 30.5 28.5 23ZM41 30v-7h1v7c0 1.35 1.31 2 2.5 2s2.5-.65 2.5-2v-7h1v7c0 1.9-1.76 3-3.5 3S41 31.9 41 30ZM26 33h-1v-2a5 5 0 1 1 0-6v-2h1v10Zm-5-9a4 4 0 1 0 0 8 4 4 0 0 0 0-8ZM10.98 33a4.4 4.4 0 0 1-1.71-.34A3.56 3.56 0 0 1 8 31.8l.45-1.05c.3.3.67.56 1.14.78.46.22.95.32 1.46.32.7 0 1.2-.14 1.5-.43.3-.3.46-.69.46-1.18 0-.36-.09-.64-.26-.84a1.45 1.45 0 0 0-.67-.46 5.8 5.8 0 0 0-.93-.29 15.6 15.6 0 0 1-1.03-.26c-.34-.1-.64-.24-.92-.43-.28-.2-.5-.46-.68-.8a3.05 3.05 0 0 1-.26-1.35c0-.53.12-1.01.34-1.44.22-.42.55-.75.97-.99.44-.25.97-.37 1.59-.37.47 0 .95.09 1.42.26.47.16.86.38 1.17.66l-.43 1.06a3.2 3.2 0 0 0-2.16-.84c-.66 0-1.15.16-1.46.47-.3.3-.46.68-.46 1.16 0 .37.08.66.25.87.18.22.4.38.68.5.29.12.6.22.93.29.35.07.69.17 1.02.28.34.1.65.24.93.43.3.17.52.43.69.77.17.32.26.75.26 1.29 0 .57-.12 1.07-.36 1.5-.23.4-.58.73-1.03.96a3.6 3.6 0 0 1-1.63.34Z" fill="#43B391"/></svg>