<!-- by TradingView --><svg width="56" height="56" viewBox="0 0 56 56" xmlns="http://www.w3.org/2000/svg"><path fill="#F0F3FA" d="M0 0h56v56H0z"/><path d="M25.4 15.16c-12.25-1.57-15.27 3.89-15.25 6.8 4.3-2.82 10.66-2.45 13.3-1.91l-.7 2.22 6.8-3.47L26.3 13l-.9 2.16Z" fill="#FFFF7E"/><path d="M30.21 40.87c12.2 1.97 15.4-3.38 15.48-6.3-4.38 2.69-10.73 2.1-13.36 1.48l.78-2.2-6.91 3.25 3.03 5.9.98-2.13Z" fill="#013A5A"/><path d="M10.2 21.98c-4.84 8.48 6.08 15.28 12.14 17.62l1.83-4.94C13.99 30.7 10.62 24.56 10.2 21.98Z" fill="#CABC2B"/><path d="M45.64 34.55c5.15-8.3-5.53-15.47-11.5-18l-2 4.88c10.03 4.29 13.18 10.54 13.5 13.12Z" fill="#0E233C"/></svg>