<!-- by TradingView --><svg width="56" height="56" viewBox="0 0 56 56" xmlns="http://www.w3.org/2000/svg"><path fill="#F0F3FA" d="M0 0h56v56H0z"/><path d="M28.03 12a36.58 36.58 0 0 0 12.74 4.18 85.69 85.69 0 0 0 2.18.28l.02.04c.04 1.45.04 2.84.01 4.15-.2 8.17-2.45 16.58-8.98 22.37A26.17 26.17 0 0 1 28 47c-.03 0-.05 0-.08-.02a25.59 25.59 0 0 1-7.69-5.7c-6.25-6.84-7.51-16.13-7.18-24.79 0-.01 0-.03.02-.04A36.74 36.74 0 0 0 27.97 12h.06Zm1.72 11.68c-.7-.1-1.54.29-2 .76-.8.8-1 1.97-.38 2.95.14.22.25.37.34.45.7.59 1.35 1.16 1.93 1.71.9.85 1.6 1.62 1.68 2.9a4.03 4.03 0 0 1-1.68 3.73c-.44.33-1.2.62-1.6.8a.08.08 0 0 0-.05.08v3.13a.03.03 0 0 0 .03.03h.03l9.93-9.16.02-.01a.05.05 0 0 0 0-.04l-.01-.02-5.85-5.69c-.75-.74-1.26-1.44-2.39-1.62Zm-2.82-4.87-9.6 9.13-.01.01v.02a.05.05 0 0 0 .01.04l5.84 5.69c.76.74 1.26 1.44 2.4 1.62.7.1 1.53-.29 2-.76.8-.8 1-1.97.38-2.95a2.1 2.1 0 0 0-.34-.45c-.71-.59-1.35-1.16-1.93-1.71-.9-.85-1.6-1.62-1.69-2.9a4.03 4.03 0 0 1 1.69-3.73 7.22 7.22 0 0 1 1.29-.8V18.8a.03.03 0 0 0-.04 0Z" fill="#231F20"/></svg>