<!-- by TradingView --><svg width="56" height="56" viewBox="0 0 56 56" xmlns="http://www.w3.org/2000/svg"><path fill="#F0F3FA" d="M0 0h56v56H0z"/><path d="M19.87 37.17c1.17-.48 2.5.11 2.97 1.33a2.4 2.4 0 0 1-1.3 3.07l-5.4 2.26a2.27 2.27 0 0 1-2.98-1.33 2.4 2.4 0 0 1 1.3-3.07l5.4-2.26Zm9.07-13a2.2 2.2 0 0 1 2.9 1.34 2.43 2.43 0 0 1-1.25 3.08l-14.53 6.24a2.2 2.2 0 0 1-2.9-1.34 2.43 2.43 0 0 1 1.26-3.08l14.52-6.24Zm9.04-12.01a2.2 2.2 0 0 1 2.87 1.27 2.27 2.27 0 0 1-1.25 2.92l-23.58 9.5a2.2 2.2 0 0 1-2.87-1.28 2.27 2.27 0 0 1 1.25-2.92l23.58-9.5Z" fill="url(#a)"/><path d="M23.2 43h-3.6l.57-.43h3.15l-.13.43ZM37.47 42.57l.1.43h-.46l-.08-.43-1.36-7.14h-9.76l-1.5 7.14-.07.43h-.48l.12-.43 2.48-11.76.47-.17L26 35h9.58l-3.1-15.12.41-.15 4.58 22.84Z" fill="#A7A9AC"/><path d="M36.5 43H25.1l.05-.43H36.4l.1.43ZM43 43h-4.6l-.11-.43h4.28V13.43h-.85l-.17-.43H43v30ZM15.43 38.4l-.43.22v-3.14l.43-.16v3.07ZM15.43 29.56l-.43.18v-3.3h.43v3.12ZM28.36 23.64l-.48.2.48-2.39.48-.18-.48 2.37ZM29.32 13.43H15.43v7.12l-.43.23V13h14.32v.43ZM30.43 13.54l-.21 1.1-.48.2.27-1.3.01-.54h.41v.54ZM31.65 13.54l.1.5-.4.16-.16-.77-.06-.43h.47l.05.54ZM33.28 13.43h-.98V13h2.07l-1.09.43Z" fill="#A7A9AC"/><defs><linearGradient id="a" x1="41.15" y1="14.93" x2="14.7" y2="25.8" gradientUnits="userSpaceOnUse"><stop offset=".27" stop-color="#192436"/><stop offset="1" stop-color="#3293D0"/></linearGradient></defs></svg>