<!-- by TradingView --><svg width="56" height="56" viewBox="0 0 56 56" xmlns="http://www.w3.org/2000/svg"><path fill="#F0F3FA" d="M0 0h56v56H0z"/><path fill-rule="evenodd" d="m47 28-9.5-16h-19L9 28l9.5 16h19L47 28ZM28 42a14 14 0 1 0 0-28 14 14 0 0 0 0 28Z" fill="#030C35"/><path fill="#030C35" d="M19 29h15v2H19z"/><path fill="#030C35" d="M22 38V23h2v15z"/><path d="M22 22.8a5.9 5.9 0 0 1 6-5.8c3.31 0 6 2.6 6 5.8V27h-2v-4.46C32 20.6 30.02 19 28 19s-4 1.59-4 3.54V28h-2v-5.2ZM27 32h-2v3.82c0 1.2 1.12 2.18 2.5 2.18s2.5-.98 2.5-2.18V32h-1.5v4.27c0 .55-.33.73-.68.73-.34 0-.82-.16-.82-.73V32Z" fill="#030C35"/><path d="M32 32h2v3.82c0 1.2-1.12 2.18-2.5 2.18s-2.5-.98-2.5-2.18V32h1.5v4.27c0 .55.33.73.68.73.34 0 .82-.16.82-.73V32ZM30.64 22.63H29c0-.32-.33-.93-.78-.93-.44 0-.56.39-.56.58 0 .56.77.73 1.51 1.15.75.41 1.83.84 1.83 2.1 0 1.25-.96 2.47-2.78 2.47-2.26 0-3.1-1.96-3.22-3h2c0 .84.47 1.5 1.22 1.5.57 0 .78-.43.78-.85 0-.41-.48-.7-1.22-1-.75-.28-2.24-1.15-2.24-2.37 0-2 1.9-2.28 2.56-2.28 2.03 0 2.54 1.76 2.54 2.63Z" fill="#030C35"/></svg>