<!-- by TradingView --><svg width="56" height="56" viewBox="0 0 56 56" xmlns="http://www.w3.org/2000/svg"><path fill="#F0F3FA" d="M0 0h56v56H0z"/><path d="M10.5 23c-.3 0-.58-.04-.85-.12-.27-.09-.49-.2-.65-.33l.29-.67a2.14 2.14 0 0 0 1.21.4c.17 0 .3-.01.4-.05a.5.5 0 0 0 .24-.15.34.34 0 0 0 .07-.21c0-.1-.04-.19-.11-.25a.86.86 0 0 0-.3-.14 5.75 5.75 0 0 1-.88-.24 1.91 1.91 0 0 1-.42-.2.98.98 0 0 1-.31-.33 1 1 0 0 1-.12-.5c0-.23.06-.43.17-.6.12-.2.29-.34.52-.44a2 2 0 0 1 .86-.17c.24 0 .46.03.69.09.22.05.42.14.6.25l-.27.68a2.1 2.1 0 0 0-1.02-.3c-.17 0-.3.02-.4.06-.11.04-.19.1-.23.16a.37.37 0 0 0-.07.22c0 .1.04.18.12.24.07.06.17.11.3.15l.42.1.45.13c.16.05.3.12.42.2a.93.93 0 0 1 .43.82c0 .22-.06.42-.17.6-.12.18-.3.32-.52.43-.23.11-.52.17-.87.17ZM14.25 23c-1.12 0-1.74-.77-1.74-1.77V19h1.01v2.2c0 .74.3 1.08.73 1.04.72 0 .75-.5.75-1.04V19h1v2.23c0 1.14-.7 1.77-1.75 1.77ZM18.24 23c-.29 0-.57-.04-.84-.12-.27-.09-.49-.2-.65-.33l.29-.67a2.14 2.14 0 0 0 1.21.4c.17 0 .3-.01.4-.05.11-.03.19-.08.24-.15a.34.34 0 0 0 .07-.21c0-.1-.04-.19-.12-.25a.86.86 0 0 0-.3-.14 5.7 5.7 0 0 1-.88-.24 1.9 1.9 0 0 1-.41-.2.98.98 0 0 1-.31-.33 1 1 0 0 1-.12-.5c0-.23.06-.43.17-.6.11-.2.29-.34.51-.44a2 2 0 0 1 .87-.17c.23 0 .46.03.68.09.23.05.43.14.6.25l-.26.68a2.1 2.1 0 0 0-1.02-.3c-.17 0-.3.02-.4.06-.11.04-.19.1-.24.16a.37.37 0 0 0-.06.22c0 .1.04.18.11.24.08.06.18.11.3.15l.42.1.46.13c.15.05.3.12.42.2a.93.93 0 0 1 .43.82c0 .22-.06.42-.18.6-.11.18-.29.32-.52.43-.23.11-.51.17-.87.17ZM21.5 23v-3.2h-1.1V19h3.21v.8H22.5V23h-1ZM23.78 23l1.64-4h.84l1.65 4H27l-1.34-3.48H26L24.65 23h-.87Zm.87-1 .23-.68h1.9L27 22h-2.35ZM28.5 23v-4h1v4h-1ZM30.51 23v-4h.83l2.17 2.85H33V19h1v4h-.69l-2.18-2.85h.35V23h-.97ZM34.61 23l1.64-4h.84l1.65 4h-.9l-1.34-3.48h.34L35.49 23h-.88Zm.8-1 .23-.7h1.9l.22.7h-2.35ZM39.27 23v-4h1.93c.46 0 .8.16 1.04.34.23.19.35.43.35.73 0 .2-.05.38-.14.53a.95.95 0 0 1-.39.34c-.16.09-.35.13-.57.13l.1-.23c.23 0 .44.04.62.12.18.08.32.2.41.35.1.15.16.34.16.57 0 .33-.13.59-.38.78-.25.18-.61.34-1.1.34h-2.03Zm.98-.74h1c.21 0 .38-.04.49-.11.12-.08.17-.2.17-.37 0-.16-.05-.28-.17-.35a.85.85 0 0 0-.5-.13h-1.06v-.65h.91c.21 0 .37-.03.48-.1.1-.09.16-.2.16-.36 0-.15-.05-.26-.16-.33a.81.81 0 0 0-.48-.12h-.84v2.52ZM43.5 23v-4h1v3.2h1.8v.8h-2.8ZM47.93 20.62h1.78v.7h-1.78v-.7Zm.07 1.6h2V23h-3v-4h3v.78h-2v2.44Z" fill="#314F83"/><path d="M8.98 27.57V24h1.5c.4 0 .74.1 1.03.26a1.67 1.67 0 0 1 .94 1.54 1.7 1.7 0 0 1-.94 1.55c-.3.15-.64.22-1.03.22h-1.5Zm.4-.32h1.08c.32 0 .6-.06.84-.18.25-.13.43-.3.57-.51.13-.22.2-.48.2-.76a1.36 1.36 0 0 0-.76-1.26 1.8 1.8 0 0 0-.85-.19H9.37v2.9ZM13.64 25.61h1.95v.32h-1.95v-.32Zm.05 1.64h2.2v.32h-2.6V24h2.53v.35h-2.13v2.9ZM17.78 27.57 16.15 24h.42l1.52 3.36h-.23L19.4 24h.4l-1.64 3.57h-.38ZM20.65 25.61h1.94v.32h-1.94v-.32Zm.04 1.64h2.21v.32h-2.6V24h2.52v.35H20.7v2.9ZM23.79 27.57V24h.39v3.25h2.06v.32h-2.45ZM28.4 27.6A1.92 1.92 0 0 1 27 27.1c-.18-.16-.31-.35-.41-.57a1.8 1.8 0 0 1-.14-.72 1.76 1.76 0 0 1 .54-1.28c.18-.17.38-.3.62-.38.23-.1.5-.14.77-.14.28 0 .53.05.77.14a1.79 1.79 0 0 1 1.01.94c.1.22.15.46.15.72a1.74 1.74 0 0 1-.55 1.3c-.17.15-.38.28-.61.37-.24.09-.5.13-.77.13Zm0-.33a1.47 1.47 0 0 0 1.42-.88c.07-.18.11-.38.11-.59a1.43 1.43 0 0 0-.93-1.35 1.63 1.63 0 0 0-.6-.12c-.23 0-.43.04-.62.12a1.42 1.42 0 0 0-.94 1.35 1.46 1.46 0 0 0 .44 1.05 1.53 1.53 0 0 0 1.11.42ZM31.17 27.57V24h1.37c.31 0 .58.08.8.18a1.11 1.11 0 0 1 .7 1.06c0 .25-.06.47-.18.65-.12.18-.29.32-.51.42a2 2 0 0 1-.8.14h-1.17l.17-.17v1.3h-.38Zm.38-1.26-.17-.18h1.15c.37 0 .65-.08.84-.23a.8.8 0 0 0 .29-.66.8.8 0 0 0-.3-.65c-.18-.16-.46-.24-.83-.24h-1.15l.17-.17v2.13ZM34.86 27.57V24h.32l1.68 2.8h-.17l1.67-2.8h.32v3.57h-.37V24.6h.09l-1.54 2.53h-.18l-1.55-2.53h.1v2.98h-.37ZM40.2 25.61h1.94v.32H40.2v-.32Zm.04 1.64h2.21v.32h-2.6V24h2.52v.35h-2.13v2.9ZM43.34 27.57V24h.32l2.54 3.1h-.17V24h.38v3.57h-.32l-2.53-3.07h.17v3.07h-.4ZM48.3 27.57v-3.22H47V24h2.98v.35H48.7v3.22h-.39ZM8.4 32.27l1.67-3.54h.39l1.68 3.54h-.41l-1.54-3.32h.15L8.8 32.27h-.4Zm.66-.95.11-.3h2.14l.12.3H9.06ZM14.27 32.3c-.28 0-.53-.04-.77-.13a1.77 1.77 0 0 1-1.01-.95 1.8 1.8 0 0 1-.15-.72 1.77 1.77 0 0 1 1.16-1.66 2.13 2.13 0 0 1 1.52 0c.24.07.44.2.6.37l-.25.24a1.34 1.34 0 0 0-.5-.32c-.18-.06-.38-.1-.59-.1-.22 0-.42.04-.61.11s-.35.18-.5.31a1.43 1.43 0 0 0-.45 1.05c0 .21.05.4.12.59a1.52 1.52 0 0 0 .83.77 1.74 1.74 0 0 0 1.2 0c.18-.06.35-.17.5-.32l.25.24c-.16.17-.36.3-.6.39-.23.09-.48.13-.75.13ZM17.95 32.3a1.92 1.92 0 0 1-1.39-.51c-.17-.17-.3-.36-.4-.57a1.8 1.8 0 0 1-.14-.72 1.76 1.76 0 0 1 .54-1.29 2.12 2.12 0 0 1 1.39-.52c.28 0 .53.05.77.15a1.8 1.8 0 0 1 1.01.94c.1.22.15.46.15.72a1.74 1.74 0 0 1-.55 1.29c-.17.16-.38.29-.61.38-.24.09-.5.13-.77.13Zm1.2.67a1.3 1.3 0 0 1-.64-.17 5.5 5.5 0 0 1-.7-.57l.43-.1c.1.12.21.23.32.3.1.09.2.15.3.19.1.04.2.06.3.06.27 0 .5-.11.7-.33l.19.22c-.23.27-.53.4-.9.4Zm-1.2-1c.22 0 .43-.04.61-.1.19-.08.35-.19.49-.32a1.45 1.45 0 0 0-.49-2.4 1.63 1.63 0 0 0-.6-.12c-.23 0-.43.04-.62.11a1.42 1.42 0 0 0-.94 1.36 1.45 1.45 0 0 0 .44 1.05c.14.13.3.24.5.31.19.07.4.1.61.1ZM22.2 32.3c-.46 0-.83-.13-1.1-.39-.27-.26-.4-.64-.4-1.15v-2.03h.38v2.01c0 .42.1.73.3.93.2.2.47.3.83.3s.64-.1.83-.3c.2-.2.3-.5.3-.93v-2.01h.37v2.03c0 .5-.13.9-.4 1.15-.27.26-.63.4-1.1.4ZM24.86 32.27v-3.54h.39v3.54h-.39ZM27.43 32.3c-.27 0-.53-.04-.78-.13-.25-.08-.45-.2-.58-.33l.15-.29c.13.12.3.23.52.31a2 2 0 0 0 1.26.04.68.68 0 0 0 .32-.23c.07-.1.1-.2.1-.31a.45.45 0 0 0-.12-.33.8.8 0 0 0-.33-.2c-.13-.05-.28-.1-.44-.13l-.48-.12c-.16-.04-.31-.1-.45-.17a.95.95 0 0 1-.32-.28.8.8 0 0 1-.12-.46c0-.18.04-.34.14-.48a1 1 0 0 1 .45-.35 2.26 2.26 0 0 1 1.9.18l-.13.3c-.16-.11-.32-.18-.5-.23a1.95 1.95 0 0 0-.51-.07c-.22 0-.4.03-.55.08a.7.7 0 0 0-.32.24c-.07.1-.1.2-.1.32 0 .14.04.25.12.33.09.09.2.15.33.2.13.05.28.1.44.13l.48.12c.16.04.31.1.44.17.14.07.25.16.33.27a.86.86 0 0 1-.02.93c-.1.15-.25.27-.45.36-.2.09-.46.13-.78.13ZM29.63 32.27v-3.54H30v3.54h-.38ZM31.9 32.27v-3.22h-1.3v-.32h2.98v.32h-1.3v3.22h-.38ZM34.18 32.27v-3.54h.38v3.54h-.38ZM37.34 32.3a1.92 1.92 0 0 1-1.39-.51c-.17-.17-.3-.36-.4-.57a1.8 1.8 0 0 1-.14-.72 1.76 1.76 0 0 1 .55-1.29 2.12 2.12 0 0 1 1.39-.52c.27 0 .53.05.76.15a1.8 1.8 0 0 1 1.01.94c.1.22.15.46.15.72a1.74 1.74 0 0 1-.55 1.29c-.17.16-.38.29-.61.38-.23.09-.49.13-.77.13Zm0-.33a1.47 1.47 0 0 0 1.42-.88c.08-.18.12-.38.12-.59a1.43 1.43 0 0 0-.93-1.36 1.63 1.63 0 0 0-.6-.1c-.23 0-.43.03-.62.1a1.42 1.42 0 0 0-.94 1.36 1.46 1.46 0 0 0 .44 1.05 1.53 1.53 0 0 0 1.11.42ZM40 32.27v-3.54h.33l2.54 3.08h-.17v-3.08h.38v3.54h-.32l-2.53-3.08h.17v3.08H40ZM47.06 32.27v-3.54h.4v3.54h-.4ZM10.58 37c-.28 0-.53-.04-.77-.13a1.85 1.85 0 0 1-1.01-.95 1.8 1.8 0 0 1-.14-.72c0-.26.04-.5.14-.72a1.77 1.77 0 0 1 1.02-.95c.23-.09.49-.13.76-.13s.52.04.76.13c.23.08.43.21.59.38l-.25.24a1.34 1.34 0 0 0-.5-.32c-.18-.07-.37-.1-.58-.1-.23 0-.43.04-.62.11s-.35.18-.5.31a1.43 1.43 0 0 0-.45 1.05c.01.21.05.4.13.59a1.52 1.52 0 0 0 .82.77 1.74 1.74 0 0 0 1.2 0c.19-.06.35-.17.5-.32l.25.24c-.16.17-.36.3-.6.39-.23.09-.48.13-.75.13ZM14.26 37a1.91 1.91 0 0 1-1.39-.51c-.17-.17-.3-.36-.4-.57a1.8 1.8 0 0 1-.14-.72 1.76 1.76 0 0 1 .55-1.29c.17-.16.38-.29.61-.38.24-.09.5-.13.77-.13.28 0 .54.04.77.13a1.8 1.8 0 0 1 1.01.95c.1.22.15.46.15.72a1.74 1.74 0 0 1-.55 1.29c-.17.16-.38.29-.61.38-.23.09-.49.13-.77.13Zm0-.33c.22 0 .43-.04.61-.11a1.47 1.47 0 0 0 .82-.77c.07-.18.11-.38.11-.6a1.43 1.43 0 0 0-.93-1.35 1.63 1.63 0 0 0-.6-.1c-.23 0-.43.03-.62.1a1.42 1.42 0 0 0-.94 1.36 1.45 1.45 0 0 0 .44 1.05 1.53 1.53 0 0 0 1.11.42ZM17.04 36.97v-3.54h1.37a2 2 0 0 1 .8.14 1.11 1.11 0 0 1 .7 1.07c0 .25-.06.47-.18.65-.12.18-.29.32-.51.41-.23.1-.5.15-.8.15h-1.17l.18-.18v1.3h-.4Zm2.5 0-.94-1.29h.42l.95 1.29h-.42Zm-2.11-1.27-.18-.17h1.15c.37 0 .65-.08.84-.24a.8.8 0 0 0 .29-.65.8.8 0 0 0-.3-.66c-.18-.15-.46-.23-.83-.23h-1.15l.18-.18v2.13ZM20.8 36.97v-3.54h1.38a2 2 0 0 1 .8.14 1.11 1.11 0 0 1 .7 1.07c0 .25-.05.47-.18.65-.12.18-.29.32-.51.41a2 2 0 0 1-.8.15h-1.17l.18-.18v1.3h-.4Zm.4-1.27-.18-.18h1.15c.37 0 .65-.07.84-.23a.8.8 0 0 0 .29-.65.8.8 0 0 0-.3-.66c-.18-.15-.46-.23-.83-.23h-1.15l.18-.18v2.13Z"/><path fill="#314F83" d="M6 19h1v18H6z"/><path d="M40.45 36.08a1.09 1.09 0 1 0 0-2.17 1.09 1.09 0 0 0 0 2.17Zm.4-.77c.07-.1.08-.22.07-.28l.19-.03c.01.1 0 .26-.08.4a.72.72 0 0 1-.49.35l-.04-.19c.2-.04.3-.15.36-.25Z" fill="#92B444"/><path fill-rule="evenodd" d="M46.15 33h-4.5l-.35.61-.17-.1.3-.51h-1.39l.08.38-.19.04-.08-.42h-5.12c.05.13.06.28.06.39v.07l-.08.02a.8.8 0 0 0-.37.27.75.75 0 0 1 .44 1.35c0 .39-.28.7-.66.76a.63.63 0 0 1-.58.74.59.59 0 0 1-.49.4h6.22l-.05-.03.35-.48.16.1-.29.41h1.52l-.14-.43.18-.06.16.49H50v-4h-1.5c.17.21.27.5.31.79.06.4-.03.86-.33 1.16-.41.42-.48.88-.46 1.03v.1h-1.38V35.93l-.05-.21a2.54 2.54 0 0 0-.42-.77c-.35-.46-.4-.92-.31-1.3.05-.26.17-.47.29-.64Zm.57 3.34h1.2v-.19h-1.2v.2Zm0 .37h1.2v-.2h-1.2v.2ZM35.1 33.9a.6.6 0 0 1 .24.28c.05.14.05.32-.08.55l.16.1c.17-.28.17-.52.1-.72a.79.79 0 0 0-.32-.39l-.1.17Zm3.2-.16.7.37-.09.17-.7-.37.1-.17Zm4.49.55-.67.27-.07-.18.66-.27.08.18Zm-4.67 1.33.74-.25.06.18-.73.26-.07-.19Zm4.4.63-.65-.39.1-.16.66.39-.1.16Zm-2.07.01a1.28 1.28 0 1 0-.01-2.55 1.28 1.28 0 0 0 0 2.55Z" fill="#92B444"/><path d="M47.5 34.26c-.24.26-.34.51-.36.72.1.02.24.02.36-.05.14-.07.28-.23.32-.58a2.95 2.95 0 0 1-.14-.75c-.25.12-.54.3-.7.52a.59.59 0 0 0-.14.4c0 .1.04.2.13.31.05-.22.16-.46.4-.7l.14.13Z" fill="#92B444"/><path d="M46.4 33h1.83c.2.18.35.48.4.81.04.38-.04.76-.29 1-.38.4-.5.84-.51 1.08h-1l-.06-.24c-.07-.2-.2-.5-.45-.82a1.35 1.35 0 0 1-.28-1.15c.07-.29.22-.53.36-.68Zm1.48.46v-.15l-.14.06c-.29.11-.69.34-.92.64a.78.78 0 0 0-.17.52c0 .19.1.38.29.56a1.24 1.24 0 0 0 .12.55v.01l.19-.06-.02-.04a1.1 1.1 0 0 1-.1-.38c.14.02.3.01.46-.07.21-.1.38-.34.42-.75v-.04a2.6 2.6 0 0 1-.13-.85ZM32.96 37h-.03c-.3-.05-.48-.32-.47-.62a.6.6 0 0 1-.38-.55c0-.15.04-.28.13-.37a.37.37 0 0 1 .05-.04.61.61 0 0 1 .3-1.1v-.1a.73.73 0 0 1 1.14-.6c.02-.1.05-.21.1-.33.05-.1.1-.2.18-.29h-6.62c.45.64.78 1.19 1 1.66.23.48.34.89.32 1.22-.02.27-.16.57-.34.85l-.19.27h4.81Z" fill="#92B444"/><path fill-rule="evenodd" d="M27.91 37h-1.66a3.36 3.36 0 0 1-.44-.5c-.26-.37-.4-.81-.16-1.33.4-.88 1.02-1.8 1.28-2.14l.02-.03H27.09a.35.35 0 0 0 .07.05c.47.66.8 1.22 1.02 1.69.23.48.32.85.3 1.13-.01.22-.13.48-.3.76-.08.12-.17.25-.27.37Zm-.15-.83a.79.79 0 0 0 .14-.47l.19-.01c0 .15-.03.38-.18.6-.15.2-.4.39-.8.44l-.03-.2c.36-.04.56-.2.68-.36Z" fill="#92B444"/><path d="M26.7 33c-.28.4-.84 1.26-1.23 2.1-.28.59-.1 1.1.18 1.51.1.14.21.27.33.39H24v-4h2.7ZM34.27 33a.84.84 0 0 0-.3.37c-.06.15-.1.3-.1.4.03.04.07.04.11.04.05-.01.1-.04.12-.06.14-.24.35-.38.5-.43a.73.73 0 0 0-.09-.32h-.24ZM33.42 34.67a.66.66 0 0 0-.24.04.61.61 0 0 0-.42-.38.54.54 0 0 1 .52-.65c.21 0 .4.13.48.32a.75.75 0 0 0-.18.65.52.52 0 0 1-.04.03.66.66 0 0 0-.12-.01ZM32.6 34.5c.08.16.2.29.35.37a.67.67 0 0 0-.2.45.42.42 0 0 1-.17.02h-.03a.42.42 0 0 1 .06-.84ZM32.96 36.8c-.17-.02-.3-.18-.3-.38h.01c.12 0 .23-.03.32-.09.09.13.21.21.35.25-.08.16-.23.25-.38.23ZM34.06 35.67c.26-.02.47-.2.52-.46a.75.75 0 0 1-.5 0 .68.68 0 0 1-.07.43l.02-.01.03.04ZM33.9 35.8a.66.66 0 0 1-.66.18.6.6 0 0 1-.13.24l.03-.01c.13.2.4.26.6.13a.44.44 0 0 0 .16-.55ZM32.67 36.23a.4.4 0 0 0 .4-.33.67.67 0 0 1-.3-.39.6.6 0 0 1-.23.02c-.1 0-.16.03-.2.07-.04.04-.06.1-.06.23 0 .22.17.4.4.4ZM33.42 35.81a.47.47 0 0 1-.47-.38c.16-.1.26-.29.27-.49a.73.73 0 0 0 .35-.06.47.47 0 0 1-.15.93ZM34.32 33.94a.56.56 0 0 0-.34.12.73.73 0 0 1-.18.66.56.56 0 0 0 1.08-.22.56.56 0 0 0-.56-.56Z" fill="#92B444"/></svg>