<!-- by TradingView --><svg width="56" height="56" viewBox="0 0 56 56" xmlns="http://www.w3.org/2000/svg"><path fill="#F0F3FA" d="M0 0h56v56H0z"/><path d="M20.84 15.31c4.3-1.2 8.76-.71 12.28 2.07.65.52 1.36 1.16 2.12 1.94a9.16 9.16 0 0 1 1.67 2.43.06.06 0 0 1-.05.03.24.24 0 0 1-.23-.07c-1.94-2.11-4.27-3.94-7.05-4.79a10.23 10.23 0 0 0-7.73.6v.03l.01.02h.02c1.37.01 2.8.04 4.27.09 2.46.08 5.24 1.37 6.17 3.74.2.5.33.92.4 1.25.02.08.07.16.15.2.42.27.77.51 1.05.73a5.56 5.56 0 0 1 2.26 4.2 8.49 8.49 0 0 1-.77 3.59.08.08 0 0 1-.04 0h-.05a.08.08 0 0 1-.03-.04c-.96-2.27-2.8-4.16-5.4-4.3a5.94 5.94 0 0 0-4 1.18l-.2.16a7.69 7.69 0 0 0-2.43 2.98c-1.4 3.27-.48 7.06 1 10.16a.14.14 0 0 0 .12.09l2.38.33h.03l.03-.02.02-.03v-.03l-.33-1.07a5.97 5.97 0 0 1 .12-3.82.07.07 0 0 1 .08 0c.02 0 .02.01.03.02.83 1.58 2.42 3.66 4.14 4.32a.3.3 0 0 0 .2 0c1.66-.54 3.22-1.29 4.67-2.22a13.06 13.06 0 0 0 5.48-7.8l3.14 1.44a17.19 17.19 0 0 1-5.68 8.53 16.68 16.68 0 0 1-11.43 3.73 17 17 0 0 1-15.7-12.39 14.67 14.67 0 0 1-.56-3.55v-.45c.04-.82.09-1.4.15-1.73.4-2.45 1.37-4.68 2.91-6.67a14.17 14.17 0 0 1 3.87-3.65 12.1 12.1 0 0 1 2.9-1.23Zm.45 13.07a10.98 10.98 0 0 0-3.01 2.08 15.51 15.51 0 0 0-2.9 3.86 16.6 16.6 0 0 0 2.87 3.54l.01-.01v-.02c.18-2.67.9-5.19 2.15-7.56.29-.58.6-1.14.91-1.7a.3.3 0 0 0 .05-.14l-.01-.02-.02-.02-.03-.01h-.02ZM29.3 11c3.6.29 6.74 1.54 9.42 3.75A16.82 16.82 0 0 1 45 26.97V29l-.1 1.08c-.07.8-.25 1.68-.53 2.64l-3.14-1.44c.49-1.94.61-3.9.38-5.87a14.46 14.46 0 0 0-1.57-4.8c-2.1-3.97-5.44-6.87-10.02-7.61a16.8 16.8 0 0 0-4.75-.07c-1.9.24-3.17.87-5.39 1.81a3.4 3.4 0 0 1-.82.26.1.1 0 0 1-.1-.05.1.1 0 0 1 .02-.1c.45-.44.8-.73 1.03-.88A16.76 16.76 0 0 1 28.08 11h1.22ZM17.87 25.45l-3.68 1.45a.05.05 0 0 0-.03.04v2.42a.05.05 0 0 0 .06.05l.02-.02 3.68-3.86a.05.05 0 0 0-.02-.08h-.03Zm9.97-3.76c-.42-.01-.83.03-1.21.13-.68.16-1.37.22-2.07.18a.6.6 0 0 0-.2.03l-.01.01v.02a.04.04 0 0 0 .01.04c.63.37 1.5.45 2.27.62l.04.02a.07.07 0 0 1-.05.12 6.7 6.7 0 0 1-2.9-.2h-.01v.03l.02.02c.66.3.99.55 1.72 1 .96.58 2.35.5 3.38.12.59-.28 1.2-.35 1.85-.2h.06a.08.08 0 0 0 .05-.08 7.15 7.15 0 0 0-1.56-1.29c-.01 0-.03 0-.04.02a.07.07 0 0 0-.02.03v.04c.5 1.63-1.89 1.98-2 .47a.2.2 0 0 0-.02-.09.87.87 0 0 1-.05-.08v-.02h.06l.02.02c.22.41.44.64.89.47.66-.27.3-1.36-.5-1.05h-.03c-.01 0-.02 0-.02-.02v-.02l.01-.02.34-.2.03-.02v-.05a.07.07 0 0 0-.02-.04.07.07 0 0 0-.04-.01Z" fill="url(#a)"/><defs><linearGradient id="a" x1="36.29" y1="13.61" x2="17.68" y2="41" gradientUnits="userSpaceOnUse"><stop stop-color="#5DAD46"/><stop offset="1" stop-color="#146EAC"/></linearGradient></defs></svg>