<!-- by TradingView --><svg xmlns="http://www.w3.org/2000/svg" width="56" height="56" viewBox="0 0 56 56"><path fill="url(#aw2dkig4k)" d="M0 0h56v56H0z"/><path d="M27.82 44A16 16 0 1 0 28.2 12 16 16 0 0 0 27.82 44zm.34-30A13.8 13.8 0 0 1 42 28c0 7.93-6.12 14.03-14.1 14A13.78 13.78 0 0 1 14 27.84 13.8 13.8 0 0 1 28.16 14zM24 27.94A3.99 3.99 0 0 0 27.95 32 3.99 3.99 0 0 0 32 28.05c.04-2.16-1.63-4-3.95-4.05A3.96 3.96 0 0 0 24 27.94z" fill="#fff"/><defs><linearGradient id="aw2dkig4k" x1="10.42" y1="9.71" x2="68.15" y2="76.02" gradientUnits="userSpaceOnUse"><stop stop-color="#1A1E21"/><stop offset="1" stop-color="#06060A"/></linearGradient></defs></svg>