<!-- by TradingView --><svg width="56" height="56" viewBox="0 0 56 56" xmlns="http://www.w3.org/2000/svg"><path fill="#F0F3FA" d="M0 0h56v56H0z"/><path d="M41.58 18c3.67.35 5.81 1.82 6.42 4.43v1.25c-.58 3.2-2.85 6-6.8 8.41a.16.16 0 0 0-.05.06.17.17 0 0 0-.01.14c0 .03.02.05.03.07l1.5 1.62a.17.17 0 0 1 .05.14c0 .02-.01.05-.03.07a.15.15 0 0 1-.05.05L39.67 36h-.08l-1.8-2.13a.23.23 0 0 0-.12-.07.2.2 0 0 0-.13 0c-2.27.81-4.5 1.2-6.68 1.17-2.61-.04-4.74-.71-6.38-2.01a.08.08 0 0 1-.02-.03.09.09 0 0 1 0-.08l.03-.03 1.6-1a.1.1 0 0 0 .05-.06l-.01-.08-.52-.96a.29.29 0 0 0-.17-.14.27.27 0 0 0-.21.03 21.63 21.63 0 0 1-14.87 3.05c-1.87-.27-2.98-1.08-3.36-2.43v-.9c.18-.66.32-1.1.43-1.29 1.46-2.65 3.9-4.53 7.3-5.63 2.82-.9 5.87-1.19 9.15-.85 1.36.14 2.39.46 3.07.97.94.7 1.17 1.74.7 3.1a9.9 9.9 0 0 1-1.04 2 .29.29 0 0 1-.1.1.26.26 0 0 1-.12.03H13.25c-.05 0-.1.02-.14.05a.26.26 0 0 0-.09.11c-.31.74-.4 1.38-.26 1.93.16.62.6 1 1.33 1.14 1 .19 2.01.13 3.03-.18a19.17 19.17 0 0 0 3.34-1.5.9.9 0 0 1 .4-.1h6.31c.06 0 .1 0 .15-.03a.36.36 0 0 0 .13-.1 9.48 9.48 0 0 0 1.81-3.8c.33-1.61-.06-2.88-1.17-3.8a.12.12 0 0 1-.03-.04.12.12 0 0 1 0-.1l.04-.04A23.11 23.11 0 0 1 39.47 18h2.1Zm-6.14 13.04-1.35-1.46a.14.14 0 0 1-.01-.16.12.12 0 0 1 .03-.04l2.84-1.76a.17.17 0 0 1 .12-.03c.04.01.07.03.1.06l1.38 1.48c.03.03.07.05.12.06.05 0 .1-.02.13-.05a9 9 0 0 0 2.54-3.66c.46-1.27.42-2.37-.13-3.3-.55-.93-1.46-1.4-2.72-1.42a7.8 7.8 0 0 0-2.93.56c-1 .39-1.95.93-2.84 1.62-1.98 1.55-3.12 3.31-3.41 5.29-.1.73-.02 1.4.26 1.98.48 1 1.34 1.54 2.6 1.66a6.74 6.74 0 0 0 3.28-.6.17.17 0 0 0 .03-.16.17.17 0 0 0-.04-.07Zm-21.36-3.55h7.26c.05 0 .1-.02.13-.04a.26.26 0 0 0 .1-.11c.33-.72.44-1.35.32-1.88-.13-.62-.57-.98-1.31-1.09-2.71-.37-4.91.6-6.6 2.92a.13.13 0 0 0 .04.18.1.1 0 0 0 .06.02Z" fill="#00733A"/></svg>