<!-- by TradingView --><svg width="56" height="56" viewBox="0 0 56 56" xmlns="http://www.w3.org/2000/svg"><path fill="#F0F3FA" d="M0 0h56v56H0z"/><path d="M39.18 25.38a18.6 18.6 0 0 0-3.26 0c-1.98.2-4.1.52-6.36.97-2.76.54-4.9.95-6.44 1.22-2.44.43-4.54.62-6.28.56-2.33-.06-3.6-.89-3.8-2.46-.25-1.91.7-3.92 2.88-6.01a22.39 22.39 0 0 1 4.33-3.24c4.73-2.74 9.33-3.83 13.8-3.28 1.73.21 3.19.68 4.37 1.42a8.62 8.62 0 0 1 3.47 4.04v.1l-2.63 6.63-.03.03a.08.08 0 0 1-.05.02Z" fill="url(#a)"/><path d="M17.85 29.21c1.65-.04 3.67-.29 6.05-.73l3.46-.67c2.18-.43 3.82-.74 4.91-.94 1.84-.33 3.55-.53 5.12-.61 1.01-.05 1.99.02 2.93.22 1.6.33 2.5 1.19 2.65 2.58a7.05 7.05 0 0 1-.9 4.01 13.9 13.9 0 0 1-2.51 3.4 21.9 21.9 0 0 1-7.78 5.04 20.5 20.5 0 0 1-9.23 1.42c-2.95-.25-5.33-1.13-7.12-2.64a5.97 5.97 0 0 1-1.51-1.89.15.15 0 0 1-.02-.1c.24-1.19.68-2.62 1.32-4.29.48-1.26.85-2.15 1.1-2.65a9.51 9.51 0 0 1 1.49-2.14h.04Z" fill="url(#b)"/><defs><linearGradient id="a" x1="15.03" y1="23.09" x2="38.94" y2="29.59" gradientUnits="userSpaceOnUse"><stop stop-color="#056E52"/><stop offset=".43" stop-color="#519A86"/><stop offset="1" stop-color="#F0F3FA"/></linearGradient><linearGradient id="b" x1="41.34" y1="33.84" x2="18.79" y2="24.95" gradientUnits="userSpaceOnUse"><stop stop-color="#0B3470"/><stop offset=".48" stop-color="#5B769E"/><stop offset="1" stop-color="#F0F3FA"/></linearGradient></defs></svg>