<!-- by TradingView --><svg width="56" height="56" viewBox="0 0 56 56" xmlns="http://www.w3.org/2000/svg"><path fill="#181B1E" d="M0 0h56v56H0z"/><path d="M47 25h1.28l1.25 2.65 1.2-2.65H52l-2 3.76V31h-1v-2.24L47 25ZM35.9 31 34 25h1.32l1.22 4.4h.06l1.3-4.4h1.2l1.3 4.41h.06L41.68 25H43l-1.9 6h-1.22l-1.35-4.21h-.05L37.12 31H35.9ZM29 26v-1h5v1h-2v5h-1v-5h-2ZM24 31v-6h2.45c1.2 0 2.31.61 2.31 1.92 0 1.32-1.14 2.08-2.32 2.08h-1.75v-1h1.71c.65 0 1.28-.25 1.28-.99S27.05 26 26.4 26H25v5h-1Zm3.38-2.72L29 31h-1.25l-1.59-2.72h1.22ZM18.75 31H17.5l2.28-6h1.44l2.28 6h-1.25l-1.75-4.78L18.75 31Zm.04-2h3.41l.05 1.06h-3.4L18.78 29ZM43.25 31H42l2.28-6h1.44L48 31h-1.25l-1.73-4.77h-.05L43.25 31Zm.04-2h3.41l.05 1.06h-3.4L43.28 29ZM10 25h1.48l2.02 3.62L15.52 25H17v6h-1v-4.77L13.93 30h-.86L11 26.23V31h-1v-6ZM6.68 25c.77 0 1.52.29 2.2.63l-.48.88A4 4 0 0 0 6.68 26c-.42 0-1.22.2-1.22.77 0 .5 1 .62 1.34.7.95.2 2.2.55 2.2 1.76C9 30.45 7.74 31 6.68 31c-.97 0-1.87-.35-2.68-.86l.6-.83c.62.4 1.32.69 2.08.69.42 0 1.32-.21 1.32-.77 0-.52-1.08-.62-1.44-.7-.93-.2-2.2-.58-2.2-1.76C4.36 25.54 5.6 25 6.68 25Z" fill="#fff"/></svg>