<!-- by TradingView --><svg width="56" height="56" viewBox="0 0 56 56" xmlns="http://www.w3.org/2000/svg"><path fill="#F0F3FA" d="M0 0h56v56H0z"/><path d="M45.47 35c-.89 0-1.3-.27-1.41-1.03-.35.6-1.01 1.03-2.09 1.03-1.7 0-2.97-.92-2.97-2.72-.02-1.8 1.31-2.73 2.86-2.73.71 0 1.3.2 1.7.52v-.2c-.18-2.1-.43-3.11-1.4-3.11-1.28 0-.9 2.3-2.1 2.3-.57 0-.93-.4-.93-1 0-1.3 1.39-2.06 3.03-2.06 2.06 0 3.43 1.42 3.67 3.69l.33 3.4c.13 1.24.84.9.84 1.39 0 .41-.76.52-1.53.52Zm-4.13-3.13c0 1.24.5 2.34 1.33 2.34.66 0 1.1-.7 1.12-1.46l-.06-.8c-.08-1.05-.59-1.6-1.24-1.6-.68 0-1.15.6-1.15 1.52ZM34.5 35c-.25 0-.41-.13-.41-.32v-.07c0-.46.7-.6.64-1.4l-.16-3.4c-.09-1.95-.6-2.76-1.55-2.76-.97 0-1.52.83-1.52 2.02v4.15c0 .8.77.94.77 1.4v.07c0 .18-.16.31-.41.31h-3.34c-.25 0-.4-.13-.4-.31v-.07c0-.46.75-.6.75-1.4v-4.26c0-.83-.87-.9-.87-1.36v-.07c0-.18.14-.28.38-.39l2.5-1.06c.4-.22.62.04.62.39v.8c.5-.9 1.07-1.26 2.25-1.26 1.63 0 3.21.99 3.41 3.9l.2 3.3c.05.8.64.94.64 1.4v.07c0 .19-.16.32-.41.32H34.5ZM24.35 35C21.83 35 20 33.2 20 30.43c0-2.61 2-4.43 4.35-4.43 2.34 0 3.4 1.37 3.4 2.56 0 .6-.33.97-.81 1.18l-3.97 1.82c.46 1 1.29 1.57 2.35 1.57.95 0 1.7-.49 2.05-1.05.23-.27.65-.18.63.2-.1 1.05-1.33 2.72-3.65 2.72Zm-1.87-5.81a6 6 0 0 0 .18 1.54L25 29.56c.3-.16.46-.46.46-.84 0-.65-.48-1.93-1.45-1.93-.94 0-1.53 1.03-1.53 2.4ZM16.22 35c-.24 0-.38-.13-.38-.31v-.08c0-.45.66-.6.66-1.39v-4.15c0-.8-.66-1-.66-1.41v-.05c0-.17.14-.26.35-.39l2.11-1.14c.44-.22.7.04.7.35v6.79c0 .79.75.94.75 1.4v.07c0 .18-.16.31-.4.31h-3.13ZM10.24 35C6.86 35 5 33.22 5 31.79c0-.62.34-1.09 1.06-1.09 1.77.04 1.3 3.28 4.29 3.28 1.22 0 2.05-.71 2.05-1.8 0-3.8-7.17-1.2-7.17-6.47C5.23 23.57 7 22 9.92 22c2.97 0 4.92 1.6 4.9 3.09 0 .67-.37 1.1-1.13 1.1-1.91 0-1.24-3.17-3.82-3.17-1.35 0-2 .82-2 1.83 0 3.84 7.13 1.38 7.13 6.51 0 2.32-2.21 3.64-4.76 3.64ZM47 27.71v-3.16c0-.62.84-.77 1.04-.18l.88 2.52 2.73 1.04c.56.22.41 1.07-.19 1.07h-3.21c-.7 0-1.25-.58-1.25-1.29ZM17.52 22c-.9 0-1.52.63-1.52 1.5s.61 1.5 1.52 1.5c.9 0 1.48-.63 1.48-1.5s-.58-1.5-1.48-1.5Z"/></svg>