<!-- by TradingView --><svg width="56" height="56" viewBox="0 0 56 56" xmlns="http://www.w3.org/2000/svg"><path fill="#F0F3FA" d="M0 0h56v56H0z"/><path d="M38 20.48h-1.5V31H38V20.48Z" fill="#fff"/><path d="M37.75 20.72h-1v10.04h1V20.72Zm.25-.24V31h-1.5V20.48H38Z" fill="#62666C"/><path d="M37.5 20H36v10.52h1.5V20Z" fill="#EE352A"/><path d="M45 20.48h-4.5v1.43H42V31h1.5v-9.09H45v-1.43Z" fill="#fff"/><path fill-rule="evenodd" d="M42 21.91V31h1.5v-9.09H45v-1.43h-4.5v1.43H42Zm-1.25-.24h1.5v9.1h1v-9.1h1.5v-.95h-4v.95Z" fill="#62666C"/><path d="M44.5 20H40v1.43h1.5v9.1H43v-9.1h1.5V20Z" fill="#EE352A"/><path d="M52 20.48h-4.5v1.43H49V31h1.5v-9.09H52v-1.43Z" fill="#fff"/><path fill-rule="evenodd" d="M49 21.91V31h1.5v-9.09H52v-1.43h-4.5v1.43H49Zm-1.25-.24h1.5v9.1h1v-9.1h1.5v-.95h-4v.95Z" fill="#62666C"/><path d="M51.5 20H47v1.43h1.5v9.1H50v-9.1h1.5V20Z" fill="#EE352A"/><path d="M9 21.91v1.44H7.5V21.9h-1v2.87h1c1.2 0 1.5.96 1.5 1.44v3.35C9 30.04 8.6 31 7 31s-2-.96-2-1.43v-1.44h1.5v1.44h1v-3.35H6c-.8 0-1-.64-1-.96v-3.35c0-.48.4-1.43 2-1.43s2 .95 2 1.43Z" fill="#fff"/><path fill-rule="evenodd" d="M7.75 25.98v3.82h-1.5v-1.43h-1v1.2c0 .18.08.48.33.73.25.24.68.46 1.42.46.74 0 1.17-.22 1.42-.46.25-.25.33-.55.33-.73v-3.35c0-.2-.07-.51-.25-.76-.18-.24-.48-.44-1-.44H6.25v-3.35h1.5v1.44h1v-1.2c0-.18-.08-.48-.33-.73-.25-.24-.68-.46-1.42-.46-.74 0-1.17.22-1.42.46-.25.25-.33.55-.33.73v3.35c0 .12.04.3.15.46.1.14.28.26.6.26h1.75ZM9 21.9c0-.48-.4-1.43-2-1.43s-2 .95-2 1.43v3.35c0 .32.2.96 1 .96h1.5v3.35h-1v-1.44H5v1.44c0 .47.4 1.43 2 1.43s2-.96 2-1.43v-3.35c0-.48-.3-1.44-1.5-1.44h-1v-2.87h1v1.44H9V21.9Z" fill="#62666C"/><path d="M8.5 21.43v1.44H7v-1.44H6v2.87h1c1.2 0 1.5.96 1.5 1.44v3.35c0 .48-.4 1.43-2 1.43s-2-.95-2-1.43v-1.44H6v1.44h1v-3.35H5.5c-.8 0-1-.64-1-.96v-3.35c0-.47.4-1.43 2-1.43s2 .96 2 1.43Z" fill="#EE352A"/><path d="M16.5 23.35H15V21.9h-1v7.66h1v-1.44h1.5v1.44c0 .47-.4 1.43-2 1.43s-2-1.28-2-1.91V21.9c0-.48.4-1.43 2-1.43s2 .95 2 1.43v1.44Z" fill="#fff"/><path d="M15.25 29.8h-1.5v-8.13h1.5v1.44h1v-1.2c0-.18-.08-.48-.33-.73-.25-.24-.68-.46-1.42-.46-.74 0-1.17.22-1.42.46-.25.25-.33.55-.33.73v7.18c0 .28.09.7.35 1.05.26.34.68.62 1.4.62.74 0 1.17-.22 1.42-.46.25-.25.33-.55.33-.73v-1.2h-1v1.43ZM15 28.13h1.5v1.44c0 .47-.4 1.43-2 1.43s-2-1.28-2-1.91V21.9c0-.48.4-1.43 2-1.43s2 .95 2 1.43v1.44H15V21.9h-1v7.66h1v-1.44Z" fill="#62666C"/><path d="M16 22.87h-1.5v-1.44h-1v7.66h1v-1.44H16v1.44c0 .48-.4 1.43-2 1.43s-2-1.27-2-1.91v-7.18c0-.47.4-1.43 2-1.43s2 .96 2 1.43v1.44Z" fill="#EE352A"/><path d="M21 20.48h-1.5V31H21v-4.78h1V31h1.5V20.48H22v4.3h-1v-4.3Z" fill="#fff"/><path fill-rule="evenodd" d="M21 26.22h1V31h1.5V20.48H22v4.3h-1v-4.3h-1.5V31H21v-4.78Zm-.25 4.54v-4.78h1.5v4.78h1V20.72h-1v4.3h-1.5v-4.3h-1v10.04h1Z" fill="#62666C"/><path d="M20.5 20H19v10.52h1.5v-4.78h1v4.78H23V20h-1.5v4.3h-1V20Z" fill="#EE352A"/><path d="M29 31h-1.5V20.48H29l1.25 2.87 1.25-2.87H33V31h-1.5v-6.7l-1.25 2.4L29 24.3V31Z" fill="#fff"/><path fill-rule="evenodd" d="M29 20.48h-1.5V31H29v-6.7l1.25 2.4 1.25-2.4V31H33V20.48h-1.5l-1.25 2.87L29 20.48Zm2.67.24-1.42 3.25-1.42-3.25h-1.08v10.04h1V24.3l.47-.1 1.03 1.96 1.03-1.96.47.1v6.46h1V20.72h-1.08Z" fill="#62666C"/><path d="M28.5 30.52H27V20h1.5l1.25 2.87L31 20h1.5v10.52H31v-6.7l-1.25 2.4-1.25-2.4v6.7Z" fill="#EE352A"/><path fill="#4D525A" d="M4 32h48v4H4z"/></svg>