<!-- by TradingView --><svg width="56" height="56" viewBox="0 0 56 56" xmlns="http://www.w3.org/2000/svg"><path fill="#195A7D" d="M0 0h56v56H0z"/><path d="M14 20.4A15.96 15.96 0 0 1 28.02 12c8.6.01 15.98 7.36 15.98 16 0 8.5-6.97 15.68-15.42 15.99a16 16 0 0 1-9.1-2.45l1.07-1.7A13.99 13.99 0 0 0 28.5 42 14.18 14.18 0 0 0 42 28c0-7.56-6.46-13.99-13.98-14-5.1 0-9.83 2.86-12.25 7.36L14 20.41Z" fill="#F6B334"/><path d="M16 28c0-6.54 5.48-12 12-12 6.5 0 12 5.55 12 12 0 6.52-5.46 12-12 12v-1c5.96 0 11-5.05 11-11 0-5.87-5.05-11-10.99-11A11.2 11.2 0 0 0 17 28h-1Z" fill="#F6B334"/><path d="M20.26 32.58a9 9 0 1 1 11.95 3.37l-.27-.5a8.42 8.42 0 1 0-11.19-3.16l-.5.3Z" fill="#F6B334"/></svg>