<!-- by TradingView --><svg width="56" height="56" viewBox="0 0 56 56" fill="none" xmlns="http://www.w3.org/2000/svg">
<rect width="56" height="56" fill="#F0F3FA"/>
<path fill-rule="evenodd" clip-rule="evenodd" d="M45 16.9875L28.0256 11L11 16.9875C11.6325 22.1904 13.1798 32.9868 16.7436 37.9184C20.1263 42.5994 25.547 46.4135 28.0256 48C28.1372 47.9216 28.256 47.8384 28.3813 47.7506L28.3843 47.7485L28.3843 47.7484C30.9872 45.9249 36.4246 42.1156 39.359 37.9184C42.9625 32.764 44.4701 22.3098 45 16.9875ZM28.0238 12.1894L43.8008 17.7695C43.3083 22.7295 41.9071 32.4723 38.5577 37.2759C35.8303 41.1875 30.7764 44.7376 28.3572 46.4371L28.3552 46.4385C28.2384 46.5205 28.1277 46.5982 28.0238 46.6715C25.72 45.193 20.6817 41.6384 17.5376 37.2759C14.2252 32.68 12.787 22.6183 12.1992 17.7695L28.0238 12.1894ZM28.0215 13.6495L42.3139 18.7045C41.8677 23.1979 40.5983 32.0239 37.5642 36.3754C35.0934 39.9189 30.5151 43.135 28.3235 44.6745C28.217 44.7493 28.1162 44.8201 28.0215 44.8868C25.9345 43.5475 21.3703 40.3274 18.5221 36.3754C15.5214 32.212 14.2185 23.0971 13.686 18.7045L28.0215 13.6495ZM24 20H21V35H24V28H32V35H35V20H32V25H24V20Z" fill="#08538D"/>
</svg>
