<!-- by TradingView --><svg xmlns="http://www.w3.org/2000/svg" width="56" height="56" viewBox="0 0 56 56"><path fill="#F0F3FA" d="M0 0h56v56H0z"/><path d="M38.03 30H26a7.93 7.93 0 0 1-3.72-.86.96.96 0 0 0-.89 1.7C22.81 31.57 24.4 32 26 32h12.04a4 4 0 0 0 0-8H26c-2.55 0-4.87 1-6.64 2.57a8.02 8.02 0 0 1-1.4-3.8.95.95 0 1 0-1.9.19A9.9 9.9 0 0 0 18.05 28a9.94 9.94 0 0 0-1.96 7.06A8.02 8.02 0 0 1 19.98 20h18.05A4.03 4.03 0 0 0 42 15.96 3.97 3.97 0 0 0 38.03 12H26a9.95 9.95 0 0 0-9.4 6.6A10 10 0 0 0 19.98 38h18.06c1.13 0 2.05.9 2.05 2.03 0 1.14-.92 1.97-2.05 1.97H26c-2.2 0-4.26-.78-5.8-2.37a.96.96 0 0 0-1.37 1.34A9.9 9.9 0 0 0 26 44h12.04A3.97 3.97 0 0 0 42 40.04 4.03 4.03 0 0 0 38.04 36H19.98c-.63 0-1.25 0-1.84-.14A8.04 8.04 0 0 1 26 26h12.03c1.14 0 2.06.87 2.06 2a2 2 0 0 1-2.06 2zM26 14h12.04c1.13 0 2.05.83 2.05 1.96S39.17 18 38.04 18H19.98c-.35 0-.7.03-1.05.07A7.97 7.97 0 0 1 26 14z" fill="#00AEDC"/></svg>