<!-- by TradingView --><svg width="56" height="56" viewBox="0 0 56 56" xmlns="http://www.w3.org/2000/svg"><path fill="#182752" d="M0 0h56v56H0z"/><path fill-rule="evenodd" d="M28.8 14H16c.99.77 2.96 1.04 4 1.07v26.06c-1.94 0-3.36.55-4 .82h12a11.3 11.3 0 0 0-4-.82V30.2c-.05-.51 1.15-1.12 3.22-.77 1.27.22 3.66 3.84 5.72 6.97 1.31 1.98 2.5 3.77 3.18 4.39 1.43 1.26 5.18 1.3 6.88 1.17-2.03-.77-4.45-3.41-6.63-7.43a21 21 0 0 0-4.9-6.11c4.04-1.1 4.95-4.98 4.9-6.77-.24-5.87-5.14-7.54-7.56-7.64ZM21 15h1v26h-1V15Zm3 .27c2.55-.05 7.7 1.22 7.99 6.72.35 6.87-7.29 6.06-7.99 5.8V15.28Zm10.3 6.16c-.4-5.86-5.51-6.99-8.02-6.82 1.88.3 6.78 1.88 6.93 6.82.11 3.95-1.87 5.89-2.87 6.37 3.24-1.23 3.99-4.76 3.95-6.37Zm-5.25 7.49c.81.35 2.87 1.87 4.65 5.09 2.23 4.02 3.86 6.3 5.2 6.87-.9.05-3.32-1.69-5.82-5.8l-.33-.55c-2.76-4.55-2.84-4.68-3.7-5.61Z" fill="#fff"/></svg>