<!-- by TradingView --><svg width="56" height="56" viewBox="0 0 56 56" xmlns="http://www.w3.org/2000/svg"><path fill="#F0F3FA" d="M0 0h56v56H0z"/><path d="m31.72 14.02-3.63 5.5a.17.17 0 0 0 0 .19l4.06 6.15c.4.6.88 1.28 1.3 2.03.06.09.13.1.24.05l-.08.27a.6.6 0 0 0-.2.18 14513.46 14513.46 0 0 0-5.33 8.07.1.1 0 0 1-.14-.04l-5.45-8.19-.14-.28a.38.38 0 0 0 .3-.18c1.49-2.29 2.5-3.84 3.06-4.64a61.96 61.96 0 0 0 2.27-3.58 2313.58 2313.58 0 0 0-3.4-5.2c-.05-.08-.1-.13-.16-.14a.62.62 0 0 0-.22 0c.11-.14.23-.21.34-.21a963 963 0 0 0 7.18.02Z" fill="#A3CDC3"/><path d="m36.99 23-3.3 4.94c-.1.05-.18.04-.23-.05-.43-.75-.92-1.43-1.31-2.03L28.1 19.7a.17.17 0 0 1 0-.18l3.62-5.51c2.3 3.67 3.81 6.05 4.54 7.14.5.73.74 1.34.73 1.84ZM24.2 14.2a.62.62 0 0 1 .22.01c.06.01.11.06.16.13a2313.58 2313.58 0 0 1 3.4 5.21c0 .03 0 .06-.02.09a62 62 0 0 1-2.25 3.49c-.55.8-1.57 2.35-3.06 4.64a.38.38 0 0 1-.3.18l-3.33-5c-.05-.37.04-.72.27-1.08 1.58-2.5 3.17-4.98 4.76-7.47a.9.9 0 0 1 .15-.2Z" fill="#CDE4DE"/><path d="m22.35 27.95.14.28c-.08-.01-.14 0-.17.06-1 1.57-2.1 3.17-3.28 4.81l-.02-10.15 3.33 5ZM36.99 23l-.03 10.04-3.35-4.83.08-.27 3.3-4.94Z" fill="#87BFB2"/><path d="m22.49 28.23 5.45 8.2a.1.1 0 0 0 .1.04.1.1 0 0 0 .09-.05l5.28-8.03a.6.6 0 0 1 .2-.18l3.35 4.83c.05.13.05.32 0 .55-.04.16-.11.33-.23.51l-4.9 7.73c-.09.14-.24.2-.45.16.12-.07.14-.16.07-.26a2130.76 2130.76 0 0 1-3.36-5.05.13.13 0 0 0-.17.04l-3.46 5.26c-.1 0-.2-.08-.3-.25l-5.02-7.76a.68.68 0 0 1-.1-.25c-.05-.3-.05-.5 0-.62 1.19-1.64 2.28-3.24 3.28-4.8.03-.06.1-.08.17-.07Z" fill="#4EA696"/><path d="M31.38 41.99h-6.92l3.46-5.27a.13.13 0 0 1 .22 0l3.31 5c.07.11.05.2-.07.27Z" fill="#008067"/><path d="M33.95 11.07 32.5 13h-9L22 11.1a.31.31 0 0 1 .22-.08c3.76-.02 7.53-.02 11.3-.02.11 0 .26.03.43.07Z" fill="#A3CDC3"/><path d="M40 19.64a.65.65 0 0 0-.36.33l-.24.41c-.38.48-1.08 1.1-1.4 1.62l-5.5-9 1.45-1.93c.09.03.17.1.25.2l5.2 7.34c.24.35.44.69.6 1.03ZM22 11.1l1.5 1.9-5.5 9-2-2.38c.17-.38.47-.86.88-1.44.68-.93 2.28-3.19 4.8-6.76.1-.13.2-.24.32-.33Z" fill="#CDE4DE"/><path d="m40 19.64-.01 16.64a.21.21 0 0 1-.05-.12v-.01l-.01-.01h-.03l-.03.01a.06.06 0 0 1-.03.01l-.04-.01a5.14 5.14 0 0 1-.45-.49c-.3-.54-.92-1.2-1.35-1.66V22c.32-.53 1.02-1.14 1.4-1.62.04-.06.13-.2.24-.41.1-.17.21-.28.36-.33ZM16 19.62 18 22v12c-.5.81-1.39 1.62-2 2.19V19.62Z" fill="#87BFB2"/><path d="M29.92 30.57c0-.01 0-.02.02-.03h.02c.01 0 .02 0 .03.02v.03c.02.44-.01.82-.1 1.14a.4.4 0 0 1-.12.2.28.28 0 0 1-.19.07h-3.53c-.03 0-.05-.09-.05-.07 0-.02 0-.03.02-.05l.03-.01a.71.71 0 0 0 .7-.71c.04-2.3.05-4.36.01-6.2l-.06-.63c-.01-.07-.06-.13-.12-.13l-.5-.04h-.04l-.02-.03a.1.1 0 0 1-.02-.03.1.1 0 0 1 0-.03V24h3.72c.02 0 .04.03.04.05l-.05 1.12a.1.1 0 0 1-.03.06.07.07 0 0 1-.05.03H29.57l-.02-.02v-.02c.01-.5-.17-.76-.55-.77l-1.37-.08c-.05 0-.1.06-.1.1v2.95a.1.1 0 0 0 .01.03l.02.03.02.02H29c.2 0 .4-.08.57-.23h.03l.01.01v.02l-.06 1.38v.02l-.01.02-.02.02h-.08v-.01l-.01-.01a1.82 1.82 0 0 0-.15-.64.18.18 0 0 0-.05-.06.13.13 0 0 0-.07-.03l-1.51-.1h-.04a.1.1 0 0 0-.04.03.12.12 0 0 0-.02.04V28c-.01.86-.02 1.62-.01 2.28 0 .48-.05 1.1.37 1.22.34.1.97.06 1.37 0 .53-.07.48-.48.64-.94Z" fill="#008067"/><path d="M38 34c.65.7 1.47 1.62 1.99 2.28a.81.81 0 0 1-.1.38A586.25 586.25 0 0 1 34 45l-1.5-2 5.5-9ZM18 34c.66 1.03 5.5 9 5.5 9L22 44.99l-.54-.74c-1.79-2.54-3.58-5.07-5.39-7.6-.06-.08-.08-.24-.07-.46.61-.57 2-2.19 2-2.19Z" fill="#4EA696"/><path d="m32.5 43 1.5 2-12-.01L23.5 43h9Z" fill="#008067"/></svg>