<!-- by TradingView --><svg width="56" height="56" viewBox="0 0 56 56" xmlns="http://www.w3.org/2000/svg"><path fill="url(#a1f2wkkkq)" d="M0 0h56v56H0z"/><path d="M44 28a6.9 6.9 0 0 1-7 7v-1.17A5.75 5.75 0 0 0 42.8 28H44Z" fill="#E00048"/><path d="M32.83 25.74c-.4.78-1.19 1.26-2.25 1.26-1.52 0-2.58-1.03-2.58-2.5 0-1.43 1.08-2.5 2.52-2.5 1.47 0 2.48 1.05 2.48 2.54 0 .11 0 .35-.02.46h-3.57c.05.56.57.85 1.17.85.53 0 .82-.23 1.04-.58l1.21.47Zm-1.24-1.77c-.06-.5-.5-.87-1.08-.87-.57 0-1.03.42-1.1.87h2.18ZM31.26 33.74c-.4.78-1.19 1.26-2.25 1.26-1.51 0-2.58-1.03-2.58-2.5 0-1.43 1.08-2.5 2.52-2.5 1.47 0 2.48 1.05 2.48 2.54 0 .11 0 .35-.02.46h-3.57c.05.56.57.85 1.17.85.53 0 .82-.23 1.04-.58l1.21.47Zm-1.24-1.77c-.05-.5-.5-.87-1.08-.87-.57 0-1.03.42-1.1.87h2.18ZM23 22h1.44l1.08 3.16L26.6 22H28l-1.88 5h-1.24L23 22ZM19.34 27H18v-5h1.34v.75c.27-.47.73-.75 1.34-.75 1.04 0 1.67.76 1.67 2v3H21v-2.67c0-.64-.28-1-.8-1s-.86.4-.86 1.09V27ZM14.5 22c1.43 0 2.5 1.09 2.5 2.5S15.93 27 14.5 27a2.45 2.45 0 0 1-2.5-2.5c0-1.41 1.07-2.5 2.5-2.5Zm0 3.72c.24 0 .47-.06.67-.19.2-.13.35-.32.45-.54a1.26 1.26 0 0 0-.24-1.34 1.18 1.18 0 0 0-1.3-.28 1.25 1.25 0 0 0-.66 1.6 1.21 1.21 0 0 0 .63.65c.14.07.3.1.45.1ZM9.35 20c.58 0 1.14.17 1.64.48v1.54c-.49-.4-1-.6-1.6-.6-1.12 0-1.96.91-1.96 2.08 0 1.15.82 2.07 1.96 2.07.6 0 1.1-.2 1.61-.58v1.54c-.5.3-1.08.47-1.66.47C7.42 27 6 25.5 6 23.5 6 21.52 7.48 20 9.35 20ZM48.64 22l-1.13 3.22L46.4 22H45l1.81 4.79-.1.34c-.03.09-.08.18-.13.26-.15.25-.37.32-.73.34h-.47c0 .4-.03.8-.1 1.2a2.28 2.28 0 0 0 1.05.03c.72-.1 1.24-.62 1.67-1.75L50 22h-1.36ZM33.59 31.45c0 .18.14.3.4.37l.6.15c.92.23 1.41.73 1.41 1.4 0 .96-.82 1.63-1.95 1.63-.96 0-1.73-.43-2.05-1.16l1.16-.63c.17.4.54.65.9.65.3 0 .5-.14.5-.37 0-.16-.14-.29-.43-.35l-.57-.14c-.91-.21-1.38-.71-1.38-1.46 0-.9.76-1.54 1.87-1.54.83 0 1.62.44 1.92 1.1l-1.17.61c-.14-.35-.47-.58-.76-.58-.27 0-.45.13-.45.32ZM26 31.51a.81.81 0 0 0-.34-.06c-.76 0-1.31.6-1.31 1.56V35H23v-5h1.34v.91c.24-.56.83-.91 1.43-.91a.9.9 0 0 1 .23.03v1.48ZM22 30v5h-1.33v-.75c-.32.48-.89.75-1.5.75-1.23 0-2.17-1.08-2.17-2.5 0-1.4.94-2.5 2.18-2.5.6 0 1.17.24 1.49.73V30H22Zm-2.47 3.73c.24 0 .47-.07.67-.2.2-.14.35-.33.44-.55a1.28 1.28 0 0 0-.25-1.35 1.15 1.15 0 0 0-1.3-.27c-.22.09-.4.25-.54.45a1.27 1.27 0 0 0 .53 1.83c.14.06.3.1.45.1ZM13.32 35H12v-7h1.32v2.69c.27-.48.77-.76 1.37-.76 1.02 0 1.64.77 1.64 2.02V35H15v-2.72c0-.64-.28-1.01-.78-1.01-.52 0-.9.43-.9 1.1V35ZM7.25 32.68c.23.57.72.96 1.31.96.48 0 .93-.24.93-.68 0-.32-.22-.54-.7-.72l-.88-.29C6.92 31.6 6.3 31 6.3 30.02c0-1.22.94-2.02 2.22-2.02 1.01 0 1.95.55 2.37 1.46l-1.21.69c-.2-.45-.62-.81-1.13-.81-.44 0-.75.24-.75.6 0 .32.24.5.66.66l.94.34c1.09.4 1.61 1.02 1.61 1.93C11 34.22 9.8 35 8.54 35A2.64 2.64 0 0 1 6 33.34l1.25-.66ZM43 20.6V22h1.27v1.2H43V25c0 .52.27.73.75.73.18 0 .36-.06.52-.15v1.23c-.21.11-.54.2-1 .2-1.01 0-1.64-.63-1.64-1.71v-2.08H41V22h.63v-1.4H43ZM39.71 21.57a.8.8 0 0 1-.79-.78.79.79 0 0 1 .8-.79.8.8 0 0 1 .79.79.79.79 0 0 1-.8.79ZM39 27v-5h1.43v5H39ZM35.7 25.5l-.96 1.5h-1.52l1.71-2.53L33.3 22h1.56l.88 1.4.9-1.4h1.52l-1.64 2.43 1.7 2.57h-1.55l-.97-1.5Z" fill="#fff"/><defs><linearGradient id="a1f2wkkkq" x1="10.42" y1="9.71" x2="68.15" y2="76.02" gradientUnits="userSpaceOnUse"><stop stop-color="#1A1E21"/><stop offset="1" stop-color="#06060A"/></linearGradient></defs></svg>