<!-- by TradingView --><svg width="56" height="56" viewBox="0 0 56 56" xmlns="http://www.w3.org/2000/svg"><path fill="#F0F3FA" d="M0 0h56v56H0z"/><path d="M40.48 21.87c-1 .12-1.57-.2-1.71-.99a.67.67 0 0 0-.13-.29 2.45 2.45 0 0 0-1.87-1.02 9 9 0 0 1-1.1-.3c-.37-.11-.7.05-1 .48-.38.1-.65.4-.81.91-.1.33-.52.48-1.25.44-.1.29-.12.48-.08.6.05.15.17.22.35.22l.06.56c-.63-.15-.96.16-.99.93.28.49.4.96.37 1.42-.33.85-.18 1.39.44 1.6-.16.55-.52.96-1.06 1.23a.52.52 0 0 0-.19.16.55.55 0 0 0-.1.22c-.07.35.08.54.46.56-.76.37-1.37.45-1.84.23a.23.23 0 0 1-.13-.2.23.23 0 0 1 .11-.22l.54-.31a.16.16 0 0 0-.06-.3 4.08 4.08 0 0 0-1.22.08.7.7 0 0 0-.45.3c-.32.5-.8.63-1.44.42a3.49 3.49 0 0 1-1.52-1.7c-.3-.7-.25-1.23.16-1.6a.41.41 0 0 0 .12-.4l-.12-.54a.51.51 0 0 1 .5-.6c.1 0 .2.02.28.08.1.06.23-.2.39-.78l-.17.35.32-.54a.35.35 0 0 1 .27-.17.34.34 0 0 1 .28.1c.17.2.31.27.42.25a.23.23 0 0 0 .2-.17.25.25 0 0 0-.09-.25 2.96 2.96 0 0 0-1.1-.65c-.74-.17-1.04-.52-.88-1.04l1.2-.66.28-.03c.64-.21 1.19-.06 1.64.46a.23.23 0 0 0 .34.01l.05-.04a.2.2 0 0 0 .03-.24 3.68 3.68 0 0 0-1.53-.73c-.66-.17-.84-.63-.54-1.38l1.78-1.16a.6.6 0 0 0 .22-.27.63.63 0 0 0 .04-.35c-.08-.5.2-.78.84-.85.23-.02.45-.1.63-.26l1.6-1.3a.68.68 0 0 1 .62-.11c1.51.43 3.03 1.25 4.54 2.47a5.22 5.22 0 0 1 1.94 3.01c.11.53.45.94.97 1.08.5.13.6.39.32.77-.17.23-.48.4-.93.51Z" fill="#2E436D"/><path d="M27.91 18.33c-.3.75-.12 1.21.54 1.38-.26-.1-.5-.08-.69.07l-.02.01-.01.03c-.07.14 0 .28.19.43l-.29.04c-1.47-.14-1.87.08-1.2.65-.15.52.15.87.89 1.04.28.06.65.28 1.1.65a.25.25 0 0 1 .08.25.23.23 0 0 1-.19.18c-.11.01-.25-.07-.42-.25a.33.33 0 0 0-.29-.11.35.35 0 0 0-.26.17l-.32.54.06-.55a.48.48 0 0 0-.37-.53.48.48 0 0 0-.24.01c-.56.17-1.02-.01-1.4-.54-.14-.2-.34-.35-.58-.41l-1.35-.36c-.14-.62-.41-1.05-.81-1.3a.22.22 0 0 0-.31.08.22.22 0 0 0-.02.12c.05.75.43 1.12 1.14 1.1-.06.28-.05.51.04.7.08.2.26.3.55.32.41.04 1 .3 1.75.78a.32.32 0 0 1 .13.36.32.32 0 0 1-.3.23h-.87a.24.24 0 0 0-.19.36c.03.05.07.08.13.1.67.2 1.6-.08 2.81-.82-.16.58-.3.84-.4.78a.5.5 0 0 0-.74.23c-.04.1-.05.2-.03.3l.12.54a.42.42 0 0 1-.12.4c-.41.36-.46.9-.16 1.6.33.75.84 1.31 1.52 1.7h-3.26a.8.8 0 0 0-.81.8v1.94c0 .22.08.43.22.6a.9.9 0 0 0 .55.3c2.57.38 5.4.34 8.48-.1l1.11.71-15.43.14a.15.15 0 0 1-.15-.16c0-.02 0-.05.02-.07l.08-.13a.19.19 0 0 1 .15-.08l2.04-.16a.57.57 0 0 0 .52-.56V29.7a.9.9 0 0 0-1.1-.89c-.92.19-1.54.17-1.87-.05a.39.39 0 0 1-.04-.59c.02-.01.25.01.7.08a.16.16 0 0 0 .18-.15.2.2 0 0 0-.16-.2c-.37-.06-1.1.17-2.19.7-.24.13-.43.13-.58 0-.32-.28-.68-.27-1.1 0a.24.24 0 0 1-.36-.1.25.25 0 0 1-.02-.14c.1-.59 0-1.29-.32-2.1a.61.61 0 0 1 .26-.75c.46-.27.45-.58-.03-.93a.36.36 0 0 1-.15-.3.38.38 0 0 1 .15-.3c.6-.46 1.13-.66 1.58-.62a.19.19 0 0 0 .2-.2.19.19 0 0 0-.03-.1 4.1 4.1 0 0 0-1.4-1.28.33.33 0 0 1-.19-.24.35.35 0 0 1 .07-.3c.42-.5.95-.77 1.58-.84a.39.39 0 0 0 .35-.42c-.01-.16-.11-.3-.3-.4-.15-.1-.2-.21-.16-.36.45-1.3 1.1-1.88 1.97-1.75a.28.28 0 0 0 .32-.25c.01-.05 0-.1-.02-.14-.27-.65-.07-1.05.62-1.19.35-.07.79-.33 1.31-.77.9-.76 1.74-1 2.5-.72 1.72.63 3.46 1.94 5.24 3.92Z" fill="#7389B5"/><path d="m40.48 21.87.1.79-.5-.04a.54.54 0 0 0-.58.54v1.33a.42.42 0 0 1-.5.41.42.42 0 0 1-.22-.11c-.35-.37-.66-.37-.93-.01.16-1.4.05-2.08-.33-2.06-.4-.38-.98-.46-1.77-.24a.31.31 0 0 1-.39-.23l-.3-1.39c.07-.72-.06-1.1-.4-1.1.3-.44.64-.6 1-.5.65.2 1.02.3 1.11.31.74.04 1.36.38 1.87 1.02.07.09.11.19.13.3.14.77.71 1.1 1.7.98Z" fill="#6E7B97"/><path d="M28.45 19.71a3.69 3.69 0 0 1 1.53.73.2.2 0 0 1-.03.24l-.05.04a.23.23 0 0 1-.34-.01c-.45-.52-1-.67-1.64-.46-.2-.15-.26-.3-.2-.43l.02-.03.02-.01c.2-.15.43-.18.69-.07Z" fill="#A2ACBB"/><path d="M34.66 19.75c.34.02.47.39.4 1.11-.76.14-1.16.08-1.2-.2.16-.5.43-.8.8-.9Z" fill="#fff"/><path d="m27.63 20.29-1.2.65c-.67-.57-.27-.79 1.2-.65Z" fill="#A2ACBB"/><path d="M33.86 20.66c.04.28.44.34 1.2.2l.3 1.39a.31.31 0 0 0 .27.24h.12c.79-.23 1.37-.15 1.77.23l-.95.65a.33.33 0 0 0-.14.3.33.33 0 0 0 .2.27c.48.2.76.55.86 1.07a.17.17 0 0 0 .14.13.17.17 0 0 0 .17-.09.63.63 0 0 0 .05-.27c.27-.36.58-.36.93 0a.42.42 0 0 0 .72-.29v-1.33a.55.55 0 0 1 .37-.51.54.54 0 0 1 .22-.03l.49.04c.08.3.24.55.47.77.33.05.55.15.66.3.14.17.1.38-.13.64-.16.2-.27.38-.31.57a.53.53 0 0 0 .36.63l.2.07a.42.42 0 0 1 .06.63c-.55.58-.62 1.2-.2 1.87-.83.17-1.67.17-2.54 0l-.08-.19c.42-.28.38-.72-.12-1.34a.62.62 0 0 0-.45-.23.6.6 0 0 0-.46.19l-.56.57c-1.28 1.07-2.48 1.62-3.62 1.65-.29.51-.3 1.03-.02 1.56-.08.34-.1.67-.05 1a.34.34 0 0 0 .42.28c.54-.11.92 0 1.15.33l4.8.46.05.01a.07.07 0 0 1-.04.12c-1 .32-1.7.4-2.12.22a.4.4 0 0 0-.2-.04l-4.18.13-1.11-.71c.69-1.21.46-2.4-.69-3.55-.38-.02-.53-.2-.46-.56a.55.55 0 0 1 .1-.22.52.52 0 0 1 .19-.16c.54-.27.9-.68 1.06-1.22.14-.55 0-1.09-.44-1.61.03-.46-.1-.93-.37-1.42.6-.16.92-.47 1-.93l-.07-.56c.1-.1.17-.2.2-.32.05-.14.01-.25-.1-.32a1.96 1.96 0 0 0-.37-.18c.73.04 1.15-.1 1.25-.44Z" fill="#213761"/><path d="m27.02 23.41.17-.35c-1.2.74-2.14 1.02-2.81.82a.24.24 0 0 1-.16-.26.24.24 0 0 1 .22-.2h.86a.32.32 0 0 0 .3-.23.32.32 0 0 0-.12-.36 4.43 4.43 0 0 0-1.75-.78c-.29-.02-.47-.13-.55-.32-.09-.19-.1-.42-.04-.7l1.35.36c.24.06.44.2.58.4.38.54.84.72 1.4.55a.48.48 0 0 1 .61.52l-.06.55ZM32.88 21.92c-.18 0-.3-.07-.35-.22-.04-.12-.01-.31.08-.6.16.06.29.12.37.18.11.07.15.18.1.32a.78.78 0 0 1-.2.32ZM32.94 22.48c-.07.46-.4.77-.99.93.03-.77.36-1.08 1-.93Z" fill="#D3D0DD"/><path d="M37.85 24.78c0 .11-.02.2-.05.27a.17.17 0 0 1-.17.1.17.17 0 0 1-.14-.14c-.1-.52-.38-.87-.86-1.07a.33.33 0 0 1-.17-.44c.02-.05.06-.1.11-.13l.95-.65c.38-.02.5.67.33 2.06ZM32.32 24.83c.44.52.58 1.06.44 1.6-.62-.21-.77-.75-.44-1.6ZM39.07 27.96c-.16.1-.33.16-.5.17-.12 0-.21-.02-.28-.1a.46.46 0 0 1-.1-.3c.3-.08.73-.36.34-.7a.36.36 0 0 0-.31-.08.34.34 0 0 0-.25.2l-.15.4a.46.46 0 0 1-.34-.4l.56-.58a.6.6 0 0 1 .71-.12c.08.04.15.1.2.16.5.62.54 1.06.12 1.35Z" fill="#A2ACBB"/><path d="M38.2 27.74c-.16.07-.32.1-.49.11h-.03a.07.07 0 0 1-.03-.04v-.04l.02-.03a.46.46 0 0 0 .15-.2l.15-.38a.34.34 0 0 1 .41-.2c.06 0 .1.03.15.07.4.34-.05.62-.33.7Z" fill="#213761"/><path d="M37.48 27.14c.03.2.14.34.34.4a.46.46 0 0 1-.15.2.05.05 0 0 0-.02.03v.04l.03.03.03.01c.17 0 .33-.04.49-.11 0 .12.03.22.1.3.06.07.15.1.27.09.17-.01.34-.07.5-.17l.08.18-3 .52a1.07 1.07 0 0 0-.89 1.11l.1 2.2c-.23-.34-.61-.45-1.15-.34a.34.34 0 0 1-.42-.28c-.04-.33-.03-.66.05-1 .38-.17.57-.55.58-1.13.01-.34-.18-.49-.56-.43 1.14-.03 2.34-.58 3.62-1.65Z" fill="#6E7B97"/><path d="M33.86 28.8c.38-.07.57.08.56.42-.01.58-.2.96-.58 1.13a1.52 1.52 0 0 1 .02-1.56Z" fill="#D3D0DD"/><path d="M36.33 16.95c.18.15.3.4.37.73.01.05 0 .1-.01.16a.31.31 0 0 1-.12.13.43.43 0 0 1-.17.07.5.5 0 0 1-.2-.02c-.2-.05-.35-.24-.43-.54a.53.53 0 0 1 0-.28c.02-.09.07-.17.13-.23s.14-.1.22-.1a.3.3 0 0 1 .21.08Z" fill="#7389B5"/><path d="M34.48 17.03a.22.22 0 0 1 .38.17c-.01.33-.12.56-.3.72-.2.16-.4.18-.63.07a.22.22 0 0 1-.06-.35l.61-.61Z" fill="#D3D0DD"/><path d="M33.5 18.66a1.32 1.32 0 0 1 .06.67.19.19 0 0 1-.37-.05c-.05-.31-.07-.5-.05-.57a.2.2 0 0 1 .28-.13.2.2 0 0 1 .08.08ZM32.4 19.86l-1 1.01a.12.12 0 0 1-.23-.06c0-.03 0-.06.03-.09l.67-1.17a.2.2 0 0 1 .15-.1.2.2 0 0 1 .18.06 13.9 13.9 0 0 1 .23.23.1.1 0 0 1-.02.12ZM30.6 23.76c-.2.13-.45.1-.77-.1a.2.2 0 0 1 .08-.36c.2-.03.41.02.66.13a.19.19 0 0 1 .03.33Z" fill="#A2ACBB"/><path d="M28.92 24.3c-.37-.26-.79-.3-.93-.1-.14.21.04.6.4.85.38.26.8.3.94.1.14-.2-.04-.59-.41-.85Z" fill="#7389B5"/><path d="M30.68 25.11c-.01.08-.12.14-.32.17a.34.34 0 0 1-.17 0 .31.31 0 0 1-.14-.1.23.23 0 0 1-.06-.13c0-.05 0-.1.04-.13.15-.22.73-.23.65.2ZM32.06 26.96a.22.22 0 0 1-.08.37.22.22 0 0 1-.15 0l-1.22-.71a.14.14 0 0 1-.01-.23.14.14 0 0 1 .08-.03c.34 0 .8.2 1.38.6Z" fill="#9E9E9E"/><path d="M25.3 17.98a5.24 5.24 0 0 1-1.76-.44c-.33-.14-.55-.13-.69.02-.12.14-.21.35-.27.61a.34.34 0 0 1-.35.28.34.34 0 0 1-.32-.32c-.08-.75.32-1.09 1.18-1.02.67.05 1.4.15 2.2.3a.2.2 0 0 1 .1.07c.04.03.05.07.05.12v.25a.13.13 0 0 1-.09.12l-.05.01ZM20.1 19.26c.04.03.13.27.28.7a.27.27 0 0 1-.1.3.27.27 0 0 1-.3 0l-.32-.68a.28.28 0 0 1 .1-.34.28.28 0 0 1 .35.02Z" fill="#D3D0DD"/><path d="M24.44 20.03c0 .03-.1.08-.3.16-.23.09-.4.02-.53-.19-.1-.17-.13-.3-.09-.36a.48.48 0 0 1 .6-.19c.11.05.2.13.26.24.06.1.08.22.06.34Z" fill="#fff"/><path d="M25.73 20.35c-.1.02-.33-.06-.72-.25a.2.2 0 0 1 .05-.37c.25-.05.49-.02.73.1a.28.28 0 0 1 .09.44.27.27 0 0 1-.15.08ZM17.64 20.09c.16-.04.33-.06.52-.04a.22.22 0 0 1 .19.18c0 .05 0 .1-.03.14a.2.2 0 0 1-.1.08c-.3.12-.5.16-.6.13a.25.25 0 0 1-.17-.24.26.26 0 0 1 .2-.25ZM20.51 21.52a.77.77 0 0 1 .45-.25.27.27 0 0 1 .26.11c.03.04.04.09.04.13 0 .05-.01.1-.04.13-.12.18-.3.25-.55.2a.25.25 0 0 1-.11-.04.23.23 0 0 1-.07-.08.19.19 0 0 1-.02-.1c0-.04.02-.07.04-.1Z" fill="#D3D0DD"/><path d="m20.28 21.95-.1.23a.27.27 0 0 1-.11.12.29.29 0 0 1-.16.04.34.34 0 0 1-.17-.06.37.37 0 0 1-.12-.13c-.08-.13-.02-.28.18-.47a.29.29 0 0 1 .48.27Z" fill="#A2ACBB"/><path d="M19.5 23.38c.46.02.72-.2.8-.65a.3.3 0 0 1 .38-.22c.09.03.17.13.25.3a.2.2 0 0 1 0 .16.18.18 0 0 1-.12.1c-.43.1-.73.31-.88.65a.2.2 0 0 1-.28.1c-.16-.08-.25-.17-.28-.26a.14.14 0 0 1 .14-.18Z" fill="#D3D0DD"/><path d="M17.55 23.04c.42.13.66.22.72.28a.3.3 0 0 1-.17.5c-.13.03-.37-.16-.7-.54a.15.15 0 0 1 .05-.24.14.14 0 0 1 .1 0Z" fill="#fff"/><path d="M22.56 22.98c.08.02.2.18.33.48a.26.26 0 0 1-.22.38.26.26 0 0 1-.17-.05.47.47 0 0 1-.18-.26.7.7 0 0 1-.03-.22c0-.07.02-.14.04-.2.03-.05.06-.1.1-.12a.16.16 0 0 1 .13-.01ZM18 25.2a1.5 1.5 0 0 0-1.23-.2.26.26 0 0 1-.32-.23c-.01-.05 0-.1.02-.14.16-.33.34-.46.55-.38.71.27 1.12.51 1.22.72a.17.17 0 0 1-.03.2.17.17 0 0 1-.2.02Z" fill="#A2ACBB"/><path d="M23.77 24.74c.05-.02.1-.02.16 0 .05.01.1.05.14.1a.5.5 0 0 1 .1.2v.23c-.03.31-.16.44-.36.38-.27-.07-.37-.22-.3-.45.08-.27.17-.42.26-.46ZM20.5 24.98c.36.18.59.56.69 1.14a.05.05 0 0 1-.03.06h-.03l-.03-.01-.84-.85a.21.21 0 0 1 .25-.34Z" fill="#D3D0DD"/><path d="M15.17 26.33a.83.83 0 0 1-.07-.66.19.19 0 0 1 .27-.12c.03.02.06.05.07.08a.5.5 0 0 1 .04.38.89.89 0 0 1-.07.17.6.6 0 0 1-.09.13.18.18 0 0 1-.09.05c-.03 0-.05 0-.06-.03ZM22.52 27.15c-.14.32-.27.66-.4 1a.13.13 0 0 1-.16.08c-.09-.02-.15-.1-.17-.24v-.04a10.83 10.83 0 0 0 .82-1.9c.11-.08.2-.1.3-.05a.13.13 0 0 1 .04.16l-.43.99Z" fill="#A2ACBB"/><path d="m19.44 27.14-.4-.22a.27.27 0 0 1 .23-.5c.2.09.36.19.49.32a.26.26 0 0 1-.15.42.26.26 0 0 1-.17-.02ZM22.19 31.68a.2.2 0 0 1-.33-.06.2.2 0 0 1 0-.12c.01-.09.03-.15.06-.2a1.09 1.09 0 0 0-.05-.87c-.3-.62-.25-1.21.16-1.78a.3.3 0 0 1 .55.18v2.19c0 .17-.07.34-.2.46l-.2.2Z" fill="#fff"/><path d="M36.95 20.14c-.02.02-.27.03-.76 0a.2.2 0 0 1-.2-.14.22.22 0 0 1 .07-.24c.18-.12.41-.16.72-.1a.29.29 0 0 1 .23.19.3.3 0 0 1-.06.29Z" fill="#A2ACBB"/><path d="M35.9 21.67a.2.2 0 0 1 .09-.38 2 2 0 0 1 1.21.3.36.36 0 0 1-.37.61l-.93-.53Z" fill="#D3D0DD"/><path d="M36.34 24.9a.23.23 0 0 1 .12.2.24.24 0 0 1-.13.22c-.52.28-.88.15-1.07-.39a.33.33 0 0 1 .28-.43c.07 0 .14.01.2.05l.6.35Z" fill="#6E7B97"/><path d="M37.1 26.45c-.4.35-.75.5-1.05.46a.3.3 0 0 1-.23-.2.32.32 0 0 1 .04-.3c.19-.23.55-.34 1.1-.33a.2.2 0 0 1 .2.14.21.21 0 0 1-.07.23Z" fill="#A2ACBB"/><path d="M43 13v30H13V13h30ZM13.27 42.73h29.46V13.27H13.27v29.46Z" fill="#233262"/><path d="M38 39.9c.34-.03.46-.16.46-.5v-3.6c0-.17-.02-.28-.07-.32-.05-.05-.11-.07-.2-.07a1.13 1.13 0 0 0-.19.01v-.1l.27-.08a7.3 7.3 0 0 0 .66-.24c.02 0 .07 0 .07.04v3.02l.77-.87a.8.8 0 0 0 .12-.15.21.21 0 0 0 .03-.1c0-.06-.02-.1-.07-.1a1.08 1.08 0 0 0-.23-.04v-.1h1.23v.1c-.22.02-.4.07-.53.16-.14.1-.4.35-.77.77l-.18.2.55.86c.28.44.49.73.63.88.14.14.3.22.45.24V40h-1.31v-.1h.1c.1-.01.17-.08.12-.18a.56.56 0 0 0-.04-.08L39 38.17v1.33c0 .3.15.39.41.4v.1H38v-.1ZM37 38.23c-.81.23-1.21.53-1.21.89 0 .3.24.5.53.5.23 0 .68-.1.68-.4v-1Zm-1.86 1.1c0-.82 1.27-1.07 1.86-1.26v-.26c0-.4-.15-.65-.59-.65-.18 0-.51.07-.51.3 0 .09.03.17.03.25 0 .11-.04.2-.13.24a.38.38 0 0 1-.18.04c-.22 0-.34-.15-.34-.3 0-.54.84-.69 1.23-.69.68 0 1.08.34 1.08 1.02v1.25c0 .16.02.37.23.37.11 0 .18-.05.18-.05v.17c-.2.2-.29.24-.52.24-.33 0-.47-.22-.48-.47-.18.13-.33.24-.46.3-.22.11-.43.17-.63.17-.38 0-.77-.26-.77-.67ZM31.7 37.5c0 .76.12 1.33.37 1.7.25.36.56.54.93.54.36 0 .67-.18.92-.53.26-.36.39-.93.39-1.7 0-.8-.13-1.37-.4-1.72-.25-.35-.56-.53-.91-.53-.37 0-.68.18-.93.55a3 3 0 0 0-.38 1.7Zm-.7 0c0-.77.2-1.4.61-1.86.38-.43.84-.64 1.39-.64.55 0 1.01.21 1.39.64.4.47.61 1.09.61 1.86 0 .79-.21 1.41-.63 1.88-.38.41-.84.62-1.37.62-.57 0-1.05-.23-1.42-.69a2.77 2.77 0 0 1-.58-1.8ZM26.07 39.91c.15-.02.25-.06.3-.11.07-.06.1-.18.1-.38v-1.61a.77.77 0 0 0-.04-.3c-.04-.07-.12-.11-.24-.11h-.06l-.07.01v-.11l.6-.2.3-.1c.02 0 .04.03.04.06v.47c.27-.25.5-.53.88-.53.53 0 .65.54.65.99v1.48c0 .16.03.27.1.34.05.06.15.1.3.1V40h-1.34v-.09c.15-.02.26-.06.32-.13.06-.06.09-.2.09-.42V38c0-.37-.04-.63-.4-.63-.26 0-.42.19-.6.37v1.78c0 .15.05.25.12.3.06.06.17.09.31.1V40h-1.36v-.09ZM24 35.5c0-.13.05-.25.14-.35.1-.1.22-.15.36-.15.14 0 .25.05.35.15.1.1.15.21.15.35 0 .14-.05.26-.15.36-.1.1-.21.14-.35.14a.49.49 0 0 1-.5-.5ZM24.38 39.8c-.05.05-.16.09-.38.11V40h1.47v-.09c-.2-.02-.33-.06-.39-.12-.05-.06-.08-.21-.08-.45V37a10.97 10.97 0 0 1-.86.31l-.11.05v.1l.15-.06h.07c.1 0 .16.04.2.13a1 1 0 0 1 .02.29v1.52c0 .25-.03.4-.09.46ZM22.64 37.1a.87.87 0 0 0-.26.06c-.06.03-.08.08-.08.17l.01.13.06.17.52 1.5.52-1.37a2.61 2.61 0 0 0 .11-.45c0-.08-.02-.13-.06-.16a.52.52 0 0 0-.2-.06V37H24v.1a.2.2 0 0 0-.12.07c-.03.04-.07.13-.13.28l-.93 2.5-.02.04-.02.01-.04-.03-.66-1.77-.76 1.76-.02.03-.02.01-.04-.03-.87-2.33-.19-.45c-.03-.05-.09-.08-.18-.1V37h1.07v.1a.52.52 0 0 0-.2.05c-.05.03-.07.08-.07.17 0 .06.04.21.12.45l.17.5.33.9.52-1.22.01-.04a5.04 5.04 0 0 0-.18-.54.44.44 0 0 0-.14-.2.39.39 0 0 0-.2-.07V37h1.2v.1ZM16.04 35h3.92l.04 1.28h-.17c-.08-.4-.18-.66-.3-.78-.13-.12-.4-.19-.8-.19h-.38v3.87c0 .3.04.48.12.55.08.07.27.11.55.13V40H17v-.14c.29-.02.47-.07.55-.16.07-.08.1-.28.1-.6V35.3h-.38c-.39 0-.65.06-.79.18-.14.13-.24.39-.31.8H16l.04-1.29Z" fill="#2E436D"/></svg>