<!-- by TradingView --><svg width="56" height="56" viewBox="0 0 56 56" xmlns="http://www.w3.org/2000/svg"><path fill="#F0F3FA" d="M0 0h56v56H0z"/><path d="M14.91 36h3.64v-.35a4.31 4.31 0 0 1-1.81-.54 6.8 6.8 0 0 1-1.66-1.7l-2.8-3.74a4.67 4.67 0 0 0 2.52-1.24c.55-.6.82-1.29.82-2.08 0-.75-.24-1.4-.72-1.93a3.6 3.6 0 0 0-1.75-1.11c-.68-.2-1.74-.31-3.19-.31H5v.35h.51c.52 0 .9.15 1.17.43.18.2.32.7.32 1.52v8.4c0 .74-.11 1.21-.25 1.4-.25.37-.66.55-1.24.55H5V36h6v-.35h-.58c-.5 0-.89-.15-1.14-.43-.2-.2-.28-.7-.28-1.52V30h1.3l4.61 6Zm-5.58-6.67L9 29.32v-5.4a8.15 8.15 0 0 1 1.45-.2c.88 0 1.58.26 2.11.78.54.5.8 1.16.8 1.97 0 .83-.33 1.52-.99 2.05-.65.54-1.51.8-2.81.8h-.23ZM21.2 23c1.22 0 2.27.47 3.16 1.42a4.9 4.9 0 0 1 1.35 3.52c0 1.46-.45 2.66-1.35 3.62-.9.96-2 1.44-3.27 1.44-1.3 0-2.39-.47-3.27-1.4a5.1 5.1 0 0 1-1.32-3.64c0-1.51.51-2.75 1.53-3.71A4.46 4.46 0 0 1 21.2 23Zm-.14.51c-.84 0-1.51.32-2.02.96-.63.79-.95 1.94-.95 3.47 0 1.56.33 2.76.98 3.6.5.64 1.17.96 2 .96a2.7 2.7 0 0 0 2.19-1.05c.57-.7.86-1.8.86-3.32 0-1.63-.31-2.85-.95-3.66a2.54 2.54 0 0 0-2.1-.96ZM35.28 23H32v.27c.25 0 .43.03.56.1.12.06.22.14.28.25.07.1.1.23.1.37 0 .22-.13.57-.4 1.03l-1.85 3.08-1.97-3.22c-.28-.46-.42-.78-.42-.96 0-.21.1-.38.27-.49.19-.1.39-.16.6-.16h.21V23h-4.02v.27c.18 0 .31.03.4.08.35.17.57.32.68.44.1.12.31.43.62.92l2.58 4.19v2.36c0 .56-.05.92-.15 1.08-.17.26-.45.38-.85.38h-.33V33h4v-.28H32c-.38 0-.66-.1-.84-.3-.12-.16-.16-.54-.16-1.16v-2.5l2.24-3.8c.28-.48.5-.82.7-1.03a2.07 2.07 0 0 1 1.16-.66h.18V23Zm7 0 .22 3.25h-.22a4.1 4.1 0 0 0-1.23-2.1 2.96 2.96 0 0 0-1.9-.64c-.63 0-1.2.16-1.7.48-.5.32-.9.84-1.2 1.54-.28.7-.42 1.58-.42 2.63 0 .87.13 1.62.4 2.25.28.64.69 1.12 1.23 1.46.55.34 1.18.5 1.88.5.61 0 1.15-.12 1.62-.39.46-.26.98-.8 1.54-1.58l.21.14a5 5 0 0 1-1.65 1.87c-.63.4-1.37.59-2.24.59a4.21 4.21 0 0 1-3.62-1.76 5.1 5.1 0 0 1-.95-3.1c0-.95.2-1.82.63-2.62a4.6 4.6 0 0 1 6.16-2.01c.2.1.33.15.42.15.12 0 .23-.04.32-.13.12-.13.2-.3.26-.53h.24Zm3.1.55v3.95h1.86c.54 0 .9-.09 1.1-.26.24-.23.37-.67.4-1.24H49v3.53h-.26c-.07-.49-.13-.8-.2-.94a.9.9 0 0 0-.41-.4c-.2-.1-.5-.19-.9-.19H45.4v3.33c0 .45.02.72.05.81.04.1.1.17.2.23s.27.08.54.08h1.62c.54 0 .93-.04 1.17-.11.25-.08.48-.24.7-.47.3-.3.6-.76.9-1.38h.28L50.03 33h-7.36v-.27H43c.22 0 .44-.06.64-.17a.6.6 0 0 0 .3-.36c.05-.14.05-.42.05-.83v-6.63c0-.63-.03-1.02-.15-1.17-.17-.2-.45-.3-.84-.3h-.34V23h7.36l.1 2h-.27c-.1-.52-.2-.7-.33-.88v-.01c-.12-.2-.3-.35-.53-.45a3.06 3.06 0 0 0-1-.11H45.4Z"/></svg>