<!-- by TradingView --><svg width="56" height="56" viewBox="0 0 56 56" xmlns="http://www.w3.org/2000/svg"><path fill="#F0F3FA" d="M0 0h56v56H0z"/><path d="m19.58 31.3 1.42-.73V19h-1.42v12.3ZM23 29.15l1.42-.68V14H23v15.15ZM17 23h-1.4v6H17v-6ZM36.42 31.3 35 30.57V19h1.42v12.3ZM33 29.15l-1.46-.68V14H33v15.15ZM40.42 23H39v6h1.42v-6ZM27.3 27.05l.72-.34.69.34V10h-1.42v17.05Z" fill="#648BC7"/><path d="m19 39.21 2 1.27V33h-2v6.21ZM23 36v5.22l2 1.05V36h-2ZM11 34.95 13 36v-9h-2v7.95ZM15.17 30H15v7.16l2 1.12V30h-1.83ZM37 39.21l-2 1.27V33h2v6.21ZM33 36v5.46l-2 1.07V36h2ZM27 39v4.48l1.02.52.98-.52V39h-2ZM45 34.95 43 36v-9h2v7.95ZM41 30v7.16l-2 1.12V30h2Z" fill="#213469"/></svg>