<!-- by TradingView --><svg width="56" height="56" viewBox="0 0 56 56" xmlns="http://www.w3.org/2000/svg"><path fill="#009FD9" d="M0 0h56v56H0z"/><path d="M30.81 23a.17.17 0 0 1 .18.18c-.04 4.99-.03 8.7 0 11.1.04 2.26-.15 4.15-.55 5.69a17.04 17.04 0 0 1-2.37 5.01.17.17 0 0 1-.23-.06c-1.84-2.99-2.77-5.72-2.8-8.22-.04-3.79-.05-7.3-.02-10.52 0-.3.11-.59.31-.8A7.14 7.14 0 0 1 30.81 23Zm10.02-8c.1 0 .17.08.17.17v5.66c0 .1-.08.17-.17.17H15.17a.17.17 0 0 1-.17-.17v-5.66c0-.1.08-.17.17-.17h25.66Z" fill="#fff"/></svg>