<!-- by TradingView --><svg xmlns="http://www.w3.org/2000/svg" width="56" height="56" viewBox="0 0 56 56"><path fill="#0B2240" d="M0 0h56v56H0z"/><path d="M25.38 22.07c-.4.27-1.07.86-1.07.86l-1.08-.24-1.55-5.6v-.62l1-2.06c1.63-2.6 3.87-4.41 7.09-4.41 1.06 0 2.23.34 2.23.34l-.69 2.86s-.72-.17-1.72-.17c-1.9 0-4.56 1.4-4.56 4.75 0 2.3 2.07 3.9 3 4.91a59.33 59.33 0 0 1 4.27 5.06c1.61 2.23 2.7 4.38 2.7 7.74 0 4.9-3.72 7.83-3.72 7.83l1.7-7.83c0 .18.25.24.3.07l.64-1.77.04-.1a.5.5 0 0 0 .04-.2c0-.25-.2-.49-.47-.49l-.12.01-.47.09c-.22-.22-.03-.67.22-.86.43-.31.5-.9.29-1.24l-.3-.48-.3-.58a.5.5 0 0 0-.69-.21l-.55.31-.55-.45.26-.14c.5-.28.64-.93.3-1.39l-.85-1.1a.45.45 0 0 0-.54-.16 1.3 1.3 0 0 0-.12.06c-.26.15-.55.53-.55.53l-.54-.34.28-.23c.43-.34.47-1 .07-1.4l-.89-.97a.4.4 0 0 0-.38-.12.3.3 0 0 0-.12.05l-.65.48c-.2-.3-.12-.7-.05-1.05a1 1 0 0 0-.31-.92 3.23 3.23 0 0 1-.65-.84c-.1-.19-.28-.33-.47-.25-.16.07-.3.17-.47.27Z" fill="#B3B3B3"/><path d="M23.55 12.96A10.32 10.32 0 0 0 21 19.54c0 1.65.6 3.3 1.48 4.97a18.33 18.33 0 0 0 3.46 4.41c2.45 2.48 4.36 5.08 4.87 7.39.1.46.19.93.19 1.4 0 1.14-.45 2.26-1.31 3.06-.93.86-2.48 1.23-3.72 1.23-.5 0-1-.16-1.5-.2-.13.68-.47 3-.47 3s.63.2 1.4.2c2.18 0 4.33-.21 6-1.8a8.62 8.62 0 0 0 2.4-5.72c0-.7-.12-1.39-.48-1.82-.06-.08-.26-.29-.77-.27-.3.02-.68.16-.78.18-.16.04-.17.04-.17-.18 0-.12.03-.38.07-.58.05-.32.05-.39-.1-.71-.08-.2-.13-.34-.13-.38 0-.16.16-.3.98-.49.8-.19.9-.22.95-.35.04-.12 0-.33-.09-.44-.12-.18-.08-.18-1.17.05-.73.15-.72.3-.91-.05-.06-.11-.14-.17-.23-.17-.08 0-.3.1-.48.21-.18.12-.41.21-.5.21-.24 0-.47-.15-.68-.46-.2-.3-.23-.51-.09-.76.1-.16.53-.4.74-.4.06 0 .25-.12.41-.26.17-.14.34-.26.4-.26.04 0 .3-.13.55-.3.37-.22.47-.31.47-.42 0-.17-.3-.47-.42-.43-.04.02-.32.19-.6.38-.3.2-.58.35-.64.35-.05 0-.24-.14-.42-.32-.22-.2-.3-.24-.4-.24-.07 0-.28.12-.46.26-.32.25-.41.29-.68.27-.19-.01-.57-.39-.68-.67-.1-.22-.1-.26-.01-.45a.47.47 0 0 1 .31-.27c.13-.04.22-.19.22-.21 0-.03.08-.13.19-.24.1-.12.31-.24.5-.3.4-.14.98-.57.98-.76 0-.14-.18-.36-.33-.36-.06 0-.26.11-.46.25-.7.48-.9.61-.99.61a.73.73 0 0 1-.39-.22c-.22-.22-.36-.32-.47-.32-.1 0-.3.1-.5.26-.25.2-.38.26-.55.26-.18 0-.27-.05-.49-.26a1.5 1.5 0 0 1-.33-.48c-.06-.18-.06-.25.03-.4.05-.1.19-.22.3-.26.12-.05.26-.28.32-.38.08-.12.25-.24.52-.36.44-.2 1.02-.62 1.08-.79.05-.13-.07-.36-.23-.44-.1-.04-.24.02-.78.37-.36.24-.72.43-.8.43-.08 0-.2.04-.4-.16s-.34-.31-.44-.31c-.07 0-.3.11-.5.25-.2.15-.42.26-.5.26-.23 0-.36-.16-.54-.42-.15-.21-.23-.36-.23-.5l.03-.14c.05-.18.16-.48.3-.48.07 0 .19-.1.27-.22.09-.13.23-.24.44-.34.18-.1.27-.12.28-.13a9.88 9.88 0 0 1-1.86-3.02 7.49 7.49 0 0 1-.27-4.3c.2-.7.96-2.01 1.43-2.62.2-.24.35-.44.34-.44-.01 0-.2.19-.4.42Z" fill="#2B479C"/></svg>