<!-- by TradingView --><svg width="56" height="56" viewBox="0 0 56 56" xmlns="http://www.w3.org/2000/svg"><path fill="#F0F3FA" d="M0 0h56v56H0z"/><path d="M44 44H12V12h32v32ZM13 13v30h30V13H13Z" fill="#030708"/><path d="M40 40H16V16h24v24ZM23.43 22C21.14 22 20 23.53 20 25.04c0 1.83 1.6 2.86 2.88 3.38 1.01.41 1.62.9 1.62 1.54 0 .53-.52 1.04-1.11 1.04-.98 0-2.05-.8-2.11-.84-.1-.08-.39-.1-.5.1l-.7 1.14c-.12.2-.08.27.07.42A4.65 4.65 0 0 0 23.49 33c2.19 0 3.51-1.59 3.51-3.16 0-2.08-1.84-3.01-3-3.49-1.18-.48-1.62-.91-1.62-1.48 0-.41.42-.87.96-.87.9 0 2 .84 2.12.92.14.1.4-.03.51-.2l.73-1.09c.06-.1.1-.38-.09-.48A5.44 5.44 0 0 0 23.43 22Zm8.98 0a4.53 4.53 0 0 0-3.16 1.56c-.1.13-.1.32.02.42l.96.98a.3.3 0 0 0 .44 0c.3-.33.89-.8 1.54-.8.88 0 1.39.55 1.39 1.16 0 .44-.2.89-.41 1.2-.93 1.44-3.27 4.65-4.19 5.86v.32c0 .16.13.3.3.3h6.4c.16 0 .3-.14.3-.3v-1.4c0-.16-.14-.3-.3-.3h-2.86c.74-1.05 2.04-2.8 2.54-3.7.38-.76.62-1.23.62-2.08 0-1.77-1.33-3.22-3.59-3.22Z" fill="#030708"/></svg>