<!-- by TradingView --><svg width="56" height="56" viewBox="0 0 56 56" xmlns="http://www.w3.org/2000/svg"><path fill="#F0F3FA" d="M0 0h56v56H0z"/><path d="M13.15 39.86c1.1-.34 4.15-1.06 7.5-1.18 3.35-.12 10.79-.32 14.09-.4l2.45-1.13c-.44-.31-1.55-.81-2.45-.3.6-.94 2.39-2.32 4.8-.34-.22-1.24-.8-3.8-1.38-4.15 1.82.58 4.65 2.21 1.38 4.15l-2.6 1.77h4.49c.44-.11 1.28.04 1.12 1.58.4.66.71 2.34-1.12 3.8V41.7l-1.9 1.33c.19-1.11.6-3.01 1.15-4.04h-4.87l2.04.64c.65.01 1.9.35 1.69 1.57-.2 1.23-1.65 2.55-2.35 3.06 0-.47.03-1.1.07-1.72l-2.27.49c.44-.6 1.13-1.9 1.04-3.16-3.6-.11-11.3-.27-13.34 0-2.55.35-7.86 1.53-9.54 2.67v-2.67Z" fill="url(#appyqyjwr)"/><path fill-rule="evenodd" d="m38.08 32.48.13-.25c.46.14.99.36 1.47.63s.92.6 1.2.98c.28.4.4.84.22 1.33-.19.48-.65.97-1.48 1.46l-2.22 1.51h4c.26-.06.63-.05.91.2.3.26.46.73.4 1.5.4.73.68 2.45-1.19 3.93l-.24.2v-2l-1.94 1.37.05-.34c.17-1.05.55-2.8 1.06-3.87h-3.7l1.13.34c.34.02.83.11 1.22.36.2.14.37.31.49.54.1.24.15.52.1.85-.11.65-.55 1.3-1.03 1.86a8.9 8.9 0 0 1-1.38 1.29l-.24.17v-.29l.06-1.54-2.45.53.23-.3a5.18 5.18 0 0 0 1-2.94c-1.8-.06-4.54-.12-7.1-.14-2.64-.02-5.06 0-6.07.14a47.78 47.78 0 0 0-7.67 1.81c-.77.28-1.4.56-1.8.83l-.24.16v-3.04l.1-.03a32.22 32.22 0 0 1 7.55-1.2c3.33-.11 10.74-.3 14.05-.39l2.19-1.01a3 3 0 0 0-.79-.3c-.42-.1-.88-.09-1.29.14l-.2-.2c.32-.48.94-1.1 1.81-1.32.8-.21 1.8-.09 2.9.7a24.1 24.1 0 0 0-.48-2c-.12-.42-.26-.8-.39-1.1a2.6 2.6 0 0 0-.2-.38.64.64 0 0 0-.17-.19Zm1.22 4.02c-1.12-.86-2.07-.97-2.8-.78-.56.15-1.01.48-1.33.81.34-.07.69-.05 1 .02.47.1.87.32 1.1.48l.2.14-2.7 1.25h-.03c-3.3.09-10.74.28-14.08.4-3.24.11-6.2.8-7.37 1.15v2.3c.43-.25 1-.5 1.65-.72.78-.28 1.69-.55 2.62-.79 1.86-.48 3.83-.87 5.11-1.04 1.04-.14 3.48-.17 6.1-.15 2.56.02 5.3.09 7.1.14-.04-.23-.1-.45-.2-.67l-.08-.2h5c.1-.16.2-.3.3-.41h-4.42l2.83-1.93Zm2.13 1.93c-.08 0-.17.03-.28.14a2 2 0 0 0-.34.48c-.48.9-.86 2.52-1.07 3.65l1.58-1.11 1.09-1.77c.07-.73-.1-1.1-.3-1.26a.72.72 0 0 0-.64-.14h-.04Zm1.1 1.73-.96 1.57v1.62c1.33-1.2 1.24-2.5.97-3.19Zm-2.89-3.89a24.7 24.7 0 0 0-.52-2.2 9.2 9.2 0 0 0-.53-1.4c.31.11.64.26.94.43.46.26.86.57 1.1.9.25.34.33.7.19 1.07-.14.36-.5.77-1.18 1.2Zm-2.52 6.14c.04-.7.1-1.4.2-1.93a3.58 3.58 0 0 1 .24-.8l-1.5-.47c.06.21.1.43.11.64a5.2 5.2 0 0 1-.85 2.95l1.8-.39Zm.5-1.88c-.1.55-.17 1.28-.22 2l-.06 1.42a8.8 8.8 0 0 0 1.1-1.05c.47-.54.86-1.15.95-1.73.05-.28.01-.5-.07-.68a1.06 1.06 0 0 0-.39-.42 2.2 2.2 0 0 0-1.08-.3.48.48 0 0 0-.08.13c-.06.14-.11.36-.16.63Z"/><path fill-rule="evenodd" d="M23.51 19.18c-.14 1.35.08 4.1 2.05 4.24 1.97.14 2.1-2.4 1.92-3.7h.38c-.1 1.23.02 3.7 1.36 3.7 1.67 0 2.84-3.23 2.74-4.7.21.61.39 2.27.13 5.58l.88 2 .3 2.63-.97.88-.34 3.69c-.6 1.6-2.25 4.78-4.1 4.75-1.84-.03-3.67-2.73-4.35-4.08a133.1 133.1 0 0 1-1.4-7.44c-.08-1.07.13-6.26 1.4-7.55Zm1.14 6.6c.15-.74 1.01-2.18 3.2-1.97 2.74.27 3.44 3.24 3.4 5.3-.05 2.07-.8 6.42-3.4 6.47-2.6.04-4.62-4.63-3.2-9.8Z" fill="#848685"/><path d="m22.98 9 .39.48c.2.24.58.48 1.02.68.42.2.86.35 1.14.43.94.02 2.96.04 3.84 0 .4-.02.92-.2 1.43-.44.5-.24.95-.52 1.21-.7l.53-.37-.93 2.75c.17.19.32.46.47.77.17.36.33.8.47 1.26.29.88.52 1.83.65 2.46.74.78 1.18 1.81 1.42 2.77a9 9 0 0 1 .28 2.43c.53 1.53.64 3.29.56 4.86a18.92 18.92 0 0 1-.56 3.79c-.08 3.1-.47 5.11-.92 6.38a5 5 0 0 1-.72 1.4c-.17.22-.35.38-.53.47.16 1.23-.34 1.93-.77 2.2.07.6-.22 1.3-.57 1.9-.39.67-.9 1.27-1.25 1.63l-.02.02-.02.01c-.7.4-1.28.64-1.74.75-.47.1-.84.09-1.13-.03-.5-.2-.66-.66-.67-1.05-.57-.09-1-.51-1.31-.97a5 5 0 0 1-.63-1.38c-.57-.01-1.01-.16-1.35-.41a1.99 1.99 0 0 1-.7-1.09c-.21-.78-.1-1.7.09-2.34-1.34-1.23-2.06-3.25-2.44-5.27-.37-2.05-.4-4.14-.3-5.44-1.04-4.87 1-8.77 2.22-10.17a11 11 0 0 1 1.91-4.84 2.12 2.12 0 0 1-.79-1.03 4 4 0 0 1-.27-1.3L22.98 9Zm8 1.51c-.51.25-1.1.47-1.59.49-.9.04-2.98.01-3.9 0h-.02l-.03-.01a8.94 8.94 0 0 1-1.97-.87c.04.2.1.43.19.65.17.42.43.77.8.92l.27.11-.2.21c-.48.53-1.58 2.28-1.99 4.88v.06l-.04.05c-1.14 1.29-3.2 5.1-2.15 9.89v.06c-.1 1.27-.09 3.34.29 5.37.37 2.04 1.1 4 2.4 5.12l.1.09-.04.12a4.32 4.32 0 0 0-.12 2.24c.1.36.27.67.55.88.28.2.67.34 1.25.32h.17l.04.16c.1.38.3.94.6 1.41.33.48.72.8 1.19.8H27l-.02.22c-.04.36.06.71.4.85.18.07.46.1.87 0 .4-.1.93-.3 1.6-.68.33-.34.8-.9 1.16-1.52.38-.65.6-1.3.5-1.79l-.03-.16.16-.06c.25-.1.87-.66.64-2l-.04-.2.2-.04c.1-.02.27-.1.48-.38.2-.26.43-.67.65-1.28.44-1.22.82-3.2.9-6.29v-.04c.22-.8.49-2.18.56-3.73.08-1.56-.03-3.28-.55-4.74l-.01-.04v-.04a8.56 8.56 0 0 0-.27-2.35 5.79 5.79 0 0 0-1.36-2.63l-.04-.04-.01-.06a25.1 25.1 0 0 0-.65-2.48c-.14-.45-.3-.87-.46-1.22-.16-.35-.32-.6-.46-.73l-.1-.09.62-1.84a9.9 9.9 0 0 1-.77.41Z"/><path fill-rule="evenodd" d="M28.05 13.04a3.75 3.75 0 0 1 3.36-1.7l-.03.3c-.68-.08-2.29.17-3.19 1.73l-.12.22-.13-.22c-.33-.52-1.53-1.6-3.68-1.44l-.02-.29c2.05-.14 3.31.77 3.81 1.4Zm-3.08 3.22c.33-.02.8-.08 1.2-.2a2 2 0 0 0 .58-.26c.16-.11.28-.27.3-.46l-.3-.02c0 .08-.06.16-.18.25-.12.08-.29.16-.49.22-.38.11-.84.17-1.16.18a2.35 2.35 0 0 0-2.79.9l.25.16c.14-.21.43-.5.82-.7-1.25 1.92-3.05 6.44-2.22 12.3a11.6 11.6 0 0 1-.77-1.73l-.28.08c.1.3.26.72.48 1.19-.05.97.02 2.52.38 4.07.34 1.54.98 3.11 2.08 4.11l-.23 1.3.3.04.24-1.4v-.02c-.08-.29-.09-.97.38-1.54.4.61 1.05 1.46 1.78 2.2.4.4.83.77 1.26 1.05.44.28.88.48 1.32.53.46.05.91-.19 1.33-.56.42-.37.82-.9 1.2-1.5.63-1 1.18-2.2 1.55-3.12l.45 2.07c.22 1.09.4 2.13.4 2.62h.29c0-.52-.18-1.57-.4-2.63 1.06-2.49 1-5 .77-6.34l1 1.1.22-.19-1.24-1.36c.13-.1.25-.23.38-.42.18-.27.36-.67.52-1.22.3-1.09.5-2.78.38-5.32-.03-.63-.07-1.07-.12-1.35a1.33 1.33 0 0 0-.08-.32.27.27 0 0 0-.1-.11.19.19 0 0 0-.2 0 .28.28 0 0 0-.1.1 2.88 2.88 0 0 0-.15.46 14.93 14.93 0 0 0-.29 1.8v-.65a8.7 8.7 0 0 0-1.43-4.98c.33-.07.61-.22.79-.36l-.2-.22c-.17.14-.49.3-.87.32-.18.01-.37-.01-.57-.1a1.83 1.83 0 0 1-.67-.47l-.05-.06-1.85.28.04.28 1.7-.25c.21.22.44.37.67.47.4.97 1.08 3.82.6 7.8l-.01.04.97 1.81.25 2.39-.85 1.17-.37 3.1c-.34.96-.96 2.37-1.69 3.52a6.86 6.86 0 0 1-1.14 1.43c-.4.35-.77.52-1.1.49a2.8 2.8 0 0 1-1.18-.49 7.77 7.77 0 0 1-1.21-1.02 15.01 15.01 0 0 1-1.84-2.27l-.55-3.1c-2.03-7.61.35-13.2 1.8-15.1Zm-1.63 17.72-.45-2.52c-.36-.28-.69-.6-.99-.95.1.84.48 2.23 1.44 3.47Zm-1.76-3.88a9.6 9.6 0 0 1-.22-.3A8.54 8.54 0 0 0 23 35.1c.09-.2.2-.41.38-.6a7.46 7.46 0 0 1-1.8-4.4Zm1.32 5.34a8.72 8.72 0 0 1-1.8-6.03c-.15-.23-.29-.46-.4-.69 0 .94.09 2.2.37 3.46.32 1.4.87 2.8 1.77 3.74 0-.14.02-.3.06-.48ZM22.78 31a7.28 7.28 0 0 1-1.4-1.67c-1.14-6.52 1.04-11.47 2.29-13.16.29-.07.62-.07.99.03-1.49 2.01-3.7 7.46-1.88 14.8Zm9.4 1.83c.12.52.3 1.27.46 2.05.9-2.42.77-4.8.54-5.97l-.65.9-.35 3.02ZM33.24 27c.06-.68.12-1.38.2-2.07-.1.45-.2.84-.3 1.18l.1.9Zm-.29-1.3c.27-1.02.52-2.54.5-4.13-.04-1.76-.43-3.6-1.5-4.95-.1 0-.2 0-.3-.03.42 1.18.98 3.94.53 7.67l.77 1.44Zm.48 2.57c.17-2.17.44-4.97.7-6.7a14.6 14.6 0 0 1 .23-1.23c.04.26.08.68.11 1.32.13 2.52-.07 4.18-.37 5.23-.15.52-.32.9-.48 1.14-.07.1-.13.18-.2.24Zm1.01-8.19Z"/><path fill-rule="evenodd" d="M25.74 13.94c.4 0 .73-.32.73-.7 0-.4-.33-.72-.73-.72-.4 0-.74.32-.74.71 0 .4.33.71.74.71Zm0 .2c.52 0 .94-.4.94-.9 0-.51-.42-.92-.94-.92a.93.93 0 0 0-.95.91c0 .5.42.92.95.92ZM29.87 13.83c.4 0 .74-.32.74-.72 0-.39-.33-.7-.74-.7-.4 0-.74.31-.74.7 0 .4.33.72.74.72Zm0 .2c.52 0 .95-.41.95-.92 0-.5-.43-.91-.95-.91a.93.93 0 0 0-.95.91c0 .51.43.92.95.92Z"/><ellipse cx="25.74" cy="13.11" rx=".55" ry=".53"/><ellipse cx="29.87" cy="13" rx=".55" ry=".53"/><path d="M24.06 37.47c-.46-.25-.85-.5-1.07-.66l.17-.23a10.08 10.08 0 0 0 2.95 1.4l.13.03-.02.12c-.33 2.32.33 4.69.7 5.57l-.28.1a12.2 12.2 0 0 1-.73-5.58 6.67 6.67 0 0 1-.8-.26c-.07.33-.14.83-.13 1.38 0 .65.12 1.37.43 1.99l-.27.12a4.95 4.95 0 0 1-.46-2.1c0-.61.07-1.15.15-1.5a10.2 10.2 0 0 1-.5-.24c-.18.36-.36.9-.42 1.47-.06.66.03 1.34.46 1.89l-.23.17a2.83 2.83 0 0 1-.52-2.08c.06-.63.26-1.2.44-1.59Zm7.5.33c-.14-.33-.37-.46-.52-.5l.06-.27c.25.05.56.25.73.67.18.4.22 1.02-.02 1.9l-.29-.07c.24-.85.18-1.4.04-1.73Zm-.98 1.75c.1-1.14-.45-2-.73-2.28l.21-.2c.33.33.93 1.27.8 2.51l-.28-.03Zm-2.32 4.54a26.1 26.1 0 0 1-.57-2.07 9.3 9.3 0 0 1-.31-2.77l-.3-.04c-.08.76.08 1.84.32 2.87.24 1.04.56 2.05.77 2.67l.07.2.17-.14c.17-.14.38-.4.6-.76m-.75.04v-.03c.03-.07.04-.15.06-.23.07-.29.16-.64.24-1.04.21-1.02.4-2.3.3-3.55l.3-.02c.1 1.28-.1 2.6-.3 3.62l-.25 1.06-.05.22-.03.13.22-.34c.46-.78.96-2.13 1.06-4.15l.3.02a10.4 10.4 0 0 1-.73 3.53 5.82 5.82 0 0 0 1.55-3.32l.29.03a6.1 6.1 0 0 1-2.05 3.87l-.07.07-.07.06-.02.03"/><path fill-rule="evenodd" d="M25.12 11.98c-.5.43-1.37 1.51-.82 2.4.6.98 1.45.89 1.97.84l.18-.02c.4-.39 1.1-1.41.8-2.4.13 0 .63.35.87.52l.49-.52c-.06.91.07 2.75 1.1 2.8 1.27.05 2.31-2.14.9-3.62l.81-.34c.47 1.06 1.43 3.46 1.58 4.53-.5.14-1.66.39-2.2.35-.69-.05-2.22.1-3.28 1.3-.4-.77-1.64-1.85-3.39 0l.6-1.65a2.28 2.28 0 0 0-2.07 0c.2-1.67 1-4.85 2.46-4.2Zm2.58 1.28c.1.53.3 1.68.3 2.02 0 .42-.58-.77-.66-1.18l.36-.84Z" fill="#848685"/><defs><linearGradient id="appyqyjwr" x1="16.36" y1="41.16" x2="39.71" y2="40.02" gradientUnits="userSpaceOnUse"><stop offset=".16" stop-color="#8D8D8D"/><stop offset="1" stop-color="#8D8D8D" stop-opacity="0"/></linearGradient></defs></svg>