<!-- by TradingView --><svg width="56" height="56" viewBox="0 0 56 56" xmlns="http://www.w3.org/2000/svg"><path fill="#F0F3FA" d="M0 0h56v56H0z"/><path d="M16.65 22.7c-.42.06-.8.05-1.13-.02l-1.87-2.65v-.01h1.06c.02 0 .04 0 .05.02l1.89 2.67ZM25.95 20.02c0 .12-.02.22-.08.3-.06.05-.13.16-.22.32l-.06.1c-.03.05-.03.12-.01.23.02.12.01.22-.03.3-.01.03-.03.04-.06.03-.04 0-.05-.03-.05-.06v-.32c0-.02-.01-.03-.03-.03h-.03c-.04 0-.05.02-.05.06a.7.7 0 0 1-.1.5c-.02.03-.05.03-.08.02-.03-.02-.04-.04-.04-.08a.77.77 0 0 0 .02-.3c0-.02-.02-.02-.03-.02-.02 0-.03.01-.03.03-.02.26-.16.33-.42.2h-.03v.04c.05.05.08.11.08.18-.07.11-.16.17-.26.18-.03 0-.05.02-.05.05v.06c0 .04.02.05.05.03a.32.32 0 0 1 .19-.06c.01 0 .03 0 .03.02v.05l-.17.15c-.03.03-.06.04-.1.02-.16-.1-.36-.08-.57.03a.16.16 0 0 0-.07.06c-.02.05-.07.07-.13.06-.04 0-.05.01-.04.05 0 .02.03.04.07.05l.04-.01.06-.07c.1-.08.16-.12.2-.12.02 0 .04.02.05.05.03.04.06.05.1.03a.17.17 0 0 0 .06-.05c.03-.03.06-.03.09 0 .09.1.25.05.46-.14l.02-.01c.02-.02.04-.02.05 0 .02.03.02.05 0 .07a.59.59 0 0 1-.3.22c-.2.05-.33.1-.4.16-.02.01-.03.03-.02.05 0 .03.02.03.04.03.4-.05.7-.27.91-.64.02-.04.05-.05.08-.03l.04.06c0 .03.03.05.06.05.13.01.18.09.16.23h-.01l-.04.02c-.03.02-.04 0-.03-.03 0-.05-.01-.09-.07-.1-.05-.03-.08-.01-.1.03a.64.64 0 0 0-.07.23v.02H25l-.1-.13c-.02-.02-.03-.02-.05-.02a.05.05 0 0 0-.04.04.54.54 0 0 1-.24.28l-.18.03c-.06.01-.1.07-.1.15a1.9 1.9 0 0 1-.81 0l-.06.03h-.03l-1.25.02c-.03 0-.06.02-.08.06a.5.5 0 0 0-.03.24l-.6-.07c-.03 0-.05-.03-.03-.07v-.03a.1.1 0 0 0 0-.08c-.02-.03-.05-.04-.08-.04-.16.02-.27-.01-.34-.1-.02-.04-.05-.05-.08-.04l-.28.06a.1.1 0 0 0-.07.05c-.33.51-.61 1.06-.85 1.64v-1.4l-.01-.14c-.01-.04-.04-.06-.07-.06l-1.83-.03-1.63-2.29a1.3 1.3 0 0 1-.17-.34c-.02-.04 0-.06.03-.06h9.93Z" fill="#E5C897"/><path d="m36.32 20-.37.95c0 .02-.02.03-.05.03-.02 0-.03-.02-.04-.04l-.06-.33c0-.03-.02-.04-.04-.04l-.05.01c-.02 0-.02.02-.02.04l.08.48a.1.1 0 0 1-.02.09l-.2.19v.05c0 .02.02.02.04.02.2-.05.3-.05.3-.01.02.06 0 .1-.04.1-.1.02-.2.03-.3.02-.04 0-.06.02-.05.07.04.15.08.29.13.4.02.09.02.15-.03.19-.02.01-.04 0-.04-.02l-.02-.13c0-.02-.02-.03-.03-.03-.02 0-.03 0-.03.03-.04.13-.14.24-.3.33h-.04l-.02-.03c-.02-.04-.02-.07.01-.1.1-.06.17-.12.24-.19.08-.07.11-.14.1-.2 0-.04-.02-.07-.06-.07-.03-.01-.06 0-.07.04-.06.13-.14.18-.24.14h-.02l-.65.15c-.02 0-.03.02-.03.05v.03c.02.05.04.06.08.04a.52.52 0 0 1 .34-.03c.03.01.08-.01.14-.06h.05l.02.03c.03.04.03.07 0 .1a.65.65 0 0 1-.52.1c-.02 0-.05-.02-.07-.05-.02-.03-.05-.04-.08-.02-.05.02-.09.08-.1.18 0 .03.01.04.03.05h.05c.05-.06.1-.08.12-.05.04.03.04.07.01.11a.6.6 0 0 1-.41.25V20.1c0-.04.02-.07.06-.07l2.2-.02Z" fill="#9A773F"/><path d="m40.43 20 1.11.05c.5.02.87.08 1.11.17.3.12.6.34.88.66.46.54.58 1.09.35 1.65l-6.16-.01a.18.18 0 0 1-.1-.03 1.26 1.26 0 0 1-.32-.34c-.07-.16-.17-.3-.3-.42l-.07-.1a.14.14 0 0 0-.06-.07l-.23-.34-.2-.3c0-.02-.01-.03-.03-.02-.02 0-.02.02-.02.04l.01 6.33a5.7 5.7 0 0 0-2.35-2.06v-2.34a.6.6 0 0 0 .42-.25c.04-.04.03-.08 0-.11-.04-.03-.08-.01-.13.05h-.05c-.02 0-.03-.02-.02-.05 0-.1.04-.16.1-.18.02-.02.05-.01.07.02.02.03.05.05.07.05.19.04.36 0 .51-.1.04-.03.04-.06.01-.1l-.02-.02c-.01-.02-.03-.02-.05 0-.06.04-.1.06-.14.05a.52.52 0 0 0-.34.04c-.04.01-.06 0-.07-.05v-.03c-.01-.03 0-.04.02-.05l.65-.15h.02c.1.04.18-.01.24-.14.01-.04.04-.05.07-.04.04 0 .06.03.06.07.01.06-.02.13-.1.2a2.3 2.3 0 0 1-.24.2c-.03.02-.03.05 0 .09l.01.02c.01.01.02.02.04.01.16-.08.26-.2.3-.33 0-.02.01-.03.03-.03l.03.03.02.13c0 .03.02.03.04.02.05-.04.05-.1.03-.18a4.17 4.17 0 0 1-.13-.4c0-.06 0-.08.05-.08.1.01.2 0 .3-.01.04-.01.06-.05.05-.11 0-.04-.11-.04-.31.01-.02 0-.03 0-.04-.02v-.05l.2-.19a.1.1 0 0 0 .02-.1l-.08-.47c0-.02 0-.03.02-.04h.05c.02-.01.04 0 .04.03l.06.33c0 .02.02.04.04.04.03 0 .04 0 .05-.03l.37-.95h4.11Z" fill="#BB9A65"/><path d="M48.35 20c-.1.18-.2.4-.28.67-.27.86-.48 1.67-.63 2.43a5.2 5.2 0 0 1-.33 1.01.11.11 0 0 1-.07.07l-.07.02.04-.05a.16.16 0 0 0 .04-.1v-1.26c.03-.17 0-.26-.1-.27l-3.07.01c.23-.56.1-1.11-.35-1.65a2.23 2.23 0 0 0-.88-.66c-.24-.1-.61-.15-1.1-.17L40.42 20h7.92Z" fill="#9A773F"/><path d="m49 20 .1.01c.25-.03.36.02.3.16V25c0 .1-.03.19-.1.25l-1.8 1.8c-.04.03-.04.06-.01.1l.15.2 2.18 3.3c-.03.08-.08.11-.15.1l-2.55-.07a.12.12 0 0 1-.1-.04l-.19-.2-.01-.03a.22.22 0 0 0-.08-.12 1.08 1.08 0 0 0-.24-.34v-.02a1.15 1.15 0 0 0-.25-.36l-.04-.04-.11-.17c-.02-.08-.05-.11-.08-.1L46 29.2c-.03-.12-.06-.16-.1-.14l-.1-.17-.4-.58-.46-.68a.8.8 0 0 0-.38-.46.15.15 0 0 0-.07-.02h-3.47a.13.13 0 0 1-.1-.04l-.2-.22-.06-.07a.15.15 0 0 0-.06-.07l-.07-.1a.74.74 0 0 0-.24-.32l-.06-.08c0-.04-.02-.07-.05-.08l-.13-.2a.8.8 0 0 0-.22-.3l-.13-.18c-.02-.08-.05-.1-.08-.09l-.02-.05c-.08-.17-.18-.3-.3-.43a.5.5 0 0 1-.11-.2c-.01-.04 0-.06.04-.06h7.28c.03 0 .06-.02.09-.04l.38-.4.07-.03a.11.11 0 0 0 .07-.07c.17-.4.28-.73.33-1.01.15-.76.36-1.57.63-2.43.09-.26.18-.49.28-.67H49ZM14.41 22.73H8.43c-.04 0-.06.02-.06.06l-.03 1.14c0 .04.02.07.05.1.06.03.1.03.15 0h1.85c-.05.97.15 1.86.6 2.69H6.04c-.02-.01-.03-.03-.03-.05v-6.6c0-.04.01-.06.04-.06h6.3c.1 0 .18.05.24.14l1.83 2.58ZM26.96 20.02v.4c0 .04-.02.06-.06.06h-.09c-.04 0-.07.02-.07.07-.05.35-.2.65-.49.9a.09.09 0 0 0-.03.06v.12c0 .05-.02.07-.06.06l-.28-.04c-.02 0-.03 0-.04.02-.03.03-.06.04-.11.04-.24 0-.45-.05-.65-.17-.1-.05-.22-.06-.38-.02a.29.29 0 0 0-.07-.18v-.04h.02c.26.13.4.06.42-.2 0-.02.01-.03.03-.03.01 0 .02 0 .03.02.02.04.01.14-.02.3 0 .04.01.06.04.08.03.01.06 0 .08-.02a.7.7 0 0 0 .1-.5c0-.04.01-.06.05-.06h.03c.02 0 .03.01.03.03v.32c0 .03.02.06.05.06.03.01.05 0 .07-.03a.48.48 0 0 0 .02-.3c-.02-.1-.02-.18.02-.24l.05-.1c.09-.15.16-.26.22-.32.07-.07.09-.17.08-.3l1.01.01Z" fill="#BB9A65"/><path d="m27.87 20.06.01 7.89c0 .06.05.09.14.08h3.37c-.2.87-.26 1.75-.17 2.65h-5.65c-.05.01-.08-.02-.08-.09v-7.65c.02-.14-.05-.22-.21-.22a13.44 13.44 0 0 1-.67-.01.36.36 0 0 1-.33-.03c.01-.1.05-.14.11-.16l.18-.03c.13-.08.2-.17.25-.28 0-.02.01-.03.03-.04.02 0 .04 0 .05.02l.1.13h.02l.01-.02.07-.23c.02-.04.05-.05.1-.04.06.03.08.06.07.12 0 .03 0 .04.03.03l.04-.02v-.01c.03-.14-.02-.21-.15-.23-.03 0-.05-.02-.06-.05l-.04-.06c-.03-.01-.06 0-.08.03-.21.37-.52.59-.9.64-.03 0-.04 0-.05-.03 0-.02 0-.04.02-.05.07-.05.2-.1.4-.16a.59.59 0 0 0 .3-.22c.02-.02.02-.04 0-.06-.01-.03-.03-.03-.05-.01l-.02.01c-.21.19-.37.23-.46.14-.03-.03-.06-.03-.09 0a.17.17 0 0 1-.07.05c-.03.02-.06 0-.09-.03-.01-.03-.03-.05-.06-.05s-.1.04-.18.13l-.07.06a.05.05 0 0 1-.04 0c-.04 0-.06-.01-.07-.04 0-.04 0-.05.04-.05.06.01.1 0 .13-.06a.16.16 0 0 1 .07-.06c.22-.11.4-.12.57-.03.04.02.07.02.1-.02l.16-.15c.02-.01.02-.03.01-.04 0-.02-.01-.03-.03-.03a.32.32 0 0 0-.19.06c-.03.02-.05.01-.06-.03v-.06c.01-.03.03-.04.06-.05.1 0 .19-.07.26-.18.16-.04.29-.03.38.02.2.12.41.18.65.18.05 0 .08-.02.1-.05.02-.02.03-.02.05-.02l.28.04c.04 0 .06-.01.06-.05v-.12c0-.03.01-.05.03-.07.28-.25.44-.55.49-.9 0-.04.03-.07.07-.07h.1c.03 0 .05-.02.05-.06v-.4l.9.04Z" fill="#9A773F"/><path d="M27.87 20.06c0 .1.02.16.08.16.04 0 .06.03.06.07v3.8l-.01.78c-.02.53-.02.93 0 1.2a5.32 5.32 0 0 1-.01.91l.03 1.04c-.1.02-.14-.01-.14-.07l-.01-7.9ZM47.64 27.35l-.15-.2c-.03-.04-.03-.07 0-.1l1.81-1.8c.07-.06.1-.14.1-.25v-4.83l.11.07a.1.1 0 0 1 .05.09v4.96c0 .04-.01.08-.04.1-.59.61-1.14 1.18-1.67 1.69a.57.57 0 0 1-.18.11c-.04.02-.05.05-.04.1l.01.06Z" fill="#010000" fill-opacity=".82"/><path d="M24.28 20.37v.06c-.02.03-.04.05-.08.04-.03 0-.04-.02-.03-.05.02-.06.06-.08.11-.05Z" fill="#BB9A65"/><path d="M36.2 20.73c.02-.09.02-.17-.01-.18-.04-.02-.1.03-.12.12-.03.08-.03.16 0 .18.04.02.1-.04.12-.12Z" fill="#9A773F"/><path d="M23.33 20.95v-.09c0-.03.01-.04.03-.05.03 0 .04.01.05.04.02.06.02.1-.02.12-.03.02-.05.01-.06-.02Z" fill="#BB9A65"/><path d="M36.64 21.22c-.04 0-.07.02-.06.06a260.78 260.78 0 0 1 0 6.75c-.15.06-.2-.2-.18-.76l-.01-6.33c0-.02 0-.03.02-.04l.04.01.19.31Z" fill="#010000" fill-opacity=".82"/><path d="M36.12 21.03c-.01.06-.05.16-.1.29-.02.03-.03.03-.06.02l-.04-.03c-.02-.01-.02-.03-.01-.05l.13-.27c.01-.02.03-.03.06-.02.02.01.03.03.02.06Z" fill="#9A773F"/><path d="m23.71 21.28-.04.06c-.07.07-.12.1-.16.08l-.02-.02c-.01-.02 0-.03.01-.04a.58.58 0 0 0 .3-.31c.01-.02.02-.02.04-.01l.01.03c.02.04-.01.1-.09.16l-.05.05Z" fill="#BB9A65"/><path d="M24.25 21.55c-.01 0-.02 0-.02-.03v-.04c0-.03.01-.04.03-.03.1.02.16-.03.2-.14 0-.02.01-.02.03-.02.01 0 .02 0 .03.02.02.05.01.12-.01.19-.01.04-.04.06-.08.06h-.18Z" fill="#9A773F"/><path d="M24.05 21.49v.07c0 .05.02.07.06.06l.08-.02c.03 0 .05.01.05.04l.03.16c0 .02 0 .04-.02.05h-.04a.54.54 0 0 1-.24-.34c0-.03 0-.05.03-.05l.05.01v.02ZM22.73 21.67a10.49 10.49 0 0 1 .14.1c0 .03-.02.04-.04.05h-.02a17.9 17.9 0 0 1-.24-.18c0-.02 0-.04.02-.06h.02l.12.09ZM23.8 21.9c-.02.02-.03.02-.05 0v-.03l.05-.1c.03-.04.02-.07-.03-.09a.4.4 0 0 0-.29.02h-.02l-.04-.05c-.02-.03-.02-.05.02-.06a.73.73 0 0 1 .45.03c.03.01.04.03.05.07 0 .03 0 .05-.02.07l-.13.14Z" fill="#BB9A65"/><path d="M35.76 21.9a.77.77 0 0 1-.09-.16c0-.02 0-.03.02-.04h.03c.07.06.11.11.12.16 0 .03 0 .05-.03.06-.02 0-.04 0-.05-.02Z" fill="#9A773F"/><path d="M37.3 22.15a1.34 1.34 0 0 1-.3-.42c.13.12.23.26.3.42Z" fill="#010000"/><path d="M23.72 22c-.01.03-.1-.02-.29-.12a5.92 5.92 0 0 1 .02-.1c.01-.02.02-.02.04 0 .16.13.24.2.23.23ZM23.25 21.96c.06 0 .1.04.11.1v.03h-.03l-.08-.04-.08.03h-.03v-.03c.01-.06.05-.1.11-.09Z" fill="#BB9A65"/><path d="M35.8 22.12a.22.22 0 0 1-.04-.06c0-.03 0-.04.03-.04.02 0 .04 0 .05.03l.02.04-.02.04-.04-.01Z" fill="#9A773F"/><path d="m43.88 22.53 3.06-.02c.11.02.14.1.1.28h-9.21a.22.22 0 0 1-.19-.11l-.31-.48c.1.13.2.22.3.3l.09.02 6.16.01Z" fill="#010000" fill-opacity=".82"/><path d="M23.97 22.22h.05c.02 0 .03.02.03.05v.09c0 .01-.01.03-.03.03-.09.05-.15.07-.2.08-.01 0-.03 0-.04-.02l.01-.05.18-.18ZM23.12 22.46c.06-.12.15-.18.26-.19.12 0 .2.06.27.19.02.03.01.06-.02.07h-.02c-.04.02-.07 0-.07-.05 0-.12-.13-.11-.38.04l-.04-.01v-.05Z" fill="#9A773F"/><path d="m22.03 23.02.02 7.51c0 .1-.05.16-.14.16h-2.16c-.01.02-.03.01-.04-.02v-6.33c.23-.58.5-1.12.84-1.63a.1.1 0 0 1 .07-.05l.28-.07c.03 0 .06 0 .08.04.07.09.18.13.34.1.03 0 .06.01.08.04a.1.1 0 0 1 0 .09v.03c-.02.04 0 .06.04.06l.59.07Z" fill="#BB9A65"/><path d="M16.65 22.7c.07.04.12.1.14.19.02.05 0 .08-.06.08h-.93c-.03 0-.06 0-.09-.02a.38.38 0 0 1-.19-.27c.34.07.71.08 1.13.03Z" fill="#010000" fill-opacity=".82"/><path d="M21.71 22.73a.62.62 0 0 1-.13.05c-.02 0-.04-.01-.04-.04s0-.05.02-.07c.04-.03.09-.03.15 0 .01 0 .02.01.02.03 0 .02 0 .03-.02.03Z" fill="#9A773F"/><path d="M24.28 22.68c.1.06.22.07.33.03a13.44 13.44 0 0 0 .67 0c.16.01.23.09.22.23h-3.23c-.05 0-.08.03-.08.1v7.87c0 .03-.01.05-.04.05h-2.27c-.05 0-.07-.03-.08-.08a.64.64 0 0 0-.05-.2h2.16c.1.01.14-.04.14-.15l-.02-7.51c0-.1 0-.18.03-.24.02-.04.05-.06.08-.06l1.25-.02h.03l.06-.02c.25.05.52.05.8 0ZM14.41 22.72c.02.03.05.07.07.13v.07c-.02.02-.03.03-.05.03H8.58c-.05 0-.07.02-.06.07l.02 1.01c-.04.03-.1.03-.15 0a.1.1 0 0 1-.05-.1l.03-1.14c0-.04.02-.07.06-.07h5.98ZM19.7 22.94l-1.62.05c-.15 0-.25-.09-.29-.28l1.83.03c.03 0 .06.02.07.06.01.05.02.1 0 .14Z" fill="#010000" fill-opacity=".82"/><path d="M35.65 22.9c.06-.02.1-.06.09-.1-.01-.03-.06-.05-.12-.03-.06.02-.1.06-.09.1.01.03.06.05.12.03ZM34.9 23.93c.1-.02.2-.06.19-.08 0-.03-.1-.03-.2 0-.11.02-.2.06-.2.08 0 .02.1.03.2 0Z" fill="#9A773F"/><path d="m16.2 24.19-.01 5.92-.41-.12a3.6 3.6 0 0 0-.63-.16c-.35-.04-.59-.08-.7-.13-.42-.2-.96-.44-1.62-.72-.36-.15-.59-.47-.67-.95h1.63c.03 0 .05-.03.05-.07v-1l-.01-.18c0-.03-.03-.05-.06-.05L11 26.72a4.93 4.93 0 0 1-.61-2.69h5.74c.04 0 .06.03.07.07v.09Z" fill="#E5C897"/><path d="M6.02 30.69H16.1c.06 0 .1-.04.09-.1v-.48l.01-5.92c.04.08.08.1.1.07.02-.01.04-.02.06 0 .02 0 .03.02.03.05v6.55c0 .06-.02.09-.07.09a94.18 94.18 0 0 1-4.91 0 269 269 0 0 1-4.85.03c-.32 0-.5-.09-.54-.3ZM39.6 25.34a1.28 1.28 0 0 1-.31-.43c.12.12.22.27.3.43Z" fill="#010000" fill-opacity=".82"/><path d="M36.4 27.27c-.03.57.03.82.17.76h7.64c.07 0 .1.05.08.16v2.37c0 .08-.03.13-.1.13h-7.72c-.17 0-.3-.06-.37-.17 0 .02 0 .01-.02-.03a.22.22 0 0 0-.05-.08l-.06-.06a.2.2 0 0 0-.08-.12l-.03-.03a.15.15 0 0 0-.05-.09l-.06-.07a.15.15 0 0 0-.04-.07l-1.62-2.34a.2.2 0 0 1-.04-.12v-2.3a5.7 5.7 0 0 1 2.35 2.06Z" fill="#E5C897"/><path d="M40.04 25.97a.86.86 0 0 1-.22-.3c.1.08.17.18.22.3Z" fill="#010000" fill-opacity=".82"/><path d="M40.22 26.24a.18.18 0 0 1-.05-.08c.03 0 .04.04.05.08Z" fill="#010000"/><path d="M40.52 26.63c-.1-.08-.18-.19-.24-.31.1.08.19.18.24.31Z" fill="#9A773F"/><path d="m11 26.71 2.77.02c.03 0 .05.01.06.05l.01.18H6.15c-.03 0-.05-.02-.06-.06v-.18h4.9ZM44.93 27.62l-.2-.22a.12.12 0 0 0-.1-.04h-3.47a.25.25 0 0 1-.17-.07c-.1-.09-.2-.23-.28-.4l.2.2c.04.04.07.05.1.05h3.47c.03 0 .05 0 .07.02a.8.8 0 0 1 .38.46Z" fill="#010000" fill-opacity=".82"/><path d="M12.16 28.03c.08.48.3.8.67.95.66.28 1.2.52 1.62.72.11.05.34.1.7.13.14.02.34.07.63.16l.4.12.01.48c0 .06-.03.1-.09.1H6.02L6 28.07c0-.02.01-.04.03-.04h6.13ZM33.2 28.1c-.15.52-.23 1.1-.21 1.71 0 .28-.06.57-.18.87h-1.59c-.09-.9-.03-1.78.17-2.65h1.76c.04 0 .06.02.05.07Z" fill="#BB9A65"/><path d="m35.04 30.66-2.23.02c.12-.3.18-.59.18-.87-.02-.61.06-1.19.21-1.71l1.84 2.56Z" fill="#E5C897"/><path d="M36.1 30.52c.07.1.2.16.37.16h7.71c.08 0 .11-.04.11-.12v-2.37c.11.03.17.12.17.3v2.38c0 .06-.03.1-.08.1H36.5c-.04 0-.06-.01-.1-.03a.76.76 0 0 1-.3-.42Z" fill="#010000" fill-opacity=".82"/><path d="M32.05 29.76c.01-.09.04-.08.07.02v.07c-.01.02-.02.02-.04.02-.01 0-.02-.01-.02-.03l-.01-.06v-.02Z" fill="#9A773F"/><path d="M46.73 30.29c-.09-.1-.17-.21-.23-.34.1.1.18.2.23.34Z" fill="#010000"/><path d="m49.82 30.66.16.19c.02.03.03.06.01.1-.01.03-.04.05-.07.05l-2.72-.08a.07.07 0 0 1-.06-.03l-.3-.45.19.2c.02.03.05.04.08.04l2.56.08c.07 0 .11-.03.15-.1Z" fill="#010000" fill-opacity=".82"/><path d="m35.7 33.16-.37.4c-.04.06-.09.06-.14.01a1.16 1.16 0 0 0-1.14-.3c-.42.11-.71.4-.88.87-.18.54-.12 1.02.2 1.43.21.28.5.43.84.46.35.02.65-.07.91-.3a.11.11 0 0 0 .04-.08l-.01-.44c.02-.05.02-.1.01-.16 0-.04-.02-.06-.06-.06h-.77c-.05.02-.07 0-.08-.03v-.58c0-.04.02-.07.06-.07h1.4c.04 0 .07.03.09.07V35.91c0 .04-.01.08-.03.1-.1.17-.21.29-.31.35-1 .6-1.88.49-2.68-.34-.29-.46-.4-1-.35-1.6.06-.61.3-1.1.7-1.44.36-.32.8-.46 1.3-.43.51.04.93.24 1.27.6ZM40.71 33.47c.2.4.28.8.27 1.24-.01.42-.12.8-.31 1.13-.2.35-.46.6-.8.75-.35.16-.75.2-1.19.1-.39-.1-.73-.3-1.02-.6l-.02-.03a.1.1 0 0 0-.06-.08 2.38 2.38 0 0 1-.28-1.89 2 2 0 0 1 .83-1.22c.42-.29.88-.37 1.37-.25.5.11.9.4 1.21.85Zm-2.45 2.19c.3.35.67.48 1.09.38.42-.1.71-.39.88-.85.16-.46.12-.89-.1-1.3a1.17 1.17 0 0 0-.78-.62c-.35-.08-.67 0-.96.25-.3.26-.46.6-.49 1.03-.02.44.1.8.36 1.1ZM43.2 32.72v3.14c0 .03.02.06.04.07.04.03.09.03.14 0H45c.04 0 .07.03.08.07l.01.09-.03.45c0 .05-.02.06-.06.06h-2.45v-3.86c0-.04.01-.06.05-.06.24-.03.44-.01.6.04ZM48.4 32.7l-.03.72-1.1-.03c-.02 0-.03.01-.03.04-.05.83-.02 1.68.09 2.52.35-.03.65-.04.89-.04.12 0 .32-.1.58-.29l.33.68c-.33.21-.64.32-.91.32l-1.48.01-.14-.01-.02-3.87c0-.04.01-.06.05-.06h1.77Z" fill="#E5C897"/><path d="M49.52 33.46c0 .09.03.13.07.13.42 1.08.27 1.98-.46 2.7l-.33-.67c.38-.52.43-1.09.15-1.71a.98.98 0 0 0-.58-.49l.03-.72c.47.1.85.35 1.12.76Z" fill="#BB9A65"/><path d="M43.38 35.94c-.05.02-.1.02-.14 0a.08.08 0 0 1-.03-.07v-3.15c0 .12.03.17.09.14.04-.02.07 0 .07.05v3.03ZM35.7 33.16c.08.08.12.15.13.21a.1.1 0 0 1-.02.08l-.32.36c-.05.06-.1.06-.16 0-.33-.3-.71-.4-1.13-.3-.43.1-.72.37-.87.83-.12.4-.11.8.04 1.23-.32-.41-.38-.89-.2-1.43.17-.46.46-.75.88-.87.42-.1.8 0 1.14.3.05.05.1.05.14 0l.37-.4ZM40.12 33.89a1.1 1.1 0 0 0-.9-.38 1.1 1.1 0 0 0-.87.45c-.04.05-.09.14-.14.27l-.09.19a.28.28 0 0 0-.03.09c-.06.38 0 .76.17 1.15-.26-.3-.38-.68-.35-1.1.02-.44.19-.78.48-1.04.3-.24.6-.33.96-.25.33.08.59.29.77.62ZM48.37 33.42c.27.1.46.25.58.49a1.52 1.52 0 0 0-.57-.29 6.72 6.72 0 0 0-.92-.01c-.04 0-.05.02-.05.06.04.74 0 1.5-.08 2.28-.11-.85-.14-1.69-.1-2.52 0-.03.02-.04.04-.04l1.1.03ZM49.6 33.6c-.05 0-.08-.05-.08-.14.05.03.08.08.07.13Z" fill="#010000" fill-opacity=".82"/><path d="M37.66 36.1c.29.3.63.5 1.02.58.44.1.84.07 1.2-.1.32-.14.59-.4.79-.74a2.64 2.64 0 0 0 .04-2.37c.31.45.46.95.44 1.5-.02.56-.2 1.03-.54 1.42a1.79 1.79 0 0 1-2.15.41c-.3-.15-.55-.37-.76-.65l-.04-.06ZM46.74 36.63l1.48-.01c.27 0 .58-.11.9-.32.74-.73.9-1.63.47-2.7l.05.01c.36.62.45 1.26.27 1.9a1.8 1.8 0 0 1-1.3 1.33l-1.83.01a.08.08 0 0 1-.07-.03c-.04-.06-.03-.12.03-.2Z" fill="#010000" fill-opacity=".82"/><path d="M13.27 34.23h3.9l1.42-.01H31.1l.02.01c.03.03.04.07.03.13V35c0 .06-.03.09-.08.09H6.03l-.03-.8c0-.05.02-.08.06-.08l7.21.02Z" fill="#9A773F"/><path d="M6.03 35.08h25.05c.05 0 .08-.02.08-.08v-.64l.09.04c.03.02.04.05.04.09v.7c0 .08-.03.11-.1.11a288.69 288.69 0 0 1-7.37 0 4895.37 4895.37 0 0 0-17.6.02c-.06 0-.13-.08-.2-.24ZM35.8 34.52c.1-.01.16.02.16.09v1.52c0 .06-.02.11-.05.16-.2.24-.44.43-.74.55a1.97 1.97 0 0 1-1.75-.14c-.28-.16-.5-.4-.64-.68.8.83 1.69.94 2.68.34.1-.06.2-.17.3-.34a.19.19 0 0 0 .04-.1v-1.4Z" fill="#010000" fill-opacity=".82"/><path d="M35.15 35.2c-.25.06-.5.06-.75.01-.04 0-.05-.03-.05-.07 0-.05 0-.1-.02-.14h.77c.04 0 .06.01.06.05.01.06 0 .1-.01.16ZM42.54 36.6H45c.04 0 .06-.02.06-.06l.03-.45c.17.12.22.35.17.69 0 .06-.04.09-.1.09h-2.38c-.03 0-.06 0-.1-.04-.03-.03-.04-.06-.02-.1.03-.05.01-.08-.03-.08a.14.14 0 0 1-.09-.04Z" fill="#010000" fill-opacity=".82"/></svg>