<!-- by TradingView --><svg width="56" height="56" viewBox="0 0 56 56" xmlns="http://www.w3.org/2000/svg"><path fill="#181B1E" d="M0 0h56v56H0z"/><path d="M18 30h-.6l-.42-1h-1.96l-.42 1H14l1.51-3.61a.6.6 0 0 1 .55-.39h.27L18 30Zm-2.76-1.54h1.52L16 26.65l-.76 1.81ZM35 30h-.6l-.42-1h-1.96l-.42 1H31l1.51-3.61a.6.6 0 0 1 .55-.39h.27L35 30Zm-2.76-1.54h1.52L33 26.65l-.76 1.81ZM7.38 28.82c0-.06-.03-.15-.22-.25a2.6 2.6 0 0 0-.72-.24c-.3-.06-.62-.15-.87-.31a.97.97 0 0 1-.45-.83c0-.35.15-.66.42-.88.26-.2.62-.31 1.02-.31.64 0 1.13.27 1.33.43l-.4.5a1.6 1.6 0 0 0-.93-.3c-.3 0-.51.08-.64.19a.46.46 0 0 0-.18.37c0 .12.05.2.18.3.14.1.36.16.64.22.3.06.63.15.9.3s.54.4.54.81c0 .37-.2.67-.49.87-.28.2-.65.31-1.07.31-.65 0-1.22-.3-1.44-.46l.36-.52c.15.1.6.34 1.08.34.31 0 .56-.08.72-.2.16-.11.22-.24.22-.34ZM25.5 26.58H24V30h-.69v-3.42H22V26h3.5v.58ZM20.57 26a1.43 1.43 0 0 1 .6 2.72l.78 1.28h-.7l-.69-1.15h-.87V30H19v-4h1.57Zm-.88 2.25h.8a.82.82 0 0 0 0-1.64h-.8v1.64Z" fill="#fff"/><path d="m26.68 28.96.99-2.96h.66l1 2.96.98-2.96H31l-1.34 4h-.68L28 27.06 27.02 30h-.68L25 26h.69l.99 2.96ZM36.67 28l.92-1.78c.07-.14.2-.22.34-.22h.42L37 28.6V30h-.67v-1.4L35 26h.41c.14 0 .27.08.34.22l.92 1.78ZM11 28.76 12.4 26h.6v4h-.6v-2.69l-1.15 2.2h-.46L9.6 27.3V30H9v-4h.6l1.4 2.76ZM45 30v-4h2.5v.43h-1.9V28H47v.43h-1.4V30H45ZM42 26.43V26h2.5v.43h-.9V30H43v-3.57h-1ZM39 30v-4h2.5v.43h-1.88v1.35h1.73v.43h-1.73v1.36h1.87V30H39ZM49.65 29.18c0-.1-.04-.19-.15-.27a1.2 1.2 0 0 0-.45-.2c-.2-.05-.42-.11-.6-.23a.72.72 0 0 1-.38-.62c0-.29.14-.5.32-.65.17-.14.4-.21.63-.21.37 0 .75.2.9.3l-.18.38a1.47 1.47 0 0 0-.72-.26.72.72 0 0 0-.44.15.37.37 0 0 0-.16.29c0 .07.04.16.18.24.14.09.33.15.52.2.2.05.41.12.58.26.17.13.3.33.3.62 0 .3-.16.51-.35.64-.18.12-.43.18-.68.18-.4 0-.82-.25-.97-.38l.2-.35c.12.1.46.3.77.3.21 0 .4-.04.52-.13.12-.07.16-.17.16-.26Z" fill="#fff"/></svg>