<!-- by TradingView --><svg width="56" height="56" viewBox="0 0 56 56" xmlns="http://www.w3.org/2000/svg"><path fill="#F0F3FA" d="M0 0h56v56H0z"/><path d="M14 36.09v3.08L28 45l14-5.83v-3.08L28 41.9 14 36.1Z" fill="#6B357B"/><path d="M28 17.18 14 23v3.8l17.7 7.37-3.7 1.54-14-5.81v3.08l14 5.83 14-5.83v-3.8l-17.7-7.37 3.7-1.54 14 5.83v-3.08l-14-5.85ZM39.13 31.1l-3.7 1.54-18.56-7.72 3.7-1.54 18.56 7.72Z" fill="#6B357B"/><path d="m28 11-14 5.83v3.08l14-5.81 14 5.81v-3.08L28 11Z" fill="#6B357B"/><path d="M16.87 24.92 14 26.09v.72L16.87 28l3.7-1.54-3.7-1.54ZM20.57 23.36l3.73 1.56 3.7-1.56-3.7-1.54-3.73 1.54Z" fill="#291532"/></svg>