<!-- by TradingView --><svg width="56" height="56" viewBox="0 0 56 56" xmlns="http://www.w3.org/2000/svg"><path fill="#F0F3FA" d="M0 0h56v56H0z"/><path d="M30.95 10a8.98 8.98 0 0 1 5.59 1.71c7.3 5.34 7.93 15.87 4.3 23.8-2.25 4.9-6.8 9.59-12.15 10.33-5.26.74-9.37-1.12-12.33-5.57a21.03 21.03 0 0 1-2.3-5.3L14 33.5v-.04l.03-.01h.03l.02.03c.34 1.85.94 3.45 1.78 4.8 5.45 8.73 15.21 6.13 20.32-1.18a22.12 22.12 0 0 0 4-14.23c-.28-5.39-3.44-12.03-9.2-12.59l-.05-.01a.15.15 0 0 1-.07-.15v-.04a.1.1 0 0 1 .03-.06.1.1 0 0 1 .06-.03Zm-5.87 13.6c.04 0 .08.02.11.04l5.07 3.57a.48.48 0 0 1 .18.52c-.6 2.18-1.56 5.66-2.85 10.44a1.6 1.6 0 0 0 .41 1.57.15.15 0 0 1 .03.17.15.15 0 0 1-.14.09h-8.22a.1.1 0 0 1-.1-.08v-.07c0-.02.02-.04.04-.05l.81-.6c.25-.18.43-.45.51-.76l3.89-14.66a.26.26 0 0 1 .15-.17.24.24 0 0 1 .11-.01ZM36.82 18a.67.67 0 0 1 .66.6l.38 3.02a.3.3 0 0 1-.11.27.28.28 0 0 1-.28.04c-1.23-.48-1.93-.91-2.1-.91-3.55-.02-7.6-.03-12.15-.02a.51.51 0 0 0-.31.1.53.53 0 0 0-.19.28l-1.13 4.5a.3.3 0 0 1-.13.16.29.29 0 0 1-.2.05 9.7 9.7 0 0 0-4.77.24.3.3 0 0 1-.3-.06.3.3 0 0 1-.1-.3l2-7.53a.6.6 0 0 1 .2-.32c.1-.08.22-.12.35-.12h18.18Z" fill="#283870"/></svg>