<!-- by TradingView --><svg width="56" height="56" viewBox="0 0 56 56" xmlns="http://www.w3.org/2000/svg"><path fill="#F0F3FA" d="M0 0h56v56H0z"/><path d="m24.45 18.36-7.56 9.68-6.89.06c.11.13.13.12.05-.04a.32.32 0 0 1 .03-.33l10.7-13.64a.24.24 0 0 1 .2-.09.23.23 0 0 1 .18.1l3.3 4.26Z" fill="#1C8DBF"/><path d="M31.69 18.12v.5c-.1-.14-.21-.15-.32-.01l-3.32 4.15-3.55-4.4 3.34-4.26a.21.21 0 0 1 .26-.06l.08.06 3.2 4.09.05.03c.11.03.2 0 .26-.1Z" fill="#8D475C"/><path d="M46 28.07 39.06 28l-.24-.3-7.13-9.08v-.5l3.14-4.04a.22.22 0 0 1 .34 0l10.68 13.6c.06.08.1.16.12.25l.03.14Z" fill="#2A7D94"/><path d="m24.5 18.35 3.55 4.41c-.44.54-1.47 1.87-3.11 3.99a2.3 2.3 0 0 0-.55 1.23c-.05.04-.2.02-.43.02h-6.51c-.07 0-.16.18-.25.35 0-.08-.11-.19-.31-.31l7.56-9.68a.2.2 0 0 0 .05 0Z" fill="#743D58"/><path d="m31.7 18.62 7.12 9.07c0 .2-.1.3-.33.31-1.36.05-3.53.05-6.5.02L24.4 28c.02-.38.2-.8.55-1.25l3.1-3.99 3.33-4.15c.1-.14.22-.13.32 0Z" fill="#733952"/><path d="m39.06 28-7.51 9.41a.71.71 0 0 1-.4-.25c-1-1.21-2.05-2.52-3.13-3.93-.12-.24-.12-.33 0-.27L32 28h6.5c.22 0 .33-.1.32-.3l.24.3Z" fill="#836A79"/><path d="M16.89 28c.2.13.3.27.31.35l7.05 8.93c.03.04.06.06.1.08l.1.05.01.26-3.26 4.2a.26.26 0 0 1-.32.07.27.27 0 0 1-.1-.08L10 28h6.89Z" fill="#84B3D6"/><path d="m23.96 28 3.8 4.8c.04.05.1.09.16.11l.1.05c-.12-.06-.12.03 0 .27l-3.57 4.18-.1-.05a.35.35 0 0 1-.1-.08l-7.05-8.93c.1-.17.18-.35.25-.35h6.51Z" fill="#857085"/><path d="m32 28-3.98 4.96a1.1 1.1 0 0 1-.1-.05.38.38 0 0 1-.16-.12L23.96 28H32Z" fill="#6C6075"/><path d="M46 28 35.11 41.94A.16.16 0 0 1 35 42a.16.16 0 0 1-.13-.06l-3.1-3.95a.44.44 0 0 0-.2-.15l-.16-.05c.12-.02.17-.15.15-.38l7.5-9.41h6.95Z" fill="#84A7B9"/><path d="M28.02 33.23c1.08 1.4 2.12 2.72 3.12 3.93.11.13.25.22.4.25.03.23-.02.36-.14.38l-3.14 4a.36.36 0 0 1-.44.1.36.36 0 0 1-.12-.1l-3.24-4.12a.8.8 0 0 1-.01-.26l3.57-4.18Z" fill="#B4868F"/></svg>