<!-- by TradingView --><svg width="56" height="56" viewBox="0 0 56 56" xmlns="http://www.w3.org/2000/svg"><path fill="#F0F3FA" d="M0 0h56v56H0z"/><path d="M37 36V20h10v2.43h-7.23v4.14h6.66V29h-6.66v4.57H47V36H37ZM31.18 25.19a4.15 4.15 0 0 0-.5-1.1c-.2-.34-.45-.62-.74-.85-.29-.23-.61-.4-.99-.53a3.89 3.89 0 0 0-3.31.45 4.18 4.18 0 0 0-1.45 1.86c-.35.81-.52 1.8-.52 2.96 0 1.18.17 2.18.52 3 .35.81.83 1.43 1.45 1.86.62.42 1.34.63 2.16.63.74 0 1.38-.15 1.93-.46a3.5 3.5 0 0 0 1.7-3.1l.6.1H28V27.8h6v1.87c0 2.23-1 4.42-3 5.55-.94.52-2 .78-3.22.78a6.51 6.51 0 0 1-3.55-.97 6.54 6.54 0 0 1-2.38-2.76 9.86 9.86 0 0 1-.85-4.25c0-1.26.17-2.38.5-3.37a7.4 7.4 0 0 1 1.42-2.52c.6-.7 1.31-1.22 2.13-1.58.81-.37 1.7-.55 2.65-.55.81 0 1.57.13 2.27.38a5.9 5.9 0 0 1 3.9 4.8h-2.7ZM8 22.43V20h11.5v2.43H15V36h-2.54V22.43H8Z"/></svg>