<!-- by TradingView --><svg width="56" height="56" viewBox="0 0 56 56" xmlns="http://www.w3.org/2000/svg"><path fill="#F0F3FA" d="M0 0h56v56H0z"/><path d="M28.24 12c2.6.03 5.05.63 7.37 1.82.1.05.19.15.23.26.12.39-.03.63-.44.75a347.03 347.03 0 0 0-14.37-.14c-.41-.12-.55-.38-.42-.75a.47.47 0 0 1 .23-.27c2.34-1.14 4.8-1.7 7.4-1.67Z" fill="#F49120"/><path d="M18.44 18.9v-.02a1.26 1.26 0 0 1 .99-.66c3.65-.44 5.9-.7 6.77-.78 4.16-.4 7.93-.55 11.31-.48 1.45.03 2.91.6 3.54 1.81.27.51.16.94-.33 1.3-.23.15-.64.2-1.25.11-6.9-.88-13.79-1.13-20.67-.73a.39.39 0 0 1-.34-.17.38.38 0 0 1-.02-.39Z" fill="#053A58"/><path d="m12.02 24.1.03-.1a.56.56 0 0 1 .46-.4 161.19 161.19 0 0 1 27.51-1.75c.94.02 1.56.1 1.87.25.59.29 1.02.73 1.31 1.33.5 1.05-.27 2.01-1.45 1.87a156.53 156.53 0 0 0-29.39-.77.34.34 0 0 1-.35-.27v-.16Z" fill="#00986D"/><path d="M16.2 28.72v-.02c0-.1.03-.22.1-.3a.47.47 0 0 1 .3-.17c4.69-.74 8.5-1.22 11.44-1.44 3.9-.3 8.42-.36 13.54-.18.64.02 1.09.09 1.34.21 1.35.64 1.52 2.57.03 3.18-.35.14-.8.17-1.37.09-5.03-.73-9.63-1.16-13.82-1.3-3.4-.1-7.12 0-11.13.3a.4.4 0 0 1-.3-.1.39.39 0 0 1-.13-.27Z" fill="#F49120"/><path d="M12.56 33.71a.35.35 0 0 1 .14-.41c.04-.03.1-.05.14-.06 4.12-.6 7.25-1 9.41-1.2 6.17-.58 12.4-.8 18.7-.66.82.02 1.84.03 2.16.98.53 1.55-1.27 2.57-2.65 2.41a147.17 147.17 0 0 0-27.31-.67.58.58 0 0 1-.58-.37v-.02Z" fill="#053A58"/><path d="M17.92 37.93v-.02a.37.37 0 0 1 .27-.56 113.4 113.4 0 0 1 21.72-1.19c.38.02.73.36.85.71.38 1.14-1.25 2-2.16 2.23-.46.11-1.12.12-1.98.02a108.63 108.63 0 0 0-17.87-.75.9.9 0 0 1-.83-.44Z" fill="#F49120"/><path d="M28.66 43.97c-2.23.13-4.39-.17-6.46-.9a1.72 1.72 0 0 1-.72-.39.43.43 0 0 1-.1-.2c-.09-.49.1-.75.58-.8 1.8-.2 3.97-.36 6.54-.5 2.56-.16 4.74-.24 6.54-.26.48 0 .7.23.67.72 0 .08-.02.16-.07.22-.09.14-.3.3-.66.47a16.4 16.4 0 0 1-6.32 1.64Z" fill="#00986D"/></svg>