<!-- by TradingView --><svg width="56" height="56" viewBox="0 0 56 56" xmlns="http://www.w3.org/2000/svg"><path fill="#F0F3FA" d="M0 0h56v56H0z"/><path fill-rule="evenodd" d="M28 9.42c-6.96 0-12.61 6.06-12.61 13.55V26H15v-3.03C15 15.25 20.82 9 28 9s13 6.25 13 13.97V26h-.39v-3.03c0-7.49-5.65-13.55-12.61-13.55Zm0 .9c-6.48 0-11.74 5.56-11.74 12.43V26h-.4v-3.25C15.87 15.65 21.3 9.9 28 9.9s12.13 5.76 12.13 12.86V26h-.39v-3.25c0-6.87-5.26-12.44-11.74-12.44Zm-.22 8.53v-3.2a6.13 6.13 0 0 0-2.82.7l1.7 2.77c.32-.15.7-.25 1.12-.27Zm.44-3.58v-3.58c1.7.03 3.3.48 4.7 1.25l-1.86 3.03a6.49 6.49 0 0 0-2.84-.7Zm-.44 0v-3.58c-1.76.03-3.41.51-4.85 1.33l1.83 2.99a6.53 6.53 0 0 1 3.02-.75Zm-3.37.94-1.83-2.98a10.53 10.53 0 0 0-3.3 3.24l3.16 1.81a5.93 5.93 0 0 1 1.97-2.07Zm-2.16 2.43-3.17-1.83c-.83 1.4-1.34 3-1.46 4.72h3.78c.08-.84.33-1.89.85-2.9Zm-4.65 3.6v-.27h2.6V26h-2.6v-3.76ZM23.23 26h-2.6v-4.03h2.6V26Zm3.04 0h-2.6v-4.03h2.6V26Zm3.03-4.03V26h-2.6v-4.03h2.6ZM32.33 26h-2.6v-4.03h2.6V26Zm3.04 0h-2.6v-4.03h2.6V26Zm3.03 0h-2.6v-4.03h2.6V26Zm-1.51-9.25a10.6 10.6 0 0 1 1.49 4.78h-3.93a8.04 8.04 0 0 0-.83-2.9l3.27-1.88Zm-3.62-3.62c1.36.82 2.53 1.94 3.4 3.28l-3.25 1.87a5.87 5.87 0 0 0-2.02-2.1l1.87-3.05Zm-5.05 2.53v3.19c.36.02.67.08.96.19l1.67-2.73a6.09 6.09 0 0 0-2.63-.65Zm2.98.85-1.66 2.7c.37.2.66.48.88.78v.02l2.66-1.53c-.1-.17-.2-.34-.32-.5a5.47 5.47 0 0 0-1.56-1.47Zm-6.58.04a5.53 5.53 0 0 0-1.83 1.93l2.76 1.6a3.02 3.02 0 0 1 .77-.77l-1.7-2.76Zm6.02 3.8 2.63-1.52c.48.94.7 1.92.78 2.7h-3.02a3.63 3.63 0 0 0-.39-1.18Zm-8.05-1.51 2.76 1.58c-.2.38-.3.77-.36 1.1H21.8a7.7 7.7 0 0 1 .8-2.68Zm7.5 1.37c.3.42.47.91.54 1.32h-5.24c.07-.4.24-.9.55-1.32.4-.54 1.05-.98 2.08-.98s1.67.44 2.07.98ZM10 27.5h36V27H10v.5ZM10 42h36v-.5H10v.5Zm0-13v-1h8.18c1.07 0 3.22.59 3.22 2.87 0 2.28-2.52 3.4-3.78 3.67L22.34 40H23v1h-2.72L15 34.4V34h1.5c.9-.07 2.68-.88 2.68-2.94 0-1.63-1.74-2.04-3.2-2.06-.86-.01-1.7.18-1.98.47v10.25c0 .25.27.28.51.28H16v1h-6v-1h1.44c.24 0 .56-.03.56-.28V29.4c0-.25-.32-.4-.56-.4H10Zm13-1v1h1.08c.47 0 .92.15.92.64v9.9c0 .46-.4.46-.85.46H24v1h4.49c3.47 0 5.98-1.55 5.98-4.36 0-2.25-2.37-2.95-3.55-3.02.93-.18 2.8-1.04 2.8-3.08 0-2.05-1.79-2.55-2.72-2.54h-8Zm4 5v-3.77c.2-.07.82-.23 1.8-.23 1.2 0 2.7.45 2.7 1.85 0 1.4-1.24 2.15-2.53 2.15H27Zm0 1v6h2.03c1 0 2.97-.64 2.97-3.12 0-2.47-2.32-2.95-3.48-2.87H27Zm7-5v-1h7.92c.93 0 2.8.5 2.8 2.54s-1.87 2.9-2.8 3.08c1.18.07 3.55.77 3.55 3.02 0 2.8-2.5 4.36-5.98 4.36H35v-1H35.15c.45 0 .85 0 .85-.46v-9.9c0-.49-.45-.64-.92-.64H34Zm4 .23V33h1.97c1.29 0 2.53-.74 2.53-2.15 0-1.4-1.5-1.85-2.7-1.85-.98 0-1.6.16-1.8.23ZM38 40v-6h1.52c1.16-.07 3.48.4 3.48 2.88S41.02 40 40.03 40H38Z"/></svg>