<!-- by TradingView --><svg xmlns="http://www.w3.org/2000/svg" width="56" height="56" viewBox="0 0 56 56"><path fill="#F0F3FA" d="M0 0h56v56H0z"/><path d="M34.34 15c4.97 0 8.87 1.06 10.26 1.6-13.98-.95-22.2 5-24.27 7.97l-6 10.64c-3.76-.81-4.44-3.44-4.32-4.65C11.1 20.36 25.34 15 34.35 15z" fill="#0473B8"/><path d="M13.48 33.96c-.21 3.38 2.96 4.75 4.58 5-.94-.28-1.26-2.73 4.94-10.2 6.2-7.46 17.77-8.02 22.78-7.37-6.16-2.14-14.18-2.55-21.15.41-6.98 2.96-10.87 7.92-11.15 12.16z" fill="#218FCE"/><path d="M17.31 37.34c.2 4.87 5.68 5.8 8.4 5.65a5.53 5.53 0 0 1-2.05-4.52c.45-4.38 2.84-7.46 8.55-10.3 5.53-2.74 12.43-2.22 15.79-1.65-8.64-3.92-16.06-2-19.36-1.1-2.93.8-11.57 5.82-11.33 11.91z" fill="#0473B8"/></svg>