<!-- by TradingView --><svg width="56" height="56" viewBox="0 0 56 56" xmlns="http://www.w3.org/2000/svg"><path fill="#F0F3FA" d="M0 0h56v56H0z"/><path d="M42 32.34 31.16 45h-6.32L14 32.34 17.83 28 23 34.45v5.1l4.65-2.95V33h-1.3l-1.59-2h6.48l-1.59 2h-1.3v3.6L33 39.55v-5.1L38.17 28 42 32.34Zm-18.5 8.23c-.2.13-.1.43.14.43h8.86c.24 0 .34-.3.14-.43L28 37.5l-4.5 3.07ZM21 19.34l-2.89-3.88L10.01 26l3.94 5.1 3.44-4.41-1.32-1.79L21 19.34ZM9 24.55 17.16 14l.62.9L9.6 25.47 9 24.55Z" fill="#AD8330"/><path d="M26 29h-1v-4h-4.03L19 23h5.03L26 25v4ZM30 29h1v-4h4.03L37 23h-5.03L30 25v4ZM38 14l-4.01 5H22L18 14h20Z" fill="#AD8330"/><path d="M41.95 17.87c-.33.5-.65.97-1 1.46l5.02 6.6L42.11 31l-3.38-4.38 1.3-1.77L35 19.33 39 14l2.95 3.87Z" fill="#AD8330"/><path d="m47 24.47-.58.9-4.72-6.15.6-.9 4.7 6.15Z" fill="#AD8330"/></svg>