<!-- by TradingView --><svg width="56" height="56" viewBox="0 0 56 56" xmlns="http://www.w3.org/2000/svg"><path fill="url(#a)" d="M0 0h56v56H0z"/><path d="M28.95 28.76c.47-.23.94-.3 1.42-.2.39.07.86.29 1.42.63a2064.23 2064.23 0 0 0 6 3.72l.04-.01c.95-.73 1.9-.84 2.83-.35.46.23.8.57 1.04 1.02.22.41.32.86.3 1.34-.03.49-.17.92-.42 1.31-.28.42-.65.72-1.12.91-.9.37-1.73.25-2.5-.36-.7-.55-1-1.36-.9-2.43 0-.05 0-.1-.03-.13a.24.24 0 0 0-.09-.1c-.8-.49-2.89-1.78-6.27-3.9-.4-.24-.8-.26-1.2-.07-.41.2-.62.52-.63.97a4413.4 4413.4 0 0 1-.06 7.89c0 .02.03.04.05.06l.3.19c.88.48 1.32 1.2 1.35 2.16.02.75-.24 1.38-.78 1.9-.54.51-1.17.74-1.9.68a2.41 2.41 0 0 1-2.26-2.17 2.57 2.57 0 0 1 1.65-2.75.26.26 0 0 0 .16-.24l.08-7.54a2.64 2.64 0 0 1 1.52-2.53ZM28 40.4c-.58 0-1.05.48-1.05 1.07 0 .59.47 1.07 1.05 1.07.58 0 1.05-.48 1.05-1.07 0-.6-.47-1.07-1.05-1.07ZM16.13 18.43c.79-.2 1.49-.04 2.1.46.84.69 1.14 1.57.9 2.64a.2.2 0 0 0 .08.2c1.77 1.06 3.9 2.36 6.4 3.9.38.23.68.55.9.95.2.4.31.83.3 1.3a2.6 2.6 0 0 1-1.28 2.21 673.53 673.53 0 0 1-6.52 3.66.2.2 0 0 0-.1.2 2.47 2.47 0 0 1-.98 2.61c-.63.48-1.33.61-2.12.38a2.37 2.37 0 0 1-1.61-1.47 2.53 2.53 0 0 1 2.25-3.5c.57-.01 1.1.17 1.59.56a.19.19 0 0 0 .2.02c2.53-1.4 4.74-2.65 6.66-3.75.33-.19.5-.5.51-.94 0-.44-.15-.77-.48-.97a755.7 755.7 0 0 0-6.52-3.98.19.19 0 0 0-.2.01 2.41 2.41 0 0 1-3.05-.06 2.53 2.53 0 0 1-.7-3.01c.33-.74.88-1.22 1.67-1.42Zm23.39 15.29c-.59 0-1.06.48-1.06 1.07 0 .6.47 1.08 1.06 1.08.58 0 1.05-.48 1.05-1.08 0-.59-.47-1.07-1.05-1.07Zm-23.04-.26c-.58 0-1.05.48-1.05 1.07 0 .6.47 1.07 1.05 1.07.58 0 1.05-.48 1.05-1.07 0-.59-.47-1.07-1.05-1.07Zm11.5-21.45c.58-.04 1.1.1 1.54.44.5.37.8.9.92 1.6a2.58 2.58 0 0 1-1.08 2.63 1.5 1.5 0 0 1-.27.14l-.23.12a.2.2 0 0 0-.09.16V25l.01.06c.2.55.53.86 1 .94.26.04.65-.1 1.2-.44a947.4 947.4 0 0 1 6.04-3.63.15.15 0 0 0 .07-.15c-.12-.78 0-1.45.37-2.02.37-.58.93-.94 1.66-1.07.77-.13 1.44.07 2.03.59.6.52.88 1.18.85 1.97a2.6 2.6 0 0 1-1.43 2.24 2.34 2.34 0 0 1-2.59-.3.18.18 0 0 0-.2-.02 1418.85 1418.85 0 0 0-6.62 3.96 2.45 2.45 0 0 1-2.56-.06 2.61 2.61 0 0 1-1.25-2.25v-7.77a.19.19 0 0 0-.1-.17c-1.02-.51-1.5-1.36-1.46-2.55A2.3 2.3 0 0 1 27.98 12Zm11.54 8.1c-.59 0-1.06.48-1.06 1.08 0 .59.47 1.07 1.06 1.07.58 0 1.05-.48 1.05-1.07 0-.6-.47-1.08-1.05-1.08Zm-22.78-.26c-.58 0-1.05.48-1.05 1.07 0 .6.47 1.07 1.05 1.07.58 0 1.05-.48 1.05-1.07 0-.6-.47-1.07-1.05-1.07Zm11.4-6.41c-.55 0-1 .47-1 1.06-.01.6.43 1.08.98 1.09.55 0 1-.48 1-1.07 0-.6-.44-1.08-.99-1.08Z" fill="#fff"/><defs><linearGradient id="a" x1="10.42" y1="9.71" x2="68.15" y2="76.02" gradientUnits="userSpaceOnUse"><stop stop-color="#1A1E21"/><stop offset="1" stop-color="#06060A"/></linearGradient></defs></svg>