<!-- by TradingView --><svg width="56" height="56" viewBox="0 0 56 56" xmlns="http://www.w3.org/2000/svg"><path fill="url(#ahn1xhiop)" d="M0 0h56v56H0z"/><circle cx="28" cy="28" r="16" fill="#fff"/><path d="M28.47 44A16 16 0 1 0 13.2 21.9l8.93 6.73 5.34 9.9L25.24 26l2.7-13.4L30.5 26l-1.85 11.8 4.96-9.18 9.11-6.87-5.12 10.01-9.1 7-.02.1 6.88-4 7.41-.88-6.22 4.15-7.74.96 2.37.84 2.71 2.68-3.43-1.24-1.98-2.22v4.83Zm-.94 0a16 16 0 0 1-14.27-9.77l5.86 3.9 7.92.99-2.3.82-2.72 2.68 3.43-1.24 1.97-2.21h.1V44Zm-14.36-9.98 7.14.85L27.4 39l.08-.03-9.35-7.19-4.99-9.74a15.95 15.95 0 0 0 .02 12Zm14.35 5.04v-.01.01Z" fill="#76C25E"/><defs><linearGradient id="ahn1xhiop" x1="10.42" y1="9.71" x2="68.15" y2="76.02" gradientUnits="userSpaceOnUse"><stop stop-color="#1A1E21"/><stop offset="1" stop-color="#06060A"/></linearGradient></defs></svg>