<!-- by TradingView --><svg width="56" height="56" viewBox="0 0 56 56" xmlns="http://www.w3.org/2000/svg"><path fill="#F0F3FA" d="M0 0h56v56H0z"/><path d="M47.14 26.5a.21.21 0 0 1-.1.1.17.17 0 0 1-.12.01c-1.76-.59-3.42-.94-4.98-1.05-1.59-.12-3.02-.1-4.31.06-.6.07-1.4.19-2.4.34-.8.13-1.6.3-2.38.5l-9.81 2.49c-2.4.6-5.03.93-7.87.98-.48 0-1.46-.07-2.93-.23a18.7 18.7 0 0 1-4.12-1.04 33.91 33.91 0 0 1-4.07-1.98.25.25 0 0 1-.01-.27.3.3 0 0 1 .14-.11l.07-.01c1.22.14 2.11.26 2.67.33.6.08 1.24.12 1.9.11h1.2a21.93 21.93 0 0 0 3.94-.25c.86-.1 1.51-.18 1.96-.26l13.53-2.46.25-.04c2.12-.4 3.66-.62 4.6-.68 3.25-.2 6.37.3 9.38 1.5a31.06 31.06 0 0 1 3.45 1.77l.03.06a.2.2 0 0 1-.02.13Z" fill="#407CA1"/><path d="M9.57 30.6a.27.27 0 0 1-.05-.16c0-.06.02-.12.05-.17.05-.06.13-.1.24-.08.1 0 .9.15 2.41.42.85.15 1.66.25 2.42.28 2.99.13 5.94-.2 8.85-.98l9.48-2.56a33.4 33.4 0 0 1 7.27-1.01c2.95-.13 5.76.49 8.44 1.83.55.28 1.35.74 2.39 1.4a154.25 154.25 0 0 0 .89.57.24.24 0 0 1 .04.17l-.03.09c-.06.1-.16.14-.3.1-2.05-.48-4.1-.76-6.16-.84-.8-.03-1.57 0-2.33.07l-.9.07a27 27 0 0 0-2.21.23l-2.2.35c-2.47.38-4.32.71-5.55.98l-4.36.91c-.78.17-1.52.29-2.22.36l-2.24.22A26.95 26.95 0 0 1 9.57 30.6Z" fill="#E03030"/></svg>