<!-- by TradingView --><svg width="56" height="56" viewBox="0 0 56 56" xmlns="http://www.w3.org/2000/svg"><path fill="#00713D" d="M0 0h56v56H0z"/><path d="M32.43 12.04 33.98 10c.29.35-.12 1.77-.35 2.44.12.2.35.63.35.84-.57.18-.49.71-.49.93 0 .82 1.45 1.23 2.18 1.33l-2.04 2.62c.75.76 2.09 2.52 2.37 2.84-1.07 0-2.21.09-2.77.22L35 22.24l-2 1.02 3 .74c-.81.15-2.47.86-3 1 1.14.96 3.71 1.59 5 2-.71.18-2.22.9-3 1 1.17.53 3.07.82 4 .99L33 31l3 1.31-3 .69 4 1.44-2.4.71c.21.1.74.45 1.2.98.46.53.93.81 1.2.87l-4 1c1.36.89 4.57 2.68 5 3-4.83 0-12.3 2.19-15 3l2-2-9 3 5-5-4 .56L25 34l-6 1.02L25.01 31H22c3.45-1.38 4.5-2.35 4.88-2.77h-3.64l.66-.7h-2.26l4.35-2.9L23 24l3.35-1.76-.85-.24 3.5-1-1-.7.18-.19L27 19.5l3.56-1.2L29 16l3.43-1.65.22-.36L31 13l1.43-.96Z" fill="#fff"/></svg>