<!-- by TradingView --><svg width="56" height="56" viewBox="0 0 56 56" xmlns="http://www.w3.org/2000/svg"><path fill="#00573C" d="M0 0h56v56H0z"/><path d="M17 40.54c1.1 0 1.66-1 1.67-3a4054.6 4054.6 0 0 0 .03-23.51.08.08 0 0 1 .06-.03h2.14c.03 0 .05.01.06.03a.1.1 0 0 1 .03.06c.02 9.45.01 16.97-.01 22.56C20.97 39.27 19.96 42 17 42s-3.97-2.73-3.98-5.35c-.02-5.59-.03-13.1-.01-22.56 0-.02 0-.05.02-.06a.08.08 0 0 1 .07-.03h2.13c.03 0 .05 0 .06.03.02.01.03.03.03.06-.02 7.81-.01 15.63.02 23.45 0 2 .56 3 1.66 3ZM24.2 14c2 0 3.32.01 3.95.05 2.08.15 3.4 2.23 3.58 4.28.09 1.04-.03 2.76.02 4.32a4.58 4.58 0 0 1-1.54 3.83.25.25 0 0 0 .05.28 5.69 5.69 0 0 1 1.7 3.96l.04 6.2c.02 2.49-1.1 4.77-3.67 5.03-.6.06-1.98.07-4.16.02a.18.18 0 0 1-.12-.05.19.19 0 0 1-.05-.13V14.22c0-.05.02-.1.06-.15a.2.2 0 0 1 .14-.06Zm2.16 1.64.06 10.1c0 .07.02.12.06.17.04.04.1.06.15.06h.48c.63 0 1.23-.32 1.67-.88.44-.55.68-1.3.68-2.09l-.02-4.65c0-.38-.07-.77-.19-1.13-.12-.35-.3-.68-.52-.95a2.41 2.41 0 0 0-.77-.64c-.29-.15-.6-.22-.9-.22h-.48a.2.2 0 0 0-.15.07.23.23 0 0 0-.07.16Zm.01 11.86.05 12.95a.18.18 0 0 0 .04.12.16.16 0 0 0 .12.05h.73c.3 0 .6-.08.88-.23.28-.14.54-.35.75-.62.22-.26.39-.58.5-.92.12-.35.17-.72.17-1.1l-.02-7.58a3.2 3.2 0 0 0-.69-2.01 2.12 2.12 0 0 0-1.64-.83h-.73l-.06.01a.16.16 0 0 0-.09.1v.06ZM37.44 41.83c0 .05-.01.09-.04.12a.15.15 0 0 1-.11.05h-2.16a.13.13 0 0 1-.1-.04.14.14 0 0 1-.03-.1V14.13c0-.03.01-.06.03-.08a.1.1 0 0 1 .07-.03c1.37-.02 2.58-.02 3.62-.02 2.55.02 4.1 2.17 4.22 4.63.07 1.45.08 3.64.02 6.57-.05 2.53-1 4.1-2.86 4.72-.86.28-1.69.13-2.45.2a.22.22 0 0 0-.15.08.24.24 0 0 0-.06.16v11.47Zm-.02-26.16.04 12.87c0 .05.03.1.06.15a.2.2 0 0 0 .15.06h.59c.61 0 1.2-.32 1.64-.89a3.5 3.5 0 0 0 .68-2.13l-.02-7.28c0-.4-.07-.78-.18-1.15-.12-.36-.3-.7-.51-.97a2.4 2.4 0 0 0-.76-.65 1.89 1.89 0 0 0-.9-.23h-.59a.2.2 0 0 0-.14.07.22.22 0 0 0-.06.15Z" fill="#fff"/></svg>