<!-- by TradingView --><svg width="56" height="56" viewBox="0 0 56 56" xmlns="http://www.w3.org/2000/svg"><path fill="#F0F3FA" d="M0 0h56v56H0z"/><path fill-rule="evenodd" d="M38 18.7 27.45 9l-5.7 5.8h-1.88l-1.12.57v2.49l-.75.84v18.28L27.66 47l6.1-5.92h1.3c.78 0 1.26-.51 1.41-.77.11-.22.36-.71.5-.94.14-.22.17-.5.17-.6v-.99l.86-.8V18.7Zm-18.72-3.38.65-.36h1.63l-.55.36h-1.73Zm-.28.23v10.81c0 1.04.75 1.87 1.77 1.87h5.87c1.01 0 1.83-.83 1.83-1.87v-10.8H26.5v9.6c0 .52-.4.94-.91.94H21.9c-.5 0-.9-.42-.9-.94v-9.6h-2Zm2.12 9.78V15.5l.5-.36v9.77c0 .26.2.47.45.47h4.26c0 .35-.36.53-.54.58h-3.93c-.48 0-.69-.42-.74-.63ZM26 29.89v9.31c0 .93 1.17 1.69 2.08 1.69h7.09c.43-.03 1.2-.31 1.2-1.27v-5.1h-5.98v1.8h3.86v1.7c0 .47-.37.98-.82.98H28.8c-.45 0-.8-.51-.8-.98v-6.8c0-.47.35-.85.8-.85h4.63c.45 0 .82.38.82.84v.04h2.2v-.51a2.5 2.5 0 0 0-2.47-2.53h-5.9c-.9 0-2.08.75-2.08 1.68Zm3 7.76v-7.12c-.47 0-.7.44-.7.66v7c0 .26.31.47.56.47h4.84c.2 0 .37-.17.37-.38V38h-4.63c-.26 0-.44-.1-.44-.35Zm1.57-3.29.63-.36h5.51l-.38.36h-5.76Zm6.35 4.55V34.1l-.34.41v5.2l.34-.79Zm-8.2-11.36h6.03c.69.15 2.06.84 2.06 2.37v.78l-.3.31v-.92c-.17-.87-.95-2.09-2.3-2.09h-6.23c.14-.18.45-.45.73-.45Zm-1.5-12.47-.33.28h1.72l.35-.28h-1.74Zm1.47.48.51-.38v11.25c0 .73-.58 1.04-.87 1.1.25-.4.34-.9.36-1.1V15.56Z"/></svg>