<!-- by TradingView --><svg width="56" height="56" xmlns="http://www.w3.org/2000/svg"><path fill="#ED6E28" d="M0 0h56v56H0z"/><path d="M37.991 12h-11.75c-.732 0-1.11.45-1.343.85l-1.464 2.48c-.469.879-1.717 1.355-2.237 1.548l-3.056 1.07C16.51 18.35 16 19.535 16 20.403v21.572a2 2 0 002 2h19.991a2 2 0 002-2V14a2 2 0 00-2-2z" fill="#fff"/><rect width="5.563" height="1.859" rx=".929" transform="matrix(.9337 -.35805 .37319 .92776 15.834 13.719)" fill="#fff"/><path d="M35.608 18.849c.352-.105.837-.134 1.24.143.347.24.532.584.615.887.041.152.06.304.058.443a.998.998 0 01-.097.434l-.006.01-3.387 5.905v8.514l2.374 2.258.01.01c.25.267.454.594.538.947.087.363.046.77-.226 1.113-.329.415-.775.58-1.177.595-.38.014-.771-.105-1.025-.334l-.008-.008-2.927-2.762h-7.788l-2.044 4.064-.024.033c-.413.57-1.388.872-2.119.278a1.496 1.496 0 01-.534-1.062 1.747 1.747 0 01.154-.888l.002-.002 2.746-5.503v-8.157l-2.528-2.506c-.163-.153-.327-.439-.4-.752a1.394 1.394 0 01.254-1.21c.329-.414.76-.578 1.157-.582.364-.002.73.132.954.361l2.993 2.925h7.694l2.59-4.504c.187-.327.568-.549.911-.65z" fill="#ED6E28"/><rect x="25" y="27" width="6" height="7" rx="1" fill="#fff"/></svg>