<!-- by TradingView --><svg width="56" height="56" viewBox="0 0 56 56" xmlns="http://www.w3.org/2000/svg"><path fill="#0C1848" d="M0 0h56v56H0z"/><path fill-rule="evenodd" d="M9 24v6.74c0 1.25.95 2.26 2.12 2.26h5.76c1.17 0 2.12-1.01 2.12-2.26V24h-1v7c0 .41-.45 1-.84 1h-6.35c-.4 0-.81-.59-.81-1v-7H9Zm11 1v-1h9v1h-4v8h-1v-8h-4Zm10-1v9h1v-4h7.15c.48 0 .85.4.85.9V33h1v-3.22c0-.6-.24-1.04-.63-1.33.39-.34.63-.84.63-1.46v-.72c0-1.25-.99-2.27-2.21-2.27H30Zm7.73 4h.04c.68 0 1.23-.5 1.23-1.1v-.8c0-.6-.55-1.1-1.23-1.1H31v3h6.73ZM42 33v-9h1.17L50 31.5V24h1v9h-1l-7-7.6V33h-1Z" fill="#fff"/><path d="M40.5 23H9.87C7.02 23 5 25.08 5 28s2.02 6 4.87 6H51v1H9.87C6.63 35 4 31.8 4 28.48 4 25.17 6.63 22 9.87 22h30.66L40 21l3 1.46L40 24l.5-1Z" fill="#E3B922"/></svg>