<!-- by TradingView --><svg width="56" height="56" viewBox="0 0 56 56" xmlns="http://www.w3.org/2000/svg"><path fill="#502683" d="M0 0h56v56H0z"/><path fill-rule="evenodd" d="M10 18.51V18h9.78l.06.5c-.77.2-2.36.74-3 1.64-.29.45-.33.89-.16 1.4l3.67 8.2c.85 1.77 1.7 3.48 2.36 4.82l5.8-12.81v-1.89l-1.49-1.35H26V18h11c2.76 0 5.04 2.45 5.04 5.37 0 1.78-.6 3.94-2.22 4.79A5.54 5.54 0 0 1 44 33.7C44 37.6 41 40 38 40L26.05 40l-.05-.53c.83-.35 2.51-1.18 2.51-2.32V22.97l-5.57 12.27L21 40l-.45.01-7.83-17.55v-.01c-.45-1.23-1.04-2.64-1.99-3.55-.27-.26-.52-.38-.72-.38Zm31 4.73c0 2.1-.64 3.8-2.42 4.72h-2.23c1.11-.65 2.15-2.38 2.15-4.72a5.24 5.24 0 0 0-2.42-4.73h.83c2.23 0 4.09 2.5 4.09 4.73ZM27.71 18.5h4.3L31 19.57V37.9l2 1.6h2c-1-.17-3-.97-3-2.65v-8.38h4.85c1.25.51 3.66 2.15 3.66 5.24 0 3.1-1.56 5.1-2.51 5.79H27c.76-.49 2-1.33 2-2.35v-17.5l-1.29-1.14Zm7.2 9.45H32V20.1c.1-.42.38-1.1.85-1.58h2.06c1.09.34 3.1 1.63 3.1 4.73 0 3.13-2.04 4.56-3.1 4.72ZM43 33.71c0 2.14-1.07 3.67-2.82 4.95-.43.24-.88.43-1.35.58A7.9 7.9 0 0 0 41 33.7a6.08 6.08 0 0 0-3.06-5.24h.9c2.41.26 4.16 2.8 4.16 5.24Zm-31.95-15.2h5.49c-.68.8-1.54 1.96-1.54 2.63 0 .84 4.63 10.4 6.97 15.13l-1.21 2.85-7.6-16.87c-.47-1.3-1.1-2.78-2.11-3.74Z" fill="#F0F3FA"/></svg>