<!-- by TradingView --><svg xmlns="http://www.w3.org/2000/svg" width="56" height="56" viewBox="0 0 56 56"><path d="M56 0H0v56h56V0Z" fill="#29398F"/><path d="M43.07 28.24c-1.66 1-3.7.68-5.66-.02.93-1.05 1.88-2.18 3-2.9.78-.5 2.1-.99 2.98-.48 1.5.84.82 2.7-.32 3.4Zm-13.22 5.51c-.68.74-1.38 1.79-2.17 2.36-1.44 1.05-1.75.63-2.85-.76a160.48 160.48 0 0 1-10.62-15.22c6.61 2.98 13.2 6.15 19.91 8.81-1.43 1.6-2.84 3.26-4.27 4.81ZM45.02 23.6c-1.86-1.95-4.89-.58-6.56.9-1.02.92-2 1.9-2.97 2.94l-2.1-.97-21.36-9.4c-.93-.4-1.38 1.1-.7 1.73A166.33 166.33 0 0 0 23.9 37.08c1.87 2.36 2.9 2.6 4.98.42 2.43-2.55 4.8-5.2 7.18-7.8 2.54.95 5.79 1.8 8.21.03 1.74-1.28 2.46-4.33.74-6.13Z" fill="#4CBFAD"/></svg>