<!-- by TradingView --><svg width="56" height="56" viewBox="0 0 56 56" xmlns="http://www.w3.org/2000/svg"><path fill="#003F61" d="M0 0h56v56H0z"/><path d="M12 28.03c0 3.98 1.85 7.85 2.77 9.29a26.89 26.89 0 0 1-1.58-9.3c0-5.5 5.54-15.23 15.7-15.23 8.14 0 12.79 4.7 14.09 7.06A16.43 16.43 0 0 0 28.9 11C15.48 11 12 23.05 12 28.03Z" fill="#5BB77A"/><path d="M43.49 25.36c-1-3.4-3.62-6.2-4.8-7.18a22.7 22.7 0 0 1 3.73 7.5c1.37 4.7-1.18 14.5-10.31 17.24-7.3 2.19-12.65-.57-14.41-2.23 5.08 5.12 12.02 4.63 14.86 3.75 12.04-3.61 12.17-14.83 10.93-19.08Z" fill="#5BB77A"/><path d="M18.16 19.95a13.87 13.87 0 0 1 12.6-5.42c-9.26.39-12.6 7.84-13.32 9.48-.71 1.65-3.3 15.24 8.45 15.24 9.4 0 12-7.48 12.13-11.22.14-3-1.24-9-7.88-9-8.3 0-10.36 7.5-10.36 9s.48 7.74 6.5 7.74c4.8 0 8.43-5.16 9.64-7.74-2.38 7.1-6.21 9-9.36 9-3.15 0-8.4-1.55-8.4-8.13 0-6.58 6.2-12 11.98-12S40.5 21.7 40.5 27.3c0 5.61-4.25 14.23-12.75 14.23S14.96 35.77 14.96 30.1c0-4.53 2.13-8.66 3.2-10.16Z" fill="#fff"/><path d="M26.2 28.46c.86 1.04 1.35 2.93 1.48 3.75.69-2.75-.97-4.56-.97-5.58 0-1.02.43-1.68 1.27-1.68.67 0 1.12.31 1.26.47-.04-1.2-1.06-1.6-1.56-1.66-2.83 0-2.57 3.4-1.49 4.7ZM32.1 24.18a2.35 2.35 0 0 0-2.3 1.71c2.16-1.17 3.63.1 2.9 2.85-.58 2.2-3.61 4.62-5.06 5.56 2.96-.53 6.59-4.43 6.59-7.24 0-2.25-1.43-2.86-2.14-2.88Z" fill="#F08372"/></svg>