<!-- by TradingView --><svg width="56" height="56" viewBox="0 0 56 56" xmlns="http://www.w3.org/2000/svg"><path fill="#F0F3FA" d="M0 0h56v56H0z"/><path d="m15.46 22 .19.04c.4.12.67.45.7.87 0 .26-.04.5-.1.76-.27 1.19-.65 2.35-1.07 3.5a45.43 45.43 0 0 1-1.78 4.2c-.42.88-.9 1.73-1.41 2.56-.03.05-.06.07-.12.07-.31 0-.62-.02-.9-.13a1.91 1.91 0 0 1-.96-.82 31.76 31.76 0 0 1-4-10.97L6 22.05V22h1.57l.03.01a1.4 1.4 0 0 1 1.23 1.01c.07.21.1.43.14.65.21 1.14.5 2.27.87 3.38.4 1.22.9 2.4 1.45 3.56 0 .02.01.03.03.05l.02-.04a33.35 33.35 0 0 0 2.55-8.06L14 22h1.47ZM50 29.15l-.02.26c-.06.7-.21 1.4-.5 2.04a4.2 4.2 0 0 1-3.3 2.5c-.44.06-.88.07-1.32.02a4.01 4.01 0 0 1-2.41-1.12c-.7-.66-1.1-1.5-1.32-2.44a6.12 6.12 0 0 1 .46-4 4.1 4.1 0 0 1 3.02-2.31 4.7 4.7 0 0 1 2.33.1 4.07 4.07 0 0 1 2.4 2c.35.62.55 1.3.62 2.02l.04.35v.58Zm-6.6-.19c0 .18.01.35.03.53.04.4.11.79.27 1.15.2.5.54.88 1.04 1.08.34.13.7.17 1.06.14.53-.05.97-.28 1.3-.74a3 3 0 0 0 .48-1.5 5.83 5.83 0 0 0-.27-2.22 1.92 1.92 0 0 0-.9-1.04 2.2 2.2 0 0 0-1.22-.21c-.43.03-.8.2-1.1.52-.25.26-.4.57-.52.92-.14.44-.18.9-.17 1.37ZM18.93 30.03c.02.21.08.4.17.6.27.56.71.93 1.28 1.15a3 3 0 0 0 1.03.2c.65.03 1.3-.04 1.92-.25.4-.13.77-.33 1.09-.61.02-.03.06-.03.1-.04v.03c0 .32.02.64 0 .96a1.72 1.72 0 0 1-.87 1.4 3.3 3.3 0 0 1-1.12.4c-.54.11-1.09.15-1.64.12a4.62 4.62 0 0 1-4.34-3.95 6.25 6.25 0 0 1 .23-2.87c.24-.72.6-1.36 1.13-1.9a4.6 4.6 0 0 1 3.6-1.25c.87.1 1.64.42 2.27 1.03.6.57.95 1.27 1.06 2.1.06.4.07.8-.03 1.2-.12.52-.44.89-.9 1.14-.35.19-.73.3-1.12.37-.51.1-1.03.15-1.54.15l-2.24.02h-.09Zm-.02-1.7.03.01c.84 0 1.68.03 2.52-.06.26-.03.52-.07.77-.18.2-.09.37-.22.42-.46.02-.1.03-.19.02-.28-.01-.5-.22-.9-.67-1.13-.48-.25-1-.3-1.53-.19-.59.13-1 .49-1.29 1.02-.21.4-.27.83-.27 1.28ZM39.6 26.94c-.05.02-.1 0-.13-.04-.28-.25-.6-.42-.95-.54a4.84 4.84 0 0 0-2.71-.19c-.21.05-.41.13-.57.28-.27.23-.34.53-.27.87.02.13.1.22.22.3.18.12.4.18.6.23l1.22.24c.56.1 1.1.26 1.6.55.41.24.75.55.97.99.16.3.23.63.25.97.02.52-.04 1.02-.24 1.5-.26.62-.7 1.08-1.28 1.39a4.3 4.3 0 0 1-1.42.44c-.41.06-.83.08-1.24.06a3.9 3.9 0 0 1-1.81-.5c-.34-.2-.63-.46-.82-.82a1.18 1.18 0 0 1-.14-.55v-1.09c.04 0 .09 0 .11.03.3.26.65.42 1.02.56.55.2 1.1.3 1.68.32.37 0 .73-.01 1.08-.12.23-.07.44-.18.58-.38.17-.25.2-.53.12-.81a.58.58 0 0 0-.26-.33c-.2-.13-.42-.21-.66-.26-.36-.08-.73-.14-1.1-.2a5.5 5.5 0 0 1-1.56-.45 2.23 2.23 0 0 1-1.05-.98c-.16-.3-.23-.62-.24-.95-.03-.87.26-1.61.85-2.23.57-.6 1.28-.95 2.08-1.12a5.26 5.26 0 0 1 1.56-.09c.54.05 1.06.17 1.53.45a2 2 0 0 1 .89 1.03c.06.17.1.34.1.52v.92ZM28.37 34h-.04c-.31 0-.63 0-.94-.02a1.54 1.54 0 0 1-.93-.39 1.4 1.4 0 0 1-.45-.93V27.8c0-.66.11-1.3.39-1.9a3 3 0 0 1 2.1-1.77c.5-.13 1.02-.16 1.53-.07.34.06.65.19.92.42.3.28.46.63.48 1.05.02.32 0 .65 0 .99l-.13-.03c-.3-.13-.6-.22-.93-.25a2.48 2.48 0 0 0-.93.05c-.5.13-.8.49-.95.99-.09.3-.12.62-.12.94V34Z" fill="#1B485E"/></svg>