<!-- by TradingView --><svg width="56" height="56" viewBox="0 0 56 56" xmlns="http://www.w3.org/2000/svg"><path fill="#F0F3FA" d="M0 0h56v56H0z"/><path d="m27.97 45 .03-.01.03.01 7.46-4.22L43 36.53v-17l-3.38 1.91-1.97 1.22-4.31 2.47v3.89l6.28-3.58v6.19l-.05 2.92L28 41.1l-11.57-6.55-.05-2.92V21.44l.03-.01.02.01L28 14.9l8.16 4.62 3.46-1.96L28.02 11l-.02.01-.03-.01L13 19.47v17.06l7.51 4.25L27.97 45Z" fill="url(#a)"/><path d="m19 23.14 3.7 2.15v5.62l5.3 3.06 5.3-3.06v-1l3.7-2.14v5.35l-9 5.2-9-5.2v-9.98Z" fill="url(#b)"/><defs><linearGradient id="a" x1="36.53" y1="13.38" x2="26.16" y2="45.24" gradientUnits="userSpaceOnUse"><stop stop-color="#7266B5"/><stop offset=".11" stop-color="#8779D5"/><stop offset=".26" stop-color="#4B91E1"/><stop offset=".77" stop-color="#41D8F1"/><stop offset="1" stop-color="#81ECD3"/></linearGradient><linearGradient id="b" x1="33.12" y1="24.2" x2="29.52" y2="39.06" gradientUnits="userSpaceOnUse"><stop offset=".11" stop-color="#8779D5"/><stop offset=".26" stop-color="#4B91E1"/><stop offset=".77" stop-color="#41D8F1"/><stop offset="1" stop-color="#81ECD3"/></linearGradient></defs></svg>