<!-- by TradingView --><svg width="56" height="56" viewBox="0 0 56 56" xmlns="http://www.w3.org/2000/svg"><path fill="#2C5CD5" d="M0 0h56v56H0z"/><path fill-rule="evenodd" d="M7.9 22h9.6l-3.85 10H4l3.9-10Zm.1 3h1.75l1.54 4.36 1.6-4.36h1.56l-2.47 6H10.5L8 25Zm14.83.73-.64.77c-.2-.2-.75-.57-1.45-.57-.88 0-1.34.28-1.34.65s.38.78 1.52.92c1.15.14 2.08.75 2.08 1.63 0 .88-.65 1.87-2.5 1.87-1.47 0-2.28-.58-2.5-.87l.72-.74c.27.23 1 .68 1.79.68.99 0 1.31-.31 1.31-.76 0-.44-.3-.6-1.57-.92-1.25-.32-1.99-.83-1.99-1.67S18.98 25 20.6 25c1.28 0 2.03.49 2.24.73ZM24 31v-8h1v3.38c.3-.53.9-1.07 1.9-1.07a2 2 0 0 1 2.1 2.18V31h-1v-3.51a1.3 1.3 0 0 0-1.34-1.24c-1.24 0-1.47 1.33-1.56 2.34l-.1-.42V31h-1Zm6.25-5.27.54.76c.23-.19.9-.49 1.75-.49.92 0 1.35.43 1.44 1.07-.26-.03-.84-.07-1.52-.07-.91 0-2.46.37-2.46 2.35 0 1.95 2.65 2.12 4 .78V31h1v-4.17c0-.61-.48-1.83-2.35-1.83-1.36 0-2.17.49-2.4.73Zm3.75 3.2v-.96c-2.9-.36-2.9.75-2.9 1V29c0 .27 0 1.08 1.17 1.08.9 0 1.5-.72 1.73-1.15Zm5.65-3.84c-1.5-.35-2.32.43-2.65 1.07V25h-1v6h1v-2.81c.3-2.08 1.68-2.23 2.33-2.05l.32-1.05Zm1.05 3.41h4.79c.1-1.1-.37-3.5-3-3.5-2.62 0-3.08 2.2-2.98 3.3.07.9.82 2.7 3.3 2.7.55 0 1.83-.21 2.54-1l-.66-.67c-.22.24-.9.67-1.89.67-1.24 0-2.1-.5-2.1-1.5Zm.04-1h3.51c-.04-.5-.46-1.5-1.78-1.5-1.26 0-1.68 1-1.73 1.5Zm10.1-1.77-.64.75a2.8 2.8 0 0 0-1.59-.57c-.88 0-1.24.36-1.24.7 0 .32.21.53 1.3.82l.18.05c1.04.27 2.15.56 2.15 1.79 0 1.3-1.45 1.73-2.66 1.73a3.63 3.63 0 0 1-2.34-.87l.68-.74c.18.23.8.68 1.74.68 1.2 0 1.4-.48 1.4-.8 0-.32-.22-.53-1.4-.86l-.26-.08c-1.06-.29-1.92-.53-1.92-1.73 0-1.3 1.42-1.6 2.42-1.6s1.58.32 2.18.73Z" fill="#fff"/></svg>