<!-- by TradingView --><svg width="56" height="56" viewBox="0 0 56 56" xmlns="http://www.w3.org/2000/svg"><path fill="#F0F3FA" d="M0 0h56v56H0z"/><path d="M17.32 25.2C14.66 22.85 14 14.75 14 11c13.82 3.98 13 11.65 13 13.17 0 1.51-.6 4.24-.6 4.83-.12-.06-.62-.26-1-.32-3.33-.33-4.77-.57-8.08-3.49Z" fill="#EE7623"/><path d="M14.12 11.04 14 11c0 3.76.66 11.86 3.32 14.2 3.31 2.9 4.75 3.15 8.08 3.48.38.06.88.26 1 .32 0-.11.01-.3.05-.55-1.77-4.93-8.6-13.28-12.33-17.41Z" fill="#F8995C"/><path d="M29.15 22.95C30.18 21.02 34.81 19.5 37 19c-.61 8.97-5.18 9.5-6.06 9.7-.88.21-2.54.22-2.88.3.02-.08.07-.4.06-.65-.22-2.07-.26-2.98 1.03-5.4Z" fill="#5EB3E4"/><path d="M37 19.08V19c-2.19.51-6.82 2.02-7.85 3.95-1.29 2.42-1.25 3.33-1.03 5.4 0 .24-.04.57-.06.65.06-.02.18-.03.33-.04 2.64-1.75 6.66-7.05 8.6-9.88Z" fill="#8DC6EB"/><path d="M26.6 36.09c-.56 2.1-5.03 4.82-7.2 5.91-1.78-8.62 2.88-10.4 3.76-10.84.87-.44 2.61-.9 2.96-1.08 0 .08.03.4.1.63.8 1.9 1.08 2.74.38 5.38Z" fill="#F5A800"/><path d="m19.39 41.92.01.08c2.17-1.1 6.64-3.8 7.2-5.91.7-2.64.42-3.49-.37-5.38a2.47 2.47 0 0 1-.11-.63c-.07.04-.19.08-.34.13-2.31 2.39-5.1 8.5-6.4 11.71Z" fill="#FDBD50"/><path d="M37.24 30.94C40.42 32.39 43.07 39.59 44 43c-14.58-.15-15.65-7.32-16.03-8.7-.37-1.38-.46-4-.6-4.54.13.03.66.08 1.06.04 3.35-.54 4.83-.68 8.8 1.14Z" fill="#00205C"/><path d="M43.87 43H44c-.93-3.41-3.58-10.6-6.76-12.06-3.98-1.82-5.46-1.68-8.81-1.14-.4.04-.93-.01-1.06-.04.03.1.05.28.08.52C30.4 34.3 39.19 40.18 43.87 43Z" fill="#686F9A"/></svg>