<!-- by TradingView --><svg width="56" height="56" viewBox="0 0 56 56" xmlns="http://www.w3.org/2000/svg"><path fill="#F0F3FA" d="M0 0h56v56H0z"/><path d="M29.4 18c-.6.49-1.17 1.02-1.72 1.56-.92.9-1.83 1.83-2.73 2.77-.75.8-1.46 1.65-2.13 2.58-1.5 2.09-2.42 3.39-2.78 3.91a13.26 13.26 0 0 1-2.35 2.69c-.43.36-.95.6-1.56.74.34-.63.73-1.29 1.02-1.88.21-.44.46-.74.68-1.18a40 40 0 0 1 .64-1.08c.48-.8 1.2-2.19 1.66-2.98.63-1.08.97-1.67 1-1.75.14-.3.42-.8.86-1.5.4-.67.82-1.6 1.3-2.35.3-.45.56-.97.95-1.35.1-.1.25-.18.39-.18h4.77Z" fill="#008A1C"/><path d="M35.45 24.4c-.15.35-.31.67-.5.94-.1.13-.17.27-.22.43a8.92 8.92 0 0 1-.84 1.86c-.4.67-.77 1.39-1.2 1.96a79.11 79.11 0 0 0-2.63 3.66l-.57.63a34.43 34.43 0 0 1-3.25 4.05c-.35.37-.82.66-1.24 1.06a27.17 27.17 0 0 1-.64.59.1.1 0 0 0 0 .07c0 .01 0 .02.02.03.28.26.82.33 1.17.32-2.55 0-5.05-.03-7.55 0 1.2-1.26 2.34-2.46 3.35-3.9.47-.67.88-1.34.86-2.2a.04.04 0 0 0-.02-.03h-.03c-1.44.78-2.22 1.3-3.97 2.44-.21.15-.46.28-.74.41-.23.1-.47.26-.73.45-.07.05-.29.17-.67.36l-.65.36a5.9 5.9 0 0 1-1.04.54 17.1 17.1 0 0 0-1.01.4l-.48.69-.04.03h-.04c-.22-.1-.44-.27-.67-.5l.63-.92c.27-.38.47-.7.6-.95.36-.7.72-1.25 1.16-2.04.53-.97 1.07-1.93 1.62-2.9a3.6 3.6 0 0 0 1.56-.73c.85-.71 1.61-1.62 2.35-2.69l2.78-3.9c.67-.94 1.38-1.8 2.13-2.59.9-.94 1.81-1.86 2.73-2.77.55-.54 1.12-1.07 1.72-1.56h1.43c.17 0 .64.03.87.1.19.07.34.21.47.44.31.58.6 1.15 1 1.82.35.58.56.97.66 1.17.2.44.43.89.7 1.33.32.5.62 1.02.92 1.54Z" fill="#009E27"/><path d="m35.45 24.4 1.15 2.07c-.6.8-.64 1.82-1.12 2.66-.38.68-.5 1.48-1.03 2.08-.27.3-.47.59-.6.84-.13.29-.22.8-.37 1.12-.3.65-.6 1.16-.88 1.5-.09.12-.26.26-.52.44-.44.3-.61.48-1.09.9-.49.43-.98.75-1.54 1.13a.06.06 0 0 0-.02.07l.02.04h.04c.7-.07 1.34-.46 1.91-.79a124 124 0 0 0 3.21-1.96c-.9.8-1.94 1.35-2.93 1.92-.34.2-.66.3-.96.52-.1.07-.27.15-.54.25a3.3 3.3 0 0 0-.91.5c-.33.11-.68.2-1.06.23-.04-.32.04-.6.23-.87.11-.15.22-.33.33-.52.15-.25.25-.43.33-.54.42-.63.77-1.14 1.03-1.5.25-.34.48-.57.68-.94.08-.14.35-.54.82-1.2.06-.09.1-.2.2-.3.08-.09.21-.3.4-.63.12-.23.25-.44.38-.64l.36-.58c.06-.14.18-.34.35-.59a2.35 2.35 0 0 0 .46-1.17l-.03-.02h-.03s-.02 0-.02.02c-.93 1.23-1.72 2.22-2.64 3.55-.3.45-.64.87-1 1.26.71-1.07 1.6-2.3 2.63-3.66.43-.57.8-1.3 1.2-1.96.4-.67.6-1.19.84-1.86.05-.16.13-.3.21-.43.2-.27.36-.59.5-.94Z" fill="#007D1F"/><path d="m36.6 26.47 2.52 4.41-.3.58.1.05-.24.01a.1.1 0 0 0-.08.05c-.21.33-.48.6-.81.81a24.88 24.88 0 0 0-1.66 1.16l-.22.1h-.01l-1.29.86a124 124 0 0 1-3.2 1.96c-.58.33-1.22.72-1.92.8l-.04-.01a.06.06 0 0 1-.02-.03.06.06 0 0 1 .02-.08c.56-.38 1.05-.7 1.54-1.13.48-.42.65-.6 1.1-.9.25-.18.42-.32.51-.44.28-.34.57-.85.88-1.5.15-.33.24-.83.38-1.12.12-.25.32-.53.59-.84.52-.6.65-1.4 1.03-2.08.48-.84.52-1.85 1.12-2.66Z" fill="#005516"/><path d="M28.2 37.92c-.65.6-1.7 2.08-2.67 2.08-.53 0-.87-.06-1.15-.32a.09.09 0 0 1 0-.13l.62-.56c.42-.4.9-.7 1.24-1.06.7-.74 1.09-1.15 1.16-1.25a11.18 11.18 0 0 1 1.44-1.89 7.6 7.6 0 0 0 .65-.9l.57-.64c.36-.4.7-.81 1-1.26.92-1.33 1.71-2.32 2.64-3.55a.05.05 0 0 1 .05-.02l.03.02v.03c-.03.42-.2.74-.46 1.14-.17.25-.29.45-.35.59l-.36.58-.39.64c-.18.33-.31.54-.4.63-.09.1-.13.21-.2.3a20.1 20.1 0 0 0-.8 1.2c-.2.37-.44.6-.69.94a45.78 45.78 0 0 0-1.36 2.04c-.1.2-.22.37-.33.52a1.2 1.2 0 0 0-.23.87Z" fill="#010E07"/><path d="M39.28 31.22a.77.77 0 0 1-.46.24l.3-.58.16.34Z" fill="#01711D"/><path d="m39.28 31.22.17.38a.61.61 0 0 1-.53-.09l-.1-.05c.18-.03.33-.1.46-.24Z" fill="#008A1C"/><path d="M38.92 31.51c.18.12.36.14.53.09l2.58 4.47c-.47.48-.93.97-1.39 1.47-.57.64-1.18 1.35-.95 2.28l.02.18h-3.1s.1-.54.1-.91c.01-.51.64-1.14.84-1.5.27-.47.42-.7.74-1.12.46-.59.74-.99.84-1.2.2-.39.37-.8.53-1.22a.22.22 0 0 0-.04-.2.2.2 0 0 0-.19-.08c-.43.07-.81.22-1.26.47-.42.23-.85.4-1.3.49-.16.03-.42.14-.54.2-1.7.92-2.59 1.39-2.67 1.42-.11.04-.22.11-.32.2-.3.26-.5.43-.61.5-.23.15-.42.4-.66.53-.4.23-.85.65-1.2.84-.38.2-.73.4-1.03.6a.45.45 0 0 0-.16.18 1.34 1.34 0 0 1-.44.52.03.03 0 0 0 0 .03h.02c.74.2 1.24.25 2.08.25H28.5c.26-.2 3.07-2.3 3.36-2.48.75-.46 1.42-.97 2-1.54.06-.07.1-.13.12-.2a.07.07 0 0 0-.01-.08l-.04-.02h-.04c-.35.13-.82.48-1.21.59l-1 .28c-.27.08-.67.27-1.18.58-.21.12-.62.3-1.23.55.27-.2.57-.37.91-.5.27-.09.45-.17.54-.24.3-.22.62-.32.96-.52 1-.57 2.03-1.13 2.93-1.92l1.29-.86.23-.1a2.7 2.7 0 0 0 2.51-2 .1.1 0 0 1 .04-.02h.24Z" fill="#009E27"/><path d="M12.42 40c-.42 0-.34 0-.4-.17a.27.27 0 0 1 0-.18c.06-.18.1-.38.1-.6.23.23.45.4.67.5a.07.07 0 0 0 .08-.03l.48-.68a17.1 17.1 0 0 1 1-.4c.27-.1.61-.28 1.05-.55.24-.14.46-.27.65-.36.38-.2.6-.31.67-.36.26-.2.5-.34.73-.45.28-.13.53-.26.74-.4a48.87 48.87 0 0 1 4-2.45l.01.01v.02c.03.86-.38 1.53-.85 2.2-1 1.41-2.1 2.84-3.35 3.9h-5.58ZM36.66 40H29c.04-.07.77-.93.84-.98.3-.2.65-.4 1.03-.6.35-.19.8-.61 1.2-.84.24-.14.43-.38.66-.53.11-.07.32-.24.61-.5.1-.09.2-.16.32-.2.08-.03.97-.5 2.67-1.42.12-.06.38-.17.54-.2.45-.1.88-.26 1.3-.49.45-.25.83-.4 1.26-.47a.2.2 0 0 1 .2.08.21.21 0 0 1 .03.2c-.16.43-.33.84-.53 1.23-.1.2-.38.6-.84 1.2-.32.41-.47.64-.74 1.1-.2.37-.83 1-.83 1.51 0 .37-.02.8-.06.91Z" fill="#01711D"/><path d="M25.48 40c.84-.05 2.23-1.62 2.73-2.08.38-.04.73-.12 1.06-.24.6-.24 1.02-.43 1.23-.55.51-.3.91-.5 1.19-.58l.99-.28c.4-.11.86-.46 1.21-.59a.07.07 0 0 1 .08.02.07.07 0 0 1 .01.07.51.51 0 0 1-.13.2c-.57.58-1.24 1.1-2 1.55-.28.18-3.09 2.27-3.35 2.48h-3.02Z" fill="#00C149"/><path d="m42.03 36.07 1.01 1.75c.13.22.22.37.3.46.31.4.55.92.64 1.39a.6.6 0 0 1 0 .3c-.04.03.02.03-.23.03h-4.08c-.72-.01.2-2.36.33-2.5.45-.5 1.56-.95 2.03-1.43Z" fill="#007D1F"/><path d="M30.35 21.8c-.03.1-.13.26-.28.47l-1.13 1.53c-.22.3-.48.58-.78.85-1.15 1-3.03 2.88-4.8 4.02-.53.35-.86.58-.99.68a23.02 23.02 0 0 1-3.97 2.5.8.8 0 0 1-.33.09.08.08 0 0 1-.07-.03.08.08 0 0 1-.01-.08 3 3 0 0 1 .8-1.03l2.37-2.2c.87-.83 1.47-1.64 2.26-2.67a44.47 44.47 0 0 1 5.1-5c.31-.26 1.79-1.3 2.12-.85.23.32-.13 1.3-.29 1.72Z" fill="#00C832"/><path d="M33.95 22.27c-.19.8-.48 1.4-.88 1.8-.26.27-.64.63-1.14 1.08-.26.25-.47.54-.69.74a6.7 6.7 0 0 0-.52.54c-.3.34-.62.69-.99 1.04-.3.27-.8.52-1.12.88a27.46 27.46 0 0 0-.6.68c0 .02 0 .05.02.06a.1.1 0 0 0 .12.03c.43-.2.94-.56 1.47-.8.7-.31 1.26-.61 1.67-.9.85-.58 1.59-1.55 2.28-2.27a19.66 19.66 0 0 0 1.04-1.2.1.1 0 0 0 0-.05l-.13-.7.19.73v-.13h.02c0-.01 0-.01 0 0h.02c.04.05.04.13 0 .22-.16.47-.36.82-.61 1.06-.18.18-.5.34-.67.48-.14.12-.49.47-1.04 1.05-.23.25-.49.6-.77 1.05-.6.95-1.34 1.86-2.03 2.86-.33.49-.63.88-.89 1.18-1.58 1.83-2.48 2.8-4.08 4.56-.62.68-1.27 1.38-1.97 2.09-.47.48-.72.8-1.26.94a.2.2 0 0 1-.2-.07.23.23 0 0 1-.06-.22c.17-.53.7-1.03 1.1-1.43.12-.12.31-.39.58-.8.6-.95 1.45-1.7 2.04-2.63.36-.56.7-1.12 1.13-1.66.34-.42.73-.85.75-1.07a.12.12 0 0 0-.03-.1.12.12 0 0 0-.1-.04c-.66.1-1.27.52-1.99.95-1.09.66-2.2 1.26-3.3 1.82-.35.18-.88.43-1.27.4a.15.15 0 0 1-.1-.05.13.13 0 0 1-.03-.1c.04-.52 1.22-1.29 1.9-1.81a8.3 8.3 0 0 0 1.2-1.19c.54-.64 1.1-1.34 1.65-2.1.11-.16.42-.51.94-1.07.73-.8 1.8-1.7 2.58-2.55l1.13-1.23c.36-.39.82-.78 1.39-1.2a7.1 7.1 0 0 0 1.43-1.36c.36-.47.6-.86 1.12-.93h.05l.02.04.63 1.38Z" fill="#00C149"/><path d="m33.95 22.27.53.94.13.69a.1.1 0 0 1-.02.08c-.35.43-.69.82-1.02 1.17-.7.72-1.43 1.69-2.28 2.27-.4.29-.97.59-1.67.9-.53.24-1.04.6-1.47.8a.1.1 0 0 1-.12-.03.1.1 0 0 1 0-.12c.06-.08.26-.28.58-.62.33-.36.83-.6 1.12-.88.37-.35.7-.7 1-1.04.2-.23.37-.41.51-.54.22-.2.43-.5.7-.74.49-.45.87-.81 1.13-1.08.4-.4.69-1 .88-1.8Z" fill="#3AE083"/><path d="M13.4 39.32c0-.16.04-.32.14-.46a.15.15 0 0 1 .07-.06c.82-.32 1.27-.5 1.9-.88.54-.33 1.06-.55 1.63-.93a260.92 260.92 0 0 1 1.26-.47c.15-.05.26-.05.34 0 .02 0 .03.02.04.04a.13.13 0 0 1-.02.17c-.43.38-.88.73-1.36 1.05a5.8 5.8 0 0 1-.92.49c-.77.33-1.14.55-1.64.9-.4.28-.9.27-1.4.2a.06.06 0 0 1-.05-.06Z" fill="#001E07"/><path d="m25.04 16.54 2.66-4.39a.31.31 0 0 1 .12-.1.32.32 0 0 1 .42.1l2.71 4.39a.3.3 0 0 1-.1.42.32.32 0 0 1-.16.04h-5.37a.32.32 0 0 1-.16-.04.31.31 0 0 1-.12-.11.3.3 0 0 1 0-.3Z" fill="#02BF49"/></svg>