<!-- by TradingView --><svg width="56" height="56" viewBox="0 0 56 56" xmlns="http://www.w3.org/2000/svg"><path fill="#F0F3FA" d="M0 0h56v56H0z"/><path d="M22 13c-.98 0-1.74.29-2 .43.93 1.6 1.02 4.02 1 5.05v19.3A6.16 6.16 0 0 0 27 44V18.25c0-4.1-3.8-5.25-5-5.25ZM34 13c.98 0 1.74.29 2 .43-.92 1.6-1.02 4.05-1 5.08v19.3A6.13 6.13 0 0 1 29 44V18.25c0-4.1 3.8-5.25 5-5.25ZM41.89 16C40.6 16 37 17.1 37 21.06v17.36c-.05.8-.4 1.38-.58 1.58H37c3.45 0 6-2.64 6-5.93V21.3c-.02-.98.02-3.34 1-4.88a5.2 5.2 0 0 0-2.11-.42ZM14.11 16C15.4 16 19 17.1 19 21.06v17.36c.05.8.4 1.38.58 1.58H19c-3.45 0-6-2.64-6-5.93V21.3c.02-.98-.02-3.34-1-4.88a5.2 5.2 0 0 1 2.11-.42Z"/></svg>