<!-- by TradingView --><svg width="56" height="56" viewBox="0 0 56 56" xmlns="http://www.w3.org/2000/svg"><path fill="#F0F3FA" d="M0 0h56v56H0z"/><path d="M33 24.05c0 .28 0 .6.02.95 1.54-.36 1.98-.62 1.98-1.95 0-.72-.15-1.05-.5-1.05-1.26 0-1.5.48-1.5 2.05ZM50.41 26l.38 1.03C48.93 29.5 46.33 34 46.33 34H48c1.02 0 1.45-.58 1.87-2H51l-.65 3H44.4l-.4-1.05c1.6-2.2 4.49-6.92 4.49-6.92h-1.3c-1.08 0-1.54.43-1.86 1.67h-1.08l.55-2.7h5.61ZM40 25.63h2.72L42.3 27H40v4.35c0 1.53 0 1.97 1.45 1.97.42 0 .84-.04 1.24-.12l-.56 1.64c-.5.1-.95.16-1.39.16C38.2 35 38 33.64 38 31.03V27h-1.28l.4-1.18c1.05-.26 1.43-.98 1.62-2.42L40 23v2.63ZM35 32.25c0 1.29.14 1.71 1.46 1.73L36.09 35h-4.63l.36-1.02C32.85 33.87 33 33.35 33 32v-2.87c0-1.15-.15-1.44-1.48-1.51l.36-1.02c1.01-.12 2.05-.31 3.12-.6v6.25ZM16.55 25.86l1.72 5.82 1.59-5.58c.28-1.02.45-2.03.45-2.5 0-1.1-.64-1.46-2.04-1.46h-.68l.39-1.14H23c-.76 2-1.43 4.27-2.02 6.24l-1.16 3.95c-.19.62-.5 1.8-.9 3.56l-1.6.25c-.38-1.46-.79-2.85-1.2-4.19l-1.77-5.98c-.76 2.24-1.25 3.97-1.6 5.2l-1.34 4.72-1.55.25c-.57-2.24-.92-3.51-1.02-3.83l-.86-2.83c-1.25-4.13-1.7-6.2-2.94-6.2H5L5.39 21h5.9l-.4 1.14h-.11c-1.41 0-2 .34-2 1.38 0 .57.18 1.54.46 2.51l1.64 5.65 1.65-5.69c.45-1.52.84-3.07 1.2-4.6l1.51-.39c.5 2.22 1 3.8 1.31 4.86ZM26.52 26c2.1 0 3.53 1.3 3.53 3.76V30H27.5c-.29 0-1.08.02-2.45.08v-1.03l.78-.02c1.55-.06 2.17 0 2.17-.53 0-.6-.74-1.35-1.9-1.35-1.7 0-2.1 2.6-2.1 3.3 0 1.78 1.13 2.84 3.06 2.84.92 0 1.81-.15 2.78-.4l-.54 1.6c-.82.34-1.75.51-2.75.51-2.82 0-4.55-1.62-4.55-4.36 0-2.63 1.87-4.64 4.52-4.64Z" fill="#002F67"/></svg>