<!-- by TradingView --><svg width="56" height="56" viewBox="0 0 56 56" xmlns="http://www.w3.org/2000/svg"><path fill="#F0F3FA" d="M0 0h56v56H0z"/><path d="M15 28h5.74v.77c-.58.01-.99.07-1.22.18a.54.54 0 0 0-.34.53 4.33 4.33 0 0 0 .31 1.3l3.26 10.63 3.34-9.98-.38-1.1c-.22-.69-.46-1.12-.71-1.3-.26-.17-.65-.26-1.2-.26V28h5.74v.77c-.58.01-.99.07-1.22.18a.54.54 0 0 0-.34.53 4.33 4.33 0 0 0 .3 1.3l3.3 10.63 3.53-10.65a5.17 5.17 0 0 0 .18-1.1c0-.31-.12-.54-.34-.67-.22-.15-.6-.22-1.11-.22h-.14V28H38l.01.77c-.57.06-.95.16-1.15.3-.2.13-.35.35-.47.66C34.6 34.84 32.87 39.93 31 45h-.33l-4.13-12.27C25.1 36.84 23.7 40.91 22.2 45h-.35L16.9 30.34c-.22-.7-.46-1.13-.71-1.3-.25-.18-.65-.27-1.2-.27V28ZM15 13h14L15 26V13Z" fill="#4F626F"/><path d="M29 13h13L29 26V13Z" fill="#8EC600"/></svg>