<!-- by TradingView --><svg width="56" height="56" viewBox="0 0 56 56" xmlns="http://www.w3.org/2000/svg"><path fill="#F0F3FA" d="M0 0h56v56H0z"/><path d="M6 33.5V35h3v-4l-3 2.5ZM9.5 30.5V35h3v-3l-.5.5-2-2.5-.5.5ZM13 31.5V35h3.5v-7L13 31.5ZM17.5 22.5h-12v7L5 30v-8h12.5v.5Z" fill="#7E8891"/><path d="M17.5 28.5V36H5v-3h.5v2.5H17V28l.5.5Z" fill="#8EC543"/><path d="m10 27-4 3.5c-.5.5-1 1-.5 1.5.45.45 1 0 1.5-.5l3-2.5 2 2 4.5-4.5L18 28l1-5.5-5 1.5 1.5 1.5L12 29l-2-2Z" fill="#8EC543"/><path d="M21 28v-4h1.78c1.18 0 2.22.75 2.22 2s-1.04 2-2.22 2H21Zm1-1h.74c.82 0 1.26-.5 1.26-1s-.44-1-1.26-1H22v2ZM26.5 28v-1.58l.3.45L25 24h1l1.5 2.31h-1L28 24h1l-1.8 2.87.3-.45V28h-1ZM30 28v-4h1l2.51 3H33v-3h1v4h-1l-2.51-3H31v3h-1ZM35 28l1.5-4h1l1.5 4h-.98l-1.27-3.42h.58L35.95 28H35Zm.74-1 .2-.5h2l.16.5h-2.36ZM40 28v-4h1l1.7 2.5h-.37L44 24h1v4h-1v-3h.5l-1.81 2.5h-.38L40.5 25h.5v3h-1ZM46 28v-4h1v4h-1ZM50.3 28c-1.17 0-2.3-.75-2.3-2 0-1.22 1.14-2 2.3-2 .7 0 1.3.22 1.7.65l-.52.44c-.3-.3-.7-.46-1.14-.46-.8 0-1.34.54-1.34 1.37 0 .85.54 1.37 1.34 1.37.45 0 .83-.15 1.14-.46l.52.44c-.4.42-1 .65-1.7.65ZM24.48 34c-.5 0-1.09-.12-1.48-.47l.24-.56c.3.25.78.43 1.24.43.33 0 .52-.08.52-.5s-.26-.51-.57-.58c-.63-.15-1.43-.41-1.43-1.2 0-.82.88-1.12 1.6-1.12.44 0 .92.12 1.24.34l-.22.57a2 2 0 0 0-1.03-.31c-.34 0-.59.1-.59.53 0 .42.34.5.65.58.63.14 1.35.4 1.35 1.18 0 .83-.8 1.11-1.52 1.11ZM47.48 34c-.5 0-1.09-.12-1.48-.47l.24-.56c.3.25.78.43 1.24.43.33 0 .52-.08.52-.5s-.26-.51-.57-.58c-.63-.15-1.43-.41-1.43-1.2 0-.82.88-1.12 1.6-1.12.44 0 .92.12 1.24.34l-.22.57a2 2 0 0 0-1.03-.31c-.34 0-.59.1-.59.53 0 .42.34.5.65.58.63.14 1.35.4 1.35 1.18 0 .83-.8 1.11-1.52 1.11ZM30 30h1v4h-1v-4Zm-2 4h-1v-4h1v4Zm2.42-1.62h-2.85v-.73h2.85v.73ZM32 34l1.5-4h1l1.5 4h-1l-1.34-3.5h.67L33 34h-1Zm.74-1 .26-.5h2l.1.5h-2.36ZM37 34v-4h2.03c.86 0 1.47.42 1.47 1.5 0 .78-.5 1.2-2 1.2h-1.14l.64-.42V34h-1Zm3 0-1.5-1.72h1L41 34h-1Zm-2-1.72-.64-.28h1.05c.59 0 1.09 0 1.09-.5s0-.8-1-.8h-1.14l.64-.44v2.02ZM42.69 31.75H45v.5h-2.31v-.5ZM43 33.5h2v.5h-3v-4h3v.5h-2v3Z" fill="#7E8891"/></svg>