<!-- by TradingView --><svg width="56" height="56" viewBox="0 0 56 56" xmlns="http://www.w3.org/2000/svg"><path fill="#EFE7DA" d="M0 0h56v56H0z"/><path d="M17 31.33v-7.2c0-.04.01-.07.04-.1a.14.14 0 0 1 .1-.03h1.37c.03 0 .07.01.09.04.03.02.04.05.04.08v5.74c0 .04.01.07.04.1.02.02.06.03.1.03h1.82c.03 0 .07.01.1.03.02.03.03.06.03.1v1.2c0 .04-.01.07-.04.1a.14.14 0 0 1-.09.03h-3.47a.14.14 0 0 1-.1-.03.12.12 0 0 1-.03-.1ZM48.65 28.77l.05 1.2c0 .03 0 .06.03.07a.1.1 0 0 0 .07.03h3.1a.1.1 0 0 1 .07.03.1.1 0 0 1 .03.07v1.23a.1.1 0 0 1-.03.07.1.1 0 0 1-.07.03h-4.8a.1.1 0 0 1-.07-.03.1.1 0 0 1-.03-.07v-6.65a.1.1 0 0 1 .03-.06.1.1 0 0 1 .07-.03l4.73-.16a.11.11 0 0 1 .08.03.1.1 0 0 1 .03.07v1.3a.1.1 0 0 1-.03.07.1.1 0 0 1-.07.03h-3.02a.1.1 0 0 0-.07.03.1.1 0 0 0-.03.07v.98c0 .02.01.05.03.07a.1.1 0 0 0 .08.02h2.7a.1.1 0 0 1 .08.03.1.1 0 0 1 .03.07v1.3a.1.1 0 0 1-.03.07.1.1 0 0 1-.07.03h-2.78a.1.1 0 0 0-.08.03.1.1 0 0 0-.03.07ZM37.04 26.99c.03 0 .05-.02.07-.05.5-1.06.87-1.8 1.1-2.2.03-.07.1-.13.17-.17a.5.5 0 0 1 .25-.07h1.43a.1.1 0 0 1 .05.01.1.1 0 0 1 .04.04.09.09 0 0 1 0 .09L38 28.4c-.13.23-.2.57-.2 1.03v1.97c0 .03-.01.05-.03.06a.09.09 0 0 1-.06.03h-1.46a.13.13 0 0 1-.09-.03.11.11 0 0 1-.03-.08v-2.3a1.6 1.6 0 0 0-.23-.76l-.41-.7a27.16 27.16 0 0 1-1.61-2.99.06.06 0 0 1 .03-.04l.03-.01h1.48c.07 0 .13.02.18.05.05.03.1.07.13.12l1.24 2.18c0 .02.02.03.03.03l.04.02ZM42.79 31.41c0 .03-.01.05-.03.06a.1.1 0 0 1-.07.03h-1.35a.12.12 0 0 1-.08-.03.11.11 0 0 1-.04-.07c-.1-.57-.15-1.11-.15-1.61v-4.47a6.17 6.17 0 0 0-.05-.66.18.18 0 0 1 .1-.11 259.04 259.04 0 0 0 2.84-.05c.23 0 .56.06 1 .19.42.13.73.34.94.64.18.25.3.6.37 1.06.08.59-.05 1.12-.4 1.6-.37.5-.86.77-1.47.82l-1.49.06a.13.13 0 0 0-.09.03.12.12 0 0 0-.03.09v2.42ZM8.34 29.3a.31.31 0 0 0-.13.15l-.95 1.79a.4.4 0 0 1-.15.16.44.44 0 0 1-.23.06h-.9a.36.36 0 0 1-.22-.07.33.33 0 0 1-.12-.18L4 24.57a.06.06 0 0 1 .01-.05l.03-.01.02-.01h1.51c.02 0 .04 0 .06.02l.03.04.88 3.96c0 .03.02.06.04.08.02.02.05.04.09.04l.09-.01a.16.16 0 0 0 .07-.06l1-1.65a.22.22 0 0 1 .16-.1c.24-.03.48-.04.74-.01.12 0 .25.12.37.33l.05.08a88.55 88.55 0 0 1 .92 1.5.15.15 0 0 0 .16 0 4.28 4.28 0 0 0 .33-1c.17-1.03.37-2.07.59-3.12 0-.03.02-.05.04-.07a.12.12 0 0 1 .08-.03h1.45a.1.1 0 0 1 .06.03.08.08 0 0 1 .02.07l-.05.24a78.08 78.08 0 0 1-1.68 6.55.16.16 0 0 1-.06.08.17.17 0 0 1-.1.03H9.75a.05.05 0 0 1-.04-.02l-1.3-2.16a.05.05 0 0 0-.03-.02h-.04Z" fill="#EE6D60"/><path d="M9.2 25.53a.74.74 0 0 0-.48-.96.8.8 0 0 0-1 .47c-.15.4.06.83.47.96a.8.8 0 0 0 1-.47ZM15.4 24.5h-1.27a.11.11 0 0 0-.12.11L14 31.9c0 .06.05.11.11.11h1.28c.06 0 .11-.05.11-.11l.01-7.27a.11.11 0 0 0-.11-.12ZM21.5 24.6a.1.1 0 0 1 .03-.07.1.1 0 0 1 .08-.03h2.46c.9 0 1.78.34 2.42.95.65.6 1 1.43 1.01 2.29v.5a3.1 3.1 0 0 1-1 2.3 3.44 3.44 0 0 1-2.42.96h-2.46a.1.1 0 0 1-.08-.03.1.1 0 0 1-.03-.07l-.01-6.8ZM30.82 24.52l1.06-.01c.75-.02 1.26 0 1.52.03.03 0 .05.02.07.04a.1.1 0 0 1 .02.07v1.28c0 .02 0 .05-.02.06-.02.02-.05.01-.07.01h-1.65l-.04.03a.1.1 0 0 0-.06.05.1.1 0 0 0 0 .04v5.3l-.03.05a7566.7 7566.7 0 0 0-1.53 0l-.02-.02-.07-.03v-5.33a.1.1 0 0 0-.06-.05l-.03-.04h-1.65c-.02 0-.05.03-.06.02a.09.09 0 0 1-.03-.07l-.01-1.28c0-.03 0-.05.02-.07a.11.11 0 0 1 .07-.04c.26-.04.76-.05 1.52-.05l1.05.01Z" fill="#EE6D60"/></svg>