<!-- by TradingView --><svg xmlns="http://www.w3.org/2000/svg" width="56" height="56" viewBox="0 0 56 56"><path fill="#F0F3FA" d="M0 0h56v56H0z"/><path d="M45 15v16.74c0 .2-.08.26-.26.26H29.2c-.18 0-.24-.05-.23-.25.01-.42.04-1.08.02-1.5 0-.2.05-.25.25-.25h9.34c1.29 0 3.06-.84 3.35-2.13.05-.2.07-.4.07-.59V17.25c0-.2-.04-.24-.22-.24L33.56 17c-.32 0-.55 0-.55.34L33 26.38c0 .44-.04.87-.3 1.23-.44.61-.84.84-1.53.91-.11.01-.17-.04-.17-.13l.01-11.1c0-.22.03-.3-.2-.29-.71.02-.9-.01-1.6 0-.16 0-.21-.03-.21-.2V15h16z" fill="#A3A4A2"/><path d="M11 15v16.74c0 .2.07.26.26.26h15.5c.18 0 .25-.05.24-.25-.02-.42-.04-1.08-.03-1.5 0-.2-.04-.25-.24-.25H17.4c-1.3 0-3.07-.88-3.35-2.17-.05-.2-.06-.4-.06-.59V17.21c0-.2.03-.24.21-.24l8.2.03c.33 0 .55 0 .55.34l.01 9.04c0 .44.05.87.3 1.23.44.61.84.84 1.53.91.11.01.17-.04.17-.13l-.01-11.1c0-.22-.03-.3.2-.29.71.02.92-.01 1.63 0 .16 0 .18-.03.18-.2V15H11z" fill="#501C23"/><path d="M11 33c.5 0 1.01.02 1.52 0 .16 0 .18.07.2.2a1453.55 1453.55 0 0 0 .38 4.64l.2-2.1c.1-.86.18-1.72.26-2.57.01-.11.05-.17.17-.16h1.54c.12 0 .15.04.16.16l.43 4.18c.01.14 0 .27.06.46l.06-.6.25-3.05.08-1.01c0-.1.04-.15.14-.14h1.44c.11 0 .12.03.1.14l-.61 5.48-.15 1.22c0 .1-.03.15-.15.15h-1.93c-.13 0-.15-.05-.17-.17a915.53 915.53 0 0 0-.46-3.86l-.25 1.95-.24 1.95c-.02.1-.06.13-.16.13h-1.96c-.1 0-.13-.04-.14-.14a1022.22 1022.22 0 0 0-.64-5.65c-.04-.34-.05-.7-.13-1.04V33zM42.56 39.99c-.16-.02-.32 0-.48-.05-.6-.16-.97-.57-1.04-1.19-.05-.42-.03-.84-.04-1.26 0-.1.03-.13.13-.13h1.3c.14 0 .12.07.13.16 0 .35-.02.71.02 1.07.02.18.1.27.3.27.19 0 .29-.08.3-.25.08-.86.03-1.11-.48-1.57l-.79-.5a1.9 1.9 0 0 1-.92-1.75c.01-.26 0-.53.06-.8.13-.57.49-.94 1.05-1.09a3.62 3.62 0 0 1 2 .03c.63.19.9.65.9 1.3v.72c0 .03-.02.05-.05.05h-1.5a.05.05 0 0 1-.04-.05c0-.22.02-.56-.03-.76-.04-.19-.15-.3-.35-.29-.21.01-.27.16-.3.33-.07.5.07.9.54 1.16.23.12.45.26.67.4.62.37.93.8 1.04 1.56H45v1.36c-.08.6-.23 1.03-.8 1.23-.16.05-.33.07-.5.06-.38 0-.76.02-1.14-.01zM36.97 37.04l.35-3.34.03-.23c.06-.46.06-.46.52-.46h1.87c.13 0 .16.03.16.16v6.67c0 .12-.02.16-.15.16h-1.27c-.12 0-.15-.04-.15-.16v-4.72a.6.6 0 0 0-.03-.25 10006.21 10006.21 0 0 0-.73 4.95c-.02.12-.07.19-.21.18-.29-.02-.57-.01-.85 0-.12 0-.15-.03-.17-.15l-.74-4.9c-.06.02-.03.07-.03.1v4.75c0 .16-.03.2-.19.2h-1.23c-.12 0-.15-.03-.15-.15v-6.67c0-.13.02-.17.16-.17h2.14c.13 0 .17.03.18.15l.37 3.15.1.73h.02zM21 36.5v-3.3c0-.15.02-.2.18-.2.47.01.62.02 1.1 0 .18 0 .2.06.2.23l-.01 5.18c0 .19.04.25.22.23h.86c.11 0 .16.03.15.15v1.08c0 .1-.02.13-.12.13h-2.45c-.15 0-.12-.1-.12-.18V36.5z"/><path fill-rule="evenodd" d="M31.58 33h-1.52c-.11 0-.17.01-.18.15a29.78 29.78 0 0 1-.17 1.35l-.7 5.36c-.02.1 0 .14.1.14h1.62c.1 0 .13-.03.13-.13l.03-.45.02-.27c0-.2.01-.29.06-.34.05-.04.14-.04.33-.04h.17c.12-.02.15.04.16.15 0 .18.02.35.03.53l.02.4c.01.11.05.15.17.15H33.32c.12 0 .18 0 .2-.03.03-.03.02-.1 0-.23a2483.34 2483.34 0 0 1-.93-6.59c-.01-.11-.06-.15-.17-.15h-.84zm-.31 1.1l-.4 3.4h.76l-.36-3.4z"/><path d="M24 36.5v-3.3c0-.15.02-.2.18-.2.47.01.62.02 1.1 0 .18 0 .2.06.2.23l-.01 5.18c0 .19.04.25.22.23h.86c.11 0 .16.03.15.15v1.08c0 .1-.02.13-.12.13h-2.45c-.15 0-.12-.1-.12-.18V36.5zM19 36.5v-3.3c0-.15.02-.2.15-.2h1.2c.12 0 .15.03.15.18v6.67c0 .11-.02.15-.12.15h-1.24c-.13 0-.14-.05-.14-.18V36.5zM28.5 36.52v3.28c0 .15-.02.2-.16.2h-1.21c-.1 0-.13-.02-.13-.15v-6.69c0-.14.04-.16.14-.16h1.2c.13 0 .16.03.16.2v3.32z"/></svg>