<!-- by TradingView --><svg width="56" height="56" viewBox="0 0 56 56" xmlns="http://www.w3.org/2000/svg"><path fill="#F0F3FA" d="M0 0h56v56H0z"/><path d="M33.58 14a8.69 8.69 0 0 0-4.37 1.22c-2.74 1.64-3.62 4.6-3.04 7.54C35.25 20.23 39.7 27.43 39.63 34a11.07 11.07 0 0 0 3.83-5.47c.7-2.2.72-4.55.05-6.76a11.08 11.08 0 0 0-3.76-5.52A10.53 10.53 0 0 0 33.58 14Z" fill="#0076BE"/><path d="M36.84 39.83A9.06 9.06 0 0 0 38 35.38c0-3.21-2.06-5.45-4.81-6.38-2.42 9.25-10.7 9.62-16.19 6.3a10.97 10.97 0 0 0 2.68 6.07 10.62 10.62 0 0 0 12.18 2.77 10.8 10.8 0 0 0 4.98-4.31Z" fill="#004E95"/><path d="M13.26 29.9a8.85 8.85 0 0 0 3.2 3.21c2.75 1.6 5.67.91 7.84-1.02C17.64 25.39 21.46 18 27 14.9a10.63 10.63 0 0 0-12.15 2.57 10.85 10.85 0 0 0-1.6 12.43Z" fill="#00A3C9"/></svg>