<!-- by TradingView --><svg xmlns="http://www.w3.org/2000/svg" width="56" height="56" viewBox="0 0 56 56"><path fill="#F0F3FA" d="M0 0h56v56H0z"/><path d="M30.56 40C37.46 40 43 34.52 43 27.75c0-1.86-.24-3.37-1-4.95.52 1.27.69 2.4.69 3.86 0 6.16-5.15 11.34-11.5 11.34s-11.5-5.18-11.5-11.34c0-5 3.38-9.24 8.05-10.66A11.65 11.65 0 0 0 18 27.75C18 34.52 23.66 40 30.56 40Z" fill="#0072BB"/><path fill-rule="evenodd" d="M36 23.5v-.53c0-4.6 1.38-10.34 6-12.97-1.72 1.69-3 4.63-3 8 0 1.2.4 2.32.84 3.56C40.4 23.1 41 24.8 41 27.07A8.97 8.97 0 0 1 32.13 36c-2.97 0-5.63-1.22-7.13-2.52 1.44.32 2.84.52 4.31.52 2.76 0 6.69-1.25 6.69-4.94 0-4.5-6.47-6.57-9-6.43A6.8 6.8 0 0 1 31.28 21 5.7 5.7 0 0 1 36 23.5Zm1.51.34c.09-.1.17-.19.28-.24.23.25.44.62.55.93h.04c.06-.16.04-.53.04-.53h.4v.24l.1-.1c.1-.1.23-.22.44-.34.07.07.12.18.17.28l.08.15-.02.01c-.13.12-.48.41-.32.6.08.08.53-.38.53-.38s.15.22.2.32l-.18.15c-.12.09-.24.18-.3.29.21.44.35 2.57-.79 2.78-.18 0-.33-.04-.5-.12-.84-.43-1.23-1.39-1.23-2.22 0-.53.43-.75.79-.92a.81.81 0 0 0-.11-.38 3.38 3.38 0 0 0-.22-.35l-.05-.07.1-.1ZM36 14a16.1 16.1 0 0 0-5.61-1C21.87 13 15 19.6 15 27.75s6.87 14.76 15.39 14.76c4.06 0 7.86-1.5 10.61-3.95A16.92 16.92 0 0 1 28.5 44C19.39 44 12 36.84 12 28s7.39-16 16.5-16c2.22 0 5.31.44 7.5 2Zm-3.5 6a2.5 2.5 0 1 0 0-5 2.5 2.5 0 0 0 0 5Z" fill="#004699"/></svg>