<!-- by TradingView --><svg width="56" height="56" viewBox="0 0 56 56" xmlns="http://www.w3.org/2000/svg"><path fill="#DD0031" d="M0 0h56v56H0z"/><path d="M24 19H10v2h14v-2ZM16 28.02l-3.9 7.83s-.1.24-.1.5c0 .31.16.65.82.65h9.48s.7-.17.7-.73c0-.14-.04-.31-.15-.51C22.3 34.79 20 31 20 31h3l2.78 4.72s.22.47.22.84c0 .36-.24 2.44-2.14 2.44H11.1S9 38.79 9 36.61c0-.45.2-.9.2-.9L12.49 28H7v-2h20v2l-11 .02ZM35 35h-3.19L30 39h2.47L35 35ZM43 35h3.17L48 39h-2.47L43 35Z" fill="#F0F3FA"/><path d="M37 30.5h4v.5h7v2h-7v6h-4v-6h-7v-2h7v-.5ZM34 17h-3l-2 7h1v5.09c0 .51.42.91.92.91L47 29.98V28h-6v-1h6v-2h-6v-1h6v-2h-6v-1h6v-2h-6l-.5-2h-3l.5 2h-4.5l.5-2Zm-1 10.3V27h5v1h-4.29a.72.72 0 0 1-.71-.7Zm0-2.3v-1h5v1h-5Zm0-3v-1h5v1h-5Z" fill="#F0F3FA"/></svg>