<!-- by TradingView --><svg width="56" height="56" viewBox="0 0 56 56" xmlns="http://www.w3.org/2000/svg"><path fill="#F0F3FA" d="M0 0h56v56H0z"/><path d="M30 19.14v2.89a.1.1 0 0 0 .05.09.1.1 0 0 0 .1 0l5.73-3.32a.24.24 0 0 0 .12-.21v-2.96a.11.11 0 0 1 .1-.11l.06.01 5.92 3.52a.14.14 0 0 1 .05.19.14.14 0 0 1-.05.05L28.3 27.24a.59.59 0 0 1-.58 0l-1.5-.75a.42.42 0 0 1-.15-.15.42.42 0 0 1-.07-.2v-6.96a388.84 388.84 0 0 1 0-2.95.1.1 0 0 0-.1-.04.1.1 0 0 0-.04 0l-5.74 3.33a.24.24 0 0 0-.12.2v2.97a.11.11 0 0 1-.11.1h-.06l-5.91-3.52a.14.14 0 0 1 0-.25l13.78-7.94a.59.59 0 0 1 .58 0l1.5.74c.07.04.12.09.15.15.04.07.07.14.07.2v6.97Z" fill="#025E6A"/><path d="m16.65 34.9 6.57 3.82a.15.15 0 0 0 .2-.05.15.15 0 0 0 .02-.08v-1.46a.15.15 0 0 1 .08-.13.15.15 0 0 1 .15 0l3.26 1.9a.15.15 0 0 1 .07.13v5.8a.15.15 0 0 1-.07.13.15.15 0 0 1-.15 0l-13.7-7.99a.15.15 0 0 1-.08-.13V20.87a.15.15 0 0 1 .08-.13.15.15 0 0 1 .14 0l13.7 7.99a.15.15 0 0 1 .08.13v5.67a.15.15 0 0 1-.08.13.15.15 0 0 1-.15 0l-3.24-1.89a.15.15 0 0 1-.08-.13v-1.69a.15.15 0 0 0-.07-.13L16.8 27a.15.15 0 0 0-.23.13v7.64a.15.15 0 0 0 .08.13Z" fill="#02A4A5"/><path d="M43 20.82V32.5c0 .44-.12.72-.35.86l-9.81 5.78a.57.57 0 0 0-.29.5v3.04a.62.62 0 0 1-.3.54l-3.03 1.76a.15.15 0 0 1-.2-.05.15.15 0 0 1-.02-.08V29.02a.43.43 0 0 1 .21-.37l13.6-7.93a.13.13 0 0 1 .12 0 .12.12 0 0 1 .06.1ZM32.55 34.86a.14.14 0 0 0 .07.12.13.13 0 0 0 .13 0l6.6-3.86a.14.14 0 0 0 .07-.12v-3.92a.14.14 0 0 0-.13-.13c-.03 0-.05 0-.07.02l-6.6 3.85a.14.14 0 0 0-.07.12v3.92Z" fill="#027F80"/></svg>