<!-- by TradingView --><svg width="56" height="56" viewBox="0 0 56 56" xmlns="http://www.w3.org/2000/svg"><path fill="#F0F3FA" d="M0 0h56v56H0z"/><path d="M28 24c13.25 0 24 1.74 24 3.9 0 .38-.34.75-.98 1.1.3-.24.45-.5.45-.75 0-2.1-10.5-3.82-23.47-3.82-12.96 0-23.47 1.71-23.47 3.82 0 .26.15.5.45.75-.64-.35-.98-.72-.98-1.1C4 25.74 14.75 24 28 24Z" fill="#C82982"/><path d="M38.23 26.74c0 .09.02.17.03.26H18a9.88 9.88 0 0 1 1-3.43l19.23 3.17Z" fill="#FCD10E"/><path d="M28.13 18c1.86 0 3.61.5 5.11 1.36l-6.58 4.43H18.9A10.2 10.2 0 0 1 28.13 18Z" fill="#FAAA37"/><path d="M26.34 24.27c0-4.44 4.47-5.14 6.88-4.92A10.04 10.04 0 0 1 38.26 27h-.02c-2.72-.65-8.84-.97-11.66-1.04a9.26 9.26 0 0 1-.24-1.7Z" fill="#CA1E4E"/><ellipse cx="28.05" cy="24.03" rx="9.04" ry="2.01" fill="#FBED2E"/><path d="M28.05 22.02c5 0 9.04.9 9.04 2 0 1.07-3.74 1.95-8.47 2.01l-2.04-.07a9.26 9.26 0 0 1-.24-1.7c0-.88.17-1.61.48-2.22.4-.02.81-.02 1.23-.02Z" fill="#EE5223"/><path d="M28.13 38c5.17 0 9.42-3.5 9.94-8H18.19c.52 4.5 4.77 8 9.94 8Z" fill="#22AB68"/><path d="M37.44 32.3C36 35.65 32.37 38 28.13 38c-.97 0-1.9-.12-2.78-.35l1.72-5.34h10.37Z" fill="#1D4495"/><path d="M30 30.38c.51.48 1.3 1.26 1.3 2.77 0 1.91-1.1 4.44-4.1 4.81-3.89-.32-7.13-2.63-8.44-5.78.6-.6 2.54-1.57 6.86-1.8 1.44-.07 3.05-.07 4.38 0Z" fill="#0C65AD"/><ellipse cx="28.05" cy="32.23" rx="9.04" ry="1.92" fill="#118643"/><path d="M25.62 30.38c1.44-.07 3.05-.07 4.38 0 .51.48 1.3 1.26 1.3 2.77 0 .29-.02.58-.07.88-.99.08-2.06.12-3.18.12-5 0-9.05-.86-9.05-1.92 0-.13.07-.25.18-.38.9-.58 2.84-1.28 6.44-1.47Z" fill="#2B9ED8"/><path d="M16.88 31c.14.69.33 1.36.56 2-4.35-.44-7.98-1.14-10.44-2h9.88ZM49 31c-2.46.86-6.1 1.56-10.44 2 .23-.64.42-1.31.56-2H49ZM14 27a1 1 0 0 1 1 1v1a1 1 0 0 1-1 1h-2a1 1 0 0 1-1-1v-1a1 1 0 0 1 1-1h2Zm-1.5 1a.5.5 0 0 0 0 1h1a.5.5 0 0 0 0-1h-1ZM22 27a1 1 0 0 1 1 1v1a1 1 0 0 1-1 1h-2a1 1 0 0 1-1-1v-1a1 1 0 0 1 1-1h2Zm-1.5 1a.5.5 0 0 0 0 1h1a.5.5 0 0 0 0-1h-1ZM11 28H8.49c-.27 0-.49.1-.49.44v.12c0 .35.22.44.49.44H11v1H7.49c-.27 0-.49-.28-.49-.62v-1.76c0-.34.22-.62.49-.62H11v1ZM16 29.24h3V30h-3.44c-.3 0-.56-.28-.56-.62V27h1v2.24ZM28 28.84c0 .23-.17.42-.37.42h-.83l.88.74h-1.32l-1.61-1.36h1.9c.2 0 .35-.05.35-.26 0-.2-.15-.38-.34-.38H24v2h-1v-2.59c0-.22.17-.41.37-.41h4.26c.2 0 .37.19.37.41v1.43ZM49 28.84c0 .23-.17.42-.37.42h-.83l.88.74h-1.32l-1.61-1.36h1.9c.2 0 .35-.05.35-.26 0-.2-.15-.38-.34-.38H45v2h-1v-2.59c0-.22.17-.41.37-.41h4.26c.2 0 .37.19.37.41v1.43ZM38 28h-2.05v1.22H37V30h-1.42c-.32 0-.58-.28-.58-.62V28h-2v-1h5v1ZM44 30h-1.35l-.3-.45h-2.3l.5-.92h1.18L41 27.56 39.35 30H38l2.04-3h1.92L44 30Z" fill="#C82982"/><path d="M33 28h-3.58v.43h3.39c.1 0 .19.1.19.21V29h-4.42c-.32 0-.58-.29-.58-.65v-.7c0-.36.26-.65.58-.65H33v1ZM28 29.31h5v.28c0 .22-.17.4-.38.4H28v-.68Z" fill="#C82982"/></svg>