<!-- by TradingView --><svg width="56" height="56" viewBox="0 0 56 56" xmlns="http://www.w3.org/2000/svg"><path fill="#F0F3FA" d="M0 0h56v56H0z"/><path d="m24 12.1-.12 1.32c0 1.73 2.11 2.58 3.51 2.58 2.78 0 3.76-5 6.61-5 1.2 0 2 1.03 2 2 0 1-1.45 1.77-3.94 3.3C26.88 19.52 23 24.13 23 30.5c0 2.5 1.15 3.98 3.38 4.59l6.27.8c2.23.5 3.35 1.92 3.35 4.24 0 1.77-.64 3.37-1.92 4.78A5.64 5.64 0 0 1 29.55 47c-1.09 0-2.55-.51-2.55-1.82 0-1.04.88-1.63 1.86-1.63l2.67.45c1.35 0 2.47-.65 2.47-2.23 0-3.25-3.03-3-5.4-3-4.85 0-8.6-2.22-8.6-7.27 0-5.57 4-10.92 7.76-14.77-.73.17-1.69.27-2.87.27-2.24 0-4.89-1.36-4.89-3.88A2.23 2.23 0 0 1 22.14 11c1.18 0 1.86.36 1.86 1.1Z" fill="#2B317E"/></svg>